<svg width="24" height="24" viewBox="0 0 24 24" fill="none" xmlns="http://www.w3.org/2000/svg">
<g clip-path="url(#clip0_24908_178473)">
<path d="M19.2405 1H5.33119C5.24336 1 5.15912 1.0349 5.09701 1.09701C5.0349 1.15912 5 1.24336 5 1.33119V22.6688C5 22.7566 5.0349 22.8409 5.09701 22.903C5.15912 22.9651 5.24336 23 5.33119 23H19.2405C19.3283 23 19.4126 22.9651 19.4747 22.903C19.5368 22.8409 19.5717 22.7566 19.5717 22.6688V1.33119C19.5717 1.24336 19.5368 1.15912 19.4747 1.09701C19.4126 1.0349 19.3283 1 19.2405 1ZM18.9093 22.3376H5.66239V1.66239H18.9093V22.3376Z" fill="#031F2B"/>
<path d="M7.45424 18.7589H17.0216C17.1095 18.7589 17.1937 18.724 17.2558 18.6619C17.3179 18.5998 17.3528 18.5156 17.3528 18.4277V3.4435C17.3528 3.35566 17.3179 3.27142 17.2558 3.20931C17.1937 3.1472 17.1095 3.11231 17.0216 3.1123H7.45424C7.3664 3.11231 7.28217 3.1472 7.22006 3.20931C7.15795 3.27142 7.12305 3.35566 7.12305 3.4435V18.4277C7.12305 18.5156 7.15795 18.5998 7.22006 18.6619C7.28217 18.724 7.3664 18.7589 7.45424 18.7589ZM7.78543 3.77469H16.6905V18.0965H7.78543V3.77469Z" fill="#031F2B"/>
</g>
<defs>
<clipPath id="clip0_24908_178473">
<rect width="14.5717" height="22" fill="white" transform="translate(5 1)"/>
</clipPath>
</defs>
</svg>
