<svg width="24" height="24" viewBox="0 0 24 24" fill="none" xmlns="http://www.w3.org/2000/svg">
<g id="bitbox-hardware-dark">
<g id="Union">
<path d="M9.73059 10.7364L11.4686 10V15.4865L8 16.9594V14.8605L9.73059 14.0504V10.7364Z" fill="#031F2B"/>
<path d="M12.5313 10L14.2693 10.7364V14.0504L16 14.8605V16.9594L12.5313 15.4865V10Z" fill="#031F2B"/>
<path d="M11.9954 19.3243L8.40517 17.7888L11.9954 16.2533L15.5857 17.7888L11.9954 19.3243Z" fill="#031F2B"/>
<path fill-rule="evenodd" clip-rule="evenodd" d="M9 5V1H15V5H17C18.1046 5 19 5.89543 19 7V21C19 22.1046 18.1046 23 17 23H7C5.89543 23 5 22.1046 5 21V7C5 5.89543 5.89543 5 7 5H9ZM10 2H14V5H10V2ZM7 6C6.44772 6 6 6.44772 6 7V21C6 21.5523 6.44772 22 7 22H17C17.5523 22 18 21.5523 18 21V7C18 6.44772 17.5523 6 17 6H7Z" fill="#031F2B"/>
</g>
</g>
</svg>
