<svg width="21" height="20" viewBox="0 0 21 20" fill="none" xmlns="http://www.w3.org/2000/svg">
<path d="M8.45925 8.73382L9.90759 8.15082V12.4943L7.01709 13.6604V11.9987L8.45925 11.3574V8.73382Z" fill="white"/>
<path d="M10.7932 8.15082L12.2415 8.73382V11.3574L13.6838 11.9987V13.6604L10.7932 12.4943V8.15082Z" fill="white"/>
<path d="M10.3466 15.5326L7.35473 14.317L10.3466 13.1014L13.3385 14.317L10.3466 15.5326Z" fill="white"/>
<path fill-rule="evenodd" clip-rule="evenodd" d="M7.85042 4.19248V1.02582H12.8504V4.19248H14.5171C15.4376 4.19248 16.1838 4.90137 16.1838 5.77582V16.8592C16.1838 17.7336 15.4376 18.4425 14.5171 18.4425H6.18376C5.26328 18.4425 4.51709 17.7336 4.51709 16.8592V5.77582C4.51709 4.90137 5.26328 4.19248 6.18376 4.19248H7.85042ZM8.68376 1.81748H12.0171V4.19248H8.68376V1.81748ZM6.18376 4.98415C5.72352 4.98415 5.35042 5.33859 5.35042 5.77582V16.8592C5.35042 17.2964 5.72352 17.6508 6.18376 17.6508H14.5171C14.9773 17.6508 15.3504 17.2964 15.3504 16.8592V5.77582C15.3504 5.33859 14.9773 4.98415 14.5171 4.98415H6.18376Z" fill="white"/>
</svg>
