<svg width="20" height="20" viewBox="0 0 20 20" fill="none" xmlns="http://www.w3.org/2000/svg">
<path fill-rule="evenodd" clip-rule="evenodd" d="M5.89242 2.60915V5.77582H10.6424V2.60915H5.89242ZM9.85075 3.40082H6.68408V4.98415H9.85075V3.40082Z" fill="white"/>
<path d="M7.47575 8.94248C7.47575 9.37971 7.12131 9.73415 6.68408 9.73415C6.24686 9.73415 5.89242 9.37971 5.89242 8.94248C5.89242 8.50526 6.24686 8.15082 6.68408 8.15082C7.12131 8.15082 7.47575 8.50526 7.47575 8.94248Z" fill="white"/>
<path d="M6.68408 12.1092C7.12131 12.1092 7.47575 11.7547 7.47575 11.3175C7.47575 10.8803 7.12131 10.5258 6.68408 10.5258C6.24686 10.5258 5.89242 10.8803 5.89242 11.3175C5.89242 11.7547 6.24686 12.1092 6.68408 12.1092Z" fill="white"/>
<path d="M7.47575 13.6925C7.47575 14.1297 7.12131 14.4842 6.68408 14.4842C6.24686 14.4842 5.89242 14.1297 5.89242 13.6925C5.89242 13.2553 6.24686 12.9008 6.68408 12.9008C7.12131 12.9008 7.47575 13.2553 7.47575 13.6925Z" fill="white"/>
<path d="M6.68408 16.8592C7.12131 16.8592 7.47575 16.5047 7.47575 16.0675C7.47575 15.6303 7.12131 15.2758 6.68408 15.2758C6.24686 15.2758 5.89242 15.6303 5.89242 16.0675C5.89242 16.5047 6.24686 16.8592 6.68408 16.8592Z" fill="white"/>
<path d="M10.6424 8.94248C10.6424 9.37971 10.288 9.73415 9.85075 9.73415C9.41352 9.73415 9.05908 9.37971 9.05908 8.94248C9.05908 8.50526 9.41352 8.15082 9.85075 8.15082C10.288 8.15082 10.6424 8.50526 10.6424 8.94248Z" fill="white"/>
<path d="M9.85075 12.1092C10.288 12.1092 10.6424 11.7547 10.6424 11.3175C10.6424 10.8803 10.288 10.5258 9.85075 10.5258C9.41352 10.5258 9.05908 10.8803 9.05908 11.3175C9.05908 11.7547 9.41352 12.1092 9.85075 12.1092Z" fill="white"/>
<path d="M10.6424 13.6925C10.6424 14.1297 10.288 14.4842 9.85075 14.4842C9.41352 14.4842 9.05908 14.1297 9.05908 13.6925C9.05908 13.2553 9.41352 12.9008 9.85075 12.9008C10.288 12.9008 10.6424 13.2553 10.6424 13.6925Z" fill="white"/>
<path d="M9.85075 16.8592C10.288 16.8592 10.6424 16.5047 10.6424 16.0675C10.6424 15.6303 10.288 15.2758 9.85075 15.2758C9.41352 15.2758 9.05908 15.6303 9.05908 16.0675C9.05908 16.5047 9.41352 16.8592 9.85075 16.8592Z" fill="white"/>
<path d="M13.8091 8.94248C13.8091 9.37971 13.4546 9.73415 13.0174 9.73415C12.5802 9.73415 12.2257 9.37971 12.2257 8.94248C12.2257 8.50526 12.5802 8.15082 13.0174 8.15082C13.4546 8.15082 13.8091 8.50526 13.8091 8.94248Z" fill="white"/>
<path d="M13.0174 12.1092C13.4546 12.1092 13.8091 11.7547 13.8091 11.3175C13.8091 10.8803 13.4546 10.5258 13.0174 10.5258C12.5802 10.5258 12.2257 10.8803 12.2257 11.3175C12.2257 11.7547 12.5802 12.1092 13.0174 12.1092Z" fill="white"/>
<path d="M13.8091 13.6925C13.8091 14.1297 13.4546 14.4842 13.0174 14.4842C12.5802 14.4842 12.2257 14.1297 12.2257 13.6925C12.2257 13.2553 12.5802 12.9008 13.0174 12.9008C13.4546 12.9008 13.8091 13.2553 13.8091 13.6925Z" fill="white"/>
<path d="M13.0174 16.8592C13.4546 16.8592 13.8091 16.5047 13.8091 16.0675C13.8091 15.6303 13.4546 15.2758 13.0174 15.2758C12.5802 15.2758 12.2257 15.6303 12.2257 16.0675C12.2257 16.5047 12.5802 16.8592 13.0174 16.8592Z" fill="white"/>
<path fill-rule="evenodd" clip-rule="evenodd" d="M15.3924 16.8592C15.3924 17.7336 14.6835 18.4425 13.8091 18.4425H5.89242C5.01796 18.4425 4.30908 17.7336 4.30908 16.8592V2.60915C4.30908 1.7347 5.01796 1.02582 5.89242 1.02582H13.8091C14.6835 1.02582 15.3924 1.7347 15.3924 2.60915V16.8592ZM13.8091 1.81748H5.89242C5.45519 1.81748 5.10075 2.17193 5.10075 2.60915V6.56748H14.6007V2.60915C14.6007 2.17193 14.2463 1.81748 13.8091 1.81748ZM5.10075 7.35915V16.8592C5.10075 17.2964 5.45519 17.6508 5.89242 17.6508H13.8091C14.2463 17.6508 14.6007 17.2964 14.6007 16.8592V7.35915H5.10075Z" fill="white"/>
</svg>
