<svg width="24" height="24" viewBox="0 0 24 24" fill="none" xmlns="http://www.w3.org/2000/svg">
<g id="coldcard-hardware-dark">
<g id="Union">
<path fill-rule="evenodd" clip-rule="evenodd" d="M7 3V7H13V3H7ZM12 4H8V6H12V4Z" fill="#031F2B"/>
<path d="M9 11C9 11.5523 8.55228 12 8 12C7.44772 12 7 11.5523 7 11C7 10.4477 7.44772 10 8 10C8.55228 10 9 10.4477 9 11Z" fill="#031F2B"/>
<path d="M8 15C8.55228 15 9 14.5523 9 14C9 13.4477 8.55228 13 8 13C7.44772 13 7 13.4477 7 14C7 14.5523 7.44772 15 8 15Z" fill="#031F2B"/>
<path d="M9 17C9 17.5523 8.55228 18 8 18C7.44772 18 7 17.5523 7 17C7 16.4477 7.44772 16 8 16C8.55228 16 9 16.4477 9 17Z" fill="#031F2B"/>
<path d="M8 21C8.55228 21 9 20.5523 9 20C9 19.4477 8.55228 19 8 19C7.44772 19 7 19.4477 7 20C7 20.5523 7.44772 21 8 21Z" fill="#031F2B"/>
<path d="M13 11C13 11.5523 12.5523 12 12 12C11.4477 12 11 11.5523 11 11C11 10.4477 11.4477 10 12 10C12.5523 10 13 10.4477 13 11Z" fill="#031F2B"/>
<path d="M12 15C12.5523 15 13 14.5523 13 14C13 13.4477 12.5523 13 12 13C11.4477 13 11 13.4477 11 14C11 14.5523 11.4477 15 12 15Z" fill="#031F2B"/>
<path d="M13 17C13 17.5523 12.5523 18 12 18C11.4477 18 11 17.5523 11 17C11 16.4477 11.4477 16 12 16C12.5523 16 13 16.4477 13 17Z" fill="#031F2B"/>
<path d="M12 21C12.5523 21 13 20.5523 13 20C13 19.4477 12.5523 19 12 19C11.4477 19 11 19.4477 11 20C11 20.5523 11.4477 21 12 21Z" fill="#031F2B"/>
<path d="M17 11C17 11.5523 16.5523 12 16 12C15.4477 12 15 11.5523 15 11C15 10.4477 15.4477 10 16 10C16.5523 10 17 10.4477 17 11Z" fill="#031F2B"/>
<path d="M16 15C16.5523 15 17 14.5523 17 14C17 13.4477 16.5523 13 16 13C15.4477 13 15 13.4477 15 14C15 14.5523 15.4477 15 16 15Z" fill="#031F2B"/>
<path d="M17 17C17 17.5523 16.5523 18 16 18C15.4477 18 15 17.5523 15 17C15 16.4477 15.4477 16 16 16C16.5523 16 17 16.4477 17 17Z" fill="#031F2B"/>
<path d="M16 21C16.5523 21 17 20.5523 17 20C17 19.4477 16.5523 19 16 19C15.4477 19 15 19.4477 15 20C15 20.5523 15.4477 21 16 21Z" fill="#031F2B"/>
<path fill-rule="evenodd" clip-rule="evenodd" d="M19 21C19 22.1046 18.1046 23 17 23H7C5.89543 23 5 22.1046 5 21V3C5 1.89543 5.89543 1 7 1H17C18.1046 1 19 1.89543 19 3V21ZM17 2H7C6.44771 2 6 2.44772 6 3V8H18V3C18 2.44772 17.5523 2 17 2ZM6 9V21C6 21.5523 6.44772 22 7 22H17C17.5523 22 18 21.5523 18 21V9H6Z" fill="#031F2B"/>
</g>
</g>
</svg>
