<svg width="24" height="24" viewBox="0 0 24 24" fill="none" xmlns="http://www.w3.org/2000/svg">
<path fill-rule="evenodd" clip-rule="evenodd" d="M19.6624 1.3312V8.37915V22.6688C19.6624 22.7566 19.6273 22.8409 19.5648 22.903C19.5023 22.9651 19.4175 23 19.3292 23H5.33324C5.24486 23 5.1601 22.9651 5.0976 22.903C5.03511 22.8409 5 22.7566 5 22.6688V1.3312C5 1.24336 5.03511 1.15912 5.0976 1.09701C5.1601 1.03489 5.24486 1 5.33324 1H19.3292C19.4175 1 19.5023 1.03489 19.5648 1.09701C19.6273 1.15912 19.6624 1.24336 19.6624 1.3312ZM18.9959 8.04795V1.6624H5.66647V8.04795H18.9959ZM18.9959 8.71035H5.66647V22.3376H18.9959V8.71035ZM7.05852 6.75037C7.12137 6.81201 7.20598 6.84678 7.29428 6.84725H13.0659C13.1543 6.84725 13.2391 6.81235 13.3016 6.75024C13.3641 6.68813 13.3992 6.60389 13.3992 6.51605V3.14029C13.3992 3.05245 13.3641 2.9682 13.3016 2.90609C13.2391 2.84398 13.1543 2.80909 13.0659 2.80909H7.29428C7.2059 2.80909 7.12114 2.84398 7.05865 2.90609C6.99615 2.9682 6.96104 3.05245 6.96104 3.14029V6.51605C6.96151 6.60381 6.9965 6.6879 7.05852 6.75037ZM7.62752 3.47149H12.7327V6.18485H7.62752V3.47149ZM7.93402 9.78135C8.13953 9.64488 8.38113 9.57204 8.62828 9.57204C8.79239 9.57204 8.95489 9.60416 9.1065 9.66658C9.25811 9.72899 9.39587 9.82048 9.51191 9.93581C9.62795 10.0511 9.72 10.1881 9.7828 10.3387C9.8456 10.4894 9.87792 10.6509 9.87792 10.814C9.87792 11.0597 9.80463 11.2998 9.66732 11.5041C9.53001 11.7083 9.33484 11.8675 9.1065 11.9615C8.87816 12.0555 8.6269 12.0801 8.38449 12.0322C8.14209 11.9842 7.91942 11.866 7.74466 11.6923C7.56989 11.5186 7.45088 11.2973 7.40266 11.0563C7.35444 10.8154 7.37919 10.5657 7.47377 10.3387C7.56835 10.1118 7.72852 9.91782 7.93402 9.78135ZM7.93402 12.9931C8.13953 12.8567 8.38113 12.7838 8.62828 12.7838C8.79239 12.7838 8.95489 12.8159 9.1065 12.8784C9.25811 12.9408 9.39587 13.0323 9.51191 13.1476C9.62795 13.2629 9.72 13.3998 9.7828 13.5505C9.8456 13.7012 9.87792 13.8627 9.87792 14.0258C9.87792 14.2715 9.80463 14.5116 9.66732 14.7158C9.53001 14.9201 9.33484 15.0793 9.1065 15.1733C8.87816 15.2673 8.6269 15.2919 8.38449 15.2439C8.14209 15.196 7.91942 15.0777 7.74466 14.904C7.56989 14.7303 7.45088 14.509 7.40266 14.2681C7.35444 14.0272 7.37919 13.7775 7.47377 13.5505C7.56835 13.3236 7.72852 13.1296 7.93402 12.9931ZM8.62828 15.9967C8.38113 15.9967 8.13953 16.0695 7.93402 16.206C7.72852 16.3424 7.56835 16.5364 7.47377 16.7634C7.37919 16.9903 7.35444 17.24 7.40266 17.481C7.45088 17.7219 7.56989 17.9432 7.74466 18.1169C7.91942 18.2906 8.14209 18.4089 8.38449 18.4568C8.6269 18.5047 8.87816 18.4801 9.1065 18.3861C9.33484 18.2921 9.53001 18.1329 9.66732 17.9287C9.80463 17.7244 9.87792 17.4843 9.87792 17.2387C9.87792 17.0756 9.8456 16.9141 9.7828 16.7634C9.72 16.6127 9.62795 16.4758 9.51191 16.3604C9.39587 16.2451 9.25811 16.1536 9.1065 16.0912C8.95489 16.0288 8.79239 15.9967 8.62828 15.9967ZM7.93402 19.4177C8.13953 19.2813 8.38113 19.2084 8.62828 19.2084C8.79239 19.2084 8.95489 19.2406 9.1065 19.303C9.25811 19.3654 9.39587 19.4569 9.51191 19.5722C9.62795 19.6875 9.72 19.8244 9.7828 19.9751C9.8456 20.1258 9.87792 20.2873 9.87792 20.4504C9.87792 20.6961 9.80463 20.9362 9.66732 21.1404C9.53001 21.3447 9.33484 21.5039 9.1065 21.5979C8.87816 21.6919 8.6269 21.7165 8.38449 21.6686C8.14209 21.6206 7.91942 21.5023 7.74466 21.3286C7.56989 21.1549 7.45088 20.9336 7.40266 20.6927C7.35444 20.4518 7.37919 20.2021 7.47377 19.9751C7.56835 19.7482 7.72852 19.5542 7.93402 19.4177ZM12.3405 9.57204C12.0934 9.57204 11.8517 9.64488 11.6462 9.78135C11.4407 9.91782 11.2806 10.1118 11.186 10.3387C11.0914 10.5657 11.0667 10.8154 11.1149 11.0563C11.1631 11.2973 11.2821 11.5186 11.4569 11.6923C11.6316 11.866 11.8543 11.9842 12.0967 12.0322C12.3391 12.0801 12.5904 12.0555 12.8187 11.9615C13.0471 11.8675 13.2422 11.7083 13.3795 11.5041C13.5169 11.2998 13.5901 11.0597 13.5901 10.814C13.5901 10.4846 13.4585 10.1687 13.2241 9.93581C12.9898 9.70289 12.6719 9.57204 12.3405 9.57204ZM11.6462 12.9931C11.8517 12.8567 12.0934 12.7838 12.3405 12.7838C12.6719 12.7838 12.9898 12.9147 13.2241 13.1476C13.4585 13.3805 13.5901 13.6964 13.5901 14.0258C13.5901 14.2715 13.5169 14.5116 13.3795 14.7158C13.2422 14.9201 13.0471 15.0793 12.8187 15.1733C12.5904 15.2673 12.3391 15.2919 12.0967 15.2439C11.8543 15.196 11.6316 15.0777 11.4569 14.904C11.2821 14.7303 11.1631 14.509 11.1149 14.2681C11.0667 14.0272 11.0914 13.7775 11.186 13.5505C11.2806 13.3236 11.4407 13.1296 11.6462 12.9931ZM12.3405 15.9967C12.0934 15.9967 11.8517 16.0695 11.6462 16.206C11.4407 16.3424 11.2806 16.5364 11.186 16.7634C11.0914 16.9903 11.0667 17.24 11.1149 17.481C11.1631 17.7219 11.2821 17.9432 11.4569 18.1169C11.6316 18.2906 11.8543 18.4089 12.0967 18.4568C12.3391 18.5047 12.5904 18.4801 12.8187 18.3861C13.0471 18.2921 13.2422 18.1329 13.3795 17.9287C13.5169 17.7244 13.5901 17.4843 13.5901 17.2387C13.5901 16.9093 13.4585 16.5934 13.2241 16.3604C12.9898 16.1275 12.6719 15.9967 12.3405 15.9967ZM13.5924 20.4529C13.5924 21.1402 13.0318 21.6974 12.3403 21.6974C11.6488 21.6974 11.0882 21.1402 11.0882 20.4529C11.0882 19.7656 11.6488 19.2084 12.3403 19.2084C13.0318 19.2084 13.5924 19.7656 13.5924 20.4529ZM16.1174 12.061C16.3645 12.061 16.6062 11.9881 16.8117 11.8516C17.0172 11.7152 17.1773 11.5212 17.2719 11.2942C17.3665 11.0673 17.3912 10.8176 17.343 10.5767C17.2948 10.3357 17.1758 10.1144 17.001 9.94073C16.8263 9.76703 16.6036 9.64874 16.3612 9.60082C16.1188 9.55289 15.8675 9.57749 15.6392 9.67149C15.4108 9.7655 15.2157 9.92469 15.0784 10.1289C14.941 10.3332 14.8678 10.5733 14.8678 10.819C14.8678 11.1484 14.9994 11.4643 15.2338 11.6972C15.4681 11.9301 15.786 12.061 16.1174 12.061ZM15.4231 12.9931C15.6286 12.8567 15.8702 12.7838 16.1174 12.7838C16.4488 12.7838 16.7667 12.9147 17.001 13.1476C17.2354 13.3805 17.367 13.6964 17.367 14.0258C17.367 14.2715 17.2937 14.5116 17.1564 14.7158C17.0191 14.9201 16.8239 15.0793 16.5956 15.1733C16.3673 15.2673 16.116 15.2919 15.8736 15.2439C15.6312 15.196 15.4085 15.0777 15.2338 14.904C15.059 14.7303 14.94 14.509 14.8918 14.2681C14.8435 14.0272 14.8683 13.7775 14.9629 13.5505C15.0575 13.3236 15.2176 13.1296 15.4231 12.9931ZM16.1174 15.9967C15.8702 15.9967 15.6286 16.0695 15.4231 16.206C15.2176 16.3424 15.0575 16.5364 14.9629 16.7634C14.8683 16.9903 14.8435 17.24 14.8918 17.481C14.94 17.7219 15.059 17.9432 15.2338 18.1169C15.4085 18.2906 15.6312 18.4089 15.8736 18.4568C16.116 18.5047 16.3673 18.4801 16.5956 18.3861C16.8239 18.2921 17.0191 18.1329 17.1564 17.9287C17.2937 17.7244 17.367 17.4843 17.367 17.2387C17.367 16.9093 17.2354 16.5934 17.001 16.3604C16.7667 16.1275 16.4488 15.9967 16.1174 15.9967ZM15.4231 19.4177C15.6286 19.2813 15.8702 19.2084 16.1174 19.2084C16.4488 19.2084 16.7667 19.3393 17.001 19.5722C17.2354 19.8051 17.367 20.121 17.367 20.4504C17.367 20.6961 17.2937 20.9362 17.1564 21.1404C17.0191 21.3447 16.8239 21.5039 16.5956 21.5979C16.3673 21.6919 16.116 21.7165 15.8736 21.6686C15.6312 21.6206 15.4085 21.5023 15.2338 21.3286C15.059 21.1549 14.94 20.9336 14.8918 20.6927C14.8435 20.4518 14.8683 20.2021 14.9629 19.9751C15.0575 19.7482 15.2176 19.5542 15.4231 19.4177Z" fill="#031F2B"/>
</svg>
