<svg width="20" height="20" viewBox="0 0 20 20" fill="none" xmlns="http://www.w3.org/2000/svg">
<path fill-rule="evenodd" clip-rule="evenodd" d="M5.89242 2.60915H13.8091V15.2758H5.89242V2.60915ZM6.68408 3.40082H13.0174V14.4842H6.68408V3.40082Z" fill="white"/>
<path fill-rule="evenodd" clip-rule="evenodd" d="M4.30908 2.60915C4.30908 1.7347 5.01796 1.02582 5.89242 1.02582H13.8091C14.6835 1.02582 15.3924 1.7347 15.3924 2.60915V16.8592C15.3924 17.7336 14.6835 18.4425 13.8091 18.4425H5.89242C5.01796 18.4425 4.30908 17.7336 4.30908 16.8592V2.60915ZM5.89242 1.81748H13.8091C14.2463 1.81748 14.6007 2.17193 14.6007 2.60915V16.8592C14.6007 17.2964 14.2463 17.6508 13.8091 17.6508H5.89242C5.45519 17.6508 5.10075 17.2964 5.10075 16.8592V2.60915C5.10075 2.17193 5.45519 1.81748 5.89242 1.81748Z" fill="white"/>
</svg>
