<svg width="24" height="24" viewBox="0 0 24 24" fill="none" xmlns="http://www.w3.org/2000/svg">
<g id="keystone-hardware-dark">
<g id="Union">
<path fill-rule="evenodd" clip-rule="evenodd" d="M7 3H17V19H7V3ZM8 4H16V18H8V4Z" fill="#031F2B"/>
<path fill-rule="evenodd" clip-rule="evenodd" d="M5 3C5 1.89543 5.89543 1 7 1H17C18.1046 1 19 1.89543 19 3V21C19 22.1046 18.1046 23 17 23H7C5.89543 23 5 22.1046 5 21V3ZM7 2H17C17.5523 2 18 2.44772 18 3V21C18 21.5523 17.5523 22 17 22H7C6.44772 22 6 21.5523 6 21V3C6 2.44772 6.44771 2 7 2Z" fill="#031F2B"/>
</g>
</g>
</svg>
