<svg width="24" height="24" viewBox="0 0 24 24" fill="none" xmlns="http://www.w3.org/2000/svg">
<path fill-rule="evenodd" clip-rule="evenodd" d="M15 10C15 11.6569 13.6569 13 12 13C10.3431 13 9 11.6569 9 10C9 8.34315 10.3431 7 12 7C13.6569 7 15 8.34315 15 10ZM14 10C14 11.1046 13.1046 12 12 12C10.8954 12 10 11.1046 10 10C10 8.89543 10.8954 8 12 8C13.1046 8 14 8.89543 14 10Z" fill="#031F2B"/>
<path fill-rule="evenodd" clip-rule="evenodd" d="M6 3V21C6 22.1046 6.89543 23 8 23H16C17.1046 23 18 22.1046 18 21V3C18 1.89543 17.1046 1 16 1H8C6.89543 1 6 1.89543 6 3ZM8 2C7.44771 2 7 2.44772 7 3V10C7 12.7614 9.23858 15 12 15C14.7614 15 17 12.7614 17 10V3C17 2.44772 16.5523 2 16 2H8ZM17 21V13.3178C15.9251 14.9345 14.087 16 12 16C9.91303 16 8.07492 14.9345 7 13.3178V21C7 21.5523 7.44772 22 8 22H16C16.5523 22 17 21.5523 17 21Z" fill="#031F2B"/>
</svg>
