<svg width="20" height="20" viewBox="0 0 20 20" fill="none" xmlns="http://www.w3.org/2000/svg">
<path fill-rule="evenodd" clip-rule="evenodd" d="M12.2256 8.15082C12.2256 9.46249 11.1623 10.5258 9.85059 10.5258C8.53891 10.5258 7.47559 9.46249 7.47559 8.15082C7.47559 6.83914 8.53891 5.77582 9.85059 5.77582C11.1623 5.77582 12.2256 6.83914 12.2256 8.15082ZM11.4339 8.15082C11.4339 9.02527 10.725 9.73415 9.85059 9.73415C8.97614 9.73415 8.26725 9.02527 8.26725 8.15082C8.26725 7.27637 8.97614 6.56748 9.85059 6.56748C10.725 6.56748 11.4339 7.27637 11.4339 8.15082Z" fill="white"/>
<path fill-rule="evenodd" clip-rule="evenodd" d="M5.10059 2.60915V16.8592C5.10059 17.7336 5.80947 18.4425 6.68392 18.4425H13.0173C13.8917 18.4425 14.6006 17.7336 14.6006 16.8592V2.60915C14.6006 1.7347 13.8917 1.02582 13.0173 1.02582H6.68392C5.80947 1.02582 5.10059 1.7347 5.10059 2.60915ZM6.68392 1.81748C6.24669 1.81748 5.89225 2.17193 5.89225 2.60915V8.15082C5.89225 10.3369 7.66446 12.1092 9.85059 12.1092C12.0367 12.1092 13.8089 10.3369 13.8089 8.15082V2.60915C13.8089 2.17193 13.4545 1.81748 13.0173 1.81748H6.68392ZM13.8089 16.8592V10.7774C12.9579 12.0573 11.5028 12.9008 9.85059 12.9008C8.1984 12.9008 6.74323 12.0573 5.89225 10.7774V16.8592C5.89225 17.2964 6.24669 17.6508 6.68392 17.6508H13.0173C13.4545 17.6508 13.8089 17.2964 13.8089 16.8592Z" fill="white"/>
</svg>
