<svg width="20" height="20" viewBox="0 0 20 20" fill="none" xmlns="http://www.w3.org/2000/svg">
<path fill-rule="evenodd" clip-rule="evenodd" d="M8.26715 10.5258C8.2673 9.87002 8.79891 9.33852 9.45465 9.33852H16.5799C17.2358 9.33852 17.7674 9.87018 17.7674 10.526V15.276C17.7674 15.9319 17.2358 16.4635 16.5799 16.4635H9.45357C8.79763 16.4635 8.26593 15.9317 8.26607 15.2758L8.26715 10.5258ZM7.4112 6.54517C8.30225 6.54517 9.05288 7.14731 9.27851 7.96672H8.26581C8.09093 7.67768 7.77367 7.48442 7.41117 7.48442C6.86005 7.48442 6.41344 7.93106 6.41344 8.48215C6.41344 8.89407 6.66287 9.2475 7.01912 9.39992V10.3791C6.13726 10.1979 5.47419 9.41731 5.47419 8.48212C5.47419 7.41253 6.34161 6.54517 7.4112 6.54517ZM7.4112 3.00519C10.2621 3.00519 12.6041 5.18377 12.8637 7.96669H11.9196C11.6638 5.70312 9.74321 3.9445 7.41107 3.9445C4.90483 3.9445 2.87339 5.9759 2.87339 8.48218C2.87339 10.8562 4.69631 12.8039 7.01896 13.0029V13.9449C4.17731 13.7439 1.93408 11.375 1.93408 8.48231C1.93408 5.45769 4.38648 3.00519 7.4112 3.00519ZM7.4112 4.75663C9.29349 4.75663 10.8498 6.15328 11.1006 7.96666H10.1496C9.90789 6.67411 8.77392 5.69587 7.4112 5.69587C5.87227 5.69587 4.62498 6.94315 4.62498 8.48209C4.62498 9.88781 5.66588 11.05 7.01915 11.2405V12.1867C5.14619 11.9907 3.68605 10.4068 3.68605 8.48221C3.68605 6.42506 5.3538 4.75663 7.4112 4.75663ZM9.45491 11.3177C9.45491 11.0991 9.63214 10.9219 9.85075 10.9219H16.1841C16.4027 10.9219 16.5799 11.0991 16.5799 11.3177V11.7135C16.5799 11.9321 16.4027 12.1094 16.1841 12.1094H9.85075C9.63214 12.1094 9.45491 11.9321 9.45491 11.7135V11.3177Z" fill="white"/>
</svg>
