<svg width="24" height="24" viewBox="0 0 24 24" fill="none" xmlns="http://www.w3.org/2000/svg">
<path fill-rule="evenodd" clip-rule="evenodd" d="M9.99966 12.9997C9.99985 12.1714 10.6714 11.5 11.4997 11.5H20.5C21.3284 11.5 22 12.1716 22 13V19C22 19.8284 21.3284 20.5 20.5 20.5H11.4983C10.6697 20.5 9.99812 19.8282 9.99831 18.9997L9.99966 12.9997ZM8.91846 7.97156C10.044 7.97156 10.9922 8.73215 11.2772 9.7672H9.99797C9.77707 9.40209 9.37633 9.15797 8.91842 9.15797C8.22227 9.15797 7.65813 9.72215 7.65813 10.4183C7.65813 10.9386 7.97321 11.385 8.42321 11.5776V12.8145C7.30928 12.5855 6.47172 11.5995 6.47172 10.4182C6.47172 9.06716 7.5674 7.97156 8.91846 7.97156ZM8.91846 3.5C12.5195 3.5 15.4779 6.2519 15.8058 9.76716H14.6132C14.2901 6.90792 11.8642 4.68649 8.91831 4.68649C5.75252 4.68649 3.18649 7.25248 3.18649 10.4183C3.18649 13.4171 5.48913 15.8773 8.42301 16.1287V17.3185C4.83355 17.0646 2 14.0724 2 10.4185C2 6.59789 5.09777 3.5 8.91846 3.5ZM8.91846 5.71234C11.2961 5.71234 13.2619 7.47654 13.5788 9.76712H12.3775C12.0722 8.13442 10.6398 6.89876 8.91846 6.89876C6.97455 6.89876 5.39904 8.47427 5.39904 10.4182C5.39904 12.1938 6.71385 13.6619 8.42325 13.9024V15.0977C6.0574 14.8502 4.21302 12.8494 4.21302 10.4183C4.21302 7.81984 6.31964 5.71234 8.91846 5.71234ZM11.5 14C11.5 13.7239 11.7239 13.5 12 13.5H20C20.2761 13.5 20.5 13.7239 20.5 14V14.5C20.5 14.7761 20.2761 15 20 15H12C11.7239 15 11.5 14.7761 11.5 14.5V14Z" fill="white"/>
</svg>
