<svg width="20" height="20" viewBox="0 0 20 20" fill="none" xmlns="http://www.w3.org/2000/svg">
<rect x="4.80908" y="1.52582" width="10.0833" height="16.4167" rx="1.5" stroke="white"/>
<rect x="6.39209" y="3.10913" width="6.91667" height="3.75" stroke="white"/>
<circle cx="6.68376" cy="13.6925" r="0.791667" fill="white"/>
<circle cx="6.68376" cy="16.0675" r="0.791667" fill="white"/>
<circle cx="9.85075" cy="13.6925" r="0.791667" fill="white"/>
<circle cx="9.85075" cy="16.0675" r="0.791667" fill="white"/>
<circle cx="13.0173" cy="13.6925" r="0.791667" fill="white"/>
<circle cx="13.0173" cy="16.0675" r="0.791667" fill="white"/>
<path fill-rule="evenodd" clip-rule="evenodd" d="M9.46359 9.33828C9.27775 9.33828 9.15687 9.1427 9.23998 8.97647L9.62714 8.20216C9.71927 8.01789 9.98222 8.0179 10.0744 8.20216L10.4615 8.97647C10.5446 9.1427 10.4238 9.33828 10.2379 9.33828H9.46359Z" fill="white"/>
<path fill-rule="evenodd" clip-rule="evenodd" d="M10.2376 10.9216C10.4234 10.9216 10.5443 11.1172 10.4612 11.2834L10.074 12.0577C9.9819 12.242 9.71895 12.242 9.62682 12.0577L9.23966 11.2834C9.15655 11.1172 9.27742 10.9216 9.46327 10.9216L10.2376 10.9216Z" fill="white"/>
<path fill-rule="evenodd" clip-rule="evenodd" d="M10.6423 9.74277C10.6423 9.55692 10.8378 9.43605 11.0041 9.51916L11.7784 9.90632C11.9626 9.99845 11.9626 10.2614 11.7784 10.3535L11.0041 10.7407C10.8378 10.8238 10.6423 10.7029 10.6423 10.5171L10.6423 9.74277Z" fill="white"/>
<path fill-rule="evenodd" clip-rule="evenodd" d="M9.05892 10.5171C9.05892 10.703 8.86334 10.8238 8.69712 10.7407L7.9228 10.3536C7.73854 10.2614 7.73854 9.99849 7.9228 9.90636L8.69712 9.5192C8.86334 9.43609 9.05892 9.55696 9.05892 9.74281L9.05892 10.5171Z" fill="white"/>
<rect x="13.0171" y="8.94244" width="0.791667" height="2.375" rx="0.395833" fill="white"/>
<rect x="5.89209" y="8.94244" width="0.791667" height="2.375" rx="0.395833" fill="white"/>
</svg>
