<svg width="24" height="24" viewBox="0 0 24 24" fill="none" xmlns="http://www.w3.org/2000/svg">
<rect x="5.5" y="1.5" width="13" height="21" rx="1.5" stroke="#031F2B"/>
<rect x="7.5" y="3.5" width="9" height="5" stroke="#031F2B"/>
<circle cx="8" cy="17" r="1" fill="#031F2B"/>
<circle cx="8" cy="20" r="1" fill="#031F2B"/>
<circle cx="12" cy="17" r="1" fill="#031F2B"/>
<circle cx="12" cy="20" r="1" fill="#031F2B"/>
<circle cx="16" cy="17" r="1" fill="#031F2B"/>
<circle cx="16" cy="20" r="1" fill="#031F2B"/>
<path fill-rule="evenodd" clip-rule="evenodd" d="M11.4045 11.5C11.2187 11.5 11.0978 11.3044 11.1809 11.1382L11.7764 9.94721C11.8685 9.76295 12.1315 9.76295 12.2236 9.94721L12.8191 11.1382C12.9022 11.3044 12.7813 11.5 12.5955 11.5H11.4045Z" fill="#031F2B"/>
<path fill-rule="evenodd" clip-rule="evenodd" d="M12.5955 13.5C12.7813 13.5 12.9022 13.6956 12.8191 13.8618L12.2236 15.0528C12.1315 15.237 11.8685 15.237 11.7764 15.0528L11.1809 13.8618C11.0978 13.6956 11.2187 13.5 11.4045 13.5L12.5955 13.5Z" fill="#031F2B"/>
<path fill-rule="evenodd" clip-rule="evenodd" d="M13 11.9045C13 11.7187 13.1956 11.5978 13.3618 11.6809L14.5528 12.2764C14.737 12.3685 14.737 12.6315 14.5528 12.7236L13.3618 13.3191C13.1956 13.4022 13 13.2813 13 13.0955L13 11.9045Z" fill="#031F2B"/>
<path fill-rule="evenodd" clip-rule="evenodd" d="M11 13.0955C11 13.2813 10.8044 13.4022 10.6382 13.3191L9.44721 12.7236C9.26295 12.6315 9.26295 12.3685 9.44721 12.2764L10.6382 11.6809C10.8044 11.5978 11 11.7187 11 11.9045L11 13.0955Z" fill="#031F2B"/>
<rect x="16" y="11" width="1" height="3" rx="0.5" fill="#031F2B"/>
<rect x="7" y="11" width="1" height="3" rx="0.5" fill="#031F2B"/>
</svg>
