<svg width="24" height="24" viewBox="0 0 24 24" fill="none" xmlns="http://www.w3.org/2000/svg">
<path d="M6.275 19.9999C4.80833 19.9999 3.5625 19.4874 2.5375 18.4624C1.5125 17.4374 1 16.1916 1 14.7249C1 13.4249 1.41667 12.2832 2.25 11.2999C3.08333 10.3166 4.14167 9.7249 5.425 9.5249C5.75833 7.90824 6.54167 6.5874 7.775 5.5624C9.00833 4.5374 10.4333 4.0249 12.05 4.0249C13.9167 4.0249 15.4917 4.70407 16.775 6.0624C18.0583 7.42074 18.7 9.0499 18.7 10.9499V11.5499C19.9 11.5166 20.9167 11.9041 21.75 12.7124C22.5833 13.5207 23 14.5416 23 15.7749C23 16.9249 22.5833 17.9166 21.75 18.7499C20.9167 19.5832 19.925 19.9999 18.775 19.9999H6.275Z" fill="#031F2B"/>
</svg>
