<svg width="30" height="30" viewBox="0 0 30 30" fill="none" xmlns="http://www.w3.org/2000/svg">
<g clip-path="url(#clip0_21546_346874)">
<path d="M23.3198 10.0706L17.4529 15.9375C17.4142 15.9762 17.3648 16.0026 17.3111 16.0132C17.2574 16.0239 17.2018 16.0184 17.1512 15.9974C17.1006 15.9764 17.0574 15.9409 17.027 15.8954C16.9966 15.8498 16.9804 15.7963 16.9805 15.7415V13.0388H13.4207C13.3473 13.0388 13.2769 13.0096 13.2251 12.9578C13.1732 12.9059 13.144 12.8355 13.144 12.7621V10.0748H9.73483L3.28906 16.5372L6.68009 19.9294L12.4962 14.1118C12.535 14.0731 12.5843 14.0468 12.638 14.0361C12.6917 14.0255 12.7474 14.031 12.798 14.052C12.8486 14.073 12.8918 14.1084 12.9222 14.154C12.9526 14.1995 12.9689 14.253 12.9689 14.3078V17.0516H16.5792C16.6526 17.0517 16.723 17.0809 16.7749 17.1328C16.8268 17.1848 16.8559 17.2552 16.8559 17.3286V19.9228H20.2651L26.7108 13.4601L23.3198 10.0706Z" fill="white"/>
</g>
<defs>
<clipPath id="clip0_21546_346874">
<rect width="30" height="30" fill="white"/>
</clipPath>
</defs>
</svg>
