<svg width="25" height="25" viewBox="0 0 25 25" fill="none" xmlns="http://www.w3.org/2000/svg">
<g clip-path="url(#clip0_81_474)">
<path d="M19.4373 8.83191L14.7926 13.4766C14.762 13.5072 14.7229 13.5281 14.6804 13.5365C14.6379 13.545 14.5938 13.5406 14.5538 13.524C14.5137 13.5074 14.4795 13.4793 14.4555 13.4432C14.4314 13.4072 14.4186 13.3648 14.4186 13.3214V11.1818H11.6005C11.5424 11.1818 11.4867 11.1587 11.4456 11.1176C11.4045 11.0765 11.3814 11.0208 11.3814 10.9627V8.83526H8.68249L3.57959 13.9513L6.26415 16.6368L10.8686 12.0312C10.8993 12.0006 10.9383 11.9798 10.9809 11.9713C11.0234 11.9629 11.0674 11.9673 11.1075 11.9839C11.1475 12.0005 11.1817 12.0286 11.2058 12.0646C11.2299 12.1006 11.2428 12.143 11.2428 12.1864V14.3586H14.1009C14.1591 14.3586 14.2148 14.3818 14.2559 14.4229C14.2969 14.464 14.32 14.5198 14.32 14.5779V16.6316H17.0189L22.1218 11.5153L19.4373 8.83191Z" fill="white"/>
</g>
<defs>
<clipPath id="clip0_81_474">
<rect width="23.75" height="23.75" fill="white" transform="translate(0.975586 0.859375)"/>
</clipPath>
</defs>
</svg>
