<svg width="30" height="30" viewBox="0 0 30 30" fill="none" xmlns="http://www.w3.org/2000/svg">
<g clip-path="url(#clip0_24908_138159)">
<path d="M23.3198 10.0708L17.4529 15.9377C17.4142 15.9765 17.3648 16.0028 17.3111 16.0135C17.2574 16.0241 17.2018 16.0186 17.1512 15.9977C17.1006 15.9767 17.0574 15.9412 17.027 15.8956C16.9966 15.8501 16.9804 15.7965 16.9805 15.7418V13.039H13.4207C13.3473 13.039 13.2769 13.0099 13.225 12.958C13.1732 12.9061 13.144 12.8357 13.144 12.7623V10.075H9.73483L3.28906 16.5374L6.68009 19.9297L12.4962 14.112C12.535 14.0734 12.5843 14.047 12.638 14.0364C12.6917 14.0258 12.7474 14.0313 12.798 14.0522C12.8486 14.0732 12.8918 14.1087 12.9222 14.1542C12.9526 14.1997 12.9689 14.2532 12.9689 14.308V17.0519H16.5792C16.6526 17.0519 16.723 17.0812 16.7749 17.1331C16.8268 17.185 16.8559 17.2554 16.8559 17.3289V19.923H20.2651L26.7108 13.4603L23.3198 10.0708Z" fill="#031F2B"/>
</g>
<defs>
<clipPath id="clip0_24908_138159">
<rect width="30" height="30" fill="white"/>
</clipPath>
</defs>
</svg>
