<svg width="24" height="24" viewBox="0 0 24 24" fill="none" xmlns="http://www.w3.org/2000/svg">
<g clip-path="url(#clip0_24908_138016)">
<path d="M14.1535 14.8175H13.7876V14.217C13.7876 13.7308 13.6032 13.2645 13.2749 12.9207C12.9467 12.5769 12.5015 12.3838 12.0373 12.3838C11.5731 12.3838 11.1279 12.5769 10.7997 12.9207C10.4714 13.2645 10.287 13.7308 10.287 14.217V14.8175H9.9211C9.83687 14.8175 9.7561 14.8526 9.69654 14.915C9.63698 14.9773 9.60352 15.0619 9.60352 15.1502V18.3371C9.60352 18.4005 9.6208 18.4625 9.65333 18.516C9.68585 18.5694 9.73227 18.612 9.78712 18.6387L11.9034 19.6698C11.9453 19.6902 11.9911 19.7008 12.0373 19.7008C12.0836 19.7008 12.1294 19.6902 12.1713 19.6698L14.2875 18.6387C14.3423 18.612 14.3888 18.5694 14.4213 18.516C14.4538 18.4625 14.4711 18.4005 14.4711 18.3371V15.1502C14.4711 15.0619 14.4376 14.9773 14.3781 14.915C14.3185 14.8526 14.2377 14.8175 14.1535 14.8175ZM10.9222 14.217C10.9222 13.9072 11.0397 13.6102 11.2488 13.3911C11.4579 13.1721 11.7416 13.0491 12.0373 13.0491C12.3331 13.0491 12.6167 13.1721 12.8258 13.3911C13.0349 13.6102 13.1524 13.9072 13.1524 14.217V14.8175H10.9222V14.217ZM13.8359 18.125L12.0373 19.0013L10.2387 18.125V15.4828H13.8359V18.125Z" fill="#031F2B"/>
<path d="M18.6824 1H5.31758C5.23336 1 5.15258 1.03505 5.09302 1.09743C5.03347 1.15981 5 1.24441 5 1.33263V13.2895C5 13.4648 5.02582 17.6071 7.27411 19.637C9.30088 21.4671 9.62947 22.7236 9.63506 22.7461C9.65191 22.8185 9.69148 22.8829 9.74743 22.9289C9.80339 22.975 9.87249 23 9.94365 23H14.0564C14.1273 22.9994 14.1961 22.9742 14.252 22.9283C14.3078 22.8824 14.3475 22.8184 14.3649 22.7463C14.3679 22.7338 14.6909 21.4745 16.726 19.637C18.9742 17.6071 19 13.4648 19 13.2895V1.33263C19 1.24441 18.9665 1.15981 18.907 1.09743C18.8474 1.03505 18.7666 1 18.6824 1ZM18.3648 13.2893C18.3648 13.3293 18.3375 17.3036 16.3113 19.1332C14.6189 20.6612 14.0237 21.8377 13.831 22.3347H10.169C9.97629 21.8377 9.38113 20.6612 7.68877 19.1332C5.66246 17.3036 5.63517 13.3293 5.63517 13.2895V1.66526H18.3648V13.2893Z" fill="#031F2B"/>
<path d="M7.20723 11.371H16.7821C16.8664 11.371 16.9471 11.336 17.0067 11.2736C17.0663 11.2112 17.0997 11.1266 17.0997 11.0384V3.35851C17.0997 3.27029 17.0663 3.18569 17.0067 3.12331C16.9471 3.06093 16.8664 3.02588 16.7821 3.02588H7.20723C7.12301 3.02588 7.04223 3.06093 6.98267 3.12331C6.92311 3.18569 6.88965 3.27029 6.88965 3.35851V11.0384C6.88965 11.1266 6.92311 11.2112 6.98267 11.2736C7.04223 11.336 7.12301 11.371 7.20723 11.371ZM7.52482 3.69114H16.4646V10.7058H7.52482V3.69114Z" fill="#031F2B"/>
</g>
<defs>
<clipPath id="clip0_24908_138016">
<rect width="14" height="22" fill="white" transform="translate(5 1)"/>
</clipPath>
</defs>
</svg>
