<svg width="24" height="24" viewBox="0 0 24 24" fill="none" xmlns="http://www.w3.org/2000/svg">
<g id="trezor-hardware-dark">
<g id="Union">
<path fill-rule="evenodd" clip-rule="evenodd" d="M7 3V13H17V3H7ZM16 4H8V12H16V4Z" fill="#031F2B"/>
<path fill-rule="evenodd" clip-rule="evenodd" d="M13.7506 16.2769C13.8777 16.2769 13.9977 16.3298 14.0848 16.4207C14.1715 16.5114 14.2187 16.6325 14.2188 16.757V19.4112C14.2187 19.5008 14.1943 19.5892 14.1475 19.6659C14.1006 19.7428 14.0329 19.8053 13.9513 19.845L12.185 20.7037C12.1226 20.7341 12.054 20.75 11.9844 20.75C11.9148 20.75 11.8463 20.7341 11.7838 20.7037L10.0175 19.8451C9.93594 19.8054 9.86817 19.7428 9.82129 19.6659C9.77446 19.5892 9.75001 19.5008 9.75 19.4112V16.757C9.75001 16.6325 9.79725 16.5114 9.884 16.4207C9.97103 16.3298 10.091 16.2769 10.2182 16.2769H10.3205V15.9799C10.3205 15.5239 10.4937 15.0849 10.8047 14.7599C11.116 14.4345 11.5401 14.25 11.9844 14.25C12.4286 14.25 12.8528 14.4345 13.1641 14.7599C13.4751 15.0849 13.6483 15.5239 13.6483 15.9799V16.2769H13.7506ZM11.4731 15.4325C11.3356 15.5762 11.2568 15.7729 11.2568 15.9799V16.2769H12.7119V15.9799C12.7119 15.7729 12.6332 15.5762 12.4957 15.4325C12.3585 15.2891 12.1744 15.2103 11.9844 15.2103C11.7944 15.2103 11.6103 15.2891 11.4731 15.4325ZM13.2824 19.1074V17.2372H10.6864V19.1074L11.9844 19.7385L13.2824 19.1074Z" fill="#031F2B"/>
<path fill-rule="evenodd" clip-rule="evenodd" d="M7 1H17C18.1046 1 19 1.89543 19 3V13.7805C19 13.9264 18.9844 14.0704 18.9505 14.2123C18.6255 15.572 16.7254 23 14 23H10C7.27456 23 5.37445 15.572 5.04949 14.2123C5.01557 14.0704 5 13.9264 5 13.7805V3C5 1.89543 5.89543 1 7 1ZM17 2H7C6.44772 2 6 2.44772 6 3V13.7805C6 13.8547 6.00785 13.9203 6.02209 13.9799C6.18095 14.6445 6.72209 16.7773 7.54573 18.7269C7.95981 19.707 8.42185 20.5835 8.9073 21.1985C9.41874 21.8464 9.79061 22 10 22H14C14.2094 22 14.5813 21.8464 15.0927 21.1985C15.5781 20.5835 16.0402 19.707 16.4543 18.7269C17.2779 16.7773 17.8191 14.6445 17.9779 13.9799C17.9922 13.9203 18 13.8547 18 13.7805V3C18 2.44772 17.5523 2 17 2Z" fill="#031F2B"/>
</g>
</g>
</svg>
