<svg width="20" height="20" viewBox="0 0 20 20" fill="none" xmlns="http://www.w3.org/2000/svg">
<path fill-rule="evenodd" clip-rule="evenodd" d="M5.89242 2.60915V10.5258H13.8091V2.60915H5.89242ZM13.0174 3.40082H6.68408V9.73415H13.0174V3.40082Z" fill="white"/>
<path fill-rule="evenodd" clip-rule="evenodd" d="M11.2366 13.12C11.3373 13.12 11.4323 13.1619 11.5012 13.2339C11.5699 13.3057 11.6073 13.4015 11.6073 13.5001V15.6013C11.6073 15.6723 11.5879 15.7422 11.5508 15.803C11.5137 15.8638 11.4601 15.9134 11.3955 15.9448L9.99724 16.6246C9.9478 16.6486 9.89354 16.6612 9.8384 16.6612C9.78327 16.6612 9.72905 16.6486 9.67961 16.6246L8.28131 15.9448C8.2167 15.9134 8.16305 15.8638 8.12594 15.803C8.08886 15.7422 8.0695 15.6723 8.0695 15.6014V13.5001C8.0695 13.4016 8.10691 13.3057 8.17558 13.2339C8.24448 13.1619 8.33949 13.12 8.44013 13.12H8.52111V12.8849C8.52111 12.5239 8.65825 12.1764 8.90445 11.919C9.15088 11.6615 9.48667 11.5154 9.83838 11.5154C10.1901 11.5154 10.5259 11.6615 10.7723 11.919C11.0185 12.1764 11.1556 12.5239 11.1556 12.8849V13.12H11.2366ZM9.43358 12.4515C9.32473 12.5653 9.2624 12.7211 9.2624 12.8849V13.12H10.4144V12.8849C10.4144 12.7211 10.352 12.5653 10.2432 12.4515C10.1346 12.338 9.98879 12.2756 9.83838 12.2756C9.68797 12.2756 9.5422 12.338 9.43358 12.4515ZM10.866 15.3609V13.8802H8.81079V15.3609L9.8384 15.8605L10.866 15.3609Z" fill="white"/>
<path fill-rule="evenodd" clip-rule="evenodd" d="M5.89242 1.02582H13.8091C14.6835 1.02582 15.3924 1.7347 15.3924 2.60915V11.1437C15.3924 11.2592 15.3801 11.3732 15.3532 11.4856C15.096 12.562 13.5917 18.4425 11.4341 18.4425H8.26742C6.10977 18.4425 4.60552 12.562 4.34826 11.4856C4.3214 11.3732 4.30908 11.2592 4.30908 11.1437V2.60915C4.30908 1.7347 5.01796 1.02582 5.89242 1.02582ZM13.8091 1.81748H5.89242C5.45519 1.81748 5.10075 2.17193 5.10075 2.60915V11.1437C5.10075 11.2025 5.10696 11.2544 5.11824 11.3016C5.244 11.8277 5.6724 13.5162 6.32445 15.0596C6.65227 15.8355 7.01805 16.5295 7.40236 17.0163C7.80725 17.5292 8.10165 17.6508 8.26742 17.6508H11.4341C11.5998 17.6508 11.8942 17.5292 12.2991 17.0163C12.6834 16.5295 13.0492 15.8355 13.377 15.0596C14.0291 13.5162 14.4575 11.8277 14.5833 11.3016C14.5945 11.2544 14.6007 11.2025 14.6007 11.1437V2.60915C14.6007 2.17193 14.2463 1.81748 13.8091 1.81748Z" fill="white"/>
</svg>
