<svg width="24" height="24" viewBox="0 0 24 24" fill="none" xmlns="http://www.w3.org/2000/svg">
<path d="M12 17.05C11.75 17.05 11.5375 16.9625 11.3625 16.7875C11.1875 16.6125 11.1 16.4 11.1 16.15C11.1 15.9 11.1875 15.6875 11.3625 15.5125C11.5375 15.3375 11.75 15.25 12 15.25C12.25 15.25 12.4625 15.3375 12.6375 15.5125C12.8125 15.6875 12.9 15.9 12.9 16.15C12.9 16.4 12.8125 16.6125 12.6375 16.7875C12.4625 16.9625 12.25 17.05 12 17.05ZM11.375 13.825C11.375 13.075 11.4417 12.5417 11.575 12.225C11.7083 11.9083 12 11.6 12.45 11.3C12.95 10.9667 13.2792 10.6917 13.4375 10.475C13.5958 10.2583 13.675 9.90833 13.675 9.425C13.675 8.94167 13.525 8.56667 13.225 8.3C12.925 8.03333 12.5167 7.9 12 7.9C11.4667 7.9 11.05 8.0625 10.75 8.3875C10.45 8.7125 10.25 9.04167 10.15 9.375L8.975 8.975C9.24167 8.275 9.625 7.71667 10.125 7.3C10.625 6.88333 11.25 6.675 12 6.675C12.8333 6.675 13.5292 6.91667 14.0875 7.4C14.6458 7.88333 14.925 8.55833 14.925 9.425C14.925 9.99167 14.8167 10.4542 14.6 10.8125C14.3833 11.1708 13.9833 11.5667 13.4 12C13.05 12.25 12.8333 12.4708 12.75 12.6625C12.6667 12.8542 12.625 13.2417 12.625 13.825H11.375ZM6.5 23C6.1 23 5.75 22.85 5.45 22.55C5.15 22.25 5 21.9 5 21.5V2.5C5 2.1 5.15 1.75 5.45 1.45C5.75 1.15 6.1 1 6.5 1H17.5C17.9 1 18.25 1.15 18.55 1.45C18.85 1.75 19 2.1 19 2.5V21.5C19 21.9 18.85 22.25 18.55 22.55C18.25 22.85 17.9 23 17.5 23H6.5ZM6.5 20.75V21.5H17.5V20.75H6.5ZM6.5 19.25H17.5V4.75H6.5V19.25ZM6.5 3.25H17.5V2.5H6.5V3.25ZM6.5 3.25V2.5V3.25ZM6.5 20.75V21.5V20.75Z" fill="#031F2B"/>
</svg>
