<svg width="21" height="20" viewBox="0 0 21 20" fill="none" xmlns="http://www.w3.org/2000/svg">
<path d="M9.85673 13.8488C10.0038 13.9885 10.1824 14.0584 10.3924 14.0584C10.6025 14.0584 10.7811 13.9885 10.9282 13.8488C11.0752 13.7091 11.1487 13.5395 11.1487 13.3399C11.1487 13.1403 11.0752 12.9707 10.9282 12.831C10.7811 12.6913 10.6025 12.6214 10.3924 12.6214C10.1824 12.6214 10.0038 12.6913 9.85673 12.831C9.70967 12.9707 9.63614 13.1403 9.63614 13.3399C9.63614 13.5395 9.70967 13.7091 9.85673 13.8488Z" fill="white"/>
<path d="M10.0353 10.2065C9.92325 10.4593 9.86723 10.8851 9.86723 11.4838H10.9177C10.9177 11.0181 10.9527 10.7088 11.0227 10.5558C11.0927 10.4027 11.2748 10.2264 11.5689 10.0269C12.0591 9.68093 12.3952 9.36493 12.5773 9.07886C12.7594 8.7928 12.8504 8.42358 12.8504 7.9712C12.8504 7.27932 12.6158 6.74045 12.1466 6.3546C11.6775 5.96874 11.0927 5.77582 10.3924 5.77582C9.76219 5.77582 9.23698 5.94213 8.81681 6.27477C8.39664 6.6074 8.07451 7.05313 7.85042 7.61195L8.83782 7.93128C8.92185 7.66517 9.08992 7.40239 9.34202 7.14294C9.59412 6.88349 9.94426 6.75376 10.3924 6.75376C10.8266 6.75376 11.1698 6.8602 11.4219 7.07309C11.674 7.28597 11.8 7.58534 11.8 7.9712C11.8 8.35705 11.7335 8.63646 11.6004 8.80943C11.4674 8.9824 11.1908 9.20194 10.7706 9.46804C10.3924 9.70754 10.1473 9.95369 10.0353 10.2065Z" fill="white"/>
<path fill-rule="evenodd" clip-rule="evenodd" d="M4.51709 2.60915C4.51709 1.7347 5.26328 1.02582 6.18376 1.02582H14.5171C15.4376 1.02582 16.1838 1.7347 16.1838 2.60915V16.8592C16.1838 17.7336 15.4376 18.4425 14.5171 18.4425H6.18376C5.26328 18.4425 4.51709 17.7336 4.51709 16.8592V2.60915ZM6.18376 1.81748H14.5171C14.9773 1.81748 15.3504 2.17193 15.3504 2.60915V3.40082H5.35042V2.60915C5.35042 2.17193 5.72352 1.81748 6.18376 1.81748ZM15.3504 4.19248V15.2758H5.35042V4.19248H15.3504ZM5.35042 16.8592V16.0675H15.3504V16.8592C15.3504 17.2964 14.9773 17.6508 14.5171 17.6508H6.18376C5.72352 17.6508 5.35042 17.2964 5.35042 16.8592Z" fill="white"/>
</svg>
