<svg width="24" height="24" viewBox="0 0 24 24" fill="none" xmlns="http://www.w3.org/2000/svg">
<g id="unknown-key-dark">
<g id="Union">
<path d="M11.4076 17.1975C11.584 17.374 11.7983 17.4622 12.0504 17.4622C12.3025 17.4622 12.5168 17.374 12.6933 17.1975C12.8697 17.021 12.958 16.8067 12.958 16.5546C12.958 16.3025 12.8697 16.0882 12.6933 15.9118C12.5168 15.7353 12.3025 15.6471 12.0504 15.6471C11.7983 15.6471 11.584 15.7353 11.4076 15.9118C11.2311 16.0882 11.1429 16.3025 11.1429 16.5546C11.1429 16.8067 11.2311 17.021 11.4076 17.1975Z" fill="#031F2B"/>
<path d="M11.6218 12.5966C11.4874 12.916 11.4202 13.4538 11.4202 14.2101H12.6807C12.6807 13.6218 12.7227 13.2311 12.8067 13.0378C12.8908 12.8445 13.1092 12.6218 13.4622 12.3697C14.0504 11.9328 14.4538 11.5336 14.6723 11.1723C14.8908 10.8109 15 10.3445 15 9.77311C15 8.89916 14.7185 8.21849 14.1555 7.73109C13.5924 7.2437 12.8908 7 12.0504 7C11.2941 7 10.6639 7.21008 10.1597 7.63025C9.65546 8.05042 9.26891 8.61345 9 9.31933L10.1849 9.72269C10.2857 9.38655 10.4874 9.05462 10.7899 8.72689C11.0924 8.39916 11.5126 8.23529 12.0504 8.23529C12.5714 8.23529 12.9832 8.36975 13.2857 8.63866C13.5882 8.90756 13.7395 9.28571 13.7395 9.77311C13.7395 10.2605 13.6597 10.6134 13.5 10.8319C13.3403 11.0504 13.0084 11.3277 12.5042 11.6639C12.0504 11.9664 11.7563 12.2773 11.6218 12.5966Z" fill="#031F2B"/>
<path fill-rule="evenodd" clip-rule="evenodd" d="M5 3C5 1.89543 5.89543 1 7 1H17C18.1046 1 19 1.89543 19 3V21C19 22.1046 18.1046 23 17 23H7C5.89543 23 5 22.1046 5 21V3ZM7 2H17C17.5523 2 18 2.44772 18 3V4H6V3C6 2.44772 6.44771 2 7 2ZM18 5V19H6V5H18ZM6 21V20H18V21C18 21.5523 17.5523 22 17 22H7C6.44772 22 6 21.5523 6 21Z" fill="#031F2B"/>
</g>
</g>
</svg>
