<svg width="24" height="24" viewBox="0 0 24 24" fill="none" xmlns="http://www.w3.org/2000/svg">
<circle cx="12" cy="12" r="11" stroke="#031F2B" stroke-width="2"/>
<path d="M14.3935 15.482C14.5735 15.482 14.7135 15.532 14.8135 15.632C14.9175 15.732 14.9695 15.864 14.9695 16.028V17H8.93353V16.46C8.93353 16.356 8.95553 16.244 8.99953 16.124C9.04353 16 9.11753 15.888 9.22153 15.788L11.8015 13.202C12.0215 12.982 12.2155 12.772 12.3835 12.572C12.5515 12.368 12.6915 12.17 12.8035 11.978C12.9155 11.782 12.9995 11.584 13.0555 11.384C13.1115 11.184 13.1395 10.974 13.1395 10.754C13.1395 10.366 13.0395 10.072 12.8395 9.872C12.6395 9.668 12.3575 9.566 11.9935 9.566C11.8335 9.566 11.6855 9.59 11.5495 9.638C11.4175 9.682 11.2975 9.744 11.1895 9.824C11.0855 9.904 10.9955 9.998 10.9195 10.106C10.8435 10.214 10.7875 10.332 10.7515 10.46C10.6795 10.66 10.5815 10.794 10.4575 10.862C10.3375 10.926 10.1655 10.94 9.94153 10.904L9.06553 10.748C9.12953 10.324 9.24953 9.952 9.42553 9.632C9.60153 9.312 9.82153 9.046 10.0855 8.834C10.3495 8.622 10.6515 8.464 10.9915 8.36C11.3315 8.252 11.6975 8.198 12.0895 8.198C12.5015 8.198 12.8755 8.26 13.2115 8.384C13.5515 8.504 13.8415 8.674 14.0815 8.894C14.3215 9.11 14.5075 9.372 14.6395 9.68C14.7715 9.988 14.8375 10.328 14.8375 10.7C14.8375 11.02 14.7915 11.316 14.6995 11.588C14.6075 11.86 14.4815 12.12 14.3215 12.368C14.1655 12.612 13.9835 12.85 13.7755 13.082C13.5675 13.314 13.3475 13.548 13.1155 13.784L11.2675 15.674C11.4715 15.614 11.6735 15.568 11.8735 15.536C12.0735 15.5 12.2615 15.482 12.4375 15.482H14.3935Z" fill="#031F2B"/>
</svg>
