<svg width="24" height="24" viewBox="0 0 24 24" fill="none" xmlns="http://www.w3.org/2000/svg">
<circle cx="12" cy="12" r="11" stroke="#031F2B" stroke-width="2"/>
<path d="M9.11353 10.748C9.17753 10.324 9.29753 9.952 9.47353 9.632C9.64953 9.312 9.86953 9.046 10.1335 8.834C10.3975 8.622 10.6975 8.464 11.0335 8.36C11.3735 8.252 11.7395 8.198 12.1315 8.198C12.5475 8.198 12.9195 8.258 13.2475 8.378C13.5795 8.494 13.8595 8.654 14.0875 8.858C14.3155 9.062 14.4895 9.3 14.6095 9.572C14.7335 9.844 14.7955 10.136 14.7955 10.448C14.7955 10.724 14.7655 10.968 14.7055 11.18C14.6495 11.388 14.5635 11.57 14.4475 11.726C14.3355 11.882 14.1955 12.014 14.0275 12.122C13.8635 12.23 13.6735 12.32 13.4575 12.392C14.4575 12.72 14.9575 13.386 14.9575 14.39C14.9575 14.834 14.8755 15.226 14.7115 15.566C14.5475 15.902 14.3275 16.184 14.0515 16.412C13.7755 16.64 13.4535 16.812 13.0855 16.928C12.7215 17.04 12.3395 17.096 11.9395 17.096C11.5155 17.096 11.1415 17.048 10.8175 16.952C10.4935 16.856 10.2075 16.712 9.95953 16.52C9.71553 16.328 9.50553 16.088 9.32953 15.8C9.15353 15.508 8.99953 15.168 8.86753 14.78L9.59953 14.48C9.79153 14.4 9.96953 14.378 10.1335 14.414C10.3015 14.45 10.4215 14.538 10.4935 14.678C10.5735 14.83 10.6575 14.97 10.7455 15.098C10.8375 15.226 10.9395 15.338 11.0515 15.434C11.1635 15.526 11.2895 15.598 11.4295 15.65C11.5735 15.702 11.7375 15.728 11.9215 15.728C12.1535 15.728 12.3555 15.69 12.5275 15.614C12.6995 15.538 12.8435 15.44 12.9595 15.32C13.0755 15.196 13.1615 15.058 13.2175 14.906C13.2775 14.75 13.3075 14.596 13.3075 14.444C13.3075 14.244 13.2895 14.064 13.2535 13.904C13.2175 13.74 13.1335 13.602 13.0015 13.49C12.8735 13.374 12.6815 13.286 12.4255 13.226C12.1735 13.162 11.8295 13.13 11.3935 13.13V11.966C11.7575 11.966 12.0555 11.936 12.2875 11.876C12.5195 11.816 12.7015 11.732 12.8335 11.624C12.9655 11.516 13.0555 11.386 13.1035 11.234C13.1555 11.082 13.1815 10.916 13.1815 10.736C13.1815 10.356 13.0815 10.066 12.8815 9.866C12.6855 9.666 12.4055 9.566 12.0415 9.566C11.8815 9.566 11.7335 9.59 11.5975 9.638C11.4655 9.682 11.3455 9.744 11.2375 9.824C11.1335 9.904 11.0435 9.998 10.9675 10.106C10.8915 10.214 10.8355 10.332 10.7995 10.46C10.7235 10.66 10.6255 10.794 10.5055 10.862C10.3855 10.926 10.2115 10.94 9.98353 10.904L9.11353 10.748Z" fill="#031F2B"/>
</svg>
