<svg width="25" height="25" viewBox="0 0 25 25" fill="none" xmlns="http://www.w3.org/2000/svg">
<circle cx="12.3555" cy="12.5977" r="11" stroke="#031F2B" stroke-width="2"/>
<path d="M14.731 14.2017H15.631V15.2457C15.631 15.3377 15.599 15.4177 15.535 15.4857C15.475 15.5537 15.387 15.5877 15.271 15.5877H14.731V17.5977H13.111V15.5877H9.595C9.479 15.5877 9.373 15.5517 9.277 15.4797C9.185 15.4077 9.127 15.3177 9.103 15.2097L8.911 14.2917L12.955 8.85566H14.731V14.2017ZM13.111 11.9217C13.111 11.7817 13.115 11.6317 13.123 11.4717C13.135 11.3077 13.151 11.1397 13.171 10.9677L10.861 14.2017H13.111V11.9217Z" fill="#031F2B"/>
</svg>
