<svg width="24" height="24" viewBox="0 0 24 24" fill="none" xmlns="http://www.w3.org/2000/svg">
<circle cx="12" cy="12" r="11" stroke="#031F2B" stroke-width="2"/>
<path d="M11.0575 11.414C11.2375 11.378 11.4095 11.352 11.5735 11.336C11.7415 11.32 11.9035 11.312 12.0595 11.312C12.5155 11.312 12.9175 11.382 13.2655 11.522C13.6175 11.658 13.9115 11.846 14.1475 12.086C14.3875 12.326 14.5675 12.608 14.6875 12.932C14.8075 13.256 14.8675 13.604 14.8675 13.976C14.8675 14.44 14.7855 14.864 14.6215 15.248C14.4575 15.628 14.2295 15.956 13.9375 16.232C13.6495 16.504 13.3035 16.716 12.8995 16.868C12.4995 17.02 12.0615 17.096 11.5855 17.096C11.3095 17.096 11.0455 17.066 10.7935 17.006C10.5415 16.95 10.3055 16.874 10.0855 16.778C9.86953 16.678 9.66753 16.564 9.47953 16.436C9.29153 16.308 9.12353 16.174 8.97553 16.034L9.48553 15.338C9.59353 15.19 9.73353 15.116 9.90553 15.116C10.0135 15.116 10.1195 15.148 10.2235 15.212C10.3275 15.276 10.4455 15.348 10.5775 15.428C10.7095 15.504 10.8635 15.574 11.0395 15.638C11.2155 15.702 11.4295 15.734 11.6815 15.734C11.9415 15.734 12.1675 15.692 12.3595 15.608C12.5515 15.52 12.7095 15.402 12.8335 15.254C12.9615 15.102 13.0555 14.924 13.1155 14.72C13.1795 14.512 13.2115 14.29 13.2115 14.054C13.2115 13.602 13.0815 13.254 12.8215 13.01C12.5655 12.762 12.1915 12.638 11.6995 12.638C11.2955 12.638 10.8895 12.714 10.4815 12.866L9.45553 12.578L10.1875 8.294H14.5555V8.99C14.5555 9.106 14.5375 9.212 14.5015 9.308C14.4695 9.4 14.4135 9.482 14.3335 9.554C14.2575 9.622 14.1575 9.676 14.0335 9.716C13.9135 9.752 13.7655 9.77 13.5895 9.77H11.3395L11.0575 11.414Z" fill="#031F2B"/>
</svg>
