<svg width="24" height="24" viewBox="0 0 24 24" fill="none" xmlns="http://www.w3.org/2000/svg">
<path d="M10.67 13.02C10.45 13.01 10.23 13 10 13C7.58 13 5.32 13.67 3.39 14.82C2.51 15.34 2 16.32 2 17.35V19C2 19.55 2.45 20 3 20H11.26C10.47 18.87 10 17.49 10 16C10 14.93 10.25 13.93 10.67 13.02Z" fill="white"/>
<path d="M10 12C12.2091 12 14 10.2091 14 8C14 5.79086 12.2091 4 10 4C7.79086 4 6 5.79086 6 8C6 10.2091 7.79086 12 10 12Z" fill="white"/>
<path d="M20.75 16C20.75 15.78 20.72 15.58 20.69 15.37L21.53 14.64C21.71 14.48 21.75 14.22 21.63 14.01L21.04 12.99C20.92 12.78 20.67 12.69 20.45 12.77L19.39 13.13C19.07 12.86 18.71 12.65 18.31 12.5L18.09 11.41C18.04 11.18 17.84 11.01 17.6 11.01H16.42C16.18 11.01 15.98 11.18 15.93 11.41L15.71 12.5C15.31 12.65 14.95 12.86 14.63 13.13L13.57 12.77C13.34 12.69 13.1 12.79 12.98 12.99L12.39 14.01C12.27 14.22 12.31 14.48 12.49 14.64L13.33 15.37C13.3 15.58 13.27 15.78 13.27 16C13.27 16.22 13.3 16.42 13.33 16.63L12.49 17.36C12.31 17.52 12.27 17.78 12.39 17.99L12.98 19.01C13.1 19.22 13.35 19.31 13.57 19.23L14.63 18.87C14.95 19.14 15.31 19.35 15.71 19.5L15.93 20.59C15.98 20.82 16.18 20.99 16.42 20.99H17.6C17.84 20.99 18.04 20.82 18.09 20.59L18.31 19.5C18.71 19.35 19.07 19.14 19.39 18.87L20.45 19.23C20.68 19.31 20.92 19.21 21.04 19.01L21.63 17.99C21.75 17.78 21.71 17.52 21.53 17.36L20.69 16.63C20.72 16.42 20.75 16.22 20.75 16ZM17 18C15.9 18 15 17.1 15 16C15 14.9 15.9 14 17 14C18.1 14 19 14.9 19 16C19 17.1 18.1 18 17 18Z" fill="white"/>
</svg>
