<svg width="24" height="25" viewBox="0 0 24 25" fill="none" xmlns="http://www.w3.org/2000/svg">
<g clip-path="url(#clip0_50543_219206)">
<path d="M10.67 13.3755C10.45 13.3655 10.23 13.3555 10 13.3555C7.58 13.3555 5.32 14.0255 3.39 15.1755C2.51 15.6955 2 16.6755 2 17.7055V19.3555C2 19.9055 2.45 20.3555 3 20.3555H11.26C10.47 19.2255 10 17.8455 10 16.3555C10 15.2855 10.25 14.2855 10.67 13.3755Z" fill="#031F2B"/>
<path d="M10 12.3555C12.2091 12.3555 14 10.5646 14 8.35547C14 6.14633 12.2091 4.35547 10 4.35547C7.79086 4.35547 6 6.14633 6 8.35547C6 10.5646 7.79086 12.3555 10 12.3555Z" fill="#031F2B"/>
<path d="M20.7509 16.3552C20.7509 16.1352 20.7209 15.9352 20.6909 15.7252L21.5309 14.9952C21.7109 14.8352 21.7509 14.5752 21.6309 14.3652L21.0409 13.3452C20.9209 13.1352 20.6709 13.0452 20.4509 13.1252L19.3909 13.4852C19.0709 13.2152 18.7109 13.0052 18.3109 12.8552L18.0909 11.7652C18.0409 11.5352 17.8409 11.3652 17.6009 11.3652H16.4209C16.1809 11.3652 15.9809 11.5352 15.9309 11.7652L15.7109 12.8552C15.3109 13.0052 14.9509 13.2152 14.6309 13.4852L13.5709 13.1252C13.3409 13.0452 13.1009 13.1452 12.9809 13.3452L12.3909 14.3652C12.2709 14.5752 12.3109 14.8352 12.4909 14.9952L13.3309 15.7252C13.3009 15.9352 13.2709 16.1352 13.2709 16.3552C13.2709 16.5752 13.3009 16.7752 13.3309 16.9852L12.4909 17.7152C12.3109 17.8752 12.2709 18.1352 12.3909 18.3452L12.9809 19.3652C13.1009 19.5752 13.3509 19.6652 13.5709 19.5852L14.6309 19.2252C14.9509 19.4952 15.3109 19.7052 15.7109 19.8552L15.9309 20.9452C15.9809 21.1752 16.1809 21.3452 16.4209 21.3452H17.6009C17.8409 21.3452 18.0409 21.1752 18.0909 20.9452L18.3109 19.8552C18.7109 19.7052 19.0709 19.4952 19.3909 19.2252L20.4509 19.5852C20.6809 19.6652 20.9209 19.5652 21.0409 19.3652L21.6309 18.3452C21.7509 18.1352 21.7109 17.8752 21.5309 17.7152L20.6909 16.9852C20.7209 16.7752 20.7509 16.5752 20.7509 16.3552ZM17.0009 18.3552C15.9009 18.3552 15.0009 17.4552 15.0009 16.3552C15.0009 15.2552 15.9009 14.3552 17.0009 14.3552C18.1009 14.3552 19.0009 15.2552 19.0009 16.3552C19.0009 17.4552 18.1009 18.3552 17.0009 18.3552Z" fill="#031F2B"/>
</g>
<defs>
<clipPath id="clip0_50543_219206">
<rect width="24" height="24" fill="white" transform="translate(0 0.355469)"/>
</clipPath>
</defs>
</svg>
