<svg width="61" height="61" viewBox="0 0 61 61" fill="none" xmlns="http://www.w3.org/2000/svg">
<path d="M34.6641 27.1523L39.0391 24.5273L43.4141 27.1523C43.8307 27.4023 44.2474 27.4023 44.6641 27.1523C45.0807 26.9023 45.2891 26.5482 45.2891 26.0898V10.7773H32.7891V26.0898C32.7891 26.5482 32.9974 26.9023 33.4141 27.1523C33.8307 27.4023 34.2474 27.4023 34.6641 27.1523ZM20.2891 45.7773C18.9141 45.7773 17.7374 45.2882 16.7591 44.3098C15.7791 43.3298 15.2891 42.1523 15.2891 40.7773V10.7773C15.2891 9.40234 15.7791 8.22484 16.7591 7.24484C17.7374 6.26651 18.9141 5.77734 20.2891 5.77734H50.2891C51.6641 5.77734 52.8416 6.26651 53.8216 7.24484C54.7999 8.22484 55.2891 9.40234 55.2891 10.7773V40.7773C55.2891 42.1523 54.7999 43.3298 53.8216 44.3098C52.8416 45.2882 51.6641 45.7773 50.2891 45.7773H20.2891ZM10.2891 55.7773C8.91406 55.7773 7.7374 55.2882 6.75906 54.3098C5.77906 53.3298 5.28906 52.1523 5.28906 50.7773V18.2773C5.28906 17.569 5.52906 16.9748 6.00906 16.4948C6.4874 16.0165 7.08073 15.7773 7.78906 15.7773C8.4974 15.7773 9.09156 16.0165 9.57156 16.4948C10.0499 16.9748 10.2891 17.569 10.2891 18.2773V50.7773H42.7891C43.4974 50.7773 44.0907 51.0173 44.5691 51.4973C45.0491 51.9757 45.2891 52.569 45.2891 53.2773C45.2891 53.9857 45.0491 54.579 44.5691 55.0573C44.0907 55.5373 43.4974 55.7773 42.7891 55.7773H10.2891Z" fill="#031F2B"/>
</svg>
