<svg width="24" height="25" viewBox="0 0 24 25" fill="none" xmlns="http://www.w3.org/2000/svg">
<mask id="mask0_1_8" style="mask-type:alpha" maskUnits="userSpaceOnUse" x="0" y="0" width="24" height="25">
<rect y="0.5" width="24" height="24" fill="white"/>
</mask>
<g mask="url(#mask0_1_8)">
<path d="M13.75 11.05L15.5 10L17.25 11.05C17.4167 11.15 17.5833 11.15 17.75 11.05C17.9167 10.95 18 10.8083 18 10.625V4.5H13V10.625C13 10.8083 13.0833 10.95 13.25 11.05C13.4167 11.15 13.5833 11.15 13.75 11.05ZM8 18.5C7.45 18.5 6.97933 18.3043 6.588 17.913C6.196 17.521 6 17.05 6 16.5V4.5C6 3.95 6.196 3.479 6.588 3.087C6.97933 2.69567 7.45 2.5 8 2.5H20C20.55 2.5 21.021 2.69567 21.413 3.087C21.8043 3.479 22 3.95 22 4.5V16.5C22 17.05 21.8043 17.521 21.413 17.913C21.021 18.3043 20.55 18.5 20 18.5H8ZM4 22.5C3.45 22.5 2.97933 22.3043 2.588 21.913C2.196 21.521 2 21.05 2 20.5V7.5C2 7.21667 2.096 6.979 2.288 6.787C2.47933 6.59567 2.71667 6.5 3 6.5C3.28333 6.5 3.521 6.59567 3.713 6.787C3.90433 6.979 4 7.21667 4 7.5V20.5H17C17.2833 20.5 17.5207 20.596 17.712 20.788C17.904 20.9793 18 21.2167 18 21.5C18 21.7833 17.904 22.0207 17.712 22.212C17.5207 22.404 17.2833 22.5 17 22.5H4Z" fill="#031F2B"/>
</g>
</svg>
