<svg width="60" height="61" viewBox="0 0 60 61" fill="none" xmlns="http://www.w3.org/2000/svg">
<mask id="mask0_55569_23226" style="mask-type:alpha" maskUnits="userSpaceOnUse" x="0" y="0" width="60" height="61">
<rect y="0.777344" width="60" height="60" fill="#D9D9D9"/>
</mask>
<g mask="url(#mask0_55569_23226)">
<path d="M34.375 27.1523L38.75 24.5273L43.125 27.1523C43.5417 27.4023 43.9583 27.4023 44.375 27.1523C44.7917 26.9023 45 26.5482 45 26.0898V10.7773H32.5V26.0898C32.5 26.5482 32.7083 26.9023 33.125 27.1523C33.5417 27.4023 33.9583 27.4023 34.375 27.1523ZM20 45.7773C18.625 45.7773 17.4483 45.2882 16.47 44.3098C15.49 43.3298 15 42.1523 15 40.7773V10.7773C15 9.40234 15.49 8.22484 16.47 7.24484C17.4483 6.26651 18.625 5.77734 20 5.77734H50C51.375 5.77734 52.5525 6.26651 53.5325 7.24484C54.5108 8.22484 55 9.40234 55 10.7773V40.7773C55 42.1523 54.5108 43.3298 53.5325 44.3098C52.5525 45.2882 51.375 45.7773 50 45.7773H20ZM10 55.7773C8.625 55.7773 7.44833 55.2882 6.47 54.3098C5.49 53.3298 5 52.1523 5 50.7773V18.2773C5 17.569 5.24 16.9748 5.72 16.4948C6.19833 16.0165 6.79167 15.7773 7.5 15.7773C8.20833 15.7773 8.8025 16.0165 9.2825 16.4948C9.76083 16.9748 10 17.569 10 18.2773V50.7773H42.5C43.2083 50.7773 43.8017 51.0173 44.28 51.4973C44.76 51.9757 45 52.569 45 53.2773C45 53.9857 44.76 54.579 44.28 55.0573C43.8017 55.5373 43.2083 55.7773 42.5 55.7773H10Z" fill="#031F2B"/>
</g>
</svg>
