<svg width="96" height="96" viewBox="0 0 96 96" fill="none" xmlns="http://www.w3.org/2000/svg">
<circle cx="48" cy="48" r="48" fill="#F5F5F5"/>
<g clip-path="url(#clip0_55912_130644)">
<path d="M56.475 54.4C52.275 52.25 46.825 50.5 40.5 50.5C34.175 50.5 28.725 52.25 24.525 54.4C22.025 55.675 20.5 58.25 20.5 61.05V68H60.5V61.05C60.5 58.25 58.975 55.675 56.475 54.4ZM40.5 48C46.025 48 50.5 43.525 50.5 38C50.5 32.475 46.025 28 40.5 28C34.975 28 30.5 32.475 30.5 38C30.5 43.525 34.975 48 40.5 48ZM68 40.5V35.5C68 34.125 66.875 33 65.5 33C64.125 33 63 34.125 63 35.5V40.5H58C56.625 40.5 55.5 41.625 55.5 43C55.5 44.375 56.625 45.5 58 45.5H63V50.5C63 51.875 64.125 53 65.5 53C66.875 53 68 51.875 68 50.5V45.5H73C74.375 45.5 75.5 44.375 75.5 43C75.5 41.625 74.375 40.5 73 40.5H68Z" fill="#031F2B"/>
</g>
<defs>
<clipPath id="clip0_55912_130644">
<rect width="60" height="60" fill="white" transform="translate(18 18)"/>
</clipPath>
</defs>
</svg>
