<svg width="346" height="300" viewBox="0 0 346 300" fill="none" xmlns="http://www.w3.org/2000/svg">
<rect width="346" height="300" fill="#D0E2FF"/>
<path d="M135.922 65.6992H233.182V233.881H112V87.0716V78.6103V65.6992H127.715" fill="#48466D"/>
<path d="M135.922 65.6992H233.182V233.881H112V87.0716V78.6103V65.6992H127.715" stroke="#333333" stroke-width="0.6" stroke-linecap="round" stroke-linejoin="round"/>
<path d="M112 78.6103V65.6992H127.715" stroke="#333333" stroke-width="0.6" stroke-linecap="round" stroke-linejoin="round"/>
<path d="M158.305 73.3594H186.879" stroke="#333333" stroke-width="0.6" stroke-linecap="round" stroke-linejoin="round"/>
<path d="M172.552 227.755C175.504 227.755 177.901 225.371 177.901 222.429C177.901 219.49 175.504 217.105 172.552 217.105C169.6 217.105 167.203 219.49 167.203 222.429C167.203 225.371 169.6 227.755 172.552 227.755Z" fill="#3D84A8" stroke="#333333" stroke-width="0.6" stroke-linecap="round" stroke-linejoin="round"/>
<path d="M223.58 96.9219H121.594V210.94H223.58V96.9219Z" fill="#78C7E0" stroke="#333333" stroke-width="0.6" stroke-linecap="round" stroke-linejoin="round"/>
<path d="M223.594 81.0117H121.594V97.0262H223.594V81.0117Z" fill="#3D84A8" stroke="#333333" stroke-width="0.6" stroke-linecap="round" stroke-linejoin="round"/>
<path d="M212.911 115.094H133.117V194.533H212.911V115.094Z" fill="#46CDCF" stroke="#333333" stroke-width="0.6" stroke-linecap="round" stroke-linejoin="round"/>
<g clip-path="url(#clip0_38869_551456)">
<path d="M150.949 132.9H166.997V148.927H150.949V132.9ZM193.745 132.9V148.927H177.696V132.9H193.745ZM177.696 162.283H183.046V156.941H177.696V151.598H183.046V156.941H188.395V151.598H193.745V156.941H188.395V162.283H193.745V170.297H188.395V175.639H183.046V170.297H175.022V175.639H169.672V164.954H177.696V162.283ZM183.046 162.283V170.297H188.395V162.283H183.046ZM150.949 175.639V159.612H166.997V175.639H150.949ZM156.298 138.242V143.585H161.648V138.242H156.298ZM183.046 138.242V143.585H188.395V138.242H183.046ZM156.298 164.954V170.297H161.648V164.954H156.298ZM150.949 151.598H156.298V156.941H150.949V151.598ZM164.323 151.598H175.022V162.283H169.672V156.941H164.323V151.598ZM169.672 138.242H175.022V148.927H169.672V138.242ZM145.599 127.557V138.242H140.25V127.557C140.25 126.14 140.814 124.782 141.817 123.78C142.82 122.778 144.181 122.215 145.599 122.215H156.298V127.557H145.599ZM199.094 122.215C200.513 122.215 201.874 122.778 202.877 123.78C203.88 124.782 204.444 126.14 204.444 127.557V138.242H199.094V127.557H188.395V122.215H199.094ZM145.599 170.297V180.982H156.298V186.324H145.599C144.181 186.324 142.82 185.761 141.817 184.759C140.814 183.757 140.25 182.398 140.25 180.982V170.297H145.599ZM199.094 180.982V170.297H204.444V180.982C204.444 182.398 203.88 183.757 202.877 184.759C201.874 185.761 200.513 186.324 199.094 186.324H188.395V180.982H199.094Z" fill="#48466D"/>
</g>
<path d="M224.293 106.998C240.477 106.998 253.586 93.746 253.586 77.3856C253.586 61.0251 240.477 47.7734 224.293 47.7734C208.109 47.7734 195 61.0251 195 77.3856C195 93.746 208.109 106.998 224.293 106.998Z" fill="white" stroke="#333333" stroke-width="0.6" stroke-linecap="round" stroke-linejoin="round"/>
<path d="M209.982 69.3214L221.767 57C221.767 57 221.767 57 221.781 57H221.798L228.628 64.8252V64.8396C228.628 64.8396 228.628 64.8563 228.614 64.8563L214.903 71.6864H214.889L210.14 70.0158C209.856 69.9204 209.777 69.5409 209.982 69.3214Z" fill="#54C4C9" stroke="#333333" stroke-width="0.6" stroke-linecap="round" stroke-linejoin="round"/>
<path d="M220.58 61.4801L221.778 60.2344L228.641 68.0906L214.9 74.9207L211.32 71.1501L217.425 64.7782" stroke="#333333" stroke-width="0.6" stroke-linecap="round" stroke-linejoin="round"/>
<path d="M218.219 63.9548L219.889 62.2031" stroke="#333333" stroke-width="0.6" stroke-linecap="round" stroke-linejoin="round"/>
<path d="M210.016 69.6203L234.406 60.6758H234.42C234.42 60.6758 234.42 60.6758 234.437 60.6925L237.103 69.7945V69.8112C237.103 69.8112 237.103 69.8112 237.089 69.8112L222.669 73.3909C222.669 73.3909 222.669 73.3909 222.653 73.3909L210.033 69.9353C209.876 69.9043 209.859 69.6847 210.016 69.6203Z" fill="#ABEDD8" stroke="#333333" stroke-width="0.6" stroke-linecap="round" stroke-linejoin="round"/>
<path d="M234.148 67.3477L235.757 72.87" stroke="#333333" stroke-width="0.6" stroke-linecap="round" stroke-linejoin="round"/>
<path d="M213.562 70.8975L233.093 63.75L233.819 66.2439" stroke="#333333" stroke-width="0.6" stroke-linecap="round" stroke-linejoin="round"/>
<path d="M209.951 69.8125H238.93C238.946 69.8125 238.946 69.8125 238.946 69.8268V92.9852C238.946 93.0019 238.946 93.0019 238.93 93.0019H209.54C209.523 93.0019 209.523 93.0019 209.523 92.9852V70.2206C209.523 70.001 209.712 69.8125 209.951 69.8125Z" fill="#78C7E0" stroke="#333333" stroke-width="0.6" stroke-linecap="round" stroke-linejoin="round"/>
<path d="M240.99 86.1542C240.99 86.1709 240.99 86.1709 240.974 86.1709H233.576C231.509 86.1709 229.836 84.498 229.836 82.448V80.3479C229.836 78.2812 231.509 76.625 233.576 76.625H240.974C240.99 76.625 240.99 76.625 240.99 76.6417V86.1542Z" fill="#78C7E0" stroke="#333333" stroke-width="0.6" stroke-linecap="round" stroke-linejoin="round"/>
<defs>
<clipPath id="clip0_38869_551456">
<rect width="64.1936" height="64.1091" fill="white" transform="translate(140.25 122.215)"/>
</clipPath>
</defs>
</svg>
