<svg width="24" height="24" viewBox="0 0 24 24" fill="none" xmlns="http://www.w3.org/2000/svg">
<path d="M20.0302 9.53063L12.5302 17.0306C12.4606 17.1004 12.3779 17.1557 12.2868 17.1934C12.1958 17.2312 12.0982 17.2506 11.9996 17.2506C11.9011 17.2506 11.8035 17.2312 11.7124 17.1934C11.6214 17.1557 11.5386 17.1004 11.469 17.0306L3.96899 9.53063C3.86398 9.42573 3.79245 9.29204 3.76347 9.14648C3.73448 9.00092 3.74933 8.85002 3.80615 8.71291C3.86296 8.57579 3.95918 8.45861 4.08263 8.37621C4.20607 8.29381 4.35119 8.24988 4.49961 8.25H19.4996C19.648 8.24988 19.7932 8.29381 19.9166 8.37621C20.04 8.45861 20.1363 8.57579 20.1931 8.71291C20.2499 8.85002 20.2647 9.00092 20.2358 9.14648C20.2068 9.29204 20.1353 9.42573 20.0302 9.53063Z" fill="#031F2B"/>
</svg>
