<svg width="20" height="20" viewBox="0 0 20 20" fill="none" xmlns="http://www.w3.org/2000/svg">
<path d="M16.875 2.8125H3.125C2.7106 2.8125 2.31317 2.97712 2.02015 3.27015C1.72712 3.56317 1.5625 3.9606 1.5625 4.375V15.625C1.5625 16.0394 1.72712 16.4368 2.02015 16.7299C2.31317 17.0229 2.7106 17.1875 3.125 17.1875H16.875C17.2894 17.1875 17.6868 17.0229 17.9799 16.7299C18.2729 16.4368 18.4375 16.0394 18.4375 15.625V4.375C18.4375 3.9606 18.2729 3.56317 17.9799 3.27015C17.6868 2.97712 17.2894 2.8125 16.875 2.8125ZM16.5625 15.3125H3.4375V4.6875H16.5625V15.3125ZM5.3125 7.1875C5.3125 6.93886 5.41127 6.7004 5.58709 6.52459C5.7629 6.34877 6.00136 6.25 6.25 6.25H13.75C13.9986 6.25 14.2371 6.34877 14.4129 6.52459C14.5887 6.7004 14.6875 6.93886 14.6875 7.1875C14.6875 7.43614 14.5887 7.6746 14.4129 7.85041C14.2371 8.02623 13.9986 8.125 13.75 8.125H6.25C6.00136 8.125 5.7629 8.02623 5.58709 7.85041C5.41127 7.6746 5.3125 7.43614 5.3125 7.1875ZM5.3125 10C5.3125 9.75136 5.41127 9.5129 5.58709 9.33709C5.7629 9.16127 6.00136 9.0625 6.25 9.0625H13.75C13.9986 9.0625 14.2371 9.16127 14.4129 9.33709C14.5887 9.5129 14.6875 9.75136 14.6875 10C14.6875 10.2486 14.5887 10.4871 14.4129 10.6629C14.2371 10.8387 13.9986 10.9375 13.75 10.9375H6.25C6.00136 10.9375 5.7629 10.8387 5.58709 10.6629C5.41127 10.4871 5.3125 10.2486 5.3125 10ZM5.3125 12.8125C5.3125 12.5639 5.41127 12.3254 5.58709 12.1496C5.7629 11.9738 6.00136 11.875 6.25 11.875H13.75C13.9986 11.875 14.2371 11.9738 14.4129 12.1496C14.5887 12.3254 14.6875 12.5639 14.6875 12.8125C14.6875 13.0611 14.5887 13.2996 14.4129 13.4754C14.2371 13.6512 13.9986 13.75 13.75 13.75H6.25C6.00136 13.75 5.7629 13.6512 5.58709 13.4754C5.41127 13.2996 5.3125 13.0611 5.3125 12.8125Z" fill="#031F2B"/>
</svg>
