<svg width="466" height="300" viewBox="0 0 466 300" fill="none" xmlns="http://www.w3.org/2000/svg">
<rect width="465" height="300" transform="translate(0.5)" fill="#D0E2FF"/>
<path d="M206.618 267.856V228.015C206.617 227.541 206.713 227.072 206.901 226.638C207.089 226.203 207.365 225.812 207.711 225.488C208.057 225.165 208.466 224.916 208.912 224.758C209.359 224.6 209.833 224.535 210.305 224.568C217.198 225.085 224.091 225.361 231.26 225.361C247.268 225.389 263.246 223.959 278.994 221.087C279.498 220.99 280.018 221.006 280.515 221.135C281.012 221.264 281.474 221.502 281.867 221.832C282.26 222.163 282.574 222.577 282.787 223.044C282.999 223.511 283.105 224.02 283.095 224.534V264.272C283.11 265.083 282.838 265.873 282.328 266.504C281.817 267.134 281.1 267.564 280.304 267.718C264.088 270.759 247.621 272.259 231.122 272.199C223.816 272.199 216.647 271.889 209.616 271.337C208.776 271.227 208.006 270.811 207.452 270.169C206.899 269.527 206.602 268.704 206.618 267.856Z" fill="#78C7E0" stroke="#333333" stroke-width="0.6" stroke-linecap="round" stroke-linejoin="round"/>
<g clip-path="url(#clip0_32059_190337)">
<path fill-rule="evenodd" clip-rule="evenodd" d="M191.968 185.984C191.87 185.812 191.698 185.714 191.527 185.714H189.982L190.006 185.518C190.276 181.398 193.685 178.185 197.78 178.185C199.619 178.185 201.385 178.823 202.782 180C202.88 180.074 203.028 180.074 203.101 180L204.131 178.872C204.18 178.823 204.205 178.749 204.205 178.7C204.205 178.627 204.18 178.578 204.131 178.553C202.366 177.057 200.11 176.224 197.78 176.224C192.557 176.224 188.265 180.319 188.02 185.567V185.739H186.671C186.475 185.739 186.328 185.837 186.23 186.008C186.132 186.18 186.132 186.376 186.23 186.523L188.658 190.496C188.756 190.643 188.927 190.741 189.099 190.741C189.271 190.741 189.442 190.643 189.54 190.496L191.968 186.523C192.066 186.352 192.066 186.155 191.968 185.984L191.968 185.984ZM209.377 185.542L206.949 181.57C206.851 181.423 206.68 181.325 206.508 181.325C206.336 181.325 206.165 181.423 206.067 181.57L203.639 185.542C203.541 185.714 203.541 185.886 203.639 186.057C203.737 186.229 203.909 186.327 204.08 186.327H205.625L205.601 186.523C205.331 190.643 201.922 193.856 197.827 193.856C195.988 193.856 194.222 193.218 192.824 192.041C192.775 191.992 192.726 191.992 192.677 191.992C192.628 191.992 192.555 192.016 192.506 192.065L191.476 193.193C191.427 193.243 191.402 193.316 191.402 193.365C191.402 193.439 191.427 193.488 191.476 193.512C193.241 195.008 195.497 195.842 197.827 195.842C203.05 195.842 207.342 191.747 207.587 186.499V186.327H208.936C209.132 186.327 209.279 186.229 209.377 186.057C209.475 185.91 209.475 185.714 209.377 185.542ZM197.414 180.584H198.223H198.223C199.449 180.584 200.455 181.589 200.504 182.84L200.503 184.164H200.773C201.337 184.164 201.779 184.63 201.779 185.17V189.338C201.779 189.903 201.313 190.344 200.773 190.344H194.912C194.348 190.344 193.907 189.878 193.907 189.338V185.17C193.907 184.606 194.373 184.164 194.912 184.164H195.182V182.815C195.182 181.589 196.188 180.584 197.414 180.584ZM198.297 188.774C198.419 188.774 198.493 188.652 198.468 188.554L198.1 187.278C198.37 187.156 198.566 186.886 198.566 186.567C198.566 186.15 198.223 185.783 197.782 185.783C197.365 185.783 196.997 186.126 196.997 186.567C196.997 186.886 197.193 187.156 197.463 187.278L197.144 188.554C197.119 188.676 197.193 188.774 197.316 188.774H198.297ZM196.506 184.164H199.081V182.84C199.081 182.349 198.689 181.957 198.198 181.957H197.389C196.899 181.957 196.506 182.349 196.506 182.84V184.164Z" fill="#031F2B"/>
</g>
<path d="M155.617 144.693C155.617 136.939 183.603 127.185 218.826 126.565C219.74 126.565 220.617 126.202 221.263 125.555C221.909 124.909 222.272 124.032 222.272 123.118V82.6565C222.272 81.7424 221.909 80.8658 221.263 80.2195C220.617 79.5731 219.74 79.21 218.826 79.21C183.637 79.6235 155.686 85.9307 155.686 93.6853L155.617 144.693Z" fill="#ABEDD8" stroke="#333333" stroke-width="0.6" stroke-linecap="round" stroke-linejoin="round"/>
<path d="M211.821 155.346C211.821 156.26 211.458 157.137 210.812 157.783C210.165 158.429 209.289 158.792 208.375 158.792C178.494 157.414 156.229 151.693 155.781 144.8V93.6191C155.781 100.512 178.459 106.44 208.685 107.819C209.599 107.819 210.476 108.182 211.122 108.828C211.768 109.475 212.131 110.351 212.131 111.265L211.821 155.346Z" fill="#78C7E0" stroke="#333333" stroke-width="0.6" stroke-linecap="round" stroke-linejoin="round"/>
<path d="M288.849 126.386C288.849 123.628 285.402 121.044 279.164 118.872V87.13C279.163 87.0179 279.188 86.9071 279.239 86.8073C279.29 86.7075 279.365 86.6217 279.457 86.5572C279.548 86.4927 279.654 86.4516 279.766 86.4373C279.877 86.423 279.99 86.4359 280.095 86.4751C285.609 88.5775 288.849 91.0245 288.849 93.6094V126.386Z" fill="#ABEDD8" stroke="#333333" stroke-width="0.6" stroke-linecap="round" stroke-linejoin="round"/>
<path d="M254.727 135.14C254.721 135.64 254.824 136.135 255.029 136.59C255.233 137.046 255.535 137.452 255.912 137.78C256.289 138.108 256.732 138.35 257.212 138.489C257.692 138.628 258.196 138.662 258.69 138.587C276.853 136.002 288.847 131.487 288.847 126.421V93.6445C288.847 98.8143 276.44 103.364 257.829 105.914C256.994 106.023 256.229 106.434 255.676 107.069C255.124 107.704 254.823 108.519 254.83 109.361L254.727 135.14Z" fill="#78C7E0" stroke="#333333" stroke-width="0.6" stroke-linecap="round" stroke-linejoin="round"/>
<path d="M89.0234 182.605C100.742 172.265 124.35 164.2 132.828 161.34C133.513 161.109 134.107 160.668 134.528 160.08C134.949 159.493 135.174 158.788 135.172 158.066V93.7196C135.166 93.4415 135.094 93.1689 134.963 92.924C134.831 92.6791 134.643 92.4689 134.414 92.3108C134.185 92.1527 133.922 92.0511 133.647 92.0144C133.371 91.9777 133.091 92.0069 132.828 92.0996C106.084 101.991 89.3336 115.846 89.0234 131.252" fill="#ABEDD8"/>
<path d="M89.0234 182.605C100.742 172.265 124.35 164.2 132.828 161.34C133.513 161.109 134.107 160.668 134.528 160.08C134.949 159.493 135.174 158.788 135.172 158.066V93.7196C135.166 93.4415 135.094 93.1689 134.963 92.924C134.831 92.6791 134.643 92.4689 134.414 92.3108C134.185 92.1527 133.922 92.0511 133.647 92.0144C133.371 91.9777 133.091 92.0069 132.828 92.0996C106.084 101.991 89.3336 115.846 89.0234 131.252" stroke="#333333" stroke-width="0.6" stroke-linecap="round" stroke-linejoin="round"/>
<path d="M175.975 247.318C175.982 247.825 175.878 248.326 175.669 248.788C175.461 249.25 175.153 249.659 174.768 249.989C174.383 250.318 173.93 250.558 173.442 250.692C172.953 250.826 172.441 250.851 171.942 250.765C123.106 242.08 89.2266 223.193 89.2266 200.894V131.688C89.2266 144.785 101.186 156.848 121.072 166.153C137.68 173.557 155.189 178.749 173.149 181.594C173.958 181.733 174.691 182.157 175.215 182.789C175.74 183.421 176.021 184.219 176.009 185.04L175.975 247.318Z" fill="#78C7E0" stroke="#333333" stroke-width="0.6" stroke-linecap="round" stroke-linejoin="round"/>
<path d="M373.455 131.684C373.455 119.105 362.495 107.559 344.091 98.2879C343.828 98.1591 343.536 98.0995 343.244 98.1146C342.951 98.1297 342.668 98.219 342.419 98.3742C342.171 98.5294 341.966 98.7454 341.825 99.0017C341.683 99.258 341.609 99.546 341.609 99.8389V166.046C341.609 166.046 372.628 180.383 373.455 200.856" fill="#ABEDD8"/>
<path d="M373.455 131.684C373.455 119.105 362.495 107.559 344.091 98.2879C343.828 98.1591 343.536 98.0995 343.244 98.1146C342.951 98.1297 342.668 98.219 342.419 98.3742C342.171 98.5294 341.966 98.7454 341.825 99.0017C341.683 99.258 341.609 99.546 341.609 99.8389V166.046C341.609 166.046 372.628 180.383 373.455 200.856" stroke="#333333" stroke-width="0.6" stroke-linecap="round" stroke-linejoin="round"/>
<path d="M325.621 175.08V237.117C325.615 237.683 325.748 238.241 326.009 238.744C326.27 239.246 326.651 239.676 327.117 239.997C327.584 240.317 328.122 240.517 328.685 240.58C329.247 240.643 329.817 240.566 330.343 240.356C356.915 230.362 373.458 216.438 373.458 200.998V131.688C373.458 144.785 361.499 156.848 341.613 166.153C337.408 168.118 332.824 169.979 327.827 171.702C327.151 171.962 326.574 172.428 326.178 173.035C325.782 173.641 325.587 174.357 325.621 175.08Z" fill="#78C7E0" stroke="#333333" stroke-width="0.6" stroke-linecap="round" stroke-linejoin="round"/>
<path d="M325.177 150.178C324.315 147.387 316.491 141.355 312.838 138.805C312.393 138.488 312.029 138.069 311.777 137.584C311.526 137.098 311.393 136.56 311.391 136.013V104.995C311.392 104.672 311.484 104.355 311.657 104.082C311.829 103.809 312.075 103.59 312.366 103.45C312.657 103.31 312.982 103.254 313.303 103.29C313.624 103.325 313.929 103.45 314.182 103.651C321.075 108.717 325.177 114.541 325.177 120.711" fill="#ABEDD8"/>
<path d="M325.177 150.178C324.315 147.387 316.491 141.355 312.838 138.805C312.393 138.488 312.029 138.069 311.777 137.584C311.526 137.098 311.393 136.56 311.391 136.013V104.995C311.392 104.672 311.484 104.355 311.657 104.082C311.829 103.809 312.075 103.59 312.366 103.45C312.657 103.31 312.982 103.254 313.303 103.29C313.624 103.325 313.929 103.45 314.182 103.651C321.075 108.717 325.177 114.541 325.177 120.711" stroke="#333333" stroke-width="0.6" stroke-linecap="round" stroke-linejoin="round"/>
<path d="M325.17 155.023V156.884C325.17 174.116 294.152 188.592 252.277 192.348C251.802 192.387 251.324 192.326 250.873 192.17C250.423 192.014 250.009 191.766 249.66 191.442C249.31 191.118 249.031 190.725 248.841 190.288C248.651 189.851 248.553 189.379 248.555 188.902V159.813C248.552 158.945 248.877 158.108 249.465 157.469C250.053 156.83 250.86 156.436 251.726 156.367C281.193 153.817 305.422 146.027 317.209 135.447C319.484 133.719 321.363 131.524 322.719 129.009C324.074 126.495 324.875 123.719 325.067 120.868L325.17 155.023Z" fill="#78C7E0" stroke="#333333" stroke-width="0.6" stroke-linecap="round" stroke-linejoin="round"/>
<path fill-rule="evenodd" clip-rule="evenodd" d="M271.698 166.249V168.303L266.056 169.008V166.954C266.055 166.147 266.348 165.369 266.879 164.77C267.382 164.153 268.096 163.756 268.877 163.657C269.234 163.601 269.599 163.627 269.945 163.734C270.29 163.841 270.608 164.025 270.875 164.274C271.145 164.521 271.359 164.827 271.501 165.168C271.644 165.509 271.711 165.878 271.698 166.249ZM271.828 180.064C272.232 180.423 272.707 180.686 273.221 180.835C273.736 180.985 274.276 181.018 274.804 180.931C275.958 180.794 277.019 180.22 277.776 179.322C278.563 178.457 278.998 177.318 278.991 176.138C279.012 175.596 278.914 175.056 278.704 174.558C278.493 174.06 278.176 173.616 277.776 173.259C277.374 172.9 276.899 172.636 276.385 172.485C275.871 172.335 275.331 172.302 274.804 172.39C273.65 172.528 272.588 173.102 271.828 173.999C271.042 174.864 270.608 176.002 270.613 177.182C270.594 177.723 270.694 178.261 270.904 178.758C271.114 179.254 271.43 179.697 271.828 180.054V180.064ZM262.312 181.352C262.436 181.463 262.583 181.545 262.742 181.592C262.901 181.638 263.069 181.649 263.232 181.622L270.549 180.708C270.158 180.256 269.849 179.737 269.636 179.174C269.414 178.592 269.3 177.972 269.3 177.347C269.322 175.85 269.854 174.408 270.805 173.268C271.756 172.127 273.066 171.359 274.512 171.096C274.727 171.054 274.944 171.028 275.163 171.017C275.38 171.003 275.599 171.011 275.814 171.041V169.117C275.82 168.949 275.788 168.781 275.722 168.626C275.656 168.471 275.557 168.333 275.433 168.222C275.308 168.111 275.161 168.029 275.002 167.982C274.842 167.936 274.675 167.926 274.512 167.953L272.99 168.142V166.088C273.009 165.549 272.911 165.012 272.703 164.515C272.495 164.019 272.183 163.575 271.788 163.216C271.397 162.856 270.931 162.59 270.426 162.437C269.92 162.284 269.387 162.248 268.867 162.333C267.728 162.472 266.685 163.049 265.949 163.945C265.172 164.811 264.742 165.942 264.743 167.115V169.169L263.222 169.357C262.864 169.4 262.535 169.58 262.302 169.86C262.056 170.127 261.92 170.48 261.922 170.846V180.451C261.918 180.62 261.95 180.788 262.017 180.942C262.085 181.096 262.186 181.232 262.312 181.341V181.352ZM274.401 178.849C274.419 178.864 274.44 178.875 274.463 178.881C274.485 178.887 274.509 178.888 274.532 178.883L275.27 178.791C275.32 178.785 275.366 178.762 275.401 178.726C275.434 178.688 275.452 178.639 275.452 178.589V177.49L276.429 177.918C276.475 177.935 276.524 177.935 276.57 177.918C276.617 177.901 276.656 177.865 276.677 177.819L277.047 177.134C277.07 177.092 277.077 177.042 277.067 176.994C277.06 176.972 277.049 176.953 277.034 176.936C277.019 176.92 277 176.907 276.98 176.898L276.006 176.47L276.98 175.786C277.022 175.758 277.053 175.715 277.067 175.666C277.077 175.62 277.07 175.572 277.047 175.532L276.677 174.954C276.666 174.934 276.651 174.918 276.632 174.906C276.613 174.894 276.592 174.887 276.57 174.885C276.521 174.879 276.471 174.892 276.429 174.92L275.452 175.604V174.502C275.453 174.479 275.449 174.456 275.44 174.435C275.431 174.413 275.418 174.394 275.401 174.379C275.364 174.35 275.317 174.338 275.27 174.344L274.532 174.437C274.482 174.443 274.435 174.468 274.401 174.505C274.368 174.542 274.35 174.589 274.35 174.639V175.741L273.373 175.313C273.328 175.294 273.277 175.294 273.232 175.313C273.185 175.332 273.146 175.367 273.121 175.412L272.755 176.08C272.732 176.123 272.725 176.173 272.735 176.22C272.741 176.242 272.752 176.263 272.767 176.279C272.782 176.296 272.801 176.309 272.822 176.316L273.796 176.744L272.822 177.429C272.78 177.455 272.749 177.496 272.735 177.545C272.725 177.592 272.732 177.641 272.755 177.682L273.121 178.257C273.133 178.277 273.15 178.293 273.169 178.306C273.188 178.318 273.21 178.326 273.232 178.329C273.282 178.334 273.332 178.32 273.373 178.291L274.35 177.607V178.705C274.349 178.731 274.353 178.757 274.364 178.78C274.375 178.803 274.391 178.824 274.411 178.839L274.401 178.849Z" fill="#031F2B"/>
<path d="M226.05 208.405C213.43 208.309 200.841 207.156 188.414 204.958C187.624 204.797 186.915 204.364 186.412 203.735C185.908 203.105 185.641 202.318 185.657 201.512V178.11C185.649 177.6 185.753 177.095 185.964 176.631C186.175 176.166 186.486 175.754 186.875 175.425C187.264 175.095 187.721 174.856 188.214 174.724C188.707 174.592 189.222 174.572 189.724 174.664C201.753 176.803 213.936 177.956 226.153 178.11C227.067 178.11 227.944 178.474 228.59 179.12C229.237 179.766 229.6 180.643 229.6 181.557V204.924C229.605 205.388 229.516 205.849 229.338 206.278C229.16 206.707 228.898 207.096 228.566 207.421C228.235 207.746 227.841 208.001 227.409 208.17C226.976 208.339 226.514 208.419 226.05 208.405Z" fill="#78C7E0" stroke="#333333" stroke-width="0.6" stroke-linecap="round" stroke-linejoin="round"/>
<path d="M196.067 142.799C196.481 142.864 196.905 142.839 197.31 142.726C197.714 142.613 198.089 142.415 198.41 142.144C198.722 141.869 198.969 141.529 199.136 141.148C199.303 140.767 199.384 140.354 199.375 139.938V136.664L195.929 136.251V122.017L179.523 120.018V137.526C179.537 138.432 179.88 139.302 180.488 139.973C181.102 140.645 181.931 141.084 182.832 141.214L196.067 142.799ZM182.867 138.973C182.559 138.942 182.275 138.794 182.074 138.56C181.872 138.346 181.761 138.062 181.764 137.767V122.43L193.792 123.912V135.94L183.935 134.734V138.181C183.94 138.322 183.915 138.462 183.861 138.593C183.808 138.724 183.727 138.841 183.625 138.939C183.507 138.995 183.379 139.028 183.249 139.034C183.119 139.04 182.989 139.019 182.867 138.973ZM192.689 128.151V125.98L186.313 125.187V127.393L192.689 128.151ZM192.689 131.598V129.426L186.313 128.634V130.805L192.689 131.598ZM184.353 130.68C184.781 130.569 185.06 130.179 185.038 129.737C185.052 129.126 184.534 128.591 183.935 128.53C183.351 128.44 182.837 128.905 182.867 129.495C182.859 130.227 183.629 130.869 184.353 130.68Z" fill="#031F2B"/>
<path d="M182.818 125.868C182.788 125.278 183.302 124.813 183.886 124.903C184.485 124.964 185.003 125.499 184.989 126.11C185.011 126.552 184.732 126.941 184.304 127.053C183.58 127.242 182.81 126.6 182.818 125.868Z" fill="#031F2B"/>
<path d="M134.994 218.056C134.671 217.937 134.386 217.735 134.167 217.47C133.972 217.198 133.864 216.874 133.857 216.539C133.841 216.402 133.861 216.263 133.916 216.136C133.97 216.009 134.057 215.899 134.167 215.816C134.296 215.754 134.437 215.722 134.581 215.722C134.724 215.722 134.865 215.754 134.994 215.816L142.094 218.331C142.426 218.431 142.717 218.637 142.921 218.917C143.116 219.189 143.224 219.513 143.231 219.848C143.247 219.985 143.227 220.124 143.172 220.251C143.118 220.378 143.031 220.489 142.921 220.572C142.792 220.633 142.651 220.665 142.508 220.665C142.364 220.665 142.223 220.633 142.094 220.572L134.994 218.056ZM134.994 199.203C134.671 199.085 134.386 198.883 134.167 198.618C133.972 198.346 133.864 198.021 133.857 197.687C133.841 197.55 133.861 197.411 133.916 197.284C133.97 197.157 134.057 197.046 134.167 196.963C134.296 196.902 134.437 196.87 134.581 196.87C134.724 196.87 134.865 196.902 134.994 196.963L148.401 201.685C148.742 201.786 149.036 202.006 149.228 202.305C149.432 202.572 149.541 202.9 149.538 203.236C149.548 203.367 149.525 203.499 149.471 203.62C149.416 203.74 149.333 203.845 149.228 203.925C149.101 203.994 148.959 204.031 148.815 204.031C148.67 204.031 148.528 203.994 148.401 203.925L134.994 199.203ZM146.678 225.293C146.35 225.167 146.064 224.952 145.851 224.673C145.656 224.401 145.547 224.077 145.54 223.742V217.47C145.527 217.338 145.549 217.205 145.603 217.084C145.658 216.963 145.743 216.858 145.851 216.78C145.977 216.711 146.12 216.675 146.264 216.675C146.409 216.675 146.551 216.711 146.678 216.78C146.995 216.891 147.272 217.095 147.47 217.366C147.689 217.628 147.81 217.956 147.815 218.297V220.33L160.085 224.639C160.402 224.749 160.679 224.953 160.877 225.224C161.096 225.486 161.217 225.814 161.222 226.155C161.238 226.296 161.214 226.438 161.153 226.566C161.092 226.694 160.997 226.802 160.877 226.879C160.754 226.939 160.618 226.971 160.481 226.971C160.343 226.971 160.208 226.939 160.085 226.879L147.815 222.57V224.535C147.827 224.675 147.802 224.817 147.741 224.944C147.68 225.071 147.587 225.18 147.47 225.259C147.35 225.325 147.216 225.363 147.078 225.369C146.941 225.375 146.804 225.349 146.678 225.293ZM142.094 214.265C141.781 214.129 141.508 213.915 141.301 213.644C141.072 213.389 140.949 213.056 140.957 212.714V210.749L134.994 208.647C134.662 208.528 134.374 208.311 134.167 208.026C133.963 207.759 133.854 207.432 133.857 207.096C133.847 206.964 133.87 206.832 133.924 206.712C133.979 206.592 134.062 206.486 134.167 206.406C134.294 206.337 134.436 206.301 134.581 206.301C134.725 206.301 134.867 206.337 134.994 206.406L140.957 208.509V206.441C140.939 206.305 140.962 206.167 141.024 206.044C141.085 205.921 141.182 205.819 141.301 205.752C141.422 205.682 141.558 205.646 141.698 205.646C141.837 205.646 141.973 205.682 142.094 205.752C142.426 205.851 142.717 206.057 142.921 206.338C143.116 206.609 143.224 206.934 143.231 207.268V213.61C143.247 213.747 143.227 213.886 143.172 214.013C143.118 214.14 143.031 214.25 142.921 214.334C142.787 214.384 142.643 214.404 142.5 214.392C142.357 214.381 142.218 214.337 142.094 214.265ZM146.678 212.748C146.343 212.635 146.053 212.418 145.851 212.128C145.647 211.86 145.538 211.533 145.54 211.197C145.531 211.065 145.554 210.934 145.608 210.813C145.662 210.693 145.746 210.588 145.851 210.508C145.977 210.438 146.12 210.402 146.264 210.402C146.409 210.402 146.551 210.438 146.678 210.508L160.085 215.195C160.397 215.331 160.67 215.544 160.877 215.816C161.107 216.07 161.23 216.403 161.222 216.746C161.24 216.882 161.216 217.02 161.155 217.143C161.094 217.266 160.997 217.368 160.877 217.435C160.757 217.505 160.62 217.541 160.481 217.541C160.342 217.541 160.205 217.505 160.085 217.435L146.678 212.748ZM152.985 208.681C152.652 208.582 152.362 208.376 152.158 208.095C151.958 207.813 151.85 207.476 151.847 207.13V200.892C151.832 200.755 151.852 200.616 151.906 200.489C151.961 200.362 152.047 200.251 152.158 200.168C152.287 200.107 152.428 200.075 152.571 200.075C152.714 200.075 152.856 200.107 152.985 200.168C153.312 200.279 153.592 200.498 153.777 200.789C154.007 201.044 154.13 201.376 154.122 201.719V203.684L160.085 205.786C160.412 205.897 160.691 206.115 160.877 206.406C161.107 206.661 161.23 206.994 161.222 207.337C161.235 207.473 161.21 207.61 161.149 207.731C161.088 207.853 160.994 207.956 160.877 208.026C160.754 208.087 160.618 208.119 160.481 208.119C160.343 208.119 160.208 208.087 160.085 208.026L154.122 205.924V207.957C154.135 208.093 154.11 208.23 154.049 208.352C153.988 208.474 153.894 208.576 153.777 208.647C153.66 208.722 153.525 208.764 153.386 208.77C153.247 208.776 153.108 208.746 152.985 208.681Z" fill="#031F2B"/>
<path d="M208.721 201.765L208.479 199.18H207.549C205.953 199.177 204.393 198.704 203.065 197.818C201.737 196.932 200.701 195.674 200.086 194.201C199.471 192.728 199.305 191.106 199.609 189.539C199.913 187.973 200.672 186.53 201.793 185.394C202.546 184.625 203.448 184.018 204.443 183.609C205.439 183.2 206.507 182.998 207.583 183.016C208.645 183.013 209.697 183.212 210.685 183.602C211.61 184.006 212.451 184.578 213.167 185.29C213.866 186.035 214.426 186.899 214.821 187.841C215.21 188.864 215.409 189.951 215.407 191.046C215.392 193.202 214.783 195.313 213.649 197.146C212.436 199.088 210.737 200.68 208.721 201.765ZM207.583 196.526C207.818 196.517 208.041 196.42 208.207 196.254C208.374 196.088 208.471 195.865 208.479 195.63C208.478 195.384 208.378 195.148 208.204 194.975C208.03 194.826 207.812 194.741 207.583 194.734C207.346 194.746 207.117 194.83 206.928 194.975C206.846 195.063 206.783 195.166 206.741 195.278C206.7 195.391 206.681 195.51 206.687 195.63C206.682 195.744 206.701 195.859 206.743 195.965C206.784 196.072 206.847 196.169 206.928 196.25C207.124 196.37 207.356 196.419 207.583 196.388V196.526ZM207.583 193.321C207.736 193.308 207.881 193.248 207.997 193.148C208.105 193.034 208.177 192.89 208.204 192.735C208.242 192.501 208.35 192.285 208.514 192.114C208.719 191.83 208.95 191.565 209.203 191.322C209.56 190.979 209.862 190.584 210.099 190.15C210.268 189.795 210.351 189.405 210.34 189.013C210.349 188.69 210.288 188.37 210.164 188.073C210.039 187.776 209.852 187.509 209.617 187.289C209.365 187.05 209.067 186.865 208.741 186.746C208.415 186.628 208.067 186.578 207.721 186.6C207.195 186.587 206.674 186.706 206.205 186.945C205.735 187.175 205.341 187.533 205.067 187.979C205.024 188.045 205.001 188.123 205.001 188.203C205.001 188.282 205.024 188.36 205.067 188.427C205.145 188.574 205.265 188.694 205.412 188.771H205.825C205.962 188.711 206.081 188.616 206.17 188.496C206.328 188.25 206.556 188.058 206.825 187.944C207.11 187.889 207.402 187.889 207.687 187.944C208.084 187.92 208.477 188.042 208.789 188.289C208.915 188.401 209.014 188.539 209.08 188.694C209.145 188.849 209.176 189.017 209.169 189.185C209.175 189.5 209.092 189.811 208.927 190.081C208.668 190.499 208.355 190.882 207.997 191.218C207.748 191.49 207.518 191.778 207.307 192.08C207.16 192.334 207.066 192.615 207.032 192.907C206.982 193.04 206.982 193.187 207.032 193.321C207.113 193.356 207.201 193.374 207.29 193.374C207.379 193.374 207.467 193.356 207.549 193.321H207.583Z" fill="#031F2B"/>
<path d="M348.609 208.765H348.92C349.025 208.734 349.12 208.674 349.195 208.593L352.469 205.319C352.658 205.137 352.8 204.913 352.883 204.664C353.005 204.343 353.048 203.998 353.008 203.657C352.968 203.316 352.846 202.99 352.654 202.706C352.461 202.422 352.203 202.188 351.901 202.025C351.599 201.862 351.262 201.774 350.919 201.769C350.528 201.793 350.15 201.911 349.816 202.114C349.37 202.457 348.966 202.85 348.609 203.285C348.273 202.844 347.879 202.45 347.438 202.114C347.103 201.911 346.725 201.793 346.335 201.769C346.058 201.762 345.783 201.814 345.527 201.921C345.272 202.028 345.042 202.187 344.853 202.389C344.565 202.684 344.367 203.054 344.281 203.457C344.196 203.859 344.227 204.278 344.37 204.664C344.453 204.913 344.595 205.137 344.784 205.319L348.058 208.593C348.127 208.681 348.225 208.742 348.334 208.765H348.609ZM348.403 214.073H347.782C347.576 213.978 347.38 213.862 347.196 213.728L336.857 203.389C336.699 203.216 336.571 203.018 336.478 202.803C336.445 202.597 336.445 202.388 336.478 202.183V193.877C336.478 193.438 336.652 193.017 336.962 192.707C337.273 192.397 337.693 192.222 338.132 192.222H346.438C346.655 192.189 346.876 192.189 347.093 192.222C347.32 192.29 347.524 192.422 347.679 192.601L358.018 202.941C358.193 203.09 358.333 203.274 358.429 203.483C358.525 203.691 358.575 203.918 358.575 204.147C358.575 204.376 358.525 204.603 358.429 204.811C358.333 205.02 358.193 205.204 358.018 205.353L349.574 213.625C349.429 213.767 349.252 213.873 349.057 213.935C348.821 214.047 348.56 214.095 348.299 214.073H348.403ZM340.993 198.116C341.181 198.111 341.366 198.069 341.538 197.992C341.709 197.915 341.864 197.805 341.992 197.668C342.125 197.538 342.23 197.382 342.301 197.21C342.372 197.038 342.408 196.854 342.406 196.668C342.402 196.294 342.254 195.936 341.992 195.669C341.861 195.537 341.705 195.433 341.534 195.362C341.362 195.291 341.178 195.254 340.993 195.254C340.807 195.254 340.623 195.291 340.452 195.362C340.28 195.433 340.124 195.537 339.993 195.669C339.731 195.936 339.583 196.294 339.58 196.668C339.578 196.854 339.613 197.038 339.684 197.21C339.755 197.382 339.86 197.538 339.993 197.668C340.122 197.805 340.276 197.915 340.448 197.992C340.619 198.069 340.805 198.111 340.993 198.116Z" fill="#031F2B"/>
<path d="M264.274 120.568C263.379 121.057 262.655 121.808 262.199 122.719C261.744 123.631 261.577 124.66 261.723 125.669C261.848 126.363 262.222 126.987 262.774 127.424C263.325 127.862 264.018 128.084 264.722 128.047C265.994 127.962 267.189 127.407 268.074 126.49C268.96 125.573 269.472 124.359 269.512 123.084C269.561 122.329 269.315 121.584 268.827 121.006C268.339 120.428 267.646 120.061 266.893 119.983V117.122L268.203 116.812C268.565 116.717 268.888 116.508 269.123 116.217C269.359 115.925 269.495 115.566 269.512 115.192C269.52 115.03 269.489 114.868 269.421 114.721C269.352 114.574 269.249 114.446 269.12 114.348C268.992 114.249 268.841 114.184 268.681 114.157C268.521 114.13 268.357 114.142 268.203 114.192L266.893 114.468C266.871 114.324 266.817 114.186 266.736 114.065C266.654 113.944 266.548 113.842 266.423 113.767C266.298 113.691 266.158 113.644 266.013 113.628C265.868 113.612 265.721 113.628 265.583 113.675C265.221 113.771 264.898 113.979 264.663 114.271C264.427 114.562 264.291 114.921 264.274 115.295V120.568ZM266.893 123.705C266.88 124.076 266.744 124.433 266.507 124.72C266.271 125.006 265.946 125.207 265.583 125.29C265.429 125.341 265.265 125.353 265.105 125.326C264.945 125.299 264.794 125.233 264.666 125.135C264.537 125.036 264.434 124.908 264.365 124.761C264.297 124.614 264.266 124.453 264.274 124.291C264.291 123.916 264.427 123.557 264.663 123.266C264.898 122.974 265.221 122.766 265.583 122.671C265.749 122.623 265.924 122.618 266.092 122.655C266.261 122.692 266.417 122.771 266.547 122.884C266.677 122.997 266.777 123.141 266.837 123.302C266.898 123.463 266.917 123.637 266.893 123.808V123.705Z" fill="#031F2B"/>
<path d="M270.169 119.322C269.278 119.815 268.557 120.566 268.102 121.477C267.646 122.387 267.478 123.415 267.619 124.423C267.764 125.113 268.148 125.729 268.702 126.164C269.257 126.599 269.947 126.824 270.652 126.801C271.918 126.701 273.105 126.142 273.987 125.228C274.87 124.313 275.387 123.108 275.442 121.838C275.491 121.083 275.245 120.338 274.757 119.76C274.269 119.182 273.576 118.815 272.823 118.736V115.876L274.133 115.566C274.495 115.47 274.818 115.262 275.053 114.971C275.289 114.679 275.425 114.32 275.442 113.946C275.45 113.784 275.419 113.622 275.351 113.475C275.282 113.328 275.179 113.2 275.05 113.101C274.922 113.003 274.771 112.938 274.611 112.91C274.451 112.883 274.287 112.896 274.133 112.946L272.823 113.222C272.831 113.06 272.8 112.899 272.731 112.751C272.663 112.604 272.56 112.476 272.431 112.378C272.302 112.279 272.151 112.214 271.991 112.187C271.831 112.16 271.667 112.172 271.513 112.223C271.147 112.316 270.82 112.523 270.578 112.814C270.337 113.105 270.194 113.465 270.169 113.842V119.322ZM272.823 122.424C272.806 122.798 272.67 123.158 272.434 123.449C272.198 123.74 271.876 123.949 271.513 124.044C271.357 124.093 271.192 124.104 271.031 124.077C270.87 124.05 270.717 123.985 270.586 123.887C270.455 123.79 270.349 123.663 270.276 123.516C270.204 123.37 270.167 123.208 270.169 123.044C270.194 122.667 270.337 122.307 270.578 122.016C270.82 121.725 271.147 121.518 271.513 121.425C271.667 121.374 271.831 121.362 271.991 121.389C272.151 121.416 272.302 121.482 272.431 121.58C272.56 121.678 272.663 121.806 272.731 121.954C272.8 122.101 272.831 122.262 272.823 122.424Z" fill="#031F2B"/>
<path d="M281.374 120.569C281.371 121.69 280.953 122.77 280.202 123.602C279.517 124.515 278.526 125.151 277.411 125.394C276.939 125.542 276.437 125.573 275.951 125.482C275.464 125.392 275.007 125.184 274.619 124.877C274.24 124.581 273.938 124.198 273.74 123.76C273.542 123.321 273.453 122.841 273.482 122.361C273.47 121.549 273.685 120.749 274.102 120.052C274.503 119.37 275.058 118.792 275.722 118.363V112.297C275.73 112.021 275.826 111.755 275.998 111.539C276.184 111.315 276.438 111.158 276.722 111.091L278.135 110.781C278.239 110.72 278.358 110.688 278.479 110.688C278.6 110.688 278.719 110.72 278.824 110.781C278.922 110.849 279 110.943 279.048 111.053C279.097 111.162 279.115 111.283 279.1 111.401V112.16L280.375 111.884C280.482 111.829 280.6 111.801 280.72 111.801C280.839 111.801 280.957 111.829 281.064 111.884C281.164 111.96 281.245 112.06 281.298 112.174C281.352 112.287 281.378 112.413 281.374 112.539V113.676C281.369 113.958 281.258 114.229 281.064 114.434C280.896 114.662 280.651 114.821 280.375 114.882L279.1 115.192V117.433C279.742 117.543 280.326 117.872 280.754 118.363C281.238 118.991 281.46 119.781 281.374 120.569ZM280.375 120.776C280.4 120.448 280.344 120.12 280.211 119.819C280.079 119.519 279.875 119.255 279.617 119.052C279.194 118.716 278.675 118.523 278.135 118.501V114.538L280.375 114.021V112.987L278.135 113.504V111.746L276.722 112.091V118.983C276.139 119.277 275.631 119.702 275.24 120.224C274.735 120.796 274.454 121.53 274.447 122.292C274.432 122.659 274.502 123.023 274.651 123.358C274.801 123.693 275.026 123.989 275.309 124.222C275.611 124.434 275.955 124.577 276.318 124.643C276.681 124.708 277.054 124.694 277.411 124.601C278.238 124.391 278.975 123.92 279.513 123.257C279.838 122.895 280.083 122.469 280.232 122.005C280.38 121.542 280.429 121.052 280.375 120.569V120.776ZM278.548 121.189C278.557 121.049 278.53 120.909 278.469 120.783C278.409 120.656 278.318 120.547 278.204 120.465C278.078 120.411 277.944 120.384 277.807 120.384C277.671 120.384 277.536 120.411 277.411 120.465C277.098 120.549 276.821 120.73 276.618 120.983C276.42 121.226 276.31 121.53 276.308 121.844C276.298 121.981 276.322 122.118 276.376 122.244C276.43 122.369 276.513 122.481 276.618 122.568C276.741 122.629 276.877 122.66 277.015 122.66C277.152 122.66 277.288 122.629 277.411 122.568C277.72 122.496 277.998 122.327 278.204 122.085C278.325 121.957 278.418 121.805 278.477 121.639C278.536 121.473 278.561 121.296 278.548 121.12V121.189Z" fill="#031F2B"/>
<path d="M243.494 50.6861C246.106 50.693 248.661 49.9247 250.837 48.4784C253.012 47.0321 254.709 44.9729 255.714 42.5615C256.718 40.1501 256.984 37.4949 256.479 34.9321C255.973 32.3692 254.719 30.0142 252.874 28.1647C251.03 26.3152 248.678 25.0544 246.116 24.5423C243.555 24.0302 240.899 24.2895 238.485 25.2876C236.071 26.2857 234.007 27.9775 232.555 30.149C231.103 32.3204 230.328 34.874 230.328 37.4862C230.328 40.9811 231.714 44.3333 234.182 46.8078C236.65 49.2823 239.999 50.677 243.494 50.6861Z" fill="#78C7E0"/>
<path d="M244.909 37.3144L239.394 38.7965L238.016 33.5578L243.53 32.1103C243.881 31.995 244.251 31.953 244.618 31.9871C244.986 32.0212 245.342 32.1307 245.666 32.3085C245.989 32.4863 246.272 32.7287 246.498 33.0208C246.723 33.3128 246.886 33.6481 246.977 34.0059C247.063 34.3591 247.078 34.7261 247.02 35.0852C246.963 35.4443 246.834 35.7882 246.641 36.0966C246.448 36.405 246.195 36.6716 245.898 36.8808C245.6 37.09 245.264 37.2373 244.909 37.3144V37.3144Z" stroke="#333333" stroke-width="0.6" stroke-linecap="round" stroke-linejoin="round"/>
<path d="M246.388 42.5853L240.874 44.0673L239.461 38.8288L244.975 37.3811C245.326 37.2604 245.697 37.2144 246.066 37.246C246.436 37.2777 246.794 37.3864 247.119 37.5649C247.443 37.7435 247.727 37.988 247.951 38.2829C248.176 38.5777 248.336 38.9161 248.422 39.2766C248.514 39.6276 248.534 39.9937 248.48 40.3526C248.427 40.7115 248.301 41.0561 248.111 41.3652C247.921 41.6744 247.671 41.9419 247.375 42.1516C247.079 42.3613 246.743 42.5088 246.388 42.5853V42.5853Z" stroke="#333333" stroke-width="0.6" stroke-linecap="round" stroke-linejoin="round"/>
<path d="M240.567 32.9258L240.016 30.9268" stroke="#333333" stroke-width="0.6" stroke-linecap="round" stroke-linejoin="round"/>
<path d="M242.95 32.305L242.398 30.2715" stroke="#333333" stroke-width="0.6" stroke-linecap="round" stroke-linejoin="round"/>
<path d="M243.876 45.3649L243.359 43.4004" stroke="#333333" stroke-width="0.6" stroke-linecap="round" stroke-linejoin="round"/>
<path d="M246.294 44.752L245.742 42.7529" stroke="#333333" stroke-width="0.6" stroke-linecap="round" stroke-linejoin="round"/>
<path d="M256.037 41.6092C255.949 41.8679 255.845 42.121 255.727 42.3674C254.74 44.7705 253.064 46.828 250.91 48.2807C248.756 49.7334 246.221 50.5166 243.623 50.5313C241.025 50.546 238.481 49.7918 236.311 48.3636C234.141 46.9354 232.442 44.897 231.427 42.5051C230.413 40.1133 230.129 37.475 230.612 34.9222C231.094 32.3694 232.321 30.0163 234.137 28.1592C235.954 26.3021 238.28 25.0239 240.821 24.4857C243.363 23.9476 246.007 24.1735 248.42 25.1349C250.186 25.8523 251.776 26.9406 253.084 28.326C254.392 29.7114 255.388 31.3618 256.003 33.1653" stroke="#333333" stroke-width="0.6" stroke-linecap="round" stroke-linejoin="round"/>
<path d="M256.492 35.1299C256.785 36.7365 256.785 38.3827 256.492 39.9893" stroke="#333333" stroke-width="0.6" stroke-linecap="round" stroke-linejoin="round"/>
<path d="M243.945 26.6641C245.13 26.7133 246.296 26.9698 247.392 27.4222" stroke="#333333" stroke-width="0.6" stroke-linecap="round" stroke-linejoin="round"/>
<path d="M233.43 33.4379C234.124 31.6078 235.301 30.0003 236.837 28.7865C238.372 27.5727 240.208 26.7979 242.149 26.5449" stroke="#333333" stroke-width="0.6" stroke-linecap="round" stroke-linejoin="round"/>
<path d="M212.102 52.8991C214.284 54.3333 216.843 55.0879 219.454 55.0675C222.065 55.0471 224.612 54.2526 226.772 52.7845C228.932 51.3164 230.607 49.2407 231.587 46.82C232.567 44.3993 232.806 41.7425 232.276 39.1855C231.745 36.6286 230.468 34.2865 228.606 32.4556C226.743 30.6247 224.38 29.3873 221.815 28.8999C219.249 28.4125 216.596 28.6971 214.193 29.7176C211.789 30.7381 209.742 32.4486 208.31 34.6328C206.402 37.5611 205.73 41.1253 206.44 44.5475C207.151 47.9698 209.186 50.972 212.102 52.8991Z" fill="#78C7E0"/>
<path d="M220.786 42.5779L215.375 40.7856L217.064 35.6504L222.475 37.4426C222.82 37.5474 223.14 37.7212 223.416 37.9538C223.691 38.1864 223.916 38.4727 224.078 38.7952C224.239 39.1178 224.333 39.4698 224.353 39.8298C224.374 40.1898 224.321 40.5502 224.198 40.8891C224.085 41.2243 223.908 41.534 223.675 41.8004C223.442 42.0668 223.159 42.2847 222.842 42.4416C222.526 42.5984 222.181 42.6912 221.828 42.7146C221.475 42.738 221.121 42.6915 220.786 42.5779V42.5779Z" stroke="#333333" stroke-width="0.6" stroke-linecap="round" stroke-linejoin="round"/>
<path d="M218.95 47.7104L213.539 45.9183L215.228 40.8174L220.639 42.5751C220.978 42.6881 221.292 42.8668 221.563 43.1012C221.833 43.3356 222.055 43.6211 222.215 43.9412C222.375 44.2613 222.47 44.6097 222.496 44.9667C222.521 45.3237 222.475 45.6822 222.362 46.0216C222.249 46.3568 222.072 46.6665 221.839 46.9329C221.606 47.1993 221.323 47.4172 221.007 47.574C220.69 47.7309 220.345 47.8237 219.992 47.8471C219.639 47.8705 219.285 47.824 218.95 47.7104V47.7104Z" stroke="#333333" stroke-width="0.6" stroke-linecap="round" stroke-linejoin="round"/>
<path d="M219.375 36.4304L219.995 34.4658" stroke="#333333" stroke-width="0.6" stroke-linecap="round" stroke-linejoin="round"/>
<path d="M221.711 37.2402L222.366 35.2412" stroke="#333333" stroke-width="0.6" stroke-linecap="round" stroke-linejoin="round"/>
<path d="M215.305 48.6566L215.96 46.7266" stroke="#333333" stroke-width="0.6" stroke-linecap="round" stroke-linejoin="round"/>
<path d="M217.68 49.4499L218.335 47.4854" stroke="#333333" stroke-width="0.6" stroke-linecap="round" stroke-linejoin="round"/>
<path d="M227.673 52.1899C227.469 52.3698 227.25 52.5313 227.018 52.6725C224.487 54.4435 221.414 55.268 218.336 55.0019C215.259 54.7358 212.372 53.3962 210.183 51.217C207.993 49.0378 206.64 46.158 206.359 43.0816C206.078 40.0053 206.888 36.9283 208.647 34.3888C210.406 31.8494 213.002 30.0092 215.981 29.1905C218.96 28.3718 222.131 28.6267 224.941 29.9103C227.751 31.194 230.02 33.4248 231.351 36.2124C232.682 39.0001 232.991 42.167 232.222 45.1591" stroke="#333333" stroke-width="0.6" stroke-linecap="round" stroke-linejoin="round"/>
<path d="M231.462 47.0078C230.837 48.5143 229.924 49.8843 228.773 51.0404" stroke="#333333" stroke-width="0.6" stroke-linecap="round" stroke-linejoin="round"/>
<path d="M225.641 33.042C226.636 33.7726 227.508 34.6568 228.225 35.6614" stroke="#333333" stroke-width="0.6" stroke-linecap="round" stroke-linejoin="round"/>
<path d="M213.102 33.0005C214.688 31.8859 216.544 31.215 218.477 31.0575C220.41 30.8999 222.349 31.2615 224.096 32.1044" stroke="#333333" stroke-width="0.6" stroke-linecap="round" stroke-linejoin="round"/>
<path d="M203.203 74.5778V42.629H256.52C257.338 42.5382 258.165 42.6099 258.955 42.84C259.744 43.07 260.48 43.4539 261.121 43.9696C261.762 44.4853 262.294 45.1225 262.687 45.8447C263.081 46.5669 263.327 47.3599 263.413 48.1778V88.3638C263.327 89.1817 263.081 89.9746 262.687 90.6968C262.294 91.4191 261.762 92.0563 261.121 92.572C260.48 93.0877 259.744 93.4717 258.955 93.7018C258.165 93.9319 257.338 94.0036 256.52 93.9128H203.203V87.0198" fill="white"/>
<path d="M203.203 74.5778V42.629H256.52C257.338 42.5382 258.165 42.6099 258.955 42.84C259.744 43.07 260.48 43.4539 261.121 43.9696C261.762 44.4853 262.294 45.1225 262.687 45.8447C263.081 46.5669 263.328 47.3599 263.413 48.1778V88.3638C263.328 89.1817 263.081 89.9746 262.687 90.6969C262.294 91.4191 261.762 92.0563 261.121 92.572C260.48 93.0877 259.744 93.4717 258.955 93.7018C258.165 93.9319 257.338 94.0036 256.52 93.9128H203.203V87.0198" stroke="#333333" stroke-width="0.6" stroke-linecap="round" stroke-linejoin="round"/>
<path d="M203.203 74.5778V42.629H256.52C257.338 42.5382 258.165 42.6099 258.955 42.84C259.744 43.07 260.48 43.4539 261.121 43.9696C261.762 44.4853 262.294 45.1225 262.687 45.8447C263.081 46.5669 263.328 47.3599 263.413 48.1778V88.3638C263.328 89.1817 263.081 89.9746 262.687 90.6969C262.294 91.4191 261.762 92.0563 261.121 92.572C260.48 93.0877 259.744 93.4717 258.955 93.7018C258.165 93.9319 257.338 94.0036 256.52 93.9128H203.203V87.0198" stroke="#333333" stroke-width="0.6" stroke-linecap="round" stroke-linejoin="round"/>
<path d="M203.234 85.3477V76.4902" stroke="#333333" stroke-width="0.6" stroke-linecap="round" stroke-linejoin="round"/>
<path d="M241.462 56.9229H266.449V75.1547H241.462L238.016 71.7082V60.3348L241.462 56.9229Z" fill="#46CDCF" stroke="#333333" stroke-width="0.6" stroke-linecap="round" stroke-linejoin="round"/>
<path d="M245.424 69.1095C247.29 69.1095 248.802 67.5974 248.802 65.732C248.802 63.8666 247.29 62.3545 245.424 62.3545C243.559 62.3545 242.047 63.8666 242.047 65.732C242.047 67.5974 243.559 69.1095 245.424 69.1095Z" fill="#48466D" stroke="#333333" stroke-width="0.6" stroke-linecap="round" stroke-linejoin="round"/>
<defs>
<clipPath id="clip0_32059_190337">
<rect width="23.5423" height="23.5423" fill="white" transform="translate(186.156 174.262)"/>
</clipPath>
</defs>
</svg>
