<svg width="346" height="512" viewBox="0 0 346 512" fill="none" xmlns="http://www.w3.org/2000/svg">
<rect width="346" height="512" rx="24" fill="#D0E2FF"/>
<path d="M128.939 154.84H245.773V356.658H100.203V180.487V170.333V154.84H119.081" fill="#48466D"/>
<path d="M128.939 154.84H245.773V356.658H100.203V180.487V170.333V154.84H119.081" stroke="#333333" stroke-width="0.72" stroke-linecap="round" stroke-linejoin="round"/>
<path d="M100.203 170.333V154.84H119.081" stroke="#333333" stroke-width="0.72" stroke-linecap="round" stroke-linejoin="round"/>
<path d="M155.82 164.03H190.145" stroke="#333333" stroke-width="0.72" stroke-linecap="round" stroke-linejoin="round"/>
<path d="M233.659 171.739H112.316V341.739H233.659V171.739Z" fill="#78C7E0" stroke="#333333" stroke-width="0.72" stroke-linecap="round" stroke-linejoin="round"/>
<path d="M186.308 183.565H125.637V210.174H186.308V183.565Z" fill="#3D84A8" stroke="#333333" stroke-width="0.72" stroke-linecap="round" stroke-linejoin="round"/>
<path d="M149.313 216.087H125.637V239.739H149.313V216.087Z" fill="#46CDCF" stroke="#333333" stroke-width="0.72" stroke-linecap="round" stroke-linejoin="round"/>
<path d="M149.313 245.652H125.637V269.304H149.313V245.652Z" fill="#46CDCF" stroke="#333333" stroke-width="0.72" stroke-linecap="round" stroke-linejoin="round"/>
<path d="M149.313 275.217H125.637V298.869H149.313V275.217Z" fill="#46CDCF" stroke="#333333" stroke-width="0.72" stroke-linecap="round" stroke-linejoin="round"/>
<path d="M149.313 304.782H125.637V328.435H149.313V304.782Z" fill="#46CDCF" stroke="#333333" stroke-width="0.72" stroke-linecap="round" stroke-linejoin="round"/>
<path d="M184.829 216.087H161.152V239.739H184.829V216.087Z" fill="#46CDCF" stroke="#333333" stroke-width="0.72" stroke-linecap="round" stroke-linejoin="round"/>
<path d="M184.829 245.652H161.152V269.304H184.829V245.652Z" fill="#46CDCF" stroke="#333333" stroke-width="0.72" stroke-linecap="round" stroke-linejoin="round"/>
<path d="M184.829 275.217H161.152V298.869H184.829V275.217Z" fill="#46CDCF" stroke="#333333" stroke-width="0.72" stroke-linecap="round" stroke-linejoin="round"/>
<path d="M184.829 304.782H161.152V328.435H184.829V304.782Z" fill="#46CDCF" stroke="#333333" stroke-width="0.72" stroke-linecap="round" stroke-linejoin="round"/>
<path d="M220.341 216.087H196.664V239.739H220.341V216.087Z" fill="#46CDCF" stroke="#333333" stroke-width="0.72" stroke-linecap="round" stroke-linejoin="round"/>
<path d="M220.341 245.652H196.664V269.305H220.341V245.652Z" fill="#46CDCF" stroke="#333333" stroke-width="0.72" stroke-linecap="round" stroke-linejoin="round"/>
<path d="M220.341 275.218H196.664V298.87H220.341V275.218Z" fill="#46CDCF" stroke="#333333" stroke-width="0.72" stroke-linecap="round" stroke-linejoin="round"/>
<path d="M220.341 304.783H196.664V328.435H220.341V304.783Z" fill="#46CDCF" stroke="#333333" stroke-width="0.72" stroke-linecap="round" stroke-linejoin="round"/>
<path d="M260.821 139.11C262.476 139.11 264.064 139.768 265.234 140.938L265.447 141.162C266.484 142.306 267.062 143.798 267.062 145.35V165.406C267.061 196.531 240.713 206.849 235.479 208.591L235.479 208.592C234.21 209.024 232.834 209.024 231.564 208.592V208.591C226.321 206.848 199.982 196.53 199.981 165.406V145.35C199.981 143.695 200.639 142.108 201.81 140.938L202.033 140.724C203.178 139.688 204.67 139.11 206.222 139.11H260.821Z" fill="#ABEDD8" stroke="black" stroke-width="1.56"/>
<path d="M214.393 177.72C214.221 177.72 214.079 177.66 213.966 177.541C213.854 177.421 213.798 177.27 213.798 177.087V173.209L210.645 175.148C210.499 175.232 210.347 175.253 210.189 175.211C210.03 175.169 209.911 175.071 209.832 174.916L208.642 172.724C208.563 172.569 208.543 172.407 208.582 172.239C208.622 172.07 208.715 171.944 208.86 171.859L212.013 169.92L208.86 167.98C208.715 167.896 208.622 167.77 208.582 167.601C208.543 167.432 208.563 167.271 208.642 167.116L209.832 164.924C209.911 164.769 210.03 164.671 210.189 164.629C210.347 164.586 210.499 164.607 210.645 164.692L213.798 166.631V162.752C213.798 162.57 213.854 162.419 213.966 162.299C214.079 162.18 214.221 162.12 214.393 162.12H216.772C216.944 162.12 217.086 162.18 217.199 162.299C217.311 162.419 217.367 162.57 217.367 162.752V166.631L220.52 164.692C220.666 164.607 220.818 164.586 220.976 164.629C221.135 164.671 221.254 164.769 221.333 164.924L222.523 167.116C222.602 167.271 222.622 167.432 222.583 167.601C222.543 167.77 222.45 167.896 222.305 167.98L219.152 169.92L222.305 171.859C222.45 171.944 222.543 172.07 222.583 172.239C222.622 172.407 222.602 172.569 222.523 172.724L221.333 174.916C221.254 175.071 221.135 175.169 220.976 175.211C220.818 175.253 220.666 175.232 220.52 175.148L217.367 173.209V177.087C217.367 177.27 217.311 177.421 217.199 177.541C217.086 177.66 216.944 177.72 216.772 177.72H214.393Z" fill="#333333"/>
<path d="M232.201 177.72C232.01 177.72 231.852 177.66 231.727 177.541C231.602 177.421 231.54 177.27 231.54 177.087V173.209L228.036 175.148C227.875 175.232 227.706 175.253 227.529 175.211C227.353 175.169 227.221 175.071 227.133 174.916L225.811 172.724C225.723 172.569 225.701 172.407 225.745 172.239C225.789 172.07 225.892 171.944 226.053 171.859L229.557 169.92L226.053 167.98C225.892 167.896 225.789 167.77 225.745 167.601C225.701 167.432 225.723 167.271 225.811 167.116L227.133 164.924C227.221 164.769 227.353 164.671 227.529 164.629C227.706 164.586 227.875 164.607 228.036 164.692L231.54 166.631V162.752C231.54 162.57 231.602 162.419 231.727 162.299C231.852 162.18 232.01 162.12 232.201 162.12H234.845C235.036 162.12 235.194 162.18 235.318 162.299C235.443 162.419 235.506 162.57 235.506 162.752V166.631L239.009 164.692C239.171 164.607 239.34 164.586 239.516 164.629C239.692 164.671 239.824 164.769 239.912 164.924L241.235 167.116C241.323 167.271 241.345 167.432 241.301 167.601C241.257 167.77 241.154 167.896 240.992 167.98L237.489 169.92L240.992 171.859C241.154 171.944 241.257 172.07 241.301 172.239C241.345 172.407 241.323 172.569 241.235 172.724L239.912 174.916C239.824 175.071 239.692 175.169 239.516 175.211C239.34 175.253 239.171 175.232 239.009 175.148L235.506 173.209V177.087C235.506 177.27 235.443 177.421 235.318 177.541C235.194 177.66 235.036 177.72 234.845 177.72H232.201Z" fill="#333333"/>
<path d="M250.272 177.72C250.1 177.72 249.958 177.66 249.845 177.541C249.733 177.421 249.677 177.27 249.677 177.087V173.209L246.524 175.148C246.378 175.232 246.226 175.253 246.068 175.211C245.909 175.169 245.79 175.071 245.711 174.916L244.521 172.724C244.441 172.569 244.422 172.407 244.461 172.239C244.501 172.07 244.593 171.944 244.739 171.859L247.892 169.92L244.739 167.98C244.593 167.896 244.501 167.77 244.461 167.601C244.422 167.432 244.441 167.271 244.521 167.116L245.711 164.924C245.79 164.769 245.909 164.671 246.068 164.629C246.226 164.586 246.378 164.607 246.524 164.692L249.677 166.631V162.752C249.677 162.57 249.733 162.419 249.845 162.299C249.958 162.18 250.1 162.12 250.272 162.12H252.651C252.823 162.12 252.965 162.18 253.078 162.299C253.19 162.419 253.246 162.57 253.246 162.752V166.631L256.399 164.692C256.545 164.607 256.697 164.586 256.855 164.629C257.014 164.671 257.133 164.769 257.212 164.924L258.402 167.116C258.481 167.271 258.501 167.432 258.462 167.601C258.422 167.77 258.329 167.896 258.184 167.98L255.031 169.92L258.184 171.859C258.329 171.944 258.422 172.07 258.462 172.239C258.501 172.407 258.481 172.569 258.402 172.724L257.212 174.916C257.133 175.071 257.014 175.169 256.855 175.211C256.697 175.253 256.545 175.232 256.399 175.148L253.246 173.209V177.087C253.246 177.27 253.19 177.421 253.078 177.541C252.965 177.66 252.823 177.72 252.651 177.72H250.272Z" fill="#333333"/>
</svg>
