<svg width="61" height="60" viewBox="0 0 61 60" fill="none" xmlns="http://www.w3.org/2000/svg">
<path d="M5.55859 3.62341H17.3469C17.3893 3.62341 23.7836 5.38891 29.4846 5.38891C36.0007 5.38891 40.9765 3.95317 43.1627 3.62341H54.9986V56.2275H48.6095C48.5672 56.2275 38.6209 54.3403 29.7863 54.3403C24.0377 54.3403 19.4907 54.9136 11.9053 56.2275H5.55859V3.62341Z" fill="#ABEDD8"/>
<path fill-rule="evenodd" clip-rule="evenodd" d="M5.30859 3.62325C5.30859 3.48223 5.42259 3.36792 5.56321 3.36792H17.3515C17.3711 3.36792 17.3869 3.37033 17.3896 3.37075C17.395 3.37155 17.3996 3.37242 17.402 3.37288C17.407 3.37385 17.4115 3.37485 17.4144 3.37551L17.4348 3.3804C17.4495 3.38403 17.4699 3.38923 17.4951 3.39567C17.5089 3.3992 17.5244 3.40316 17.5414 3.40752C17.5873 3.41929 17.6448 3.43404 17.7139 3.4516C17.9031 3.49965 18.1773 3.5683 18.5231 3.6507C19.2147 3.81552 20.1923 4.03534 21.3459 4.25516C23.6555 4.69522 26.6617 5.13342 29.4892 5.13342C34.4652 5.13342 38.5194 4.29502 41.1437 3.75232C41.9431 3.58701 42.6097 3.44915 43.1294 3.37076C43.1419 3.36887 43.1546 3.36792 43.1673 3.36792H55.0032C55.1439 3.36792 55.2579 3.48223 55.2579 3.62325V56.2273C55.2579 56.3684 55.1439 56.4827 55.0032 56.4827H48.6141C48.6065 56.4826 48.5949 56.4819 48.5908 56.4816L48.5822 56.4807L48.5739 56.4796L48.5633 56.4779L48.5376 56.4734L48.4394 56.4559C48.3624 56.4422 48.2524 56.4225 48.1115 56.3977C47.819 56.3463 47.3935 56.2727 46.8563 56.1844C45.782 56.0079 44.2615 55.7724 42.4666 55.5369C38.8754 55.0658 34.1925 54.5955 29.7909 54.5955C24.0638 54.5955 19.5333 55.1659 11.9533 56.4789C11.939 56.4814 11.9245 56.4827 11.91 56.4827H5.56321C5.42259 56.4827 5.30859 56.3684 5.30859 56.2273V3.62325ZM5.81782 3.87857V55.972H11.8881C19.466 54.6598 24.0264 54.0848 29.7909 54.0848C34.224 54.0848 38.9316 54.5581 42.5327 55.0306C44.334 55.2669 45.8601 55.5032 46.9387 55.6805C47.478 55.7691 47.9055 55.843 48.1995 55.8948C48.3396 55.9194 48.4494 55.939 48.5263 55.9528L48.6254 55.9704L48.6346 55.972H54.7486V3.87857H43.1864C42.6956 3.9535 42.0567 4.08574 41.2856 4.24532C38.6678 4.78709 34.527 5.64407 29.4892 5.64407C26.6158 5.64407 23.5743 5.19952 21.2509 4.75684C20.088 4.53528 19.1028 4.31372 18.4053 4.14751C18.0566 4.0644 17.7798 3.99512 17.5889 3.94662C17.5192 3.9289 17.4607 3.91391 17.4147 3.90212C17.3979 3.8978 17.3827 3.89391 17.3693 3.89048L17.3223 3.87857H5.81782Z" fill="#333333"/>
<path d="M43.9911 29.4753H16.5926C14.0201 29.4753 11.9609 31.4437 11.9609 33.9144V56.1858H48.6228V33.955C48.6651 31.4894 46.5637 29.4753 43.9911 29.4753Z" fill="#3D84A8"/>
<path fill-rule="evenodd" clip-rule="evenodd" d="M11.7148 33.915C11.7148 31.2923 13.8991 29.2206 16.6012 29.2206H43.9996C46.7 29.2206 48.9297 31.3371 48.8859 33.9579V56.1863C48.8859 56.3273 48.7719 56.4417 48.6313 56.4417H11.9695C11.8288 56.4417 11.7148 56.3273 11.7148 56.1863V33.915ZM16.6012 29.7312C14.158 29.7312 12.2241 31.5963 12.2241 33.915V55.931H48.3767V33.9512C48.4164 31.6418 46.4436 29.7312 43.9996 29.7312H16.6012Z" fill="#333333"/>
<path d="M43.1946 14.8453L36.7209 19.0358H17.3789V3.62341H43.1946V14.8453Z" fill="#3D84A8"/>
<path fill-rule="evenodd" clip-rule="evenodd" d="M17.1328 3.62325C17.1328 3.48223 17.2468 3.36792 17.3874 3.36792H43.2032C43.3438 3.36792 43.4578 3.48223 43.4578 3.62325V14.8452C43.4578 14.9319 43.4139 15.0127 43.3412 15.0597L36.8675 19.2502C36.8263 19.2768 36.7784 19.291 36.7294 19.291H17.3874C17.2468 19.291 17.1328 19.1767 17.1328 19.0357V3.62325ZM17.642 3.87857V18.7803H36.6543L42.9485 14.7061V3.87857H17.642Z" fill="#333333"/>
<path d="M23.7135 3.62341H20.7969V15.9513H23.7135V3.62341Z" fill="#54C4C9"/>
<path fill-rule="evenodd" clip-rule="evenodd" d="M20.543 3.62325C20.543 3.48223 20.657 3.36792 20.7976 3.36792H23.7142C23.8549 3.36792 23.9688 3.48223 23.9688 3.62325V15.9511C23.9688 16.0922 23.8549 16.2065 23.7142 16.2065H20.7976C20.657 16.2065 20.543 16.0922 20.543 15.9511V3.62325ZM21.0522 3.87857V15.6958H23.4596V3.87857H21.0522Z" fill="#333333"/>
</svg>
