<svg width="346" height="300" viewBox="0 0 346 300" fill="none" xmlns="http://www.w3.org/2000/svg">
<rect width="346" height="300" fill="#D0E2FF"/>
<path d="M175.312 155L175.313 175" stroke="#333333" stroke-width="0.6" stroke-linecap="round" stroke-linejoin="round"/>
<path d="M204.74 236.541H118.258L143.143 171.66H229.63L204.74 236.541Z" fill="#ABEDD8"/>
<path d="M212.128 217.348L204.746 236.541H185.586" stroke="#333333" stroke-width="0.6" stroke-linecap="round" stroke-linejoin="round"/>
<path d="M182.119 236.539H177.961" stroke="#333333" stroke-width="0.6" stroke-linecap="round" stroke-linejoin="round"/>
<path d="M177.958 236.539H137.422" stroke="#333333" stroke-width="0.6" stroke-linecap="round" stroke-linejoin="round"/>
<path d="M137.418 236.541H118.258L125.597 217.348" stroke="#333333" stroke-width="0.6" stroke-linecap="round" stroke-linejoin="round"/>
<path d="M130.242 205.325L135.767 190.852" stroke="#333333" stroke-width="0.6" stroke-linecap="round" stroke-linejoin="round"/>
<path d="M135.766 190.853L143.147 171.66H162.308" stroke="#333333" stroke-width="0.6" stroke-linecap="round" stroke-linejoin="round"/>
<path d="M165.781 171.66H169.935" stroke="#333333" stroke-width="0.6" stroke-linecap="round" stroke-linejoin="round"/>
<path d="M169.93 171.66H210.471" stroke="#333333" stroke-width="0.6" stroke-linecap="round" stroke-linejoin="round"/>
<path d="M210.477 171.66H229.637L222.294 190.853" stroke="#333333" stroke-width="0.6" stroke-linecap="round" stroke-linejoin="round"/>
<path d="M217.654 202.879L212.125 217.348" stroke="#333333" stroke-width="0.6" stroke-linecap="round" stroke-linejoin="round"/>
<path d="M174.893 207.468C177.861 207.468 180.26 204.863 180.26 201.652C180.26 198.441 177.861 195.836 174.893 195.836C171.935 195.836 169.531 198.441 169.531 201.652C169.531 204.863 171.935 207.468 174.893 207.468Z" fill="#46CDCF" stroke="#333333" stroke-width="0.6" stroke-linecap="round" stroke-linejoin="round"/>
<path d="M89.5 240.08H206.64V231.645H97.2829C92.9667 231.645 89.5 235.448 89.5 240.08Z" fill="#ABEDD8" stroke="#333333" stroke-width="0.6" stroke-linecap="round" stroke-linejoin="round"/>
<path d="M86.7344 138.756V160H263.886V60H86.7344V98.7336V138.756Z" fill="#ABEDD8" stroke="#333333" stroke-width="0.6" stroke-linecap="round" stroke-linejoin="round"/>
<path d="M150.139 133.332C150.139 135.541 151.93 137.332 154.139 137.332H196.25C198.459 137.332 200.25 135.541 200.25 133.332V72.9987C200.25 70.7896 198.459 68.9987 196.25 68.9987H154.139C151.93 68.9987 150.139 70.7896 150.139 72.9987V133.332Z" fill="#78C7E0" stroke="#333333" stroke-width="0.6" stroke-linecap="round" stroke-linejoin="round"/>
<path d="M184.242 113.864L177.314 116.832V94.7176L191.141 88.7808V97.2409L184.242 100.506V113.864Z" fill="#48466D"/>
<path d="M173.078 116.832L166.15 113.864V100.506L159.252 97.2409V88.7808L173.078 94.7176V116.832Z" fill="#48466D"/>
<path d="M175.214 79.2487L189.526 85.4378L175.214 91.627L160.903 85.4378L175.214 79.2487Z" fill="#48466D"/>
<path d="M167.391 151H183.391V137.333H167.391V151Z" fill="#46CDCF" stroke="#333333" stroke-width="0.6" stroke-linecap="round" stroke-linejoin="round"/>
</svg>
