<svg width="25" height="24" viewBox="0 0 25 24" fill="none" xmlns="http://www.w3.org/2000/svg">
<g clip-path="url(#clip0_52_749)">
<path fill-rule="evenodd" clip-rule="evenodd" d="M12.3334 22C17.8562 22 22.3334 17.5228 22.3334 12C22.3334 6.47715 17.8562 2 12.3334 2C6.81053 2 2.33337 6.47715 2.33337 12C2.33337 17.5228 6.81053 22 12.3334 22ZM17.0984 10.5772C17.3119 9.12703 16.1733 8.33843 14.6084 7.78524L15.0954 5.81789L13.8586 5.51115L13.384 7.42824C13.3032 7.40773 13.2229 7.38704 13.1429 7.36643L13.1424 7.36631L13.1424 7.3663L13.1423 7.3663C12.8981 7.30338 12.6566 7.24116 12.4096 7.18658L12.8842 5.26949L11.613 4.95423L11.1384 6.87132L8.6151 6.24552L8.29141 7.55705C8.29141 7.55705 9.22627 7.76363 9.19293 7.78063C9.69401 7.91456 9.78767 8.23443 9.76746 8.4765L9.20127 10.7062L8.42548 13.8438C8.36165 13.992 8.20139 14.202 7.85869 14.1185C7.87335 14.1331 6.94859 13.8814 6.94859 13.8814L6.38467 15.2595L8.83451 15.9204L8.35001 17.8776L9.57905 18.1824L10.0635 16.2252C10.2616 16.2812 10.4615 16.3281 10.6549 16.3735L10.6549 16.3735C10.7997 16.4075 10.9408 16.4406 11.0749 16.476L10.5904 18.4332L11.8217 18.7386L12.3062 16.7814C14.4221 17.1986 16.0067 17.071 16.6624 15.2217C17.1899 13.7474 16.6313 12.8842 15.506 12.2958C16.3341 12.1347 16.9357 11.6326 17.0984 10.5772ZM11.4093 10.82L11.3476 10.8018L11.9341 8.4495C12.0046 8.46766 12.0945 8.48808 12.1986 8.51171L12.1987 8.51172L12.1987 8.51172C13.0805 8.71186 14.9783 9.1426 14.673 10.3817C14.3444 11.685 12.1496 11.0381 11.4093 10.82ZM10.3874 14.6382L10.4946 14.6694C11.4065 14.9357 13.9941 15.6913 14.3044 14.3972C14.6266 13.1517 12.3042 12.6023 11.2644 12.3564C11.1504 12.3294 11.0519 12.3061 10.9739 12.2859L10.3874 14.6382Z" fill="#031F2B"/>
</g>
<defs>
<clipPath id="clip0_52_749">
<rect width="24" height="24" fill="white" transform="translate(0.333374)"/>
</clipPath>
</defs>
</svg>
