<svg width="172" height="33" viewBox="0 0 172 33" fill="none" xmlns="http://www.w3.org/2000/svg">
<path d="M171.083 18.4859L163.787 25.7823C163.635 25.9344 163.429 26.0199 163.213 26.0199C162.998 26.0199 162.792 25.9344 162.64 25.7823C162.488 25.6302 162.402 25.4238 162.402 25.2087C162.402 24.9936 162.488 24.7873 162.64 24.6351L168.553 18.723L16.9128 18.2268C16.6978 18.2268 16.4915 18.1414 16.3395 17.9894C16.1875 17.8373 16.1021 17.6311 16.1021 17.4161C16.1021 17.2011 16.1875 16.9949 16.3395 16.8428C16.4915 16.6908 16.6978 16.6054 16.9128 16.6054L168.553 17.1016L162.64 11.1894C162.488 11.0373 162.402 10.831 162.402 10.6159C162.402 10.4007 162.488 10.1944 162.64 10.0423C162.792 9.89015 162.998 9.80469 163.213 9.80469C163.429 9.80469 163.635 9.89015 163.787 10.0423L171.083 17.3387C171.159 17.414 171.219 17.5034 171.259 17.6018C171.3 17.7002 171.321 17.8057 171.321 17.9123C171.321 18.0188 171.3 18.1243 171.259 18.2227C171.219 18.3212 171.159 18.4106 171.083 18.4859Z" fill="#BA68C8" fill-opacity="0.45"/>
<path d="M24.4826 8.59147C19.5416 3.85818 12.0478 3.35329 7.76559 7.45548C7.18914 8.0077 5.16333 9.83792 4.47159 10.5321C0.172921 14.6501 0.716433 21.8132 5.65743 26.5622C10.5984 31.3113 18.0923 31.8004 22.3909 27.6982L25.6849 24.6216C29.9671 20.5036 29.4401 13.3248 24.4826 8.59147Z" fill="#ABEDD8" stroke="#333333" stroke-width="0.6" stroke-linecap="round" stroke-linejoin="round"/>
<path d="M25.6795 24.6001C29.9696 20.4903 29.4378 13.3176 24.4916 8.57941C21.9109 6.10715 18.6383 4.78614 15.489 4.67183C12.6025 4.56706 9.81958 5.47602 7.76792 7.44144C3.47782 11.5512 4.00965 18.7239 8.95581 23.4621C13.902 28.2004 21.3894 28.7099 25.6795 24.6001Z" fill="white" stroke="white" stroke-width="0.6" stroke-linecap="round" stroke-linejoin="round"/>
<path d="M13.9139 4.71686C11.6055 4.93634 9.44299 5.83679 7.76792 7.44144C3.47782 11.5512 4.00965 18.7239 8.95581 23.4621C13.902 28.2004 21.3894 28.7099 25.6795 24.6001C29.9696 20.4903 29.4378 13.3176 24.4916 8.57941C23.3524 7.48805 22.0783 6.62103 20.7395 5.98313M17.0642 4.82831C17.8568 4.95679 18.6486 5.16023 19.4269 5.43778" stroke="#333333" stroke-width="0.6" stroke-linecap="round" stroke-linejoin="round"/>
<path d="M18.5874 14.6354L13.9429 17.791L10.8301 13.5783L15.4746 10.4228C16.0587 10.0852 16.7546 9.97183 17.4224 10.1055C18.0902 10.2391 18.6805 10.6099 19.0746 11.1433C19.4688 11.6768 19.6376 12.3333 19.5473 12.9811C19.4569 13.6288 19.114 14.2199 18.5874 14.6354V14.6354Z" stroke="#333333" stroke-width="0.6" stroke-linecap="round" stroke-linejoin="round"/>
<path d="M21.7027 18.8642L17.0581 22.0197L13.9453 17.807L18.5899 14.6515C18.8775 14.4557 19.2026 14.3161 19.5466 14.2407C19.8906 14.1653 20.2467 14.1555 20.5946 14.2119C20.9426 14.2683 21.2755 14.3898 21.5744 14.5694C21.8733 14.7491 22.1324 14.9834 22.3368 15.259C22.5412 15.5345 22.6869 15.846 22.7656 16.1755C22.8444 16.505 22.8546 16.8462 22.7957 17.1795C22.7369 17.5128 22.61 17.8317 22.4225 18.1181C22.2349 18.4044 21.9903 18.6526 21.7027 18.8484V18.8642Z" stroke="#333333" stroke-width="0.6" stroke-linecap="round" stroke-linejoin="round"/>
<path d="M12.9046 12.1599L11.7188 10.582" stroke="#333333" stroke-width="0.6" stroke-linecap="round" stroke-linejoin="round"/>
<path d="M14.9386 10.7849L13.7363 9.20703" stroke="#333333" stroke-width="0.6" stroke-linecap="round" stroke-linejoin="round"/>
<path d="M20.3327 22.2088L19.1304 20.6309" stroke="#333333" stroke-width="0.6" stroke-linecap="round" stroke-linejoin="round"/>
<path d="M22.3615 20.8513L21.1592 19.2734" stroke="#333333" stroke-width="0.6" stroke-linecap="round" stroke-linejoin="round"/>
<path d="M4.9191 15.5332L1.57568 17.7265" stroke="#333333" stroke-width="0.6" stroke-linecap="round" stroke-linejoin="round"/>
<path d="M4.98805 12.0703L2.36279 14.0824" stroke="#333333" stroke-width="0.6" stroke-linecap="round" stroke-linejoin="round"/>
<path d="M6.0596 19.6172L2.51855 21.984" stroke="#333333" stroke-width="0.6" stroke-linecap="round" stroke-linejoin="round"/>
<path d="M8.333 22.8691L4.72607 25.5989" stroke="#333333" stroke-width="0.6" stroke-linecap="round" stroke-linejoin="round"/>
<path d="M11.8606 25.6523L8.40186 28.6188" stroke="#333333" stroke-width="0.6" stroke-linecap="round" stroke-linejoin="round"/>
<path d="M17.1604 27.3359L13.6523 30.3182" stroke="#333333" stroke-width="0.6" stroke-linecap="round" stroke-linejoin="round"/>
</svg>
