<svg width="25" height="24" viewBox="0 0 25 24" fill="none" xmlns="http://www.w3.org/2000/svg">
<g clip-path="url(#clip0_58308_19958)">
<path fill-rule="evenodd" clip-rule="evenodd" d="M12.332 22C17.8549 22 22.332 17.5228 22.332 12C22.332 6.47715 17.8549 2 12.332 2C6.80918 2 2.33203 6.47715 2.33203 12C2.33203 17.5228 6.80918 22 12.332 22ZM17.0971 10.5772C17.3106 9.12703 16.1719 8.33843 14.607 7.78524L15.0941 5.81789L13.8573 5.51115L13.3827 7.42824C13.3018 7.40773 13.2215 7.38704 13.1415 7.36643L13.141 7.36631L13.141 7.3663L13.141 7.3663C12.8968 7.30338 12.6552 7.24116 12.4083 7.18658L12.8828 5.26949L11.6116 4.95423L11.1371 6.87132L8.61375 6.24552L8.29007 7.55705C8.29007 7.55705 9.22493 7.76363 9.19158 7.78063C9.69266 7.91456 9.78633 8.23443 9.76612 8.4765L9.19993 10.7062L8.42414 13.8438C8.36031 13.992 8.20005 14.202 7.85734 14.1185C7.872 14.1331 6.94725 13.8814 6.94725 13.8814L6.38332 15.2595L8.83317 15.9204L8.34867 17.8776L9.5777 18.1824L10.0622 16.2252C10.2603 16.2812 10.4602 16.3281 10.6536 16.3735L10.6536 16.3735C10.7984 16.4075 10.9395 16.4406 11.0735 16.476L10.589 18.4332L11.8203 18.7386L12.3048 16.7814C14.4207 17.1986 16.0053 17.071 16.6611 15.2217C17.1885 13.7474 16.63 12.8842 15.5046 12.2958C16.3327 12.1347 16.9344 11.6326 17.0971 10.5772ZM11.408 10.82L11.3462 10.8018L11.9327 8.4495C12.0032 8.46766 12.0932 8.48808 12.1973 8.51171L12.1973 8.51172L12.1973 8.51172C13.0791 8.71186 14.9769 9.1426 14.6716 10.3817C14.3431 11.685 12.1482 11.0381 11.408 10.82ZM10.386 14.6382L10.4933 14.6694C11.4052 14.9357 13.9928 15.6913 14.303 14.3972C14.6252 13.1517 12.3028 12.6023 11.2631 12.3564C11.1491 12.3294 11.0505 12.3061 10.9725 12.2859L10.386 14.6382Z" fill="#031F2B"/>
</g>
<defs>
<clipPath id="clip0_58308_19958">
<rect width="24" height="24" fill="white" transform="translate(0.332031)"/>
</clipPath>
</defs>
</svg>
