<svg width="32" height="32" viewBox="0 0 32 32" fill="none" xmlns="http://www.w3.org/2000/svg">
<g clip-path="url(#clip0_87797_140852)">
<path d="M14.9127 16.5167C15.6195 16.5278 18.1655 16.3795 18.1471 17.6153C18.1497 18.8175 15.6127 18.6485 14.8971 18.6172L14.9127 16.5167Z" fill="#031F2B"/>
<path d="M14.9391 13.0899C15.5367 13.0985 17.6439 12.9238 17.6393 14.1592C17.6273 15.3572 15.5313 15.2193 14.9254 15.1905L14.9391 13.0899Z" fill="#031F2B"/>
<path fill-rule="evenodd" clip-rule="evenodd" d="M30.3034 0.292052C30.691 -0.0972492 31.3192 -0.0974523 31.7067 0.292052C32.0942 0.682014 32.0938 1.31495 31.7067 1.70514L29.4352 3.88971L30.1383 4.59576C30.5254 4.98558 30.5249 5.61801 30.1383 6.00787L25.9254 10.2471C25.5377 10.6364 24.9095 10.6369 24.5221 10.2471L23.8209 9.54108L22.7721 10.5948C23.538 11.5534 24.1129 12.6897 24.4205 13.961C25.546 18.6121 22.6879 23.2954 18.0368 24.421C15.3511 25.0708 12.6561 24.3905 10.6403 22.8057L9.58168 23.8731L10.2829 24.5792C10.6701 24.9693 10.6702 25.6012 10.2829 25.9913L6.07192 30.2286C5.6844 30.6184 5.05627 30.6182 4.66859 30.2286L3.96742 29.5225L1.69594 31.7081C1.3084 32.0977 0.68022 32.0976 0.292618 31.7081C-0.0949968 31.318 -0.0948738 30.6851 0.292618 30.295L2.5641 28.1104L1.86098 27.4044C1.47383 27.0144 1.47408 26.3821 1.86098 25.9922L6.07387 21.753C6.4616 21.3639 7.08985 21.3633 7.47719 21.753L8.17836 22.459L9.22621 21.4034C8.46021 20.4447 7.88549 19.3085 7.57777 18.0372C6.45228 13.3862 9.30971 8.70291 13.9606 7.57721C16.6467 6.9272 19.3421 7.60811 21.358 9.19342L22.4176 8.12701L21.7164 7.42096C21.329 7.03079 21.3289 6.3989 21.7164 6.00885L25.9274 1.77154C26.315 1.382 26.9432 1.38195 27.3307 1.77154L28.0319 2.4776L30.3034 0.292052ZM6.9059 23.9063C6.69776 23.6982 6.36031 23.6984 6.15199 23.9063L4.10317 25.9551C3.89489 26.1634 3.89489 26.5008 4.10317 26.709L5.32875 27.9346C5.53704 28.1428 5.87442 28.1429 6.08266 27.9346L8.13149 25.8868C8.33949 25.6785 8.33957 25.3401 8.13149 25.1319L6.9059 23.9063ZM13.9469 11.9229L11.695 11.9102L11.6901 13.0811C11.7196 13.0805 12.5145 13.0645 12.4938 13.085C12.9424 13.0958 13.0882 13.3469 13.1207 13.5547L13.0973 15.5479L13.0836 18.3477C13.06 18.4855 12.9676 18.6946 12.6627 18.6944C12.6571 18.7027 11.8615 18.6811 11.8473 18.6807L11.694 19.6895L11.9664 19.9639L13.8512 20.0137L13.8424 21.7598L14.9401 21.7667L14.9479 20.0196C15.2593 20.0315 15.5707 20.0196 15.8512 20.0255L15.8414 21.7715L16.9411 21.7784L16.9508 20.0313C18.8171 19.9514 20.1258 19.5203 20.3014 17.8301C20.4449 16.4816 19.7983 15.8679 18.7311 15.6016C19.3953 15.2973 19.7992 14.7507 19.7213 13.8292C19.6051 12.5653 18.4855 12.1323 17.0553 11.9854L17.0661 10.2296L15.9616 10.2237L15.9518 11.9346C15.659 11.9314 15.3724 11.924 15.0817 11.9297L15.0914 10.2188L13.9567 10.213L13.9469 11.9229ZM26.6823 4.00299C26.4741 3.79486 26.1357 3.79513 25.9274 4.00299L23.8024 6.12897C23.5941 6.33724 23.5941 6.67459 23.8024 6.88287L25.0817 8.16315C25.29 8.37143 25.6283 8.37143 25.8366 8.16315L27.9616 6.03815C28.1695 5.82984 28.1697 5.49142 27.9616 5.28326L26.6823 4.00299Z" fill="#031F2B"/>
</g>
<defs>
<clipPath id="clip0_87797_140852">
<rect width="32" height="32" fill="white"/>
</clipPath>
</defs>
</svg>
