<svg width="466" height="300" viewBox="0 0 466 300" fill="none" xmlns="http://www.w3.org/2000/svg">
<rect width="465" height="300" transform="translate(0.5)" fill="#D0E2FF"/>
<path d="M74.1172 277.991H149.229" stroke="#333333" stroke-width="0.6" stroke-linecap="round" stroke-linejoin="round"/>
<path d="M153.57 277.991H203.517" stroke="#333333" stroke-width="0.6" stroke-linecap="round" stroke-linejoin="round"/>
<path d="M207.938 277.991H393.623" stroke="#333333" stroke-width="0.6" stroke-linecap="round" stroke-linejoin="round"/>
<path d="M186.297 117.319V110.804H280.735V130.351C280.735 150.8 240.049 181.643 240.049 190.981C240.049 202.418 280.735 231.667 280.735 251.756V271.303H186.297V251.756C186.297 231.738 226.982 202.455 226.982 190.981C226.982 181.643 186.297 150.8 186.297 130.351V123.763" fill="#ABEDD8"/>
<path d="M186.297 117.319V110.804H280.735V130.351C280.735 150.8 240.049 181.643 240.049 190.981C240.049 202.418 280.735 231.667 280.735 251.756V271.303H186.297V251.756C186.297 231.738 226.982 202.455 226.982 190.981C226.982 181.643 186.297 150.8 186.297 130.351V123.763" stroke="#333333" stroke-width="0.6" stroke-linecap="round" stroke-linejoin="round"/>
<path d="M162.914 277.999H289.458" stroke="#333333" stroke-width="0.6" stroke-linecap="round" stroke-linejoin="round"/>
<path d="M273.889 104H284.676V112.576H182.383V104H266.83" fill="#ABEDD8"/>
<path d="M273.889 104H284.676V112.576H182.383V104H266.83" stroke="#333333" stroke-width="0.6" stroke-linecap="round" stroke-linejoin="round"/>
<path d="M284.639 269.421H182.383V278H284.639V269.421Z" fill="#ABEDD8" stroke="#333333" stroke-width="0.6" stroke-linecap="round" stroke-linejoin="round"/>
<path d="M216.703 155.58C213.409 155.58 211.563 159.416 213.627 161.95C221.299 171.615 233.572 185.767 233.572 185.767C233.572 185.767 245.841 171.652 253.516 161.95C255.58 159.345 253.731 155.58 250.437 155.58H216.703Z" fill="#46CDCF" stroke="#333333" stroke-width="0.6" stroke-linecap="round" stroke-linejoin="round"/>
<path d="M233.5 185.769V209.152" stroke="#333333" stroke-width="0.6" stroke-linecap="round" stroke-linejoin="round"/>
<path d="M233.5 215.125V225.946" stroke="#333333" stroke-width="0.6" stroke-linecap="round" stroke-linejoin="round"/>
<path d="M233.5 232.391V237.204" stroke="#333333" stroke-width="0.6" stroke-linecap="round" stroke-linejoin="round"/>
<path d="M405.792 277.954H308.758" stroke="#333333" stroke-width="0.6" stroke-linecap="round" stroke-linejoin="round"/>
<path d="M318.051 175.334C324.449 175.334 329.626 180.511 329.626 186.909V213.103C329.626 219.501 324.449 224.678 318.051 224.678C311.653 224.678 306.477 219.501 306.477 213.103V186.909C306.477 180.511 311.7 175.334 318.051 175.334Z" fill="#48466D" stroke="#333333" stroke-width="0.6" stroke-linecap="round" stroke-linejoin="round"/>
<path d="M312.25 196.903L318.051 202.751L323.923 196.903" stroke="#333333" stroke-width="0.6" stroke-linecap="round" stroke-linejoin="round"/>
<path d="M312.25 203.494L318.051 209.292L323.923 203.494" stroke="#333333" stroke-width="0.6" stroke-linecap="round" stroke-linejoin="round"/>
<path d="M318.047 277.954V196.903" stroke="#333333" stroke-width="0.6" stroke-linecap="round" stroke-linejoin="round"/>
<path d="M340.383 277.954V259.07" stroke="#333333" stroke-width="0.6" stroke-linecap="round" stroke-linejoin="round"/>
<path d="M340.383 265.517C335.647 265.517 331.805 261.675 331.805 256.935C331.805 252.198 335.647 248.356 340.383 248.356C345.12 248.356 348.962 252.198 348.962 256.935C348.962 261.675 345.12 265.517 340.383 265.517Z" fill="#3D84A8" stroke="#333333" stroke-width="0.6" stroke-linecap="round" stroke-linejoin="round"/>
<path d="M357.618 244.21C347.187 244.21 338.734 235.754 338.734 225.327C338.734 214.896 347.187 206.44 357.618 206.44C368.048 206.44 376.504 214.896 376.504 225.327C376.504 235.754 368.048 244.21 357.618 244.21Z" fill="#48466D" stroke="#333333" stroke-width="0.6" stroke-linecap="round" stroke-linejoin="round"/>
<path d="M357.609 277.953V225.566" stroke="#333333" stroke-width="0.6" stroke-linecap="round" stroke-linejoin="round"/>
<path d="M351.742 225.566L357.614 231.414L363.415 225.566" stroke="#333333" stroke-width="0.6" stroke-linecap="round" stroke-linejoin="round"/>
<path d="M351.742 232.132L357.614 237.958L363.415 232.132" stroke="#333333" stroke-width="0.6" stroke-linecap="round" stroke-linejoin="round"/>
<path d="M60 277.865H157.037" stroke="#333333" stroke-width="0.6" stroke-linecap="round" stroke-linejoin="round"/>
<path d="M147.731 175.245C141.33 175.245 136.156 180.422 136.156 186.82V213.015C136.156 219.413 141.33 224.589 147.731 224.589C154.129 224.589 159.306 219.413 159.306 213.015V186.82C159.306 180.422 154.08 175.245 147.731 175.245Z" fill="#48466D" stroke="#333333" stroke-width="0.6" stroke-linecap="round" stroke-linejoin="round"/>
<path d="M153.53 196.814L147.731 202.662L141.859 196.814" stroke="#333333" stroke-width="0.6" stroke-linecap="round" stroke-linejoin="round"/>
<path d="M153.53 203.405L147.731 209.203L141.859 203.405" stroke="#333333" stroke-width="0.6" stroke-linecap="round" stroke-linejoin="round"/>
<path d="M147.742 277.866V196.814" stroke="#333333" stroke-width="0.6" stroke-linecap="round" stroke-linejoin="round"/>
<path d="M125.398 277.866V258.982" stroke="#333333" stroke-width="0.6" stroke-linecap="round" stroke-linejoin="round"/>
<path d="M125.399 265.428C130.139 265.428 133.981 261.586 133.981 256.846C133.981 252.109 130.139 248.268 125.399 248.268C120.662 248.268 116.82 252.109 116.82 256.846C116.82 261.586 120.662 265.428 125.399 265.428Z" fill="#3D84A8" stroke="#333333" stroke-width="0.6" stroke-linecap="round" stroke-linejoin="round"/>
<path d="M108.164 244.121C118.595 244.121 127.051 235.665 127.051 225.238C127.051 214.807 118.595 206.352 108.164 206.352C97.737 206.352 89.2812 214.807 89.2812 225.238C89.2812 235.665 97.737 244.121 108.164 244.121Z" fill="#48466D" stroke="#333333" stroke-width="0.6" stroke-linecap="round" stroke-linejoin="round"/>
<path d="M108.172 277.864V225.478" stroke="#333333" stroke-width="0.6" stroke-linecap="round" stroke-linejoin="round"/>
<path d="M114.045 225.478L108.173 231.325L102.375 225.478" stroke="#333333" stroke-width="0.6" stroke-linecap="round" stroke-linejoin="round"/>
<path d="M114.045 232.043L108.173 237.869L102.375 232.043" stroke="#333333" stroke-width="0.6" stroke-linecap="round" stroke-linejoin="round"/>
</svg>
