<svg width="12" height="12" viewBox="0 0 12 12" fill="none" xmlns="http://www.w3.org/2000/svg">
<g clip-path="url(#clip0_58065_116565)">
<path d="M6 7.5C6.82843 7.5 7.5 6.82843 7.5 6C7.5 5.17157 6.82843 4.5 6 4.5C5.17157 4.5 4.5 5.17157 4.5 6C4.5 6.82843 5.17157 7.5 6 7.5Z" fill="#031F2B"/>
<path d="M10 2H8.415L7.795 1.325C7.61 1.12 7.34 1 7.06 1H4.94C4.66 1 4.39 1.12 4.2 1.325L3.585 2H2C1.45 2 1 2.45 1 3V9C1 9.55 1.45 10 2 10H10C10.55 10 11 9.55 11 9V3C11 2.45 10.55 2 10 2ZM6 8.5C4.62 8.5 3.5 7.38 3.5 6C3.5 4.62 4.62 3.5 6 3.5C7.38 3.5 8.5 4.62 8.5 6C8.5 7.38 7.38 8.5 6 8.5Z" fill="#031F2B"/>
</g>
<defs>
<clipPath id="clip0_58065_116565">
<rect width="12" height="12" fill="white"/>
</clipPath>
</defs>
</svg>
