<svg width="24" height="24" viewBox="0 0 24 24" fill="none" xmlns="http://www.w3.org/2000/svg">
<path d="M17.0306 12.5306L9.53063 20.0306C9.42573 20.1356 9.29204 20.2071 9.14648 20.2361C9.00092 20.2651 8.85002 20.2503 8.71291 20.1934C8.57579 20.1366 8.45861 20.0404 8.37621 19.917C8.29381 19.7935 8.24988 19.6484 8.25 19.5V4.49998C8.24988 4.35156 8.29381 4.20644 8.37621 4.08299C8.45861 3.95955 8.57579 3.86333 8.71291 3.80651C8.85002 3.7497 9.00092 3.73485 9.14648 3.76383C9.29204 3.79282 9.42573 3.86435 9.53063 3.96936L17.0306 11.4694C17.1004 11.539 17.1557 11.6217 17.1934 11.7128C17.2312 11.8038 17.2506 11.9014 17.2506 12C17.2506 12.0985 17.2312 12.1961 17.1934 12.2872C17.1557 12.3782 17.1004 12.461 17.0306 12.5306Z" fill="#DEDEDE"/>
</svg>
