<svg width="24" height="24" viewBox="0 0 24 24" fill="none" xmlns="http://www.w3.org/2000/svg">
<path d="M2 17H22V19H2V17ZM3.15 12.95L4 11.47L4.85 12.95L6.15 12.2L5.3 10.72H7V9.22H5.3L6.15 7.75L4.85 7L4 8.47L3.15 7L1.85 7.75L2.7 9.22H1V10.72H2.7L1.85 12.2L3.15 12.95ZM9.85 12.2L11.15 12.95L12 11.47L12.85 12.95L14.15 12.2L13.3 10.72H15V9.22H13.3L14.15 7.75L12.85 7L12 8.47L11.15 7L9.85 7.75L10.7 9.22H9V10.72H10.7L9.85 12.2ZM23 9.22H21.3L22.15 7.75L20.85 7L20 8.47L19.15 7L17.85 7.75L18.7 9.22H17V10.72H18.7L17.85 12.2L19.15 12.95L20 11.47L20.85 12.95L22.15 12.2L21.3 10.72H23V9.22Z" fill="#031F2B"/>
</svg>
