<svg width="600" height="280" viewBox="0 0 600 280" fill="none" xmlns="http://www.w3.org/2000/svg">
<path d="M351.329 79.4535H238.522C231.873 79.4535 226.535 74.0081 226.535 67.3414C226.535 60.6235 231.924 55.2294 238.522 55.2294H274.077C282.134 55.2294 288.63 48.6649 288.63 40.5242" stroke="#333333" stroke-width="0.6" stroke-linecap="round" stroke-linejoin="round"/>
<path d="M167.311 232.577H135.48C120.573 232.577 108.438 220.363 108.438 205.249C108.438 190.185 120.525 177.923 135.48 177.923H420.127C447.069 177.923 468.874 155.838 468.874 128.663C468.874 101.436 447.018 79.4023 420.127 79.4023H360.045" stroke="#333333" stroke-width="0.6" stroke-linecap="round" stroke-linejoin="round"/>
<path d="M491.547 155.167H353.086V247.586H491.547V155.167Z" fill="#ABEDD8" stroke="#333333" stroke-width="0.6" stroke-linecap="round" stroke-linejoin="round"/>
<path d="M363.914 164.583H381.147" stroke="#333333" stroke-width="0.6" stroke-linecap="round" stroke-linejoin="round"/>
<path d="M378.961 170.47H381.144" stroke="#333333" stroke-width="0.6" stroke-linecap="round" stroke-linejoin="round"/>
<path d="M363.914 170.47H376.777" stroke="#333333" stroke-width="0.6" stroke-linecap="round" stroke-linejoin="round"/>
<path d="M363.914 176.356H372.603" stroke="#333333" stroke-width="0.6" stroke-linecap="round" stroke-linejoin="round"/>
<path d="M453.061 195.001V220.892H447.053V230.915L437.031 220.892H408.334H393.25V203.826V193.318V181.924H438.276H453.061V191.386" fill="#46CDCF"/>
<path d="M453.061 195.001V220.892H447.053V230.915L437.031 220.892H408.334H393.25V203.826V193.318V181.924H438.276H453.061V191.386" stroke="#333333" stroke-width="0.6" stroke-linecap="round" stroke-linejoin="round"/>
<path d="M412.973 201.396H417.31" stroke="#333333" stroke-width="0.6" stroke-linecap="round" stroke-linejoin="round"/>
<path d="M420.973 201.396H425.897" stroke="#333333" stroke-width="0.6" stroke-linecap="round" stroke-linejoin="round"/>
<path d="M429.613 201.396H433.366" stroke="#333333" stroke-width="0.6" stroke-linecap="round" stroke-linejoin="round"/>
<path d="M367.552 99.7924H480.012C485.211 99.7924 489.369 95.5078 489.369 90.3375C489.369 85.084 485.128 80.8825 480.012 80.8825H462.085V77.4772C462.085 64.8696 451.896 54.5737 439.419 54.5737H424.198H426.609C432.226 54.5737 436.799 49.9533 436.799 44.2778C436.799 38.6055 432.226 33.9819 426.609 33.9819H381.694C369.84 33.9819 360.151 43.6895 360.151 55.7503V62.8104H328.665C318.561 62.8104 310.324 71.0503 310.324 81.3461C310.324 91.5557 318.476 99.8787 328.665 99.8787L367.552 99.7924Z" fill="#46CDCF" stroke="#333333" stroke-width="0.6" stroke-linecap="round" stroke-linejoin="round"/>
<path d="M462.133 80.7578H451.652" stroke="#333333" stroke-width="0.6" stroke-linecap="round" stroke-linejoin="round"/>
<path d="M447.573 80.7578H436.969" stroke="#333333" stroke-width="0.6" stroke-linecap="round" stroke-linejoin="round"/>
<path d="M117.317 139.032H106.707V56.2302L110.761 49.4995H251L253.377 56.2302V139.032H125.143" fill="#ABEDD8"/>
<path d="M117.317 139.032H106.707V56.2302L110.761 49.4995H251L253.377 56.2302V139.032H125.143" stroke="#333333" stroke-width="0.6" stroke-linecap="round" stroke-linejoin="round"/>
<path d="M106.707 38.7207H253.377V56.2301H106.707V38.7207Z" fill="#78C7E0" stroke="#333333" stroke-width="0.6" stroke-linecap="round" stroke-linejoin="round"/>
<path d="M106.707 38.7207H125.143V56.2301H106.707V38.7207Z" fill="#78C7E0" stroke="#333333" stroke-width="0.6" stroke-linecap="round" stroke-linejoin="round"/>
<path d="M125.148 38.7207H143.584V56.2301H125.148V38.7207Z" fill="#78C7E0" stroke="#333333" stroke-width="0.6" stroke-linecap="round" stroke-linejoin="round"/>
<path d="M119.78 43.8174L112.078 51.1332" stroke="#333333" stroke-width="0.6" stroke-linecap="round" stroke-linejoin="round"/>
<path d="M119.78 51.1332L112.078 43.8174" stroke="#333333" stroke-width="0.6" stroke-linecap="round" stroke-linejoin="round"/>
<path d="M139.111 47.4753H129.605" stroke="#333333" stroke-width="0.6" stroke-linecap="round" stroke-linejoin="round"/>
<path d="M246.003 63.2358H231.051" stroke="#333333" stroke-width="0.6" stroke-linecap="round" stroke-linejoin="round"/>
<path d="M240.022 67.8657H231.051" stroke="#333333" stroke-width="0.6" stroke-linecap="round" stroke-linejoin="round"/>
<path d="M246.006 67.8657H242.852" stroke="#333333" stroke-width="0.6" stroke-linecap="round" stroke-linejoin="round"/>
<path d="M246.003 72.4956H231.051" stroke="#333333" stroke-width="0.6" stroke-linecap="round" stroke-linejoin="round"/>
<path d="M246.003 77.1257H231.051" stroke="#333333" stroke-width="0.6" stroke-linecap="round" stroke-linejoin="round"/>
<path d="M186.903 160.391H243.84C254.425 160.391 262.722 169.063 262.722 179.47C262.722 190.022 254.14 198.553 243.84 198.553H154.287C143.699 198.553 135.402 189.878 135.402 179.47C135.402 168.775 143.987 160.391 154.287 160.391H172.597" fill="#46CDCF"/>
<path d="M186.903 160.391H243.84C254.425 160.391 262.722 169.063 262.722 179.47C262.722 190.022 254.14 198.553 243.84 198.553H154.287C143.699 198.553 135.402 189.878 135.402 179.47C135.402 168.775 143.987 160.391 154.287 160.391H172.597" stroke="#333333" stroke-width="0.6" stroke-linecap="round" stroke-linejoin="round"/>
<path d="M196.044 211.129C200.193 215.746 202.759 221.872 202.759 228.609C202.759 242.934 191.285 254.525 177.108 254.525C162.932 254.525 151.461 242.934 151.461 228.609C151.461 214.285 162.932 202.694 177.108 202.694C182.194 202.694 186.95 204.2 190.959 206.793" fill="#78C7E0"/>
<path fill-rule="evenodd" clip-rule="evenodd" d="M173.946 211.662C174.165 211.662 174.342 211.839 174.342 212.058V216.248H178.999V212.058C178.999 211.839 179.176 211.662 179.394 211.662C179.613 211.662 179.79 211.839 179.79 212.058V216.248H180.849C184.36 216.248 187.18 219.072 187.18 222.582C187.18 225.34 185.439 227.672 182.991 228.545C185.439 229.418 187.18 231.75 187.18 234.507C187.18 237.96 184.362 240.838 180.849 240.838H179.79V244.977C179.79 245.195 179.613 245.372 179.394 245.372C179.176 245.372 178.999 245.195 178.999 244.977V240.838H174.342V244.977C174.342 245.195 174.165 245.372 173.946 245.372C173.728 245.372 173.551 245.195 173.551 244.977V240.838H168.325C168.107 240.838 167.93 240.661 167.93 240.442V228.572L167.93 228.562C167.93 228.557 167.93 228.551 167.931 228.545C167.93 228.536 167.93 228.526 167.93 228.517V216.643C167.93 216.425 168.107 216.248 168.325 216.248H173.551V212.058C173.551 211.839 173.728 211.662 173.946 211.662ZM179.394 217.039H173.946L168.721 217.039V228.121H180.849C183.923 228.121 186.389 225.656 186.389 222.582C186.389 219.508 183.922 217.039 180.849 217.039L179.394 217.039ZM168.721 240.047V228.968H180.849C183.923 228.968 186.389 231.434 186.389 234.507C186.389 237.528 183.92 240.047 180.849 240.047H168.721Z" fill="#333333"/>
<path d="M196.044 211.129C200.193 215.746 202.759 221.872 202.759 228.609C202.759 242.934 191.285 254.525 177.108 254.525C162.932 254.525 151.461 242.934 151.461 228.609C151.461 214.285 162.932 202.694 177.108 202.694C182.194 202.694 186.95 204.2 190.959 206.793" stroke="#333333" stroke-width="0.6" stroke-linecap="round" stroke-linejoin="round"/>
<path d="M190.248 78.5933C184.286 78.5933 179.464 75.3766 179.464 71.3926C179.464 75.3766 174.641 78.5933 168.676 78.5933C166.395 78.5933 164.281 78.1393 162.547 77.2983V103.367C162.547 113.26 179.464 123.412 179.464 123.412C179.464 123.412 196.377 113.26 196.377 103.367V77.2983C194.643 78.1393 192.529 78.5933 190.248 78.5933Z" fill="#46CDCF" stroke="#333333" stroke-width="0.6" stroke-linecap="round" stroke-linejoin="round"/>
<path d="M183.19 92.6845C183.19 90.5965 181.481 88.8699 179.415 88.8699C177.345 88.8699 175.637 90.5965 175.637 92.6845C175.637 94.1009 176.421 95.3735 177.539 96.0002L175.922 103.681H182.883L181.266 96.0002C182.456 95.3256 183.19 94.1009 183.19 92.6845Z" fill="#48466D" stroke="#333333" stroke-width="0.6" stroke-linecap="round" stroke-linejoin="round"/>
<path d="M356.402 123.419H326.265L348.183 29.7375H277.203L261.762 156.099H291.896L276.207 250.146L356.402 123.419Z" fill="#48466D" stroke="#333333" stroke-width="0.6" stroke-linecap="round" stroke-linejoin="round"/>
<path d="M439.576 144.378L439.513 119.447L389.715 119.188L439.576 144.378Z" fill="#3D84A8" stroke="#333333" stroke-width="0.6" stroke-linecap="round" stroke-linejoin="round"/>
<path d="M447.585 125.583L444.807 119.447L420.134 117.686L389.715 119.188L454.56 140.854L449.522 129.759" fill="#78C7E0"/>
<path d="M447.585 125.583L444.807 119.447L420.134 117.686L389.715 119.188L454.56 140.854L449.522 129.759" stroke="#333333" stroke-width="0.6" stroke-linecap="round" stroke-linejoin="round"/>
<path d="M454.56 112.464L444.807 119.447L389.715 119.188L454.56 112.464Z" fill="#78C7E0" stroke="#333333" stroke-width="0.6" stroke-linecap="round" stroke-linejoin="round"/>
</svg>
