<svg width="24" height="24" viewBox="0 0 24 24" fill="none" xmlns="http://www.w3.org/2000/svg">
<path d="M13.9101 6.71005C13.8176 6.61735 13.7077 6.5438 13.5867 6.49362C13.4658 6.44344 13.3361 6.41761 13.2051 6.41761C13.0742 6.41761 12.9445 6.44344 12.8235 6.49362C12.7025 6.5438 12.5926 6.61735 12.5001 6.71005L7.91012 11.3001C7.81742 11.3926 7.74387 11.5025 7.69369 11.6234C7.64351 11.7444 7.61768 11.8741 7.61768 12.0051C7.61768 12.136 7.64351 12.2657 7.69369 12.3867C7.74387 12.5077 7.81742 12.6175 7.91012 12.7101L12.5001 17.3001C12.5927 17.3926 12.7026 17.4661 12.8236 17.5162C12.9445 17.5663 13.0742 17.5921 13.2051 17.5921C13.3361 17.5921 13.4657 17.5663 13.5867 17.5162C13.7076 17.4661 13.8175 17.3926 13.9101 17.3001C14.0027 17.2075 14.0761 17.0976 14.1262 16.9766C14.1764 16.8556 14.2021 16.726 14.2021 16.5951C14.2021 16.4641 14.1764 16.3345 14.1262 16.2135C14.0761 16.0925 14.0027 15.9826 13.9101 15.8901L10.0301 12.0001L13.9101 8.12005C14.2901 7.73005 14.2901 7.09005 13.9101 6.71005V6.71005Z" fill="#031F2B"/>
</svg>
