<svg width="25" height="25" viewBox="0 0 25 25" fill="none" xmlns="http://www.w3.org/2000/svg">
<mask id="mask0_47402_88736" style="mask-type:alpha" maskUnits="userSpaceOnUse" x="0" y="0" width="25" height="25">
<rect x="0.496094" y="0.90625" width="24" height="24" fill="#D9D9D9"/>
</mask>
<g mask="url(#mask0_47402_88736)">
<path d="M9.1959 18.2061C9.01257 18.0227 8.9209 17.7894 8.9209 17.5061C8.9209 17.2227 9.01257 16.9894 9.1959 16.8061L13.0959 12.9061L9.1959 9.00605C9.01257 8.82272 8.9209 8.58939 8.9209 8.30605C8.9209 8.02272 9.01257 7.78939 9.1959 7.60605C9.37923 7.42272 9.61257 7.33105 9.8959 7.33105C10.1792 7.33105 10.4126 7.42272 10.5959 7.60605L15.1959 12.2061C15.2959 12.3061 15.3667 12.4144 15.4084 12.5311C15.4501 12.6477 15.4709 12.7727 15.4709 12.9061C15.4709 13.0394 15.4501 13.1644 15.4084 13.2811C15.3667 13.3977 15.2959 13.5061 15.1959 13.6061L10.5959 18.2061C10.4126 18.3894 10.1792 18.4811 9.8959 18.4811C9.61257 18.4811 9.37923 18.3894 9.1959 18.2061Z" fill="#1C1B1F"/>
</g>
</svg>
