<svg width="96" height="96" viewBox="0 0 96 96" fill="none" xmlns="http://www.w3.org/2000/svg">
<circle cx="48" cy="48" r="48" fill="#D0E2FF"/>
<path d="M9 53.1676V52.1914H85V57.6822H9V53.7329" fill="#3D84A8"/>
<path d="M9 53.1676V52.1914H85V57.6822H9V53.7329" stroke="#333333" stroke-width="0.5" stroke-linecap="round" stroke-linejoin="round"/>
<path d="M67.3041 54.1066H53.6699C53.6699 52.6344 54.8541 51.4502 56.3263 51.4502H64.6477C66.1199 51.4502 67.3041 52.6344 67.3041 54.1066Z" fill="#ABEDD8" stroke="#333333" stroke-width="0.5" stroke-linecap="round" stroke-linejoin="round"/>
<path d="M50.6708 23.1162H78.9313V43.1407H42.0508V23.1162H46.5635" fill="#ABEDD8"/>
<path d="M50.6708 23.1162H78.9313V43.1407H42.0508V23.1162H46.5635" stroke="#333333" stroke-width="0.5" stroke-linecap="round" stroke-linejoin="round"/>
<path d="M60.4785 42.4463V51.4504" stroke="#333333" stroke-linecap="round" stroke-linejoin="round"/>
<path d="M76.2538 41.5964C76.6549 41.5964 76.9792 41.2721 76.9792 40.871C76.9792 40.4709 76.6549 40.1455 76.2538 40.1455C75.8526 40.1455 75.5283 40.4709 75.5283 40.871C75.5283 41.2721 75.8526 41.5964 76.2538 41.5964Z" fill="#46CDCF" stroke="#333333" stroke-width="0.5" stroke-linecap="round" stroke-linejoin="round"/>
<path d="M55.3103 25.5208H55.0602C51.1231 25.5208 47.9531 28.7076 47.9531 32.6288V40.8038C47.9531 42.105 48.9873 43.1391 50.2884 43.1391H70.643C71.961 43.1391 73.0289 42.0712 73.0289 40.7701V32.5782C73.0289 28.6739 69.8589 25.5049 65.9546 25.5049H65.6548" fill="white"/>
<path d="M55.3103 25.5208H55.0602C51.1231 25.5208 47.9531 28.7076 47.9531 32.6288V40.8038C47.9531 42.105 48.9873 43.1391 50.2884 43.1391H70.643C71.961 43.1391 73.0289 42.0712 73.0289 40.7701V32.5782C73.0289 28.6739 69.8589 25.5049 65.9546 25.5049H65.6548" stroke="#333333" stroke-width="0.5" stroke-linecap="round" stroke-linejoin="round"/>
<path d="M52.8916 31.2441V37.8847H68.0903V31.2441" stroke="#333333" stroke-width="0.5" stroke-linecap="round" stroke-linejoin="round"/>
<path d="M64.3703 26.3214L64.5877 24.52L60.3161 24.0029L56.0783 24.4694L56.4623 26.3045C56.4623 26.9556 56.0455 27.5064 55.4609 27.7059C56.0623 29.9419 58.1138 31.5606 60.5166 31.5606C62.9193 31.5606 64.938 29.9588 65.5553 27.7396C64.8715 27.6225 64.3703 27.0221 64.3703 26.3214Z" fill="white" stroke="#333333" stroke-width="0.5" stroke-linecap="round" stroke-linejoin="round"/>
<path d="M65.4883 24.7518C63.9193 19.9135 57.0623 19.9135 55.511 24.7518C55.1944 25.6857 55.1775 26.7705 55.4445 27.7044C56.0281 27.5049 56.445 26.9541 56.445 26.303V24.7349H64.3698V26.303C64.3698 27.0037 64.871 27.621 65.538 27.7718C65.8049 26.8042 65.7881 25.6857 65.4883 24.7518Z" fill="#48466D" stroke="#333333" stroke-width="0.5" stroke-linecap="round" stroke-linejoin="round"/>
<path d="M54.1733 28.5598H53.6157C52.753 28.5598 52.0527 27.8574 52.0527 26.9968V23.4253C52.0527 22.5648 52.753 21.8623 53.6157 21.8623H54.1733C54.7155 21.8623 55.1611 22.3079 55.1611 22.8501V27.5873C55.1457 28.112 54.7155 28.5598 54.1733 28.5598Z" fill="#3D84A8" stroke="#333333" stroke-width="0.5" stroke-linecap="round" stroke-linejoin="round"/>
<path d="M66.6421 28.5598H67.1997C68.0624 28.5598 68.7627 27.8574 68.7627 26.9968V23.4253C68.7627 22.5648 68.0624 21.8623 67.1997 21.8623H66.6421C66.0999 21.8623 65.6543 22.3079 65.6543 22.8501V27.5873C65.6543 28.112 66.0999 28.5598 66.6421 28.5598Z" fill="#3D84A8" stroke="#333333" stroke-width="0.5" stroke-linecap="round" stroke-linejoin="round"/>
<path d="M53.2139 22.8711V21.5868C53.2139 19.6897 55.0491 18.1533 57.3123 18.1533H62.719C64.9823 18.1533 66.8153 19.6897 66.8153 21.5868V22.8711" stroke="#333333" stroke-width="0.5" stroke-linecap="round" stroke-linejoin="round"/>
<path d="M59.4141 26.4873V28.7402" stroke="#333333" stroke-width="0.5" stroke-linecap="round" stroke-linejoin="round"/>
<path d="M60.8314 28.7412C60.8314 29.1412 60.5147 29.4419 60.1147 29.4419C59.7138 29.4419 59.4141 29.1243 59.4141 28.7412" stroke="#333333" stroke-width="0.5" stroke-linecap="round" stroke-linejoin="round"/>
<path d="M60.1133 37.8818V43.137" stroke="#333333" stroke-width="0.5" stroke-linecap="round" stroke-linejoin="round"/>
<path d="M31.6015 42.3359H11.9551L20.6227 64.927H40.2576L31.6015 42.3359Z" fill="#46CDCF" stroke="#333333" stroke-width="0.5" stroke-linecap="round" stroke-linejoin="round"/>
<path d="M20.208 63.7793H42.355C42.9861 63.7793 43.4979 64.2934 43.4979 64.928C43.4979 65.5626 42.9861 66.0767 42.355 66.0767H20.208V63.7793Z" fill="#46CDCF" stroke="#333333" stroke-width="0.5" stroke-linecap="round" stroke-linejoin="round"/>
<path d="M22.9551 66.0859L20.4189 82.0004" stroke="#333333" stroke-linecap="round" stroke-linejoin="round"/>
<path d="M40.7549 66.0859L43.291 82.0004" stroke="#333333" stroke-width="0.5" stroke-linecap="round" stroke-linejoin="round"/>
<path d="M19.6787 42.5176H37.7931V55.1018H19.6787V42.5176Z" fill="white" stroke="#333333" stroke-width="0.5" stroke-linecap="round" stroke-linejoin="round"/>
<path d="M29.0898 53.3594H40.7491H42.6128C47.0355 53.3594 50.6171 56.9409 50.6171 61.3648V63.2273V81.943H40.7491V63.6485H29.0898V53.3594Z" fill="#48466D" stroke="#333333" stroke-width="0.5" stroke-linecap="round" stroke-linejoin="round"/>
<path d="M19.6787 53.3594H31.3392H33.1053C37.0116 53.3594 40.3178 56.2558 40.8342 60.1381L43.7077 81.943H33.8386L31.3392 63.6359H26.9038C22.9126 63.6359 19.6787 59.982 19.6787 55.9919V53.3594Z" fill="#48466D" stroke="#333333" stroke-width="0.5" stroke-linecap="round" stroke-linejoin="round"/>
<path d="M34.6413 31.7344H27.3095C23.5834 31.7344 20.3851 34.4036 19.7241 38.0816L18.1381 46.9156C17.6332 49.7283 19.1354 52.5295 21.7553 53.6713L36.3363 60.0174L39.1972 53.3225V51.1593C40.471 52.4331 42.4425 52.6856 43.9929 51.7606L54.5941 45.4019L50.9047 38.6588L41.9135 44.0317L39.6057 35.5214C38.9929 33.2847 36.9617 31.7344 34.6413 31.7344Z" fill="white" stroke="#333333" stroke-width="0.5" stroke-linecap="round" stroke-linejoin="round"/>
<path d="M34.3379 39.5781H36.3817" stroke="#333333" stroke-width="0.5" stroke-linecap="round" stroke-linejoin="round"/>
<path d="M32.2456 38.2317H30.9375L30.1191 36.541H33.1188L32.2456 38.2317Z" fill="#78C7E0" stroke="#333333" stroke-width="0.5" stroke-linecap="round" stroke-linejoin="round"/>
<path d="M32.2452 38.2334H30.937L29.5186 43.8227L31.5637 45.7865L33.6088 43.8227L32.2452 38.2334Z" fill="#78C7E0" stroke="#333333" stroke-width="0.5" stroke-linecap="round" stroke-linejoin="round"/>
<path d="M35.2454 27.6348C35.2454 27.6348 31.2186 24.954 27.6359 27.9343C26.8911 28.5482 25.4004 30.4589 26.3621 33.1029C27.3961 34.8702 29.4032 35.9397 31.5675 35.6517C35.3533 35.1467 37.3363 30.8434 35.2454 27.6348Z" fill="white" stroke="#333333" stroke-width="0.5" stroke-linecap="round" stroke-linejoin="round"/>
<path d="M33.5117 29.9531L33.7045 31.4197" stroke="#333333" stroke-width="0.5" stroke-linecap="round" stroke-linejoin="round"/>
<path d="M32.3223 31.603C32.3705 31.9875 32.7319 32.2525 33.1038 32.2043C33.4882 32.1561 33.7533 31.7958 33.7051 31.4229" stroke="#333333" stroke-width="0.5" stroke-linecap="round" stroke-linejoin="round"/>
<path d="M30.1819 25.3036C27.3336 25.6754 25.3139 28.2964 25.6983 31.1688C25.7821 31.8298 25.999 32.4908 26.3593 33.1036C27.6216 32.9361 28.511 31.7816 28.3423 30.5193L28.0898 28.5845L35.2541 27.6354C34.1731 26.0001 32.2372 25.027 30.1819 25.3036Z" fill="#48466D" stroke="#333333" stroke-width="0.5" stroke-linecap="round" stroke-linejoin="round"/>
<path d="M39.1969 53.3339L25.2539 47.3711" stroke="#333333" stroke-width="0.5" stroke-linecap="round" stroke-linejoin="round"/>
<path d="M25.2539 47.3703C27.0085 47.3703 28.4269 45.9519 28.4269 44.1973" stroke="#333333" stroke-width="0.5" stroke-linecap="round" stroke-linejoin="round"/>
<path d="M39.1982 43.7558V42.5176" stroke="#333333" stroke-width="0.5" stroke-linecap="round" stroke-linejoin="round"/>
<path d="M39.1982 51.156V44.7617" stroke="#333333" stroke-width="0.5" stroke-linecap="round" stroke-linejoin="round"/>
<path d="M55.8362 81.9995C62.1278 81.9995 67.2301 76.8957 67.2301 70.6023C67.2301 64.3075 62.1278 59.2051 55.8362 59.2051C49.5433 59.2051 44.4424 64.3075 44.4424 70.6023C44.4424 76.8957 49.5433 81.9995 55.8362 81.9995Z" fill="#3D84A8" stroke="#333333" stroke-width="0.3" stroke-linecap="round" stroke-linejoin="round"/>
<path d="M58.945 65.3064C57.1807 65.3064 55.7525 64.3579 55.7525 63.2012C55.7525 64.3664 54.3255 65.3064 52.5612 65.3064C51.8843 65.3064 51.2584 65.1676 50.7422 64.9289V72.5594C50.7422 75.4512 55.7525 78.4269 55.7525 78.4269C55.7525 78.4269 60.764 75.4512 60.764 72.5594V64.9289C60.2478 65.159 59.622 65.3064 58.945 65.3064Z" fill="#ABEDD8" stroke="#333333" stroke-width="0.3" stroke-linecap="round" stroke-linejoin="round"/>
<path fill-rule="evenodd" clip-rule="evenodd" d="M58.1657 69.1452C58.2132 69.1928 58.2131 69.2699 58.1655 69.3173L54.9876 72.4867C54.9647 72.5095 54.9336 72.5223 54.9013 72.5222C54.8689 72.5221 54.8379 72.5091 54.8151 72.4861L53.3419 70.9983C53.2946 70.9505 53.2949 70.8734 53.3427 70.8261C53.3905 70.7788 53.4676 70.7791 53.5149 70.8269L54.9022 72.228L57.9935 69.1449C58.0412 69.0974 58.1182 69.0975 58.1657 69.1452Z" fill="#333333" stroke="black" stroke-width="0.3" stroke-linecap="round" stroke-linejoin="round"/>
<path d="M68.9068 81.1358C71.9344 81.1358 74.3894 78.6814 74.3894 75.6538C74.3894 72.6256 71.9344 70.1719 68.9068 70.1719C65.8792 70.1719 63.4248 72.6256 63.4248 75.6538C63.4248 78.6814 65.8792 81.1358 68.9068 81.1358Z" fill="#78C7E0"/>
<path d="M69.5191 75.5951L67.2297 76.2085L66.6484 74.0391L68.9378 73.4256C69.5396 73.2644 70.1524 73.6185 70.3136 74.22C70.4747 74.8215 70.1209 75.4338 69.5191 75.5951Z" stroke="#333333" stroke-width="0.5" stroke-linecap="round" stroke-linejoin="round"/>
<path d="M70.098 77.7731L67.8087 78.3865L67.2275 76.2178L69.5169 75.6043C70.1187 75.4431 70.7313 75.7965 70.8925 76.398C71.0509 76.9893 70.6999 77.6118 70.098 77.7731Z" stroke="#333333" stroke-width="0.5" stroke-linecap="round" stroke-linejoin="round"/>
<path d="M67.6757 73.7636L67.4512 72.9258" stroke="#333333" stroke-width="0.5" stroke-linecap="round" stroke-linejoin="round"/>
<path d="M68.6737 73.4961L68.4492 72.6582" stroke="#333333" stroke-width="0.5" stroke-linecap="round" stroke-linejoin="round"/>
<path d="M69.0609 78.9408L68.8389 78.1123" stroke="#333333" stroke-width="0.5" stroke-linecap="round" stroke-linejoin="round"/>
<path d="M70.0589 78.6732L69.8369 77.8447" stroke="#333333" stroke-width="0.5" stroke-linecap="round" stroke-linejoin="round"/>
<path d="M74.1138 77.3697C74.0791 77.4776 74.0399 77.5854 73.9955 77.6933C72.868 80.5026 69.6809 81.866 66.8709 80.7431C64.061 79.6202 62.6982 76.4279 63.8211 73.6179C64.9486 70.8086 68.1363 69.4452 70.9456 70.5681C72.4954 71.191 73.6033 72.4368 74.0987 73.8977" stroke="#333333" stroke-width="0.5" stroke-linecap="round" stroke-linejoin="round"/>
<path d="M74.3002 74.6816C74.4178 75.3392 74.4178 76.0255 74.2852 76.702" stroke="#333333" stroke-width="0.5" stroke-linecap="round" stroke-linejoin="round"/>
<path d="M69.0918 71.1455C69.5925 71.1651 70.0925 71.2684 70.5827 71.4645" stroke="#333333" stroke-width="0.5" stroke-linecap="round" stroke-linejoin="round"/>
<path d="M64.7178 73.9759C65.3498 72.402 66.7669 71.3771 68.3362 71.1758" stroke="#333333" stroke-width="0.5" stroke-linecap="round" stroke-linejoin="round"/>
</svg>
