<svg width="48" height="48" viewBox="0 0 48 48" fill="none" xmlns="http://www.w3.org/2000/svg">
<g clip-path="url(#clip0_996_50092)">
<path d="M24 45C35.598 45 45 35.598 45 24C45 12.402 35.598 3 24 3C12.402 3 3 12.402 3 24C3 35.598 12.402 45 24 45Z" stroke="#EAEAEA" stroke-width="6"/>
<path d="M32.4 43.4015C28.5147 44.9909 24.2394 45.4068 20.1148 44.5965C15.9902 43.7862 12.2015 41.7861 9.2278 38.8492C6.25411 35.9123 4.22901 32.1705 3.40857 28.0969C2.58813 24.0233 3.00921 19.8009 4.61856 15.9636C6.2279 12.1264 8.95324 8.84665 12.4499 6.53914C15.9466 4.23163 20.0576 3 24.263 3" stroke="#031F2B" stroke-width="6" stroke-linecap="round"/>
</g>
<defs>
<clipPath id="clip0_996_50092">
<rect width="48" height="48" fill="white"/>
</clipPath>
</defs>
</svg>
