<svg width="466" height="300" viewBox="0 0 466 300" fill="none" xmlns="http://www.w3.org/2000/svg">
<rect width="465" height="300" transform="translate(0.5)" fill="#D0E2FF"/>
<path d="M207.731 113.146H253.163L267.564 55.4668H193.336L207.731 113.146Z" fill="#ABEDD8" stroke="#333333" stroke-width="0.6" stroke-linecap="round" stroke-linejoin="round"/>
<path d="M187.123 154.854L168.379 192.978C150.629 229.24 177.066 271.573 217.534 271.573H243.35C283.813 271.573 310.254 229.24 292.5 192.978L253.278 113.018H207.852L191.836 145.695" fill="#ABEDD8"/>
<path d="M187.123 154.854L168.379 192.978C150.629 229.24 177.066 271.573 217.534 271.573H243.35C283.813 271.573 310.254 229.24 292.5 192.978L253.278 113.018H207.852L191.836 145.695" stroke="#333333" stroke-width="0.6" stroke-linecap="round" stroke-linejoin="round"/>
<path d="M201.148 113.146H259.735" stroke="#333333" stroke-width="0.6" stroke-linecap="round" stroke-linejoin="round"/>
<path d="M266.93 113.146H279.71" stroke="#333333" stroke-width="0.6" stroke-linecap="round" stroke-linejoin="round"/>
<path d="M95.2422 258.038H182.127V272.147H95.2422V258.038Z" fill="#78C7E0" stroke="#333333" stroke-width="0.6" stroke-linecap="round" stroke-linejoin="round"/>
<path d="M87.5391 243.354H174.424V257.463H87.5391V243.354Z" fill="#78C7E0" stroke="#333333" stroke-width="0.6" stroke-linecap="round" stroke-linejoin="round"/>
<path d="M100.578 229.243H187.468V243.357H100.578V229.243Z" fill="#78C7E0" stroke="#333333" stroke-width="0.6" stroke-linecap="round" stroke-linejoin="round"/>
<path d="M160.885 215.011H95.7188V229.243H182.608V215.011H169.572" fill="#78C7E0"/>
<path d="M160.885 215.011H95.7188V229.243H182.608V215.011H169.572" stroke="#333333" stroke-width="0.6" stroke-linecap="round" stroke-linejoin="round"/>
<path d="M252.283 216.82C264.145 204.965 264.145 185.742 252.283 173.886C240.416 162.034 221.182 162.034 209.319 173.886C197.456 185.742 197.456 204.965 209.319 216.82C221.182 228.684 240.416 228.684 252.283 216.82Z" fill="#78C7E0" stroke="#333333" stroke-width="0.6" stroke-linecap="round" stroke-linejoin="round"/>
<path d="M234.208 195.363H221.297V183.128H234.208C237.602 183.128 240.327 185.855 240.327 189.247C240.327 192.639 237.602 195.363 234.208 195.363Z" stroke="#333333" stroke-width="0.6" stroke-linecap="round" stroke-linejoin="round"/>
<path d="M234.208 207.652H221.297V195.421H234.208C237.602 195.421 240.327 198.144 240.327 201.536C240.327 204.871 237.602 207.652 234.208 207.652Z" stroke="#333333" stroke-width="0.6" stroke-linecap="round" stroke-linejoin="round"/>
<path d="M227.094 183.129V178.403" stroke="#333333" stroke-width="0.6" stroke-linecap="round" stroke-linejoin="round"/>
<path d="M232.711 183.129V178.403" stroke="#333333" stroke-width="0.6" stroke-linecap="round" stroke-linejoin="round"/>
<path d="M227.094 212.325V207.652" stroke="#333333" stroke-width="0.6" stroke-linecap="round" stroke-linejoin="round"/>
<path d="M232.711 212.325V207.652" stroke="#333333" stroke-width="0.6" stroke-linecap="round" stroke-linejoin="round"/>
<path d="M324.094 264.853C324.094 264.813 324.094 264.813 324.094 264.853L380.293 264.813C380.332 264.813 380.332 264.813 380.332 264.853V272.09C380.332 272.13 380.332 272.13 380.293 272.13H324.133C324.094 272.13 324.094 272.13 324.094 272.09V264.853Z" fill="#54C4C9" stroke="#333333" stroke-width="0.6" stroke-linecap="round" stroke-linejoin="round"/>
<path d="M328.453 257.544C328.453 257.504 328.453 257.504 328.453 257.544L362.439 254.151L380.289 257.504H384.652C384.692 257.504 384.692 257.504 384.692 257.544V264.781C384.692 264.815 384.692 264.815 384.652 264.815H328.492C328.453 264.815 328.453 264.815 328.453 264.781V257.544Z" fill="#54C4C9" stroke="#333333" stroke-width="0.6" stroke-linecap="round" stroke-linejoin="round"/>
<path d="M324.094 250.194C324.094 250.155 324.094 250.155 324.094 250.194L331.392 250.155L359.508 245.621L380.254 250.155L380.293 250.194V257.466C380.293 257.505 380.293 257.505 380.254 257.505H324.133C324.094 257.505 324.094 257.505 324.094 257.466V250.194Z" fill="#54C4C9" stroke="#333333" stroke-width="0.6" stroke-linecap="round" stroke-linejoin="round"/>
<path d="M331.383 242.876C331.383 242.837 331.383 242.837 331.383 242.876L357.164 239.182L382.502 242.837H387.582C387.621 242.837 387.621 242.837 387.621 242.876V250.114C387.621 250.153 387.621 250.153 387.582 250.153H331.422C331.383 250.153 331.383 250.153 331.383 250.114V242.876Z" fill="#54C4C9" stroke="#333333" stroke-width="0.6" stroke-linecap="round" stroke-linejoin="round"/>
<path d="M363.208 235.488H326.32C326.281 235.488 326.281 235.488 326.281 235.527V242.804C326.281 242.838 326.281 242.838 326.32 242.838H331.4H362.452H382.48C382.52 242.838 382.52 242.838 382.52 242.804V235.527C382.52 235.488 382.52 235.488 382.48 235.488H378.437" fill="#54C4C9"/>
<path d="M363.208 235.488H326.32C326.281 235.488 326.281 235.488 326.281 235.527V242.804C326.281 242.838 326.281 242.838 326.32 242.838H331.4H362.452H382.481C382.52 242.838 382.52 242.838 382.52 242.804V235.527C382.52 235.488 382.52 235.488 382.481 235.488H378.437" stroke="#333333" stroke-width="0.6" stroke-linecap="round" stroke-linejoin="round"/>
<path d="M375.499 235.488H366.336" stroke="#333333" stroke-width="0.6" stroke-linecap="round" stroke-linejoin="round"/>
<path d="M374.062 264.813V269.387" stroke="#333333" stroke-width="0.6" stroke-linecap="round" stroke-linejoin="round"/>
<path d="M360.516 264.813V269.387" stroke="#333333" stroke-width="0.6" stroke-linecap="round" stroke-linejoin="round"/>
<path d="M346.906 264.813V267.405" stroke="#333333" stroke-width="0.6" stroke-linecap="round" stroke-linejoin="round"/>
<path d="M342.43 247.715V244.938" stroke="#333333" stroke-width="0.6" stroke-linecap="round" stroke-linejoin="round"/>
<path d="M346.312 250.155V244.938" stroke="#333333" stroke-width="0.6" stroke-linecap="round" stroke-linejoin="round"/>
<path d="M339.922 207.872C344.783 207.872 348.726 204.088 348.726 199.42C348.726 194.746 344.783 190.962 339.922 190.962C335.06 190.962 331.117 194.746 331.117 199.42C331.117 204.088 335.06 207.872 339.922 207.872Z" fill="#3D84A8" stroke="#333333" stroke-width="0.6" stroke-linecap="round" stroke-linejoin="round"/>
<path d="M339.93 199.423V235.488" stroke="#333333" stroke-width="0.6" stroke-linecap="round" stroke-linejoin="round"/>
<path d="M350.836 220.447V235.488" stroke="#333333" stroke-width="0.6" stroke-linecap="round" stroke-linejoin="round"/>
<path d="M350.836 213.474V218.008" stroke="#333333" stroke-width="0.6" stroke-linecap="round" stroke-linejoin="round"/>
<path d="M329.419 173.141C329.419 173.102 329.419 173.141 329.419 173.141C329.419 173.102 329.374 173.102 329.374 173.102H313.831C307.284 173.102 302.008 178.167 301.969 184.454V184.487C301.969 184.487 301.969 184.487 302.008 184.487H317.556C324.143 184.487 329.374 179.421 329.419 173.141Z" fill="#78C7E0" stroke="#333333" stroke-width="0.6" stroke-linecap="round" stroke-linejoin="round"/>
<path d="M301.969 150.364V220.861" stroke="#333333" stroke-width="0.6" stroke-linecap="round" stroke-linejoin="round"/>
<path d="M274.516 186.777C274.516 186.738 274.516 186.777 274.516 186.777C274.516 186.738 274.555 186.738 274.555 186.738H290.103C296.645 186.738 301.921 191.804 301.96 198.085V198.124C301.96 198.124 301.96 198.124 301.921 198.124H286.373C279.831 198.124 274.555 193.058 274.516 186.777Z" fill="#78C7E0" stroke="#333333" stroke-width="0.6" stroke-linecap="round" stroke-linejoin="round"/>
<path d="M301.961 158.974C306.89 158.974 310.889 155.134 310.889 150.404C310.889 145.668 306.89 141.834 301.961 141.834C297.032 141.834 293.039 145.668 293.039 150.404C293.039 155.134 297.032 158.974 301.961 158.974Z" fill="#3D84A8" stroke="#333333" stroke-width="0.6" stroke-linecap="round" stroke-linejoin="round"/>
<path d="M277.055 264.852C277.055 264.813 277.055 264.813 277.055 264.852L283.641 264.813L305.731 260.587L333.254 264.813C333.254 264.813 333.299 264.813 333.299 264.852V272.09C333.299 272.129 333.299 272.129 333.254 272.129H277.094C277.055 272.129 277.055 272.129 277.055 272.09V264.852Z" fill="#78C7E0" stroke="#333333" stroke-width="0.6" stroke-linecap="round" stroke-linejoin="round"/>
<path d="M283.641 257.542C283.641 257.503 283.641 257.503 283.641 257.542L300.141 254.077L328.733 257.503H339.801C339.84 257.503 339.84 257.503 339.84 257.542V264.78C339.84 264.813 339.84 264.813 339.801 264.813H283.68C283.641 264.813 283.641 264.813 283.641 264.78V257.542Z" fill="#78C7E0" stroke="#333333" stroke-width="0.6" stroke-linecap="round" stroke-linejoin="round"/>
<path d="M281.977 257.501H328.699C328.738 257.501 328.738 257.501 328.738 257.462V250.191C328.738 250.152 328.738 250.152 328.699 250.152L294.551 246.608L277.059 250.152H272.539C272.5 250.152 272.5 250.152 272.5 250.191V257.462C272.5 257.501 272.5 257.501 272.539 257.501H279.837" fill="#78C7E0"/>
<path d="M281.977 257.501H328.699C328.738 257.501 328.738 257.501 328.738 257.462V250.191C328.738 250.152 328.738 250.152 328.699 250.152L294.551 246.608L277.059 250.152H272.539C272.5 250.152 272.5 250.152 272.5 250.191V257.462C272.5 257.501 272.5 257.501 272.539 257.501H279.837" stroke="#333333" stroke-width="0.6" stroke-linecap="round" stroke-linejoin="round"/>
<path d="M277.055 242.877C277.055 242.837 277.055 242.837 277.055 242.877L307.434 239.714L331.075 242.837H333.254C333.299 242.837 333.299 242.837 333.299 242.877V250.114C333.299 250.153 333.299 250.153 333.254 250.153H277.094C277.055 250.153 277.055 250.153 277.055 250.114V242.877Z" fill="#78C7E0" stroke="#333333" stroke-width="0.6" stroke-linecap="round" stroke-linejoin="round"/>
<path d="M274.875 235.529C274.875 235.489 274.875 235.489 274.875 235.529L302.991 232.215L328.257 235.489H331.035C331.074 235.489 331.074 235.489 331.074 235.529V242.806C331.074 242.839 331.074 242.839 331.035 242.839H274.914C274.875 242.839 274.875 242.839 274.875 242.806V235.529Z" fill="#78C7E0" stroke="#333333" stroke-width="0.6" stroke-linecap="round" stroke-linejoin="round"/>
<path d="M272.062 228.217C272.062 228.178 272.062 228.178 272.062 228.217L297.166 224.522L324.537 228.178H328.223C328.262 228.178 328.262 228.178 328.262 228.217V235.449C328.262 235.488 328.262 235.488 328.223 235.488H272.102C272.063 235.488 272.062 235.488 272.062 235.449V228.217Z" fill="#78C7E0" stroke="#333333" stroke-width="0.6" stroke-linecap="round" stroke-linejoin="round"/>
<path d="M268.289 224.522V228.138C268.289 228.177 268.289 228.177 268.328 228.177H324.488C324.533 228.177 324.533 228.177 324.533 228.138V220.901C324.533 220.861 324.533 220.861 324.488 220.861H268.328C268.289 220.861 268.289 220.861 268.289 220.901V222.501" fill="#78C7E0"/>
<path d="M268.289 224.522V228.138C268.289 228.177 268.289 228.177 268.328 228.177H324.488C324.533 228.177 324.533 228.177 324.533 228.138V220.901C324.533 220.861 324.533 220.861 324.488 220.861H268.328C268.289 220.861 268.289 220.861 268.289 220.901V222.501" stroke="#333333" stroke-width="0.6" stroke-linecap="round" stroke-linejoin="round"/>
<path d="M290.102 264.813V260.587" stroke="#333333" stroke-width="0.6" stroke-linecap="round" stroke-linejoin="round"/>
<path d="M307.984 257.504V253.277" stroke="#333333" stroke-width="0.6" stroke-linecap="round" stroke-linejoin="round"/>
<path d="M288.75 239.714V235.488" stroke="#333333" stroke-width="0.6" stroke-linecap="round" stroke-linejoin="round"/>
<path d="M308.547 235.488V231.262" stroke="#333333" stroke-width="0.6" stroke-linecap="round" stroke-linejoin="round"/>
<path d="M294.547 237.621V235.488" stroke="#333333" stroke-width="0.6" stroke-linecap="round" stroke-linejoin="round"/>
</svg>
