<svg width="728" height="226" viewBox="0 0 728 226" fill="none" xmlns="http://www.w3.org/2000/svg">
<rect width="728" height="226" rx="24" fill="#D0E2FF"/>
<path d="M374.953 63.4204C375.909 64.4415 377.146 65.1562 378.507 65.474C379.869 65.7918 381.295 65.6984 382.604 65.2056C383.912 64.7128 385.045 63.8428 385.859 62.7058C386.673 61.5687 387.132 60.2158 387.176 58.8181C387.221 57.4204 386.85 56.0409 386.11 54.8542C385.37 53.6675 384.295 52.727 383.02 52.1517C381.746 51.5764 380.329 51.3923 378.95 51.6225C377.57 51.8528 376.29 52.4871 375.272 53.4452C373.909 54.727 373.11 56.4969 373.05 58.3669C372.991 60.2369 373.675 62.0542 374.953 63.4204Z" fill="#78C7E0" stroke="#333333" stroke-width="0.6"/>
<path d="M380.662 59.0458L378.172 57.5075L379.644 55.1533L382.121 56.7037C382.287 56.7941 382.432 56.9176 382.549 57.0667C382.665 57.2159 382.749 57.3874 382.796 57.5705C382.844 57.7537 382.853 57.9446 382.823 58.1313C382.793 58.318 382.725 58.4967 382.623 58.656C382.522 58.8123 382.39 58.9467 382.235 59.0513C382.081 59.1559 381.907 59.2285 381.725 59.2648C381.542 59.3012 381.354 59.3005 381.171 59.2629C380.988 59.2253 380.815 59.1514 380.662 59.0458V59.0458Z" stroke="#333333" stroke-width="0.6" stroke-linecap="round" stroke-linejoin="round"/>
<path d="M379.209 61.4479L376.719 59.9096L378.179 57.5426L380.656 59.0929C380.824 59.1813 380.972 59.3039 381.089 59.4529C381.207 59.6018 381.293 59.7738 381.34 59.9577C381.387 60.1416 381.396 60.3334 381.364 60.5207C381.333 60.708 381.263 60.8867 381.158 61.0452C381.06 61.2028 380.93 61.3388 380.777 61.4449C380.624 61.551 380.452 61.6252 380.27 61.6628C380.087 61.7004 379.9 61.7008 379.717 61.6639C379.535 61.6269 379.362 61.5535 379.209 61.4479V61.4479Z" stroke="#333333" stroke-width="0.6" stroke-linecap="round" stroke-linejoin="round"/>
<path d="M384.301 54.9468C384.698 55.4062 385.012 55.9318 385.228 56.4997" stroke="#333333" stroke-width="0.6" stroke-linecap="round" stroke-linejoin="round"/>
<path d="M378.079 53.4014C379.006 53.018 380.019 52.8931 381.012 53.0401C382.004 53.1871 382.938 53.6005 383.714 54.2363" stroke="#333333" stroke-width="0.6" stroke-linecap="round" stroke-linejoin="round"/>
<path d="M357.408 71.3187C359.392 71.3239 361.333 70.7404 362.986 69.6418C364.638 68.5432 365.928 66.979 366.691 65.1473C367.453 63.3156 367.656 61.2987 367.272 59.352C366.888 57.4053 365.935 55.6164 364.534 54.2115C363.132 52.8067 361.346 51.849 359.4 51.46C357.454 51.071 355.437 51.268 353.603 52.0261C351.769 52.7843 350.202 54.0694 349.099 55.7188C347.996 57.3682 347.407 59.3079 347.407 61.2921C347.407 63.9469 348.46 66.4931 350.335 68.3727C352.209 70.2524 354.753 71.3118 357.408 71.3187Z" fill="#78C7E0" stroke="#333333" stroke-width="0.6"/>
<path d="M358.447 61.1659L354.383 62.2581L353.367 58.3978L357.431 57.3312C357.689 57.2463 357.962 57.2153 358.233 57.2404C358.504 57.2655 358.766 57.3462 359.004 57.4772C359.243 57.6083 359.451 57.7869 359.618 58.0021C359.784 58.2173 359.904 58.4644 359.97 58.728C360.034 58.9883 360.045 59.2587 360.003 59.5233C359.96 59.7879 359.865 60.0413 359.723 60.2686C359.581 60.4958 359.395 60.6923 359.176 60.8464C358.956 61.0006 358.709 61.1091 358.447 61.1659V61.1659Z" stroke="#333333" stroke-width="0.6" stroke-linecap="round" stroke-linejoin="round"/>
<path d="M359.534 65.0494L355.471 66.1414L354.43 62.2813L358.493 61.2146C358.751 61.1256 359.025 61.0917 359.297 61.1151C359.569 61.1384 359.834 61.2185 360.073 61.35C360.312 61.4816 360.521 61.6618 360.686 61.8791C360.852 62.0963 360.97 62.3457 361.033 62.6113C361.101 62.87 361.115 63.1397 361.076 63.4042C361.037 63.6687 360.944 63.9226 360.804 64.1504C360.664 64.3782 360.48 64.5753 360.261 64.7298C360.043 64.8843 359.796 64.993 359.534 65.0494V65.0494Z" stroke="#333333" stroke-width="0.6" stroke-linecap="round" stroke-linejoin="round"/>
<path d="M357.742 53.3179C358.615 53.3541 359.475 53.5431 360.282 53.8764" stroke="#333333" stroke-width="0.6" stroke-linecap="round" stroke-linejoin="round"/>
<path d="M349.996 58.3097C350.508 56.9611 351.375 55.7766 352.507 54.8822C353.638 53.9878 354.991 53.4169 356.422 53.2305" stroke="#333333" stroke-width="0.6" stroke-linecap="round" stroke-linejoin="round"/>
<path d="M358.26 172.815C359.742 172.819 361.192 172.383 362.426 171.563C363.66 170.742 364.623 169.574 365.193 168.206C365.763 166.837 365.914 165.331 365.628 163.877C365.341 162.423 364.629 161.087 363.582 160.037C362.536 158.988 361.201 158.273 359.748 157.982C358.294 157.692 356.788 157.839 355.418 158.405C354.048 158.971 352.877 159.931 352.053 161.163C351.23 162.395 350.79 163.844 350.79 165.326C350.79 167.309 351.576 169.211 352.977 170.615C354.377 172.019 356.277 172.81 358.26 172.815Z" fill="#78C7E0" stroke="#333333" stroke-width="0.6"/>
<path d="M359.028 165.232L356.024 166.04L355.273 163.186L358.277 162.398C358.468 162.335 358.67 162.312 358.87 162.331C359.07 162.35 359.264 162.409 359.44 162.506C359.616 162.603 359.77 162.735 359.893 162.894C360.016 163.053 360.105 163.236 360.154 163.43C360.201 163.623 360.209 163.823 360.178 164.018C360.146 164.214 360.076 164.401 359.971 164.569C359.866 164.737 359.729 164.882 359.567 164.996C359.405 165.11 359.221 165.19 359.028 165.232V165.232Z" stroke="#333333" stroke-width="0.6" stroke-linecap="round" stroke-linejoin="round"/>
<path d="M359.832 168.103L356.828 168.91L356.059 166.057L359.062 165.269C359.253 165.203 359.455 165.178 359.656 165.195C359.857 165.212 360.053 165.272 360.23 165.369C360.406 165.466 360.561 165.599 360.683 165.76C360.805 165.921 360.893 166.105 360.939 166.301C360.989 166.492 361 166.692 360.971 166.887C360.942 167.083 360.874 167.27 360.77 167.439C360.667 167.607 360.53 167.753 360.369 167.867C360.208 167.981 360.025 168.062 359.832 168.103V168.103Z" stroke="#333333" stroke-width="0.6" stroke-linecap="round" stroke-linejoin="round"/>
<path d="M358.508 159.432C359.153 159.459 359.788 159.599 360.385 159.845" stroke="#333333" stroke-width="0.6" stroke-linecap="round" stroke-linejoin="round"/>
<path d="M352.781 163.121C353.159 162.125 353.801 161.249 354.637 160.588C355.473 159.927 356.473 159.505 357.531 159.367" stroke="#333333" stroke-width="0.6" stroke-linecap="round" stroke-linejoin="round"/>
<path d="M274.121 156.445L275.276 154.445H272.966L274.121 156.445ZM359.974 129.179H282.121V129.579H359.974V129.179ZM273.921 137.379V154.645H274.321V137.379H273.921ZM282.121 129.179C277.592 129.179 273.921 132.851 273.921 137.379H274.321C274.321 133.072 277.813 129.579 282.121 129.579V129.179Z" fill="#2F466C"/>
<path d="M450.055 155.599L448.9 153.599H451.209L450.055 155.599ZM359.973 129.179H442.055V129.579H359.973V129.179ZM450.255 137.379V153.799H449.855V137.379H450.255ZM442.055 129.179C446.583 129.179 450.255 132.851 450.255 137.379H449.855C449.855 133.072 446.363 129.579 442.055 129.579V129.179Z" fill="#2F466C"/>
<path d="M271.072 177.832C270.956 177.934 270.832 178.026 270.7 178.106C269.266 179.11 267.524 179.577 265.78 179.426C264.036 179.275 262.4 178.516 261.159 177.281C259.918 176.046 259.151 174.414 258.992 172.671C258.833 170.927 259.292 169.183 260.289 167.744C261.286 166.305 262.757 165.262 264.445 164.798C266.133 164.334 267.931 164.479 269.523 165.206C271.116 165.934 272.402 167.198 273.156 168.778C273.91 170.357 274.085 172.152 273.65 173.848" fill="#78C7E0"/>
<path d="M271.072 177.832C270.956 177.934 270.832 178.026 270.7 178.106C269.266 179.11 267.524 179.577 265.78 179.426C264.036 179.275 262.4 178.516 261.159 177.281C259.918 176.046 259.151 174.414 258.992 172.671C258.833 170.927 259.292 169.183 260.289 167.744C261.286 166.305 262.757 165.262 264.445 164.798C266.133 164.334 267.931 164.479 269.523 165.206C271.116 165.934 272.402 167.198 273.156 168.778C273.91 170.357 274.085 172.152 273.65 173.848" stroke="#333333" stroke-width="0.6" stroke-linecap="round" stroke-linejoin="round"/>
<path d="M267.168 172.385L264.102 171.37L265.059 168.459L268.125 169.475C268.321 169.535 268.502 169.633 268.659 169.765C268.815 169.897 268.942 170.059 269.034 170.242C269.125 170.425 269.178 170.624 269.19 170.828C269.202 171.032 269.172 171.236 269.102 171.428C269.038 171.618 268.937 171.794 268.806 171.945C268.674 172.096 268.513 172.219 268.334 172.308C268.154 172.397 267.959 172.45 267.759 172.463C267.559 172.476 267.358 172.45 267.168 172.385V172.385Z" stroke="#333333" stroke-width="0.6" stroke-linecap="round" stroke-linejoin="round"/>
<path d="M266.137 175.294L263.07 174.279L264.027 171.388L267.094 172.384C267.287 172.448 267.465 172.549 267.618 172.682C267.771 172.815 267.897 172.977 267.987 173.158C268.078 173.339 268.132 173.537 268.146 173.739C268.161 173.942 268.135 174.145 268.071 174.337C268.007 174.527 267.906 174.703 267.774 174.854C267.643 175.005 267.482 175.128 267.303 175.217C267.123 175.306 266.927 175.358 266.727 175.372C266.527 175.385 266.327 175.359 266.137 175.294V175.294Z" stroke="#333333" stroke-width="0.6" stroke-linecap="round" stroke-linejoin="round"/>
<path d="M266.371 168.901L266.723 167.788" stroke="#333333" stroke-width="0.6" stroke-linecap="round" stroke-linejoin="round"/>
<path d="M267.695 169.36L268.066 168.228" stroke="#333333" stroke-width="0.6" stroke-linecap="round" stroke-linejoin="round"/>
<path d="M269.922 166.981C270.486 167.395 270.98 167.896 271.387 168.465" stroke="#333333" stroke-width="0.6" stroke-linecap="round" stroke-linejoin="round"/>
<path d="M262.816 166.957C263.716 166.326 264.767 165.946 265.863 165.856C266.958 165.767 268.058 165.972 269.047 166.449" stroke="#333333" stroke-width="0.6" stroke-linecap="round" stroke-linejoin="round"/>
<path d="M257.203 190.521V172.414H287.421C287.884 172.363 288.353 172.403 288.801 172.534C289.248 172.664 289.665 172.882 290.028 173.174C290.391 173.466 290.693 173.827 290.916 174.237C291.139 174.646 291.279 175.095 291.328 175.559V198.333C291.279 198.797 291.139 199.246 290.916 199.656C290.693 200.065 290.391 200.426 290.028 200.718C289.665 201.011 289.248 201.228 288.801 201.359C288.353 201.489 287.884 201.53 287.421 201.478H257.203V197.572" fill="#ABEDD8"/>
<path d="M257.203 190.521V172.414H287.421C287.884 172.363 288.353 172.403 288.801 172.534C289.248 172.664 289.665 172.882 290.028 173.174C290.391 173.466 290.693 173.827 290.916 174.237C291.139 174.646 291.279 175.095 291.328 175.559V198.333C291.279 198.797 291.139 199.246 290.916 199.656C290.693 200.065 290.391 200.426 290.028 200.718C289.665 201.011 289.248 201.228 288.801 201.359C288.353 201.489 287.884 201.53 287.421 201.478H257.203V197.572" stroke="#333333" stroke-width="0.6" stroke-linecap="round" stroke-linejoin="round"/>
<path d="M358.751 177.833C358.636 177.935 358.512 178.026 358.38 178.106C356.946 179.11 355.204 179.577 353.46 179.427C351.715 179.276 350.08 178.517 348.839 177.282C347.598 176.047 346.831 174.415 346.672 172.671C346.512 170.928 346.971 169.184 347.968 167.745C348.965 166.305 350.437 165.263 352.125 164.799C353.813 164.335 355.61 164.479 357.203 165.206C358.795 165.934 360.081 167.198 360.836 168.778C361.59 170.358 361.765 172.153 361.33 173.848" fill="#78C7E0"/>
<path d="M358.751 177.833C358.636 177.935 358.512 178.026 358.38 178.106C356.946 179.11 355.204 179.577 353.46 179.427C351.715 179.276 350.08 178.517 348.839 177.282C347.598 176.047 346.831 174.415 346.672 172.671C346.512 170.928 346.971 169.184 347.968 167.745C348.965 166.305 350.437 165.263 352.125 164.799C353.813 164.335 355.61 164.479 357.203 165.206C358.795 165.934 360.081 167.198 360.836 168.778C361.59 170.358 361.765 172.153 361.33 173.848" stroke="#333333" stroke-width="0.6" stroke-linecap="round" stroke-linejoin="round"/>
<path d="M367.727 177.281C369.266 177.285 370.773 176.832 372.055 175.98C373.337 175.127 374.338 173.913 374.93 172.492C375.522 171.071 375.679 169.506 375.381 167.995C375.083 166.484 374.344 165.096 373.256 164.006C372.169 162.916 370.782 162.172 369.272 161.871C367.762 161.569 366.197 161.722 364.774 162.31C363.351 162.898 362.134 163.895 361.278 165.175C360.423 166.455 359.966 167.961 359.966 169.5C359.966 171.561 360.783 173.536 362.238 174.995C363.692 176.454 365.666 177.276 367.727 177.281Z" fill="#78C7E0" stroke="#333333" stroke-width="0.6"/>
<path d="M368.524 169.403L365.399 170.243L364.617 167.274L367.743 166.454C367.941 166.388 368.151 166.365 368.359 166.384C368.568 166.403 368.77 166.465 368.953 166.566C369.136 166.667 369.297 166.804 369.424 166.97C369.552 167.135 369.645 167.325 369.696 167.528C369.745 167.728 369.753 167.936 369.721 168.14C369.688 168.343 369.615 168.538 369.506 168.713C369.396 168.888 369.253 169.039 369.085 169.157C368.916 169.276 368.725 169.359 368.524 169.403V169.403Z" stroke="#333333" stroke-width="0.6" stroke-linecap="round" stroke-linejoin="round"/>
<path d="M369.364 172.39L366.238 173.23L365.438 170.261L368.563 169.44C368.761 169.372 368.972 169.346 369.181 169.364C369.39 169.382 369.594 169.443 369.778 169.545C369.962 169.646 370.122 169.784 370.25 169.952C370.377 170.119 370.468 170.31 370.516 170.515C370.568 170.714 370.579 170.921 370.549 171.124C370.519 171.328 370.448 171.523 370.34 171.698C370.233 171.874 370.09 172.025 369.923 172.144C369.755 172.263 369.565 172.346 369.364 172.39V172.39Z" stroke="#333333" stroke-width="0.6" stroke-linecap="round" stroke-linejoin="round"/>
<path d="M366.062 166.915L365.75 165.783" stroke="#333333" stroke-width="0.6" stroke-linecap="round" stroke-linejoin="round"/>
<path d="M367.414 166.563L367.102 165.411" stroke="#333333" stroke-width="0.6" stroke-linecap="round" stroke-linejoin="round"/>
<path d="M367.98 163.367C368.652 163.395 369.313 163.54 369.934 163.797" stroke="#333333" stroke-width="0.6" stroke-linecap="round" stroke-linejoin="round"/>
<path d="M362.023 167.207C362.417 166.17 363.084 165.259 363.954 164.571C364.825 163.883 365.865 163.444 366.965 163.3" stroke="#333333" stroke-width="0.6" stroke-linecap="round" stroke-linejoin="round"/>
<path d="M354.852 172.386L351.785 171.37L352.742 168.46L355.809 169.476C356.005 169.535 356.186 169.634 356.342 169.765C356.498 169.897 356.626 170.059 356.717 170.242C356.809 170.425 356.862 170.625 356.874 170.829C356.885 171.033 356.855 171.237 356.786 171.429C356.722 171.619 356.621 171.794 356.489 171.945C356.357 172.096 356.197 172.22 356.017 172.309C355.838 172.398 355.642 172.45 355.442 172.463C355.242 172.477 355.042 172.45 354.852 172.386V172.386Z" stroke="#333333" stroke-width="0.6" stroke-linecap="round" stroke-linejoin="round"/>
<path d="M353.821 175.295L350.754 174.28L351.711 171.389L354.778 172.385C354.97 172.449 355.148 172.55 355.301 172.683C355.455 172.816 355.58 172.978 355.671 173.159C355.762 173.34 355.816 173.538 355.83 173.74C355.844 173.943 355.819 174.146 355.754 174.338C355.69 174.528 355.59 174.704 355.458 174.855C355.326 175.005 355.166 175.129 354.986 175.218C354.806 175.307 354.611 175.359 354.411 175.373C354.211 175.386 354.01 175.36 353.821 175.295V175.295Z" stroke="#333333" stroke-width="0.6" stroke-linecap="round" stroke-linejoin="round"/>
<path d="M354.055 168.901L354.406 167.788" stroke="#333333" stroke-width="0.6" stroke-linecap="round" stroke-linejoin="round"/>
<path d="M355.379 169.361L355.75 168.228" stroke="#333333" stroke-width="0.6" stroke-linecap="round" stroke-linejoin="round"/>
<path d="M357.605 166.982C358.169 167.396 358.664 167.897 359.07 168.466" stroke="#333333" stroke-width="0.6" stroke-linecap="round" stroke-linejoin="round"/>
<path d="M350.496 166.958C351.395 166.326 352.447 165.946 353.543 165.857C354.638 165.768 355.737 165.972 356.727 166.45" stroke="#333333" stroke-width="0.6" stroke-linecap="round" stroke-linejoin="round"/>
<path d="M344.887 190.521V172.415H375.104C375.568 172.363 376.037 172.404 376.484 172.534C376.932 172.665 377.349 172.882 377.712 173.174C378.075 173.467 378.377 173.828 378.6 174.237C378.823 174.646 378.962 175.096 379.011 175.559V198.334C378.962 198.797 378.823 199.247 378.6 199.656C378.377 200.065 378.075 200.427 377.712 200.719C377.349 201.011 376.932 201.229 376.484 201.359C376.037 201.49 375.568 201.53 375.104 201.479H344.887V197.572" fill="#ABEDD8"/>
<path d="M344.887 190.521V172.415H375.104C375.568 172.363 376.037 172.404 376.484 172.534C376.932 172.665 377.349 172.882 377.712 173.174C378.075 173.467 378.377 173.828 378.6 174.237C378.823 174.646 378.962 175.096 379.011 175.559V198.334C378.962 198.797 378.823 199.247 378.6 199.656C378.377 200.065 378.075 200.427 377.712 200.719C377.349 201.011 376.932 201.229 376.484 201.359C376.037 201.49 375.568 201.53 375.104 201.479H344.887V197.572" stroke="#333333" stroke-width="0.6" stroke-linecap="round" stroke-linejoin="round"/>
<path d="M449.54 177.833C449.425 177.935 449.301 178.026 449.169 178.106C447.735 179.11 445.993 179.577 444.249 179.427C442.504 179.276 440.869 178.517 439.628 177.282C438.387 176.047 437.62 174.415 437.461 172.671C437.301 170.928 437.761 169.184 438.757 167.745C439.754 166.305 441.226 165.263 442.914 164.799C444.602 164.335 446.4 164.479 447.992 165.206C449.584 165.934 450.87 167.198 451.625 168.778C452.379 170.358 452.554 172.153 452.119 173.848" fill="#78C7E0"/>
<path d="M449.54 177.833C449.425 177.935 449.301 178.026 449.169 178.106C447.735 179.11 445.993 179.577 444.249 179.427C442.504 179.276 440.869 178.517 439.628 177.282C438.387 176.047 437.62 174.415 437.461 172.671C437.301 170.928 437.761 169.184 438.757 167.745C439.754 166.305 441.226 165.263 442.914 164.799C444.602 164.335 446.4 164.479 447.992 165.206C449.584 165.934 450.87 167.198 451.625 168.778C452.379 170.358 452.554 172.153 452.119 173.848" stroke="#333333" stroke-width="0.6" stroke-linecap="round" stroke-linejoin="round"/>
<path d="M458.516 177.281C460.055 177.285 461.562 176.832 462.844 175.98C464.126 175.127 465.127 173.913 465.719 172.492C466.311 171.071 466.468 169.506 466.17 167.995C465.872 166.484 465.133 165.096 464.045 164.006C462.958 162.916 461.571 162.172 460.061 161.871C458.551 161.569 456.986 161.722 455.563 162.31C454.14 162.898 452.923 163.895 452.067 165.175C451.212 166.455 450.755 167.961 450.755 169.5C450.755 171.561 451.572 173.536 453.027 174.995C454.481 176.454 456.455 177.276 458.516 177.281Z" fill="#78C7E0" stroke="#333333" stroke-width="0.6"/>
<path d="M459.313 169.403L456.188 170.243L455.406 167.274L458.532 166.454C458.73 166.388 458.94 166.365 459.148 166.384C459.357 166.403 459.559 166.465 459.742 166.566C459.925 166.667 460.086 166.804 460.213 166.97C460.341 167.135 460.434 167.325 460.485 167.528C460.534 167.728 460.542 167.936 460.51 168.14C460.477 168.343 460.404 168.538 460.295 168.713C460.185 168.888 460.042 169.039 459.874 169.157C459.705 169.276 459.514 169.359 459.313 169.403V169.403Z" stroke="#333333" stroke-width="0.6" stroke-linecap="round" stroke-linejoin="round"/>
<path d="M460.153 172.39L457.027 173.23L456.227 170.261L459.352 169.44C459.55 169.372 459.761 169.346 459.97 169.364C460.18 169.382 460.383 169.443 460.567 169.545C460.751 169.646 460.911 169.784 461.039 169.952C461.166 170.119 461.257 170.31 461.305 170.515C461.357 170.714 461.368 170.921 461.338 171.124C461.308 171.328 461.237 171.523 461.129 171.698C461.022 171.874 460.88 172.025 460.712 172.144C460.544 172.263 460.354 172.346 460.153 172.39V172.39Z" stroke="#333333" stroke-width="0.6" stroke-linecap="round" stroke-linejoin="round"/>
<path d="M456.848 166.915L456.535 165.783" stroke="#333333" stroke-width="0.6" stroke-linecap="round" stroke-linejoin="round"/>
<path d="M458.199 166.563L457.887 165.411" stroke="#333333" stroke-width="0.6" stroke-linecap="round" stroke-linejoin="round"/>
<path d="M458.77 163.367C459.441 163.395 460.102 163.54 460.723 163.797" stroke="#333333" stroke-width="0.6" stroke-linecap="round" stroke-linejoin="round"/>
<path d="M452.812 167.207C453.206 166.17 453.873 165.259 454.744 164.571C455.614 163.883 456.654 163.444 457.754 163.3" stroke="#333333" stroke-width="0.6" stroke-linecap="round" stroke-linejoin="round"/>
<path d="M445.641 172.386L442.574 171.37L443.531 168.46L446.598 169.476C446.794 169.535 446.975 169.634 447.131 169.765C447.287 169.897 447.415 170.059 447.507 170.242C447.598 170.425 447.651 170.625 447.663 170.829C447.675 171.033 447.645 171.237 447.575 171.429C447.511 171.619 447.41 171.794 447.278 171.945C447.146 172.096 446.986 172.22 446.806 172.309C446.627 172.398 446.431 172.45 446.231 172.463C446.031 172.477 445.831 172.45 445.641 172.386V172.386Z" stroke="#333333" stroke-width="0.6" stroke-linecap="round" stroke-linejoin="round"/>
<path d="M444.606 175.295L441.539 174.28L442.496 171.389L445.563 172.385C445.755 172.449 445.933 172.55 446.087 172.683C446.24 172.816 446.365 172.978 446.456 173.159C446.547 173.34 446.601 173.538 446.615 173.74C446.63 173.943 446.604 174.146 446.54 174.338C446.476 174.528 446.375 174.704 446.243 174.855C446.111 175.005 445.951 175.129 445.771 175.218C445.592 175.307 445.396 175.359 445.196 175.373C444.996 175.386 444.796 175.36 444.606 175.295V175.295Z" stroke="#333333" stroke-width="0.6" stroke-linecap="round" stroke-linejoin="round"/>
<path d="M444.844 168.901L445.195 167.788" stroke="#333333" stroke-width="0.6" stroke-linecap="round" stroke-linejoin="round"/>
<path d="M446.168 169.361L446.539 168.228" stroke="#333333" stroke-width="0.6" stroke-linecap="round" stroke-linejoin="round"/>
<path d="M448.395 166.982C448.958 167.396 449.453 167.897 449.86 168.466" stroke="#333333" stroke-width="0.6" stroke-linecap="round" stroke-linejoin="round"/>
<path d="M441.289 166.958C442.188 166.326 443.24 165.946 444.336 165.857C445.431 165.768 446.53 165.972 447.52 166.45" stroke="#333333" stroke-width="0.6" stroke-linecap="round" stroke-linejoin="round"/>
<path d="M435.676 190.521V172.415H465.894C466.357 172.363 466.826 172.404 467.273 172.534C467.721 172.665 468.138 172.882 468.501 173.174C468.864 173.467 469.166 173.828 469.389 174.237C469.612 174.646 469.752 175.096 469.8 175.559V198.334C469.752 198.797 469.612 199.247 469.389 199.656C469.166 200.065 468.864 200.427 468.501 200.719C468.138 201.011 467.721 201.229 467.273 201.359C466.826 201.49 466.357 201.53 465.894 201.479H435.676V197.572" fill="#ABEDD8"/>
<path d="M435.676 190.521V172.415H465.894C466.357 172.363 466.826 172.404 467.273 172.534C467.721 172.665 468.138 172.882 468.501 173.174C468.864 173.467 469.166 173.828 469.389 174.237C469.612 174.646 469.752 175.096 469.8 175.559V198.334C469.752 198.797 469.612 199.247 469.389 199.656C469.166 200.065 468.864 200.427 468.501 200.719C468.138 201.011 467.721 201.229 467.273 201.359C466.826 201.49 466.357 201.53 465.894 201.479H435.676V197.572" stroke="#333333" stroke-width="0.6" stroke-linecap="round" stroke-linejoin="round"/>
<path d="M360.265 155.799L361.42 153.799L359.11 153.799L360.265 155.799ZM360.065 103.582L360.065 153.999L360.465 153.999L360.465 103.582L360.065 103.582Z" fill="#2F466C"/>
<path d="M394.227 67.2134H329.097H326.137L354.472 95.5477V122.19H366.737V95.5477L394.227 67.2134Z" fill="white" stroke="#333333" stroke-width="0.4" stroke-linecap="round" stroke-linejoin="bevel"/>
<path d="M366.138 80.9492L366.14 80.8761C366.142 80.7894 366.142 80.7027 366.14 80.616L366.138 80.5427L366.183 80.4854L367.12 79.3154L366.138 80.9492ZM366.138 80.9492L366.183 81.0064M366.138 80.9492L366.183 81.0064M366.183 81.0064L367.115 82.1734L367.115 82.1737M366.183 81.0064L367.115 82.1737M367.176 79.0488L367.176 79.0486C367.027 78.4887 366.804 77.9511 366.513 77.4497L367.176 79.0488ZM367.176 79.0488C367.188 79.0945 367.189 79.1424 367.18 79.1888C367.17 79.235 367.15 79.2784 367.12 79.3153L367.176 79.0488ZM364.726 77.1276L364.675 77.0745C364.616 77.0118 364.555 76.9515 364.494 76.8937L364.442 76.8439L364.433 76.7719L364.258 75.2792L364.258 75.2789C364.252 75.2321 364.236 75.1873 364.21 75.1479C364.184 75.1086 364.149 75.0758 364.109 75.0522L364.109 75.0522C363.607 74.7618 363.07 74.5394 362.51 74.3907L362.509 74.3906C362.464 74.3784 362.416 74.3771 362.369 74.3868C362.323 74.3965 362.28 74.417 362.243 74.4465L362.243 74.4466L361.076 75.3782L361.021 75.4219H360.951H360.95H360.95H360.949H360.949H360.948H360.948H360.947H360.947H360.946H360.945H360.945H360.944H360.944H360.943H360.943H360.942H360.942H360.941H360.941H360.94H360.94H360.939H360.939H360.938H360.938H360.937H360.936H360.936H360.935H360.935H360.934H360.934H360.933H360.933H360.932H360.932H360.931H360.931H360.93H360.93H360.929H360.929H360.928H360.927H360.927H360.926H360.926H360.925H360.925H360.924H360.924H360.923H360.923H360.922H360.922H360.921H360.921H360.92H360.92H360.919H360.918H360.918H360.917H360.917H360.916H360.916H360.915H360.915H360.914H360.914H360.913H360.913H360.912H360.912H360.911H360.91H360.91H360.909H360.909H360.908H360.908H360.907H360.907H360.906H360.906H360.905H360.905H360.904H360.904H360.903H360.903H360.902H360.901H360.901H360.9H360.9H360.899H360.899H360.898H360.898H360.897H360.897H360.896H360.896H360.895H360.895H360.894H360.894H360.893H360.892H360.892H360.891H360.891H360.89H360.89H360.889H360.889H360.888H360.888H360.887H360.887H360.886H360.886H360.885H360.885H360.884H360.883H360.883H360.882H360.882H360.881H360.881H360.88H360.88H360.879H360.879H360.878H360.878H360.877H360.877H360.876H360.876H360.875H360.874H360.874H360.873H360.873H360.872H360.872H360.871H360.871H360.87H360.87H360.869H360.869H360.868H360.868H360.867H360.867H360.866H360.865H360.865H360.864H360.864H360.863H360.863H360.862H360.862H360.861H360.861H360.86H360.86H360.859H360.859H360.858H360.858H360.857H360.856H360.856H360.855H360.855H360.854H360.854H360.853H360.853H360.852H360.852H360.851H360.851H360.85H360.85H360.849H360.849H360.848H360.847H360.847H360.846H360.846H360.845H360.845H360.844H360.844H360.843H360.843H360.842H360.842H360.841H360.841H360.84H360.84H360.839H360.838H360.838H360.837H360.837H360.836H360.836H360.835H360.835H360.834H360.834H360.833H360.833H360.832H360.832H360.831H360.831H360.83H360.829H360.829H360.828H360.828H360.827H360.827H360.826H360.826H360.825H360.825H360.824H360.824H360.823H360.823H360.822H360.822H360.821H360.82H360.82H360.819H360.819H360.818H360.818H360.817H360.817H360.816H360.816H360.815H360.815H360.814H360.814H360.813H360.813H360.812H360.811H360.811H360.81H360.81H360.809H360.809H360.808H360.808H360.807H360.807H360.806H360.806H360.805H360.805H360.804H360.804H360.803H360.802H360.802H360.801H360.801H360.8H360.8H360.799H360.799H360.798H360.798H360.797H360.797H360.796H360.796H360.795H360.794H360.794H360.793H360.793H360.792H360.792H360.791H360.791H360.79H360.79H360.789H360.789H360.788H360.788H360.787H360.787H360.786H360.785H360.785H360.784H360.784H360.783H360.783H360.782H360.782H360.781H360.781H360.78H360.78H360.779H360.779H360.778H360.778H360.777H360.776H360.776H360.775H360.775H360.774H360.774H360.773H360.773H360.772H360.772H360.771H360.771H360.77H360.77H360.769H360.769H360.768H360.767H360.767H360.766H360.766H360.765H360.765H360.764H360.764H360.763H360.763H360.762H360.762H360.761H360.761H360.76H360.76H360.759H360.758H360.758H360.757H360.757H360.756H360.756H360.755H360.755H360.754H360.754H360.753H360.753H360.752H360.752H360.751H360.751H360.75H360.749H360.749H360.748H360.748H360.747H360.747H360.746H360.746H360.745H360.745H360.744H360.744H360.743H360.743H360.742H360.742H360.741H360.74H360.74H360.739H360.739H360.738H360.738H360.737H360.737H360.736H360.736H360.735H360.735H360.734H360.734H360.733H360.733H360.732H360.731H360.731H360.73H360.73H360.729H360.729H360.728H360.728H360.727H360.727H360.726H360.726H360.725H360.725H360.724H360.724H360.723H360.722H360.722H360.721H360.721H360.72H360.72H360.719H360.719H360.718H360.718H360.717H360.717H360.716H360.716H360.715H360.715H360.714H360.713H360.713H360.712H360.712H360.711H360.711H360.71H360.71H360.709H360.709H360.708H360.708H360.707H360.707H360.706H360.706H360.705H360.704H360.704H360.703H360.703H360.702H360.702H360.701H360.701H360.7H360.7H360.699H360.699H360.698H360.698H360.697H360.697H360.696H360.695H360.695H360.694H360.694H360.693H360.693H360.692H360.692H360.691H360.691H360.69H360.69H360.689H360.689H360.688H360.688H360.687H360.686H360.686H360.685H360.685H360.684H360.684H360.683H360.683H360.682H360.682H360.681H360.681H360.68H360.68H360.609L360.555 75.3781L359.385 74.4434L359.385 74.4434C359.348 74.4138 359.304 74.3934 359.258 74.3837C359.211 74.374 359.164 74.3753 359.118 74.3875L359.118 74.3875C358.558 74.5368 358.02 74.7596 357.519 75.0503C357.478 75.0739 357.443 75.1067 357.418 75.146C357.392 75.1852 357.376 75.2299 357.37 75.2765C357.37 75.2766 357.37 75.2767 357.37 75.2769L357.205 76.7675L357.197 76.8398L357.144 76.89C357.081 76.9503 357.02 77.0109 356.962 77.0718L356.912 77.1242L356.84 77.1324L355.348 77.3038C355.348 77.3038 355.348 77.3038 355.348 77.3038C355.301 77.3092 355.256 77.3255 355.217 77.3513C355.177 77.3772 355.145 77.4119 355.121 77.4526L355.121 77.4527C354.831 77.9541 354.608 78.4918 354.459 79.0517L364.726 77.1276ZM364.726 77.1276L364.798 77.1356M364.726 77.1276L364.798 77.1356M364.798 77.1356L366.286 77.3013C366.287 77.3013 366.287 77.3013 366.287 77.3013C366.333 77.3068 366.378 77.323 366.417 77.3487C366.457 77.3744 366.489 77.409 366.513 77.4496L364.798 77.1356ZM354.515 79.3183L354.515 79.3187L355.447 80.4857L355.491 80.5404V80.6104V80.611V80.6115V80.612V80.6125V80.6131V80.6136V80.6141V80.6147V80.6152V80.6157V80.6163V80.6168V80.6173V80.6178V80.6184V80.6189V80.6194V80.62V80.6205V80.621V80.6216V80.6221V80.6226V80.6231V80.6237V80.6242V80.6247V80.6253V80.6258V80.6263V80.6268V80.6274V80.6279V80.6284V80.629V80.6295V80.63V80.6306V80.6311V80.6316V80.6321V80.6327V80.6332V80.6337V80.6343V80.6348V80.6353V80.6359V80.6364V80.6369V80.6374V80.638V80.6385V80.639V80.6396V80.6401V80.6406V80.6411V80.6417V80.6422V80.6427V80.6433V80.6438V80.6443V80.6449V80.6454V80.6459V80.6464V80.647V80.6475V80.648V80.6486V80.6491V80.6496V80.6502V80.6507V80.6512V80.6517V80.6523V80.6528V80.6533V80.6539V80.6544V80.6549V80.6555V80.656V80.6565V80.657V80.6576V80.6581V80.6586V80.6592V80.6597V80.6602V80.6607V80.6613V80.6618V80.6623V80.6629V80.6634V80.6639V80.6645V80.665V80.6655V80.666V80.6666V80.6671V80.6676V80.6682V80.6687V80.6692V80.6698V80.6703V80.6708V80.6713V80.6719V80.6724V80.6729V80.6735V80.674V80.6745V80.675V80.6756V80.6761V80.6766V80.6772V80.6777V80.6782V80.6788V80.6793V80.6798V80.6803V80.6809V80.6814V80.6819V80.6825V80.683V80.6835V80.6841V80.6846V80.6851V80.6856V80.6862V80.6867V80.6872V80.6878V80.6883V80.6888V80.6893V80.6899V80.6904V80.6909V80.6915V80.692V80.6925V80.6931V80.6936V80.6941V80.6946V80.6952V80.6957V80.6962V80.6968V80.6973V80.6978V80.6984V80.6989V80.6994V80.6999V80.7005V80.701V80.7015V80.7021V80.7026V80.7031V80.7036V80.7042V80.7047V80.7052V80.7058V80.7063V80.7068V80.7074V80.7079V80.7084V80.7089V80.7095V80.71V80.7105V80.7111V80.7116V80.7121V80.7127V80.7132V80.7137V80.7142V80.7148V80.7153V80.7158V80.7164V80.7169V80.7174V80.718V80.7185V80.719V80.7195V80.7201V80.7206V80.7211V80.7217V80.7222V80.7227V80.7232V80.7238V80.7243V80.7248V80.7254V80.7259V80.7264V80.727V80.7275V80.728V80.7285V80.7291V80.7296V80.7301V80.7307V80.7312V80.7317V80.7323V80.7328V80.7333V80.7338V80.7344V80.7349V80.7354V80.736V80.7365V80.737V80.7375V80.7381V80.7386V80.7391V80.7397V80.7402V80.7407V80.7413V80.7418V80.7423V80.7428V80.7434V80.7439V80.7444V80.745V80.7455V80.746V80.7466V80.7471V80.7476V80.7481V80.7487V80.7492V80.7497V80.7503V80.7508V80.7513V80.7518V80.7524V80.7529V80.7534V80.754V80.7545V80.755V80.7556V80.7561V80.7566V80.7571V80.7577V80.7582V80.7587V80.7593V80.7598V80.7603V80.7609V80.7614V80.7619V80.7624V80.763V80.7635V80.764V80.7646V80.7651V80.7656V80.7661V80.7667V80.7672V80.7677V80.7683V80.7688V80.7693V80.7699V80.7704V80.7709V80.7714V80.772V80.7725V80.773V80.7736V80.7741V80.7746V80.7752V80.7757V80.7762V80.7767V80.7773V80.7778V80.7783V80.7789V80.7794V80.7799V80.7805V80.781V80.7815V80.782V80.7826V80.7831V80.7836V80.7842V80.7847V80.7852V80.7857V80.7863V80.7868V80.7873V80.7879V80.7884V80.7889V80.7895V80.79V80.7905V80.791V80.7916V80.7921V80.7926V80.7932V80.7937V80.7942V80.7948V80.7953V80.7958V80.7963V80.7969V80.7974V80.7979V80.7985V80.799V80.7995V80.8V80.8006V80.8011V80.8016V80.8022V80.8027V80.8032V80.8038V80.8043V80.8048V80.8053V80.8059V80.8064V80.8069V80.8075V80.808V80.8085V80.8091V80.8096V80.8101V80.8106V80.8112V80.8117V80.8122V80.8128V80.8133V80.8138V80.8143V80.8149V80.8154V80.8159V80.8165V80.817V80.8175V80.8181V80.8186V80.8191V80.8196V80.8202V80.8207V80.8212V80.8218V80.8223V80.8228V80.8234V80.8239V80.8244V80.8249V80.8255V80.826V80.8265V80.8271V80.8276V80.8281V80.8286V80.8292V80.8297V80.8302V80.8308V80.8313V80.8318V80.8324V80.8329V80.8334V80.8339V80.8345V80.835V80.8355V80.8361V80.8366V80.8371V80.8377V80.8382V80.8387V80.8392V80.8398V80.8403V80.8408V80.8414V80.8419V80.8424V80.8429V80.8435V80.844V80.8445V80.8451V80.8456V80.8461V80.8467V80.8472V80.8477V80.8482V80.8488V80.8493V80.8498V80.8504V80.8509V80.8514V80.852V80.8525V80.853V80.8535V80.8541V80.8546V80.8551V80.8557V80.8562V80.8567V80.8573V80.8578V80.8583V80.8588V80.8594V80.8599V80.8604V80.861V80.8615V80.862V80.8625V80.8631V80.8636V80.8641V80.8647V80.8652V80.8657V80.8663V80.8668V80.8673V80.8678V80.8684V80.8689V80.8694V80.87V80.8705V80.871V80.8716V80.8721V80.8726V80.8731V80.8737V80.8742V80.8747V80.8753V80.8758V80.8763V80.8768V80.8774V80.8779V80.8784V80.879V80.8795V80.88V80.8806V80.8811V80.8816V80.9517L355.447 81.0064L354.512 82.1766L354.512 82.1766C354.483 82.2136 354.462 82.257 354.453 82.3033L354.257 82.2623L354.453 82.3033C354.443 82.3496 354.444 82.3976 354.456 82.4433L354.456 82.4434C354.606 83.0033 354.828 83.541 355.119 84.0423C355.143 84.083 355.175 84.1176 355.215 84.1434C355.254 84.1691 355.299 84.1853 355.345 84.1907C355.346 84.1907 355.346 84.1908 355.346 84.1908L356.834 84.3564L356.906 84.3644L356.956 84.417C357.017 84.4801 357.077 84.5407 357.138 84.5988L357.19 84.6486L357.199 84.7204L357.373 86.2131L357.373 86.2132C357.378 86.2599 357.394 86.3048 357.42 86.3441C357.446 86.3835 357.481 86.4162 357.522 86.4398L357.522 86.4398C358.023 86.7302 358.561 86.9529 359.121 87.102C359.167 87.1142 359.214 87.1154 359.261 87.1056L359.302 87.3013L359.261 87.1056C359.307 87.0958 359.35 87.0753 359.387 87.0457L359.388 87.0454L360.555 86.1139L360.612 86.0682L360.685 86.0702C360.772 86.0727 360.859 86.0727 360.945 86.0702L361.018 86.0682L361.076 86.114L362.246 87.0505L354.515 79.3183ZM354.515 79.3183C354.486 79.2814 354.465 79.238 354.455 79.1917C354.446 79.1454 354.447 79.0975 354.459 79.0517L354.515 79.3183ZM362.513 87.1064L362.513 87.1064C363.073 86.9574 363.61 86.7346 364.112 86.4437L362.513 87.1064ZM362.513 87.1064C362.467 87.1187 362.419 87.12 362.372 87.1103C362.326 87.1005 362.283 87.0801 362.246 87.0506L362.513 87.1064ZM364.434 84.6562L364.487 84.6059C364.55 84.5464 364.61 84.4861 364.668 84.4251L364.717 84.3725L364.789 84.3641L366.282 84.1883L366.283 84.1883C366.329 84.1828 366.374 84.1665 366.413 84.1407C366.453 84.1149 366.486 84.0802 366.509 84.0394L366.509 84.0394C366.8 83.538 367.022 83.0003 367.171 82.4404L364.434 84.6562ZM364.434 84.6562L364.426 84.7289M364.434 84.6562L364.426 84.7289M364.426 84.7289L364.26 86.2171C364.26 86.2172 364.26 86.2173 364.26 86.2174C364.255 86.264 364.238 86.3087 364.213 86.348C364.187 86.3873 364.152 86.4201 364.112 86.4437L364.426 84.7289ZM367.115 82.1737C367.145 82.2106 367.165 82.254 367.175 82.3003C367.185 82.3466 367.184 82.3946 367.171 82.4403L367.115 82.1737ZM359.309 83.0001C359.755 83.298 360.279 83.457 360.815 83.457C361.534 83.457 362.224 83.1714 362.732 82.663C363.241 82.1546 363.526 81.465 363.526 80.746C363.526 80.2098 363.367 79.6857 363.069 79.2399C362.771 78.7941 362.348 78.4466 361.853 78.2414C361.357 78.0362 360.812 77.9825 360.286 78.0871C359.76 78.1917 359.277 78.4499 358.898 78.8291C358.519 79.2082 358.261 79.6913 358.156 80.2171C358.052 80.743 358.105 81.2881 358.31 81.7835C358.516 82.2788 358.863 82.7022 359.309 83.0001Z" fill="#3D84A8" stroke="#333333" stroke-width="0.4"/>
<path d="M274.119 157.291L271.921 153.485L276.316 153.485L274.119 157.291Z" fill="#2F466C"/>
<path d="M274.119 157.291L271.921 153.485L276.316 153.485L274.119 157.291Z" fill="#2F466C"/>
<path d="M360.396 157.291L358.199 153.485L362.594 153.485L360.396 157.291Z" fill="#2F466C"/>
<path d="M360.396 157.291L358.199 153.485L362.594 153.485L360.396 157.291Z" fill="#2F466C"/>
<path d="M450.056 157.291L447.859 153.485L452.254 153.485L450.056 157.291Z" fill="#2F466C"/>
<path d="M450.056 157.291L447.859 153.485L452.254 153.485L450.056 157.291Z" fill="#2F466C"/>
<path d="M415.375 129.379L411.569 131.577L411.569 127.182L415.375 129.379Z" fill="#2F466C"/>
<path d="M415.375 129.379L411.569 131.577L411.569 127.182L415.375 129.379Z" fill="#2F466C"/>
<path d="M327.406 129.38L331.213 127.182L331.213 131.577L327.406 129.38Z" fill="#2F466C"/>
<path d="M327.406 129.38L331.213 127.182L331.213 131.577L327.406 129.38Z" fill="#2F466C"/>
<path d="M333.729 64.5527C335.378 64.557 336.992 64.0719 338.365 63.1587C339.739 62.2454 340.811 60.9451 341.445 59.4225C342.079 57.8998 342.247 56.2232 341.928 54.6049C341.609 52.9866 340.817 51.4995 339.652 50.3317C338.487 49.1638 337.002 48.3678 335.385 48.0444C333.767 47.721 332.09 47.8848 330.565 48.515C329.041 49.1452 327.738 50.2135 326.821 51.5847C325.904 52.9558 325.415 54.5683 325.415 56.2177C325.415 58.4246 326.29 60.5413 327.849 62.1038C329.407 63.6663 331.522 64.547 333.729 64.5527Z" fill="#78C7E0" stroke="#333333" stroke-width="0.6"/>
<path d="M334.587 56.1131L331.23 57.0153L330.391 53.8264L333.747 52.9453C333.961 52.8751 334.186 52.8495 334.41 52.8703C334.634 52.891 334.851 52.9577 335.047 53.0659C335.244 53.1742 335.417 53.3217 335.554 53.4995C335.691 53.6773 335.791 53.8814 335.846 54.0991C335.898 54.3142 335.907 54.5376 335.872 54.7562C335.837 54.9747 335.758 55.1841 335.641 55.3718C335.524 55.5595 335.37 55.7218 335.189 55.8492C335.008 55.9765 334.803 56.0662 334.587 56.1131V56.1131Z" stroke="#333333" stroke-width="0.6" stroke-linecap="round" stroke-linejoin="round"/>
<path d="M335.487 59.321L332.13 60.2231L331.27 57.0343L334.626 56.1531C334.84 56.0796 335.066 56.0516 335.291 56.0708C335.515 56.0901 335.734 56.1563 335.931 56.265C336.129 56.3737 336.301 56.5225 336.438 56.702C336.575 56.8815 336.672 57.0875 336.724 57.3069C336.78 57.5206 336.792 57.7434 336.76 57.9619C336.727 58.1803 336.651 58.3901 336.535 58.5783C336.42 58.7665 336.267 58.9293 336.087 59.0569C335.907 59.1846 335.702 59.2744 335.487 59.321V59.321Z" stroke="#333333" stroke-width="0.6" stroke-linecap="round" stroke-linejoin="round"/>
<path d="M334.004 49.6304C334.725 49.6603 335.435 49.8164 336.102 50.0917" stroke="#333333" stroke-width="0.6" stroke-linecap="round" stroke-linejoin="round"/>
<path d="M327.605 53.7535C328.028 52.6395 328.745 51.661 329.68 50.9221C330.614 50.1832 331.732 49.7116 332.913 49.5576" stroke="#333333" stroke-width="0.6" stroke-linecap="round" stroke-linejoin="round"/>
<path d="M401.397 60.3237C403.046 60.328 404.66 59.8429 406.033 58.9297C407.407 58.0164 408.479 56.7161 409.113 55.1935C409.747 53.6708 409.915 51.9942 409.596 50.3759C409.277 48.7576 408.485 47.2705 407.32 46.1027C406.155 44.9348 404.67 44.1388 403.052 43.8154C401.435 43.492 399.758 43.6558 398.233 44.286C396.709 44.9162 395.406 45.9845 394.489 47.3557C393.572 48.7268 393.083 50.3393 393.083 51.9887C393.083 54.1956 393.958 56.3123 395.517 57.8748C397.075 59.4373 399.19 60.318 401.397 60.3237Z" fill="#78C7E0" stroke="#333333" stroke-width="0.6"/>
<path d="M402.255 51.8841L398.898 52.7863L398.059 49.5974L401.415 48.7163C401.629 48.6461 401.854 48.6205 402.078 48.6413C402.302 48.662 402.519 48.7287 402.715 48.8369C402.912 48.9452 403.085 49.0927 403.222 49.2705C403.359 49.4483 403.458 49.6524 403.513 49.8701C403.566 50.0852 403.575 50.3086 403.54 50.5272C403.505 50.7457 403.426 50.9551 403.309 51.1428C403.192 51.3305 403.038 51.4928 402.857 51.6202C402.676 51.7475 402.471 51.8372 402.255 51.8841V51.8841Z" stroke="#333333" stroke-width="0.6" stroke-linecap="round" stroke-linejoin="round"/>
<path d="M403.154 55.0924L399.798 55.9945L398.938 52.8058L402.294 51.9245C402.508 51.8511 402.734 51.8231 402.959 51.8423C403.183 51.8616 403.402 51.9278 403.599 52.0364C403.797 52.1451 403.969 52.294 404.106 52.4735C404.243 52.6529 404.34 52.8589 404.392 53.0784C404.448 53.2921 404.46 53.5149 404.428 53.7333C404.395 53.9518 404.319 54.1616 404.203 54.3498C404.088 54.5379 403.935 54.7008 403.755 54.8284C403.575 54.9561 403.37 55.0458 403.154 55.0924V55.0924Z" stroke="#333333" stroke-width="0.6" stroke-linecap="round" stroke-linejoin="round"/>
<path d="M401.672 45.4009C402.393 45.4308 403.103 45.5869 403.77 45.8622" stroke="#333333" stroke-width="0.6" stroke-linecap="round" stroke-linejoin="round"/>
<path d="M395.273 49.5245C395.696 48.4105 396.413 47.432 397.348 46.6931C398.282 45.9542 399.4 45.4826 400.581 45.3286" stroke="#333333" stroke-width="0.6" stroke-linecap="round" stroke-linejoin="round"/>
<path d="M311.188 51.6028C312.56 51.6064 313.903 51.2027 315.046 50.4429C316.188 49.683 317.08 48.6011 317.608 47.3343C318.136 46.0674 318.276 44.6723 318.01 43.3259C317.744 41.9794 317.085 40.7421 316.116 39.7704C315.147 38.7987 313.911 38.1364 312.565 37.8673C311.22 37.5982 309.824 37.7345 308.556 38.2589C307.287 38.7832 306.203 39.6721 305.44 40.8129C304.678 41.9538 304.27 43.2954 304.27 44.6678C304.27 46.504 304.999 48.2651 306.295 49.5652C307.592 50.8652 309.351 51.598 311.188 51.6028Z" fill="#78C7E0" stroke="#333333" stroke-width="0.6"/>
<path d="M311.899 44.5807L309.127 45.3255L308.434 42.693L311.206 41.9657C311.382 41.9077 311.568 41.8866 311.753 41.9037C311.937 41.9208 312.117 41.9759 312.279 42.0652C312.442 42.1546 312.584 42.2764 312.697 42.4232C312.811 42.5699 312.893 42.7384 312.938 42.9182C312.982 43.0957 312.989 43.2801 312.96 43.4606C312.931 43.641 312.866 43.8138 312.769 43.9688C312.672 44.1238 312.545 44.2578 312.396 44.3629C312.246 44.468 312.077 44.542 311.899 44.5807V44.5807Z" stroke="#333333" stroke-width="0.6" stroke-linecap="round" stroke-linejoin="round"/>
<path d="M312.638 47.2299L309.867 47.9746L309.156 45.3422L311.928 44.6147C312.104 44.5541 312.291 44.531 312.477 44.5469C312.662 44.5628 312.842 44.6174 313.006 44.7071C313.169 44.7968 313.311 44.9197 313.424 45.0679C313.537 45.2161 313.618 45.3861 313.661 45.5673C313.707 45.7437 313.717 45.9276 313.69 46.1079C313.663 46.2883 313.6 46.4615 313.505 46.6168C313.409 46.7722 313.283 46.9066 313.134 47.0119C312.985 47.1173 312.817 47.1914 312.638 47.2299V47.2299Z" stroke="#333333" stroke-width="0.6" stroke-linecap="round" stroke-linejoin="round"/>
<path d="M311.414 39.2285C312.009 39.2532 312.596 39.3822 313.147 39.6095" stroke="#333333" stroke-width="0.6" stroke-linecap="round" stroke-linejoin="round"/>
<path d="M306.133 42.6318C306.482 41.7121 307.074 40.9043 307.846 40.2944C308.617 39.6844 309.54 39.2951 310.516 39.168" stroke="#333333" stroke-width="0.6" stroke-linecap="round" stroke-linejoin="round"/>
<path d="M338.254 41.4529C339.626 41.4565 340.969 41.0528 342.112 40.293C343.255 39.5331 344.147 38.4512 344.674 37.1843C345.202 35.9175 345.342 34.5224 345.076 33.176C344.811 31.8295 344.152 30.5922 343.183 29.6205C342.213 28.6488 340.978 27.9865 339.632 27.7174C338.286 27.4483 336.891 27.5846 335.622 28.109C334.354 28.6333 333.27 29.5222 332.507 30.663C331.744 31.8039 331.337 33.1455 331.337 34.5179C331.337 36.3541 332.065 38.1152 333.362 39.4153C334.658 40.7153 336.418 41.4481 338.254 41.4529Z" fill="#78C7E0" stroke="#333333" stroke-width="0.6"/>
<path d="M338.965 34.4308L336.193 35.1756L335.5 32.5431L338.272 31.8158C338.448 31.7578 338.634 31.7367 338.819 31.7538C339.004 31.7709 339.183 31.826 339.345 31.9153C339.508 32.0047 339.65 32.1265 339.764 32.2733C339.877 32.42 339.959 32.5885 340.004 32.7683C340.048 32.9458 340.055 33.1302 340.026 33.3107C339.997 33.4911 339.933 33.6639 339.836 33.8189C339.739 33.9739 339.612 34.1079 339.462 34.213C339.313 34.3181 339.144 34.3921 338.965 34.4308V34.4308Z" stroke="#333333" stroke-width="0.6" stroke-linecap="round" stroke-linejoin="round"/>
<path d="M339.705 37.0805L336.933 37.8252L336.223 35.1928L338.995 34.4653C339.171 34.4047 339.358 34.3816 339.543 34.3975C339.729 34.4134 339.909 34.468 340.072 34.5577C340.235 34.6474 340.378 34.7703 340.491 34.9185C340.603 35.0666 340.684 35.2367 340.727 35.4178C340.773 35.5942 340.783 35.7782 340.756 35.9585C340.73 36.1389 340.667 36.312 340.571 36.4674C340.476 36.6227 340.35 36.7572 340.201 36.8625C340.052 36.9679 339.883 37.042 339.705 37.0805V37.0805Z" stroke="#333333" stroke-width="0.6" stroke-linecap="round" stroke-linejoin="round"/>
<path d="M338.48 29.0786C339.076 29.1033 339.662 29.2322 340.213 29.4596" stroke="#333333" stroke-width="0.6" stroke-linecap="round" stroke-linejoin="round"/>
<path d="M333.195 32.4823C333.544 31.5627 334.136 30.7549 334.908 30.145C335.68 29.535 336.603 29.1457 337.578 29.0186" stroke="#333333" stroke-width="0.6" stroke-linecap="round" stroke-linejoin="round"/>
<path d="M359.399 47.3738C360.771 47.3774 362.114 46.9737 363.256 46.2139C364.399 45.454 365.291 44.3721 365.819 43.1052C366.347 41.8384 366.486 40.4433 366.221 39.0969C365.955 37.7504 365.296 36.5131 364.327 35.5414C363.358 34.5697 362.122 33.9074 360.776 33.6383C359.431 33.3692 358.035 33.5055 356.767 34.0299C355.498 34.5542 354.414 35.4431 353.651 36.5839C352.888 37.7248 352.481 39.0664 352.481 40.4388C352.481 42.275 353.209 44.0361 354.506 45.3362C355.803 46.6362 357.562 47.369 359.399 47.3738Z" fill="#78C7E0" stroke="#333333" stroke-width="0.6"/>
<path d="M360.109 40.3517L357.338 41.0965L356.645 38.464L359.416 37.7367C359.593 37.6787 359.779 37.6576 359.964 37.6747C360.148 37.6918 360.327 37.7469 360.49 37.8362C360.652 37.9256 360.795 38.0474 360.908 38.1942C361.022 38.3409 361.104 38.5094 361.149 38.6892C361.192 38.8667 361.2 39.0511 361.171 39.2316C361.142 39.412 361.077 39.5848 360.98 39.7398C360.883 39.8948 360.756 40.0288 360.607 40.1339C360.457 40.239 360.288 40.313 360.109 40.3517V40.3517Z" stroke="#333333" stroke-width="0.6" stroke-linecap="round" stroke-linejoin="round"/>
<path d="M360.849 43.0009L358.077 43.7456L357.367 41.1132L360.139 40.3857C360.315 40.3251 360.502 40.302 360.688 40.3179C360.873 40.3338 361.053 40.3884 361.217 40.4781C361.38 40.5678 361.522 40.6907 361.635 40.8389C361.748 40.987 361.829 41.1571 361.872 41.3382C361.918 41.5146 361.928 41.6986 361.901 41.8789C361.874 42.0593 361.811 42.2325 361.716 42.3878C361.62 42.5432 361.494 42.6776 361.345 42.7829C361.196 42.8883 361.028 42.9624 360.849 43.0009V43.0009Z" stroke="#333333" stroke-width="0.6" stroke-linecap="round" stroke-linejoin="round"/>
<path d="M359.625 34.9995C360.22 35.0242 360.807 35.1531 361.357 35.3805" stroke="#333333" stroke-width="0.6" stroke-linecap="round" stroke-linejoin="round"/>
<path d="M354.344 38.4028C354.693 37.4831 355.285 36.6753 356.056 36.0654C356.828 35.4554 357.751 35.0661 358.727 34.939" stroke="#333333" stroke-width="0.6" stroke-linecap="round" stroke-linejoin="round"/>
<path d="M389.004 38.0701C390.376 38.0736 391.719 37.67 392.862 36.9102C394.005 36.1503 394.897 35.0684 395.424 33.8015C395.952 32.5346 396.092 31.1396 395.826 29.7932C395.561 28.4467 394.902 27.2094 393.933 26.2377C392.963 25.266 391.728 24.6037 390.382 24.3346C389.036 24.0655 387.641 24.2018 386.372 24.7262C385.104 25.2505 384.02 26.1394 383.257 27.2802C382.494 28.4211 382.087 29.7627 382.087 31.1351C382.087 32.9712 382.815 34.7324 384.112 36.0324C385.408 37.3325 387.168 38.0653 389.004 38.0701Z" fill="#78C7E0" stroke="#333333" stroke-width="0.6"/>
<path d="M389.715 31.048L386.943 31.7928L386.25 29.1603L389.022 28.4329C389.198 28.375 389.384 28.3539 389.569 28.371C389.754 28.3881 389.933 28.4432 390.095 28.5325C390.258 28.6219 390.4 28.7437 390.514 28.8904C390.627 29.0372 390.709 29.2057 390.754 29.3855C390.798 29.563 390.805 29.7474 390.776 29.9278C390.747 30.1083 390.683 30.2811 390.586 30.4361C390.489 30.5911 390.362 30.725 390.212 30.8302C390.063 30.9353 389.894 31.0093 389.715 31.048V31.048Z" stroke="#333333" stroke-width="0.6" stroke-linecap="round" stroke-linejoin="round"/>
<path d="M390.455 33.6977L387.683 34.4424L386.973 31.81L389.745 31.0825C389.921 31.0218 390.108 30.9987 390.293 31.0146C390.479 31.0305 390.659 31.0852 390.822 31.1749C390.985 31.2646 391.128 31.3875 391.241 31.5357C391.353 31.6838 391.434 31.8539 391.477 32.035C391.523 32.2114 391.533 32.3953 391.506 32.5757C391.48 32.7561 391.417 32.9292 391.321 33.0846C391.226 33.2399 391.1 33.3743 390.951 33.4797C390.802 33.5851 390.633 33.6592 390.455 33.6977V33.6977Z" stroke="#333333" stroke-width="0.6" stroke-linecap="round" stroke-linejoin="round"/>
<path d="M389.23 25.6958C389.826 25.7205 390.412 25.8494 390.963 26.0768" stroke="#333333" stroke-width="0.6" stroke-linecap="round" stroke-linejoin="round"/>
<path d="M383.945 29.099C384.294 28.1794 384.886 27.3716 385.658 26.7617C386.43 26.1517 387.353 25.7624 388.328 25.6353" stroke="#333333" stroke-width="0.6" stroke-linecap="round" stroke-linejoin="round"/>
<path d="M411.844 38.9158C413.216 38.9193 414.559 38.5157 415.702 37.7559C416.845 36.996 417.736 35.9141 418.264 34.6472C418.792 33.3803 418.932 31.9853 418.666 30.6389C418.401 29.2924 417.742 28.0551 416.772 27.0834C415.803 26.1117 414.567 25.4494 413.222 25.1803C411.876 24.9112 410.48 25.0475 409.212 25.5719C407.944 26.0962 406.86 26.9851 406.097 28.1259C405.334 29.2668 404.927 30.6084 404.927 31.9808C404.927 33.8169 405.655 35.5781 406.951 36.8781C408.248 38.1782 410.008 38.911 411.844 38.9158Z" fill="#78C7E0" stroke="#333333" stroke-width="0.6"/>
<path d="M412.555 31.8937L409.783 32.6385L409.09 30.006L411.862 29.2786C412.038 29.2207 412.224 29.1996 412.409 29.2167C412.594 29.2338 412.773 29.2889 412.935 29.3782C413.098 29.4676 413.24 29.5894 413.354 29.7361C413.467 29.8829 413.549 30.0514 413.594 30.2312C413.638 30.4087 413.645 30.5931 413.616 30.7736C413.587 30.954 413.522 31.1268 413.426 31.2818C413.329 31.4368 413.202 31.5707 413.052 31.6759C412.903 31.781 412.733 31.855 412.555 31.8937V31.8937Z" stroke="#333333" stroke-width="0.6" stroke-linecap="round" stroke-linejoin="round"/>
<path d="M413.295 34.5429L410.523 35.2876L409.812 32.6552L412.584 31.9277C412.76 31.8671 412.947 31.844 413.133 31.8599C413.319 31.8758 413.499 31.9304 413.662 32.0201C413.825 32.1098 413.968 32.2327 414.08 32.3809C414.193 32.529 414.274 32.6991 414.317 32.8802C414.363 33.0566 414.373 33.2406 414.346 33.4209C414.319 33.6013 414.256 33.7744 414.161 33.9298C414.065 34.0852 413.939 34.2196 413.791 34.3249C413.642 34.4303 413.473 34.5044 413.295 34.5429V34.5429Z" stroke="#333333" stroke-width="0.6" stroke-linecap="round" stroke-linejoin="round"/>
<path d="M412.07 26.5415C412.666 26.5662 413.252 26.6951 413.803 26.9225" stroke="#333333" stroke-width="0.6" stroke-linecap="round" stroke-linejoin="round"/>
<path d="M406.785 29.9452C407.134 29.0256 407.726 28.2178 408.498 27.6079C409.27 26.9979 410.193 26.6086 411.168 26.4814" stroke="#333333" stroke-width="0.6" stroke-linecap="round" stroke-linejoin="round"/>
<path d="M293.131 136.446C294.613 136.449 296.063 136.014 297.297 135.193C298.532 134.372 299.495 133.204 300.064 131.836C300.634 130.468 300.785 128.961 300.499 127.507C300.212 126.053 299.5 124.717 298.453 123.668C297.407 122.618 296.072 121.903 294.619 121.612C293.166 121.322 291.659 121.469 290.289 122.035C288.919 122.602 287.748 123.561 286.925 124.793C286.101 126.025 285.661 127.474 285.661 128.956C285.661 130.939 286.447 132.841 287.848 134.245C289.248 135.649 291.148 136.44 293.131 136.446Z" fill="#78C7E0" stroke="#333333" stroke-width="0.6"/>
<path d="M293.899 128.863L290.895 129.67L290.145 126.817L293.148 126.028C293.339 125.966 293.541 125.943 293.741 125.961C293.941 125.98 294.135 126.04 294.311 126.136C294.487 126.233 294.642 126.365 294.764 126.524C294.887 126.683 294.976 126.866 295.025 127.061C295.072 127.253 295.08 127.453 295.049 127.649C295.018 127.844 294.947 128.032 294.842 128.2C294.737 128.368 294.6 128.513 294.438 128.627C294.276 128.741 294.092 128.821 293.899 128.863V128.863Z" stroke="#333333" stroke-width="0.6" stroke-linecap="round" stroke-linejoin="round"/>
<path d="M294.703 131.734L291.699 132.541L290.93 129.688L293.933 128.899C294.124 128.833 294.326 128.808 294.527 128.826C294.729 128.843 294.924 128.902 295.101 128.999C295.277 129.097 295.432 129.23 295.554 129.39C295.676 129.551 295.764 129.735 295.81 129.932C295.86 130.123 295.871 130.322 295.842 130.518C295.813 130.713 295.745 130.901 295.641 131.069C295.538 131.237 295.401 131.383 295.24 131.497C295.079 131.612 294.896 131.692 294.703 131.734V131.734Z" stroke="#333333" stroke-width="0.6" stroke-linecap="round" stroke-linejoin="round"/>
<path d="M293.375 123.062C294.02 123.089 294.655 123.229 295.252 123.475" stroke="#333333" stroke-width="0.6" stroke-linecap="round" stroke-linejoin="round"/>
<path d="M287.652 126.752C288.03 125.755 288.672 124.88 289.508 124.218C290.344 123.557 291.344 123.135 292.402 122.998" stroke="#333333" stroke-width="0.6" stroke-linecap="round" stroke-linejoin="round"/>
<path d="M450.037 150.824C451.436 150.828 452.804 150.417 453.968 149.643C455.133 148.868 456.042 147.766 456.579 146.475C457.117 145.184 457.26 143.763 456.989 142.391C456.718 141.019 456.047 139.758 455.059 138.768C454.072 137.778 452.813 137.103 451.441 136.829C450.07 136.555 448.648 136.694 447.356 137.228C446.063 137.762 444.959 138.668 444.181 139.83C443.404 140.993 442.989 142.36 442.989 143.758C442.989 145.629 443.731 147.424 445.052 148.748C446.374 150.073 448.166 150.82 450.037 150.824Z" fill="#78C7E0" stroke="#333333" stroke-width="0.6"/>
<path d="M450.76 143.669L447.933 144.429L447.227 141.744L450.053 141.002C450.233 140.943 450.423 140.921 450.611 140.939C450.8 140.956 450.982 141.012 451.148 141.103C451.314 141.194 451.459 141.319 451.575 141.468C451.69 141.618 451.774 141.79 451.82 141.973C451.864 142.154 451.872 142.343 451.843 142.527C451.813 142.711 451.747 142.887 451.648 143.045C451.549 143.203 451.42 143.34 451.267 143.447C451.115 143.554 450.942 143.63 450.76 143.669V143.669Z" stroke="#333333" stroke-width="0.6" stroke-linecap="round" stroke-linejoin="round"/>
<path d="M451.516 146.372L448.689 147.132L447.965 144.447L450.792 143.705C450.971 143.643 451.162 143.619 451.351 143.635C451.54 143.652 451.724 143.707 451.89 143.799C452.057 143.89 452.202 144.016 452.317 144.167C452.432 144.318 452.514 144.491 452.558 144.676C452.605 144.856 452.616 145.044 452.588 145.228C452.561 145.412 452.497 145.588 452.399 145.747C452.302 145.905 452.173 146.042 452.022 146.15C451.87 146.257 451.698 146.333 451.516 146.372V146.372Z" stroke="#333333" stroke-width="0.6" stroke-linecap="round" stroke-linejoin="round"/>
<path d="M450.27 138.21C450.877 138.236 451.475 138.367 452.036 138.599" stroke="#333333" stroke-width="0.6" stroke-linecap="round" stroke-linejoin="round"/>
<path d="M444.879 141.684C445.235 140.746 445.838 139.922 446.625 139.299C447.413 138.677 448.354 138.28 449.349 138.15" stroke="#333333" stroke-width="0.6" stroke-linecap="round" stroke-linejoin="round"/>
</svg>
