<svg width="24" height="24" viewBox="0 0 24 24" fill="none" xmlns="http://www.w3.org/2000/svg">
<path d="M2.43329 16.725L5.60542 11.794L2.43329 6.86309C1.8889 6.02556 1.85749 5.17212 2.33907 4.30277C2.82065 3.43426 3.56395 3 4.56898 3H15.0276C15.4464 3 15.8392 3.09422 16.206 3.28266C16.572 3.47111 16.8702 3.73284 17.1005 4.06785L21.5289 10.3493C21.843 10.789 22 11.2706 22 11.794C22 12.3175 21.843 12.7991 21.5289 13.2388L17.1005 19.5202C16.8702 19.8552 16.572 20.1169 16.206 20.3054C15.8392 20.4938 15.4464 20.5881 15.0276 20.5881H4.56898C3.56395 20.5881 2.82065 20.1534 2.33907 19.284C1.85749 18.4155 1.8889 17.5625 2.43329 16.725Z" fill="#031F2B"/>
</svg>
