<svg width="346" height="300" viewBox="0 0 346 300" fill="none" xmlns="http://www.w3.org/2000/svg">
<rect width="346" height="300" fill="#D0E2FF"/>
<path d="M128.91 110.478C125.613 117.459 123.811 125.373 123.811 133.909H97.5849C82.4444 133.909 70 146.627 70 162.454C70 178.127 82.2942 191 97.5849 191H252.423C267.556 191 280 178.282 280 162.454C280 146.782 267.706 133.909 252.423 133.909H226.189C226.189 104.586 203.253 81 175.075 81C161.136 81 148.391 86.8926 139.101 96.2057" fill="#78C7E0"/>
<path d="M128.91 110.478C125.613 117.459 123.811 125.373 123.811 133.909H97.5849C82.4444 133.909 70 146.627 70 162.454C70 178.127 82.2942 191 97.5849 191H252.423C267.556 191 280 178.282 280 162.454C280 146.782 267.706 133.909 252.423 133.909H226.189C226.189 104.586 203.253 81 175.075 81C161.136 81 148.391 86.8926 139.101 96.2057" stroke="#333333" stroke-width="0.6" stroke-linecap="round" stroke-linejoin="round"/>
<path d="M144.316 166.322H159.152C159.205 166.322 167.253 168.544 174.428 168.544C182.629 168.544 188.891 166.737 191.643 166.322H206.539V232.527H198.498C198.444 232.527 185.927 230.152 174.808 230.152C167.573 230.152 161.85 230.873 152.303 232.527H144.316V166.322Z" fill="#ABEDD8"/>
<path fill-rule="evenodd" clip-rule="evenodd" d="M144 166.321C144 166.144 144.143 166 144.32 166H159.157C159.181 166 159.201 166.003 159.205 166.004C159.211 166.005 159.217 166.006 159.22 166.006C159.227 166.007 159.232 166.009 159.236 166.01L159.262 166.016C159.28 166.02 159.306 166.027 159.337 166.035C159.355 166.039 159.374 166.044 159.396 166.05C159.453 166.065 159.526 166.083 159.613 166.105C159.851 166.166 160.196 166.252 160.631 166.356C161.502 166.563 162.732 166.84 164.184 167.117C167.091 167.67 170.874 168.222 174.433 168.222C180.695 168.222 185.798 167.167 189.101 166.484C190.107 166.276 190.946 166.102 191.6 166.004C191.615 166.001 191.631 166 191.647 166H206.544C206.721 166 206.864 166.144 206.864 166.321V232.527C206.864 232.704 206.721 232.848 206.544 232.848H198.503C198.493 232.848 198.478 232.847 198.473 232.847L198.462 232.846L198.452 232.844L198.439 232.842L198.406 232.836L198.283 232.814C198.186 232.797 198.047 232.772 197.87 232.741C197.502 232.676 196.966 232.584 196.29 232.473C194.938 232.25 193.024 231.954 190.766 231.658C186.246 231.065 180.352 230.473 174.812 230.473C167.605 230.473 161.903 231.191 152.363 232.843C152.345 232.846 152.326 232.848 152.308 232.848H144.32C144.143 232.848 144 232.704 144 232.527V166.321ZM144.641 166.643V232.205H152.281C161.818 230.554 167.557 229.83 174.812 229.83C180.392 229.83 186.316 230.426 190.849 231.02C193.116 231.318 195.036 231.615 196.394 231.838C197.073 231.95 197.611 232.043 197.981 232.108C198.157 232.139 198.295 232.164 198.392 232.181L198.517 232.203L198.528 232.205H206.223V166.643H191.671C191.054 166.737 190.25 166.903 189.279 167.104C185.985 167.786 180.773 168.865 174.433 168.865C170.816 168.865 166.988 168.305 164.064 167.748C162.601 167.469 161.361 167.19 160.483 166.981C160.044 166.877 159.696 166.789 159.455 166.728C159.368 166.706 159.294 166.687 159.236 166.672C159.215 166.667 159.196 166.662 159.179 166.658L159.12 166.643H144.641Z" fill="#333333"/>
<path d="M192.686 198.858H158.203C154.965 198.858 152.374 201.335 152.374 204.444V232.474H198.515V204.496C198.568 201.392 195.923 198.858 192.686 198.858Z" fill="#3D84A8"/>
<path fill-rule="evenodd" clip-rule="evenodd" d="M152.065 204.445C152.065 201.145 154.814 198.537 158.215 198.537H192.697C196.096 198.537 198.902 201.201 198.847 204.499V232.475C198.847 232.653 198.704 232.796 198.527 232.796H152.385C152.208 232.796 152.065 232.653 152.065 232.475V204.445ZM158.215 199.18C155.14 199.18 152.706 201.527 152.706 204.445V232.154H198.206V204.491C198.256 201.584 195.773 199.18 192.697 199.18H158.215Z" fill="#333333"/>
<path d="M191.681 180.445L183.533 185.719H159.19V166.322H191.681V180.445Z" fill="#3D84A8"/>
<path fill-rule="evenodd" clip-rule="evenodd" d="M158.881 166.321C158.881 166.144 159.024 166 159.201 166H191.692C191.869 166 192.013 166.144 192.013 166.321V180.445C192.013 180.554 191.957 180.656 191.866 180.715L183.718 185.989C183.666 186.022 183.606 186.04 183.544 186.04H159.201C159.024 186.04 158.881 185.896 158.881 185.719V166.321ZM159.522 166.643V185.397H183.45L191.372 180.27V166.643H159.522Z" fill="#333333"/>
<path d="M167.165 166.322H163.494V181.837H167.165V166.322Z" fill="#54C4C9"/>
<path fill-rule="evenodd" clip-rule="evenodd" d="M163.172 166.321C163.172 166.144 163.316 166 163.492 166H167.163C167.34 166 167.484 166.144 167.484 166.321V181.837C167.484 182.014 167.34 182.158 167.163 182.158H163.492C163.316 182.158 163.172 182.014 163.172 181.837V166.321ZM163.813 166.643V181.515H166.843V166.643H163.813Z" fill="#333333"/>
<path d="M175 160L175 124" stroke="#333333" stroke-width="0.6" stroke-linecap="round" stroke-linejoin="round"/>
<path d="M167 131.552L174.968 124L183 131.552" stroke="#333333" stroke-width="0.6" stroke-linecap="round" stroke-linejoin="round"/>
</svg>
