<svg width="346" height="300" viewBox="0 0 346 300" fill="none" xmlns="http://www.w3.org/2000/svg">
<rect width="346" height="300" fill="#D0E2FF"/>
<path d="M175.309 155L175.309 175" stroke="#333333" stroke-width="0.6" stroke-linecap="round" stroke-linejoin="round"/>
<path d="M204.744 236.54H118.262L143.147 171.659H229.634L204.744 236.54Z" fill="#ABEDD8"/>
<path d="M212.128 217.347L204.746 236.54H185.586" stroke="#333333" stroke-width="0.6" stroke-linecap="round" stroke-linejoin="round"/>
<path d="M182.119 236.54H177.961" stroke="#333333" stroke-width="0.6" stroke-linecap="round" stroke-linejoin="round"/>
<path d="M177.958 236.54H137.422" stroke="#333333" stroke-width="0.6" stroke-linecap="round" stroke-linejoin="round"/>
<path d="M137.422 236.54H118.262L125.601 217.347" stroke="#333333" stroke-width="0.6" stroke-linecap="round" stroke-linejoin="round"/>
<path d="M130.242 205.326L135.767 190.853" stroke="#333333" stroke-width="0.6" stroke-linecap="round" stroke-linejoin="round"/>
<path d="M135.766 190.852L143.147 171.659H162.308" stroke="#333333" stroke-width="0.6" stroke-linecap="round" stroke-linejoin="round"/>
<path d="M165.781 171.659H169.935" stroke="#333333" stroke-width="0.6" stroke-linecap="round" stroke-linejoin="round"/>
<path d="M169.934 171.659H210.474" stroke="#333333" stroke-width="0.6" stroke-linecap="round" stroke-linejoin="round"/>
<path d="M210.473 171.659H229.633L222.29 190.852" stroke="#333333" stroke-width="0.6" stroke-linecap="round" stroke-linejoin="round"/>
<path d="M217.654 202.878L212.125 217.347" stroke="#333333" stroke-width="0.6" stroke-linecap="round" stroke-linejoin="round"/>
<path d="M174.893 207.468C177.861 207.468 180.26 204.863 180.26 201.652C180.26 198.441 177.861 195.836 174.893 195.836C171.935 195.836 169.531 198.441 169.531 201.652C169.531 204.863 171.935 207.468 174.893 207.468Z" fill="#46CDCF" stroke="#333333" stroke-width="0.6" stroke-linecap="round" stroke-linejoin="round"/>
<path d="M89.5 240.08H206.64V231.645H97.2829C92.9667 231.645 89.5 235.448 89.5 240.08Z" fill="#ABEDD8" stroke="#333333" stroke-width="0.6" stroke-linecap="round" stroke-linejoin="round"/>
<path d="M86.7305 138.756V160H263.882V60H86.7305V98.7336V138.756Z" fill="#ABEDD8" stroke="#333333" stroke-width="0.6" stroke-linecap="round" stroke-linejoin="round"/>
<path d="M157.736 69.334H203.528V149.468H146.473V79.5173V75.4857V69.334H153.872" fill="#48466D"/>
<path d="M157.736 69.334H203.528V149.468H146.473V79.5173V75.4857V69.334H153.872" stroke="#333333" stroke-width="0.6" stroke-linecap="round" stroke-linejoin="round"/>
<path d="M146.473 75.4857V69.334H153.872" stroke="#333333" stroke-width="0.6" stroke-linecap="round" stroke-linejoin="round"/>
<path d="M168.27 72.9824H181.723" stroke="#333333" stroke-width="0.6" stroke-linecap="round" stroke-linejoin="round"/>
<path d="M198.779 76.0439H151.219V143.544H198.779V76.0439Z" fill="#78C7E0" stroke="#333333" stroke-width="0.6" stroke-linecap="round" stroke-linejoin="round"/>
<path d="M180.221 80.7393H156.441V91.3045H180.221V80.7393Z" fill="#3D84A8" stroke="#333333" stroke-width="0.6" stroke-linecap="round" stroke-linejoin="round"/>
<path d="M165.717 93.6523H156.438V103.044H165.717V93.6523Z" fill="#46CDCF" stroke="#333333" stroke-width="0.6" stroke-linecap="round" stroke-linejoin="round"/>
<path d="M165.717 105.392H156.438V114.783H165.717V105.392Z" fill="#46CDCF" stroke="#333333" stroke-width="0.6" stroke-linecap="round" stroke-linejoin="round"/>
<path d="M165.717 117.131H156.438V126.522H165.717V117.131Z" fill="#46CDCF" stroke="#333333" stroke-width="0.6" stroke-linecap="round" stroke-linejoin="round"/>
<path d="M165.717 128.87H156.438V138.261H165.717V128.87Z" fill="#46CDCF" stroke="#333333" stroke-width="0.6" stroke-linecap="round" stroke-linejoin="round"/>
<path d="M179.639 93.6523H170.359V103.044H179.639V93.6523Z" fill="#46CDCF" stroke="#333333" stroke-width="0.6" stroke-linecap="round" stroke-linejoin="round"/>
<path d="M179.639 105.392H170.359V114.783H179.639V105.392Z" fill="#46CDCF" stroke="#333333" stroke-width="0.6" stroke-linecap="round" stroke-linejoin="round"/>
<path d="M179.639 117.131H170.359V126.522H179.639V117.131Z" fill="#46CDCF" stroke="#333333" stroke-width="0.6" stroke-linecap="round" stroke-linejoin="round"/>
<path d="M179.639 128.87H170.359V138.261H179.639V128.87Z" fill="#46CDCF" stroke="#333333" stroke-width="0.6" stroke-linecap="round" stroke-linejoin="round"/>
<path d="M193.561 93.6523H184.281V103.044H193.561V93.6523Z" fill="#46CDCF" stroke="#333333" stroke-width="0.6" stroke-linecap="round" stroke-linejoin="round"/>
<path d="M193.561 105.392H184.281V114.783H193.561V105.392Z" fill="#46CDCF" stroke="#333333" stroke-width="0.6" stroke-linecap="round" stroke-linejoin="round"/>
<path d="M193.561 117.131H184.281V126.522H193.561V117.131Z" fill="#46CDCF" stroke="#333333" stroke-width="0.6" stroke-linecap="round" stroke-linejoin="round"/>
<path d="M193.561 128.87H184.281V138.261H193.561V128.87Z" fill="#46CDCF" stroke="#333333" stroke-width="0.6" stroke-linecap="round" stroke-linejoin="round"/>
</svg>
