<svg width="346" height="300" viewBox="0 0 346 300" fill="none" xmlns="http://www.w3.org/2000/svg">
<rect width="346" height="300" fill="#D0E2FF"/>
<path d="M135.947 65.6992H233.308V233.881H112V87.0716V78.6103V65.6992H127.731" fill="#48466D"/>
<path d="M135.947 65.6992H233.308V233.881H112V87.0716V78.6103V65.6992H127.731" stroke="#333333" stroke-width="0.6" stroke-linecap="round" stroke-linejoin="round"/>
<path d="M112 78.6103V65.6992H127.731" stroke="#333333" stroke-width="0.6" stroke-linecap="round" stroke-linejoin="round"/>
<path d="M158.352 73.3594H186.956" stroke="#333333" stroke-width="0.6" stroke-linecap="round" stroke-linejoin="round"/>
<path d="M223.221 79.7812H122.102V221.448H223.221V79.7812Z" fill="#78C7E0" stroke="#333333" stroke-width="0.6" stroke-linecap="round" stroke-linejoin="round"/>
<path d="M183.755 89.6367H133.195V111.811H183.755V89.6367Z" fill="#3D84A8" stroke="#333333" stroke-width="0.6" stroke-linecap="round" stroke-linejoin="round"/>
<path d="M152.926 116.738H133.195V136.448H152.926V116.738Z" fill="#46CDCF" stroke="#333333" stroke-width="0.6" stroke-linecap="round" stroke-linejoin="round"/>
<path d="M152.926 141.379H133.195V161.089H152.926V141.379Z" fill="#46CDCF" stroke="#333333" stroke-width="0.6" stroke-linecap="round" stroke-linejoin="round"/>
<path d="M152.926 166.016H133.195V185.726H152.926V166.016Z" fill="#46CDCF" stroke="#333333" stroke-width="0.6" stroke-linecap="round" stroke-linejoin="round"/>
<path d="M152.926 190.652H133.195V210.362H152.926V190.652Z" fill="#46CDCF" stroke="#333333" stroke-width="0.6" stroke-linecap="round" stroke-linejoin="round"/>
<path d="M182.52 116.738H162.789V136.448H182.52V116.738Z" fill="#46CDCF" stroke="#333333" stroke-width="0.6" stroke-linecap="round" stroke-linejoin="round"/>
<path d="M182.52 141.379H162.789V161.089H182.52V141.379Z" fill="#46CDCF" stroke="#333333" stroke-width="0.6" stroke-linecap="round" stroke-linejoin="round"/>
<path d="M182.52 166.016H162.789V185.726H182.52V166.016Z" fill="#46CDCF" stroke="#333333" stroke-width="0.6" stroke-linecap="round" stroke-linejoin="round"/>
<path d="M182.52 190.652H162.789V210.362H182.52V190.652Z" fill="#46CDCF" stroke="#333333" stroke-width="0.6" stroke-linecap="round" stroke-linejoin="round"/>
<path d="M212.113 116.738H192.383V136.448H212.113V116.738Z" fill="#46CDCF" stroke="#333333" stroke-width="0.6" stroke-linecap="round" stroke-linejoin="round"/>
<path d="M212.113 141.379H192.383V161.089H212.113V141.379Z" fill="#46CDCF" stroke="#333333" stroke-width="0.6" stroke-linecap="round" stroke-linejoin="round"/>
<path d="M212.113 166.016H192.383V185.726H212.113V166.016Z" fill="#46CDCF" stroke="#333333" stroke-width="0.6" stroke-linecap="round" stroke-linejoin="round"/>
<path d="M212.113 190.652H192.383V210.362H212.113V190.652Z" fill="#46CDCF" stroke="#333333" stroke-width="0.6" stroke-linecap="round" stroke-linejoin="round"/>
<path d="M229.293 101.224C245.477 101.224 258.586 87.9725 258.586 71.6121C258.586 55.2517 245.477 42 229.293 42C213.109 42 200 55.2517 200 71.6121C200 87.9725 213.109 101.224 229.293 101.224Z" fill="white" stroke="#333333" stroke-width="0.6" stroke-linecap="round" stroke-linejoin="round"/>
<path d="M214.982 63.5479L226.767 51.2266C226.767 51.2266 226.767 51.2266 226.781 51.2266H226.798L233.628 59.0518V59.0661C233.628 59.0661 233.628 59.0828 233.614 59.0828L219.903 65.9129H219.889L215.14 64.2424C214.856 64.1469 214.777 63.7675 214.982 63.5479Z" fill="#54C4C9" stroke="#333333" stroke-width="0.6" stroke-linecap="round" stroke-linejoin="round"/>
<path d="M225.58 55.7067L226.778 54.4609L233.641 62.3172L219.9 69.1473L216.32 65.3767L222.425 59.0048" stroke="#333333" stroke-width="0.6" stroke-linecap="round" stroke-linejoin="round"/>
<path d="M223.219 58.1814L224.889 56.4297" stroke="#333333" stroke-width="0.6" stroke-linecap="round" stroke-linejoin="round"/>
<path d="M215.016 63.8469L239.406 54.9023H239.42C239.42 54.9023 239.42 54.9023 239.437 54.9191L242.103 64.0211V64.0378C242.103 64.0378 242.103 64.0378 242.089 64.0378L227.669 67.6175C227.669 67.6175 227.669 67.6175 227.653 67.6175L215.033 64.1619C214.876 64.1308 214.859 63.9113 215.016 63.8469Z" fill="#ABEDD8" stroke="#333333" stroke-width="0.6" stroke-linecap="round" stroke-linejoin="round"/>
<path d="M239.148 61.5742L240.757 67.0965" stroke="#333333" stroke-width="0.6" stroke-linecap="round" stroke-linejoin="round"/>
<path d="M218.562 65.1241L238.093 57.9766L238.819 60.4704" stroke="#333333" stroke-width="0.6" stroke-linecap="round" stroke-linejoin="round"/>
<path d="M214.951 64.0391H243.93C243.946 64.0391 243.946 64.0391 243.946 64.0534V87.2117C243.946 87.2284 243.946 87.2284 243.93 87.2284H214.54C214.523 87.2284 214.523 87.2284 214.523 87.2117V64.4471C214.523 64.2276 214.712 64.0391 214.951 64.0391Z" fill="#78C7E0" stroke="#333333" stroke-width="0.6" stroke-linecap="round" stroke-linejoin="round"/>
<path d="M245.99 80.3808C245.99 80.3975 245.99 80.3975 245.974 80.3975H238.576C236.509 80.3975 234.836 78.7245 234.836 76.6746V74.5745C234.836 72.5078 236.509 70.8516 238.576 70.8516H245.974C245.99 70.8516 245.99 70.8516 245.99 70.8683V80.3808Z" fill="#78C7E0" stroke="#333333" stroke-width="0.6" stroke-linecap="round" stroke-linejoin="round"/>
</svg>
