<svg width="24" height="24" viewBox="0 0 24 24" fill="none" xmlns="http://www.w3.org/2000/svg">
<path d="M14.1639 18H23.0164V19C23.0164 20.1 22.1311 21 21.0492 21H7.27869C6.19672 21 5.31148 20.1 5.31148 19V18H5.80328C6.88525 18 7.77049 17.1 7.77049 16V15H8.7541C9.83607 15 10.7213 14.1 10.7213 13V11C10.7213 9.9 9.83607 9 8.7541 9H7.77049V8C7.77049 6.9 6.88525 6 5.80328 6H5.31148V5C5.31148 3.9 6.19672 3 7.27869 3H21.0492C22.1311 3 23.0164 3.9 23.0164 5V6H14.1639C13.082 6 12.1967 6.9 12.1967 8V16C12.1967 17.1 13.082 18 14.1639 18ZM24 8V16H15.1475C14.6557 16 14.1639 15.5 14.1639 15V9C14.1639 8.5 14.6557 8 15.1475 8H24ZM19.5738 12C19.5738 11.2 18.8852 10.5 18.0984 10.5C17.3115 10.5 16.623 11.2 16.623 12C16.623 12.8 17.3115 13.5 18.0984 13.5C18.8852 13.5 19.5738 12.8 19.5738 12ZM5.5082 10.8H8.7541V13H5.5082V16.5H4.32787H3.14754V13.2H0V11H3.2459V7.5H4.42623H5.60656V10.8H5.5082Z" fill="#031F2B"/>
</svg>
