<svg width="36" height="36" viewBox="0 0 36 36" fill="none" xmlns="http://www.w3.org/2000/svg">
<g clip-path="url(#clip0_52_821)">
<path d="M21.2459 27H34.5246V28.5C34.5246 30.15 33.1967 31.5 31.5738 31.5H10.918C9.29508 31.5 7.96721 30.15 7.96721 28.5V27H8.70492C10.3279 27 11.6557 25.65 11.6557 24V22.5H13.1311C14.7541 22.5 16.082 21.15 16.082 19.5V16.5C16.082 14.85 14.7541 13.5 13.1311 13.5H11.6557V12C11.6557 10.35 10.3279 9 8.70492 9H7.96721V7.5C7.96721 5.85 9.29508 4.5 10.918 4.5H31.5738C33.1967 4.5 34.5246 5.85 34.5246 7.5V9H21.2459C19.623 9 18.2951 10.35 18.2951 12V24C18.2951 25.65 19.623 27 21.2459 27ZM36 12V24H22.7213C21.9836 24 21.2459 23.25 21.2459 22.5V13.5C21.2459 12.75 21.9836 12 22.7213 12H36ZM29.3607 18C29.3607 16.8 28.3279 15.75 27.1475 15.75C25.9672 15.75 24.9344 16.8 24.9344 18C24.9344 19.2 25.9672 20.25 27.1475 20.25C28.3279 20.25 29.3607 19.2 29.3607 18ZM8.26229 16.2H13.1311V19.5H8.26229V24.75H6.4918H4.72131V19.8H0V16.5H4.86885V11.25H6.63934H8.40984V16.2H8.26229Z" fill="#031F2B"/>
</g>
<defs>
<clipPath id="clip0_52_821">
<rect width="36" height="36" fill="white"/>
</clipPath>
</defs>
</svg>
