<svg width="24" height="24" viewBox="0 0 24 24" fill="none" xmlns="http://www.w3.org/2000/svg">
<path d="M18 19H6C5.4 19 5 18.5 5 18V6C5 5.4 5.4 5 6 5H11C11.6 5 12 4.6 12 4C12 3.4 11.6 3 11 3H5C3.9 3 3 3.9 3 5V19C3 20.1 3.9 21 5 21H19C20.1 21 21 20.1 21 19V13C21 12.4 20.5 12 20 12C19.5 12 19 12.4 19 13V18C19 18.5 18.5 19 18 19Z" fill="white"/>
<path d="M9 12.6V14.6C9 14.9 9.1 15 9.3 15H11.3C11.4 15 11.5 15 11.5 14.9L18.8 7.60001L16.3 5.10001L9 12.4C9 12.5 9 12.5 9 12.6ZM20.8 5.70001C21.1 5.40001 21.1 5.00001 20.8 4.80001L19.2 3.20001C18.9 2.90001 18.5 2.90001 18.3 3.20001L17.1 4.40001L19.6 6.90001L20.8 5.70001Z" fill="white"/>
</svg>
