<svg width="24" height="24" viewBox="0 0 24 24" fill="none" xmlns="http://www.w3.org/2000/svg">
<path d="M12.875 22L12.625 19.25H11.625C9.24167 19.25 7.20833 18.4083 5.525 16.725C3.84167 15.0417 3 13.0083 3 10.625C3 8.24167 3.84583 6.20833 5.5375 4.525C7.22917 2.84167 9.275 2 11.675 2C12.8583 2 13.9542 2.2125 14.9625 2.6375C15.9708 3.0625 16.85 3.65833 17.6 4.425C18.35 5.19167 18.9375 6.09583 19.3625 7.1375C19.7875 8.17917 20 9.31667 20 10.55C20 12.7833 19.3708 14.9375 18.1125 17.0125C16.8542 19.0875 15.1083 20.75 12.875 22ZM11.675 16.425C11.9417 16.425 12.1667 16.3333 12.35 16.15C12.5333 15.9667 12.625 15.7417 12.625 15.475C12.625 15.2083 12.5333 14.9833 12.35 14.8C12.1667 14.6167 11.9417 14.525 11.675 14.525C11.4083 14.525 11.1833 14.6167 11 14.8C10.8167 14.9833 10.725 15.2083 10.725 15.475C10.725 15.7417 10.8167 15.9667 11 16.15C11.1833 16.3333 11.4083 16.425 11.675 16.425ZM11.625 13.025C11.7917 13.025 11.9375 12.9667 12.0625 12.85C12.1875 12.7333 12.2667 12.5833 12.3 12.4C12.35 12.1667 12.4542 11.9417 12.6125 11.725C12.7708 11.5083 13.0167 11.2333 13.35 10.9C13.8 10.45 14.1167 10.0375 14.3 9.6625C14.4833 9.2875 14.575 8.88333 14.575 8.45C14.575 7.7 14.3208 7.08333 13.8125 6.6C13.3042 6.11667 12.625 5.875 11.775 5.875C11.1917 5.875 10.6542 6.00417 10.1625 6.2625C9.67083 6.52083 9.275 6.88333 8.975 7.35C8.875 7.5 8.85833 7.65417 8.925 7.8125C8.99167 7.97083 9.11667 8.09167 9.3 8.175C9.43333 8.225 9.575 8.225 9.725 8.175C9.875 8.125 10 8.03333 10.1 7.9C10.2833 7.63333 10.5125 7.4375 10.7875 7.3125C11.0625 7.1875 11.3667 7.125 11.7 7.125C12.2 7.125 12.5917 7.24583 12.875 7.4875C13.1583 7.72917 13.3 8.05 13.3 8.45C13.3 8.76667 13.2083 9.0875 13.025 9.4125C12.8417 9.7375 12.5167 10.1417 12.05 10.625C11.7 10.9917 11.45 11.2958 11.3 11.5375C11.15 11.7792 11.0583 12.0667 11.025 12.4C11.0083 12.5667 11.0583 12.7125 11.175 12.8375C11.2917 12.9625 11.4417 13.025 11.625 13.025Z" fill="#031F2B"/>
</svg>
