<svg width="19" height="18" viewBox="0 0 19 18" fill="none" xmlns="http://www.w3.org/2000/svg">
<g clip-path="url(#clip0_8342_182092)">
<path d="M11.75 15H4.25V5.25C4.25 4.8375 3.9125 4.5 3.5 4.5C3.0875 4.5 2.75 4.8375 2.75 5.25V15C2.75 15.825 3.425 16.5 4.25 16.5H11.75C12.1625 16.5 12.5 16.1625 12.5 15.75C12.5 15.3375 12.1625 15 11.75 15ZM15.5 12V3C15.5 2.175 14.825 1.5 14 1.5H7.25C6.425 1.5 5.75 2.175 5.75 3V12C5.75 12.825 6.425 13.5 7.25 13.5H14C14.825 13.5 15.5 12.825 15.5 12ZM14 12H7.25V3H14V12Z" fill="white"/>
</g>
<defs>
<clipPath id="clip0_8342_182092">
<rect width="18" height="18" fill="white" transform="translate(0.5)"/>
</clipPath>
</defs>
</svg>
