<svg width="349" height="512" viewBox="0 0 349 512" fill="none" xmlns="http://www.w3.org/2000/svg">
<rect width="349" height="512" rx="24" fill="#D0E2FF"/>
<rect width="346" height="300" transform="translate(1.5 106)" fill="#D0E2FF"/>
<path d="M195.3 262.588L195.3 288.988" stroke="#333333" stroke-width="0.792" stroke-linecap="round" stroke-linejoin="round"/>
<path d="M220.7 370.221H106.544L139.392 284.578H253.555L220.7 370.221Z" fill="#ABEDD8"/>
<path d="M230.447 344.887L220.703 370.222H195.412" stroke="#333333" stroke-width="0.792" stroke-linecap="round" stroke-linejoin="round"/>
<path d="M190.836 370.221H185.347" stroke="#333333" stroke-width="0.792" stroke-linecap="round" stroke-linejoin="round"/>
<path d="M185.347 370.221H131.838" stroke="#333333" stroke-width="0.792" stroke-linecap="round" stroke-linejoin="round"/>
<path d="M131.835 370.222H106.544L116.231 344.887" stroke="#333333" stroke-width="0.792" stroke-linecap="round" stroke-linejoin="round"/>
<path d="M122.358 329.019L129.65 309.914" stroke="#333333" stroke-width="0.792" stroke-linecap="round" stroke-linejoin="round"/>
<path d="M129.649 309.913L139.393 284.578H164.684" stroke="#333333" stroke-width="0.792" stroke-linecap="round" stroke-linejoin="round"/>
<path d="M169.268 284.578H174.752" stroke="#333333" stroke-width="0.792" stroke-linecap="round" stroke-linejoin="round"/>
<path d="M174.749 284.578H228.263" stroke="#333333" stroke-width="0.792" stroke-linecap="round" stroke-linejoin="round"/>
<path d="M228.264 284.578H253.556L243.863 309.913" stroke="#333333" stroke-width="0.792" stroke-linecap="round" stroke-linejoin="round"/>
<path d="M237.741 325.787L230.443 344.886" stroke="#333333" stroke-width="0.792" stroke-linecap="round" stroke-linejoin="round"/>
<path d="M181.301 331.845C185.217 331.845 188.384 328.406 188.384 324.168C188.384 319.929 185.217 316.49 181.301 316.49C177.395 316.49 174.223 319.929 174.223 324.168C174.223 328.406 177.395 331.845 181.301 331.845Z" fill="#46CDCF" stroke="#333333" stroke-width="0.792" stroke-linecap="round" stroke-linejoin="round"/>
<path d="M68.5796 374.892H223.204V363.758H78.853C73.1556 363.758 68.5796 368.778 68.5796 374.892Z" fill="#ABEDD8" stroke="#333333" stroke-width="0.792" stroke-linecap="round" stroke-linejoin="round"/>
<path d="M150.946 240.167V262.6H239.65V157H150.946V197.903V240.167Z" fill="#78C7E0" stroke="#333333" stroke-width="0.6336" stroke-linecap="round" stroke-linejoin="round"/>
<path d="M197.51 170.109C197.51 169.276 196.85 168.615 196.019 168.615H182.823C181.99 168.615 181.33 169.276 181.33 170.109C181.33 170.94 181.99 171.603 182.823 171.603H187.302C187.782 171.603 188.135 171.956 188.135 172.433V173.957C188.135 174.434 187.782 174.788 187.302 174.788H182.007C181.174 174.788 180.514 175.45 180.514 176.281V179.469C180.514 180.3 181.174 180.963 182.007 180.963H191.476V228.477C186.686 229.818 183.145 234.205 183.145 239.44C183.145 245.724 188.212 250.788 194.493 250.788C200.745 250.788 205.841 245.677 205.841 239.44C205.841 234.222 202.3 229.818 197.51 228.477V170.109Z" fill="#48466D" stroke="#333333" stroke-width="0.6336" stroke-linecap="round" stroke-linejoin="round"/>
<path d="M195.933 246.956C195.502 247.186 194.995 247.31 194.486 247.31C192.839 247.31 191.469 245.97 191.469 244.293C191.469 242.614 192.807 241.273 194.486 241.273C196.133 241.273 197.503 242.614 197.503 244.293C197.503 244.723 197.426 245.124 197.273 245.477" stroke="#ABEDD8" stroke-width="0.6336" stroke-linecap="round" stroke-linejoin="round"/>
</svg>
