<svg width="97" height="96" viewBox="0 0 97 96" fill="none" xmlns="http://www.w3.org/2000/svg">
<path d="M86.2881 16.4209H32.1943V79.5788H86.2881V16.4209Z" fill="#FDEBD2" stroke="#333333" stroke-width="0.3" stroke-linecap="round" stroke-linejoin="round"/>
<path d="M0.625 74.5919V73.5137H96.625V79.5786H0.625V75.2164" fill="#333333"/>
<path d="M0.625 74.5919V73.5137H96.625V79.5786H0.625V75.2164" stroke="#333333" stroke-width="0.5" stroke-linecap="round" stroke-linejoin="round"/>
<path d="M86.2866 52.6387L46.3174 67.9244L46.4156 78.3341H86.2866V52.6387Z" fill="white" stroke="#333333" stroke-width="0.3" stroke-linecap="round" stroke-linejoin="round"/>
<path d="M46.2079 61.4438V46.9087C46.2079 40.0349 51.7398 34.5029 58.6136 34.5029H73.41C82.15 34.5029 89.2536 41.5731 89.2536 50.3464V64.4887C89.2536 69.1367 85.4896 72.8691 80.875 72.8691H48.4985H46.2394H31.3447C31.3447 66.5514 36.4523 61.4438 42.8034 61.4438H46.2079Z" fill="white" stroke="#333333" stroke-width="0.3" stroke-linecap="round" stroke-linejoin="round"/>
<path d="M76.5885 72.8694H56.0303C56.0303 66.5517 61.136 61.4441 67.4538 61.4441H76.5885V52.7041" stroke="#333333" stroke-width="0.3" stroke-linecap="round" stroke-linejoin="round"/>
<path d="M51.3447 56.0431V52.6387" stroke="#333333" stroke-width="0.3" stroke-linecap="round" stroke-linejoin="round"/>
<path d="M51.3447 72.8705V58.5967" stroke="#333333" stroke-width="0.3" stroke-linecap="round" stroke-linejoin="round"/>
<path d="M69.9075 28.6543L70.0725 33.8582C70.0725 35.8561 70.6599 38.0485 72.6244 38.2783C71.0213 41.1582 67.9115 43.1876 64.3422 43.1876C59.0733 43.1876 54.8164 38.8991 54.8164 33.6618C54.8164 32.0902 55.3409 30.224 56.0599 28.949L69.9075 28.6543Z" fill="white" stroke="#333333" stroke-width="0.3" stroke-linecap="round" stroke-linejoin="round"/>
<path d="M69.1893 34.3186V29.2463H55.8662C57.4359 26.2013 60.6439 24.1387 64.3115 24.1387C69.5488 24.1387 73.8373 28.4271 73.8373 33.6644C73.8373 35.3342 73.411 36.9058 72.6586 38.2809C70.6608 37.9862 69.1893 36.3164 69.1893 34.3186Z" fill="#48466D" stroke="#333333" stroke-width="0.3" stroke-linecap="round" stroke-linejoin="round"/>
<path d="M60.0859 31.8955V35.8244" stroke="#333333" stroke-width="0.3" stroke-linecap="round" stroke-linejoin="round"/>
<path d="M60.0859 35.8262C60.0859 36.612 60.7401 37.2013 61.461 37.2013C62.2468 37.2013 62.8362 36.5786 62.8362 35.8262" stroke="#333333" stroke-width="0.3" stroke-linecap="round" stroke-linejoin="round"/>
<path d="M70.9878 41.8359L64.3105 52.6386" stroke="#333333" stroke-width="0.3" stroke-linecap="round" stroke-linejoin="round"/>
<path d="M57.5986 41.8359L64.3093 52.6386" stroke="#333333" stroke-width="0.3" stroke-linecap="round" stroke-linejoin="round"/>
<path d="M64.3105 52.6387V59.0213" stroke="#333333" stroke-width="0.3" stroke-linecap="round" stroke-linejoin="round"/>
<path d="M20.5709 52.0858C20.4664 52.1781 20.354 52.261 20.2349 52.3334C18.9363 53.242 17.3595 53.6651 15.7804 53.5286C14.2014 53.392 12.7206 52.7047 11.5972 51.5866C10.4739 50.4686 9.7794 48.991 9.63538 47.4126C9.49136 45.8342 9.90694 44.2555 10.8094 42.9526C11.7119 41.6497 13.0438 40.7055 14.5721 40.2855C16.1003 39.8654 17.7276 39.9962 19.1693 40.6548C20.6109 41.3134 21.775 42.458 22.4579 43.8882C23.1409 45.3185 23.2991 46.9434 22.905 48.4785" fill="#78C7E0"/>
<path d="M20.5709 52.0858C20.4664 52.1781 20.354 52.261 20.2349 52.3334C18.9363 53.242 17.3595 53.6651 15.7804 53.5286C14.2014 53.392 12.7206 52.7047 11.5972 51.5866C10.4739 50.4686 9.7794 48.991 9.63538 47.4126C9.49136 45.8342 9.90694 44.2555 10.8094 42.9526C11.7119 41.6497 13.0438 40.7055 14.5721 40.2855C16.1003 39.8654 17.7276 39.9962 19.1693 40.6548C20.6109 41.3134 21.775 42.458 22.4579 43.8882C23.1409 45.3185 23.2991 46.9434 22.905 48.4785" stroke="#333333" stroke-width="0.3" stroke-linecap="round" stroke-linejoin="round"/>
<path d="M17.0419 47.1568L14.2656 46.2373L15.1321 43.6025L17.9083 44.5221C18.0853 44.5758 18.2496 44.665 18.391 44.7844C18.5324 44.9037 18.648 45.0506 18.7307 45.2161C18.8135 45.3815 18.8616 45.5621 18.8722 45.7469C18.8828 45.9316 18.8557 46.1165 18.7924 46.2904C18.7346 46.4624 18.6434 46.6212 18.5241 46.7579C18.4047 46.8946 18.2596 47.0064 18.097 47.0869C17.9343 47.1674 17.7574 47.215 17.5764 47.227C17.3953 47.239 17.2137 47.2151 17.0419 47.1568V47.1568Z" stroke="#333333" stroke-width="0.5" stroke-linecap="round" stroke-linejoin="round"/>
<path d="M16.1034 49.7905L13.3271 48.8711L14.1936 46.2539L16.9698 47.1558C17.1441 47.2137 17.3052 47.3054 17.444 47.4257C17.5827 47.5459 17.6964 47.6924 17.7785 47.8566C17.8606 48.0209 17.9096 48.1996 17.9225 48.3828C17.9355 48.5659 17.9122 48.7499 17.854 48.924C17.7961 49.096 17.705 49.2549 17.5856 49.3916C17.4663 49.5283 17.3211 49.6401 17.1585 49.7206C16.9959 49.801 16.8189 49.8486 16.6379 49.8606C16.4568 49.8726 16.2752 49.8488 16.1034 49.7905V49.7905Z" stroke="#333333" stroke-width="0.5" stroke-linecap="round" stroke-linejoin="round"/>
<path d="M16.3193 44.0021L16.6376 42.9941" stroke="#333333" stroke-width="0.5" stroke-linecap="round" stroke-linejoin="round"/>
<path d="M17.5186 44.4133L17.8545 43.3877" stroke="#333333" stroke-width="0.5" stroke-linecap="round" stroke-linejoin="round"/>
<path d="M19.5352 42.2607C20.0456 42.6356 20.4933 43.0893 20.8614 43.6047" stroke="#333333" stroke-width="0.5" stroke-linecap="round" stroke-linejoin="round"/>
<path d="M13.0938 42.24C13.9079 41.6681 14.86 41.3239 15.8517 41.2431C16.8433 41.1623 17.8386 41.3477 18.7346 41.7802" stroke="#333333" stroke-width="0.5" stroke-linecap="round" stroke-linejoin="round"/>
<path d="M31.0204 51.3638C33.347 51.3698 35.6232 50.6856 37.5607 49.3974C39.4982 48.1092 41.0099 46.2751 41.9045 44.1273C42.7991 41.9795 43.0363 39.6145 42.5861 37.3318C42.1359 35.0491 41.0186 32.9515 39.3756 31.3042C37.7325 29.6568 35.6377 28.5339 33.3562 28.0778C31.0747 27.6216 28.7091 27.8527 26.5589 28.7416C24.4088 29.6306 22.5708 31.1375 21.2776 33.0716C19.9843 35.0057 19.294 37.2801 19.2939 39.6068C19.2939 42.7196 20.5285 45.7054 22.7267 47.9094C24.925 50.1134 27.9075 51.3556 31.0204 51.3638Z" fill="#ABEDD8" stroke="#333333" stroke-width="0.5"/>
<path d="M32.2463 39.4607L27.4391 40.7528L26.2373 36.1859L31.0445 34.9241C31.35 34.8236 31.673 34.7869 31.9933 34.8166C32.3136 34.8464 32.6243 34.9418 32.9061 35.0968C33.188 35.2519 33.4349 35.4632 33.6315 35.7178C33.8281 35.9723 33.9702 36.2647 34.049 36.5765C34.1244 36.8845 34.1373 37.2044 34.087 37.5174C34.0367 37.8305 33.9243 38.1303 33.7563 38.3991C33.5883 38.668 33.368 38.9004 33.1087 39.0828C32.8493 39.2651 32.5561 39.3936 32.2463 39.4607V39.4607Z" stroke="#333333" stroke-width="0.5" stroke-linecap="round" stroke-linejoin="round"/>
<path d="M33.536 44.0487L28.7288 45.3406L27.4971 40.7739L32.3042 39.5119C32.6095 39.4067 32.9336 39.3666 33.2554 39.3942C33.5773 39.4218 33.8898 39.5165 34.1728 39.6722C34.4558 39.8279 34.7031 40.041 34.8987 40.2981C35.0943 40.5551 35.234 40.8501 35.3086 41.1643C35.3887 41.4704 35.4061 41.7894 35.3596 42.1023C35.3131 42.4152 35.2038 42.7156 35.0381 42.9851C34.8725 43.2546 34.654 43.4878 34.3959 43.6706C34.1377 43.8534 33.8452 43.982 33.536 44.0487V44.0487Z" stroke="#333333" stroke-width="0.5" stroke-linecap="round" stroke-linejoin="round"/>
<path d="M28.4632 35.6294L27.9824 33.8867" stroke="#333333" stroke-width="0.5" stroke-linecap="round" stroke-linejoin="round"/>
<path d="M30.5452 35.0901L30.0645 33.3174" stroke="#333333" stroke-width="0.5" stroke-linecap="round" stroke-linejoin="round"/>
<path d="M31.4131 30.1719C32.4455 30.2148 33.4624 30.4384 34.4176 30.8328" stroke="#333333" stroke-width="0.5" stroke-linecap="round" stroke-linejoin="round"/>
<path d="M22.2559 36.0783C22.861 34.4829 23.8875 33.0816 25.226 32.0234C26.5646 30.9653 28.1652 30.2899 29.8572 30.0693" stroke="#333333" stroke-width="0.5" stroke-linecap="round" stroke-linejoin="round"/>
<path d="M6.82227 64.7631V48.3711H34.1778C34.5971 48.3245 35.0216 48.3613 35.4267 48.4794C35.8318 48.5974 36.2095 48.7944 36.5382 49.059C36.8669 49.3236 37.14 49.6505 37.3419 50.021C37.5437 50.3916 37.6703 50.7984 37.7143 51.2181V71.8363C37.6703 72.256 37.5437 72.6628 37.3419 73.0333C37.14 73.4039 36.8669 73.7308 36.5382 73.9954C36.2095 74.26 35.8318 74.457 35.4267 74.5751C35.0216 74.6931 34.5971 74.7299 34.1778 74.6833H6.82227V71.1468" fill="white"/>
<path d="M6.82227 64.7631V48.3711H34.1778C34.5971 48.3245 35.0216 48.3613 35.4267 48.4794C35.8318 48.5974 36.2095 48.7944 36.5382 49.059C36.8669 49.3236 37.14 49.6505 37.3419 50.021C37.5437 50.3916 37.6703 50.7984 37.7143 51.2181V71.8363C37.6703 72.256 37.5437 72.6628 37.3419 73.0333C37.14 73.4039 36.8669 73.7308 36.5382 73.9954C36.2095 74.26 35.8318 74.457 35.4267 74.5751C35.0216 74.6931 34.5971 74.7299 34.1778 74.6833H6.82227V71.1468" stroke="#333333" stroke-width="0.5" stroke-linecap="round" stroke-linejoin="round"/>
<path d="M26.4577 55.707H39.2779V65.0613H26.4577L24.6895 63.293V57.4576L26.4577 55.707Z" fill="#46CDCF" stroke="#333333" stroke-width="0.5" stroke-linecap="round" stroke-linejoin="round"/>
<path d="M28.4897 61.9619C29.4468 61.9619 30.2226 61.1861 30.2226 60.229C30.2226 59.2719 29.4468 58.4961 28.4897 58.4961C27.5327 58.4961 26.7568 59.2719 26.7568 60.229C26.7568 61.1861 27.5327 61.9619 28.4897 61.9619Z" fill="#48466D" stroke="#333333" stroke-width="0.5" stroke-linecap="round" stroke-linejoin="round"/>
</svg>
