<svg width="17" height="16" viewBox="0 0 17 16" fill="none" xmlns="http://www.w3.org/2000/svg">
<path d="M11.5675 7.15375C11.8874 6.76427 12.1041 6.30047 12.1974 5.80516C12.2907 5.30985 12.2578 4.79901 12.1016 4.3198C11.9454 3.84059 11.671 3.40846 11.3036 3.06331C10.9363 2.71817 10.488 2.47112 10 2.345V1.5C10 1.30109 9.92098 1.11032 9.78033 0.96967C9.63968 0.829018 9.44891 0.75 9.25 0.75C9.05109 0.75 8.86032 0.829018 8.71967 0.96967C8.57902 1.11032 8.5 1.30109 8.5 1.5V2.25H7.5V1.5C7.5 1.30109 7.42098 1.11032 7.28033 0.96967C7.13968 0.829018 6.94891 0.75 6.75 0.75C6.55109 0.75 6.36032 0.829018 6.21967 0.96967C6.07902 1.11032 6 1.30109 6 1.5V2.25H4.5C4.30109 2.25 4.11032 2.32902 3.96967 2.46967C3.82902 2.61032 3.75 2.80109 3.75 3C3.75 3.19891 3.82902 3.38968 3.96967 3.53033C4.11032 3.67098 4.30109 3.75 4.5 3.75H4.75V11.75H4.5C4.30109 11.75 4.11032 11.829 3.96967 11.9697C3.82902 12.1103 3.75 12.3011 3.75 12.5C3.75 12.6989 3.82902 12.8897 3.96967 13.0303C4.11032 13.171 4.30109 13.25 4.5 13.25H6V14C6 14.1989 6.07902 14.3897 6.21967 14.5303C6.36032 14.671 6.55109 14.75 6.75 14.75C6.94891 14.75 7.13968 14.671 7.28033 14.5303C7.42098 14.3897 7.5 14.1989 7.5 14V13.25H8.5V14C8.5 14.1989 8.57902 14.3897 8.71967 14.5303C8.86032 14.671 9.05109 14.75 9.25 14.75C9.44891 14.75 9.63968 14.671 9.78033 14.5303C9.92098 14.3897 10 14.1989 10 14V13.25C10.7208 13.2497 11.4211 13.0098 11.9907 12.5679C12.5602 12.1261 12.9667 11.5075 13.1462 10.8093C13.3257 10.1112 13.2681 9.37321 12.9823 8.71145C12.6965 8.04969 12.1988 7.50172 11.5675 7.15375ZM10.75 5.25C10.75 5.64782 10.592 6.02936 10.3107 6.31066C10.0294 6.59196 9.64782 6.75 9.25 6.75H6.25V3.75H9.25C9.64782 3.75 10.0294 3.90804 10.3107 4.18934C10.592 4.47064 10.75 4.85218 10.75 5.25ZM10 11.75H6.25V8.25H10C10.4641 8.25 10.9092 8.43437 11.2374 8.76256C11.5656 9.09075 11.75 9.53587 11.75 10C11.75 10.4641 11.5656 10.9092 11.2374 11.2374C10.9092 11.5656 10.4641 11.75 10 11.75Z" fill="#031F2B"/>
</svg>
