<svg width="24" height="24" viewBox="0 0 24 24" fill="none" xmlns="http://www.w3.org/2000/svg">
<path d="M11.2262 14.916C11.5557 14.916 11.8316 15.0271 12.0531 15.2486C12.2747 15.4702 12.3857 15.746 12.3857 16.0756C12.3857 16.4051 12.2747 16.6809 12.0531 16.9025C11.8316 17.124 11.5557 17.2351 11.2262 17.2351C10.8967 17.235 10.6208 17.124 10.3993 16.9025C10.1777 16.6809 10.0677 16.405 10.0677 16.0756C10.0677 15.7461 10.1777 15.4702 10.3993 15.2486C10.6208 15.0271 10.8967 14.9161 11.2262 14.916Z" fill="#031F2B"/>
<path fill-rule="evenodd" clip-rule="evenodd" d="M11.9593 5.1665C12.2432 5.1665 12.4845 5.2664 12.6833 5.46512C12.8821 5.6639 12.9819 5.90526 12.9819 6.1892V6.97319H14.2943C14.5784 6.97319 14.8205 7.07295 15.0193 7.27181C15.218 7.47054 15.3169 7.71207 15.317 7.99589V9.12145C15.3169 9.4053 15.218 9.64677 15.0193 9.84552C14.8205 10.0444 14.5784 10.1441 14.2943 10.1441H12.9819V12.4792C13.6865 12.7746 14.2517 13.2265 14.6778 13.8344C15.1039 14.4423 15.317 15.1893 15.317 16.0756C15.317 17.2117 14.9196 18.1775 14.1245 18.9728C13.3291 19.7683 12.3625 20.1663 11.2262 20.1663C10.09 20.1663 9.12428 19.7682 8.3289 18.9728C8.26779 18.9117 8.20953 18.8492 8.15312 18.7861C7.22467 19.8343 5.76779 20.4034 4.20517 20.0724C2.64413 19.7452 1.39674 18.4765 1.08316 16.9155C0.660724 14.782 1.89417 12.874 3.72778 12.2265V6.53376C3.72791 5.78402 4.34127 5.1705 5.09104 5.1705C5.84076 5.17055 6.45417 5.78405 6.4543 6.53376H7.81755C8.56729 6.53376 9.18063 7.14732 9.18081 7.89701C9.18081 8.64686 8.5674 9.26027 7.81755 9.26027H6.4543V12.2265C7.11622 12.4595 7.69833 12.8594 8.15412 13.374C8.51945 12.9932 8.95754 12.6943 9.47044 12.4792V6.1892C9.47052 5.90526 9.57028 5.6639 9.76906 5.46512C9.96784 5.26634 10.2092 5.16658 10.4931 5.1665H11.9593ZM10.4931 13.1783C10.0046 13.2693 9.49303 13.5732 8.95909 14.0901C8.89164 14.1554 8.82827 14.2229 8.76934 14.2928C9.03209 14.8321 9.18081 15.4373 9.18081 16.0776C9.1808 16.7319 9.02596 17.3498 8.75236 17.8982C8.84309 18.0188 8.94135 18.1371 9.05297 18.2488C9.6495 18.8453 10.374 19.1436 11.2262 19.1436C12.0784 19.1436 12.8029 18.8453 13.3994 18.2488C13.996 17.6522 14.2943 16.9278 14.2943 16.0756C14.2943 15.2688 14.0273 14.6071 13.4933 14.0901C12.9592 13.5731 12.4479 13.2692 11.9593 13.1783V9.05353H14.2943V7.99589H11.9593V6.1892H10.4931V13.1783ZM5.09104 14.7143C4.3412 14.7143 3.72778 15.3277 3.72778 16.0776C3.72783 16.8274 4.34122 17.4408 5.09104 17.4408C5.84081 17.4408 6.45425 16.8273 6.4543 16.0776C6.4543 15.3277 5.84084 14.7143 5.09104 14.7143Z" fill="#031F2B"/>
<path d="M22.4531 10.9621C23.0179 10.9621 23.4758 11.42 23.4758 11.9848C23.4758 12.5496 23.0179 13.0075 22.4531 13.0075H16.3623C15.7976 13.0074 15.3397 12.5495 15.3397 11.9848C15.3397 11.42 15.7976 10.9622 16.3623 10.9621H22.4531Z" fill="#031F2B"/>
</svg>
