<svg width="24" height="24" viewBox="0 0 24 24" fill="none" xmlns="http://www.w3.org/2000/svg">
<path fill-rule="evenodd" clip-rule="evenodd" d="M13.9004 4.34448C16.544 4.60546 18.6171 5.41344 18.8469 7.82024C19.0028 9.57486 18.2631 10.6189 17.0399 11.2072C19.0147 11.7001 20.216 12.859 19.9678 15.4299C19.6656 18.6521 17.2549 19.489 13.8085 19.6656L13.8139 22.9923L11.7842 22.9949L11.7788 19.6682C11.557 19.665 11.3251 19.6683 11.0872 19.6717H11.0871C10.7692 19.6763 10.4408 19.681 10.1116 19.6704L10.117 22.9971L8.09096 22.9997L8.08555 19.673L4.02639 19.5928L4.36847 17.1615C4.36847 17.1615 5.90154 17.1953 5.87311 17.1777C6.43751 17.1747 6.60501 16.7745 6.64673 16.5117L6.63663 11.1789L6.65258 7.38343C6.59025 6.98781 6.32103 6.51312 5.49127 6.4987C5.53646 6.45819 4.00514 6.50062 4.00514 6.50062L4 4.27175L8.15961 4.26641L8.15432 1.00785L10.2499 1.00516L10.2552 4.26372C10.6597 4.25251 11.0588 4.25572 11.4623 4.25896L11.4625 4.25896C11.5949 4.26002 11.7278 4.26109 11.8615 4.26165L11.8562 1.0031L13.8951 1.00047L13.9004 4.34448ZM10.0057 10.4754L10.1086 10.4798C11.3423 10.5336 15.0001 10.6931 15.0057 8.4754C15.0001 6.36988 11.8871 6.43782 10.4406 6.46938H10.4406H10.4406C10.2698 6.47311 10.1222 6.47633 10.0057 6.4754V10.4754ZM10.1786 17.0076C10.1138 17.0049 10.0541 17.0025 10 17.0004L9.99999 13.0004C10.1289 13.0016 10.2909 12.9996 10.4783 12.9972C12.1877 12.976 16.0058 12.9284 15.9877 15.051C16.007 17.2466 11.6973 17.0698 10.1786 17.0076Z" fill="white"/>
</svg>
