<svg width="24" height="24" viewBox="0 0 24 24" fill="none" xmlns="http://www.w3.org/2000/svg">
<path fill-rule="evenodd" clip-rule="evenodd" d="M18.7069 12.2917C18.8 12.3846 18.8738 12.4949 18.9243 12.6164C18.9747 12.7379 19.0006 12.8681 19.0006 12.9996C19.0006 13.1311 18.9747 13.2613 18.9243 13.3828C18.8738 13.5043 18.8 13.6146 18.7069 13.7075L12.7075 19.7068C12.6146 19.8 12.5043 19.8738 12.3828 19.9242C12.2614 19.9747 12.1311 20.0006 11.9996 20.0006C11.8681 20.0006 11.7379 19.9747 11.6164 19.9242C11.4949 19.8738 11.3846 19.8 11.2917 19.7068L5.29236 13.7075C5.10461 13.5198 4.99913 13.2651 4.99913 12.9996C4.99913 12.7341 5.10461 12.4794 5.29236 12.2917C5.48011 12.1039 5.73476 11.9984 6.00028 11.9984C6.2658 11.9984 6.52045 12.1039 6.7082 12.2917L11.9996 17.5851L17.291 12.2917C17.3839 12.1986 17.4942 12.1247 17.6157 12.0743C17.7372 12.0239 17.8674 11.9979 17.9989 11.9979C18.1305 11.9979 18.2607 12.0239 18.3822 12.0743C18.5036 12.1247 18.614 12.1986 18.7069 12.2917Z" fill="#031F2B"/>
<path fill-rule="evenodd" clip-rule="evenodd" d="M11.9996 4.00085C12.2648 4.00085 12.5191 4.1062 12.7067 4.29372C12.8942 4.48123 12.9995 4.73556 12.9995 5.00074L12.9995 17.9993C12.9995 18.2645 12.8942 18.5188 12.7067 18.7063C12.5191 18.8938 12.2648 18.9992 11.9996 18.9992C11.7344 18.9992 11.4801 18.8938 11.2926 18.7063C11.1051 18.5188 10.9997 18.2645 10.9997 17.9993L10.9997 5.00074C10.9997 4.73556 11.1051 4.48123 11.2926 4.29372C11.4801 4.1062 11.7344 4.00085 11.9996 4.00085Z" fill="#031F2B"/>
</svg>
