<svg width="466" height="372" viewBox="0 0 466 372" fill="none" xmlns="http://www.w3.org/2000/svg">
<rect width="465" height="372" transform="translate(0.5)" fill="#D0E2FF"/>
<path d="M317.997 197.617C317.997 197.452 317.863 197.317 317.697 197.317H148.061C147.895 197.317 147.761 197.452 147.761 197.617V347.2C147.761 347.366 147.895 347.5 148.061 347.5H317.697C317.863 347.5 317.997 347.366 317.997 347.2V197.617Z" fill="#46CDCF" stroke="#333333" stroke-width="0.6" stroke-linecap="round" stroke-linejoin="round"/>
<path d="M216.125 307.483C216.106 307.571 216.129 307.663 216.186 307.734C216.243 307.804 216.328 307.845 216.419 307.845H249.372C249.462 307.845 249.548 307.804 249.605 307.734C249.662 307.663 249.684 307.571 249.665 307.483L242.053 271.254C247.49 268.048 251.073 262.12 251.073 255.387C251.073 245.224 242.909 236.97 232.861 236.97C222.813 236.97 214.632 245.224 214.632 255.387C214.632 262.278 218.301 268.054 223.738 271.254L216.125 307.483Z" fill="#3D84A8" stroke="#333333" stroke-width="0.6" stroke-linecap="round" stroke-linejoin="round"/>
<path d="M189.357 167.823C189.357 143.786 208.843 124.3 232.88 124.3C256.917 124.3 276.402 143.786 276.402 167.823V197.209H189.357V167.823Z" stroke="#333333" stroke-width="0.6"/>
<path d="M317.94 347.2C338.493 347.2 355.14 330.552 355.14 310C355.14 289.447 338.493 272.8 317.94 272.8C297.388 272.8 280.74 289.447 280.74 310C280.74 330.552 297.388 347.2 317.94 347.2Z" fill="#ABEDD8" stroke="#333333" stroke-width="0.6" stroke-linecap="round" stroke-linejoin="round"/>
<path d="M315.104 326.74C314.694 326.74 314.355 326.612 314.087 326.355C313.819 326.099 313.685 325.775 313.685 325.382V317.058L306.166 321.22C305.82 321.401 305.457 321.446 305.079 321.356C304.7 321.265 304.417 321.054 304.228 320.722L301.39 316.017C301.201 315.685 301.154 315.338 301.248 314.977C301.343 314.615 301.564 314.343 301.91 314.162L309.429 310L301.91 305.837C301.564 305.656 301.343 305.385 301.248 305.023C301.154 304.661 301.201 304.314 301.39 303.982L304.228 299.277C304.417 298.945 304.7 298.734 305.079 298.644C305.457 298.553 305.82 298.598 306.166 298.779L313.685 302.942V294.617C313.685 294.225 313.819 293.901 314.087 293.644C314.355 293.388 314.694 293.26 315.104 293.26H320.778C321.188 293.26 321.527 293.388 321.795 293.644C322.063 293.901 322.197 294.225 322.197 294.617V302.942L329.716 298.779C330.063 298.598 330.425 298.553 330.804 298.644C331.182 298.734 331.466 298.945 331.655 299.277L334.492 303.982C334.681 304.314 334.728 304.661 334.634 305.023C334.539 305.385 334.319 305.656 333.972 305.837L326.453 310L333.972 314.162C334.319 314.343 334.539 314.615 334.634 314.977C334.728 315.338 334.681 315.685 334.492 316.017L331.655 320.722C331.466 321.054 331.182 321.265 330.804 321.356C330.425 321.446 330.063 321.401 329.716 321.22L322.197 317.058V325.382C322.197 325.775 322.063 326.099 321.795 326.355C321.527 326.612 321.188 326.74 320.778 326.74H315.104Z" fill="#333333"/>
</svg>
