<svg width="25" height="24" viewBox="0 0 25 24" fill="none" xmlns="http://www.w3.org/2000/svg">
<g clip-path="url(#clip0_32059_190416)">
<path fill-rule="evenodd" clip-rule="evenodd" d="M15.75 5.825V8.15H9.25V5.825C9.25 4.90833 9.56667 4.125 10.2 3.475C10.8333 2.825 11.6 2.5 12.5 2.5C13.4 2.5 14.1667 2.825 14.8 3.475C15.4333 4.125 15.75 4.90833 15.75 5.825ZM15.9 21.45C16.8333 22.3833 17.975 22.85 19.325 22.85C20.675 22.85 21.8167 22.3833 22.75 21.45C23.6833 20.5167 24.15 19.375 24.15 18.025C24.15 16.675 23.6833 15.5333 22.75 14.6C21.8167 13.6667 20.675 13.2 19.325 13.2C17.975 13.2 16.8333 13.6667 15.9 14.6C14.9667 15.5333 14.5 16.675 14.5 18.025C14.5 19.375 14.9667 20.5167 15.9 21.45ZM4.9375 21.5625C5.22917 21.8542 5.58333 22 6 22H14.425C13.975 21.4333 13.625 20.8125 13.375 20.1375C13.125 19.4625 13 18.7583 13 18.025C13 16.325 13.575 14.8625 14.725 13.6375C15.875 12.4125 17.3 11.7667 19 11.7C19.25 11.6833 19.5 11.6833 19.75 11.7C20 11.7167 20.25 11.7583 20.5 11.825V9.65C20.5 9.23333 20.3542 8.87917 20.0625 8.5875C19.7708 8.29583 19.4167 8.15 19 8.15H17.25V5.825C17.25 4.49167 16.7875 3.35417 15.8625 2.4125C14.9375 1.47083 13.8167 1 12.5 1C11.1833 1 10.0625 1.47083 9.1375 2.4125C8.2125 3.35417 7.75 4.49167 7.75 5.825V8.15H6C5.58333 8.15 5.22917 8.29583 4.9375 8.5875C4.64583 8.87917 4.5 9.23333 4.5 9.65V20.5C4.5 20.9167 4.64583 21.2708 4.9375 21.5625ZM18.8737 20.4426C18.9137 20.4809 18.9643 20.5 19.0255 20.5H19.8729C19.9342 20.5 19.9848 20.4809 20.0248 20.4426C20.0648 20.4043 20.0848 20.3559 20.0848 20.2973V19.0541L21.2077 19.6757C21.2595 19.7027 21.3136 19.7095 21.3701 19.6959C21.4266 19.6824 21.469 19.6509 21.4972 19.6014L21.921 18.8986C21.9492 18.8491 21.9563 18.7973 21.9422 18.7432C21.928 18.6892 21.8951 18.6486 21.8433 18.6216L20.7204 18L21.8433 17.3784C21.8951 17.3514 21.928 17.3108 21.9422 17.2568C21.9563 17.2027 21.9492 17.1509 21.921 17.1014L21.4972 16.3986C21.469 16.3491 21.4266 16.3176 21.3701 16.3041C21.3136 16.2905 21.2595 16.2973 21.2077 16.3243L20.0848 16.9459V15.7027C20.0848 15.6441 20.0648 15.5957 20.0248 15.5574C19.9848 15.5191 19.9342 15.5 19.8729 15.5H19.0255C18.9643 15.5 18.9137 15.5191 18.8737 15.5574C18.8336 15.5957 18.8136 15.6441 18.8136 15.7027V16.9459L17.6907 16.3243C17.639 16.2973 17.5848 16.2905 17.5283 16.3041C17.4718 16.3176 17.4294 16.3491 17.4012 16.3986L16.9775 17.1014C16.9492 17.1509 16.9422 17.2027 16.9563 17.2568C16.9704 17.3108 17.0034 17.3514 17.0552 17.3784L18.178 18L17.0552 18.6216C17.0034 18.6486 16.9704 18.6892 16.9563 18.7432C16.9422 18.7973 16.9492 18.8491 16.9775 18.8986L17.4012 19.6014C17.4294 19.6509 17.4718 19.6824 17.5283 19.6959C17.5848 19.7095 17.639 19.7027 17.6907 19.6757L18.8136 19.0541V20.2973C18.8136 20.3559 18.8336 20.4043 18.8737 20.4426Z" fill="#031F2B"/>
</g>
<defs>
<clipPath id="clip0_32059_190416">
<rect width="24" height="24" fill="white" transform="translate(0.5)"/>
</clipPath>
</defs>
</svg>
