<svg width="24" height="24" viewBox="0 0 24 24" fill="none" xmlns="http://www.w3.org/2000/svg">
<path fill-rule="evenodd" clip-rule="evenodd" d="M12.3064 6.96361C15.8509 6.96361 18.7505 9.8679 18.7505 13.4164V16.9067H5.86224V13.4164C5.86224 9.86712 8.76266 6.96361 12.3064 6.96361ZM11.7765 2.53062C11.7765 2.23726 12.014 2 12.3064 2C12.5987 2 12.8363 2.23788 12.8363 2.53062V4.88687C12.8363 5.17959 12.5987 5.41749 12.3064 5.41749C12.0141 5.41749 11.7765 5.17961 11.7765 4.88687V2.53062ZM1.52991 13.8519C1.23759 13.8519 1 13.6141 1 13.3213C1 13.0286 1.23757 12.7907 1.52991 12.7907H3.88302C4.17535 12.7907 4.41293 13.0286 4.41293 13.3213C4.41293 13.6147 4.17537 13.8519 3.88302 13.8519H1.52991ZM2.7089 8.38388C2.45603 8.2376 2.37019 7.91358 2.51627 7.66041C2.66235 7.40721 2.98594 7.32125 3.23878 7.46752L5.27671 8.64532C5.52957 8.7916 5.61542 9.11562 5.46934 9.36879C5.32325 9.62199 4.99966 9.70795 4.74683 9.56168L2.7089 8.38322V8.38388ZM6.46134 4.23949C6.3159 3.98629 6.40319 3.66374 6.65606 3.51808C6.90893 3.37245 7.23104 3.45986 7.37651 3.71307L8.55273 5.75372C8.69817 6.00693 8.61088 6.33013 8.35801 6.47513C8.10514 6.62012 7.78237 6.53335 7.63756 6.28014L6.46134 4.23949ZM23.0828 12.7904C23.3751 12.7904 23.6127 13.0283 23.6127 13.3211C23.6127 13.6144 23.3751 13.8517 23.0828 13.8517H20.7297C20.4373 13.8517 20.1997 13.6138 20.1997 13.3211C20.1997 13.0284 20.4373 12.7904 20.7297 12.7904H23.0828ZM21.3739 7.46731C21.6268 7.32103 21.9502 7.40699 22.0964 7.6602C22.2425 7.9134 22.1567 8.23727 21.9038 8.38367L19.8659 9.56213C19.613 9.70841 19.2896 9.62244 19.1433 9.36924C18.9973 9.11603 19.0831 8.79217 19.336 8.64577L21.3739 7.46797V7.46731ZM17.2371 3.71275C17.3825 3.45955 17.7047 3.37213 17.9576 3.51776C18.2104 3.66275 18.2977 3.98596 18.1523 4.23917L16.9761 6.27983C16.8313 6.53303 16.5085 6.62044 16.2556 6.47481C16.0027 6.32982 15.9154 6.00662 16.0609 5.7534L17.2371 3.71275ZM5.82327 17.9675H18.7891C19.5899 17.9675 20.2451 18.6238 20.2451 19.4254V21H4.36622V19.4254C4.36622 18.6236 5.0216 17.9675 5.8222 17.9675H5.82327ZM9.0284 13.416C9.0284 13.7087 8.79083 13.9466 8.49849 13.9466C8.20614 13.9466 7.96857 13.7088 7.96857 13.416C7.96857 12.221 8.45626 11.1348 9.24243 10.348C10.0286 9.56085 11.1127 9.07247 12.3063 9.07247C12.5987 9.07247 12.8363 9.31035 12.8363 9.60309C12.8363 9.89581 12.5987 10.1337 12.3063 10.1337C11.4058 10.1337 10.5863 10.5027 9.99203 11.0978C9.39771 11.693 9.02856 12.5135 9.02856 13.4152L9.0284 13.416Z" fill="white"/>
</svg>
