<svg width="24" height="24" viewBox="0 0 24 24" fill="none" xmlns="http://www.w3.org/2000/svg">
<path d="M6.71994 9.11437L3.25682 12L6.71994 14.8856C6.8348 14.9797 6.92988 15.0957 6.99971 15.2267C7.06954 15.3578 7.11273 15.5014 7.12679 15.6492C7.14086 15.797 7.12552 15.9462 7.08166 16.088C7.03781 16.2299 6.9663 16.3617 6.87126 16.4758C6.77622 16.5899 6.65953 16.684 6.52793 16.7528C6.39632 16.8216 6.2524 16.8636 6.10447 16.8765C5.95653 16.8894 5.80751 16.8729 5.666 16.8279C5.52448 16.7829 5.39328 16.7103 5.27994 16.6144L0.779944 12.8644C0.653204 12.7588 0.551233 12.6266 0.481254 12.4773C0.411275 12.3279 0.375 12.165 0.375 12C0.375 11.835 0.411275 11.6721 0.481254 11.5227C0.551233 11.3734 0.653204 11.2412 0.779944 11.1356L5.27994 7.38562C5.50951 7.19749 5.80413 7.1077 6.0996 7.13581C6.39508 7.16393 6.66747 7.30767 6.85744 7.53573C7.0474 7.76379 7.13955 8.05768 7.11379 8.35337C7.08804 8.64906 6.94648 8.92259 6.71994 9.11437ZM23.2199 11.1356L18.7199 7.38562C18.6066 7.28967 18.4754 7.21711 18.3339 7.17212C18.1924 7.12713 18.0434 7.1106 17.8954 7.12349C17.7475 7.13637 17.6036 7.17841 17.472 7.24719C17.3404 7.31597 17.2237 7.41012 17.1286 7.52422C17.0336 7.63832 16.9621 7.7701 16.9182 7.91197C16.8744 8.05384 16.859 8.20298 16.8731 8.35081C16.8872 8.49864 16.9304 8.64222 17.0002 8.77327C17.07 8.90432 17.1651 9.02025 17.2799 9.11437L20.7431 12L17.2799 14.8856C17.1651 14.9797 17.07 15.0957 17.0002 15.2267C16.9304 15.3578 16.8872 15.5014 16.8731 15.6492C16.859 15.797 16.8744 15.9462 16.9182 16.088C16.9621 16.2299 17.0336 16.3617 17.1286 16.4758C17.2237 16.5899 17.3404 16.684 17.472 16.7528C17.6036 16.8216 17.7475 16.8636 17.8954 16.8765C18.0434 16.8894 18.1924 16.8729 18.3339 16.8279C18.4754 16.7829 18.6066 16.7103 18.7199 16.6144L23.2199 12.8644C23.3467 12.7588 23.4487 12.6266 23.5186 12.4773C23.5886 12.3279 23.6249 12.165 23.6249 12C23.6249 11.835 23.5886 11.6721 23.5186 11.5227C23.4487 11.3734 23.3467 11.2412 23.2199 11.1356ZM15.3843 2.6925C15.2455 2.642 15.098 2.61935 14.9504 2.62584C14.8027 2.63234 14.6578 2.66786 14.5239 2.73037C14.39 2.79288 14.2698 2.88115 14.17 2.99015C14.0702 3.09915 13.9929 3.22674 13.9424 3.36562L7.94244 19.8656C7.84074 20.146 7.85451 20.4552 7.98073 20.7254C8.10696 20.9956 8.3353 21.2046 8.61557 21.3066C8.73862 21.352 8.86877 21.3752 8.99994 21.375C9.23092 21.375 9.45632 21.304 9.64551 21.1715C9.8347 21.039 9.97853 20.8514 10.0574 20.6344L16.0574 4.13437C16.1079 3.9955 16.1306 3.84804 16.1241 3.70042C16.1176 3.55279 16.0821 3.40789 16.0196 3.27399C15.9571 3.1401 15.8688 3.01983 15.7598 2.92005C15.6508 2.82028 15.5232 2.74295 15.3843 2.6925Z" fill="#031F2B"/>
</svg>
