<svg width="24" height="24" viewBox="0 0 24 24" fill="none" xmlns="http://www.w3.org/2000/svg">
<path d="M7.14219 14.8366C6.95885 14.6533 6.86719 14.42 6.86719 14.1366C6.86719 13.8533 6.95885 13.62 7.14219 13.4366L11.7422 8.83665C11.8422 8.73665 11.9505 8.66581 12.0672 8.62415C12.1839 8.58248 12.3089 8.56165 12.4422 8.56165C12.5755 8.56165 12.7005 8.58248 12.8172 8.62415C12.9339 8.66581 13.0422 8.73665 13.1422 8.83665L17.7672 13.4616C17.9505 13.645 18.0422 13.87 18.0422 14.1366C18.0422 14.4033 17.9422 14.6366 17.7422 14.8366C17.5589 15.02 17.3255 15.1116 17.0422 15.1116C16.7589 15.1116 16.5255 15.02 16.3422 14.8366L12.4422 10.9366L8.51719 14.8616C8.33385 15.045 8.10885 15.1366 7.84219 15.1366C7.57552 15.1366 7.34219 15.0366 7.14219 14.8366Z" fill="white"/>
</svg>
