<svg width="25" height="24" viewBox="0 0 25 24" fill="none" xmlns="http://www.w3.org/2000/svg">
<path d="M20.6465 9.79592L13.1465 17.2959C13.042 17.4008 12.9178 17.484 12.781 17.5408C12.6443 17.5976 12.4977 17.6268 12.3496 17.6268C12.2015 17.6268 12.0549 17.5976 11.9182 17.5408C11.7814 17.484 11.6572 17.4008 11.5527 17.2959L4.05273 9.79592C3.84139 9.58457 3.72266 9.29793 3.72266 8.99904C3.72266 8.70016 3.84139 8.41351 4.05273 8.20217C4.26408 7.99082 4.55072 7.87209 4.84961 7.87209C5.14849 7.87209 5.43514 7.99082 5.64648 8.20217L12.3505 14.9062L19.0546 8.20123C19.266 7.98989 19.5526 7.87115 19.8515 7.87115C20.1504 7.87115 20.437 7.98989 20.6484 8.20123C20.8597 8.41258 20.9784 8.69922 20.9784 8.99811C20.9784 9.29699 20.8597 9.58364 20.6484 9.79498L20.6465 9.79592Z" fill="white"/>
</svg>
