<svg width="24" height="24" viewBox="0 0 24 24" fill="none" xmlns="http://www.w3.org/2000/svg">
<path d="M7.14121 14.8367C6.95788 14.6533 6.86621 14.42 6.86621 14.1367C6.86621 13.8533 6.95788 13.62 7.14121 13.4367L11.7412 8.83668C11.8412 8.73668 11.9495 8.66584 12.0662 8.62418C12.1829 8.58251 12.3079 8.56168 12.4412 8.56168C12.5745 8.56168 12.6995 8.58251 12.8162 8.62418C12.9329 8.66584 13.0412 8.73668 13.1412 8.83668L17.7662 13.4617C17.9495 13.645 18.0412 13.87 18.0412 14.1367C18.0412 14.4033 17.9412 14.6367 17.7412 14.8367C17.5579 15.02 17.3245 15.1117 17.0412 15.1117C16.7579 15.1117 16.5245 15.02 16.3412 14.8367L12.4412 10.9367L8.51621 14.8617C8.33288 15.045 8.10788 15.1367 7.84121 15.1367C7.57454 15.1367 7.34121 15.0367 7.14121 14.8367Z" fill="#031F2B"/>
</svg>
