<svg width="24" height="24" viewBox="0 0 24 24" fill="none" xmlns="http://www.w3.org/2000/svg">
<g clip-path="url(#clip0_34889_315560)">
<path d="M4.89648 18.8955L4.89648 12.8955C4.89648 12.3455 4.44648 11.8955 3.89648 11.8955C3.34648 11.8955 2.89648 12.3455 2.89648 12.8955L2.89648 18.8955C2.89648 19.9955 3.79648 20.8955 4.89648 20.8955L18.8965 20.8955C19.9965 20.8955 20.8965 19.9955 20.8965 18.8955L20.8965 12.8955C20.8965 12.3455 20.4465 11.8955 19.8965 11.8955C19.3465 11.8955 18.8965 12.3455 18.8965 12.8955L18.8965 18.8955L4.89648 18.8955Z" fill="#031F2B"/>
<path d="M11.547 3.24551L8.757 6.03551C8.437 6.35551 8.657 6.89551 9.107 6.89551L10.897 6.89551L10.897 13.8955C10.897 14.4455 11.347 14.8955 11.897 14.8955C12.447 14.8955 12.897 14.4455 12.897 13.8955L12.897 6.89551L14.687 6.89551C15.137 6.89551 15.357 6.35551 15.037 6.04551L12.247 3.25551C12.057 3.05551 11.737 3.05551 11.547 3.24551Z" fill="#031F2B"/>
</g>
<defs>
<clipPath id="clip0_34889_315560">
<rect width="24" height="24" fill="white"/>
</clipPath>
</defs>
</svg>
