<svg width="24" height="24" viewBox="0 0 24 24" fill="none" xmlns="http://www.w3.org/2000/svg">
<g clip-path="url(#clip0_66076_64936)">
<path d="M16.7116 17.707V10.8677C16.7116 10.2418 16.1995 9.72973 15.5736 9.72973C14.9477 9.72973 14.4356 10.2418 14.4356 10.8677V17.707H12.3986C11.8865 17.707 11.6362 18.3215 12.0003 18.6743L15.1753 21.8378C15.4029 22.0541 15.7557 22.0541 15.9833 21.8378L19.1582 18.6743C19.5224 18.3215 19.2606 17.707 18.7599 17.707H16.7116ZM8.34741 2.16216L5.17244 5.33713C4.80829 5.6899 5.05865 6.30441 5.57074 6.30441H7.60772V13.1437C7.60772 13.7696 8.11981 14.2817 8.7457 14.2817C9.37159 14.2817 9.88368 13.7696 9.88368 13.1437V6.30441H11.9207C12.4328 6.30441 12.6831 5.6899 12.319 5.33713L9.14399 2.16216C8.92778 1.94595 8.56362 1.94595 8.34741 2.16216Z" fill="#031F2B"/>
</g>
<defs>
<clipPath id="clip0_66076_64936">
<rect width="24" height="24" fill="white"/>
</clipPath>
</defs>
</svg>
