<svg width="24" height="24" viewBox="0 0 24 24" fill="none" xmlns="http://www.w3.org/2000/svg">
<path d="M2.925 13.6118H6.02494C6.28089 14.3355 6.75491 14.9621 7.38173 15.4053C8.00855 15.8485 8.75733 16.0865 9.525 16.0865C10.2927 16.0865 11.0415 15.8485 11.6683 15.4053C12.2951 14.9621 12.7691 14.3355 13.0251 13.6118H21.075C21.4032 13.6118 21.718 13.4814 21.95 13.2493C22.1821 13.0173 22.3125 12.7025 22.3125 12.3743C22.3125 12.0461 22.1821 11.7313 21.95 11.4992C21.718 11.2672 21.4032 11.1368 21.075 11.1368H13.0251C12.7691 10.413 12.2951 9.78645 11.6683 9.34327C11.0415 8.90008 10.2927 8.66211 9.525 8.66211C8.75733 8.66211 8.00855 8.90008 7.38173 9.34327C6.75491 9.78645 6.28089 10.413 6.02494 11.1368H2.925C2.59679 11.1368 2.28203 11.2672 2.04996 11.4992C1.81788 11.7313 1.6875 12.0461 1.6875 12.3743C1.6875 12.7025 1.81788 13.0173 2.04996 13.2493C2.28203 13.4814 2.59679 13.6118 2.925 13.6118ZM9.525 11.1368C9.76975 11.1368 10.009 11.2094 10.2125 11.3453C10.416 11.4813 10.5746 11.6746 10.6683 11.9007C10.762 12.1268 10.7865 12.3757 10.7387 12.6157C10.691 12.8558 10.5731 13.0763 10.4 13.2493C10.227 13.4224 10.0065 13.5403 9.76642 13.588C9.52637 13.6358 9.27755 13.6112 9.05143 13.5176C8.82531 13.4239 8.63203 13.2653 8.49606 13.0618C8.36008 12.8583 8.2875 12.619 8.2875 12.3743C8.2875 12.0461 8.41788 11.7313 8.64996 11.4992C8.88203 11.2672 9.19679 11.1368 9.525 11.1368Z" fill="white"/>
</svg>
