<svg width="24" height="24" viewBox="0 0 24 24" fill="none" xmlns="http://www.w3.org/2000/svg">
<path d="M18.0002 14.8662C18.3224 14.8662 18.5921 14.9748 18.8088 15.1914C19.0254 15.4081 19.134 15.6778 19.134 16C19.134 16.3222 19.0254 16.5919 18.8088 16.8086C18.5921 17.0252 18.3224 17.1338 18.0002 17.1338C17.6781 17.1337 17.4082 17.0252 17.1916 16.8086C16.975 16.5919 16.8674 16.3222 16.8674 16C16.8674 15.6778 16.975 15.4081 17.1916 15.1914C17.4082 14.9748 17.6781 14.8663 18.0002 14.8662Z" fill="#031F2B"/>
<path fill-rule="evenodd" clip-rule="evenodd" d="M18.717 5.33301C18.9947 5.33301 19.2306 5.43069 19.425 5.625C19.6194 5.81937 19.7169 6.05537 19.717 6.33301V7.09961H21.0002C21.278 7.09961 21.5147 7.19716 21.7092 7.3916C21.9034 7.58592 22.0001 7.82209 22.0002 8.09961V9.2002C22.0001 9.47775 21.9034 9.71386 21.7092 9.9082C21.5147 10.1026 21.278 10.2002 21.0002 10.2002H19.717V12.4834C20.4059 12.7723 20.9585 13.2141 21.3752 13.8086C21.7918 14.403 22.0002 15.1334 22.0002 16C22.0002 17.1109 21.6117 18.0553 20.8342 18.833C20.0564 19.6108 19.1113 20 18.0002 20C16.8892 19.9999 15.9449 19.6107 15.1672 18.833C15.1074 18.7733 15.0505 18.7121 14.9953 18.6504C14.0874 19.6754 12.6629 20.2318 11.135 19.9082C10.2954 19.7322 9.54939 19.2766 8.99628 18.6494C8.08838 19.6752 6.66264 20.2321 5.13398 19.9082C3.60774 19.5881 2.38783 18.3476 2.08124 16.8213C1.66827 14.7352 2.87527 12.8695 4.66816 12.2363V6.66992C4.66828 5.93682 5.26803 5.33691 6.00116 5.33691C6.73419 5.33704 7.33405 5.93689 7.33417 6.66992H8.66718C9.40026 6.66994 10 7.26988 10.0002 8.00293C10.0002 8.73613 9.40037 9.33592 8.66718 9.33594H7.33417V12.2363C7.98271 12.4646 8.55315 12.8566 8.99921 13.3613C9.44569 12.8564 10.0186 12.4657 10.6682 12.2363V6.66992C10.6683 5.93682 11.268 5.33691 12.0012 5.33691C12.7343 5.33695 13.334 5.93684 13.3342 6.66992H14.6672C15.4003 6.66992 16 7.26987 16.0002 8.00293C16.0002 8.73614 15.4004 9.33594 14.6672 9.33594H13.3342V12.2363C13.9814 12.4641 14.5506 12.8552 14.9963 13.3584C15.3535 12.9861 15.7819 12.6938 16.2834 12.4834V6.33301C16.2835 6.05538 16.381 5.81937 16.5754 5.625C16.7697 5.43064 17.0058 5.33309 17.2834 5.33301H18.717ZM17.2834 13.167C16.8057 13.256 16.3055 13.5532 15.7834 14.0586C15.7174 14.1225 15.6555 14.1884 15.5978 14.2568C15.8548 14.7842 16.0002 15.3759 16.0002 16.002C16.0002 16.6418 15.8488 17.246 15.5812 17.7822C15.67 17.9001 15.766 18.0158 15.8752 18.125C16.4585 18.7083 17.1669 18.9999 18.0002 19C18.8335 19 19.5419 18.7083 20.1252 18.125C20.7085 17.5417 21.0002 16.8333 21.0002 16C21.0002 15.2112 20.7391 14.5641 20.217 14.0586C19.6948 13.553 19.1948 13.2559 18.717 13.167V9.13379H21.0002V8.09961H18.717V6.33301H17.2834V13.167ZM6.00116 14.6689C5.26796 14.6689 4.66816 15.2687 4.66816 16.002C4.6682 16.7351 5.26798 17.335 6.00116 17.335C6.73424 17.3348 7.33413 16.735 7.33417 16.002C7.33417 15.2688 6.73427 14.6691 6.00116 14.6689ZM12.0012 14.6689C11.268 14.6689 10.6682 15.2687 10.6682 16.002C10.6682 16.7351 11.268 17.335 12.0012 17.335C12.7343 17.3349 13.3341 16.7351 13.3342 16.002C13.3342 15.2688 12.7343 14.669 12.0012 14.6689Z" fill="#031F2B"/>
</svg>
