<svg width="120" height="120" viewBox="0 0 120 120" fill="none" xmlns="http://www.w3.org/2000/svg">
<path d="M43.125 97.5C43.125 97.9973 42.9275 98.4742 42.5758 98.8259C42.2242 99.1775 41.7473 99.375 41.25 99.375H18.4594C17.0454 99.3725 15.69 98.8097 14.6901 97.8099C13.6903 96.81 13.1275 95.4547 13.125 94.0406V90C13.125 89.5027 13.3225 89.0258 13.6742 88.6742C14.0258 88.3226 14.5027 88.125 15 88.125C15.4973 88.125 15.9742 88.3226 16.3258 88.6742C16.6775 89.0258 16.875 89.5027 16.875 90V94.0406C16.8762 94.4605 17.0436 94.8627 17.3404 95.1596C17.6373 95.4565 18.0396 95.6238 18.4594 95.625H41.25C41.7473 95.625 42.2242 95.8226 42.5758 96.1742C42.9275 96.5258 43.125 97.0027 43.125 97.5ZM75 95.625H60C59.5027 95.625 59.0258 95.8226 58.6742 96.1742C58.3225 96.5258 58.125 97.0027 58.125 97.5C58.125 97.9973 58.3225 98.4742 58.6742 98.8259C59.0258 99.1775 59.5027 99.375 60 99.375H75C75.4973 99.375 75.9742 99.1775 76.3258 98.8259C76.6775 98.4742 76.875 97.9973 76.875 97.5C76.875 97.0027 76.6775 96.5258 76.3258 96.1742C75.9742 95.8226 75.4973 95.625 75 95.625ZM105 69.375C104.503 69.375 104.026 69.5726 103.674 69.9242C103.323 70.2758 103.125 70.7527 103.125 71.25V94.1672C103.124 94.5535 102.97 94.9235 102.697 95.1967C102.424 95.4698 102.053 95.6238 101.667 95.625H93.75C93.2527 95.625 92.7758 95.8226 92.4242 96.1742C92.0725 96.5258 91.875 97.0027 91.875 97.5C91.875 97.9973 92.0725 98.4742 92.4242 98.8259C92.7758 99.1775 93.2527 99.375 93.75 99.375H101.667C103.048 99.3738 104.372 98.8247 105.348 97.8483C106.325 96.8719 106.874 95.548 106.875 94.1672V71.25C106.875 70.7527 106.677 70.2758 106.326 69.9242C105.974 69.5726 105.497 69.375 105 69.375ZM101.25 35.625H78.75C78.2527 35.625 77.7758 35.8226 77.4242 36.1742C77.0725 36.5258 76.875 37.0027 76.875 37.5C76.875 37.9973 77.0725 38.4742 77.4242 38.8258C77.7758 39.1775 78.2527 39.375 78.75 39.375H101.25C101.747 39.375 102.224 39.5726 102.576 39.9242C102.927 40.2758 103.125 40.7527 103.125 41.25V52.5C103.125 52.9973 103.323 53.4742 103.674 53.8258C104.026 54.1775 104.503 54.375 105 54.375C105.497 54.375 105.974 54.1775 106.326 53.8258C106.677 53.4742 106.875 52.9973 106.875 52.5V41.25C106.875 39.7582 106.282 38.3274 105.227 37.2725C104.173 36.2177 102.742 35.625 101.25 35.625ZM13.125 37.5V26.25C13.125 24.7582 13.7176 23.3274 14.7725 22.2725C15.8274 21.2177 17.2582 20.625 18.75 20.625H43.4484C44.1873 20.6231 44.9191 20.768 45.6015 21.0512C46.2839 21.3345 46.9032 21.7505 47.4234 22.275L61.3266 36.1735C61.5891 36.4357 61.7679 36.7699 61.8404 37.1338C61.9128 37.4977 61.8757 37.875 61.7337 38.2178C61.5916 38.5605 61.3511 38.8535 61.0425 39.0595C60.7338 39.2655 60.3711 39.3753 60 39.375H15C14.5027 39.375 14.0258 39.1775 13.6742 38.8258C13.3225 38.4742 13.125 37.9973 13.125 37.5ZM16.875 35.625H55.4719L44.7703 24.9235C44.4195 24.5731 43.9442 24.3759 43.4484 24.375H18.75C18.2527 24.375 17.7758 24.5726 17.4242 24.9242C17.0725 25.2758 16.875 25.7527 16.875 26.25V35.625ZM15 73.125C15.4973 73.125 15.9742 72.9275 16.3258 72.5758C16.6775 72.2242 16.875 71.7473 16.875 71.25V56.25C16.875 55.7527 16.6775 55.2758 16.3258 54.9242C15.9742 54.5726 15.4973 54.375 15 54.375C14.5027 54.375 14.0258 54.5726 13.6742 54.9242C13.3225 55.2758 13.125 55.7527 13.125 56.25V71.25C13.125 71.7473 13.3225 72.2242 13.6742 72.5758C14.0258 72.9275 14.5027 73.125 15 73.125Z" fill="#757575"/>
</svg>
