<svg width="26" height="26" viewBox="0 0 26 26" fill="none" xmlns="http://www.w3.org/2000/svg">
<path d="M17.8764 8.1875C16.9392 8.18834 16.0155 8.4108 15.1807 8.8367C14.3459 9.26261 13.6237 9.87989 13.073 10.6382C12.5223 11.3964 12.1587 12.2742 12.012 13.1997C11.8653 14.1253 11.9396 15.0724 12.2289 15.9637L7.95591 20.2356C7.90078 20.2907 7.85707 20.3562 7.82727 20.4283C7.79747 20.5004 7.78217 20.5776 7.78223 20.6556V23.6242C7.78223 23.7817 7.84478 23.9327 7.95614 24.044C8.06749 24.1554 8.21852 24.2179 8.376 24.2179H11.3449C11.5023 24.2179 11.6534 24.1554 11.7647 24.044C11.8761 23.9327 11.9386 23.7817 11.9386 23.6242V22.4368H13.1262C13.2837 22.4368 13.4347 22.3742 13.5461 22.2629C13.6574 22.1515 13.72 22.0005 13.72 21.8431V20.6556H14.9075C14.9855 20.6557 15.0628 20.6404 15.1348 20.6106C15.2069 20.5808 15.2724 20.5371 15.3276 20.482L16.0372 19.7717C16.8533 20.0367 17.7171 20.1216 18.5691 20.0207C19.4212 19.9198 20.2413 19.6354 20.9729 19.1872C21.7045 18.739 22.3303 18.1375 22.8071 17.4243C23.284 16.711 23.6005 15.9029 23.7351 15.0556C23.8696 14.2083 23.8189 13.3418 23.5864 12.516C23.3539 11.6901 22.9452 10.9245 22.3884 10.2717C21.8316 9.619 21.1399 9.09467 20.361 8.73486C19.5821 8.37505 18.7344 8.18831 17.8764 8.1875ZM19.3608 13.8278C19.1259 13.8278 18.8963 13.7582 18.701 13.6277C18.5058 13.4972 18.3535 13.3118 18.2637 13.0948C18.1738 12.8778 18.1503 12.6391 18.1961 12.4087C18.2419 12.1784 18.355 11.9668 18.5211 11.8008C18.6872 11.6347 18.8988 11.5216 19.1291 11.4758C19.3595 11.43 19.5983 11.4535 19.8153 11.5433C20.0323 11.6332 20.2177 11.7854 20.3482 11.9807C20.4787 12.176 20.5484 12.4055 20.5484 12.6404C20.5484 12.9553 20.4232 13.2574 20.2005 13.48C19.9778 13.7027 19.6758 13.8278 19.3608 13.8278Z" fill="#031F2B"/>
<path d="M18.6823 6.00315C17.8088 5.61483 16.853 5.43254 15.8931 5.47117C14.9332 5.5098 13.9963 5.76825 13.1589 6.22541C12.3215 6.68258 11.6074 7.32551 11.0748 8.10169C10.5423 8.87788 10.2064 9.76533 10.0946 10.6916L4.28652 12.7812C4.21157 12.8082 4.14283 12.8493 4.08424 12.9021C4.02565 12.9549 3.97835 13.0184 3.94505 13.089L2.67534 15.7738C2.60799 15.9163 2.60168 16.0788 2.6578 16.2257C2.71392 16.3727 2.82788 16.492 2.9746 16.5573L5.74061 17.7899C5.88733 17.8553 6.0548 17.8614 6.20616 17.8069C6.35753 17.7524 6.48041 17.6418 6.54776 17.4994L7.05564 16.4255L8.16205 16.9185C8.30877 16.9839 8.47623 16.99 8.6276 16.9355C8.77897 16.881 8.90184 16.7704 8.96919 16.628L9.47708 15.5541L10.5835 16.0471C10.6561 16.0795 10.7346 16.0977 10.8145 16.1007C10.8944 16.1037 10.9742 16.0914 11.0492 16.0644L12.014 15.7166C12.661 16.2951 13.4295 16.7305 14.2665 16.993C15.1035 17.2555 15.9891 17.3387 16.8625 17.2371C17.7358 17.1354 18.5761 16.8513 19.3254 16.4041C20.0747 15.957 20.7153 15.3576 21.2031 14.6471C21.6908 13.9366 22.0142 13.1319 22.1508 12.2885C22.2874 11.4451 22.2341 10.5829 21.9945 9.76137C21.7549 8.93985 21.3348 8.17848 20.763 7.52968C20.1912 6.88089 19.4813 6.36009 18.6823 6.00315ZM14.1113 15.6687C13.5509 15.4201 13.0444 15.07 12.6191 14.6372C12.5376 14.549 12.4306 14.4866 12.3121 14.4581C12.1936 14.4297 12.069 14.4364 11.9545 14.4776L10.8625 14.8711L9.43176 14.2336C9.28504 14.1682 9.11758 14.1621 8.96621 14.2166C8.81484 14.271 8.69196 14.3817 8.62461 14.5241L8.11673 15.598L7.01032 15.105C6.86361 15.0396 6.69614 15.0335 6.54477 15.088C6.3934 15.1424 6.27053 15.2531 6.20318 15.3955L5.69529 16.4694L4.03569 15.7299L4.94639 13.8042L10.8816 11.6688C10.9961 11.6276 11.0951 11.5539 11.1659 11.4573C11.2366 11.3607 11.2758 11.2457 11.2784 11.1272C11.3324 10.1174 11.7185 9.15109 12.3801 8.37008C13.0417 7.58908 13.9439 7.0346 14.9541 6.78808C15.9644 6.54156 17.0294 6.616 17.9929 7.00046C18.9564 7.38492 19.7674 8.05913 20.307 8.92408C20.8465 9.78903 21.0861 10.7991 20.9906 11.806C20.895 12.8129 20.4693 13.7635 19.7761 14.5181C19.0828 15.2728 18.1585 15.7918 17.1389 15.9989C16.1193 16.206 15.0582 16.0903 14.1113 15.6687ZM18.9905 11.0165C18.9152 11.1758 18.7929 11.3098 18.6391 11.4017C18.4852 11.4935 18.3068 11.539 18.1264 11.5324C17.9459 11.5258 17.7715 11.4674 17.6252 11.3646C17.479 11.2618 17.3674 11.1192 17.3046 10.9548C17.2418 10.7905 17.2307 10.6117 17.2726 10.4412C17.3144 10.2707 17.4074 10.1161 17.5399 9.99688C17.6723 9.87769 17.8381 9.79928 18.0164 9.77158C18.1947 9.74389 18.3775 9.76814 18.5416 9.84127C18.7617 9.93934 18.9326 10.1182 19.0168 10.3386C19.101 10.559 19.0916 10.8029 18.9905 11.0165Z" fill="#031F2B"/>
<path d="M18.6828 6.00706C17.8093 5.61874 16.8535 5.43645 15.8936 5.47508C14.9337 5.51371 13.9968 5.77215 13.1594 6.22932C12.322 6.68649 11.6079 7.32941 11.0753 8.1056C10.5428 8.88179 10.2069 9.76923 10.0951 10.6955L4.28701 12.7851C4.21206 12.8121 4.14332 12.8532 4.08473 12.906C4.02613 12.9588 3.97884 13.0223 3.94554 13.0929L2.67583 15.7778C2.60848 15.9202 2.60217 16.0827 2.65829 16.2297C2.71441 16.3766 2.82837 16.4959 2.97509 16.5612L5.7411 17.7938C5.88782 17.8592 6.05528 17.8653 6.20665 17.8108C6.35802 17.7563 6.4809 17.6457 6.54825 17.5033L7.05613 16.4294L8.16254 16.9224C8.30926 16.9878 8.47672 16.9939 8.62809 16.9394C8.77946 16.8849 8.90233 16.7743 8.96968 16.6319L9.47757 15.558L10.584 16.051C10.6566 16.0834 10.7351 16.1016 10.815 16.1046C10.8949 16.1076 10.9747 16.0953 11.0496 16.0683L12.0145 15.7205C12.6615 16.299 13.43 16.7344 14.267 16.9969C15.104 17.2594 15.9896 17.3426 16.863 17.241C17.7363 17.1393 18.5766 16.8552 19.3259 16.4081C20.0752 15.9609 20.7158 15.3615 21.2036 14.651C21.6913 13.9405 22.0146 13.1358 22.1513 12.2924C22.2879 11.449 22.2346 10.5868 21.995 9.76528C21.7554 8.94375 21.3353 8.18238 20.7635 7.53359C20.1917 6.8848 19.4818 6.364 18.6828 6.00706ZM14.1118 15.6726C13.5514 15.424 13.0449 15.0739 12.6196 14.6411C12.5381 14.5529 12.4311 14.4905 12.3126 14.462C12.194 14.4336 12.0694 14.4404 11.955 14.4815L10.863 14.875L9.43225 14.2375C9.28553 14.1721 9.11807 14.166 8.9667 14.2205C8.81533 14.2749 8.69245 14.3856 8.6251 14.528L8.11722 15.6019L7.01081 15.1089C6.86409 15.0435 6.69663 15.0374 6.54526 15.0919C6.39389 15.1463 6.27102 15.257 6.20367 15.3994L5.69578 16.4733L4.03617 15.7338L4.94687 13.8081L10.8821 11.6727C10.9966 11.6315 11.0956 11.5578 11.1664 11.4612C11.2371 11.3646 11.2763 11.2496 11.2789 11.1311C11.3329 10.1214 11.719 9.15499 12.3806 8.37399C13.0422 7.59299 13.9444 7.03851 14.9546 6.79199C15.9649 6.54547 17.0299 6.6199 17.9934 7.00436C18.9569 7.38882 19.7679 8.06304 20.3075 8.92799C20.847 9.79294 21.0866 10.803 20.9911 11.8099C20.8955 12.8168 20.4698 13.7674 19.7766 14.5221C19.0833 15.2767 18.159 15.7957 17.1394 16.0028C16.1198 16.2099 15.0587 16.0942 14.1118 15.6726ZM18.991 11.0204C18.9157 11.1797 18.7934 11.3137 18.6395 11.4056C18.4857 11.4974 18.3073 11.5429 18.1268 11.5363C17.9464 11.5297 17.772 11.4713 17.6257 11.3685C17.4795 11.2657 17.3679 11.1231 17.3051 10.9587C17.2423 10.7944 17.2312 10.6156 17.273 10.4451C17.3149 10.2746 17.4079 10.12 17.5403 10.0008C17.6728 9.88159 17.8386 9.80319 18.0169 9.77549C18.1952 9.74779 18.378 9.77204 18.5421 9.84518C18.7622 9.94324 18.9331 10.1222 19.0173 10.3426C19.1015 10.563 19.092 10.8068 18.991 11.0204Z" fill="#031F2B"/>
<path d="M21.5017 14.1823C21.2862 16.4313 19.3538 13.6046 20.2063 13.8366C21.0587 14.0685 21.9612 14.0526 22.8046 13.7906C23.648 13.5286 24.3961 13.0318 24.9584 12.3603C25.5206 11.6889 25.873 10.8715 25.9727 10.0072C26.0725 9.14292 25.9153 8.26872 25.5204 7.49042C25.1254 6.71211 24.5096 6.06307 23.7473 5.62185C22.9851 5.18063 22.1092 4.96614 21.2256 5.00434C20.3419 5.04255 18.7898 5.55892 18.0698 6.06422L19.5416 6.90231C20.0521 6.54396 20.6574 6.33883 21.284 6.31174C21.9106 6.28464 22.5318 6.43675 23.0724 6.74966C23.6129 7.06256 24.0497 7.52284 24.3298 8.07479C24.6099 8.62674 24.7213 9.24671 24.6506 9.85964C24.5798 10.4726 24.33 11.0522 23.9312 11.5284C23.5325 12.0046 23.0019 12.3569 22.4038 12.5427C21.8057 12.7285 20.339 15.0678 20.5612 14.4995C20.7833 13.9313 20.8653 13.3861 21.0181 11.7912L21.5017 14.1823Z" fill="#031F2B"/>
</svg>
