<svg width="24" height="25" viewBox="0 0 24 25" fill="none" xmlns="http://www.w3.org/2000/svg">
<g clip-path="url(#clip0_57057_1418)">
<path d="M12 13.4922C13.63 13.4922 15.07 13.8822 16.24 14.3922C17.32 14.8722 18 15.9522 18 17.1222V18.7422H6V17.1322C6 15.9522 6.68 14.8722 7.76 14.4022C8.93 13.8822 10.37 13.4922 12 13.4922ZM4 13.7422C5.1 13.7422 6 12.8422 6 11.7422C6 10.6422 5.1 9.74219 4 9.74219C2.9 9.74219 2 10.6422 2 11.7422C2 12.8422 2.9 13.7422 4 13.7422ZM5.13 14.8422C4.76 14.7822 4.39 14.7422 4 14.7422C3.01 14.7422 2.07 14.9522 1.22 15.3222C0.48 15.6422 0 16.3622 0 17.1722V18.7422H4.5V17.1322C4.5 16.3022 4.73 15.5222 5.13 14.8422ZM20 13.7422C21.1 13.7422 22 12.8422 22 11.7422C22 10.6422 21.1 9.74219 20 9.74219C18.9 9.74219 18 10.6422 18 11.7422C18 12.8422 18.9 13.7422 20 13.7422ZM24 17.1722C24 16.3622 23.52 15.6422 22.78 15.3222C21.93 14.9522 20.99 14.7422 20 14.7422C19.61 14.7422 19.24 14.7822 18.87 14.8422C19.27 15.5222 19.5 16.3022 19.5 17.1322V18.7422H24V17.1722ZM12 6.74219C13.66 6.74219 15 8.08219 15 9.74219C15 11.4022 13.66 12.7422 12 12.7422C10.34 12.7422 9 11.4022 9 9.74219C9 8.08219 10.34 6.74219 12 6.74219Z" fill="white"/>
</g>
<defs>
<clipPath id="clip0_57057_1418">
<rect width="24" height="24" fill="white" transform="translate(0 0.742188)"/>
</clipPath>
</defs>
</svg>
