<svg width="29" height="28" viewBox="0 0 29 28" fill="none" xmlns="http://www.w3.org/2000/svg">
<g clip-path="url(#clip0_16695_102605)">
<path d="M14.9961 14.875C16.8978 14.875 18.5778 15.33 19.9428 15.925C21.2028 16.485 21.9961 17.745 21.9961 19.11V21H7.99609V19.1216C7.99609 17.745 8.78943 16.485 10.0494 15.9366C11.4144 15.33 13.0944 14.875 14.9961 14.875ZM5.66276 15.1666C6.94609 15.1666 7.99609 14.1166 7.99609 12.8333C7.99609 11.55 6.94609 10.5 5.66276 10.5C4.37943 10.5 3.32943 11.55 3.32943 12.8333C3.32943 14.1166 4.37943 15.1666 5.66276 15.1666ZM6.98109 16.45C6.54943 16.38 6.11776 16.3333 5.66276 16.3333C4.50776 16.3333 3.41109 16.5783 2.41943 17.01C1.55609 17.3833 0.996094 18.2233 0.996094 19.1683V21H6.24609V19.1216C6.24609 18.1533 6.51443 17.2433 6.98109 16.45ZM24.3294 15.1666C25.6128 15.1666 26.6628 14.1166 26.6628 12.8333C26.6628 11.55 25.6128 10.5 24.3294 10.5C23.0461 10.5 21.9961 11.55 21.9961 12.8333C21.9961 14.1166 23.0461 15.1666 24.3294 15.1666ZM28.9961 19.1683C28.9961 18.2233 28.4361 17.3833 27.5728 17.01C26.5811 16.5783 25.4844 16.3333 24.3294 16.3333C23.8744 16.3333 23.4428 16.38 23.0111 16.45C23.4778 17.2433 23.7461 18.1533 23.7461 19.1216V21H28.9961V19.1683ZM14.9961 6.99997C16.9328 6.99997 18.4961 8.5633 18.4961 10.5C18.4961 12.4366 16.9328 14 14.9961 14C13.0594 14 11.4961 12.4366 11.4961 10.5C11.4961 8.5633 13.0594 6.99997 14.9961 6.99997Z" fill="#031F2B"/>
</g>
<defs>
<clipPath id="clip0_16695_102605">
<rect width="28" height="28" fill="white" transform="translate(0.996094 -3.05176e-05)"/>
</clipPath>
</defs>
</svg>
