<svg width="346" height="300" viewBox="0 0 346 300" fill="none" xmlns="http://www.w3.org/2000/svg">
<rect width="346" height="300" fill="#D0E2FF"/>
<path d="M209.574 240L209.574 214.521" stroke="#333333" stroke-width="1.40899" stroke-linecap="round"/>
<path d="M184.918 240L184.918 214.521" stroke="#333333" stroke-width="1.40899" stroke-linecap="round"/>
<path d="M160.258 240L160.258 214.521" stroke="#333333" stroke-width="1.40899" stroke-linecap="round"/>
<path d="M135.602 240L135.602 214.521" stroke="#333333" stroke-width="1.40899" stroke-linecap="round"/>
<path d="M263 114.25H237.521" stroke="#333333" stroke-width="1.40899" stroke-linecap="round"/>
<path d="M263 138.906H237.521" stroke="#333333" stroke-width="1.40899" stroke-linecap="round"/>
<path d="M263 163.562H237.521" stroke="#333333" stroke-width="1.40899" stroke-linecap="round"/>
<path d="M263 188.219H237.521" stroke="#333333" stroke-width="1.40899" stroke-linecap="round"/>
<path d="M263 114.25H237.521" stroke="#333333" stroke-width="1.40899" stroke-linecap="round"/>
<path d="M263 138.906H237.521" stroke="#333333" stroke-width="1.40899" stroke-linecap="round"/>
<path d="M263 163.562H237.521" stroke="#333333" stroke-width="1.40899" stroke-linecap="round"/>
<path d="M263 188.219H237.521" stroke="#333333" stroke-width="1.40899" stroke-linecap="round"/>
<path d="M237.519 86.3047H109.301V214.523H237.519V86.3047Z" fill="#3D84A8" stroke="#333333" stroke-width="0.986291" stroke-linecap="round" stroke-linejoin="round"/>
<path d="M83 114.25H108.479" stroke="#333333" stroke-width="1.40899" stroke-linecap="round"/>
<path d="M83 138.906H108.479" stroke="#333333" stroke-width="1.40899" stroke-linecap="round"/>
<path d="M83 163.562H108.479" stroke="#333333" stroke-width="1.40899" stroke-linecap="round"/>
<path d="M83 188.219H108.479" stroke="#333333" stroke-width="1.40899" stroke-linecap="round"/>
<rect x="119.657" y="96.6572" width="107.506" height="107.506" fill="#46CDCF" stroke="#333333" stroke-width="0.986291"/>
<path d="M198.631 124.962V175.639H147.954V124.962H198.631Z" fill="#78C7E0" stroke="#333333" stroke-width="0.986291"/>
<path d="M209.574 85.4844L209.574 60.0052" stroke="#333333" stroke-width="1.40899" stroke-linecap="round"/>
<path d="M184.918 85.4844L184.918 60.0052" stroke="#333333" stroke-width="1.40899" stroke-linecap="round"/>
<path d="M160.258 85.4844L160.258 60.0052" stroke="#333333" stroke-width="1.40899" stroke-linecap="round"/>
<path d="M135.602 85.4844L135.602 60.0052" stroke="#333333" stroke-width="1.40899" stroke-linecap="round"/>
<path d="M227.301 125.075C242.87 125.075 255.481 112.327 255.481 96.5882C255.481 80.8496 242.87 68.1016 227.301 68.1016C211.732 68.1016 199.121 80.8496 199.121 96.5882C199.121 112.327 211.732 125.075 227.301 125.075Z" fill="white" stroke="#333333" stroke-width="0.577195" stroke-linecap="round" stroke-linejoin="round"/>
<path d="M227.021 113C218.171 113 210.988 105.817 210.988 96.9668C210.988 88.1165 218.171 80.9336 227.021 80.9336C235.872 80.9336 243.055 88.1165 243.055 96.9668C243.055 105.817 235.872 113 227.021 113ZM228.625 88.9502H225.418V98.5701H228.625V88.9502ZM228.625 101.777H225.418V104.983H228.625V101.777Z" fill="#CF4018"/>
</svg>
