<svg width="24" height="25" viewBox="0 0 24 25" fill="none" xmlns="http://www.w3.org/2000/svg">
<path d="M16.125 3.75C17.7917 3.75 19.1875 4.36667 20.3125 5.6C21.4375 6.83333 22 8.3 22 10C22 10.3 21.9833 10.5958 21.95 10.8875C21.9167 11.1792 21.8583 11.4667 21.775 11.75H15.525L13.825 9.2C13.7417 9.06667 13.625 8.95833 13.475 8.875C13.325 8.79167 13.1667 8.75 13 8.75C12.7833 8.75 12.5875 8.81667 12.4125 8.95C12.2375 9.08333 12.1167 9.25 12.05 9.45L10.7 13.5L9.825 12.2C9.74167 12.0667 9.625 11.9583 9.475 11.875C9.325 11.7917 9.16667 11.75 9 11.75H2.225C2.14167 11.4667 2.08333 11.1792 2.05 10.8875C2.01667 10.5958 2 10.3083 2 10.025C2 8.30833 2.55833 6.83333 3.675 5.6C4.79167 4.36667 6.18333 3.75 7.85 3.75C8.65 3.75 9.40417 3.90833 10.1125 4.225C10.8208 4.54167 11.45 4.98333 12 5.55C12.5333 4.98333 13.1542 4.54167 13.8625 4.225C14.5708 3.90833 15.325 3.75 16.125 3.75ZM12 21.75C11.7 21.75 11.4125 21.6958 11.1375 21.5875C10.8625 21.4792 10.6167 21.3167 10.4 21.1L3.7 14.375C3.6 14.275 3.50833 14.175 3.425 14.075C3.34167 13.975 3.25833 13.8667 3.175 13.75H8.45L10.15 16.3C10.2333 16.4333 10.35 16.5417 10.5 16.625C10.65 16.7083 10.8083 16.75 10.975 16.75C11.1917 16.75 11.3917 16.6833 11.575 16.55C11.7583 16.4167 11.8833 16.25 11.95 16.05L13.3 12L14.15 13.3C14.25 13.4333 14.375 13.5417 14.525 13.625C14.675 13.7083 14.8333 13.75 15 13.75H20.8L20.3 14.35L13.575 21.1C13.3583 21.3167 13.1167 21.4792 12.85 21.5875C12.5833 21.6958 12.3 21.75 12 21.75Z" fill="white"/>
</svg>
