<svg width="209" height="137" viewBox="0 0 209 137" fill="none" xmlns="http://www.w3.org/2000/svg">
<g clip-path="url(#clip0_47040_237208)">
<path d="M175.235 0.03125H0.722656V125.819H175.235V0.03125Z" fill="#ABEDD8" stroke="#333333" stroke-width="0.6" stroke-linecap="round" stroke-linejoin="round"/>
<path d="M175.235 115.696H0.722656V135.936H175.235V115.696Z" fill="#46CDCF" stroke="#333333" stroke-width="0.6" stroke-linecap="round" stroke-linejoin="round"/>
<path d="M13.2949 125.704H19.1037" stroke="#333333" stroke-width="0.6" stroke-linecap="round" stroke-linejoin="round"/>
<path d="M24.6348 125.704H30.497" stroke="#333333" stroke-width="0.6" stroke-linecap="round" stroke-linejoin="round"/>
<path d="M42.6064 45.2487L69.3582 17.4033C69.3582 17.4033 69.3582 17.4033 69.3907 17.4033H69.4287L84.9337 35.0878V35.1202C84.9337 35.1202 84.9336 35.1579 84.9011 35.1579L53.7774 50.5934H53.7448L42.9639 46.8181C42.3193 46.6024 42.1405 45.7449 42.6064 45.2487Z" fill="#54C4C9" stroke="#333333" stroke-width="0.6" stroke-linecap="round" stroke-linejoin="round"/>
<path d="M66.6665 27.5262L69.3861 24.7109L84.967 42.4655L53.7728 57.901L45.6465 49.3797L59.5045 34.9797" stroke="#333333" stroke-width="0.6" stroke-linecap="round" stroke-linejoin="round"/>
<path d="M103.262 41.4539C104.268 30.7891 97.583 21.4214 88.3618 20.5469C87.1205 20.4292 82.894 19.9029 81.3656 19.7938C72.1089 18.9159 63.8269 26.8642 62.8018 37.5451C61.7766 48.226 68.4808 57.5776 77.718 58.4715L84.7142 59.2247C93.9548 60.0831 102.272 52.1382 103.262 41.4539Z" fill="#ABEDD8"/>
<path d="M84.7591 59.2053C93.9973 60.0814 102.303 52.137 103.309 41.4611C103.835 35.8907 102.269 30.6773 99.3396 26.8404C96.6544 23.3236 92.8231 20.9632 88.4051 20.5442C79.1669 19.6681 70.8616 27.6125 69.8548 38.2884C68.848 48.9643 75.5209 58.3291 84.7591 59.2053Z" fill="white"/>
<path d="M103.309 41.4611C102.303 52.137 93.9973 60.0814 84.7591 59.2053C75.5209 58.3291 68.848 48.9643 69.8548 38.2884C70.8616 27.6125 79.1669 19.6681 88.4051 20.5442M103.309 41.4611C103.835 35.8907 102.269 30.6773 99.3396 26.8404C96.6544 23.3236 92.8231 20.9632 88.4051 20.5442M103.309 41.4611C103.541 39.0021 103.366 36.6127 102.845 34.3805M88.4051 20.5442C92.0121 20.8863 95.2281 22.5225 97.7485 25.0256M100.683 28.8608C101.297 29.9281 101.819 31.0711 102.236 32.2736M87.617 31.4127L88.402 28.4024M91.2768 32.4273L92.0458 29.3975M82.4664 50.4497L83.2353 47.4199M86.1528 51.4626L86.9218 48.4329M75.6632 25.4327L69.7056 23.7202M80.0017 21.9914L74.9671 20.9424M71.7567 30.9449L65.3928 29.1759M69.9777 36.9505L63.1031 35.4739M69.9826 43.9444L62.9614 42.8843M73.0767 51.9315L65.988 50.8291M103.262 41.4539C104.268 30.7891 97.583 21.4214 88.3618 20.5469C87.1205 20.4292 82.894 19.9029 81.3656 19.7938C72.1089 18.9159 63.8269 26.8642 62.8018 37.5451C61.7766 48.226 68.4808 57.5776 77.718 58.4715L84.7142 59.2247C93.9548 60.0831 102.272 52.1382 103.262 41.4539ZM90.1113 40.6627L81.7015 38.3945L83.849 30.4204L92.2589 32.6886C93.2437 33.0342 94.0616 33.7407 94.5482 34.6659C95.0348 35.5911 95.1541 36.6666 94.8822 37.6763C94.6103 38.686 93.9673 39.5551 93.0823 40.1091C92.1973 40.6631 91.1359 40.8608 90.1113 40.6627ZM87.927 48.6437L79.5171 46.3755L81.6647 38.4014L90.0746 40.6696C90.5959 40.8097 91.0846 41.0514 91.5127 41.3808C91.9409 41.7102 92.3001 42.1209 92.5699 42.5894C92.8398 43.058 93.0149 43.5752 93.0853 44.1116C93.1557 44.648 93.12 45.193 92.9802 45.7155C92.8405 46.238 92.5995 46.7278 92.2709 47.157C91.9423 47.5861 91.5326 47.9462 91.0651 48.2166C90.5977 48.487 90.0817 48.6625 89.5466 48.733C89.0115 48.8035 88.4678 48.7677 87.9465 48.6276L87.927 48.6437Z" stroke="#333333" stroke-linecap="round" stroke-linejoin="round"/>
<path d="M42.5342 46.3535H108.319C108.357 46.3535 108.357 46.3535 108.357 46.3859V98.7221C108.357 98.7598 108.357 98.7598 108.319 98.7598H41.6024C41.5645 98.7598 41.5645 98.7598 41.5645 98.7221V47.2757C41.5645 46.7796 41.9925 46.3535 42.5342 46.3535Z" fill="#78C7E0" stroke="#333333" stroke-width="0.6" stroke-linecap="round" stroke-linejoin="round"/>
<path d="M113.025 83.2892C113.025 83.3269 113.025 83.327 112.987 83.327H96.1924C91.5008 83.327 87.7031 79.5463 87.7031 74.9135V70.1674C87.7031 65.4968 91.5008 61.7539 96.1924 61.7539H112.987C113.025 61.7539 113.025 61.7539 113.025 61.7917V83.2892Z" fill="#78C7E0" stroke="#333333" stroke-width="0.6" stroke-linecap="round" stroke-linejoin="round"/>
<path d="M208.036 66.6572V93.9272H140.808V37.0919L142.38 35.4258H207.29L208.036 37.0919V62.6194" fill="#3D84A8"/>
<path d="M208.036 66.6572V93.9272H140.808V37.0919L142.38 35.4258H207.29L208.036 37.0919V62.6194" stroke="#333333" stroke-width="0.6" stroke-linecap="round" stroke-linejoin="round"/>
<path d="M208.036 29.1748H140.808V37.092H208.036V29.1748Z" fill="#46CDCF" stroke="#333333" stroke-width="0.6" stroke-linecap="round" stroke-linejoin="round"/>
<path d="M201.901 37.092V29.1748" stroke="#333333" stroke-width="0.6" stroke-linecap="round" stroke-linejoin="round"/>
<path d="M175.057 61.1434V54.502H150.92V74.696H175.057V64.4641V61.1434Z" fill="#78C7E0"/>
<path fill-rule="evenodd" clip-rule="evenodd" d="M175.254 54.5025C175.254 54.3938 175.167 54.3057 175.059 54.3057H150.923C150.815 54.3057 150.728 54.3938 150.728 54.5025V74.6965C150.728 74.8053 150.815 74.8934 150.923 74.8934H175.059C175.167 74.8934 175.254 74.8053 175.254 74.6965V54.5025ZM174.865 54.6993V74.4997H151.117V54.6993H174.865Z" fill="#333333"/>
<path d="M161.184 65.3024L160.373 69.3574H165.61L164.799 65.3024C165.101 65.0642 165.352 64.7867 165.542 64.4658H160.431C160.632 64.7867 160.883 65.0898 161.184 65.3024Z" fill="#48466D"/>
<path fill-rule="evenodd" clip-rule="evenodd" d="M165.714 64.3665C165.68 64.3048 165.615 64.2666 165.545 64.2666H160.434C160.363 64.2666 160.298 64.3056 160.264 64.3684C160.229 64.4313 160.232 64.508 160.269 64.5686C160.456 64.8672 160.689 65.159 160.972 65.3836L160.185 69.3159C160.173 69.3738 160.188 69.4339 160.225 69.4796C160.262 69.5253 160.317 69.5518 160.376 69.5518H165.613C165.671 69.5518 165.727 69.5253 165.764 69.4796C165.801 69.4339 165.815 69.3738 165.804 69.3159L165.016 65.3781C165.293 65.144 165.528 64.874 165.712 64.5649C165.748 64.5041 165.749 64.4283 165.714 64.3665ZM165.172 64.6603C165.031 64.8372 164.867 64.9984 164.682 65.1449C164.624 65.1908 164.596 65.266 164.611 65.3391L165.375 69.1581H160.613L161.378 65.3391C161.393 65.2622 161.362 65.1834 161.298 65.1385C161.118 65.0114 160.954 64.8462 160.809 64.6603H165.172Z" fill="#333333"/>
<path d="M162.972 59.8262C161.954 59.8262 161.034 60.3419 160.501 61.145H165.46C164.917 60.3419 164.016 59.8262 162.972 59.8262Z" fill="#48466D"/>
<path fill-rule="evenodd" clip-rule="evenodd" d="M165.056 60.9487H160.896C161.406 60.3772 162.153 60.0236 162.968 60.0236C163.806 60.0236 164.543 60.3765 165.056 60.9487ZM165.617 61.0345C165.039 60.1791 164.079 59.6299 162.968 59.6299C161.886 59.6299 160.905 60.1786 160.336 61.0358C160.296 61.0962 160.292 61.174 160.326 61.2382C160.36 61.3023 160.426 61.3424 160.498 61.3424H165.457C165.529 61.3424 165.595 61.302 165.629 61.2374C165.663 61.1729 165.658 61.0947 165.617 61.0345Z" fill="#333333"/>
<path d="M192.227 56.5723C189.396 56.5723 187.007 58.5171 186.281 61.1449H165.469H160.508C160.166 61.6429 159.973 62.2256 159.973 62.8673C159.973 63.4519 160.166 63.9912 160.442 64.4656H165.536H186.281C187.007 67.0935 189.388 69.0363 192.227 69.0363C195.634 69.0363 198.383 66.2569 198.383 62.8082C198.383 59.3792 195.61 56.5723 192.227 56.5723Z" fill="#46CDCF"/>
<path fill-rule="evenodd" clip-rule="evenodd" d="M192.226 56.7697C195.502 56.7697 198.187 59.4883 198.187 62.8088C198.187 66.1487 195.525 68.84 192.226 68.84C189.477 68.84 187.171 66.9589 186.468 64.4132C186.444 64.3282 186.367 64.2693 186.28 64.2693H160.554C160.32 63.8413 160.167 63.3697 160.167 62.8678C160.167 62.3036 160.325 61.7893 160.611 61.3423H186.28C186.367 61.3423 186.444 61.2835 186.468 61.1984C187.17 58.6528 189.485 56.7697 192.226 56.7697ZM198.576 62.8088C198.576 59.2713 195.717 56.376 192.226 56.376C189.357 56.376 186.929 58.3117 186.134 60.9486H160.507C160.443 60.9486 160.384 60.9802 160.347 61.0331C159.983 61.5629 159.777 62.1845 159.777 62.8678C159.777 63.497 159.985 64.0708 160.273 64.5661C160.308 64.6262 160.372 64.663 160.441 64.663H186.134C186.929 67.2998 189.349 69.2337 192.226 69.2337C195.74 69.2337 198.576 66.3662 198.576 62.8088Z" fill="#333333"/>
<path fill-rule="evenodd" clip-rule="evenodd" d="M195.585 61.0886C195.365 60.9917 195.122 60.9463 194.865 60.9463C193.846 60.9463 193.033 61.7874 193.033 62.7986C193.033 63.8288 193.848 64.6509 194.865 64.6509C195.883 64.6509 196.696 63.8096 196.696 62.7986C196.696 62.4886 196.623 62.1785 196.48 61.9115C196.429 61.816 196.311 61.7804 196.216 61.8322C196.122 61.884 196.087 62.0035 196.138 62.0991C196.248 62.3045 196.307 62.5495 196.307 62.7986C196.307 63.5946 195.665 64.2572 194.865 64.2572C194.062 64.2572 193.422 63.6108 193.422 62.7986C193.422 62.0027 194.063 61.34 194.865 61.34C195.076 61.34 195.265 61.3773 195.43 61.4497C195.529 61.493 195.643 61.4472 195.686 61.3475C195.729 61.2478 195.684 61.1319 195.585 61.0886Z" fill="#333333"/>
</g>
<defs>
<clipPath id="clip0_47040_237208">
<rect width="208" height="136" fill="white" transform="translate(0.722656 0.03125)"/>
</clipPath>
</defs>
</svg>
