<svg width="134" height="135" viewBox="0 0 134 135" fill="none" xmlns="http://www.w3.org/2000/svg">
<path d="M83.7475 50.5302C97.6223 50.5302 108.873 39.2824 108.873 25.4077C108.873 11.5299 97.6223 0.285156 83.7475 0.285156C69.8728 0.285156 58.625 11.5299 58.625 25.4077C58.625 39.2824 69.8728 50.5302 83.7475 50.5302Z" fill="#78C7E0"/>
<path d="M86.5678 25.1349L76.0761 27.9461L73.4121 18.0039L83.9038 15.1927C86.6618 14.4537 89.47 16.0767 90.2086 18.8331C90.9471 21.5895 89.3258 24.3959 86.5678 25.1349Z" stroke="#333333" stroke-width="0.6" stroke-linecap="round" stroke-linejoin="round"/>
<path d="M89.2329 35.1198L78.7412 37.9311L76.0781 27.9922L86.5698 25.181C89.3278 24.442 92.1351 26.0617 92.8737 28.8181C93.5998 31.5281 91.9909 34.3808 89.2329 35.1198Z" stroke="#333333" stroke-width="0.6" stroke-linecap="round" stroke-linejoin="round"/>
<path d="M78.1206 16.7421L77.0918 12.9023" stroke="#333333" stroke-width="0.6" stroke-linecap="round" stroke-linejoin="round"/>
<path d="M82.6851 15.5194L81.6562 11.6797" stroke="#333333" stroke-width="0.6" stroke-linecap="round" stroke-linejoin="round"/>
<path d="M84.4568 40.4685L83.4395 36.6719" stroke="#333333" stroke-width="0.6" stroke-linecap="round" stroke-linejoin="round"/>
<path d="M89.0368 39.2459L88.0195 35.4492" stroke="#333333" stroke-width="0.6" stroke-linecap="round" stroke-linejoin="round"/>
<path d="M107.612 33.2733C107.453 33.7676 107.274 34.2618 107.07 34.7561C101.903 47.6304 87.2972 53.8788 74.4199 48.7327C61.5427 43.5865 55.2972 28.957 60.4433 16.0797C65.6104 3.20542 80.219 -3.04301 93.0933 2.1031C100.195 4.95773 105.273 10.667 107.543 17.3617" stroke="#333333" stroke-width="0.6" stroke-linecap="round" stroke-linejoin="round"/>
<path d="M108.469 20.957C109.008 23.9704 109.008 27.1156 108.4 30.2159" stroke="#333333" stroke-width="0.6" stroke-linecap="round" stroke-linejoin="round"/>
<path d="M84.6016 4.75391C86.896 4.84377 89.1875 5.31703 91.4341 6.21565" stroke="#333333" stroke-width="0.6" stroke-linecap="round" stroke-linejoin="round"/>
<path d="M64.5625 17.723C67.4591 10.51 73.9531 5.81321 81.1451 4.89062" stroke="#333333" stroke-width="0.6" stroke-linecap="round" stroke-linejoin="round"/>
<path d="M23.9323 54.8041C35.5432 62.4 51.1159 59.1468 58.7117 47.536C66.3092 35.9226 63.0502 20.3533 51.4394 12.7574C39.8285 5.1616 24.26 8.4139 16.6625 20.0273C9.06665 31.6381 12.3215 47.2083 23.9323 54.8041Z" fill="#78C7E0"/>
<path d="M40.195 35.0993L29.8762 31.7081L33.0898 21.9297L43.4086 25.3209C46.1212 26.2124 47.5827 29.108 46.6917 31.8189C45.8008 34.5299 42.9076 35.9908 40.195 35.0993Z" stroke="#333333" stroke-width="0.6" stroke-linecap="round" stroke-linejoin="round"/>
<path d="M36.9578 44.9163L26.639 41.5251L29.8516 31.75L40.1704 35.1412C42.8829 36.0327 44.3455 38.925 43.4545 41.636C42.5786 44.3013 39.6704 45.8078 36.9578 44.9163Z" stroke="#333333" stroke-width="0.6" stroke-linecap="round" stroke-linejoin="round"/>
<path d="M37.7198 23.4522L38.9609 19.6758" stroke="#333333" stroke-width="0.6" stroke-linecap="round" stroke-linejoin="round"/>
<path d="M42.2081 24.9288L43.4492 21.1523" stroke="#333333" stroke-width="0.6" stroke-linecap="round" stroke-linejoin="round"/>
<path d="M30.0345 46.7732L31.2617 43.0391" stroke="#333333" stroke-width="0.6" stroke-linecap="round" stroke-linejoin="round"/>
<path d="M34.5365 48.2575L35.7637 44.5234" stroke="#333333" stroke-width="0.6" stroke-linecap="round" stroke-linejoin="round"/>
<path d="M53.3517 53.4297C52.9483 53.7564 52.5273 54.0716 52.0863 54.3737C40.7142 62.3185 25.0709 59.5515 17.1121 48.1953C9.15325 36.839 11.9359 21.1774 23.2921 13.2186C34.6643 5.27371 50.31 8.04242 58.2663 19.397C62.6468 25.6739 63.77 33.2312 62.005 40.0766" stroke="#333333" stroke-width="0.6" stroke-linecap="round" stroke-linejoin="round"/>
<path d="M60.8116 43.5924C59.6131 46.4093 57.8912 49.0413 55.6851 51.3028" stroke="#333333" stroke-width="0.6" stroke-linecap="round" stroke-linejoin="round"/>
<path d="M49.707 16.9648C51.5779 18.2962 53.2364 19.9467 54.6245 21.9286" stroke="#333333" stroke-width="0.6" stroke-linecap="round" stroke-linejoin="round"/>
<path d="M25.8401 16.8479C32.2128 12.3976 40.2185 12.0224 46.7421 15.1876" stroke="#333333" stroke-width="0.6" stroke-linecap="round" stroke-linejoin="round"/>
<path d="M6.98047 96.1544V35.2361C6.98047 35.1797 6.98046 35.1797 7.04924 35.1797H108.559C115.691 35.1797 121.439 39.8926 121.439 45.7405V122.327C121.439 128.175 115.691 132.888 108.559 132.888H7.04924C6.98046 132.888 6.98047 132.888 6.98047 132.832V119.884" fill="#3D84A8"/>
<path d="M6.98047 96.1544V35.2361C6.98047 35.1797 6.98046 35.1797 7.04924 35.1797H108.559C115.691 35.1797 121.439 39.8926 121.439 45.7405V122.327C121.439 128.175 115.691 132.888 108.559 132.888H7.04924C6.98046 132.888 6.98047 132.888 6.98047 132.832V119.884" stroke="#333333" stroke-width="0.6" stroke-linecap="round" stroke-linejoin="round"/>
<path d="M6.99219 116.634V99.7383" stroke="#333333" stroke-width="0.6" stroke-linecap="round" stroke-linejoin="round"/>
<path d="M102.617 63.1237C102.617 63.0586 102.617 63.0586 102.617 63.1237L127.596 63.0586C127.661 63.0586 127.661 63.0586 127.661 63.1237V97.8386C127.661 97.9037 127.661 97.9037 127.596 97.9037H102.682C102.617 97.9037 102.617 97.9037 102.617 97.8386V63.1237Z" fill="#46CDCF" stroke="#333333" stroke-width="0.6" stroke-linecap="round" stroke-linejoin="round"/>
</svg>
