<svg width="18" height="18" viewBox="0 0 18 18" fill="none" xmlns="http://www.w3.org/2000/svg">
<g clip-path="url(#clip0_21620_158570)">
<path d="M15.75 14.25L15.75 9.75C15.75 9.3375 15.4125 9 15 9C14.5875 9 14.25 9.3375 14.25 9.75L14.25 14.25L3.75 14.25L3.75 9.75C3.75 9.3375 3.4125 9 3 9C2.5875 9 2.25 9.3375 2.25 9.75L2.25 14.25C2.25 15.075 2.925 15.75 3.75 15.75L14.25 15.75C15.075 15.75 15.75 15.075 15.75 14.25Z" fill="#031F2B"/>
<path d="M11.0903 8.25L9.74779 8.25L9.74779 3C9.74779 2.5875 9.41029 2.25 8.99779 2.25C8.58529 2.25 8.24779 2.5875 8.24779 3L8.24779 8.25L6.90529 8.25C6.56779 8.25 6.40279 8.655 6.64279 8.8875L8.73529 10.98C8.88529 11.13 9.11779 11.13 9.26779 10.98L11.3603 8.8875C11.5928 8.655 11.4278 8.25 11.0903 8.25Z" fill="#031F2B"/>
</g>
<defs>
<clipPath id="clip0_21620_158570">
<rect width="18" height="18" fill="white"/>
</clipPath>
</defs>
</svg>
