<svg width="247" height="164" viewBox="0 0 247 164" fill="none" xmlns="http://www.w3.org/2000/svg">
<path d="M0.814117 32.7419V9.11083C0.814117 4.64654 4.46295 0.890625 9.02608 0.890625H220.495C224.959 0.890625 228.707 4.5477 228.707 9.11083V141.87C228.707 146.334 225.058 150.09 220.495 150.09H8.92725C4.46295 150.09 0.707031 146.433 0.707031 141.87V76.1493" fill="#3D84A8"/>
<rect x="12.707" y="12.8906" width="87" height="22" rx="11" fill="#CF4018"/>
<path d="M25.7005 26.0542L27.4797 27.4104C27.5672 27.4785 27.6547 27.4809 27.7422 27.4177C27.8297 27.3545 27.854 27.2694 27.8151 27.1625L27.1005 24.9604L28.8651 23.7062C28.9526 23.6479 28.9818 23.5677 28.9526 23.4656C28.9234 23.3635 28.8554 23.3125 28.7484 23.3125H26.5901L25.9047 21.0375C25.8755 20.9306 25.8075 20.8771 25.7005 20.8771C25.5936 20.8771 25.5255 20.9306 25.4964 21.0375L24.7964 23.3125H22.638C22.5311 23.3125 22.463 23.3635 22.4339 23.4656C22.4047 23.5677 22.4339 23.6479 22.5214 23.7062L24.2859 24.9604L23.5859 27.1771C23.547 27.2743 23.5714 27.3545 23.6589 27.4177C23.7464 27.4809 23.8339 27.4785 23.9214 27.4104L25.7005 26.0542ZM25.7005 30.1667C24.8741 30.1667 24.1061 30.0184 23.3964 29.7219C22.6866 29.4253 22.0693 29.0146 21.5443 28.4896C21.0193 27.9646 20.6085 27.3472 20.312 26.6375C20.0155 25.9278 19.8672 25.1597 19.8672 24.3333C19.8672 23.5167 20.0155 22.7535 20.312 22.0437C20.6085 21.334 21.0193 20.7167 21.5443 20.1917C22.0693 19.6667 22.6866 19.2535 23.3964 18.9521C24.1061 18.6507 24.8741 18.5 25.7005 18.5C26.5172 18.5 27.2804 18.6507 27.9901 18.9521C28.6998 19.2535 29.3172 19.6667 29.8422 20.1917C30.3672 20.7167 30.7804 21.334 31.0818 22.0437C31.3832 22.7535 31.5339 23.5167 31.5339 24.3333C31.5339 25.1597 31.3832 25.9278 31.0818 26.6375C30.7804 27.3472 30.3672 27.9646 29.8422 28.4896C29.3172 29.0146 28.6998 29.4253 27.9901 29.7219C27.2804 30.0184 26.5172 30.1667 25.7005 30.1667Z" fill="white"/>
<path d="M38.0482 27.2349H36.707V20.0883H38.0482V27.2349Z" fill="white"/>
<path d="M40.9298 22.7868C41.0324 22.6847 41.14 22.5908 41.2526 22.5051C41.3685 22.4162 41.4894 22.342 41.6152 22.2827C41.7444 22.2201 41.8818 22.1723 42.0275 22.1394C42.1732 22.1031 42.3322 22.085 42.5044 22.085C42.7825 22.085 43.0292 22.1328 43.2445 22.2284C43.4597 22.3206 43.6385 22.4524 43.7809 22.6237C43.9266 22.7918 44.0359 22.9944 44.1088 23.2316C44.1849 23.4656 44.223 23.7242 44.223 24.0076V27.2349H42.9961V24.0076C42.9961 23.6979 42.9249 23.459 42.7825 23.291C42.6401 23.1196 42.4232 23.034 42.1318 23.034C41.9199 23.034 41.7212 23.0817 41.5358 23.1773C41.3503 23.2728 41.1748 23.403 41.0092 23.5677V27.2349H39.7823V22.1641H40.5324C40.6913 22.1641 40.7956 22.2382 40.8453 22.3865L40.9298 22.7868Z" fill="white"/>
<path d="M47.0141 22.7078C47.2128 22.5232 47.4313 22.3733 47.6698 22.258C47.9082 22.1427 48.188 22.085 48.5092 22.085C48.7874 22.085 49.0341 22.1328 49.2493 22.2284C49.4646 22.3206 49.6434 22.4524 49.7858 22.6237C49.9315 22.7918 50.0408 22.9944 50.1136 23.2316C50.1898 23.4656 50.2279 23.7242 50.2279 24.0076V27.2349H49.001V24.0076C49.001 23.6979 48.9298 23.459 48.7874 23.291C48.645 23.1196 48.4281 23.034 48.1367 23.034C47.9248 23.034 47.7261 23.0817 47.5406 23.1773C47.3552 23.2728 47.1797 23.403 47.0141 23.5677V27.2349H45.7872V19.8906H47.0141V22.7078Z" fill="white"/>
<path d="M55.0754 24.1163C55.0754 23.9582 55.0522 23.8099 55.0058 23.6715C54.9628 23.5298 54.8966 23.4063 54.8072 23.3008C54.7177 23.1954 54.6035 23.113 54.4644 23.0537C54.3286 22.9911 54.1697 22.9598 53.9876 22.9598C53.6332 22.9598 53.3534 23.0603 53.1481 23.2613C52.9461 23.4623 52.817 23.7473 52.7607 24.1163H55.0754ZM52.7358 24.8527C52.7557 25.113 52.8021 25.3387 52.8749 25.5298C52.9478 25.7176 53.0438 25.8742 53.163 25.9994C53.2822 26.1213 53.423 26.2135 53.5852 26.2761C53.7508 26.3354 53.9329 26.3651 54.1316 26.3651C54.3303 26.3651 54.5008 26.342 54.6432 26.2959C54.7889 26.2498 54.9148 26.1987 55.0207 26.1427C55.13 26.0867 55.2244 26.0356 55.3039 25.9895C55.3867 25.9433 55.4661 25.9203 55.5423 25.9203C55.645 25.9203 55.7211 25.9582 55.7708 26.034L56.1235 26.4788C55.9877 26.6369 55.8354 26.7704 55.6665 26.8791C55.4976 26.9845 55.3204 27.0702 55.135 27.1361C54.9529 27.1987 54.7658 27.2432 54.5737 27.2695C54.3849 27.2959 54.2012 27.3091 54.0223 27.3091C53.668 27.3091 53.3385 27.2514 53.0339 27.1361C52.7292 27.0175 52.4643 26.8445 52.2391 26.6171C52.0139 26.3865 51.8368 26.1031 51.7076 25.7671C51.5785 25.4277 51.5139 25.0356 51.5139 24.5908C51.5139 24.2448 51.5702 23.9203 51.6828 23.6171C51.7954 23.3107 51.956 23.0455 52.1646 22.8214C52.3765 22.5941 52.6332 22.4145 52.9345 22.2827C53.2392 22.1509 53.5819 22.085 53.9627 22.085C54.2839 22.085 54.5803 22.1361 54.8519 22.2382C55.1234 22.3404 55.3569 22.4903 55.5522 22.688C55.7476 22.8824 55.8999 23.1229 56.0092 23.4096C56.1218 23.6929 56.1781 24.0175 56.1781 24.3832C56.1781 24.5677 56.1582 24.6929 56.1185 24.7588C56.0788 24.8214 56.0026 24.8527 55.89 24.8527H52.7358Z" fill="white"/>
<path d="M58.6535 23.0438C58.8125 22.7407 59.0012 22.5035 59.2198 22.3321C59.4384 22.1575 59.6967 22.0702 59.9947 22.0702C60.2298 22.0702 60.4185 22.1213 60.5609 22.2234L60.4815 23.1377C60.4649 23.1971 60.4401 23.2399 60.407 23.2662C60.3772 23.2893 60.3358 23.3008 60.2828 23.3008C60.2331 23.3008 60.1586 23.2926 60.0593 23.2761C59.9632 23.2597 59.8688 23.2514 59.7761 23.2514C59.6404 23.2514 59.5195 23.2712 59.4135 23.3107C59.3076 23.3503 59.2115 23.4079 59.1254 23.4837C59.0426 23.5562 58.9681 23.6452 58.9019 23.7506C58.839 23.856 58.7794 23.9763 58.7231 24.1114V27.2349H57.4962V22.1641H58.2164C58.3423 22.1641 58.43 22.1872 58.4797 22.2333C58.5294 22.2761 58.5625 22.3552 58.579 22.4705L58.6535 23.0438Z" fill="white"/>
<path d="M62.8712 22.1641V27.2349H61.6393V22.1641H62.8712ZM63.04 20.6863C63.04 20.7918 63.0185 20.8906 62.9755 20.9829C62.9324 21.0751 62.8745 21.1559 62.8016 21.2251C62.7321 21.2942 62.6493 21.3503 62.5533 21.3931C62.4572 21.4326 62.3546 21.4524 62.2453 21.4524C62.1393 21.4524 62.0383 21.4326 61.9423 21.3931C61.8496 21.3503 61.7684 21.2942 61.6989 21.2251C61.6294 21.1559 61.5731 21.0751 61.53 20.9829C61.4903 20.8906 61.4704 20.7918 61.4704 20.6863C61.4704 20.5776 61.4903 20.4755 61.53 20.3799C61.5731 20.2844 61.6294 20.202 61.6989 20.1328C61.7684 20.0636 61.8496 20.0092 61.9423 19.9697C62.0383 19.9269 62.1393 19.9055 62.2453 19.9055C62.3546 19.9055 62.4572 19.9269 62.5533 19.9697C62.6493 20.0092 62.7321 20.0636 62.8016 20.1328C62.8745 20.202 62.9324 20.2844 62.9755 20.3799C63.0185 20.4755 63.04 20.5776 63.04 20.6863Z" fill="white"/>
<path d="M66.2181 27.314C65.7744 27.314 65.4333 27.1905 65.1949 26.9433C64.9597 26.6929 64.8422 26.3486 64.8422 25.9104V23.0784H64.3206C64.2544 23.0784 64.1981 23.057 64.1518 23.0142C64.1054 22.9713 64.0822 22.9071 64.0822 22.8214V22.3371L64.9018 22.2036L65.1601 20.8198C65.1766 20.7539 65.2081 20.7028 65.2545 20.6666C65.3008 20.6303 65.3604 20.6122 65.4333 20.6122H66.0691V22.2086H67.4301V23.0784H66.0691V25.8264C66.0691 25.9845 66.1072 26.1081 66.1833 26.197C66.2628 26.286 66.3704 26.3305 66.5062 26.3305C66.5824 26.3305 66.6453 26.3223 66.695 26.3058C66.7479 26.286 66.7926 26.2662 66.8291 26.2465C66.8688 26.2267 66.9036 26.2086 66.9334 26.1921C66.9632 26.1723 66.993 26.1625 67.0228 26.1625C67.0592 26.1625 67.089 26.1723 67.1122 26.1921C67.1354 26.2086 67.1602 26.2349 67.1867 26.2712L67.5543 26.8643C67.3755 27.0125 67.1702 27.1246 66.9383 27.2003C66.7065 27.2761 66.4665 27.314 66.2181 27.314Z" fill="white"/>
<path d="M71.3052 25.0702C70.9509 25.0867 70.6528 25.118 70.4111 25.1641C70.1694 25.2069 69.9756 25.2629 69.8299 25.3321C69.6842 25.4013 69.5799 25.4821 69.517 25.5743C69.4541 25.6666 69.4226 25.7671 69.4226 25.8758C69.4226 26.09 69.4856 26.2432 69.6114 26.3354C69.7405 26.4277 69.9078 26.4738 70.1131 26.4738C70.3647 26.4738 70.5816 26.4293 70.7638 26.3404C70.9492 26.2481 71.1297 26.1097 71.3052 25.9252V25.0702ZM68.4938 22.8709C69.0799 22.3371 69.7852 22.0702 70.6098 22.0702C70.9078 22.0702 71.1744 22.1196 71.4095 22.2185C71.6446 22.314 71.8433 22.4491 72.0056 22.6237C72.1678 22.7951 72.2904 23.001 72.3731 23.2415C72.4592 23.4821 72.5023 23.7456 72.5023 24.0323V27.2349H71.946C71.8301 27.2349 71.7407 27.2185 71.6777 27.1855C71.6148 27.1493 71.5652 27.0784 71.5287 26.973L71.4194 26.6073C71.2903 26.7226 71.1645 26.8247 71.0419 26.9137C70.9194 26.9994 70.7919 27.0718 70.6595 27.1312C70.527 27.1905 70.3846 27.2349 70.2323 27.2646C70.0833 27.2975 69.9177 27.314 69.7356 27.314C69.5203 27.314 69.3216 27.286 69.1395 27.23C68.9574 27.1707 68.8001 27.0834 68.6676 26.9681C68.5352 26.8527 68.4325 26.7094 68.3597 26.5381C68.2868 26.3667 68.2504 26.1674 68.2504 25.94C68.2504 25.8115 68.2719 25.6847 68.315 25.5595C68.358 25.431 68.4275 25.3091 68.5236 25.1938C68.6229 25.0784 68.7504 24.9697 68.9061 24.8676C69.0617 24.7654 69.2521 24.6765 69.4773 24.6007C69.7058 24.5249 69.9707 24.4639 70.272 24.4178C70.5734 24.3684 70.9178 24.3387 71.3052 24.3288V24.0323C71.3052 23.6929 71.2324 23.4425 71.0866 23.2811C70.9409 23.1163 70.7307 23.034 70.4558 23.034C70.2571 23.034 70.0916 23.057 69.9591 23.1031C69.8299 23.1493 69.7157 23.202 69.6164 23.2613C69.517 23.3173 69.4259 23.3684 69.3432 23.4145C69.2637 23.4606 69.1743 23.4837 69.0749 23.4837C68.9888 23.4837 68.916 23.4623 68.8564 23.4195C68.7968 23.3733 68.7488 23.3206 68.7123 23.2613L68.4938 22.8709Z" fill="white"/>
<path d="M75.2026 22.7868C75.3052 22.6847 75.4129 22.5908 75.5255 22.5051C75.6414 22.4162 75.7622 22.342 75.8881 22.2827C76.0172 22.2201 76.1546 22.1723 76.3003 22.1394C76.446 22.1031 76.605 22.085 76.7772 22.085C77.0553 22.085 77.302 22.1328 77.5173 22.2284C77.7325 22.3206 77.9114 22.4524 78.0537 22.6237C78.1995 22.7918 78.3087 22.9944 78.3816 23.2316C78.4577 23.4656 78.4958 23.7242 78.4958 24.0076V27.2349H77.2689V24.0076C77.2689 23.6979 77.1977 23.459 77.0553 23.291C76.913 23.1196 76.6961 23.034 76.4046 23.034C76.1927 23.034 75.994 23.0817 75.8086 23.1773C75.6231 23.2728 75.4476 23.403 75.2821 23.5677V27.2349H74.0552V22.1641H74.8052C74.9642 22.1641 75.0685 22.2382 75.1181 22.3865L75.2026 22.7868Z" fill="white"/>
<path d="M83.7109 23.2366C83.6745 23.2827 83.6381 23.319 83.6016 23.3453C83.5685 23.3717 83.5188 23.3849 83.4526 23.3849C83.3897 23.3849 83.3284 23.3667 83.2688 23.3305C83.2092 23.291 83.138 23.2481 83.0552 23.202C82.9725 23.1526 82.8731 23.1097 82.7572 23.0735C82.6446 23.034 82.5039 23.0142 82.335 23.0142C82.1198 23.0142 81.931 23.0537 81.7687 23.1328C81.6065 23.2086 81.4707 23.319 81.3614 23.4639C81.2555 23.6089 81.176 23.7852 81.123 23.9928C81.07 24.197 81.0435 24.4293 81.0435 24.6896C81.0435 24.9598 81.0717 25.2003 81.128 25.4112C81.1876 25.6221 81.272 25.8 81.3813 25.945C81.4906 26.0867 81.623 26.1954 81.7787 26.2712C81.9343 26.3437 82.1098 26.3799 82.3052 26.3799C82.5006 26.3799 82.6579 26.3569 82.7771 26.3107C82.8996 26.2613 83.0023 26.2086 83.085 26.1526C83.1678 26.0933 83.239 26.0405 83.2986 25.9944C83.3615 25.945 83.4311 25.9203 83.5073 25.9203C83.6066 25.9203 83.6811 25.9582 83.7308 26.034L84.0835 26.4788C83.9477 26.6369 83.8003 26.7704 83.6414 26.8791C83.4824 26.9845 83.3168 27.0702 83.1446 27.1361C82.9758 27.1987 82.8003 27.2432 82.6181 27.2695C82.4393 27.2959 82.2605 27.3091 82.0817 27.3091C81.7671 27.3091 81.4707 27.2514 81.1925 27.1361C80.9144 27.0175 80.671 26.8461 80.4624 26.6221C80.2537 26.398 80.0882 26.1246 79.9656 25.8017C79.8464 25.4755 79.7868 25.1048 79.7868 24.6896C79.7868 24.3173 79.8398 23.973 79.9458 23.6567C80.0551 23.3371 80.214 23.062 80.4226 22.8313C80.6313 22.5974 80.8895 22.4145 81.1975 22.2827C81.5055 22.1509 81.8598 22.085 82.2605 22.085C82.6413 22.085 82.9741 22.146 83.2589 22.2679C83.547 22.3898 83.8053 22.5644 84.0338 22.7918L83.7109 23.2366Z" fill="white"/>
<path d="M88.446 24.1163C88.446 23.9582 88.4228 23.8099 88.3764 23.6715C88.3334 23.5298 88.2671 23.4063 88.1777 23.3008C88.0883 23.1954 87.9741 23.113 87.835 23.0537C87.6992 22.9911 87.5403 22.9598 87.3581 22.9598C87.0038 22.9598 86.724 23.0603 86.5187 23.2613C86.3167 23.4623 86.1875 23.7473 86.1313 24.1163H88.446ZM86.1064 24.8527C86.1263 25.113 86.1726 25.3387 86.2455 25.5298C86.3183 25.7176 86.4144 25.8742 86.5336 25.9994C86.6528 26.1213 86.7935 26.2135 86.9558 26.2761C87.1214 26.3354 87.3035 26.3651 87.5022 26.3651C87.7009 26.3651 87.8714 26.342 88.0138 26.2959C88.1595 26.2498 88.2854 26.1987 88.3913 26.1427C88.5006 26.0867 88.595 26.0356 88.6744 25.9895C88.7572 25.9433 88.8367 25.9203 88.9129 25.9203C89.0155 25.9203 89.0917 25.9582 89.1414 26.034L89.494 26.4788C89.3583 26.6369 89.2059 26.7704 89.0371 26.8791C88.8682 26.9845 88.691 27.0702 88.5056 27.1361C88.3234 27.1987 88.1363 27.2432 87.9443 27.2695C87.7555 27.2959 87.5717 27.3091 87.3929 27.3091C87.0386 27.3091 86.7091 27.2514 86.4044 27.1361C86.0998 27.0175 85.8349 26.8445 85.6097 26.6171C85.3845 26.3865 85.2073 26.1031 85.0782 25.7671C84.9491 25.4277 84.8845 25.0356 84.8845 24.5908C84.8845 24.2448 84.9408 23.9203 85.0534 23.6171C85.166 23.3107 85.3266 23.0455 85.5352 22.8214C85.7471 22.5941 86.0038 22.4145 86.3051 22.2827C86.6098 22.1509 86.9525 22.085 87.3333 22.085C87.6545 22.085 87.9509 22.1361 88.2224 22.2382C88.494 22.3404 88.7274 22.4903 88.9228 22.688C89.1182 22.8824 89.2705 23.1229 89.3798 23.4096C89.4924 23.6929 89.5487 24.0175 89.5487 24.3832C89.5487 24.5677 89.5288 24.6929 89.4891 24.7588C89.4493 24.8214 89.3732 24.8527 89.2606 24.8527H86.1064Z" fill="white"/>
<path d="M0.814113 32.7419V9.11083C0.814113 4.64654 4.46295 0.890625 9.02608 0.890625H220.495C224.959 0.890625 228.707 4.5477 228.707 9.11083V141.87C228.707 146.334 225.058 150.09 220.495 150.09H8.92724C4.46295 150.09 0.707032 146.433 0.707032 141.87V76.1493" stroke="#333333" stroke-linecap="round" stroke-linejoin="round"/>
<path d="M0.816406 63.7815V45.1172" stroke="#333333" stroke-linecap="round" stroke-linejoin="round"/>
<rect x="167.707" y="12.8906" width="52" height="22" rx="4" fill="#ABEDD8"/>
<rect x="167.707" y="12.8906" width="52" height="22" rx="4" stroke="#333333" stroke-width="0.330787" stroke-linecap="round" stroke-linejoin="round"/>
<path d="M176.235 29.4012C176.1 29.4012 175.988 29.359 175.9 29.2746C175.812 29.1901 175.768 29.0834 175.768 28.9542V26.2126L173.291 27.5834C173.177 27.643 173.058 27.6579 172.933 27.6281C172.809 27.5983 172.715 27.5288 172.653 27.4195L171.719 25.8699C171.656 25.7606 171.641 25.6463 171.672 25.5271C171.703 25.4079 171.776 25.3185 171.89 25.2589L174.366 23.8881L171.89 22.5173C171.776 22.4577 171.703 22.3683 171.672 22.2491C171.641 22.1299 171.656 22.0156 171.719 21.9064L172.653 20.3567C172.715 20.2475 172.809 20.1779 172.933 20.1481C173.058 20.1183 173.177 20.1332 173.291 20.1928L175.768 21.5637V18.822C175.768 18.6929 175.812 18.5861 175.9 18.5017C175.988 18.4172 176.1 18.375 176.235 18.375H178.104C178.239 18.375 178.35 18.4172 178.439 18.5017C178.527 18.5861 178.571 18.6929 178.571 18.822V21.5637L181.047 20.1928C181.161 20.1332 181.281 20.1183 181.405 20.1481C181.53 20.1779 181.623 20.2475 181.686 20.3567L182.62 21.9064C182.682 22.0156 182.698 22.1299 182.667 22.2491C182.636 22.3683 182.563 22.4577 182.449 22.5173L179.973 23.8881L182.449 25.2589C182.563 25.3185 182.636 25.4079 182.667 25.5271C182.698 25.6463 182.682 25.7606 182.62 25.8699L181.686 27.4195C181.623 27.5288 181.53 27.5983 181.405 27.6281C181.281 27.6579 181.161 27.643 181.047 27.5834L178.571 26.2126V28.9542C178.571 29.0834 178.527 29.1901 178.439 29.2746C178.35 29.359 178.239 29.4012 178.104 29.4012H176.235Z" fill="#333333"/>
<path d="M192.774 29.4012C192.639 29.4012 192.527 29.359 192.439 29.2746C192.351 29.1901 192.307 29.0834 192.307 28.9542V26.2126L189.831 27.5834C189.716 27.643 189.597 27.6579 189.472 27.6281C189.348 27.5983 189.254 27.5288 189.192 27.4195L188.258 25.8699C188.195 25.7606 188.18 25.6463 188.211 25.5271C188.242 25.4079 188.315 25.3185 188.429 25.2589L190.905 23.8881L188.429 22.5173C188.315 22.4577 188.242 22.3683 188.211 22.2491C188.18 22.1299 188.195 22.0156 188.258 21.9064L189.192 20.3567C189.254 20.2475 189.348 20.1779 189.472 20.1481C189.597 20.1183 189.716 20.1332 189.831 20.1928L192.307 21.5637V18.822C192.307 18.6929 192.351 18.5861 192.439 18.5017C192.527 18.4172 192.639 18.375 192.774 18.375H194.643C194.778 18.375 194.889 18.4172 194.978 18.5017C195.066 18.5861 195.11 18.6929 195.11 18.822V21.5637L197.586 20.1928C197.701 20.1332 197.82 20.1183 197.944 20.1481C198.069 20.1779 198.163 20.2475 198.225 20.3567L199.159 21.9064C199.222 22.0156 199.237 22.1299 199.206 22.2491C199.175 22.3683 199.102 22.4577 198.988 22.5173L196.512 23.8881L198.988 25.2589C199.102 25.3185 199.175 25.4079 199.206 25.5271C199.237 25.6463 199.222 25.7606 199.159 25.8699L198.225 27.4195C198.163 27.5288 198.069 27.5983 197.944 27.6281C197.82 27.6579 197.701 27.643 197.586 27.5834L195.11 26.2126V28.9542C195.11 29.0834 195.066 29.1901 194.978 29.2746C194.889 29.359 194.778 29.4012 194.643 29.4012H192.774Z" fill="#333333"/>
<path d="M209.313 29.4012C209.178 29.4012 209.066 29.359 208.978 29.2746C208.89 29.1901 208.846 29.0834 208.846 28.9542V26.2126L206.37 27.5834C206.255 27.643 206.136 27.6579 206.011 27.6281C205.887 27.5983 205.793 27.5288 205.731 27.4195L204.797 25.8699C204.734 25.7606 204.719 25.6463 204.75 25.5271C204.781 25.4079 204.854 25.3185 204.968 25.2589L207.444 23.8881L204.968 22.5173C204.854 22.4577 204.781 22.3683 204.75 22.2491C204.719 22.1299 204.734 22.0156 204.797 21.9064L205.731 20.3567C205.793 20.2475 205.887 20.1779 206.011 20.1481C206.136 20.1183 206.255 20.1332 206.37 20.1928L208.846 21.5637V18.822C208.846 18.6929 208.89 18.5861 208.978 18.5017C209.066 18.4172 209.178 18.375 209.313 18.375H211.182C211.317 18.375 211.429 18.4172 211.517 18.5017C211.605 18.5861 211.649 18.6929 211.649 18.822V21.5637L214.125 20.1928C214.24 20.1332 214.359 20.1183 214.484 20.1481C214.608 20.1779 214.702 20.2475 214.764 20.3567L215.698 21.9064C215.761 22.0156 215.776 22.1299 215.745 22.2491C215.714 22.3683 215.641 22.4577 215.527 22.5173L213.051 23.8881L215.527 25.2589C215.641 25.3185 215.714 25.4079 215.745 25.5271C215.776 25.6463 215.761 25.7606 215.698 25.8699L214.764 27.4195C214.702 27.5288 214.608 27.5983 214.484 27.6281C214.359 27.6579 214.24 27.643 214.125 27.5834L211.649 26.2126V28.9542C211.649 29.0834 211.605 29.1901 211.517 29.2746C211.429 29.359 211.317 29.4012 211.182 29.4012H209.313Z" fill="#333333"/>
<rect x="12.707" y="49.8906" width="27.3333" height="14" rx="2" fill="#78C7E0"/>
<rect x="48.0391" y="49.8906" width="27.3333" height="14" rx="2" fill="#78C7E0"/>
<rect x="83.375" y="49.8906" width="27.3333" height="14" rx="2" fill="#78C7E0"/>
<rect x="118.707" y="49.8906" width="27.3333" height="14" rx="2" fill="#78C7E0"/>
<rect x="154.039" y="49.8906" width="27.3333" height="14" rx="2" fill="#78C7E0"/>
<rect x="189.375" y="49.8906" width="27.3333" height="14" rx="2" fill="#78C7E0"/>
<path d="M12.707 76.5547C12.707 75.4501 13.6025 74.5547 14.707 74.5547H38.0404C39.1449 74.5547 40.0404 75.4501 40.0404 76.5547V86.5547C40.0404 87.6593 39.1449 88.5547 38.0404 88.5547H14.707C13.6025 88.5547 12.707 87.6593 12.707 86.5547V76.5547Z" fill="#78C7E0"/>
<path d="M48.0391 76.5547C48.0391 75.4501 48.9345 74.5547 50.0391 74.5547H73.3724C74.477 74.5547 75.3724 75.4501 75.3724 76.5547V86.5547C75.3724 87.6593 74.477 88.5547 73.3724 88.5547H50.0391C48.9345 88.5547 48.0391 87.6593 48.0391 86.5547V76.5547Z" fill="#78C7E0"/>
<path d="M83.375 76.5547C83.375 75.4501 84.2704 74.5547 85.375 74.5547H108.708C109.813 74.5547 110.708 75.4501 110.708 76.5547V86.5547C110.708 87.6593 109.813 88.5547 108.708 88.5547H85.375C84.2704 88.5547 83.375 87.6593 83.375 86.5547V76.5547Z" fill="#78C7E0"/>
<path d="M118.707 76.5547C118.707 75.4501 119.602 74.5547 120.707 74.5547H144.04C145.145 74.5547 146.04 75.4501 146.04 76.5547V86.5547C146.04 87.6593 145.145 88.5547 144.04 88.5547H120.707C119.602 88.5547 118.707 87.6593 118.707 86.5547V76.5547Z" fill="#78C7E0"/>
<path d="M154.039 76.5547C154.039 75.4501 154.934 74.5547 156.039 74.5547H179.372C180.477 74.5547 181.372 75.4501 181.372 76.5547V86.5547C181.372 87.6593 180.477 88.5547 179.372 88.5547H156.039C154.934 88.5547 154.039 87.6593 154.039 86.5547V76.5547Z" fill="#78C7E0"/>
<path d="M189.375 76.5547C189.375 75.4501 190.27 74.5547 191.375 74.5547H214.708C215.813 74.5547 216.708 75.4501 216.708 76.5547V86.5547C216.708 87.6593 215.813 88.5547 214.708 88.5547H191.375C190.27 88.5547 189.375 87.6593 189.375 86.5547V76.5547Z" fill="#78C7E0"/>
<path d="M12.707 101.227C12.707 100.122 13.6025 99.2266 14.707 99.2266H38.0404C39.1449 99.2266 40.0404 100.122 40.0404 101.227V111.227C40.0404 112.331 39.1449 113.227 38.0404 113.227H14.707C13.6025 113.227 12.707 112.331 12.707 111.227V101.227Z" fill="#78C7E0"/>
<path d="M48.0391 101.227C48.0391 100.122 48.9345 99.2266 50.0391 99.2266H73.3724C74.477 99.2266 75.3724 100.122 75.3724 101.227V111.227C75.3724 112.331 74.477 113.227 73.3724 113.227H50.0391C48.9345 113.227 48.0391 112.331 48.0391 111.227V101.227Z" fill="#78C7E0"/>
<path d="M83.375 101.227C83.375 100.122 84.2704 99.2266 85.375 99.2266H108.708C109.813 99.2266 110.708 100.122 110.708 101.227V111.227C110.708 112.331 109.813 113.227 108.708 113.227H85.375C84.2704 113.227 83.375 112.331 83.375 111.227V101.227Z" fill="#78C7E0"/>
<path d="M118.707 101.227C118.707 100.122 119.602 99.2266 120.707 99.2266H144.04C145.145 99.2266 146.04 100.122 146.04 101.227V111.227C146.04 112.331 145.145 113.227 144.04 113.227H120.707C119.602 113.227 118.707 112.331 118.707 111.227V101.227Z" fill="#78C7E0"/>
<path d="M154.039 101.227C154.039 100.122 154.934 99.2266 156.039 99.2266H179.372C180.477 99.2266 181.372 100.122 181.372 101.227V111.227C181.372 112.331 180.477 113.227 179.372 113.227H156.039C154.934 113.227 154.039 112.331 154.039 111.227V101.227Z" fill="#78C7E0"/>
<path d="M189.375 101.227C189.375 100.122 190.27 99.2266 191.375 99.2266H214.708C215.813 99.2266 216.708 100.122 216.708 101.227V111.227C216.708 112.331 215.813 113.227 214.708 113.227H191.375C190.27 113.227 189.375 112.331 189.375 111.227V101.227Z" fill="#78C7E0"/>
<path d="M12.707 125.891C12.707 124.786 13.6025 123.891 14.707 123.891H38.0404C39.1449 123.891 40.0404 124.786 40.0404 125.891V135.891C40.0404 136.995 39.1449 137.891 38.0404 137.891H14.707C13.6025 137.891 12.707 136.995 12.707 135.891V125.891Z" fill="#78C7E0"/>
<path d="M48.0391 125.891C48.0391 124.786 48.9345 123.891 50.0391 123.891H73.3724C74.477 123.891 75.3724 124.786 75.3724 125.891V135.891C75.3724 136.995 74.477 137.891 73.3724 137.891H50.0391C48.9345 137.891 48.0391 136.995 48.0391 135.891V125.891Z" fill="#78C7E0"/>
<path d="M83.375 125.891C83.375 124.786 84.2704 123.891 85.375 123.891H108.708C109.813 123.891 110.708 124.786 110.708 125.891V135.891C110.708 136.995 109.813 137.891 108.708 137.891H85.375C84.2704 137.891 83.375 136.995 83.375 135.891V125.891Z" fill="#78C7E0"/>
<path d="M118.707 125.891C118.707 124.786 119.602 123.891 120.707 123.891H144.04C145.145 123.891 146.04 124.786 146.04 125.891V135.891C146.04 136.995 145.145 137.891 144.04 137.891H120.707C119.602 137.891 118.707 136.995 118.707 135.891V125.891Z" fill="#78C7E0"/>
<path d="M154.039 125.891C154.039 124.786 154.934 123.891 156.039 123.891H179.372C180.477 123.891 181.372 124.786 181.372 125.891V135.891C181.372 136.995 180.477 137.891 179.372 137.891H156.039C154.934 137.891 154.039 136.995 154.039 135.891V125.891Z" fill="#78C7E0"/>
<path d="M189.375 125.891C189.375 124.786 190.27 123.891 191.375 123.891H214.708C215.813 123.891 216.708 124.786 216.708 125.891V135.891C216.708 136.995 215.813 137.891 214.708 137.891H191.375C190.27 137.891 189.375 136.995 189.375 135.891V125.891Z" fill="#78C7E0"/>
<path d="M217 163.115C233.184 163.115 246.293 149.863 246.293 133.503C246.293 117.142 233.184 103.891 217 103.891C200.816 103.891 187.707 117.142 187.707 133.503C187.707 149.863 200.816 163.115 217 163.115Z" fill="white" stroke="#333333" stroke-width="0.6" stroke-linecap="round" stroke-linejoin="round"/>
<path d="M233.709 142.28L220.045 118.55C219.703 117.969 219.216 117.487 218.631 117.152C218.045 116.817 217.383 116.641 216.709 116.641C216.034 116.641 215.372 116.817 214.787 117.152C214.202 117.487 213.714 117.969 213.373 118.55L199.709 142.28C199.38 142.842 199.207 143.482 199.207 144.133C199.207 144.784 199.38 145.424 199.709 145.986C200.046 146.571 200.532 147.056 201.119 147.39C201.705 147.725 202.37 147.898 203.045 147.891H230.373C231.047 147.897 231.711 147.724 232.297 147.39C232.883 147.055 233.369 146.57 233.706 145.986C234.035 145.424 234.208 144.785 234.209 144.133C234.209 143.482 234.037 142.842 233.709 142.28ZM215.459 129.141C215.459 128.809 215.59 128.491 215.825 128.257C216.059 128.022 216.377 127.891 216.709 127.891C217.04 127.891 217.358 128.022 217.593 128.257C217.827 128.491 217.959 128.809 217.959 129.141V135.391C217.959 135.722 217.827 136.04 217.593 136.275C217.358 136.509 217.04 136.641 216.709 136.641C216.377 136.641 216.059 136.509 215.825 136.275C215.59 136.04 215.459 135.722 215.459 135.391V129.141ZM216.709 142.891C216.338 142.891 215.975 142.781 215.667 142.575C215.359 142.369 215.118 142.076 214.976 141.733C214.835 141.391 214.797 141.014 214.87 140.65C214.942 140.286 215.121 139.952 215.383 139.69C215.645 139.428 215.979 139.249 216.343 139.177C216.707 139.104 217.084 139.142 217.426 139.283C217.769 139.425 218.062 139.666 218.268 139.974C218.474 140.282 218.584 140.645 218.584 141.016C218.584 141.513 218.386 141.99 218.035 142.342C217.683 142.693 217.206 142.891 216.709 142.891Z" fill="#CF4018"/>
</svg>
