<svg width="24" height="24" viewBox="0 0 24 24" fill="none" xmlns="http://www.w3.org/2000/svg">
<path d="M13.1112 10.8889H15.1001C15.6001 10.8889 15.8445 11.4889 15.5001 11.8333L12.4001 14.9333C12.1778 15.1556 11.8334 15.1556 11.6112 14.9333L8.51118 11.8333C8.15562 11.4889 8.40007 10.8889 8.90007 10.8889H10.889L10.889 3.11111C10.889 2.5 11.389 2 12.0001 2C12.6112 2 13.1112 2.5 13.1112 3.11111L13.1112 10.8889Z" fill="#031F2B"/>
<path d="M22 13.1111V19.7778C22 21 21 22 19.7778 22L4.22222 22C3 22 2 21 2 19.7778L2 13.1111C2 12.5 2.5 12 3.11111 12C3.72222 12 4.22222 12.5 4.22222 13.1111L4.22222 19.7778L19.7778 19.7778V13.1111C19.7778 12.5 20.2778 12 20.8889 12C21.5 12 22 12.5 22 13.1111Z" fill="#031F2B"/>
</svg>
