<svg width="346" height="300" viewBox="0 0 346 300" fill="none" xmlns="http://www.w3.org/2000/svg">
<rect width="346" height="300" fill="#D0E2FF"/>
<path d="M61.4118 107.289V83.6577C61.4118 79.1934 65.0606 75.4375 69.6237 75.4375H281.093C285.557 75.4375 289.305 79.0946 289.305 83.6577V216.417C289.305 220.881 285.656 224.637 281.093 224.637H69.5249C65.0606 224.637 61.3047 220.98 61.3047 216.417V150.696" fill="#3D84A8"/>
<rect x="73.3047" y="87.4375" width="87" height="22" rx="11" fill="#CF4018"/>
<path d="M86.2982 100.601L88.0773 101.957C88.1648 102.025 88.2523 102.028 88.3398 101.965C88.4273 101.901 88.4516 101.816 88.4128 101.709L87.6982 99.5073L89.4628 98.2531C89.5503 98.1948 89.5794 98.1146 89.5503 98.0125C89.5211 97.9104 89.453 97.8594 89.3461 97.8594H87.1878L86.5023 95.5844C86.4732 95.4774 86.4051 95.424 86.2982 95.424C86.1912 95.424 86.1232 95.4774 86.094 95.5844L85.394 97.8594H83.2357C83.1287 97.8594 83.0607 97.9104 83.0315 98.0125C83.0023 98.1146 83.0315 98.1948 83.119 98.2531L84.8836 99.5073L84.1836 101.724C84.1447 101.821 84.169 101.901 84.2565 101.965C84.344 102.028 84.4315 102.025 84.519 101.957L86.2982 100.601ZM86.2982 104.714C85.4718 104.714 84.7037 104.565 83.994 104.269C83.2843 103.972 82.6669 103.561 82.1419 103.036C81.6169 102.511 81.2062 101.894 80.9096 101.184C80.6131 100.475 80.4648 99.7066 80.4648 98.8802C80.4648 98.0635 80.6131 97.3003 80.9096 96.5906C81.2062 95.8809 81.6169 95.2635 82.1419 94.7385C82.6669 94.2135 83.2843 93.8003 83.994 93.499C84.7037 93.1976 85.4718 93.0469 86.2982 93.0469C87.1148 93.0469 87.878 93.1976 88.5878 93.499C89.2975 93.8003 89.9148 94.2135 90.4398 94.7385C90.9648 95.2635 91.378 95.8809 91.6794 96.5906C91.9808 97.3003 92.1315 98.0635 92.1315 98.8802C92.1315 99.7066 91.9808 100.475 91.6794 101.184C91.378 101.894 90.9648 102.511 90.4398 103.036C89.9148 103.561 89.2975 103.972 88.5878 104.269C87.878 104.565 87.1148 104.714 86.2982 104.714Z" fill="white"/>
<path d="M98.6458 101.782H97.3047V94.6352H98.6458V101.782Z" fill="white"/>
<path d="M101.527 97.3337C101.63 97.2316 101.738 97.1377 101.85 97.052C101.966 96.963 102.087 96.8889 102.213 96.8296C102.342 96.767 102.479 96.7192 102.625 96.6863C102.771 96.65 102.93 96.6319 103.102 96.6319C103.38 96.6319 103.627 96.6797 103.842 96.7752C104.057 96.8675 104.236 96.9993 104.379 97.1706C104.524 97.3387 104.634 97.5413 104.706 97.7785C104.783 98.0125 104.821 98.2711 104.821 98.5545V101.782H103.594V98.5545C103.594 98.2447 103.523 98.0059 103.38 97.8378C103.238 97.6665 103.021 97.5808 102.729 97.5808C102.518 97.5808 102.319 97.6286 102.133 97.7242C101.948 97.8197 101.772 97.9499 101.607 98.1146V101.782H100.38V96.711H101.13C101.289 96.711 101.393 96.7851 101.443 96.9334L101.527 97.3337Z" fill="white"/>
<path d="M107.612 97.2546C107.81 97.0701 108.029 96.9202 108.267 96.8049C108.506 96.6896 108.786 96.6319 109.107 96.6319C109.385 96.6319 109.632 96.6797 109.847 96.7752C110.062 96.8675 110.241 96.9993 110.383 97.1706C110.529 97.3387 110.638 97.5413 110.711 97.7785C110.787 98.0125 110.826 98.2711 110.826 98.5545V101.782H109.599V98.5545C109.599 98.2447 109.527 98.0059 109.385 97.8378C109.243 97.6665 109.026 97.5808 108.734 97.5808C108.522 97.5808 108.324 97.6286 108.138 97.7242C107.953 97.8197 107.777 97.9499 107.612 98.1146V101.782H106.385V94.4375H107.612V97.2546Z" fill="white"/>
<path d="M115.673 98.6632C115.673 98.505 115.65 98.3568 115.603 98.2184C115.56 98.0767 115.494 97.9532 115.405 97.8477C115.315 97.7423 115.201 97.6599 115.062 97.6006C114.926 97.538 114.767 97.5067 114.585 97.5067C114.231 97.5067 113.951 97.6072 113.746 97.8082C113.544 98.0092 113.415 98.2942 113.358 98.6632H115.673ZM113.333 99.3996C113.353 99.6599 113.4 99.8856 113.473 100.077C113.545 100.265 113.641 100.421 113.761 100.546C113.88 100.668 114.021 100.76 114.183 100.823C114.348 100.882 114.531 100.912 114.729 100.912C114.928 100.912 115.098 100.889 115.241 100.843C115.387 100.797 115.512 100.746 115.618 100.69C115.728 100.634 115.822 100.582 115.902 100.536C115.984 100.49 116.064 100.467 116.14 100.467C116.243 100.467 116.319 100.505 116.368 100.581L116.721 101.026C116.585 101.184 116.433 101.317 116.264 101.426C116.095 101.531 115.918 101.617 115.733 101.683C115.551 101.746 115.363 101.79 115.171 101.816C114.983 101.843 114.799 101.856 114.62 101.856C114.266 101.856 113.936 101.798 113.632 101.683C113.327 101.564 113.062 101.391 112.837 101.164C112.612 100.933 112.434 100.65 112.305 100.314C112.176 99.9746 112.112 99.5825 112.112 99.1377C112.112 98.7917 112.168 98.4672 112.28 98.164C112.393 97.8576 112.554 97.5924 112.762 97.3683C112.974 97.141 113.231 96.9614 113.532 96.8296C113.837 96.6978 114.18 96.6319 114.56 96.6319C114.882 96.6319 115.178 96.683 115.45 96.7851C115.721 96.8873 115.955 97.0372 116.15 97.2349C116.345 97.4293 116.498 97.6698 116.607 97.9564C116.719 98.2398 116.776 98.5644 116.776 98.9301C116.776 99.1146 116.756 99.2398 116.716 99.3057C116.676 99.3683 116.6 99.3996 116.488 99.3996H113.333Z" fill="white"/>
<path d="M119.251 97.5907C119.41 97.2876 119.599 97.0503 119.817 96.879C120.036 96.7044 120.294 96.6171 120.592 96.6171C120.827 96.6171 121.016 96.6681 121.159 96.7703L121.079 97.6846C121.063 97.7439 121.038 97.7868 121.005 97.8131C120.975 97.8362 120.933 97.8477 120.88 97.8477C120.831 97.8477 120.756 97.8395 120.657 97.823C120.561 97.8065 120.467 97.7983 120.374 97.7983C120.238 97.7983 120.117 97.8181 120.011 97.8576C119.905 97.8971 119.809 97.9548 119.723 98.0306C119.64 98.1031 119.566 98.192 119.5 98.2975C119.437 98.4029 119.377 98.5232 119.321 98.6583V101.782H118.094V96.711H118.814C118.94 96.711 119.028 96.734 119.077 96.7802C119.127 96.823 119.16 96.9021 119.177 97.0174L119.251 97.5907Z" fill="white"/>
<path d="M123.469 96.711V101.782H122.237V96.711H123.469ZM123.638 95.2332C123.638 95.3387 123.616 95.4375 123.573 95.5298C123.53 95.622 123.472 95.7027 123.399 95.7719C123.33 95.8411 123.247 95.8971 123.151 95.94C123.055 95.9795 122.952 95.9993 122.843 95.9993C122.737 95.9993 122.636 95.9795 122.54 95.94C122.447 95.8971 122.366 95.8411 122.297 95.7719C122.227 95.7027 122.171 95.622 122.128 95.5298C122.088 95.4375 122.068 95.3387 122.068 95.2332C122.068 95.1245 122.088 95.0223 122.128 94.9268C122.171 94.8312 122.227 94.7489 122.297 94.6797C122.366 94.6105 122.447 94.5561 122.54 94.5166C122.636 94.4737 122.737 94.4523 122.843 94.4523C122.952 94.4523 123.055 94.4737 123.151 94.5166C123.247 94.5561 123.33 94.6105 123.399 94.6797C123.472 94.7489 123.53 94.8312 123.573 94.9268C123.616 95.0223 123.638 95.1245 123.638 95.2332Z" fill="white"/>
<path d="M126.816 101.861C126.372 101.861 126.031 101.737 125.793 101.49C125.557 101.24 125.44 100.895 125.44 100.457V97.6253H124.918C124.852 97.6253 124.796 97.6039 124.749 97.5611C124.703 97.5182 124.68 97.454 124.68 97.3683V96.884L125.499 96.7505L125.758 95.3667C125.774 95.3008 125.806 95.2497 125.852 95.2134C125.898 95.1772 125.958 95.1591 126.031 95.1591H126.667V96.7555H128.028V97.6253H126.667V100.373C126.667 100.531 126.705 100.655 126.781 100.744C126.86 100.833 126.968 100.877 127.104 100.877C127.18 100.877 127.243 100.869 127.293 100.853C127.346 100.833 127.39 100.813 127.427 100.793C127.466 100.774 127.501 100.755 127.531 100.739C127.561 100.719 127.591 100.709 127.62 100.709C127.657 100.709 127.687 100.719 127.71 100.739C127.733 100.755 127.758 100.782 127.784 100.818L128.152 101.411C127.973 101.559 127.768 101.671 127.536 101.747C127.304 101.823 127.064 101.861 126.816 101.861Z" fill="white"/>
<path d="M131.903 99.6171C131.549 99.6335 131.251 99.6648 131.009 99.711C130.767 99.7538 130.573 99.8098 130.428 99.879C130.282 99.9482 130.178 100.029 130.115 100.121C130.052 100.213 130.02 100.314 130.02 100.423C130.02 100.637 130.083 100.79 130.209 100.882C130.338 100.975 130.505 101.021 130.711 101.021C130.962 101.021 131.179 100.976 131.361 100.887C131.547 100.795 131.727 100.657 131.903 100.472V99.6171ZM129.091 97.4177C129.678 96.884 130.383 96.6171 131.207 96.6171C131.505 96.6171 131.772 96.6665 132.007 96.7653C132.242 96.8609 132.441 96.996 132.603 97.1706C132.765 97.3419 132.888 97.5479 132.971 97.7884C133.057 98.0289 133.1 98.2925 133.1 98.5792V101.782H132.544C132.428 101.782 132.338 101.765 132.275 101.732C132.212 101.696 132.163 101.625 132.126 101.52L132.017 101.154C131.888 101.269 131.762 101.372 131.64 101.461C131.517 101.546 131.39 101.619 131.257 101.678C131.125 101.737 130.982 101.782 130.83 101.811C130.681 101.844 130.515 101.861 130.333 101.861C130.118 101.861 129.919 101.833 129.737 101.777C129.555 101.718 129.398 101.63 129.265 101.515C129.133 101.4 129.03 101.256 128.957 101.085C128.884 100.914 128.848 100.714 128.848 100.487C128.848 100.358 128.87 100.232 128.913 100.106C128.956 99.9779 129.025 99.856 129.121 99.7406C129.221 99.6253 129.348 99.5166 129.504 99.4144C129.659 99.3123 129.85 99.2233 130.075 99.1475C130.303 99.0718 130.568 99.0108 130.87 98.9647C131.171 98.9153 131.515 98.8856 131.903 98.8757V98.5792C131.903 98.2398 131.83 97.9894 131.684 97.8279C131.539 97.6632 131.328 97.5808 131.053 97.5808C130.855 97.5808 130.689 97.6039 130.557 97.65C130.428 97.6961 130.313 97.7489 130.214 97.8082C130.115 97.8642 130.024 97.9153 129.941 97.9614C129.861 98.0075 129.772 98.0306 129.673 98.0306C129.586 98.0306 129.514 98.0092 129.454 97.9663C129.394 97.9202 129.346 97.8675 129.31 97.8082L129.091 97.4177Z" fill="white"/>
<path d="M135.8 97.3337C135.903 97.2316 136.011 97.1377 136.123 97.052C136.239 96.963 136.36 96.8889 136.486 96.8296C136.615 96.767 136.752 96.7192 136.898 96.6863C137.044 96.65 137.203 96.6319 137.375 96.6319C137.653 96.6319 137.9 96.6797 138.115 96.7752C138.33 96.8675 138.509 96.9993 138.651 97.1706C138.797 97.3387 138.906 97.5413 138.979 97.7785C139.055 98.0125 139.093 98.2711 139.093 98.5545V101.782H137.867V98.5545C137.867 98.2447 137.795 98.0059 137.653 97.8378C137.511 97.6665 137.294 97.5808 137.002 97.5808C136.79 97.5808 136.592 97.6286 136.406 97.7242C136.221 97.8197 136.045 97.9499 135.88 98.1146V101.782H134.653V96.711H135.403C135.562 96.711 135.666 96.7851 135.716 96.9334L135.8 97.3337Z" fill="white"/>
<path d="M144.309 97.7835C144.272 97.8296 144.236 97.8658 144.199 97.8922C144.166 97.9186 144.117 97.9317 144.05 97.9317C143.987 97.9317 143.926 97.9136 143.866 97.8774C143.807 97.8378 143.736 97.795 143.653 97.7489C143.57 97.6994 143.471 97.6566 143.355 97.6204C143.242 97.5808 143.102 97.5611 142.933 97.5611C142.717 97.5611 142.529 97.6006 142.366 97.6797C142.204 97.7555 142.068 97.8658 141.959 98.0108C141.853 98.1558 141.774 98.3321 141.721 98.5396C141.668 98.7439 141.641 98.9762 141.641 99.2365C141.641 99.5067 141.669 99.7472 141.726 99.9581C141.785 100.169 141.87 100.347 141.979 100.492C142.088 100.634 142.221 100.742 142.376 100.818C142.532 100.891 142.707 100.927 142.903 100.927C143.098 100.927 143.256 100.904 143.375 100.858C143.497 100.808 143.6 100.755 143.683 100.699C143.765 100.64 143.837 100.587 143.896 100.541C143.959 100.492 144.029 100.467 144.105 100.467C144.204 100.467 144.279 100.505 144.328 100.581L144.681 101.026C144.545 101.184 144.398 101.317 144.239 101.426C144.08 101.531 143.915 101.617 143.742 101.683C143.573 101.746 143.398 101.79 143.216 101.816C143.037 101.843 142.858 101.856 142.679 101.856C142.365 101.856 142.068 101.798 141.79 101.683C141.512 101.564 141.269 101.393 141.06 101.169C140.851 100.945 140.686 100.671 140.563 100.349C140.444 100.022 140.384 99.6517 140.384 99.2365C140.384 98.8642 140.437 98.5199 140.543 98.2036C140.653 97.884 140.812 97.6088 141.02 97.3782C141.229 97.1443 141.487 96.9614 141.795 96.8296C142.103 96.6978 142.457 96.6319 142.858 96.6319C143.239 96.6319 143.572 96.6929 143.857 96.8148C144.145 96.9367 144.403 97.1113 144.631 97.3387L144.309 97.7835Z" fill="white"/>
<path d="M149.044 98.6632C149.044 98.505 149.02 98.3568 148.974 98.2184C148.931 98.0767 148.865 97.9532 148.775 97.8477C148.686 97.7423 148.572 97.6599 148.433 97.6006C148.297 97.538 148.138 97.5067 147.956 97.5067C147.601 97.5067 147.322 97.6072 147.116 97.8082C146.914 98.0092 146.785 98.2942 146.729 98.6632H149.044ZM146.704 99.3996C146.724 99.6599 146.77 99.8856 146.843 100.077C146.916 100.265 147.012 100.421 147.131 100.546C147.25 100.668 147.391 100.76 147.553 100.823C147.719 100.882 147.901 100.912 148.1 100.912C148.299 100.912 148.469 100.889 148.611 100.843C148.757 100.797 148.883 100.746 148.989 100.69C149.098 100.634 149.193 100.582 149.272 100.536C149.355 100.49 149.434 100.467 149.511 100.467C149.613 100.467 149.689 100.505 149.739 100.581L150.092 101.026C149.956 101.184 149.804 101.317 149.635 101.426C149.466 101.531 149.289 101.617 149.103 101.683C148.921 101.746 148.734 101.79 148.542 101.816C148.353 101.843 148.169 101.856 147.991 101.856C147.636 101.856 147.307 101.798 147.002 101.683C146.697 101.564 146.433 101.391 146.207 101.164C145.982 100.933 145.805 100.65 145.676 100.314C145.547 99.9746 145.482 99.5825 145.482 99.1377C145.482 98.7917 145.538 98.4672 145.651 98.164C145.764 97.8576 145.924 97.5924 146.133 97.3683C146.345 97.141 146.601 96.9614 146.903 96.8296C147.207 96.6978 147.55 96.6319 147.931 96.6319C148.252 96.6319 148.549 96.683 148.82 96.7851C149.092 96.8873 149.325 97.0372 149.52 97.2349C149.716 97.4293 149.868 97.6698 149.977 97.9564C150.09 98.2398 150.146 98.5644 150.146 98.9301C150.146 99.1146 150.126 99.2398 150.087 99.3057C150.047 99.3683 149.971 99.3996 149.858 99.3996H146.704Z" fill="white"/>
<path d="M61.4118 107.289V83.6577C61.4118 79.1934 65.0606 75.4375 69.6237 75.4375H281.093C285.557 75.4375 289.305 79.0946 289.305 83.6577V216.417C289.305 220.881 285.656 224.637 281.093 224.637H69.5249C65.0606 224.637 61.3047 220.98 61.3047 216.417V150.696" stroke="#333333" stroke-linecap="round" stroke-linejoin="round"/>
<path d="M61.4141 142.703V124.039" stroke="#333333" stroke-linecap="round" stroke-linejoin="round"/>
<rect x="73.3047" y="128.812" width="27.3333" height="14" rx="2" fill="#78C7E0"/>
<rect x="109.305" y="128.812" width="27.3333" height="14" rx="2" fill="#78C7E0"/>
<rect x="144.305" y="128.812" width="27.3333" height="14" rx="2" fill="#78C7E0"/>
<rect x="179.305" y="128.812" width="27.3333" height="14" rx="2" fill="#78C7E0"/>
<rect x="214.305" y="128.812" width="27.3333" height="14" rx="2" fill="#78C7E0"/>
<rect x="250.305" y="128.812" width="27.3333" height="14" rx="2" fill="#78C7E0"/>
<path d="M73.3047 155.484C73.3047 154.38 74.2001 153.484 75.3047 153.484H98.638C99.7426 153.484 100.638 154.38 100.638 155.484V165.484C100.638 166.589 99.7426 167.484 98.638 167.484H75.3047C74.2001 167.484 73.3047 166.589 73.3047 165.484V155.484Z" fill="#78C7E0"/>
<path d="M108.637 155.484C108.637 154.38 109.532 153.484 110.637 153.484H133.97C135.075 153.484 135.97 154.38 135.97 155.484V165.484C135.97 166.589 135.075 167.484 133.97 167.484H110.637C109.532 167.484 108.637 166.589 108.637 165.484V155.484Z" fill="#78C7E0"/>
<path d="M143.973 155.484C143.973 154.38 144.868 153.484 145.973 153.484H169.306C170.411 153.484 171.306 154.38 171.306 155.484V165.484C171.306 166.589 170.411 167.484 169.306 167.484H145.973C144.868 167.484 143.973 166.589 143.973 165.484V155.484Z" fill="#78C7E0"/>
<path d="M179.305 155.484C179.305 154.38 180.2 153.484 181.305 153.484H204.638C205.743 153.484 206.638 154.38 206.638 155.484V165.484C206.638 166.589 205.743 167.484 204.638 167.484H181.305C180.2 167.484 179.305 166.589 179.305 165.484V155.484Z" fill="#78C7E0"/>
<path d="M214.637 155.484C214.637 154.38 215.532 153.484 216.637 153.484H239.97C241.075 153.484 241.97 154.38 241.97 155.484V165.484C241.97 166.589 241.075 167.484 239.97 167.484H216.637C215.532 167.484 214.637 166.589 214.637 165.484V155.484Z" fill="#78C7E0"/>
<path d="M249.973 155.484C249.973 154.38 250.868 153.484 251.973 153.484H275.306C276.411 153.484 277.306 154.38 277.306 155.484V165.484C277.306 166.589 276.411 167.484 275.306 167.484H251.973C250.868 167.484 249.973 166.589 249.973 165.484V155.484Z" fill="#78C7E0"/>
<path d="M73.3047 180.148C73.3047 179.044 74.2001 178.148 75.3047 178.148H98.638C99.7426 178.148 100.638 179.044 100.638 180.148V190.148C100.638 191.253 99.7426 192.148 98.638 192.148H75.3047C74.2001 192.148 73.3047 191.253 73.3047 190.148V180.148Z" fill="#78C7E0"/>
<path d="M108.305 180.148C108.305 179.044 109.2 178.148 110.305 178.148H133.638C134.743 178.148 135.638 179.044 135.638 180.148V190.148C135.638 191.253 134.743 192.148 133.638 192.148H110.305C109.2 192.148 108.305 191.253 108.305 190.148V180.148Z" fill="#78C7E0"/>
<path d="M143.973 180.148C143.973 179.044 144.868 178.148 145.973 178.148H169.306C170.411 178.148 171.306 179.044 171.306 180.148V190.148C171.306 191.253 170.411 192.148 169.306 192.148H145.973C144.868 192.148 143.973 191.253 143.973 190.148V180.148Z" fill="#78C7E0"/>
<path d="M179.305 180.148C179.305 179.044 180.2 178.148 181.305 178.148H204.638C205.743 178.148 206.638 179.044 206.638 180.148V190.148C206.638 191.253 205.743 192.148 204.638 192.148H181.305C180.2 192.148 179.305 191.253 179.305 190.148V180.148Z" fill="#78C7E0"/>
<path d="M214.305 180.148C214.305 179.044 215.2 178.148 216.305 178.148H239.638C240.743 178.148 241.638 179.044 241.638 180.148V190.148C241.638 191.253 240.743 192.148 239.638 192.148H216.305C215.2 192.148 214.305 191.253 214.305 190.148V180.148Z" fill="#78C7E0"/>
<path d="M249.973 180.148C249.973 179.044 250.868 178.148 251.973 178.148H275.306C276.411 178.148 277.306 179.044 277.306 180.148V190.148C277.306 191.253 276.411 192.148 275.306 192.148H251.973C250.868 192.148 249.973 191.253 249.973 190.148V180.148Z" fill="#78C7E0"/>
<path d="M73.3047 204.812C73.3047 203.708 74.2001 202.812 75.3047 202.812H98.638C99.7426 202.812 100.638 203.708 100.638 204.812V214.812C100.638 215.917 99.7426 216.812 98.638 216.812H75.3047C74.2001 216.812 73.3047 215.917 73.3047 214.812V204.812Z" fill="#78C7E0"/>
<path d="M108.637 204.812C108.637 203.708 109.532 202.812 110.637 202.812H133.97C135.075 202.812 135.97 203.708 135.97 204.812V214.812C135.97 215.917 135.075 216.812 133.97 216.812H110.637C109.532 216.812 108.637 215.917 108.637 214.812V204.812Z" fill="#78C7E0"/>
<path d="M143.973 204.812C143.973 203.708 144.868 202.812 145.973 202.812H169.306C170.411 202.812 171.306 203.708 171.306 204.812V214.812C171.306 215.917 170.411 216.812 169.306 216.812H145.973C144.868 216.812 143.973 215.917 143.973 214.812V204.812Z" fill="#78C7E0"/>
<path d="M179.305 204.812C179.305 203.708 180.2 202.812 181.305 202.812H204.638C205.743 202.812 206.638 203.708 206.638 204.812V214.812C206.638 215.917 205.743 216.812 204.638 216.812H181.305C180.2 216.812 179.305 215.917 179.305 214.812V204.812Z" fill="#78C7E0"/>
<path d="M214.637 204.812C214.637 203.708 215.532 202.812 216.637 202.812H239.97C241.075 202.812 241.97 203.708 241.97 204.812V214.812C241.97 215.917 241.075 216.812 239.97 216.812H216.637C215.532 216.812 214.637 215.917 214.637 214.812V204.812Z" fill="#78C7E0"/>
<path d="M250.305 204.812C250.305 203.708 251.2 202.812 252.305 202.812H275.638C276.743 202.812 277.638 203.708 277.638 204.812V214.812C277.638 215.917 276.743 216.812 275.638 216.812H252.305C251.2 216.812 250.305 215.917 250.305 214.812V204.812Z" fill="#78C7E0"/>
<path d="M89.3068 138.404V139.422H84.9068V138.404H86.5183V133.768C86.5183 133.585 86.5238 133.396 86.5348 133.201L85.3908 134.158C85.3248 134.21 85.2588 134.243 85.1928 134.257C85.1304 134.268 85.0699 134.268 85.0113 134.257C84.9563 134.246 84.9068 134.228 84.8628 134.202C84.8188 134.173 84.7858 134.142 84.7638 134.109L84.3348 133.52L86.7603 131.458H87.8768V138.404H89.3068Z" fill="#266483"/>
<path d="M77.0287 117.307C76.9967 117.363 76.962 117.404 76.9247 117.431C76.89 117.455 76.846 117.467 76.7927 117.467C76.7367 117.467 76.6754 117.447 76.6087 117.407C76.5447 117.364 76.4674 117.318 76.3767 117.267C76.286 117.216 76.1794 117.171 76.0567 117.131C75.9367 117.088 75.794 117.067 75.6287 117.067C75.4794 117.067 75.3487 117.086 75.2367 117.123C75.1247 117.158 75.03 117.207 74.9527 117.271C74.878 117.335 74.822 117.412 74.7847 117.503C74.7474 117.591 74.7287 117.688 74.7287 117.795C74.7287 117.931 74.766 118.044 74.8407 118.135C74.918 118.226 75.0194 118.303 75.1447 118.367C75.27 118.431 75.4127 118.488 75.5727 118.539C75.7327 118.59 75.8967 118.644 76.0647 118.703C76.2327 118.759 76.3967 118.826 76.5567 118.903C76.7167 118.978 76.8594 119.074 76.9847 119.191C77.11 119.306 77.21 119.447 77.2847 119.615C77.362 119.783 77.4007 119.987 77.4007 120.227C77.4007 120.488 77.3554 120.734 77.2647 120.963C77.1767 121.19 77.046 121.388 76.8727 121.559C76.702 121.727 76.4927 121.86 76.2447 121.959C75.9967 122.055 75.7127 122.103 75.3927 122.103C75.2087 122.103 75.0274 122.084 74.8487 122.047C74.67 122.012 74.498 121.962 74.3327 121.895C74.17 121.828 74.0167 121.748 73.8727 121.655C73.7287 121.562 73.6007 121.458 73.4887 121.343L73.8047 120.827C73.8314 120.79 73.866 120.759 73.9087 120.735C73.9514 120.708 73.9967 120.695 74.0447 120.695C74.1114 120.695 74.1834 120.723 74.2607 120.779C74.338 120.832 74.43 120.892 74.5367 120.959C74.6434 121.026 74.7674 121.087 74.9087 121.143C75.0527 121.196 75.2247 121.223 75.4247 121.223C75.7314 121.223 75.9687 121.151 76.1367 121.007C76.3047 120.86 76.3887 120.651 76.3887 120.379C76.3887 120.227 76.35 120.103 76.2727 120.007C76.198 119.911 76.098 119.831 75.9727 119.767C75.8474 119.7 75.7047 119.644 75.5447 119.599C75.3847 119.554 75.222 119.504 75.0567 119.451C74.8914 119.398 74.7287 119.334 74.5687 119.259C74.4087 119.184 74.266 119.087 74.1407 118.967C74.0154 118.847 73.914 118.698 73.8367 118.519C73.762 118.338 73.7247 118.115 73.7247 117.851C73.7247 117.64 73.766 117.435 73.8487 117.235C73.934 117.035 74.0567 116.858 74.2167 116.703C74.3767 116.548 74.574 116.424 74.8087 116.331C75.0434 116.238 75.3127 116.191 75.6167 116.191C75.958 116.191 76.2727 116.244 76.5607 116.351C76.8487 116.458 77.094 116.607 77.2967 116.799L77.0287 117.307ZM80.8117 119.515C80.8117 119.387 80.793 119.267 80.7557 119.155C80.721 119.04 80.6677 118.94 80.5957 118.855C80.5237 118.77 80.4317 118.703 80.3197 118.655C80.2104 118.604 80.0824 118.579 79.9357 118.579C79.6504 118.579 79.425 118.66 79.2597 118.823C79.097 118.986 78.993 119.216 78.9477 119.515H80.8117ZM78.9277 120.111C78.9437 120.322 78.981 120.504 79.0397 120.659C79.0984 120.811 79.1757 120.938 79.2717 121.039C79.3677 121.138 79.481 121.212 79.6117 121.263C79.745 121.311 79.8917 121.335 80.0517 121.335C80.2117 121.335 80.349 121.316 80.4637 121.279C80.581 121.242 80.6824 121.2 80.7677 121.155C80.8557 121.11 80.9317 121.068 80.9957 121.031C81.0624 120.994 81.1264 120.975 81.1877 120.975C81.2704 120.975 81.3317 121.006 81.3717 121.067L81.6557 121.427C81.5464 121.555 81.4237 121.663 81.2877 121.751C81.1517 121.836 81.009 121.906 80.8597 121.959C80.713 122.01 80.5624 122.046 80.4077 122.067C80.2557 122.088 80.1077 122.099 79.9637 122.099C79.6784 122.099 79.413 122.052 79.1677 121.959C78.9224 121.863 78.709 121.723 78.5277 121.539C78.3464 121.352 78.2037 121.123 78.0997 120.851C77.9957 120.576 77.9437 120.259 77.9437 119.899C77.9437 119.619 77.989 119.356 78.0797 119.111C78.1704 118.863 78.2997 118.648 78.4677 118.467C78.6384 118.283 78.845 118.138 79.0877 118.031C79.333 117.924 79.609 117.871 79.9157 117.871C80.1744 117.871 80.413 117.912 80.6317 117.995C80.8504 118.078 81.0384 118.199 81.1957 118.359C81.353 118.516 81.4757 118.711 81.5637 118.943C81.6544 119.172 81.6997 119.435 81.6997 119.731C81.6997 119.88 81.6837 119.982 81.6517 120.035C81.6197 120.086 81.5584 120.111 81.4677 120.111H78.9277ZM85.0851 119.515C85.0851 119.387 85.0665 119.267 85.0291 119.155C84.9945 119.04 84.9411 118.94 84.8691 118.855C84.7971 118.77 84.7051 118.703 84.5931 118.655C84.4838 118.604 84.3558 118.579 84.2091 118.579C83.9238 118.579 83.6985 118.66 83.5331 118.823C83.3705 118.986 83.2665 119.216 83.2211 119.515H85.0851ZM83.2011 120.111C83.2171 120.322 83.2545 120.504 83.3131 120.659C83.3718 120.811 83.4491 120.938 83.5451 121.039C83.6411 121.138 83.7545 121.212 83.8851 121.263C84.0185 121.311 84.1651 121.335 84.3251 121.335C84.4851 121.335 84.6225 121.316 84.7371 121.279C84.8545 121.242 84.9558 121.2 85.0411 121.155C85.1291 121.11 85.2051 121.068 85.2691 121.031C85.3358 120.994 85.3998 120.975 85.4611 120.975C85.5438 120.975 85.6051 121.006 85.6451 121.067L85.9291 121.427C85.8198 121.555 85.6971 121.663 85.5611 121.751C85.4251 121.836 85.2825 121.906 85.1331 121.959C84.9865 122.01 84.8358 122.046 84.6811 122.067C84.5291 122.088 84.3811 122.099 84.2371 122.099C83.9518 122.099 83.6865 122.052 83.4411 121.959C83.1958 121.863 82.9825 121.723 82.8011 121.539C82.6198 121.352 82.4771 121.123 82.3731 120.851C82.2691 120.576 82.2171 120.259 82.2171 119.899C82.2171 119.619 82.2625 119.356 82.3531 119.111C82.4438 118.863 82.5731 118.648 82.7411 118.467C82.9118 118.283 83.1185 118.138 83.3611 118.031C83.6065 117.924 83.8825 117.871 84.1891 117.871C84.4478 117.871 84.6865 117.912 84.9051 117.995C85.1238 118.078 85.3118 118.199 85.4691 118.359C85.6265 118.516 85.7491 118.711 85.8371 118.943C85.9278 119.172 85.9731 119.435 85.9731 119.731C85.9731 119.88 85.9571 119.982 85.9251 120.035C85.8931 120.086 85.8318 120.111 85.7411 120.111H83.2011ZM89.2906 118.983C89.1786 118.847 89.0559 118.751 88.9226 118.695C88.7919 118.639 88.6506 118.611 88.4986 118.611C88.3492 118.611 88.2146 118.639 88.0946 118.695C87.9746 118.751 87.8719 118.836 87.7866 118.951C87.7012 119.063 87.6359 119.207 87.5906 119.383C87.5452 119.556 87.5226 119.762 87.5226 119.999C87.5226 120.239 87.5412 120.443 87.5786 120.611C87.6186 120.776 87.6746 120.912 87.7466 121.019C87.8186 121.123 87.9066 121.199 88.0106 121.247C88.1146 121.292 88.2306 121.315 88.3586 121.315C88.5639 121.315 88.7386 121.272 88.8826 121.187C89.0266 121.102 89.1626 120.98 89.2906 120.823V118.983ZM90.2786 116.095V122.039H89.6746C89.5439 122.039 89.4612 121.979 89.4266 121.859L89.3426 121.463C89.1772 121.652 88.9866 121.806 88.7706 121.923C88.5572 122.04 88.3079 122.099 88.0226 122.099C87.7986 122.099 87.5932 122.052 87.4066 121.959C87.2199 121.866 87.0586 121.731 86.9226 121.555C86.7892 121.376 86.6852 121.156 86.6106 120.895C86.5386 120.634 86.5026 120.335 86.5026 119.999C86.5026 119.695 86.5439 119.412 86.6266 119.151C86.7092 118.89 86.8279 118.663 86.9826 118.471C87.1372 118.279 87.3226 118.13 87.5386 118.023C87.7546 117.914 87.9972 117.859 88.2666 117.859C88.4959 117.859 88.6919 117.895 88.8546 117.967C89.0172 118.039 89.1626 118.136 89.2906 118.259V116.095H90.2786ZM94.1869 120.975C94.2989 121.111 94.4203 121.207 94.5509 121.263C94.6843 121.319 94.8283 121.347 94.9829 121.347C95.1323 121.347 95.2669 121.319 95.3869 121.263C95.5069 121.207 95.6083 121.122 95.6909 121.007C95.7763 120.892 95.8416 120.748 95.8869 120.575C95.9323 120.399 95.9549 120.192 95.9549 119.955C95.9549 119.715 95.9349 119.512 95.8949 119.347C95.8576 119.179 95.8029 119.043 95.7309 118.939C95.6589 118.835 95.5709 118.759 95.4669 118.711C95.3656 118.663 95.2496 118.639 95.1189 118.639C94.9136 118.639 94.7389 118.683 94.5949 118.771C94.4509 118.856 94.3149 118.978 94.1869 119.135V120.975ZM94.1349 118.495C94.3029 118.306 94.4936 118.152 94.7069 118.035C94.9203 117.918 95.1709 117.859 95.4589 117.859C95.6829 117.859 95.8869 117.906 96.0709 117.999C96.2576 118.092 96.4176 118.228 96.5509 118.407C96.6869 118.583 96.7909 118.802 96.8629 119.063C96.9376 119.322 96.9749 119.619 96.9749 119.955C96.9749 120.262 96.9336 120.546 96.8509 120.807C96.7683 121.068 96.6496 121.295 96.4949 121.487C96.3429 121.679 96.1576 121.83 95.9389 121.939C95.7229 122.046 95.4803 122.099 95.2109 122.099C94.9816 122.099 94.7856 122.064 94.6229 121.995C94.4603 121.923 94.3149 121.824 94.1869 121.699V123.379H93.1989V117.935H93.8029C93.9309 117.935 94.0149 117.995 94.0549 118.115L94.1349 118.495ZM98.7338 118.375C98.8938 118.226 99.0698 118.104 99.2618 118.011C99.4538 117.918 99.6791 117.871 99.9378 117.871C100.162 117.871 100.36 117.91 100.534 117.987C100.707 118.062 100.851 118.168 100.966 118.307C101.083 118.443 101.171 118.607 101.23 118.799C101.291 118.988 101.322 119.198 101.322 119.427V122.039H100.334V119.427C100.334 119.176 100.276 118.983 100.162 118.847C100.047 118.708 99.8725 118.639 99.6378 118.639C99.4671 118.639 99.3071 118.678 99.1578 118.755C99.0085 118.832 98.8671 118.938 98.7338 119.071V122.039H97.7458V116.095H98.7338V118.375ZM103.193 118.647C103.321 118.402 103.473 118.21 103.649 118.071C103.825 117.93 104.033 117.859 104.273 117.859C104.463 117.859 104.615 117.9 104.729 117.983L104.665 118.723C104.652 118.771 104.632 118.806 104.605 118.827C104.581 118.846 104.548 118.855 104.505 118.855C104.465 118.855 104.405 118.848 104.325 118.835C104.248 118.822 104.172 118.815 104.097 118.815C103.988 118.815 103.891 118.831 103.805 118.863C103.72 118.895 103.643 118.942 103.573 119.003C103.507 119.062 103.447 119.134 103.393 119.219C103.343 119.304 103.295 119.402 103.249 119.511V122.039H102.261V117.935H102.841C102.943 117.935 103.013 117.954 103.053 117.991C103.093 118.026 103.12 118.09 103.133 118.183L103.193 118.647ZM107.359 120.287C107.074 120.3 106.834 120.326 106.639 120.363C106.444 120.398 106.288 120.443 106.171 120.499C106.054 120.555 105.97 120.62 105.919 120.695C105.868 120.77 105.843 120.851 105.843 120.939C105.843 121.112 105.894 121.236 105.995 121.311C106.099 121.386 106.234 121.423 106.399 121.423C106.602 121.423 106.776 121.387 106.923 121.315C107.072 121.24 107.218 121.128 107.359 120.979V120.287ZM105.095 118.507C105.567 118.075 106.135 117.859 106.799 117.859C107.039 117.859 107.254 117.899 107.443 117.979C107.632 118.056 107.792 118.166 107.923 118.307C108.054 118.446 108.152 118.612 108.219 118.807C108.288 119.002 108.323 119.215 108.323 119.447V122.039H107.875C107.782 122.039 107.71 122.026 107.659 121.999C107.608 121.97 107.568 121.912 107.539 121.827L107.451 121.531C107.347 121.624 107.246 121.707 107.147 121.779C107.048 121.848 106.946 121.907 106.839 121.955C106.732 122.003 106.618 122.039 106.495 122.063C106.375 122.09 106.242 122.103 106.095 122.103C105.922 122.103 105.762 122.08 105.615 122.035C105.468 121.987 105.342 121.916 105.235 121.823C105.128 121.73 105.046 121.614 104.987 121.475C104.928 121.336 104.899 121.175 104.899 120.991C104.899 120.887 104.916 120.784 104.951 120.683C104.986 120.579 105.042 120.48 105.119 120.387C105.199 120.294 105.302 120.206 105.427 120.123C105.552 120.04 105.706 119.968 105.887 119.907C106.071 119.846 106.284 119.796 106.527 119.759C106.77 119.719 107.047 119.695 107.359 119.687V119.447C107.359 119.172 107.3 118.97 107.183 118.839C107.066 118.706 106.896 118.639 106.675 118.639C106.515 118.639 106.382 118.658 106.275 118.695C106.171 118.732 106.079 118.775 105.999 118.823C105.919 118.868 105.846 118.91 105.779 118.947C105.715 118.984 105.643 119.003 105.563 119.003C105.494 119.003 105.435 118.986 105.387 118.951C105.339 118.914 105.3 118.871 105.271 118.823L105.095 118.507ZM111.758 118.735C111.731 118.778 111.703 118.808 111.674 118.827C111.644 118.843 111.607 118.851 111.562 118.851C111.514 118.851 111.462 118.838 111.406 118.811C111.352 118.784 111.29 118.755 111.218 118.723C111.146 118.688 111.063 118.658 110.97 118.631C110.879 118.604 110.771 118.591 110.646 118.591C110.451 118.591 110.298 118.632 110.186 118.715C110.076 118.798 110.022 118.906 110.022 119.039C110.022 119.127 110.05 119.202 110.106 119.263C110.164 119.322 110.24 119.374 110.334 119.419C110.43 119.464 110.538 119.506 110.658 119.543C110.778 119.578 110.899 119.616 111.022 119.659C111.147 119.702 111.27 119.751 111.39 119.807C111.51 119.86 111.616 119.93 111.71 120.015C111.806 120.098 111.882 120.198 111.938 120.315C111.996 120.432 112.026 120.574 112.026 120.739C112.026 120.936 111.99 121.119 111.918 121.287C111.848 121.452 111.744 121.596 111.606 121.719C111.467 121.839 111.295 121.934 111.09 122.003C110.887 122.07 110.652 122.103 110.386 122.103C110.244 122.103 110.106 122.09 109.97 122.063C109.836 122.039 109.707 122.004 109.582 121.959C109.459 121.914 109.344 121.86 109.238 121.799C109.134 121.738 109.042 121.671 108.962 121.599L109.19 121.223C109.219 121.178 109.254 121.143 109.294 121.119C109.334 121.095 109.384 121.083 109.446 121.083C109.507 121.083 109.564 121.1 109.618 121.135C109.674 121.17 109.738 121.207 109.81 121.247C109.882 121.287 109.966 121.324 110.062 121.359C110.16 121.394 110.284 121.411 110.434 121.411C110.551 121.411 110.651 121.398 110.734 121.371C110.819 121.342 110.888 121.304 110.942 121.259C110.998 121.214 111.038 121.162 111.062 121.103C111.088 121.042 111.102 120.979 111.102 120.915C111.102 120.819 111.072 120.74 111.014 120.679C110.958 120.618 110.882 120.564 110.786 120.519C110.692 120.474 110.584 120.434 110.462 120.399C110.342 120.362 110.218 120.322 110.09 120.279C109.964 120.236 109.84 120.187 109.718 120.131C109.598 120.072 109.49 119.999 109.394 119.911C109.3 119.823 109.224 119.715 109.166 119.587C109.11 119.459 109.082 119.304 109.082 119.123C109.082 118.955 109.115 118.795 109.182 118.643C109.248 118.491 109.346 118.359 109.474 118.247C109.604 118.132 109.766 118.042 109.958 117.975C110.152 117.906 110.376 117.871 110.63 117.871C110.912 117.871 111.17 117.918 111.402 118.011C111.634 118.104 111.827 118.227 111.982 118.379L111.758 118.735ZM115.413 119.515C115.413 119.387 115.395 119.267 115.357 119.155C115.323 119.04 115.269 118.94 115.197 118.855C115.125 118.77 115.033 118.703 114.921 118.655C114.812 118.604 114.684 118.579 114.537 118.579C114.252 118.579 114.027 118.66 113.861 118.823C113.699 118.986 113.595 119.216 113.549 119.515H115.413ZM113.529 120.111C113.545 120.322 113.583 120.504 113.641 120.659C113.7 120.811 113.777 120.938 113.873 121.039C113.969 121.138 114.083 121.212 114.213 121.263C114.347 121.311 114.493 121.335 114.653 121.335C114.813 121.335 114.951 121.316 115.065 121.279C115.183 121.242 115.284 121.2 115.369 121.155C115.457 121.11 115.533 121.068 115.597 121.031C115.664 120.994 115.728 120.975 115.789 120.975C115.872 120.975 115.933 121.006 115.973 121.067L116.257 121.427C116.148 121.555 116.025 121.663 115.889 121.751C115.753 121.836 115.611 121.906 115.461 121.959C115.315 122.01 115.164 122.046 115.009 122.067C114.857 122.088 114.709 122.099 114.565 122.099C114.28 122.099 114.015 122.052 113.769 121.959C113.524 121.863 113.311 121.723 113.129 121.539C112.948 121.352 112.805 121.123 112.701 120.851C112.597 120.576 112.545 120.259 112.545 119.899C112.545 119.619 112.591 119.356 112.681 119.111C112.772 118.863 112.901 118.648 113.069 118.467C113.24 118.283 113.447 118.138 113.689 118.031C113.935 117.924 114.211 117.871 114.517 117.871C114.776 117.871 115.015 117.912 115.233 117.995C115.452 118.078 115.64 118.199 115.797 118.359C115.955 118.516 116.077 118.711 116.165 118.943C116.256 119.172 116.301 119.435 116.301 119.731C116.301 119.88 116.285 119.982 116.253 120.035C116.221 120.086 116.16 120.111 116.069 120.111H113.529Z" fill="white"/>
<path d="M89.6203 156.469V157.057C89.6203 157.233 89.6019 157.376 89.5653 157.486C89.5286 157.593 89.4919 157.683 89.4553 157.756L86.4413 163.96C86.3789 164.088 86.2909 164.198 86.1773 164.29C86.0636 164.378 85.9114 164.422 85.7208 164.422H84.7363L87.8108 158.344C87.8804 158.22 87.9483 158.106 88.0143 158.003C88.0839 157.897 88.1609 157.796 88.2453 157.701H84.4393C84.3549 157.701 84.2816 157.67 84.2193 157.607C84.1569 157.545 84.1258 157.472 84.1258 157.387V156.469H89.6203Z" fill="#266483"/>
<path d="M125.01 138.157C125.156 138.157 125.272 138.199 125.356 138.283C125.444 138.364 125.488 138.472 125.488 138.608V139.422H120.032V138.971C120.032 138.879 120.051 138.784 120.087 138.685C120.128 138.582 120.19 138.491 120.274 138.41L122.689 135.99C122.89 135.785 123.07 135.588 123.228 135.401C123.389 135.214 123.523 135.029 123.629 134.846C123.736 134.663 123.816 134.477 123.871 134.29C123.93 134.1 123.959 133.9 123.959 133.691C123.959 133.5 123.932 133.333 123.877 133.19C123.822 133.044 123.743 132.921 123.64 132.822C123.541 132.723 123.42 132.65 123.277 132.602C123.138 132.551 122.98 132.525 122.804 132.525C122.643 132.525 122.493 132.549 122.353 132.596C122.218 132.64 122.097 132.705 121.99 132.789C121.884 132.87 121.794 132.965 121.721 133.075C121.647 133.185 121.592 133.306 121.556 133.438C121.493 133.607 121.413 133.718 121.314 133.773C121.215 133.828 121.072 133.841 120.885 133.812L120.17 133.685C120.225 133.304 120.331 132.97 120.489 132.684C120.646 132.395 120.843 132.155 121.077 131.964C121.316 131.77 121.587 131.625 121.891 131.529C122.199 131.43 122.529 131.381 122.881 131.381C123.248 131.381 123.583 131.436 123.888 131.546C124.192 131.652 124.452 131.804 124.669 132.002C124.885 132.2 125.054 132.439 125.175 132.717C125.296 132.996 125.356 133.306 125.356 133.647C125.356 133.94 125.312 134.212 125.224 134.461C125.14 134.71 125.024 134.949 124.878 135.176C124.735 135.403 124.566 135.623 124.372 135.836C124.177 136.049 123.974 136.265 123.761 136.485L121.968 138.316C122.141 138.265 122.311 138.227 122.48 138.201C122.652 138.172 122.815 138.157 122.969 138.157H125.01Z" fill="#266483"/>
<path d="M122.804 163.448C123.028 163.448 123.224 163.417 123.393 163.355C123.561 163.289 123.703 163.199 123.816 163.085C123.934 162.972 124.022 162.836 124.08 162.678C124.139 162.521 124.168 162.35 124.168 162.167C124.168 161.731 124.047 161.401 123.805 161.177C123.563 160.953 123.23 160.841 122.804 160.841C122.379 160.841 122.045 160.953 121.803 161.177C121.561 161.401 121.44 161.731 121.44 162.167C121.44 162.35 121.47 162.521 121.528 162.678C121.587 162.836 121.673 162.972 121.787 163.085C121.904 163.199 122.047 163.289 122.216 163.355C122.384 163.417 122.581 163.448 122.804 163.448ZM122.804 157.404C122.603 157.404 122.428 157.435 122.282 157.497C122.135 157.56 122.012 157.644 121.913 157.75C121.818 157.853 121.746 157.972 121.699 158.108C121.655 158.244 121.633 158.387 121.633 158.537C121.633 158.695 121.651 158.849 121.688 158.999C121.728 159.146 121.794 159.278 121.886 159.395C121.977 159.509 122.098 159.6 122.249 159.67C122.399 159.74 122.584 159.774 122.804 159.774C123.024 159.774 123.209 159.74 123.36 159.67C123.51 159.6 123.631 159.509 123.723 159.395C123.814 159.278 123.879 159.146 123.915 158.999C123.956 158.849 123.976 158.695 123.976 158.537C123.976 158.387 123.952 158.244 123.904 158.108C123.857 157.972 123.785 157.853 123.69 157.75C123.594 157.644 123.473 157.56 123.327 157.497C123.18 157.435 123.006 157.404 122.804 157.404ZM124.146 160.275C124.63 160.433 124.988 160.675 125.219 161.001C125.45 161.324 125.565 161.72 125.565 162.189C125.565 162.541 125.497 162.86 125.362 163.146C125.23 163.432 125.043 163.676 124.801 163.877C124.559 164.079 124.267 164.235 123.926 164.345C123.589 164.455 123.215 164.51 122.804 164.51C122.394 164.51 122.018 164.455 121.677 164.345C121.339 164.235 121.05 164.079 120.808 163.877C120.566 163.676 120.377 163.432 120.241 163.146C120.109 162.86 120.043 162.541 120.043 162.189C120.043 161.72 120.159 161.324 120.39 161.001C120.621 160.675 120.978 160.433 121.462 160.275C121.077 160.114 120.788 159.884 120.593 159.587C120.403 159.29 120.307 158.933 120.307 158.515C120.307 158.214 120.368 157.934 120.489 157.673C120.613 157.413 120.786 157.188 121.006 156.997C121.226 156.803 121.488 156.652 121.792 156.546C122.1 156.436 122.438 156.381 122.804 156.381C123.171 156.381 123.506 156.436 123.811 156.546C124.119 156.652 124.383 156.803 124.603 156.997C124.823 157.188 124.993 157.413 125.114 157.673C125.239 157.934 125.301 158.214 125.301 158.515C125.301 158.933 125.204 159.29 125.01 159.587C124.819 159.884 124.531 160.114 124.146 160.275Z" fill="#266483"/>
<path d="M155.208 133.685C155.263 133.304 155.37 132.97 155.527 132.684C155.685 132.395 155.881 132.155 156.116 131.964C156.354 131.77 156.625 131.625 156.93 131.529C157.238 131.43 157.568 131.381 157.92 131.381C158.286 131.381 158.616 131.434 158.91 131.54C159.207 131.643 159.46 131.788 159.669 131.975C159.878 132.158 160.037 132.375 160.147 132.624C160.261 132.873 160.318 133.143 160.318 133.432C160.318 133.685 160.288 133.909 160.23 134.103C160.175 134.294 160.094 134.461 159.988 134.604C159.881 134.747 159.749 134.868 159.592 134.967C159.434 135.066 159.256 135.148 159.058 135.214C159.535 135.365 159.891 135.594 160.125 135.902C160.36 136.21 160.477 136.597 160.477 137.062C160.477 137.458 160.404 137.809 160.257 138.113C160.111 138.417 159.913 138.674 159.663 138.883C159.414 139.088 159.124 139.244 158.794 139.35C158.468 139.457 158.121 139.51 157.755 139.51C157.355 139.51 157.007 139.464 156.71 139.372C156.413 139.281 156.154 139.145 155.934 138.965C155.714 138.786 155.527 138.566 155.373 138.305C155.219 138.045 155.087 137.744 154.977 137.403L155.577 137.156C155.734 137.09 155.881 137.073 156.017 137.106C156.156 137.136 156.257 137.209 156.319 137.326C156.385 137.455 156.457 137.581 156.534 137.706C156.614 137.831 156.71 137.942 156.82 138.041C156.93 138.137 157.058 138.216 157.205 138.278C157.355 138.337 157.533 138.366 157.738 138.366C157.969 138.366 158.171 138.329 158.343 138.256C158.516 138.179 158.659 138.08 158.772 137.959C158.89 137.838 158.976 137.704 159.031 137.557C159.089 137.407 159.119 137.257 159.119 137.106C159.119 136.916 159.099 136.743 159.058 136.589C159.018 136.432 158.934 136.298 158.805 136.188C158.677 136.078 158.492 135.992 158.25 135.929C158.011 135.867 157.691 135.836 157.287 135.836V134.868C157.621 134.864 157.898 134.833 158.118 134.774C158.338 134.716 158.512 134.635 158.64 134.532C158.772 134.426 158.864 134.3 158.915 134.153C158.967 134.006 158.992 133.845 158.992 133.669C158.992 133.295 158.888 133.011 158.679 132.816C158.47 132.622 158.191 132.525 157.843 132.525C157.681 132.525 157.533 132.549 157.397 132.596C157.262 132.64 157.139 132.705 157.029 132.789C156.922 132.87 156.833 132.965 156.759 133.075C156.686 133.185 156.631 133.306 156.594 133.438C156.532 133.607 156.449 133.718 156.347 133.773C156.248 133.828 156.107 133.841 155.923 133.812L155.208 133.685Z" fill="#266483"/>
<path d="M156.429 158.856C156.429 159.3 156.543 159.639 156.77 159.873C157.001 160.104 157.328 160.22 157.749 160.22C157.969 160.22 158.165 160.185 158.338 160.115C158.51 160.046 158.655 159.95 158.772 159.829C158.89 159.708 158.978 159.565 159.036 159.4C159.099 159.235 159.13 159.058 159.13 158.867C159.13 158.651 159.097 158.458 159.031 158.289C158.965 158.117 158.871 157.972 158.75 157.855C158.629 157.738 158.484 157.648 158.316 157.585C158.151 157.523 157.969 157.492 157.771 157.492C157.566 157.492 157.381 157.527 157.216 157.596C157.051 157.662 156.91 157.756 156.792 157.877C156.675 157.998 156.585 158.143 156.523 158.311C156.46 158.476 156.429 158.658 156.429 158.856ZM158.233 161.336C158.296 161.259 158.354 161.184 158.409 161.111C158.464 161.038 158.517 160.964 158.569 160.891C158.385 161.008 158.184 161.098 157.964 161.16C157.744 161.219 157.513 161.248 157.271 161.248C156.996 161.248 156.726 161.201 156.462 161.105C156.198 161.01 155.964 160.867 155.758 160.676C155.553 160.482 155.386 160.244 155.258 159.961C155.133 159.675 155.071 159.342 155.071 158.96C155.071 158.605 155.137 158.271 155.269 157.959C155.401 157.648 155.586 157.375 155.824 157.14C156.063 156.905 156.349 156.72 156.682 156.584C157.016 156.449 157.384 156.381 157.788 156.381C158.195 156.381 158.56 156.445 158.882 156.573C159.209 156.702 159.485 156.881 159.713 157.112C159.944 157.343 160.12 157.62 160.241 157.943C160.365 158.266 160.428 158.619 160.428 159.004C160.428 159.25 160.406 159.483 160.362 159.703C160.321 159.923 160.263 160.136 160.186 160.341C160.109 160.543 160.015 160.741 159.905 160.935C159.795 161.129 159.672 161.322 159.537 161.512L157.716 164.108C157.654 164.196 157.56 164.272 157.436 164.334C157.311 164.393 157.17 164.422 157.012 164.422H155.764L158.233 161.336Z" fill="#266483"/>
<path d="M193.53 136.424V133.823C193.53 133.577 193.547 133.306 193.58 133.009L191.11 136.424H193.53ZM195.714 136.424V137.211C195.714 137.284 195.69 137.348 195.642 137.403C195.595 137.455 195.527 137.48 195.439 137.48H194.713V139.422H193.53V137.48H190.175C190.084 137.48 190.003 137.453 189.933 137.398C189.864 137.339 189.82 137.268 189.801 137.183L189.658 136.496L193.426 131.463H194.713V136.424H195.714Z" fill="#266483"/>
<path d="M192.116 163.404V164.422H187.716V163.404H189.328V158.768C189.328 158.585 189.333 158.396 189.344 158.201L188.2 159.158C188.134 159.21 188.068 159.243 188.002 159.257C187.94 159.268 187.879 159.268 187.821 159.257C187.766 159.246 187.716 159.228 187.672 159.202C187.628 159.173 187.595 159.142 187.573 159.109L187.144 158.52L189.57 156.458H190.686V163.404H192.116ZM198.91 160.445C198.91 161.138 198.835 161.742 198.684 162.255C198.538 162.765 198.332 163.186 198.068 163.52C197.808 163.854 197.498 164.103 197.139 164.268C196.783 164.429 196.398 164.51 195.984 164.51C195.569 164.51 195.184 164.429 194.829 164.268C194.477 164.103 194.171 163.854 193.91 163.52C193.65 163.186 193.446 162.765 193.3 162.255C193.153 161.742 193.08 161.138 193.08 160.445C193.08 159.749 193.153 159.146 193.3 158.636C193.446 158.126 193.65 157.705 193.91 157.371C194.171 157.037 194.477 156.79 194.829 156.628C195.184 156.463 195.569 156.381 195.984 156.381C196.398 156.381 196.783 156.463 197.139 156.628C197.498 156.79 197.808 157.037 198.068 157.371C198.332 157.705 198.538 158.126 198.684 158.636C198.835 159.146 198.91 159.749 198.91 160.445ZM197.507 160.445C197.507 159.87 197.465 159.393 197.381 159.015C197.296 158.638 197.183 158.337 197.04 158.113C196.9 157.89 196.739 157.734 196.556 157.646C196.372 157.554 196.182 157.508 195.984 157.508C195.789 157.508 195.601 157.554 195.417 157.646C195.238 157.734 195.078 157.89 194.939 158.113C194.799 158.337 194.688 158.638 194.603 159.015C194.523 159.393 194.482 159.87 194.482 160.445C194.482 161.021 194.523 161.498 194.603 161.875C194.688 162.253 194.799 162.554 194.939 162.777C195.078 163.001 195.238 163.159 195.417 163.25C195.601 163.338 195.789 163.382 195.984 163.382C196.182 163.382 196.372 163.338 196.556 163.25C196.739 163.159 196.9 163.001 197.04 162.777C197.183 162.554 197.296 162.253 197.381 161.875C197.465 161.498 197.507 161.021 197.507 160.445Z" fill="#266483"/>
<path d="M227.847 134.356C228.023 134.32 228.192 134.294 228.353 134.279C228.515 134.261 228.67 134.252 228.821 134.252C229.239 134.252 229.607 134.314 229.926 134.439C230.245 134.564 230.513 134.736 230.729 134.956C230.946 135.176 231.109 135.434 231.219 135.731C231.329 136.025 231.384 136.342 231.384 136.683C231.384 137.105 231.309 137.49 231.158 137.838C231.012 138.186 230.806 138.485 230.542 138.734C230.278 138.98 229.965 139.171 229.602 139.306C229.242 139.442 228.85 139.51 228.425 139.51C228.175 139.51 227.939 139.484 227.715 139.433C227.492 139.382 227.281 139.314 227.083 139.229C226.888 139.141 226.707 139.042 226.538 138.932C226.373 138.819 226.225 138.7 226.093 138.575L226.511 137.997C226.599 137.873 226.714 137.81 226.857 137.81C226.949 137.81 227.042 137.84 227.138 137.898C227.233 137.957 227.341 138.021 227.462 138.091C227.587 138.161 227.732 138.225 227.897 138.283C228.065 138.342 228.267 138.371 228.502 138.371C228.751 138.371 228.971 138.331 229.162 138.25C229.352 138.17 229.51 138.058 229.635 137.915C229.763 137.768 229.858 137.596 229.921 137.398C229.987 137.196 230.02 136.978 230.02 136.743C230.02 136.311 229.893 135.973 229.64 135.731C229.391 135.486 229.021 135.363 228.529 135.363C228.152 135.363 227.765 135.433 227.369 135.572L226.522 135.33L227.182 131.469H231.109V132.046C231.109 132.241 231.048 132.398 230.927 132.519C230.806 132.64 230.601 132.701 230.311 132.701H228.128L227.847 134.356Z" fill="#266483"/>
<path d="M228.116 163.404V164.422H223.716V163.404H225.328V158.768C225.328 158.585 225.333 158.396 225.344 158.201L224.2 159.158C224.134 159.21 224.068 159.243 224.002 159.257C223.94 159.268 223.879 159.268 223.821 159.257C223.766 159.246 223.716 159.228 223.672 159.202C223.628 159.173 223.595 159.142 223.573 159.109L223.144 158.52L225.57 156.458H226.686V163.404H228.116ZM234.497 163.404V164.422H230.097V163.404H231.709V158.768C231.709 158.585 231.714 158.396 231.725 158.201L230.581 159.158C230.515 159.21 230.449 159.243 230.383 159.257C230.321 159.268 230.26 159.268 230.202 159.257C230.147 159.246 230.097 159.228 230.053 159.202C230.009 159.173 229.976 159.142 229.954 159.109L229.525 158.52L231.951 156.458H233.067V163.404H234.497Z" fill="#266483"/>
<path d="M263.485 134.356L263.21 134.697C263.364 134.62 263.529 134.562 263.705 134.521C263.885 134.477 264.077 134.455 264.283 134.455C264.583 134.455 264.875 134.505 265.157 134.604C265.443 134.703 265.694 134.853 265.911 135.055C266.127 135.253 266.301 135.5 266.433 135.797C266.565 136.094 266.631 136.441 266.631 136.837C266.631 137.207 266.563 137.556 266.428 137.882C266.292 138.205 266.101 138.487 265.856 138.729C265.61 138.971 265.313 139.162 264.965 139.301C264.62 139.44 264.239 139.51 263.821 139.51C263.395 139.51 263.014 139.442 262.677 139.306C262.339 139.171 262.052 138.982 261.813 138.74C261.575 138.494 261.392 138.201 261.263 137.86C261.139 137.515 261.076 137.134 261.076 136.716C261.076 136.342 261.151 135.959 261.302 135.566C261.456 135.17 261.692 134.76 262.011 134.334L263.909 131.788C263.975 131.7 264.07 131.625 264.195 131.562C264.323 131.5 264.47 131.469 264.635 131.469H265.845L263.485 134.356ZM263.793 138.399C264.01 138.399 264.208 138.362 264.387 138.289C264.571 138.216 264.726 138.113 264.855 137.981C264.987 137.849 265.089 137.695 265.163 137.519C265.236 137.339 265.273 137.145 265.273 136.936C265.273 136.709 265.238 136.505 265.168 136.325C265.099 136.142 265 135.988 264.871 135.863C264.743 135.735 264.589 135.638 264.409 135.572C264.23 135.506 264.032 135.473 263.815 135.473C263.599 135.473 263.403 135.51 263.227 135.583C263.051 135.656 262.9 135.759 262.776 135.891C262.651 136.019 262.554 136.173 262.484 136.353C262.415 136.529 262.38 136.72 262.38 136.925C262.38 137.145 262.409 137.347 262.468 137.53C262.53 137.71 262.62 137.864 262.737 137.992C262.858 138.12 263.007 138.221 263.183 138.294C263.359 138.364 263.562 138.399 263.793 138.399Z" fill="#266483"/>
<path d="M263.116 163.404V164.422H258.716V163.404H260.328V158.768C260.328 158.585 260.333 158.396 260.344 158.201L259.2 159.158C259.134 159.21 259.068 159.243 259.002 159.257C258.94 159.268 258.879 159.268 258.821 159.257C258.766 159.246 258.716 159.228 258.672 159.202C258.628 159.173 258.595 159.142 258.573 159.109L258.144 158.52L260.57 156.458H261.686V163.404H263.116ZM269.2 163.157C269.347 163.157 269.462 163.199 269.547 163.283C269.635 163.364 269.679 163.472 269.679 163.608V164.422H264.223V163.971C264.223 163.879 264.241 163.784 264.278 163.685C264.318 163.582 264.38 163.491 264.465 163.41L266.879 160.99C267.081 160.785 267.261 160.588 267.418 160.401C267.58 160.214 267.713 160.029 267.82 159.846C267.926 159.663 268.007 159.477 268.062 159.29C268.12 159.1 268.15 158.9 268.15 158.691C268.15 158.5 268.122 158.333 268.067 158.19C268.012 158.044 267.933 157.921 267.831 157.822C267.732 157.723 267.611 157.65 267.468 157.602C267.328 157.551 267.171 157.525 266.995 157.525C266.833 157.525 266.683 157.549 266.544 157.596C266.408 157.64 266.287 157.705 266.181 157.789C266.074 157.87 265.985 157.965 265.911 158.075C265.838 158.185 265.783 158.306 265.746 158.438C265.684 158.607 265.603 158.718 265.504 158.773C265.405 158.828 265.262 158.841 265.075 158.812L264.36 158.685C264.415 158.304 264.522 157.97 264.679 157.684C264.837 157.395 265.033 157.155 265.268 156.964C265.506 156.77 265.777 156.625 266.082 156.529C266.39 156.43 266.72 156.381 267.072 156.381C267.438 156.381 267.774 156.436 268.078 156.546C268.383 156.652 268.643 156.804 268.859 157.002C269.076 157.2 269.244 157.439 269.365 157.717C269.486 157.996 269.547 158.306 269.547 158.647C269.547 158.94 269.503 159.212 269.415 159.461C269.33 159.71 269.215 159.949 269.068 160.176C268.925 160.403 268.757 160.623 268.562 160.836C268.368 161.049 268.164 161.265 267.952 161.485L266.159 163.316C266.331 163.265 266.502 163.227 266.67 163.201C266.843 163.172 267.006 163.157 267.16 163.157H269.2Z" fill="#266483"/>
</svg>
