<svg width="24" height="24" viewBox="0 0 24 24" fill="none" xmlns="http://www.w3.org/2000/svg">
<path d="M18 21.5002C18.8333 21.5002 19.5417 21.2085 20.125 20.6252C20.7083 20.0418 21 19.3335 21 18.5002V15.5002H18V2.5H3V18.5002C3 19.3335 3.29167 20.0418 3.875 20.6252C4.45833 21.2085 5.16667 21.5002 6 21.5002H18ZM6 19.5002C5.71667 19.5002 5.47933 19.4042 5.288 19.2122C5.096 19.0208 5 18.7835 5 18.5002V4.50018H16V15.5002H7V18.5002C7 18.7835 6.904 19.0208 6.712 19.2122C6.52067 19.4042 6.28333 19.5002 6 19.5002ZM15 8.50018V6.50018H9V8.50018H15ZM15 11.5002V9.50018H9V11.5002H15ZM7 8.50018C7.28333 8.50018 7.52067 8.40418 7.712 8.21218C7.904 8.02084 8 7.78351 8 7.50018C8 7.21685 7.904 6.97918 7.712 6.78718C7.52067 6.59585 7.28333 6.50018 7 6.50018C6.71667 6.50018 6.47933 6.59585 6.288 6.78718C6.096 6.97918 6 7.21685 6 7.50018C6 7.78351 6.096 8.02084 6.288 8.21218C6.47933 8.40418 6.71667 8.50018 7 8.50018ZM7 11.5002C7.28333 11.5002 7.52067 11.4042 7.712 11.2122C7.904 11.0208 8 10.7835 8 10.5002C8 10.2168 7.904 9.97918 7.712 9.78718C7.52067 9.59584 7.28333 9.50018 7 9.50018C6.71667 9.50018 6.47933 9.59584 6.288 9.78718C6.096 9.97918 6 10.2168 6 10.5002C6 10.7835 6.096 11.0208 6.288 11.2122C6.47933 11.4042 6.71667 11.5002 7 11.5002Z" fill="#031F2B"/>
</svg>
