<svg width="346" height="300" viewBox="0 0 346 300" fill="none" xmlns="http://www.w3.org/2000/svg">
<rect width="346" height="300" fill="#D0E2FF"/>
<path d="M61.4118 113.851V90.2202C61.4118 85.7559 65.0606 82 69.6237 82H281.093C285.557 82 289.305 85.6571 289.305 90.2202V222.979C289.305 227.444 285.656 231.2 281.093 231.2H69.5249C65.0606 231.2 61.3047 227.542 61.3047 222.979V157.259" fill="#3D84A8"/>
<rect x="73.3047" y="94" width="87" height="22" rx="11" fill="#CF4018"/>
<path d="M86.2982 107.164L88.0773 108.52C88.1648 108.588 88.2523 108.59 88.3398 108.527C88.4273 108.464 88.4516 108.379 88.4128 108.272L87.6982 106.07L89.4628 104.816C89.5503 104.757 89.5794 104.677 89.5503 104.575C89.5211 104.473 89.453 104.422 89.3461 104.422H87.1878L86.5023 102.147C86.4732 102.04 86.4051 101.986 86.2982 101.986C86.1912 101.986 86.1232 102.04 86.094 102.147L85.394 104.422H83.2357C83.1287 104.422 83.0607 104.473 83.0315 104.575C83.0023 104.677 83.0315 104.757 83.119 104.816L84.8836 106.07L84.1836 108.286C84.1447 108.384 84.169 108.464 84.2565 108.527C84.344 108.59 84.4315 108.588 84.519 108.52L86.2982 107.164ZM86.2982 111.276C85.4718 111.276 84.7037 111.128 83.994 110.831C83.2843 110.535 82.6669 110.124 82.1419 109.599C81.6169 109.074 81.2062 108.457 80.9096 107.747C80.6131 107.037 80.4648 106.269 80.4648 105.443C80.4648 104.626 80.6131 103.863 80.9096 103.153C81.2062 102.443 81.6169 101.826 82.1419 101.301C82.6669 100.776 83.2843 100.363 83.994 100.061C84.7037 99.7601 85.4718 99.6094 86.2982 99.6094C87.1148 99.6094 87.878 99.7601 88.5878 100.061C89.2975 100.363 89.9148 100.776 90.4398 101.301C90.9648 101.826 91.378 102.443 91.6794 103.153C91.9808 103.863 92.1315 104.626 92.1315 105.443C92.1315 106.269 91.9808 107.037 91.6794 107.747C91.378 108.457 90.9648 109.074 90.4398 109.599C89.9148 110.124 89.2975 110.535 88.5878 110.831C87.878 111.128 87.1148 111.276 86.2982 111.276Z" fill="white"/>
<path d="M98.6458 108.344H97.3047V101.198H98.6458V108.344Z" fill="white"/>
<path d="M101.527 103.896C101.63 103.794 101.738 103.7 101.85 103.614C101.966 103.526 102.087 103.451 102.213 103.392C102.342 103.329 102.479 103.282 102.625 103.249C102.771 103.213 102.93 103.194 103.102 103.194C103.38 103.194 103.627 103.242 103.842 103.338C104.057 103.43 104.236 103.562 104.379 103.733C104.524 103.901 104.634 104.104 104.706 104.341C104.783 104.575 104.821 104.834 104.821 105.117V108.344H103.594V105.117C103.594 104.807 103.523 104.568 103.38 104.4C103.238 104.229 103.021 104.143 102.729 104.143C102.518 104.143 102.319 104.191 102.133 104.287C101.948 104.382 101.772 104.512 101.607 104.677V108.344H100.38V103.273H101.13C101.289 103.273 101.393 103.348 101.443 103.496L101.527 103.896Z" fill="white"/>
<path d="M107.612 103.817C107.81 103.633 108.029 103.483 108.267 103.367C108.506 103.252 108.786 103.194 109.107 103.194C109.385 103.194 109.632 103.242 109.847 103.338C110.062 103.43 110.241 103.562 110.383 103.733C110.529 103.901 110.638 104.104 110.711 104.341C110.787 104.575 110.826 104.834 110.826 105.117V108.344H109.599V105.117C109.599 104.807 109.527 104.568 109.385 104.4C109.243 104.229 109.026 104.143 108.734 104.143C108.522 104.143 108.324 104.191 108.138 104.287C107.953 104.382 107.777 104.512 107.612 104.677V108.344H106.385V101H107.612V103.817Z" fill="white"/>
<path d="M115.673 105.226C115.673 105.068 115.65 104.919 115.603 104.781C115.56 104.639 115.494 104.516 115.405 104.41C115.315 104.305 115.201 104.222 115.062 104.163C114.926 104.1 114.767 104.069 114.585 104.069C114.231 104.069 113.951 104.17 113.746 104.371C113.544 104.572 113.415 104.857 113.358 105.226H115.673ZM113.333 105.962C113.353 106.222 113.4 106.448 113.473 106.639C113.545 106.827 113.641 106.984 113.761 107.109C113.88 107.231 114.021 107.323 114.183 107.386C114.348 107.445 114.531 107.474 114.729 107.474C114.928 107.474 115.098 107.451 115.241 107.405C115.387 107.359 115.512 107.308 115.618 107.252C115.728 107.196 115.822 107.145 115.902 107.099C115.984 107.053 116.064 107.03 116.14 107.03C116.243 107.03 116.319 107.068 116.368 107.143L116.721 107.588C116.585 107.746 116.433 107.88 116.264 107.988C116.095 108.094 115.918 108.18 115.733 108.245C115.551 108.308 115.363 108.353 115.171 108.379C114.983 108.405 114.799 108.418 114.62 108.418C114.266 108.418 113.936 108.361 113.632 108.245C113.327 108.127 113.062 107.954 112.837 107.727C112.612 107.496 112.434 107.213 112.305 106.876C112.176 106.537 112.112 106.145 112.112 105.7C112.112 105.354 112.168 105.03 112.28 104.727C112.393 104.42 112.554 104.155 112.762 103.931C112.974 103.703 113.231 103.524 113.532 103.392C113.837 103.26 114.18 103.194 114.56 103.194C114.882 103.194 115.178 103.245 115.45 103.348C115.721 103.45 115.955 103.6 116.15 103.797C116.345 103.992 116.498 104.232 116.607 104.519C116.719 104.802 116.776 105.127 116.776 105.493C116.776 105.677 116.756 105.802 116.716 105.868C116.676 105.931 116.6 105.962 116.488 105.962H113.333Z" fill="white"/>
<path d="M119.251 104.153C119.41 103.85 119.599 103.613 119.817 103.442C120.036 103.267 120.294 103.18 120.592 103.18C120.827 103.18 121.016 103.231 121.159 103.333L121.079 104.247C121.063 104.306 121.038 104.349 121.005 104.376C120.975 104.399 120.933 104.41 120.88 104.41C120.831 104.41 120.756 104.402 120.657 104.386C120.561 104.369 120.467 104.361 120.374 104.361C120.238 104.361 120.117 104.381 120.011 104.42C119.905 104.46 119.809 104.517 119.723 104.593C119.64 104.666 119.566 104.755 119.5 104.86C119.437 104.965 119.377 105.086 119.321 105.221V108.344H118.094V103.273H118.814C118.94 103.273 119.028 103.297 119.077 103.343C119.127 103.386 119.16 103.465 119.177 103.58L119.251 104.153Z" fill="white"/>
<path d="M123.469 103.273V108.344H122.237V103.273H123.469ZM123.638 101.796C123.638 101.901 123.616 102 123.573 102.092C123.53 102.185 123.472 102.265 123.399 102.334C123.33 102.404 123.247 102.46 123.151 102.502C123.055 102.542 122.952 102.562 122.843 102.562C122.737 102.562 122.636 102.542 122.54 102.502C122.447 102.46 122.366 102.404 122.297 102.334C122.227 102.265 122.171 102.185 122.128 102.092C122.088 102 122.068 101.901 122.068 101.796C122.068 101.687 122.088 101.585 122.128 101.489C122.171 101.394 122.227 101.311 122.297 101.242C122.366 101.173 122.447 101.119 122.54 101.079C122.636 101.036 122.737 101.015 122.843 101.015C122.952 101.015 123.055 101.036 123.151 101.079C123.247 101.119 123.33 101.173 123.399 101.242C123.472 101.311 123.53 101.394 123.573 101.489C123.616 101.585 123.638 101.687 123.638 101.796Z" fill="white"/>
<path d="M126.816 108.423C126.372 108.423 126.031 108.3 125.793 108.053C125.557 107.802 125.44 107.458 125.44 107.02V104.188H124.918C124.852 104.188 124.796 104.166 124.749 104.124C124.703 104.081 124.68 104.016 124.68 103.931V103.446L125.499 103.313L125.758 101.929C125.774 101.863 125.806 101.812 125.852 101.776C125.898 101.74 125.958 101.722 126.031 101.722H126.667V103.318H128.028V104.188H126.667V106.936C126.667 107.094 126.705 107.217 126.781 107.306C126.86 107.395 126.968 107.44 127.104 107.44C127.18 107.44 127.243 107.432 127.293 107.415C127.346 107.395 127.39 107.376 127.427 107.356C127.466 107.336 127.501 107.318 127.531 107.301C127.561 107.282 127.591 107.272 127.62 107.272C127.657 107.272 127.687 107.282 127.71 107.301C127.733 107.318 127.758 107.344 127.784 107.381L128.152 107.974C127.973 108.122 127.768 108.234 127.536 108.31C127.304 108.386 127.064 108.423 126.816 108.423Z" fill="white"/>
<path d="M131.903 106.18C131.549 106.196 131.251 106.227 131.009 106.273C130.767 106.316 130.573 106.372 130.428 106.442C130.282 106.511 130.178 106.591 130.115 106.684C130.052 106.776 130.02 106.876 130.02 106.985C130.02 107.199 130.083 107.353 130.209 107.445C130.338 107.537 130.505 107.583 130.711 107.583C130.962 107.583 131.179 107.539 131.361 107.45C131.547 107.357 131.727 107.219 131.903 107.035V106.18ZM129.091 103.98C129.678 103.446 130.383 103.18 131.207 103.18C131.505 103.18 131.772 103.229 132.007 103.328C132.242 103.423 132.441 103.558 132.603 103.733C132.765 103.904 132.888 104.11 132.971 104.351C133.057 104.591 133.1 104.855 133.1 105.142V108.344H132.544C132.428 108.344 132.338 108.328 132.275 108.295C132.212 108.259 132.163 108.188 132.126 108.082L132.017 107.717C131.888 107.832 131.762 107.934 131.64 108.023C131.517 108.109 131.39 108.181 131.257 108.241C131.125 108.3 130.982 108.344 130.83 108.374C130.681 108.407 130.515 108.423 130.333 108.423C130.118 108.423 129.919 108.395 129.737 108.339C129.555 108.28 129.398 108.193 129.265 108.077C129.133 107.962 129.03 107.819 128.957 107.647C128.884 107.476 128.848 107.277 128.848 107.049C128.848 106.921 128.87 106.794 128.913 106.669C128.956 106.54 129.025 106.418 129.121 106.303C129.221 106.188 129.348 106.079 129.504 105.977C129.659 105.875 129.85 105.786 130.075 105.71C130.303 105.634 130.568 105.573 130.87 105.527C131.171 105.478 131.515 105.448 131.903 105.438V105.142C131.903 104.802 131.83 104.552 131.684 104.39C131.539 104.226 131.328 104.143 131.053 104.143C130.855 104.143 130.689 104.166 130.557 104.213C130.428 104.259 130.313 104.311 130.214 104.371C130.115 104.427 130.024 104.478 129.941 104.524C129.861 104.57 129.772 104.593 129.673 104.593C129.586 104.593 129.514 104.572 129.454 104.529C129.394 104.483 129.346 104.43 129.31 104.371L129.091 103.98Z" fill="white"/>
<path d="M135.8 103.896C135.903 103.794 136.011 103.7 136.123 103.614C136.239 103.526 136.36 103.451 136.486 103.392C136.615 103.329 136.752 103.282 136.898 103.249C137.044 103.213 137.203 103.194 137.375 103.194C137.653 103.194 137.9 103.242 138.115 103.338C138.33 103.43 138.509 103.562 138.651 103.733C138.797 103.901 138.906 104.104 138.979 104.341C139.055 104.575 139.093 104.834 139.093 105.117V108.344H137.867V105.117C137.867 104.807 137.795 104.568 137.653 104.4C137.511 104.229 137.294 104.143 137.002 104.143C136.79 104.143 136.592 104.191 136.406 104.287C136.221 104.382 136.045 104.512 135.88 104.677V108.344H134.653V103.273H135.403C135.562 103.273 135.666 103.348 135.716 103.496L135.8 103.896Z" fill="white"/>
<path d="M144.309 104.346C144.272 104.392 144.236 104.428 144.199 104.455C144.166 104.481 144.117 104.494 144.05 104.494C143.987 104.494 143.926 104.476 143.866 104.44C143.807 104.4 143.736 104.357 143.653 104.311C143.57 104.262 143.471 104.219 143.355 104.183C143.242 104.143 143.102 104.124 142.933 104.124C142.717 104.124 142.529 104.163 142.366 104.242C142.204 104.318 142.068 104.428 141.959 104.573C141.853 104.718 141.774 104.895 141.721 105.102C141.668 105.306 141.641 105.539 141.641 105.799C141.641 106.069 141.669 106.31 141.726 106.521C141.785 106.731 141.87 106.909 141.979 107.054C142.088 107.196 142.221 107.305 142.376 107.381C142.532 107.453 142.707 107.489 142.903 107.489C143.098 107.489 143.256 107.466 143.375 107.42C143.497 107.371 143.6 107.318 143.683 107.262C143.765 107.203 143.837 107.15 143.896 107.104C143.959 107.054 144.029 107.03 144.105 107.03C144.204 107.03 144.279 107.068 144.328 107.143L144.681 107.588C144.545 107.746 144.398 107.88 144.239 107.988C144.08 108.094 143.915 108.18 143.742 108.245C143.573 108.308 143.398 108.353 143.216 108.379C143.037 108.405 142.858 108.418 142.679 108.418C142.365 108.418 142.068 108.361 141.79 108.245C141.512 108.127 141.269 107.956 141.06 107.731C140.851 107.507 140.686 107.234 140.563 106.911C140.444 106.585 140.384 106.214 140.384 105.799C140.384 105.427 140.437 105.082 140.543 104.766C140.653 104.446 140.812 104.171 141.02 103.941C141.229 103.707 141.487 103.524 141.795 103.392C142.103 103.26 142.457 103.194 142.858 103.194C143.239 103.194 143.572 103.255 143.857 103.377C144.145 103.499 144.403 103.674 144.631 103.901L144.309 104.346Z" fill="white"/>
<path d="M149.044 105.226C149.044 105.068 149.02 104.919 148.974 104.781C148.931 104.639 148.865 104.516 148.775 104.41C148.686 104.305 148.572 104.222 148.433 104.163C148.297 104.1 148.138 104.069 147.956 104.069C147.601 104.069 147.322 104.17 147.116 104.371C146.914 104.572 146.785 104.857 146.729 105.226H149.044ZM146.704 105.962C146.724 106.222 146.77 106.448 146.843 106.639C146.916 106.827 147.012 106.984 147.131 107.109C147.25 107.231 147.391 107.323 147.553 107.386C147.719 107.445 147.901 107.474 148.1 107.474C148.299 107.474 148.469 107.451 148.611 107.405C148.757 107.359 148.883 107.308 148.989 107.252C149.098 107.196 149.193 107.145 149.272 107.099C149.355 107.053 149.434 107.03 149.511 107.03C149.613 107.03 149.689 107.068 149.739 107.143L150.092 107.588C149.956 107.746 149.804 107.88 149.635 107.988C149.466 108.094 149.289 108.18 149.103 108.245C148.921 108.308 148.734 108.353 148.542 108.379C148.353 108.405 148.169 108.418 147.991 108.418C147.636 108.418 147.307 108.361 147.002 108.245C146.697 108.127 146.433 107.954 146.207 107.727C145.982 107.496 145.805 107.213 145.676 106.876C145.547 106.537 145.482 106.145 145.482 105.7C145.482 105.354 145.538 105.03 145.651 104.727C145.764 104.42 145.924 104.155 146.133 103.931C146.345 103.703 146.601 103.524 146.903 103.392C147.207 103.26 147.55 103.194 147.931 103.194C148.252 103.194 148.549 103.245 148.82 103.348C149.092 103.45 149.325 103.6 149.52 103.797C149.716 103.992 149.868 104.232 149.977 104.519C150.09 104.802 150.146 105.127 150.146 105.493C150.146 105.677 150.126 105.802 150.087 105.868C150.047 105.931 149.971 105.962 149.858 105.962H146.704Z" fill="white"/>
<path d="M61.4118 113.851V90.2202C61.4118 85.7559 65.0606 82 69.6237 82H281.093C285.557 82 289.305 85.6571 289.305 90.2202V222.979C289.305 227.444 285.656 231.2 281.093 231.2H69.5249C65.0606 231.2 61.3047 227.542 61.3047 222.979V157.259" stroke="#333333" stroke-linecap="round" stroke-linejoin="round"/>
<path d="M61.4141 149.266V130.602" stroke="#333333" stroke-linecap="round" stroke-linejoin="round"/>
<rect x="73.3047" y="135.375" width="27.3333" height="14" rx="2" fill="#78C7E0"/>
<rect x="109.305" y="135.375" width="27.3333" height="14" rx="2" fill="#78C7E0"/>
<rect x="144.305" y="135.375" width="27.3333" height="14" rx="2" fill="#78C7E0"/>
<rect x="179.305" y="135.375" width="27.3333" height="14" rx="2" fill="#78C7E0"/>
<rect x="214.305" y="135.375" width="27.3333" height="14" rx="2" fill="#78C7E0"/>
<rect x="250.305" y="135.375" width="27.3333" height="14" rx="2" fill="#78C7E0"/>
<path d="M73.3047 162.047C73.3047 160.942 74.2001 160.047 75.3047 160.047H98.638C99.7426 160.047 100.638 160.942 100.638 162.047V172.047C100.638 173.151 99.7426 174.047 98.638 174.047H75.3047C74.2001 174.047 73.3047 173.151 73.3047 172.047V162.047Z" fill="#78C7E0"/>
<path d="M108.637 162.047C108.637 160.942 109.532 160.047 110.637 160.047H133.97C135.075 160.047 135.97 160.942 135.97 162.047V172.047C135.97 173.151 135.075 174.047 133.97 174.047H110.637C109.532 174.047 108.637 173.151 108.637 172.047V162.047Z" fill="#78C7E0"/>
<path d="M143.973 162.047C143.973 160.942 144.868 160.047 145.973 160.047H169.306C170.411 160.047 171.306 160.942 171.306 162.047V172.047C171.306 173.151 170.411 174.047 169.306 174.047H145.973C144.868 174.047 143.973 173.151 143.973 172.047V162.047Z" fill="#78C7E0"/>
<path d="M179.305 162.047C179.305 160.942 180.2 160.047 181.305 160.047H204.638C205.743 160.047 206.638 160.942 206.638 162.047V172.047C206.638 173.151 205.743 174.047 204.638 174.047H181.305C180.2 174.047 179.305 173.151 179.305 172.047V162.047Z" fill="#78C7E0"/>
<path d="M214.637 162.047C214.637 160.942 215.532 160.047 216.637 160.047H239.97C241.075 160.047 241.97 160.942 241.97 162.047V172.047C241.97 173.151 241.075 174.047 239.97 174.047H216.637C215.532 174.047 214.637 173.151 214.637 172.047V162.047Z" fill="#78C7E0"/>
<path d="M249.973 162.047C249.973 160.942 250.868 160.047 251.973 160.047H275.306C276.411 160.047 277.306 160.942 277.306 162.047V172.047C277.306 173.151 276.411 174.047 275.306 174.047H251.973C250.868 174.047 249.973 173.151 249.973 172.047V162.047Z" fill="#78C7E0"/>
<path d="M73.3047 186.711C73.3047 185.606 74.2001 184.711 75.3047 184.711H98.638C99.7426 184.711 100.638 185.606 100.638 186.711V196.711C100.638 197.816 99.7426 198.711 98.638 198.711H75.3047C74.2001 198.711 73.3047 197.816 73.3047 196.711V186.711Z" fill="#78C7E0"/>
<path d="M108.305 186.711C108.305 185.606 109.2 184.711 110.305 184.711H133.638C134.743 184.711 135.638 185.606 135.638 186.711V196.711C135.638 197.816 134.743 198.711 133.638 198.711H110.305C109.2 198.711 108.305 197.816 108.305 196.711V186.711Z" fill="#78C7E0"/>
<path d="M143.973 186.711C143.973 185.606 144.868 184.711 145.973 184.711H169.306C170.411 184.711 171.306 185.606 171.306 186.711V196.711C171.306 197.816 170.411 198.711 169.306 198.711H145.973C144.868 198.711 143.973 197.816 143.973 196.711V186.711Z" fill="#78C7E0"/>
<path d="M179.305 186.711C179.305 185.606 180.2 184.711 181.305 184.711H204.638C205.743 184.711 206.638 185.606 206.638 186.711V196.711C206.638 197.816 205.743 198.711 204.638 198.711H181.305C180.2 198.711 179.305 197.816 179.305 196.711V186.711Z" fill="#78C7E0"/>
<path d="M214.305 186.711C214.305 185.606 215.2 184.711 216.305 184.711H239.638C240.743 184.711 241.638 185.606 241.638 186.711V196.711C241.638 197.816 240.743 198.711 239.638 198.711H216.305C215.2 198.711 214.305 197.816 214.305 196.711V186.711Z" fill="#78C7E0"/>
<path d="M249.973 186.711C249.973 185.606 250.868 184.711 251.973 184.711H275.306C276.411 184.711 277.306 185.606 277.306 186.711V196.711C277.306 197.816 276.411 198.711 275.306 198.711H251.973C250.868 198.711 249.973 197.816 249.973 196.711V186.711Z" fill="#78C7E0"/>
<path d="M73.3047 211.375C73.3047 210.27 74.2001 209.375 75.3047 209.375H98.638C99.7426 209.375 100.638 210.27 100.638 211.375V221.375C100.638 222.48 99.7426 223.375 98.638 223.375H75.3047C74.2001 223.375 73.3047 222.48 73.3047 221.375V211.375Z" fill="#78C7E0"/>
<path d="M108.637 211.375C108.637 210.27 109.532 209.375 110.637 209.375H133.97C135.075 209.375 135.97 210.27 135.97 211.375V221.375C135.97 222.48 135.075 223.375 133.97 223.375H110.637C109.532 223.375 108.637 222.48 108.637 221.375V211.375Z" fill="#78C7E0"/>
<path d="M143.973 211.375C143.973 210.27 144.868 209.375 145.973 209.375H169.306C170.411 209.375 171.306 210.27 171.306 211.375V221.375C171.306 222.48 170.411 223.375 169.306 223.375H145.973C144.868 223.375 143.973 222.48 143.973 221.375V211.375Z" fill="#78C7E0"/>
<path d="M179.305 211.375C179.305 210.27 180.2 209.375 181.305 209.375H204.638C205.743 209.375 206.638 210.27 206.638 211.375V221.375C206.638 222.48 205.743 223.375 204.638 223.375H181.305C180.2 223.375 179.305 222.48 179.305 221.375V211.375Z" fill="#78C7E0"/>
<path d="M214.637 211.375C214.637 210.27 215.532 209.375 216.637 209.375H239.97C241.075 209.375 241.97 210.27 241.97 211.375V221.375C241.97 222.48 241.075 223.375 239.97 223.375H216.637C215.532 223.375 214.637 222.48 214.637 221.375V211.375Z" fill="#78C7E0"/>
<path d="M250.305 211.375C250.305 210.27 251.2 209.375 252.305 209.375H275.638C276.743 209.375 277.638 210.27 277.638 211.375V221.375C277.638 222.48 276.743 223.375 275.638 223.375H252.305C251.2 223.375 250.305 222.48 250.305 221.375V211.375Z" fill="#78C7E0"/>
<path d="M89.3068 144.967V145.984H84.9068V144.967H86.5183V140.33C86.5183 140.147 86.5238 139.958 86.5348 139.764L85.3908 140.721C85.3248 140.772 85.2588 140.805 85.1928 140.82C85.1304 140.831 85.0699 140.831 85.0113 140.82C84.9563 140.809 84.9068 140.791 84.8628 140.765C84.8188 140.736 84.7858 140.704 84.7638 140.671L84.3348 140.083L86.7603 138.02H87.8768V144.967H89.3068Z" fill="#266483"/>
<path d="M77.0287 123.87C76.9967 123.926 76.962 123.967 76.9247 123.994C76.89 124.018 76.846 124.03 76.7927 124.03C76.7367 124.03 76.6754 124.01 76.6087 123.97C76.5447 123.927 76.4674 123.88 76.3767 123.83C76.286 123.779 76.1794 123.734 76.0567 123.694C75.9367 123.651 75.794 123.63 75.6287 123.63C75.4794 123.63 75.3487 123.648 75.2367 123.686C75.1247 123.72 75.03 123.77 74.9527 123.834C74.878 123.898 74.822 123.975 74.7847 124.066C74.7474 124.154 74.7287 124.251 74.7287 124.358C74.7287 124.494 74.766 124.607 74.8407 124.698C74.918 124.788 75.0194 124.866 75.1447 124.93C75.27 124.994 75.4127 125.051 75.5727 125.102C75.7327 125.152 75.8967 125.207 76.0647 125.266C76.2327 125.322 76.3967 125.388 76.5567 125.466C76.7167 125.54 76.8594 125.636 76.9847 125.754C77.11 125.868 77.21 126.01 77.2847 126.178C77.362 126.346 77.4007 126.55 77.4007 126.79C77.4007 127.051 77.3554 127.296 77.2647 127.526C77.1767 127.752 77.046 127.951 76.8727 128.122C76.702 128.29 76.4927 128.423 76.2447 128.522C75.9967 128.618 75.7127 128.666 75.3927 128.666C75.2087 128.666 75.0274 128.647 74.8487 128.61C74.67 128.575 74.498 128.524 74.3327 128.458C74.17 128.391 74.0167 128.311 73.8727 128.218C73.7287 128.124 73.6007 128.02 73.4887 127.906L73.8047 127.39C73.8314 127.352 73.866 127.322 73.9087 127.298C73.9514 127.271 73.9967 127.258 74.0447 127.258C74.1114 127.258 74.1834 127.286 74.2607 127.342C74.338 127.395 74.43 127.455 74.5367 127.522C74.6434 127.588 74.7674 127.65 74.9087 127.706C75.0527 127.759 75.2247 127.786 75.4247 127.786C75.7314 127.786 75.9687 127.714 76.1367 127.57C76.3047 127.423 76.3887 127.214 76.3887 126.942C76.3887 126.79 76.35 126.666 76.2727 126.57C76.198 126.474 76.098 126.394 75.9727 126.33C75.8474 126.263 75.7047 126.207 75.5447 126.162C75.3847 126.116 75.222 126.067 75.0567 126.014C74.8914 125.96 74.7287 125.896 74.5687 125.822C74.4087 125.747 74.266 125.65 74.1407 125.53C74.0154 125.41 73.914 125.26 73.8367 125.082C73.762 124.9 73.7247 124.678 73.7247 124.414C73.7247 124.203 73.766 123.998 73.8487 123.798C73.934 123.598 74.0567 123.42 74.2167 123.266C74.3767 123.111 74.574 122.987 74.8087 122.894C75.0434 122.8 75.3127 122.754 75.6167 122.754C75.958 122.754 76.2727 122.807 76.5607 122.914C76.8487 123.02 77.094 123.17 77.2967 123.362L77.0287 123.87ZM80.8117 126.078C80.8117 125.95 80.793 125.83 80.7557 125.718C80.721 125.603 80.6677 125.503 80.5957 125.418C80.5237 125.332 80.4317 125.266 80.3197 125.218C80.2104 125.167 80.0824 125.142 79.9357 125.142C79.6504 125.142 79.425 125.223 79.2597 125.386C79.097 125.548 78.993 125.779 78.9477 126.078H80.8117ZM78.9277 126.674C78.9437 126.884 78.981 127.067 79.0397 127.222C79.0984 127.374 79.1757 127.5 79.2717 127.602C79.3677 127.7 79.481 127.775 79.6117 127.826C79.745 127.874 79.8917 127.898 80.0517 127.898C80.2117 127.898 80.349 127.879 80.4637 127.842C80.581 127.804 80.6824 127.763 80.7677 127.718C80.8557 127.672 80.9317 127.631 80.9957 127.594C81.0624 127.556 81.1264 127.538 81.1877 127.538C81.2704 127.538 81.3317 127.568 81.3717 127.63L81.6557 127.99C81.5464 128.118 81.4237 128.226 81.2877 128.314C81.1517 128.399 81.009 128.468 80.8597 128.522C80.713 128.572 80.5624 128.608 80.4077 128.63C80.2557 128.651 80.1077 128.662 79.9637 128.662C79.6784 128.662 79.413 128.615 79.1677 128.522C78.9224 128.426 78.709 128.286 78.5277 128.102C78.3464 127.915 78.2037 127.686 78.0997 127.414C77.9957 127.139 77.9437 126.822 77.9437 126.462C77.9437 126.182 77.989 125.919 78.0797 125.674C78.1704 125.426 78.2997 125.211 78.4677 125.03C78.6384 124.846 78.845 124.7 79.0877 124.594C79.333 124.487 79.609 124.434 79.9157 124.434C80.1744 124.434 80.413 124.475 80.6317 124.558C80.8504 124.64 81.0384 124.762 81.1957 124.922C81.353 125.079 81.4757 125.274 81.5637 125.506C81.6544 125.735 81.6997 125.998 81.6997 126.294C81.6997 126.443 81.6837 126.544 81.6517 126.598C81.6197 126.648 81.5584 126.674 81.4677 126.674H78.9277ZM85.0851 126.078C85.0851 125.95 85.0665 125.83 85.0291 125.718C84.9945 125.603 84.9411 125.503 84.8691 125.418C84.7971 125.332 84.7051 125.266 84.5931 125.218C84.4838 125.167 84.3558 125.142 84.2091 125.142C83.9238 125.142 83.6985 125.223 83.5331 125.386C83.3705 125.548 83.2665 125.779 83.2211 126.078H85.0851ZM83.2011 126.674C83.2171 126.884 83.2545 127.067 83.3131 127.222C83.3718 127.374 83.4491 127.5 83.5451 127.602C83.6411 127.7 83.7545 127.775 83.8851 127.826C84.0185 127.874 84.1651 127.898 84.3251 127.898C84.4851 127.898 84.6225 127.879 84.7371 127.842C84.8545 127.804 84.9558 127.763 85.0411 127.718C85.1291 127.672 85.2051 127.631 85.2691 127.594C85.3358 127.556 85.3998 127.538 85.4611 127.538C85.5438 127.538 85.6051 127.568 85.6451 127.63L85.9291 127.99C85.8198 128.118 85.6971 128.226 85.5611 128.314C85.4251 128.399 85.2825 128.468 85.1331 128.522C84.9865 128.572 84.8358 128.608 84.6811 128.63C84.5291 128.651 84.3811 128.662 84.2371 128.662C83.9518 128.662 83.6865 128.615 83.4411 128.522C83.1958 128.426 82.9825 128.286 82.8011 128.102C82.6198 127.915 82.4771 127.686 82.3731 127.414C82.2691 127.139 82.2171 126.822 82.2171 126.462C82.2171 126.182 82.2625 125.919 82.3531 125.674C82.4438 125.426 82.5731 125.211 82.7411 125.03C82.9118 124.846 83.1185 124.7 83.3611 124.594C83.6065 124.487 83.8825 124.434 84.1891 124.434C84.4478 124.434 84.6865 124.475 84.9051 124.558C85.1238 124.64 85.3118 124.762 85.4691 124.922C85.6265 125.079 85.7491 125.274 85.8371 125.506C85.9278 125.735 85.9731 125.998 85.9731 126.294C85.9731 126.443 85.9571 126.544 85.9251 126.598C85.8931 126.648 85.8318 126.674 85.7411 126.674H83.2011ZM89.2906 125.546C89.1786 125.41 89.0559 125.314 88.9226 125.258C88.7919 125.202 88.6506 125.174 88.4986 125.174C88.3492 125.174 88.2146 125.202 88.0946 125.258C87.9746 125.314 87.8719 125.399 87.7866 125.514C87.7012 125.626 87.6359 125.77 87.5906 125.946C87.5452 126.119 87.5226 126.324 87.5226 126.562C87.5226 126.802 87.5412 127.006 87.5786 127.174C87.6186 127.339 87.6746 127.475 87.7466 127.582C87.8186 127.686 87.9066 127.762 88.0106 127.81C88.1146 127.855 88.2306 127.878 88.3586 127.878C88.5639 127.878 88.7386 127.835 88.8826 127.75C89.0266 127.664 89.1626 127.543 89.2906 127.386V125.546ZM90.2786 122.658V128.602H89.6746C89.5439 128.602 89.4612 128.542 89.4266 128.422L89.3426 128.026C89.1772 128.215 88.9866 128.368 88.7706 128.486C88.5572 128.603 88.3079 128.662 88.0226 128.662C87.7986 128.662 87.5932 128.615 87.4066 128.522C87.2199 128.428 87.0586 128.294 86.9226 128.118C86.7892 127.939 86.6852 127.719 86.6106 127.458C86.5386 127.196 86.5026 126.898 86.5026 126.562C86.5026 126.258 86.5439 125.975 86.6266 125.714C86.7092 125.452 86.8279 125.226 86.9826 125.034C87.1372 124.842 87.3226 124.692 87.5386 124.586C87.7546 124.476 87.9972 124.422 88.2666 124.422C88.4959 124.422 88.6919 124.458 88.8546 124.53C89.0172 124.602 89.1626 124.699 89.2906 124.822V122.658H90.2786ZM94.1869 127.538C94.2989 127.674 94.4203 127.77 94.5509 127.826C94.6843 127.882 94.8283 127.91 94.9829 127.91C95.1323 127.91 95.2669 127.882 95.3869 127.826C95.5069 127.77 95.6083 127.684 95.6909 127.57C95.7763 127.455 95.8416 127.311 95.8869 127.138C95.9323 126.962 95.9549 126.755 95.9549 126.518C95.9549 126.278 95.9349 126.075 95.8949 125.91C95.8576 125.742 95.8029 125.606 95.7309 125.502C95.6589 125.398 95.5709 125.322 95.4669 125.274C95.3656 125.226 95.2496 125.202 95.1189 125.202C94.9136 125.202 94.7389 125.246 94.5949 125.334C94.4509 125.419 94.3149 125.54 94.1869 125.698V127.538ZM94.1349 125.058C94.3029 124.868 94.4936 124.715 94.7069 124.598C94.9203 124.48 95.1709 124.422 95.4589 124.422C95.6829 124.422 95.8869 124.468 96.0709 124.562C96.2576 124.655 96.4176 124.791 96.5509 124.97C96.6869 125.146 96.7909 125.364 96.8629 125.626C96.9376 125.884 96.9749 126.182 96.9749 126.518C96.9749 126.824 96.9336 127.108 96.8509 127.37C96.7683 127.631 96.6496 127.858 96.4949 128.05C96.3429 128.242 96.1576 128.392 95.9389 128.502C95.7229 128.608 95.4803 128.662 95.2109 128.662C94.9816 128.662 94.7856 128.627 94.6229 128.558C94.4603 128.486 94.3149 128.387 94.1869 128.262V129.942H93.1989V124.498H93.8029C93.9309 124.498 94.0149 124.558 94.0549 124.678L94.1349 125.058ZM98.7338 124.938C98.8938 124.788 99.0698 124.667 99.2618 124.574C99.4538 124.48 99.6791 124.434 99.9378 124.434C100.162 124.434 100.36 124.472 100.534 124.55C100.707 124.624 100.851 124.731 100.966 124.87C101.083 125.006 101.171 125.17 101.23 125.362C101.291 125.551 101.322 125.76 101.322 125.99V128.602H100.334V125.99C100.334 125.739 100.276 125.546 100.162 125.41C100.047 125.271 99.8725 125.202 99.6378 125.202C99.4671 125.202 99.3071 125.24 99.1578 125.318C99.0085 125.395 98.8671 125.5 98.7338 125.634V128.602H97.7458V122.658H98.7338V124.938ZM103.193 125.21C103.321 124.964 103.473 124.772 103.649 124.634C103.825 124.492 104.033 124.422 104.273 124.422C104.463 124.422 104.615 124.463 104.729 124.546L104.665 125.286C104.652 125.334 104.632 125.368 104.605 125.39C104.581 125.408 104.548 125.418 104.505 125.418C104.465 125.418 104.405 125.411 104.325 125.398C104.248 125.384 104.172 125.378 104.097 125.378C103.988 125.378 103.891 125.394 103.805 125.426C103.72 125.458 103.643 125.504 103.573 125.566C103.507 125.624 103.447 125.696 103.393 125.782C103.343 125.867 103.295 125.964 103.249 126.074V128.602H102.261V124.498H102.841C102.943 124.498 103.013 124.516 103.053 124.554C103.093 124.588 103.12 124.652 103.133 124.746L103.193 125.21ZM107.359 126.85C107.074 126.863 106.834 126.888 106.639 126.926C106.444 126.96 106.288 127.006 106.171 127.062C106.054 127.118 105.97 127.183 105.919 127.258C105.868 127.332 105.843 127.414 105.843 127.502C105.843 127.675 105.894 127.799 105.995 127.874C106.099 127.948 106.234 127.986 106.399 127.986C106.602 127.986 106.776 127.95 106.923 127.878C107.072 127.803 107.218 127.691 107.359 127.542V126.85ZM105.095 125.07C105.567 124.638 106.135 124.422 106.799 124.422C107.039 124.422 107.254 124.462 107.443 124.542C107.632 124.619 107.792 124.728 107.923 124.87C108.054 125.008 108.152 125.175 108.219 125.37C108.288 125.564 108.323 125.778 108.323 126.01V128.602H107.875C107.782 128.602 107.71 128.588 107.659 128.562C107.608 128.532 107.568 128.475 107.539 128.39L107.451 128.094C107.347 128.187 107.246 128.27 107.147 128.342C107.048 128.411 106.946 128.47 106.839 128.518C106.732 128.566 106.618 128.602 106.495 128.626C106.375 128.652 106.242 128.666 106.095 128.666C105.922 128.666 105.762 128.643 105.615 128.598C105.468 128.55 105.342 128.479 105.235 128.386C105.128 128.292 105.046 128.176 104.987 128.038C104.928 127.899 104.899 127.738 104.899 127.554C104.899 127.45 104.916 127.347 104.951 127.246C104.986 127.142 105.042 127.043 105.119 126.95C105.199 126.856 105.302 126.768 105.427 126.686C105.552 126.603 105.706 126.531 105.887 126.47C106.071 126.408 106.284 126.359 106.527 126.322C106.77 126.282 107.047 126.258 107.359 126.25V126.01C107.359 125.735 107.3 125.532 107.183 125.402C107.066 125.268 106.896 125.202 106.675 125.202C106.515 125.202 106.382 125.22 106.275 125.258C106.171 125.295 106.079 125.338 105.999 125.386C105.919 125.431 105.846 125.472 105.779 125.51C105.715 125.547 105.643 125.566 105.563 125.566C105.494 125.566 105.435 125.548 105.387 125.514C105.339 125.476 105.3 125.434 105.271 125.386L105.095 125.07ZM111.758 125.298C111.731 125.34 111.703 125.371 111.674 125.39C111.644 125.406 111.607 125.414 111.562 125.414C111.514 125.414 111.462 125.4 111.406 125.374C111.352 125.347 111.29 125.318 111.218 125.286C111.146 125.251 111.063 125.22 110.97 125.194C110.879 125.167 110.771 125.154 110.646 125.154C110.451 125.154 110.298 125.195 110.186 125.278C110.076 125.36 110.022 125.468 110.022 125.602C110.022 125.69 110.05 125.764 110.106 125.826C110.164 125.884 110.24 125.936 110.334 125.982C110.43 126.027 110.538 126.068 110.658 126.106C110.778 126.14 110.899 126.179 111.022 126.222C111.147 126.264 111.27 126.314 111.39 126.37C111.51 126.423 111.616 126.492 111.71 126.578C111.806 126.66 111.882 126.76 111.938 126.878C111.996 126.995 112.026 127.136 112.026 127.302C112.026 127.499 111.99 127.682 111.918 127.85C111.848 128.015 111.744 128.159 111.606 128.282C111.467 128.402 111.295 128.496 111.09 128.566C110.887 128.632 110.652 128.666 110.386 128.666C110.244 128.666 110.106 128.652 109.97 128.626C109.836 128.602 109.707 128.567 109.582 128.522C109.459 128.476 109.344 128.423 109.238 128.362C109.134 128.3 109.042 128.234 108.962 128.162L109.19 127.786C109.219 127.74 109.254 127.706 109.294 127.682C109.334 127.658 109.384 127.646 109.446 127.646C109.507 127.646 109.564 127.663 109.618 127.698C109.674 127.732 109.738 127.77 109.81 127.81C109.882 127.85 109.966 127.887 110.062 127.922C110.16 127.956 110.284 127.974 110.434 127.974C110.551 127.974 110.651 127.96 110.734 127.934C110.819 127.904 110.888 127.867 110.942 127.822C110.998 127.776 111.038 127.724 111.062 127.666C111.088 127.604 111.102 127.542 111.102 127.478C111.102 127.382 111.072 127.303 111.014 127.242C110.958 127.18 110.882 127.127 110.786 127.082C110.692 127.036 110.584 126.996 110.462 126.962C110.342 126.924 110.218 126.884 110.09 126.842C109.964 126.799 109.84 126.75 109.718 126.694C109.598 126.635 109.49 126.562 109.394 126.474C109.3 126.386 109.224 126.278 109.166 126.15C109.11 126.022 109.082 125.867 109.082 125.686C109.082 125.518 109.115 125.358 109.182 125.206C109.248 125.054 109.346 124.922 109.474 124.81C109.604 124.695 109.766 124.604 109.958 124.538C110.152 124.468 110.376 124.434 110.63 124.434C110.912 124.434 111.17 124.48 111.402 124.574C111.634 124.667 111.827 124.79 111.982 124.942L111.758 125.298ZM115.413 126.078C115.413 125.95 115.395 125.83 115.357 125.718C115.323 125.603 115.269 125.503 115.197 125.418C115.125 125.332 115.033 125.266 114.921 125.218C114.812 125.167 114.684 125.142 114.537 125.142C114.252 125.142 114.027 125.223 113.861 125.386C113.699 125.548 113.595 125.779 113.549 126.078H115.413ZM113.529 126.674C113.545 126.884 113.583 127.067 113.641 127.222C113.7 127.374 113.777 127.5 113.873 127.602C113.969 127.7 114.083 127.775 114.213 127.826C114.347 127.874 114.493 127.898 114.653 127.898C114.813 127.898 114.951 127.879 115.065 127.842C115.183 127.804 115.284 127.763 115.369 127.718C115.457 127.672 115.533 127.631 115.597 127.594C115.664 127.556 115.728 127.538 115.789 127.538C115.872 127.538 115.933 127.568 115.973 127.63L116.257 127.99C116.148 128.118 116.025 128.226 115.889 128.314C115.753 128.399 115.611 128.468 115.461 128.522C115.315 128.572 115.164 128.608 115.009 128.63C114.857 128.651 114.709 128.662 114.565 128.662C114.28 128.662 114.015 128.615 113.769 128.522C113.524 128.426 113.311 128.286 113.129 128.102C112.948 127.915 112.805 127.686 112.701 127.414C112.597 127.139 112.545 126.822 112.545 126.462C112.545 126.182 112.591 125.919 112.681 125.674C112.772 125.426 112.901 125.211 113.069 125.03C113.24 124.846 113.447 124.7 113.689 124.594C113.935 124.487 114.211 124.434 114.517 124.434C114.776 124.434 115.015 124.475 115.233 124.558C115.452 124.64 115.64 124.762 115.797 124.922C115.955 125.079 116.077 125.274 116.165 125.506C116.256 125.735 116.301 125.998 116.301 126.294C116.301 126.443 116.285 126.544 116.253 126.598C116.221 126.648 116.16 126.674 116.069 126.674H113.529Z" fill="white"/>
<path d="M89.6203 163.031V163.62C89.6203 163.796 89.6019 163.939 89.5653 164.049C89.5286 164.155 89.4919 164.245 89.4553 164.318L86.4413 170.522C86.3789 170.651 86.2909 170.761 86.1773 170.852C86.0636 170.94 85.9114 170.984 85.7208 170.984H84.7363L87.8108 164.907C87.8804 164.782 87.9483 164.669 88.0143 164.566C88.0839 164.46 88.1609 164.359 88.2453 164.263H84.4393C84.3549 164.263 84.2816 164.232 84.2193 164.17C84.1569 164.108 84.1258 164.034 84.1258 163.95V163.031H89.6203Z" fill="#266483"/>
<path d="M125.01 144.719C125.156 144.719 125.272 144.762 125.356 144.846C125.444 144.927 125.488 145.035 125.488 145.17V145.984H120.032V145.533C120.032 145.442 120.051 145.346 120.087 145.247C120.128 145.145 120.19 145.053 120.274 144.972L122.689 142.552C122.89 142.347 123.07 142.151 123.228 141.964C123.389 141.777 123.523 141.592 123.629 141.408C123.736 141.225 123.816 141.04 123.871 140.853C123.93 140.662 123.959 140.462 123.959 140.253C123.959 140.063 123.932 139.896 123.877 139.753C123.822 139.606 123.743 139.483 123.64 139.384C123.541 139.285 123.42 139.212 123.277 139.164C123.138 139.113 122.98 139.087 122.804 139.087C122.643 139.087 122.493 139.111 122.353 139.159C122.218 139.203 122.097 139.267 121.99 139.351C121.884 139.432 121.794 139.527 121.721 139.637C121.647 139.747 121.592 139.868 121.556 140C121.493 140.169 121.413 140.281 121.314 140.336C121.215 140.391 121.072 140.404 120.885 140.374L120.17 140.248C120.225 139.867 120.331 139.533 120.489 139.247C120.646 138.957 120.843 138.717 121.077 138.526C121.316 138.332 121.587 138.187 121.891 138.092C122.199 137.993 122.529 137.943 122.881 137.943C123.248 137.943 123.583 137.998 123.888 138.108C124.192 138.215 124.452 138.367 124.669 138.565C124.885 138.763 125.054 139.001 125.175 139.28C125.296 139.559 125.356 139.868 125.356 140.209C125.356 140.503 125.312 140.774 125.224 141.023C125.14 141.273 125.024 141.511 124.878 141.738C124.735 141.966 124.566 142.186 124.372 142.398C124.177 142.611 123.974 142.827 123.761 143.047L121.968 144.879C122.141 144.828 122.311 144.789 122.48 144.763C122.652 144.734 122.815 144.719 122.969 144.719H125.01Z" fill="#266483"/>
<path d="M122.804 170.011C123.028 170.011 123.224 169.98 123.393 169.917C123.561 169.851 123.703 169.762 123.816 169.648C123.934 169.534 124.022 169.399 124.08 169.241C124.139 169.083 124.168 168.913 124.168 168.729C124.168 168.293 124.047 167.963 123.805 167.739C123.563 167.516 123.23 167.404 122.804 167.404C122.379 167.404 122.045 167.516 121.803 167.739C121.561 167.963 121.44 168.293 121.44 168.729C121.44 168.913 121.47 169.083 121.528 169.241C121.587 169.399 121.673 169.534 121.787 169.648C121.904 169.762 122.047 169.851 122.216 169.917C122.384 169.98 122.581 170.011 122.804 170.011ZM122.804 163.966C122.603 163.966 122.428 163.998 122.282 164.06C122.135 164.122 122.012 164.207 121.913 164.313C121.818 164.416 121.746 164.535 121.699 164.67C121.655 164.806 121.633 164.949 121.633 165.099C121.633 165.257 121.651 165.411 121.688 165.561C121.728 165.708 121.794 165.84 121.886 165.957C121.977 166.071 122.098 166.163 122.249 166.232C122.399 166.302 122.584 166.337 122.804 166.337C123.024 166.337 123.209 166.302 123.36 166.232C123.51 166.163 123.631 166.071 123.723 165.957C123.814 165.84 123.879 165.708 123.915 165.561C123.956 165.411 123.976 165.257 123.976 165.099C123.976 164.949 123.952 164.806 123.904 164.67C123.857 164.535 123.785 164.416 123.69 164.313C123.594 164.207 123.473 164.122 123.327 164.06C123.18 163.998 123.006 163.966 122.804 163.966ZM124.146 166.837C124.63 166.995 124.988 167.237 125.219 167.563C125.45 167.886 125.565 168.282 125.565 168.751C125.565 169.103 125.497 169.422 125.362 169.708C125.23 169.994 125.043 170.238 124.801 170.44C124.559 170.642 124.267 170.797 123.926 170.907C123.589 171.017 123.215 171.072 122.804 171.072C122.394 171.072 122.018 171.017 121.677 170.907C121.339 170.797 121.05 170.642 120.808 170.44C120.566 170.238 120.377 169.994 120.241 169.708C120.109 169.422 120.043 169.103 120.043 168.751C120.043 168.282 120.159 167.886 120.39 167.563C120.621 167.237 120.978 166.995 121.462 166.837C121.077 166.676 120.788 166.447 120.593 166.15C120.403 165.853 120.307 165.495 120.307 165.077C120.307 164.777 120.368 164.496 120.489 164.236C120.613 163.976 120.786 163.75 121.006 163.559C121.226 163.365 121.488 163.215 121.792 163.108C122.1 162.998 122.438 162.943 122.804 162.943C123.171 162.943 123.506 162.998 123.811 163.108C124.119 163.215 124.383 163.365 124.603 163.559C124.823 163.75 124.993 163.976 125.114 164.236C125.239 164.496 125.301 164.777 125.301 165.077C125.301 165.495 125.204 165.853 125.01 166.15C124.819 166.447 124.531 166.676 124.146 166.837Z" fill="#266483"/>
<path d="M155.208 140.248C155.263 139.867 155.37 139.533 155.527 139.247C155.685 138.957 155.881 138.717 156.116 138.526C156.354 138.332 156.625 138.187 156.93 138.092C157.238 137.993 157.568 137.943 157.92 137.943C158.286 137.943 158.616 137.997 158.91 138.103C159.207 138.206 159.46 138.35 159.669 138.537C159.878 138.721 160.037 138.937 160.147 139.186C160.261 139.436 160.318 139.705 160.318 139.995C160.318 140.248 160.288 140.472 160.23 140.666C160.175 140.857 160.094 141.023 159.988 141.166C159.881 141.309 159.749 141.43 159.592 141.529C159.434 141.628 159.256 141.711 159.058 141.777C159.535 141.927 159.891 142.156 160.125 142.464C160.36 142.772 160.477 143.159 160.477 143.625C160.477 144.021 160.404 144.371 160.257 144.675C160.111 144.98 159.913 145.236 159.663 145.445C159.414 145.651 159.124 145.807 158.794 145.913C158.468 146.019 158.121 146.072 157.755 146.072C157.355 146.072 157.007 146.027 156.71 145.935C156.413 145.843 156.154 145.708 155.934 145.528C155.714 145.348 155.527 145.128 155.373 144.868C155.219 144.608 155.087 144.307 154.977 143.966L155.577 143.718C155.734 143.652 155.881 143.636 156.017 143.669C156.156 143.698 156.257 143.772 156.319 143.889C156.385 144.017 156.457 144.144 156.534 144.268C156.614 144.393 156.71 144.505 156.82 144.604C156.93 144.699 157.058 144.778 157.205 144.84C157.355 144.899 157.533 144.928 157.738 144.928C157.969 144.928 158.171 144.892 158.343 144.818C158.516 144.741 158.659 144.642 158.772 144.521C158.89 144.4 158.976 144.267 159.031 144.12C159.089 143.97 159.119 143.819 159.119 143.669C159.119 143.478 159.099 143.306 159.058 143.152C159.018 142.994 158.934 142.86 158.805 142.75C158.677 142.64 158.492 142.554 158.25 142.492C158.011 142.43 157.691 142.398 157.287 142.398V141.43C157.621 141.427 157.898 141.396 158.118 141.337C158.338 141.278 158.512 141.198 158.64 141.095C158.772 140.989 158.864 140.862 158.915 140.715C158.967 140.569 158.992 140.407 158.992 140.231C158.992 139.857 158.888 139.573 158.679 139.379C158.47 139.185 158.191 139.087 157.843 139.087C157.681 139.087 157.533 139.111 157.397 139.159C157.262 139.203 157.139 139.267 157.029 139.351C156.922 139.432 156.833 139.527 156.759 139.637C156.686 139.747 156.631 139.868 156.594 140C156.532 140.169 156.449 140.281 156.347 140.336C156.248 140.391 156.107 140.404 155.923 140.374L155.208 140.248Z" fill="#266483"/>
<path d="M156.429 165.418C156.429 165.862 156.543 166.201 156.77 166.436C157.001 166.667 157.328 166.782 157.749 166.782C157.969 166.782 158.165 166.748 158.338 166.678C158.51 166.608 158.655 166.513 158.772 166.392C158.89 166.271 158.978 166.128 159.036 165.963C159.099 165.798 159.13 165.62 159.13 165.429C159.13 165.213 159.097 165.021 159.031 164.852C158.965 164.68 158.871 164.535 158.75 164.417C158.629 164.3 158.484 164.21 158.316 164.148C158.151 164.086 157.969 164.054 157.771 164.054C157.566 164.054 157.381 164.089 157.216 164.159C157.051 164.225 156.91 164.318 156.792 164.439C156.675 164.56 156.585 164.705 156.523 164.874C156.46 165.039 156.429 165.22 156.429 165.418ZM158.233 167.899C158.296 167.822 158.354 167.747 158.409 167.673C158.464 167.6 158.517 167.527 158.569 167.453C158.385 167.571 158.184 167.661 157.964 167.723C157.744 167.782 157.513 167.811 157.271 167.811C156.996 167.811 156.726 167.763 156.462 167.668C156.198 167.573 155.964 167.43 155.758 167.239C155.553 167.045 155.386 166.806 155.258 166.524C155.133 166.238 155.071 165.904 155.071 165.523C155.071 165.167 155.137 164.834 155.269 164.522C155.401 164.21 155.586 163.937 155.824 163.702C156.063 163.468 156.349 163.283 156.682 163.147C157.016 163.011 157.384 162.943 157.788 162.943C158.195 162.943 158.56 163.008 158.882 163.136C159.209 163.264 159.485 163.444 159.713 163.675C159.944 163.906 160.12 164.183 160.241 164.505C160.365 164.828 160.428 165.182 160.428 165.567C160.428 165.813 160.406 166.045 160.362 166.265C160.321 166.485 160.263 166.698 160.186 166.903C160.109 167.105 160.015 167.303 159.905 167.497C159.795 167.692 159.672 167.884 159.537 168.075L157.716 170.671C157.654 170.759 157.56 170.834 157.436 170.896C157.311 170.955 157.17 170.984 157.012 170.984H155.764L158.233 167.899Z" fill="#266483"/>
<path d="M193.53 142.987V140.385C193.53 140.14 193.547 139.868 193.58 139.571L191.11 142.987H193.53ZM195.714 142.987V143.773C195.714 143.847 195.69 143.911 195.642 143.966C195.595 144.017 195.527 144.043 195.439 144.043H194.713V145.984H193.53V144.043H190.175C190.084 144.043 190.003 144.015 189.933 143.96C189.864 143.902 189.82 143.83 189.801 143.746L189.658 143.058L193.426 138.026H194.713V142.987H195.714Z" fill="#266483"/>
<path d="M192.116 169.967V170.984H187.716V169.967H189.328V165.33C189.328 165.147 189.333 164.958 189.344 164.764L188.2 165.721C188.134 165.772 188.068 165.805 188.002 165.82C187.94 165.831 187.879 165.831 187.821 165.82C187.766 165.809 187.716 165.791 187.672 165.765C187.628 165.736 187.595 165.704 187.573 165.671L187.144 165.083L189.57 163.02H190.686V169.967H192.116ZM198.91 167.008C198.91 167.701 198.835 168.304 198.684 168.817C198.538 169.327 198.332 169.749 198.068 170.082C197.808 170.416 197.498 170.665 197.139 170.83C196.783 170.992 196.398 171.072 195.984 171.072C195.569 171.072 195.184 170.992 194.829 170.83C194.477 170.665 194.171 170.416 193.91 170.082C193.65 169.749 193.446 169.327 193.3 168.817C193.153 168.304 193.08 167.701 193.08 167.008C193.08 166.311 193.153 165.708 193.3 165.198C193.446 164.689 193.65 164.267 193.91 163.933C194.171 163.6 194.477 163.352 194.829 163.191C195.184 163.026 195.569 162.943 195.984 162.943C196.398 162.943 196.783 163.026 197.139 163.191C197.498 163.352 197.808 163.6 198.068 163.933C198.332 164.267 198.538 164.689 198.684 165.198C198.835 165.708 198.91 166.311 198.91 167.008ZM197.507 167.008C197.507 166.432 197.465 165.956 197.381 165.578C197.296 165.2 197.183 164.9 197.04 164.676C196.9 164.452 196.739 164.296 196.556 164.208C196.372 164.117 196.182 164.071 195.984 164.071C195.789 164.071 195.601 164.117 195.417 164.208C195.238 164.296 195.078 164.452 194.939 164.676C194.799 164.9 194.688 165.2 194.603 165.578C194.523 165.956 194.482 166.432 194.482 167.008C194.482 167.584 194.523 168.06 194.603 168.438C194.688 168.816 194.799 169.116 194.939 169.34C195.078 169.564 195.238 169.721 195.417 169.813C195.601 169.901 195.789 169.945 195.984 169.945C196.182 169.945 196.372 169.901 196.556 169.813C196.739 169.721 196.9 169.564 197.04 169.34C197.183 169.116 197.296 168.816 197.381 168.438C197.465 168.06 197.507 167.584 197.507 167.008Z" fill="#266483"/>
<path d="M227.847 140.919C228.023 140.882 228.192 140.857 228.353 140.842C228.515 140.824 228.67 140.814 228.821 140.814C229.239 140.814 229.607 140.877 229.926 141.001C230.245 141.126 230.513 141.298 230.729 141.518C230.946 141.738 231.109 141.997 231.219 142.294C231.329 142.587 231.384 142.904 231.384 143.245C231.384 143.667 231.309 144.052 231.158 144.4C231.012 144.749 230.806 145.048 230.542 145.297C230.278 145.543 229.965 145.733 229.602 145.869C229.242 146.005 228.85 146.072 228.425 146.072C228.175 146.072 227.939 146.047 227.715 145.995C227.492 145.944 227.281 145.876 227.083 145.792C226.888 145.704 226.707 145.605 226.538 145.495C226.373 145.381 226.225 145.262 226.093 145.137L226.511 144.56C226.599 144.435 226.714 144.373 226.857 144.373C226.949 144.373 227.042 144.402 227.138 144.461C227.233 144.52 227.341 144.584 227.462 144.653C227.587 144.723 227.732 144.787 227.897 144.846C228.065 144.905 228.267 144.934 228.502 144.934C228.751 144.934 228.971 144.894 229.162 144.813C229.352 144.732 229.51 144.62 229.635 144.477C229.763 144.331 229.858 144.158 229.921 143.96C229.987 143.759 230.02 143.541 230.02 143.306C230.02 142.873 229.893 142.536 229.64 142.294C229.391 142.048 229.021 141.925 228.529 141.925C228.152 141.925 227.765 141.995 227.369 142.134L226.522 141.892L227.182 138.031H231.109V138.609C231.109 138.803 231.048 138.961 230.927 139.082C230.806 139.203 230.601 139.263 230.311 139.263H228.128L227.847 140.919Z" fill="#266483"/>
<path d="M228.116 169.967V170.984H223.716V169.967H225.328V165.33C225.328 165.147 225.333 164.958 225.344 164.764L224.2 165.721C224.134 165.772 224.068 165.805 224.002 165.82C223.94 165.831 223.879 165.831 223.821 165.82C223.766 165.809 223.716 165.791 223.672 165.765C223.628 165.736 223.595 165.704 223.573 165.671L223.144 165.083L225.57 163.02H226.686V169.967H228.116ZM234.497 169.967V170.984H230.097V169.967H231.709V165.33C231.709 165.147 231.714 164.958 231.725 164.764L230.581 165.721C230.515 165.772 230.449 165.805 230.383 165.82C230.321 165.831 230.26 165.831 230.202 165.82C230.147 165.809 230.097 165.791 230.053 165.765C230.009 165.736 229.976 165.704 229.954 165.671L229.525 165.083L231.951 163.02H233.067V169.967H234.497Z" fill="#266483"/>
<path d="M263.485 140.919L263.21 141.26C263.364 141.183 263.529 141.124 263.705 141.084C263.885 141.04 264.077 141.018 264.283 141.018C264.583 141.018 264.875 141.067 265.157 141.166C265.443 141.265 265.694 141.416 265.911 141.617C266.127 141.815 266.301 142.063 266.433 142.36C266.565 142.657 266.631 143.003 266.631 143.399C266.631 143.77 266.563 144.118 266.428 144.444C266.292 144.767 266.101 145.049 265.856 145.291C265.61 145.533 265.313 145.724 264.965 145.863C264.62 146.003 264.239 146.072 263.821 146.072C263.395 146.072 263.014 146.005 262.677 145.869C262.339 145.733 262.052 145.544 261.813 145.302C261.575 145.057 261.392 144.763 261.263 144.422C261.139 144.078 261.076 143.696 261.076 143.278C261.076 142.904 261.151 142.521 261.302 142.129C261.456 141.733 261.692 141.322 262.011 140.897L263.909 138.35C263.975 138.262 264.07 138.187 264.195 138.125C264.323 138.063 264.47 138.031 264.635 138.031H265.845L263.485 140.919ZM263.793 144.961C264.01 144.961 264.208 144.925 264.387 144.851C264.571 144.778 264.726 144.675 264.855 144.543C264.987 144.411 265.089 144.257 265.163 144.081C265.236 143.902 265.273 143.707 265.273 143.498C265.273 143.271 265.238 143.068 265.168 142.888C265.099 142.705 265 142.551 264.871 142.426C264.743 142.298 264.589 142.2 264.409 142.134C264.23 142.068 264.032 142.035 263.815 142.035C263.599 142.035 263.403 142.072 263.227 142.145C263.051 142.219 262.9 142.321 262.776 142.453C262.651 142.582 262.554 142.736 262.484 142.915C262.415 143.091 262.38 143.282 262.38 143.487C262.38 143.707 262.409 143.909 262.468 144.092C262.53 144.272 262.62 144.426 262.737 144.554C262.858 144.683 263.007 144.784 263.183 144.857C263.359 144.927 263.562 144.961 263.793 144.961Z" fill="#266483"/>
<path d="M263.116 169.967V170.984H258.716V169.967H260.328V165.33C260.328 165.147 260.333 164.958 260.344 164.764L259.2 165.721C259.134 165.772 259.068 165.805 259.002 165.82C258.94 165.831 258.879 165.831 258.821 165.82C258.766 165.809 258.716 165.791 258.672 165.765C258.628 165.736 258.595 165.704 258.573 165.671L258.144 165.083L260.57 163.02H261.686V169.967H263.116ZM269.2 169.719C269.347 169.719 269.462 169.762 269.547 169.846C269.635 169.927 269.679 170.035 269.679 170.17V170.984H264.223V170.533C264.223 170.442 264.241 170.346 264.278 170.247C264.318 170.145 264.38 170.053 264.465 169.972L266.879 167.552C267.081 167.347 267.261 167.151 267.418 166.964C267.58 166.777 267.713 166.592 267.82 166.408C267.926 166.225 268.007 166.04 268.062 165.853C268.12 165.662 268.15 165.462 268.15 165.253C268.15 165.063 268.122 164.896 268.067 164.753C268.012 164.606 267.933 164.483 267.831 164.384C267.732 164.285 267.611 164.212 267.468 164.164C267.328 164.113 267.171 164.087 266.995 164.087C266.833 164.087 266.683 164.111 266.544 164.159C266.408 164.203 266.287 164.267 266.181 164.351C266.074 164.432 265.985 164.527 265.911 164.637C265.838 164.747 265.783 164.868 265.746 165C265.684 165.169 265.603 165.281 265.504 165.336C265.405 165.391 265.262 165.404 265.075 165.374L264.36 165.248C264.415 164.867 264.522 164.533 264.679 164.247C264.837 163.957 265.033 163.717 265.268 163.526C265.506 163.332 265.777 163.187 266.082 163.092C266.39 162.993 266.72 162.943 267.072 162.943C267.438 162.943 267.774 162.998 268.078 163.108C268.383 163.215 268.643 163.367 268.859 163.565C269.076 163.763 269.244 164.001 269.365 164.28C269.486 164.559 269.547 164.868 269.547 165.209C269.547 165.503 269.503 165.774 269.415 166.023C269.33 166.273 269.215 166.511 269.068 166.738C268.925 166.966 268.757 167.186 268.562 167.398C268.368 167.611 268.164 167.827 267.952 168.047L266.159 169.879C266.331 169.828 266.502 169.789 266.67 169.763C266.843 169.734 267.006 169.719 267.16 169.719H269.2Z" fill="#266483"/>
<path d="M285.814 69.5269C294.868 72.9631 301.305 81.7449 301.305 92C301.305 105.255 290.56 116 277.305 116C264.049 116 253.305 105.255 253.305 92C253.305 78.7446 264.049 68 277.305 68" fill="#F8BDC0"/>
<path d="M285.814 69.5269C294.868 72.9631 301.305 81.7449 301.305 92C301.305 105.255 290.56 116 277.305 116C264.049 116 253.305 105.255 253.305 92C253.305 78.7446 264.049 68 277.305 68" fill="#ABEDD8"/>
<path d="M285.814 69.5269C294.868 72.9631 301.305 81.7449 301.305 92C301.305 105.255 290.56 116 277.305 116C264.049 116 253.305 105.255 253.305 92C253.305 78.7446 264.049 68 277.305 68" stroke="#333333" stroke-linecap="round" stroke-linejoin="round"/>
<path fill-rule="evenodd" clip-rule="evenodd" d="M286.764 84.9431C286.95 85.1272 286.95 85.4254 286.763 85.6091L274.297 97.8672C274.207 97.9556 274.085 98.0051 273.958 98.0047C273.831 98.0043 273.71 97.9541 273.62 97.8651L267.841 92.1104C267.656 91.9256 267.657 91.6274 267.845 91.4444C268.032 91.2614 268.335 91.2629 268.52 91.4477L273.962 96.8666L286.088 84.9422C286.275 84.7585 286.577 84.7589 286.764 84.9431Z" fill="#333333" stroke="#333333" stroke-width="0.5" stroke-linecap="round" stroke-linejoin="round"/>
</svg>
