<svg width="25" height="24" viewBox="0 0 25 24" fill="none" xmlns="http://www.w3.org/2000/svg">
<g clip-path="url(#clip0_71406_21192)">
<path d="M18.3516 8H16.3516C15.8016 8 15.3516 8.45 15.3516 9C15.3516 9.55 15.8016 10 16.3516 10H18.3516V21H6.35156V10H8.35156C8.90156 10 9.35156 9.55 9.35156 9C9.35156 8.45 8.90156 8 8.35156 8H6.35156C5.25156 8 4.35156 8.9 4.35156 10V21C4.35156 22.1 5.25156 23 6.35156 23H18.3516C19.4516 23 20.3516 22.1 20.3516 21V10C20.3516 8.9 19.4516 8 18.3516 8Z" fill="#031F2B"/>
<path d="M12.3516 16C12.9016 16 13.3516 15.55 13.3516 15V5H15.1416C15.5916 5 15.8116 4.46 15.4916 4.15L12.7016 1.36C12.5016 1.16 12.1916 1.16 11.9916 1.36L9.20156 4.15C8.89156 4.46 9.11156 5 9.56156 5H11.3516V15C11.3516 15.55 11.8016 16 12.3516 16Z" fill="#031F2B"/>
</g>
<defs>
<clipPath id="clip0_71406_21192">
<rect width="24" height="24" fill="white" transform="translate(0.351562)"/>
</clipPath>
</defs>
</svg>
