<svg width="346" height="300" viewBox="0 0 346 300" fill="none" xmlns="http://www.w3.org/2000/svg">
<rect width="346" height="300" fill="#D0E2FF"/>
<path d="M175.5 155L175.5 175" stroke="#333333" stroke-width="0.6" stroke-linecap="round" stroke-linejoin="round"/>
<path d="M207.403 236.537H113.672L140.643 171.656H234.379L207.403 236.537Z" fill="#ABEDD8"/>
<path d="M215.403 217.344L207.403 236.537H186.637" stroke="#333333" stroke-width="0.6" stroke-linecap="round" stroke-linejoin="round"/>
<path d="M182.882 236.539H178.375" stroke="#333333" stroke-width="0.6" stroke-linecap="round" stroke-linejoin="round"/>
<path d="M178.372 236.539H134.438" stroke="#333333" stroke-width="0.6" stroke-linecap="round" stroke-linejoin="round"/>
<path d="M134.438 236.537H113.672L121.626 217.344" stroke="#333333" stroke-width="0.6" stroke-linecap="round" stroke-linejoin="round"/>
<path d="M126.656 205.325L132.644 190.852" stroke="#333333" stroke-width="0.6" stroke-linecap="round" stroke-linejoin="round"/>
<path d="M132.641 190.849L140.641 171.656H161.407" stroke="#333333" stroke-width="0.6" stroke-linecap="round" stroke-linejoin="round"/>
<path d="M165.172 171.656H169.674" stroke="#333333" stroke-width="0.6" stroke-linecap="round" stroke-linejoin="round"/>
<path d="M169.672 171.656H213.611" stroke="#333333" stroke-width="0.6" stroke-linecap="round" stroke-linejoin="round"/>
<path d="M213.613 171.656H234.38L226.421 190.849" stroke="#333333" stroke-width="0.6" stroke-linecap="round" stroke-linejoin="round"/>
<path d="M221.394 202.875L215.402 217.344" stroke="#333333" stroke-width="0.6" stroke-linecap="round" stroke-linejoin="round"/>
<path d="M175.05 207.468C178.266 207.468 180.866 204.863 180.866 201.652C180.866 198.441 178.266 195.836 175.05 195.836C171.843 195.836 169.238 198.441 169.238 201.652C169.238 204.863 171.843 207.468 175.05 207.468Z" fill="#46CDCF" stroke="#333333" stroke-width="0.6" stroke-linecap="round" stroke-linejoin="round"/>
<path d="M82.5 240.076H209.458V231.641H90.9352C86.2572 231.641 82.5 235.444 82.5 240.076Z" fill="#ABEDD8" stroke="#333333" stroke-width="0.6" stroke-linecap="round" stroke-linejoin="round"/>
<path d="M82.5 138.756V160H262.5V60H82.5V98.7336V138.756Z" fill="#ABEDD8" stroke="#333333" stroke-width="0.6" stroke-linecap="round" stroke-linejoin="round"/>
<rect x="124.943" y="135.458" width="47.712" height="95.712" rx="3.696" transform="rotate(-90 124.943 135.458)" fill="#3D84A8" stroke="#333333" stroke-width="0.288"/>
<path d="M129.599 117.359V105.839" stroke="#333333" stroke-width="0.288" stroke-linecap="round" stroke-linejoin="round"/>
<rect x="134.543" y="126.817" width="30.432" height="42.912" rx="1.776" transform="rotate(-90 134.543 126.817)" fill="#78C7E0" stroke="#333333" stroke-width="0.288"/>
<rect x="186.383" y="123.934" width="24.672" height="13.152" rx="1.776" transform="rotate(-90 186.383 123.934)" fill="#78C7E0" stroke="#333333" stroke-width="0.288"/>
<path d="M204.947 121.862V120.622H209.084C209.467 120.622 209.799 120.708 210.081 120.88C210.363 121.05 210.58 121.287 210.733 121.59C210.885 121.893 210.962 122.246 210.962 122.647C210.962 123.005 210.899 123.329 210.773 123.621C210.646 123.911 210.453 124.14 210.194 124.31C209.933 124.48 209.606 124.564 209.212 124.562V123.314C209.368 123.31 209.502 123.278 209.615 123.218C209.725 123.156 209.81 123.072 209.869 122.966C209.927 122.858 209.956 122.731 209.956 122.584C209.956 122.429 209.924 122.299 209.858 122.193C209.79 122.084 209.692 122.002 209.562 121.946C209.433 121.89 209.274 121.862 209.084 121.862H204.947Z" fill="white"/>
<path d="M210.881 116.931V118.275L204.947 116.227V114.61L210.881 112.565V113.909L206.303 115.395V115.442L210.881 116.931ZM208.548 117.015V113.84H209.528V117.015H208.548Z" fill="white"/>
<path d="M210.881 108.116V110.219H204.947V108.099C204.947 107.502 205.066 106.988 205.304 106.557C205.539 106.127 205.878 105.795 206.32 105.564C206.763 105.33 207.292 105.213 207.908 105.213C208.526 105.213 209.057 105.33 209.502 105.564C209.946 105.795 210.287 106.128 210.524 106.563C210.762 106.996 210.881 107.513 210.881 108.116ZM209.806 108.965V108.168C209.806 107.797 209.74 107.485 209.609 107.232C209.475 106.977 209.27 106.786 208.992 106.659C208.712 106.529 208.35 106.465 207.908 106.465C207.47 106.465 207.111 106.529 206.833 106.659C206.555 106.786 206.35 106.976 206.219 107.229C206.088 107.482 206.022 107.794 206.022 108.165V108.965H209.806Z" fill="white"/>
<path d="M210.881 102.652H204.947V98.6541H205.982V101.398H207.395V98.8598H208.43V101.398H209.846V98.6425H210.881V102.652Z" fill="white"/>
<rect x="137.903" y="123.458" width="23.712" height="23.712" rx="1.776" transform="rotate(-90 137.903 123.458)" fill="#46CDCF" stroke="#333333" stroke-width="0.288"/>
<g clip-path="url(#clip0_87615_539861)">
<path d="M143.039 104.876H148.079V109.916H143.039V104.876ZM156.479 104.876V109.916H151.439V104.876H156.479ZM151.439 114.116H153.119V112.436H151.439V110.756H153.119V112.436H154.799V110.756H156.479V112.436H154.799V114.116H156.479V116.636H154.799V118.316H153.119V116.636H150.599V118.316H148.919V114.956H151.439V114.116ZM153.119 114.116V116.636H154.799V114.116H153.119ZM143.039 118.316V113.276H148.079V118.316H143.039ZM144.719 106.556V108.236H146.399V106.556H144.719ZM153.119 106.556V108.236H154.799V106.556H153.119ZM144.719 114.956V116.636H146.399V114.956H144.719ZM143.039 110.756H144.719V112.436H143.039V110.756ZM147.239 110.756H150.599V114.116H148.919V112.436H147.239V110.756ZM148.919 106.556H150.599V109.916H148.919V106.556ZM141.359 103.196V106.556H139.679V103.196C139.679 102.75 139.856 102.323 140.171 102.008C140.486 101.693 140.913 101.516 141.359 101.516H144.719V103.196H141.359ZM158.159 101.516C158.604 101.516 159.032 101.693 159.347 102.008C159.662 102.323 159.839 102.75 159.839 103.196V106.556H158.159V103.196H154.799V101.516H158.159ZM141.359 116.636V119.996H144.719V121.676H141.359C140.913 121.676 140.486 121.499 140.171 121.184C139.856 120.869 139.679 120.441 139.679 119.996V116.636H141.359ZM158.159 119.996V116.636H159.839V119.996C159.839 120.441 159.662 120.869 159.347 121.184C159.032 121.499 158.604 121.676 158.159 121.676H154.799V119.996H158.159Z" fill="#48466D"/>
</g>
<defs>
<clipPath id="clip0_87615_539861">
<rect width="20.16" height="20.16" fill="white" transform="translate(139.679 101.516)"/>
</clipPath>
</defs>
</svg>
