<svg width="25" height="24" viewBox="0 0 25 24" fill="none" xmlns="http://www.w3.org/2000/svg">
<g clip-path="url(#clip0_32059_190433)">
<path fill-rule="evenodd" clip-rule="evenodd" d="M6.42473 11.9497C6.32481 11.7746 6.14973 11.6747 5.97483 11.6747H4.39982L4.42476 11.4747C4.69976 7.27485 8.17468 3.99984 12.3496 3.99984C14.2245 3.99984 16.0245 4.64978 17.4495 5.84984C17.5494 5.92482 17.6995 5.92482 17.7745 5.84984L18.8245 4.69978C18.8745 4.64973 18.8995 4.57474 18.8995 4.52469C18.8995 4.44971 18.8745 4.39966 18.8245 4.37472C17.0247 2.84994 14.7248 2 12.3496 2C7.02476 2 2.64985 6.17491 2.39986 11.5248V11.6999H1.02484C0.824824 11.6999 0.674859 11.7998 0.574941 11.9749C0.47502 12.15 0.47502 12.3498 0.574941 12.5L3.04993 16.5498C3.14985 16.6998 3.32494 16.7999 3.49983 16.7999C3.67491 16.7999 3.84982 16.7 3.94973 16.5498L6.42459 12.4998C6.52469 12.3249 6.52469 12.1249 6.42459 11.9498L6.42473 11.9497ZM24.1741 11.5003L21.6991 7.45042C21.5992 7.30045 21.4241 7.20035 21.2492 7.20035C21.0742 7.20035 20.8993 7.30027 20.7993 7.45042L18.3244 11.5003C18.2244 11.6754 18.2244 11.8503 18.3244 12.0254C18.4243 12.2005 18.5994 12.3004 18.7743 12.3004H20.3493L20.3242 12.5002C20.0492 16.7 16.5742 19.975 12.3993 19.975C10.5244 19.975 8.72441 19.3251 7.29944 18.125C7.24939 18.075 7.19952 18.075 7.14947 18.075C7.09942 18.075 7.02444 18.0999 6.97439 18.15L5.92441 19.3C5.87436 19.3501 5.84943 19.4251 5.84943 19.4751C5.84943 19.5501 5.87436 19.6002 5.92441 19.6251C7.72437 21.1501 10.0243 22 12.3993 22C17.7242 22 22.0991 17.8251 22.3491 12.4752V12.3001H23.7241C23.9241 12.3001 24.0741 12.2002 24.174 12.0251C24.2741 11.8752 24.2741 11.6752 24.1741 11.5003ZM11.9744 6.44496H12.7994H12.7994C14.0494 6.44496 15.0744 7.46998 15.1244 8.74491L15.1243 10.095H15.3993C15.9744 10.095 16.4243 10.57 16.4243 11.12V15.3699C16.4243 15.945 15.9492 16.3949 15.3993 16.3949H9.42438C8.84926 16.3949 8.39936 15.9198 8.39936 15.3699V11.12C8.39936 10.5449 8.87439 10.095 9.42438 10.095H9.69939V8.71996C9.69939 7.46998 10.7244 6.44496 11.9744 6.44496ZM12.8743 14.7947C12.9994 14.7947 13.0744 14.6697 13.0494 14.5698L12.6745 13.2698C12.9495 13.1449 13.1495 12.8699 13.1495 12.5449C13.1495 12.1197 12.7994 11.7448 12.3495 11.7448C11.9243 11.7448 11.5494 12.095 11.5494 12.5449C11.5494 12.8697 11.7494 13.1447 12.0244 13.2698L11.6994 14.5698C11.6744 14.6948 11.7494 14.7947 11.8745 14.7947H12.8743ZM11.0495 10.0949H13.6744V8.74482C13.6744 8.24487 13.2744 7.84484 12.7744 7.84484H11.9495C11.4495 7.84484 11.0495 8.24488 11.0495 8.74482V10.0949Z" fill="#031F2B"/>
</g>
<defs>
<clipPath id="clip0_32059_190433">
<rect width="24" height="24" fill="white" transform="translate(0.5)"/>
</clipPath>
</defs>
</svg>
