<svg width="24" height="24" viewBox="0 0 24 24" fill="none" xmlns="http://www.w3.org/2000/svg">
<g id="key-dark" clip-path="url(#clip0_39790_45520)">
<path id="Vector" d="M12.6482 9.99817C11.6982 7.30817 8.89823 5.49817 5.76823 6.11817C3.47823 6.57817 1.61823 8.40817 1.13823 10.6982C0.318231 14.5682 3.25823 17.9982 6.99823 17.9982C9.60823 17.9982 11.8282 16.3282 12.6482 13.9982H16.9982V15.9982C16.9982 17.0982 17.8982 17.9982 18.9982 17.9982C20.0982 17.9982 20.9982 17.0982 20.9982 15.9982V13.9982C22.0982 13.9982 22.9982 13.0982 22.9982 11.9982C22.9982 10.8982 22.0982 9.99817 20.9982 9.99817H12.6482ZM6.99823 13.9982C5.89823 13.9982 4.99823 13.0982 4.99823 11.9982C4.99823 10.8982 5.89823 9.99817 6.99823 9.99817C8.09823 9.99817 8.99823 10.8982 8.99823 11.9982C8.99823 13.0982 8.09823 13.9982 6.99823 13.9982Z" fill="#031F2B"/>
</g>
<defs>
<clipPath id="clip0_39790_45520">
<rect width="24" height="24" fill="white"/>
</clipPath>
</defs>
</svg>
