<svg width="393" height="244" viewBox="0 0 393 244" fill="none" xmlns="http://www.w3.org/2000/svg">
<path d="M310.362 42.1953H80.7266V205.034H310.362V42.1953Z" fill="#ABEDD8" stroke="#333333" stroke-width="0.6" stroke-linecap="round" stroke-linejoin="round"/>
<path d="M310.362 191.93H80.7266V218.131H310.362V191.93Z" fill="#46CDCF" stroke="#333333" stroke-width="0.6" stroke-linecap="round" stroke-linejoin="round"/>
<path d="M97.25 204.887H104.894" stroke="#333333" stroke-width="0.6" stroke-linecap="round" stroke-linejoin="round"/>
<path d="M112.211 204.887H119.925" stroke="#333333" stroke-width="0.6" stroke-linecap="round" stroke-linejoin="round"/>
<path d="M160.788 99.2709L191.018 67.8789C191.018 67.8789 191.018 67.8789 191.054 67.8789H191.097L208.618 87.8158V87.8523C208.618 87.8523 208.618 87.8949 208.581 87.8949L173.411 105.296H173.374L161.192 101.04C160.463 100.797 160.261 99.8303 160.788 99.2709Z" fill="#54C4C9" stroke="#333333" stroke-width="0.6" stroke-linecap="round" stroke-linejoin="round"/>
<path d="M187.979 79.291L191.052 76.1172L208.659 96.1332L173.409 113.535L164.227 103.928L179.886 87.6939" stroke="#333333" stroke-width="0.6" stroke-linecap="round" stroke-linejoin="round"/>
<path d="M181.914 85.6035L186.199 81.1406" stroke="#333333" stroke-width="0.6" stroke-linecap="round" stroke-linejoin="round"/>
<path d="M160.861 100.031L223.426 77.2422H223.463C223.463 77.2422 223.463 77.2422 223.505 77.2848L230.344 100.475V100.517C230.344 100.517 230.344 100.517 230.307 100.517L193.319 109.637C193.319 109.637 193.319 109.637 193.276 109.637L160.903 100.833C160.499 100.754 160.457 100.195 160.861 100.031Z" fill="#ABEDD8" stroke="#333333" stroke-width="0.6" stroke-linecap="round" stroke-linejoin="round"/>
<path d="M222.773 94.2422L226.9 108.312" stroke="#333333" stroke-width="0.6" stroke-linecap="round" stroke-linejoin="round"/>
<path d="M169.969 103.292L220.07 85.082L221.931 91.4358" stroke="#333333" stroke-width="0.6" stroke-linecap="round" stroke-linejoin="round"/>
<path d="M160.705 100.516H235.043C235.086 100.516 235.086 100.516 235.086 100.552V159.554C235.086 159.597 235.086 159.597 235.043 159.597H159.652C159.609 159.597 159.609 159.597 159.609 159.554V101.555C159.609 100.996 160.093 100.516 160.705 100.516Z" fill="#78C7E0" stroke="#333333" stroke-width="0.6" stroke-linecap="round" stroke-linejoin="round"/>
<path d="M240.348 142.157C240.348 142.2 240.348 142.2 240.305 142.2H221.327C216.026 142.2 211.734 137.937 211.734 132.715V127.364C211.734 122.099 216.026 117.879 221.327 117.879H240.305C240.348 117.879 240.348 117.879 240.348 117.921V142.157Z" fill="#78C7E0" stroke="#333333" stroke-width="0.6" stroke-linecap="round" stroke-linejoin="round"/>
<path d="M116.499 196.739V242.438H1.83594V147.194L4.51798 144.402H115.227L116.499 147.194V189.973" fill="#3D84A8"/>
<path d="M116.499 196.739V242.438H1.83594V147.194L4.51798 144.402H115.227L116.499 147.194V189.973" stroke="#333333" stroke-width="0.6" stroke-linecap="round" stroke-linejoin="round"/>
<path d="M116.499 133.926H1.83594V147.193H116.499V133.926Z" fill="#46CDCF" stroke="#333333" stroke-width="0.6" stroke-linecap="round" stroke-linejoin="round"/>
<path d="M106.039 147.193V133.926" stroke="#333333" stroke-width="0.6" stroke-linecap="round" stroke-linejoin="round"/>
<path d="M57.625 188.454V178.984H92.6812V207.776H57.625V193.188V188.454Z" fill="#78C7E0"/>
<path fill-rule="evenodd" clip-rule="evenodd" d="M57.3359 178.984C57.3359 178.829 57.4625 178.703 57.6185 178.703H92.6748C92.8308 178.703 92.9574 178.829 92.9574 178.984V207.776C92.9574 207.931 92.8308 208.057 92.6748 208.057H57.6185C57.4625 208.057 57.3359 207.931 57.3359 207.776V178.984ZM57.9011 179.264V207.495H92.3922V179.264H57.9011Z" fill="#333333"/>
<path d="M77.7645 194.38L78.9429 200.162H71.3359L72.5143 194.38C72.0763 194.041 71.7118 193.645 71.4348 193.188H78.8581C78.567 193.645 78.2025 194.077 77.7645 194.38Z" fill="#48466D"/>
<path fill-rule="evenodd" clip-rule="evenodd" d="M71.1902 193.049C71.2403 192.961 71.3343 192.906 71.4362 192.906H78.8594C78.9624 192.906 79.0572 192.962 79.1069 193.051C79.1566 193.141 79.1533 193.25 79.0983 193.337C78.8275 193.763 78.4888 194.179 78.0784 194.499L79.2211 200.105C79.238 200.188 79.2166 200.274 79.1629 200.339C79.1093 200.404 79.029 200.442 78.9442 200.442H71.3373C71.2525 200.442 71.1722 200.404 71.1185 200.339C71.0649 200.274 71.0435 200.188 71.0603 200.105L72.2046 194.491C71.8022 194.157 71.4608 193.772 71.194 193.332C71.1415 193.245 71.1401 193.137 71.1902 193.049ZM71.9776 193.468C72.182 193.72 72.4202 193.95 72.6895 194.158C72.7739 194.224 72.8138 194.331 72.7926 194.435L71.6828 199.88H78.5987L77.4889 194.435C77.4665 194.326 77.5119 194.213 77.6043 194.149C77.8662 193.968 78.1035 193.733 78.3146 193.468H71.9776Z" fill="#333333"/>
<path d="M75.1766 186.574C76.6545 186.574 77.9911 187.31 78.7653 188.455H71.5625C72.3509 187.31 73.6592 186.574 75.1766 186.574Z" fill="#48466D"/>
<path fill-rule="evenodd" clip-rule="evenodd" d="M72.1538 188.173H78.1961C77.4551 187.358 76.3696 186.854 75.1858 186.854C73.9695 186.854 72.8993 187.358 72.1538 188.173ZM71.3384 188.296C72.178 187.076 73.5726 186.293 75.1858 186.293C76.7583 186.293 78.1826 187.075 79.0091 188.298C79.0673 188.384 79.0729 188.495 79.0238 188.586C78.9747 188.677 78.8789 188.735 78.7745 188.735H71.5716C71.4668 188.735 71.3706 188.677 71.3217 188.585C71.2728 188.493 71.2792 188.381 71.3384 188.296Z" fill="#333333"/>
<path d="M32.6828 181.934C36.7943 181.934 40.2643 184.706 41.3183 188.453H71.5454H78.7511C79.2484 189.163 79.5282 189.994 79.5282 190.909C79.5282 191.742 79.2484 192.511 78.8471 193.188H71.4493H41.3183C40.2643 196.934 36.8056 199.704 32.6828 199.704C27.735 199.704 23.7422 195.742 23.7422 190.825C23.7422 185.936 27.7689 181.934 32.6828 181.934Z" fill="white"/>
<path fill-rule="evenodd" clip-rule="evenodd" d="M32.6842 182.214C27.9265 182.214 24.0261 186.09 24.0261 190.824C24.0261 195.586 27.8923 199.423 32.6842 199.423C36.6759 199.423 40.0265 196.741 41.0475 193.112C41.0816 192.99 41.1929 192.906 41.3197 192.906H78.6844C79.0238 192.296 79.2469 191.624 79.2469 190.908C79.2469 190.104 79.0163 189.37 78.6017 188.733H41.3197C41.1929 188.733 41.0816 188.649 41.0475 188.528C40.0265 184.899 36.6647 182.214 32.6842 182.214ZM23.4609 190.824C23.4609 185.78 27.6138 181.652 32.6842 181.652C36.8511 181.652 40.3774 184.412 41.5315 188.172H78.7524C78.8449 188.172 78.9315 188.217 78.9844 188.292C79.5134 189.048 79.812 189.934 79.812 190.908C79.812 191.805 79.5109 192.623 79.0919 193.33C79.0411 193.415 78.9485 193.468 78.8484 193.468H41.5315C40.3778 197.227 36.8623 199.985 32.6842 199.985C27.5803 199.985 23.4609 195.896 23.4609 190.824Z" fill="#333333"/>
<path fill-rule="evenodd" clip-rule="evenodd" d="M27.8015 188.375C28.1217 188.237 28.4745 188.172 28.8465 188.172C30.3266 188.172 31.5084 189.371 31.5084 190.813C31.5084 192.282 30.3246 193.454 28.8465 193.454C27.3691 193.454 26.1875 192.254 26.1875 190.813C26.1875 190.371 26.2938 189.929 26.5014 189.548C26.5757 189.412 26.7472 189.361 26.8844 189.435C27.0216 189.509 27.0726 189.679 26.9983 189.815C26.8385 190.108 26.7527 190.458 26.7527 190.813C26.7527 191.948 27.6847 192.892 28.8465 192.892C30.0134 192.892 30.9432 191.971 30.9432 190.813C30.9432 189.678 30.0114 188.733 28.8465 188.733C28.5404 188.733 28.2659 188.786 28.0266 188.89C27.8835 188.951 27.717 188.886 27.6548 188.744C27.5927 188.602 27.6583 188.436 27.8015 188.375Z" fill="#333333"/>
<path d="M391.687 64.6495V110.348H277.023V15.1045L279.705 12.3125H390.415L391.687 15.1045V57.8832" fill="#3D84A8"/>
<path d="M391.687 64.6495V110.348H277.023V15.1045L279.705 12.3125H390.415L391.687 15.1045V57.8832" stroke="#333333" stroke-width="0.6" stroke-linecap="round" stroke-linejoin="round"/>
<path d="M391.687 1.83594H277.023V15.1035H391.687V1.83594Z" fill="#46CDCF" stroke="#333333" stroke-width="0.6" stroke-linecap="round" stroke-linejoin="round"/>
<path d="M381.227 15.1035V1.83594" stroke="#333333" stroke-width="0.6" stroke-linecap="round" stroke-linejoin="round"/>
<path d="M335.219 57.0708V47.6016H300.162V76.3936H335.219V61.8054V57.0708Z" fill="#78C7E0"/>
<path fill-rule="evenodd" clip-rule="evenodd" d="M335.508 47.601C335.508 47.446 335.381 47.3203 335.225 47.3203H300.169C300.013 47.3203 299.886 47.446 299.886 47.601V76.393C299.886 76.548 300.013 76.6737 300.169 76.6737H335.225C335.381 76.6737 335.508 76.548 335.508 76.393V47.601ZM334.943 47.8816V76.1124H300.452V47.8816H334.943Z" fill="#333333"/>
<path d="M315.079 62.9975L313.901 68.7789H321.508L320.329 62.9975C320.767 62.6579 321.132 62.2622 321.409 61.8047H313.986C314.277 62.2622 314.641 62.6944 315.079 62.9975Z" fill="#48466D"/>
<path fill-rule="evenodd" clip-rule="evenodd" d="M321.654 61.6659C321.603 61.5779 321.509 61.5234 321.408 61.5234H313.984C313.881 61.5234 313.787 61.5791 313.737 61.6686C313.687 61.7582 313.69 61.8676 313.745 61.954C314.016 62.3797 314.355 62.7958 314.765 63.116L313.623 68.7226C313.606 68.8051 313.627 68.8908 313.681 68.956C313.735 69.0212 313.815 69.059 313.9 69.059H321.506C321.591 69.059 321.672 69.0212 321.725 68.956C321.779 68.8908 321.8 68.8051 321.783 68.7226L320.639 63.1081C321.042 62.7744 321.383 62.3895 321.65 61.9487C321.702 61.862 321.704 61.754 321.654 61.6659ZM320.866 62.0847C320.662 62.337 320.424 62.5668 320.154 62.7756C320.07 62.8411 320.03 62.9483 320.051 63.0525L321.161 68.4977H314.245L315.355 63.0525C315.377 62.9429 315.332 62.8305 315.239 62.7666C314.978 62.5854 314.74 62.3498 314.529 62.0847H320.866Z" fill="#333333"/>
<path d="M317.667 55.1914C316.189 55.1914 314.853 55.9267 314.078 57.0718H321.281C320.493 55.9267 319.185 55.1914 317.667 55.1914Z" fill="#48466D"/>
<path fill-rule="evenodd" clip-rule="evenodd" d="M320.69 56.7905H314.648C315.389 55.9757 316.474 55.4715 317.658 55.4715C318.874 55.4715 319.944 55.9747 320.69 56.7905ZM321.505 56.9128C320.666 55.6932 319.271 54.9102 317.658 54.9102C316.085 54.9102 314.661 55.6925 313.835 56.9147C313.776 57.0008 313.771 57.1117 313.82 57.2032C313.869 57.2947 313.965 57.3518 314.069 57.3518H321.272C321.377 57.3518 321.473 57.2942 321.522 57.2021C321.571 57.1101 321.565 56.9987 321.505 56.9128Z" fill="#333333"/>
<path d="M360.161 50.5508C356.049 50.5508 352.579 53.3236 351.525 57.0703H321.298H314.093C313.595 57.7804 313.316 58.6111 313.316 59.526C313.316 60.3596 313.595 61.1285 313.997 61.8049H321.394H351.525C352.579 65.5516 356.038 68.3217 360.161 68.3217C365.109 68.3217 369.102 64.3589 369.102 59.4418C369.102 54.5529 365.075 50.5508 360.161 50.5508Z" fill="white"/>
<path fill-rule="evenodd" clip-rule="evenodd" d="M360.16 50.8308C364.917 50.8308 368.818 54.707 368.818 59.4412C368.818 64.2032 364.951 68.0404 360.16 68.0404C356.168 68.0404 352.817 65.3583 351.796 61.7288C351.762 61.6075 351.651 61.5237 351.524 61.5237H314.159C313.82 60.9134 313.597 60.241 313.597 59.5254C313.597 58.721 313.828 57.9877 314.242 57.3504H351.524C351.651 57.3504 351.762 57.2665 351.796 57.1452C352.817 53.5158 356.179 50.8308 360.16 50.8308ZM369.383 59.4412C369.383 54.3976 365.23 50.2695 360.16 50.2695C355.993 50.2695 352.466 53.0294 351.312 56.7891H314.091C313.999 56.7891 313.912 56.834 313.859 56.9095C313.33 57.6648 313.032 58.5512 313.032 59.5254C313.032 60.4225 313.333 61.2405 313.752 61.9468C313.803 62.0324 313.895 62.085 313.995 62.085H351.312C352.466 65.8445 355.981 68.6017 360.16 68.6017C365.263 68.6017 369.383 64.5133 369.383 59.4412Z" fill="#333333"/>
<path fill-rule="evenodd" clip-rule="evenodd" d="M365.042 56.9919C364.722 56.8538 364.369 56.7891 363.997 56.7891C362.517 56.7891 361.335 57.9883 361.335 59.43C361.335 60.8989 362.519 62.0709 363.997 62.0709C365.475 62.0709 366.656 60.8714 366.656 59.43C366.656 58.9881 366.55 58.5459 366.342 58.1653C366.268 58.029 366.097 57.9784 365.959 58.0522C365.822 58.126 365.771 58.2964 365.845 58.4326C366.005 58.7256 366.091 59.0748 366.091 59.43C366.091 60.5649 365.159 61.5096 363.997 61.5096C362.83 61.5096 361.901 60.588 361.901 59.43C361.901 58.2953 362.832 57.3504 363.997 57.3504C364.303 57.3504 364.578 57.4035 364.817 57.5068C364.96 57.5685 365.127 57.5033 365.189 57.3611C365.251 57.219 365.185 57.0537 365.042 56.9919Z" fill="#333333"/>
<path d="M116.499 64.6495V110.348H1.83594V15.1045L4.51798 12.3125H115.227L116.499 15.1045V57.8832" fill="#3D84A8"/>
<path d="M116.499 64.6495V110.348H1.83594V15.1045L4.51798 12.3125H115.227L116.499 15.1045V57.8832" stroke="#333333" stroke-width="0.6" stroke-linecap="round" stroke-linejoin="round"/>
<path d="M116.499 1.83594H1.83594V15.1035H116.499V1.83594Z" fill="#46CDCF" stroke="#333333" stroke-width="0.6" stroke-linecap="round" stroke-linejoin="round"/>
<path d="M106.039 15.1035V1.83594" stroke="#333333" stroke-width="0.6" stroke-linecap="round" stroke-linejoin="round"/>
<path d="M58.1719 57.0708V47.6016H93.2281V76.3936H58.1719V61.8054V57.0708Z" fill="#78C7E0"/>
<path fill-rule="evenodd" clip-rule="evenodd" d="M57.8828 47.601C57.8828 47.446 58.0093 47.3203 58.1654 47.3203H93.2217C93.3777 47.3203 93.5042 47.446 93.5042 47.601V76.393C93.5042 76.548 93.3777 76.6737 93.2217 76.6737H58.1654C58.0093 76.6737 57.8828 76.548 57.8828 76.393V47.601ZM58.448 47.8816V76.1124H92.9391V47.8816H58.448Z" fill="#333333"/>
<path d="M78.3114 62.9975L79.4897 68.7789H71.8828L73.0611 62.9975C72.6232 62.6579 72.2586 62.2622 71.9817 61.8047H79.405C79.1139 62.2622 78.7494 62.6944 78.3114 62.9975Z" fill="#48466D"/>
<path fill-rule="evenodd" clip-rule="evenodd" d="M71.7371 61.6659C71.7872 61.5779 71.8812 61.5234 71.983 61.5234H79.4063C79.5093 61.5234 79.6041 61.5791 79.6538 61.6686C79.7035 61.7582 79.7002 61.8676 79.6452 61.954C79.3743 62.3797 79.0356 62.7958 78.6253 63.116L79.768 68.7226C79.7848 68.8051 79.7635 68.8908 79.7098 68.956C79.6561 69.0212 79.5758 69.059 79.4911 69.059H71.8841C71.7994 69.059 71.7191 69.0212 71.6654 68.956C71.6117 68.8908 71.5904 68.8051 71.6072 68.7226L72.7515 63.1081C72.3491 62.7744 72.0077 62.3895 71.7409 61.9487C71.6884 61.862 71.6869 61.754 71.7371 61.6659ZM72.5245 62.0847C72.7289 62.337 72.9671 62.5668 73.2364 62.7756C73.3208 62.8411 73.3607 62.9483 73.3394 63.0525L72.2296 68.4977H79.1455L78.0358 63.0525C78.0134 62.9429 78.0588 62.8305 78.1512 62.7666C78.413 62.5854 78.6503 62.3498 78.8615 62.0847H72.5245Z" fill="#333333"/>
<path d="M75.7235 55.1914C77.2014 55.1914 78.538 55.9267 79.3122 57.0718H72.1094C72.8978 55.9267 74.2061 55.1914 75.7235 55.1914Z" fill="#48466D"/>
<path fill-rule="evenodd" clip-rule="evenodd" d="M72.7007 56.7905H78.7429C78.0019 55.9757 76.9165 55.4715 75.7326 55.4715C74.5163 55.4715 73.4461 55.9747 72.7007 56.7905ZM71.8853 56.9128C72.7249 55.6932 74.1195 54.9102 75.7326 54.9102C77.3052 54.9102 78.7295 55.6925 79.5559 56.9147C79.6141 57.0008 79.6198 57.1117 79.5707 57.2032C79.5216 57.2947 79.4257 57.3518 79.3213 57.3518H72.1185C72.0137 57.3518 71.9175 57.2942 71.8686 57.2021C71.8197 57.1101 71.8261 56.9987 71.8853 56.9128Z" fill="#333333"/>
<path d="M33.2297 50.5508C37.3412 50.5508 40.8112 53.3236 41.8652 57.0703H72.0923H79.2979C79.7953 57.7804 80.075 58.6111 80.075 59.526C80.075 60.3596 79.7953 61.1285 79.394 61.8049H71.9962H41.8652C40.8112 65.5516 37.3525 68.3217 33.2297 68.3217C28.2818 68.3217 24.2891 64.3589 24.2891 59.4418C24.2891 54.5529 28.3157 50.5508 33.2297 50.5508Z" fill="white"/>
<path fill-rule="evenodd" clip-rule="evenodd" d="M33.231 50.8308C28.4734 50.8308 24.573 54.707 24.573 59.4412C24.573 64.2032 28.4392 68.0404 33.231 68.0404C37.2228 68.0404 40.5734 65.3583 41.5944 61.7288C41.6285 61.6075 41.7398 61.5237 41.8665 61.5237H79.2313C79.5706 60.9134 79.7938 60.241 79.7938 59.5254C79.7938 58.721 79.5631 57.9877 79.1486 57.3504H41.8665C41.7398 57.3504 41.6285 57.2665 41.5944 57.1452C40.5734 53.5158 37.2116 50.8308 33.231 50.8308ZM24.0078 59.4412C24.0078 54.3976 28.1607 50.2695 33.231 50.2695C37.398 50.2695 40.9243 53.0294 42.0784 56.7891H79.2993C79.3918 56.7891 79.4784 56.834 79.5312 56.9095C80.0603 57.6648 80.3589 58.5512 80.3589 59.5254C80.3589 60.4225 80.0578 61.2405 79.6388 61.9468C79.588 62.0324 79.4954 62.085 79.3953 62.085H42.0784C40.9247 65.8445 37.4092 68.6017 33.231 68.6017C28.1272 68.6017 24.0078 64.5133 24.0078 59.4412Z" fill="#333333"/>
<path fill-rule="evenodd" clip-rule="evenodd" d="M28.3483 56.9919C28.6685 56.8538 29.0214 56.7891 29.3934 56.7891C30.8735 56.7891 32.0553 57.9883 32.0553 59.43C32.0553 60.8989 30.8715 62.0709 29.3934 62.0709C27.916 62.0709 26.7344 60.8714 26.7344 59.43C26.7344 58.9881 26.8406 58.5459 27.0482 58.1653C27.1226 58.029 27.2941 57.9784 27.4313 58.0522C27.5685 58.126 27.6195 58.2964 27.5452 58.4326C27.3854 58.7256 27.2995 59.0748 27.2995 59.43C27.2995 60.5649 28.2316 61.5096 29.3934 61.5096C30.5602 61.5096 31.4901 60.588 31.4901 59.43C31.4901 58.2953 30.5583 57.3504 29.3934 57.3504C29.0873 57.3504 28.8128 57.4035 28.5735 57.5068C28.4303 57.5685 28.2639 57.5033 28.2017 57.3611C28.1395 57.219 28.2052 57.0537 28.3483 56.9919Z" fill="#333333"/>
<path d="M310.643 241.558C328.197 241.558 342.434 227.317 342.434 209.757C342.434 192.194 328.197 177.957 310.643 177.957C293.084 177.957 278.852 192.194 278.852 209.757C278.852 227.317 293.084 241.558 310.643 241.558Z" fill="#3D84A8" stroke="#333333" stroke-width="0.6" stroke-linecap="round" stroke-linejoin="round"/>
<path d="M319.301 194.987C314.379 194.987 310.394 192.341 310.394 189.113C310.394 192.364 306.412 194.987 301.49 194.987C299.601 194.987 297.855 194.6 296.414 193.934V215.225C296.414 223.293 310.394 231.596 310.394 231.596C310.394 231.596 324.377 223.293 324.377 215.225V193.934C322.937 194.576 321.19 194.987 319.301 194.987Z" fill="#ABEDD8" stroke="#333333" stroke-width="0.6" stroke-linecap="round" stroke-linejoin="round"/>
<path fill-rule="evenodd" clip-rule="evenodd" d="M317.112 205.694C317.245 205.826 317.245 206.042 317.112 206.174L308.245 215.017C308.181 215.081 308.094 215.117 308.004 215.116C307.914 215.116 307.827 215.08 307.764 215.016L303.653 210.864C303.521 210.731 303.522 210.516 303.655 210.384C303.789 210.252 304.004 210.253 304.136 210.386L308.007 214.295L316.632 205.693C316.765 205.56 316.98 205.561 317.112 205.694Z" fill="#333333"/>
</svg>
