<svg width="96" height="96" viewBox="0 0 96 96" fill="none" xmlns="http://www.w3.org/2000/svg">
<circle cx="48" cy="48" r="48" fill="#F5F5F5"/>
<g clip-path="url(#clip0_55912_72509)">
<path d="M49.6245 43.0001C47.2495 36.2751 40.2495 31.7501 32.4245 33.3001C26.6995 34.4501 22.0495 39.0251 20.8495 44.7501C18.7995 54.4251 26.1495 63.0001 35.4995 63.0001C42.0245 63.0001 47.5745 58.8251 49.6245 53.0001H60.4995V58.0001C60.4995 60.7501 62.7495 63.0001 65.4995 63.0001C68.2495 63.0001 70.4995 60.7501 70.4995 58.0001V53.0001C73.2495 53.0001 75.4995 50.7501 75.4995 48.0001C75.4995 45.2501 73.2495 43.0001 70.4995 43.0001H49.6245ZM35.4995 53.0001C32.7495 53.0001 30.4995 50.7501 30.4995 48.0001C30.4995 45.2501 32.7495 43.0001 35.4995 43.0001C38.2495 43.0001 40.4995 45.2501 40.4995 48.0001C40.4995 50.7501 38.2495 53.0001 35.4995 53.0001Z" fill="#031F2B"/>
</g>
<defs>
<clipPath id="clip0_55912_72509">
<rect width="60" height="60" fill="white" transform="translate(18 18)"/>
</clipPath>
</defs>
</svg>
