<svg width="346" height="300" viewBox="0 0 346 300" fill="none" xmlns="http://www.w3.org/2000/svg">
<rect width="346" height="300" fill="#D0E2FF"/>
<path d="M175 155L175 175" stroke="#333333" stroke-width="0.6" stroke-linecap="round" stroke-linejoin="round"/>
<path d="M206.903 236.54H113.172L140.143 171.659H233.879L206.903 236.54Z" fill="#ABEDD8"/>
<path d="M214.903 217.347L206.903 236.54H186.137" stroke="#333333" stroke-width="0.6" stroke-linecap="round" stroke-linejoin="round"/>
<path d="M182.382 236.54H177.875" stroke="#333333" stroke-width="0.6" stroke-linecap="round" stroke-linejoin="round"/>
<path d="M177.872 236.54H133.938" stroke="#333333" stroke-width="0.6" stroke-linecap="round" stroke-linejoin="round"/>
<path d="M133.938 236.54H113.172L121.126 217.347" stroke="#333333" stroke-width="0.6" stroke-linecap="round" stroke-linejoin="round"/>
<path d="M126.156 205.326L132.144 190.853" stroke="#333333" stroke-width="0.6" stroke-linecap="round" stroke-linejoin="round"/>
<path d="M132.141 190.852L140.141 171.659H160.907" stroke="#333333" stroke-width="0.6" stroke-linecap="round" stroke-linejoin="round"/>
<path d="M164.672 171.659H169.174" stroke="#333333" stroke-width="0.6" stroke-linecap="round" stroke-linejoin="round"/>
<path d="M169.172 171.659H213.111" stroke="#333333" stroke-width="0.6" stroke-linecap="round" stroke-linejoin="round"/>
<path d="M213.113 171.659H233.88L225.921 190.852" stroke="#333333" stroke-width="0.6" stroke-linecap="round" stroke-linejoin="round"/>
<path d="M220.894 202.878L214.902 217.347" stroke="#333333" stroke-width="0.6" stroke-linecap="round" stroke-linejoin="round"/>
<path d="M174.55 207.468C177.766 207.468 180.366 204.863 180.366 201.652C180.366 198.441 177.766 195.836 174.55 195.836C171.343 195.836 168.738 198.441 168.738 201.652C168.738 204.863 171.343 207.468 174.55 207.468Z" fill="#46CDCF" stroke="#333333" stroke-width="0.6" stroke-linecap="round" stroke-linejoin="round"/>
<path d="M82 240.08H208.958V231.645H90.4352C85.7572 231.645 82 235.448 82 240.08Z" fill="#ABEDD8" stroke="#333333" stroke-width="0.6" stroke-linecap="round" stroke-linejoin="round"/>
<path d="M79 138.756V160H271V60H79V98.7336V138.756Z" fill="#ABEDD8" stroke="#333333" stroke-width="0.6" stroke-linecap="round" stroke-linejoin="round"/>
<rect x="254.7" y="77.3" width="65.4" height="159.4" rx="7.7" transform="rotate(90 254.7 77.3)" fill="#46CDCF" stroke="#333333" stroke-width="0.6"/>
<path d="M247 77.3C251.253 77.3 254.7 80.7474 254.7 85L254.7 135C254.7 139.253 251.253 142.7 247 142.7L200 142.7C181.94 142.7 167.3 128.06 167.3 110C167.3 91.9403 181.94 77.3 200 77.3L247 77.3Z" fill="#3D84A8" stroke="#333333" stroke-width="0.6"/>
<circle cx="205" cy="110" r="17.7" transform="rotate(90 205 110)" fill="#78C7E0" stroke="#333333" stroke-width="0.6"/>
<path d="M148.911 116.996V118H155.827V113.458H154.816V116.996H148.911ZM148.911 102V103.004H154.816V106.542H155.82V102H148.911ZM145.347 109.794V107.453H146.929C147.701 107.453 147.973 107.712 147.973 108.411V108.823C147.973 109.541 147.707 109.787 146.929 109.787L145.347 109.794ZM147.854 110.206C148.572 110.02 149.077 109.348 149.077 108.544C149.077 108.045 148.871 107.559 148.505 107.22C148.033 106.768 147.402 106.542 146.577 106.542H144.356V113.458H145.347V110.698H146.83C147.588 110.698 147.894 111.017 147.894 111.802V113.451H148.904V111.962C148.904 110.878 148.645 110.459 147.86 110.339L147.854 110.206ZM139.534 110.439H142.58V109.528H139.534V107.453H142.873V106.542H138.53V113.458H143.026V112.547H139.534V110.439ZM136.229 110.798V111.27C136.229 112.268 135.864 112.594 134.946 112.594H134.727C133.809 112.594 133.363 112.294 133.363 110.924V109.069C133.363 107.686 133.829 107.4 134.746 107.4H134.946C135.844 107.4 136.13 107.732 136.143 108.663H137.227C137.127 107.3 136.223 106.442 134.86 106.442C134.195 106.442 133.643 106.648 133.23 107.047C132.605 107.633 132.266 108.617 132.266 110C132.266 111.33 132.565 112.321 133.177 112.933C133.596 113.332 134.148 113.558 134.727 113.558C135.318 113.558 135.864 113.318 136.136 112.806H136.276V113.465H137.187V109.9H134.507V110.805H136.229V110.798ZM127.518 107.453H128.595C129.613 107.453 130.165 107.712 130.165 109.089V110.904C130.165 112.288 129.613 112.547 128.595 112.547H127.518V107.453ZM128.682 113.458C130.57 113.458 131.268 112.028 131.268 110C131.268 107.945 130.517 106.542 128.662 106.542H126.527V113.458H128.682ZM121.759 110.439H124.805V109.528H121.759V107.453H125.097V106.542H120.748V113.458H125.244V112.547H121.759V110.439ZM115.927 106.542H114.916V113.458H119.458V112.547H115.927V106.542ZM108 113.458V118H114.916V116.989H109.004V113.451H108V113.458ZM108 102V106.542H109.004V103.004H114.909V102H108Z" fill="#333333"/>
</svg>
