<svg width="24" height="24" viewBox="0 0 24 24" fill="none" xmlns="http://www.w3.org/2000/svg">
<path d="M10.8894 19.5274L4.2894 12.9274C4.1894 12.8274 4.11857 12.7191 4.0769 12.6024C4.03524 12.4858 4.0144 12.3608 4.0144 12.2274C4.0144 12.0941 4.03524 11.9691 4.0769 11.8524C4.11857 11.7358 4.1894 11.6274 4.2894 11.5274L10.8894 4.92743C11.0727 4.7441 11.3019 4.64827 11.5769 4.63993C11.8519 4.6316 12.0894 4.72743 12.2894 4.92743C12.4894 5.11077 12.5936 5.33993 12.6019 5.61493C12.6102 5.88993 12.5144 6.12743 12.3144 6.32743L7.4144 11.2274H18.5894C18.8727 11.2274 19.1102 11.3233 19.3019 11.5149C19.4936 11.7066 19.5894 11.9441 19.5894 12.2274C19.5894 12.5108 19.4936 12.7483 19.3019 12.9399C19.1102 13.1316 18.8727 13.2274 18.5894 13.2274H7.4144L12.3144 18.1274C12.4977 18.3108 12.5936 18.5441 12.6019 18.8274C12.6102 19.1108 12.5144 19.3441 12.3144 19.5274C12.1311 19.7274 11.8977 19.8274 11.6144 19.8274C11.3311 19.8274 11.0894 19.7274 10.8894 19.5274Z" fill="#595959"/>
</svg>
