<svg width="24" height="24" viewBox="0 0 24 24" fill="none" xmlns="http://www.w3.org/2000/svg">
<path fill-rule="evenodd" clip-rule="evenodd" d="M11.7099 18.7063C11.6171 18.7994 11.5067 18.8733 11.3853 18.9237C11.2638 18.9741 11.1336 19 11.0021 19C10.8706 19 10.7404 18.9741 10.6189 18.9237C10.4974 18.8733 10.3871 18.7994 10.2942 18.7063L4.2955 12.7075C4.2024 12.6147 4.12853 12.5043 4.07812 12.3829C4.02772 12.2614 4.00178 12.1312 4.00178 11.9997C4.00178 11.8682 4.02772 11.738 4.07812 11.6165C4.12853 11.495 4.2024 11.3847 4.2955 11.2918L10.2942 5.29311C10.482 5.10538 10.7366 4.99991 11.0021 4.99991C11.2676 4.99991 11.5222 5.10538 11.7099 5.29311C11.8977 5.48084 12.0031 5.73547 12.0031 6.00096C12.0031 6.26646 11.8977 6.52108 11.7099 6.70881L6.41705 11.9997L11.7099 17.2906C11.803 17.3834 11.8769 17.4938 11.9273 17.6152C11.9777 17.7367 12.0037 17.8669 12.0037 17.9984C12.0037 18.1299 11.9777 18.2601 11.9273 18.3816C11.8769 18.5031 11.803 18.6134 11.7099 18.7063Z" fill="#031F2B"/>
<path fill-rule="evenodd" clip-rule="evenodd" d="M20 11.9997C20 12.2649 19.8947 12.5192 19.7072 12.7067C19.5197 12.8942 19.2654 12.9995 19.0002 12.9995L6.00296 12.9995C5.7378 12.9995 5.48349 12.8942 5.296 12.7067C5.1085 12.5192 5.00317 12.2649 5.00317 11.9997C5.00317 11.7346 5.1085 11.4803 5.296 11.2928C5.48349 11.1053 5.7378 10.9999 6.00296 10.9999L19.0002 10.9999C19.2654 10.9999 19.5197 11.1053 19.7072 11.2928C19.8947 11.4803 20 11.7346 20 11.9997Z" fill="#031F2B"/>
</svg>
