<svg width="19" height="18" viewBox="0 0 19 18" fill="none" xmlns="http://www.w3.org/2000/svg">
<path d="M7.00181 10.6537L11.5018 6.15372C11.5803 6.07524 11.6735 6.01298 11.776 5.9705C11.8786 5.92803 11.9885 5.90616 12.0995 5.90616C12.2105 5.90616 12.3204 5.92803 12.4229 5.9705C12.5255 6.01298 12.6186 6.07524 12.6971 6.15372C12.7756 6.23221 12.8379 6.32538 12.8803 6.42793C12.9228 6.53047 12.9447 6.64038 12.9447 6.75138C12.9447 6.86237 12.9228 6.97228 12.8803 7.07483C12.8379 7.17737 12.7756 7.27055 12.6971 7.34903L8.19712 11.849C8.03861 12.0075 7.82363 12.0966 7.59946 12.0966C7.3753 12.0966 7.16031 12.0075 7.00181 11.849C6.8433 11.6905 6.75425 11.4755 6.75425 11.2514C6.75425 11.0272 6.8433 10.8122 7.00181 10.6537ZM16.2127 2.6381C15.4208 1.84793 14.3478 1.40417 13.229 1.40417C12.1103 1.40417 11.0373 1.84793 10.2453 2.6381L8.12751 4.7538C7.969 4.91231 7.87995 5.12729 7.87995 5.35146C7.87995 5.46245 7.90181 5.57236 7.94429 5.6749C7.98677 5.77745 8.04902 5.87063 8.12751 5.94911C8.20599 6.0276 8.29917 6.08986 8.40172 6.13233C8.50426 6.17481 8.61417 6.19667 8.72517 6.19667C8.94933 6.19667 9.16431 6.10762 9.32282 5.94911L11.4371 3.83552C11.9119 3.36065 12.5559 3.09383 13.2274 3.09376C13.8989 3.0937 14.5429 3.36039 15.0178 3.83517C15.4927 4.30995 15.7595 4.95392 15.7595 5.62543C15.7596 6.29693 15.4929 6.94096 15.0181 7.41583L12.901 9.52872C12.8225 9.60721 12.7603 9.70038 12.7178 9.80293C12.6753 9.90547 12.6535 10.0154 12.6535 10.1264C12.6535 10.2374 12.6753 10.3473 12.7178 10.4498C12.7603 10.5524 12.8225 10.6455 12.901 10.724C12.9795 10.8025 13.0727 10.8648 13.1752 10.9073C13.2778 10.9497 13.3877 10.9716 13.4987 10.9716C13.6097 10.9716 13.7196 10.9497 13.8221 10.9073C13.9247 10.8648 14.0179 10.8025 14.0963 10.724L16.2113 8.61044C17.0019 7.81801 17.4457 6.74424 17.4453 5.62489C17.4449 4.50553 17.0004 3.43208 16.2092 2.64021L16.2127 2.6381ZM10.3782 12.0515L8.26392 14.1665C8.02878 14.4016 7.74965 14.5881 7.44245 14.7153C7.13525 14.8425 6.80601 14.908 6.47351 14.9079C6.14102 14.9079 5.81178 14.8424 5.50461 14.7151C5.19744 14.5878 4.91834 14.4013 4.68325 14.1662C4.20847 13.6913 3.94178 13.0473 3.94185 12.3758C3.94191 11.7043 4.20873 11.0603 4.6836 10.5855L6.7972 8.47122C6.87568 8.39274 6.93794 8.29956 6.98042 8.19701C7.02289 8.09447 7.04475 7.98456 7.04475 7.87357C7.04475 7.76257 7.02289 7.65266 6.98042 7.55012C6.93794 7.44757 6.87568 7.35439 6.7972 7.27591C6.71871 7.19742 6.62554 7.13517 6.52299 7.09269C6.42044 7.05021 6.31054 7.02835 6.19954 7.02835C6.08855 7.02835 5.97864 7.05021 5.87609 7.09269C5.77355 7.13517 5.68037 7.19742 5.60188 7.27591L3.4897 9.39232C3.09787 9.78419 2.78707 10.2494 2.57503 10.7614C2.36299 11.2734 2.25387 11.8221 2.25391 12.3763C2.25397 13.4954 2.69863 14.5688 3.49005 15.3601C4.28147 16.1514 5.35483 16.5959 6.47401 16.5959C7.59318 16.5958 8.66649 16.1512 9.45782 15.3597L11.5714 13.2454C11.7299 13.0869 11.819 12.8719 11.819 12.6478C11.819 12.4236 11.7299 12.2086 11.5714 12.0501C11.4129 11.8916 11.1979 11.8026 10.9738 11.8026C10.7496 11.8026 10.5346 11.8916 10.3761 12.0501L10.3782 12.0515Z" fill="white"/>
</svg>
