<svg width="60" height="60" viewBox="0 0 60 60" fill="none" xmlns="http://www.w3.org/2000/svg">
<g id="lock-dark">
<path id="lock" d="M15 55C13.625 55 12.4483 54.5108 11.47 53.5325C10.49 52.5525 10 51.375 10 50V25C10 23.625 10.49 22.4475 11.47 21.4675C12.4483 20.4892 13.625 20 15 20H17.5V15C17.5 11.5417 18.7192 8.59333 21.1575 6.155C23.5942 3.71833 26.5417 2.5 30 2.5C33.4583 2.5 36.4067 3.71833 38.845 6.155C41.2817 8.59333 42.5 11.5417 42.5 15V20H45C46.375 20 47.5525 20.4892 48.5325 21.4675C49.5108 22.4475 50 23.625 50 25V50C50 51.375 49.5108 52.5525 48.5325 53.5325C47.5525 54.5108 46.375 55 45 55H15ZM30 42.5C31.375 42.5 32.5525 42.0108 33.5325 41.0325C34.5108 40.0525 35 38.875 35 37.5C35 36.125 34.5108 34.9475 33.5325 33.9675C32.5525 32.9892 31.375 32.5 30 32.5C28.625 32.5 27.4483 32.9892 26.47 33.9675C25.49 34.9475 25 36.125 25 37.5C25 38.875 25.49 40.0525 26.47 41.0325C27.4483 42.0108 28.625 42.5 30 42.5ZM22.5 20H37.5V15C37.5 12.9167 36.7708 11.1458 35.3125 9.6875C33.8542 8.22917 32.0833 7.5 30 7.5C27.9167 7.5 26.1458 8.22917 24.6875 9.6875C23.2292 11.1458 22.5 12.9167 22.5 15V20Z" fill="#CF4018"/>
</g>
</svg>
