<svg width="240" height="96" viewBox="0 0 240 96" fill="none" xmlns="http://www.w3.org/2000/svg">
<path d="M50.9915 54.8084V75.3507H44.619C43.6 75.363 42.5997 75.0772 41.741 74.5285C40.8793 73.9717 40.1907 73.1849 39.7532 72.257L34.32 61.0946H33.0435V75.3446H27.5281V54.8084H33.9109C34.9299 54.7961 35.9302 55.0819 36.7889 55.6307C37.6506 56.1874 38.3392 56.9743 38.7767 57.9022L44.2407 69.0645H45.5173V54.8084H50.9915Z" fill="#031F2B"/>
<path d="M78.5601 54.8084V75.618H64.8158C61.6871 75.618 59.2326 74.7916 57.4524 73.1388C55.6722 71.4861 54.7814 69.0193 54.78 65.7384V54.8084H60.3612V65.7322C60.3612 67.3768 60.7675 68.5643 61.5802 69.2947C62.3929 70.0252 63.4714 70.3911 64.8158 70.3924H72.9871V54.8084H78.5601Z" fill="#031F2B"/>
<path d="M105.783 54.8084V75.3507H99.4004C98.3814 75.363 97.3811 75.0772 96.5224 74.5285C95.6608 73.9717 94.9722 73.1849 94.5346 72.257L89.1015 61.0946H87.8249V75.3446H82.3301V54.8084H88.7129C89.7319 54.7961 90.7322 55.0819 91.5909 55.6307C92.4532 56.1873 93.1425 56.9742 93.5808 57.9022L99.0427 69.0645H100.328V54.8084H105.783Z" fill="#031F2B"/>
<path d="M126.922 59.9887C126.056 59.7268 125.154 59.6013 124.25 59.6166H119.914C118.212 59.6166 116.866 60.1161 115.877 61.1152C114.887 62.1142 114.393 63.4258 114.393 65.0498V65.0785C114.432 66.7231 114.937 68.0442 115.908 69.0419C116.878 70.0396 118.213 70.5398 119.914 70.5425H124.25C125.175 70.5633 126.097 70.4328 126.98 70.156C127.727 69.9023 128.414 69.4979 128.998 68.9679L132.145 73.0073C131.186 73.9034 130.04 74.5771 128.791 74.9807C127.32 75.4327 125.788 75.6478 124.25 75.618H119.914C117.639 75.618 115.67 75.1829 114.006 74.3126C112.395 73.4909 111.071 72.2009 110.207 70.6124C109.336 69.0199 108.9 67.1739 108.9 65.0744V65.0456C108.9 62.9489 109.336 61.1083 110.207 59.5241C111.075 57.9434 112.399 56.6606 114.006 55.8424C115.669 54.9722 117.638 54.537 119.914 54.537H124.25C125.772 54.5094 127.289 54.7175 128.747 55.1537C130.016 55.5543 131.177 56.2359 132.145 57.1477L128.998 61.1851C128.4 60.6414 127.692 60.2332 126.922 59.9887Z" fill="#031F2B"/>
<path d="M152.747 54.8084H158.298V75.3507H152.747V67.6029H140.43V75.3507H134.846V54.8084H140.43V62.5254H152.747V54.8084Z" fill="#031F2B"/>
<path d="M185.881 54.8084V75.618H172.134C169.008 75.618 166.555 74.7916 164.773 73.1388C162.991 71.4861 162.101 69.0193 162.101 65.7384V54.8084H167.682V65.7322C167.682 67.3768 168.087 68.5643 168.899 69.2947C169.71 70.0252 170.789 70.3911 172.134 70.3924H180.293V54.8084H185.881Z" fill="#031F2B"/>
<path d="M195.232 75.3508H189.651V54.8084H195.232V62.1102L212.272 54.5412V60.5026L205.533 63.5306L212.391 75.3466H206.246L200.546 65.759L195.232 68.1662V75.3508Z" fill="#031F2B"/>
<path d="M137.307 20.5876L125.076 32.8168C124.995 32.8983 124.892 32.9538 124.78 32.9763C124.667 32.9988 124.551 32.9872 124.445 32.9431C124.339 32.8989 124.249 32.8242 124.186 32.7284C124.123 32.6327 124.09 32.5203 124.091 32.4057V26.7793H116.666C116.513 26.7793 116.366 26.7184 116.258 26.6101C116.149 26.5018 116.088 26.3548 116.088 26.2016V20.5979H108.98L95.542 34.0728L102.611 41.1443L114.74 29.0158C114.821 28.9347 114.924 28.8794 115.036 28.8571C115.149 28.8348 115.265 28.8464 115.371 28.8905C115.477 28.9345 115.567 29.0091 115.631 29.1046C115.694 29.2002 115.727 29.3124 115.727 29.427V35.152H123.255C123.408 35.152 123.555 35.2129 123.663 35.3212C123.771 35.4296 123.832 35.5765 123.832 35.7297V41.1382H130.941L144.379 27.6632L137.307 20.5876Z" fill="#031F2B"/>
</svg>
