<svg width="128" height="128" viewBox="0 0 128 128" fill="none" xmlns="http://www.w3.org/2000/svg">
<rect width="128" height="128" rx="24" fill="#FFCB2E"/>
<path d="M96.1195 45.0371L73.454 67.6035C73.3045 67.7525 73.1138 67.854 72.9063 67.8951C72.6988 67.9362 72.4836 67.9151 72.2881 67.8345C72.0926 67.7539 71.9256 67.6173 71.808 67.4421C71.6905 67.2669 71.6278 67.0609 71.6279 66.8503V56.4621H57.8705C57.5868 56.4621 57.3148 56.3499 57.1142 56.1502C56.9136 55.9505 56.8009 55.6796 56.8009 55.3972V45.0568H43.6305L18.7256 69.9185L31.827 82.963L54.3019 60.5882C54.4515 60.4392 54.6421 60.3377 54.8496 60.2966C55.0571 60.2555 55.2722 60.2765 55.4677 60.3571C55.6632 60.4377 55.8302 60.5742 55.9478 60.7493C56.0654 60.9245 56.1281 61.1304 56.1281 61.341V71.8972H70.0779C70.3615 71.8972 70.6336 72.0094 70.8342 72.2091C71.0348 72.4088 71.1475 72.6797 71.1475 72.9621V82.9426H84.3197L109.225 58.0809L96.1195 45.0371Z" fill="#031F2B"/>
</svg>
