<svg width="1050" height="1050" viewBox="0 0 1050 1050" fill="none" xmlns="http://www.w3.org/2000/svg">
<rect width="1024" height="1024" transform="translate(13 13)" fill="#F18D8D"/>
<rect x="13" y="13" width="1024" height="1024" fill="#031F2B"/>
<rect x="13" y="13" width="1024" height="1024" fill="#FFCB2E"/>
<g clip-path="url(#clip0_0_520)">
<path d="M816.195 352.47L610.852 557.812C609.497 559.168 607.771 560.09 605.891 560.464C604.011 560.837 602.063 560.644 600.293 559.91C598.523 559.176 597.01 557.933 595.947 556.338C594.883 554.744 594.317 552.87 594.319 550.954V456.358H469.727C467.158 456.358 464.695 455.338 462.878 453.522C461.062 451.705 460.042 449.242 460.042 446.673V352.618H340.721L115.119 578.802L233.805 697.53L437.369 493.913C438.726 492.559 440.453 491.638 442.333 491.265C444.213 490.893 446.161 491.086 447.931 491.82C449.701 492.554 451.214 493.796 452.279 495.389C453.344 496.982 453.912 498.855 453.913 500.772V596.806H580.273C582.843 596.809 585.306 597.832 587.122 599.65C588.938 601.468 589.958 603.932 589.958 606.502V697.297H709.279L934.881 471.103L816.195 352.47Z" fill="#031F2B"/>
</g>
<defs>
<clipPath id="clip0_0_520">
<rect width="1050" height="1050" fill="white"/>
</clipPath>
</defs>
</svg>
