<svg width="60" height="60" viewBox="0 0 60 60" fill="none" xmlns="http://www.w3.org/2000/svg">
<g clip-path="url(#clip0_21546_346875)">
<path d="M46.6396 20.1411L34.9057 31.875C34.8283 31.9524 34.7296 32.0051 34.6222 32.0265C34.5148 32.0478 34.4035 32.0368 34.3024 31.9948C34.2012 31.9529 34.1148 31.8818 34.054 31.7907C33.9932 31.6996 33.9609 31.5926 33.961 31.483V26.0776H26.8414C26.6947 26.0776 26.5539 26.0193 26.4501 25.9155C26.3463 25.8117 26.288 25.671 26.288 25.5242V20.1496H19.4697L6.57812 33.0744L13.3602 39.8589L24.9924 28.2236C25.07 28.1462 25.1687 28.0936 25.2761 28.0723C25.3835 28.051 25.4948 28.062 25.596 28.104C25.6971 28.1459 25.7836 28.2169 25.8444 28.3079C25.9053 28.399 25.9378 28.506 25.9378 28.6155V34.1032H33.1584C33.3052 34.1034 33.446 34.1618 33.5497 34.2657C33.6535 34.3696 33.7118 34.5104 33.7118 34.6572V39.8455H40.5301L53.4217 26.9201L46.6396 20.1411Z" fill="#031F2B"/>
</g>
<defs>
<clipPath id="clip0_21546_346875">
<rect width="60" height="60" fill="white"/>
</clipPath>
</defs>
</svg>
