<svg width="120" height="120" viewBox="0 0 120 120" fill="none" xmlns="http://www.w3.org/2000/svg">
<g clip-path="url(#clip0_21573_206578)">
<path d="M93.2792 40.2823L69.8115 63.75C69.6566 63.9049 69.4593 64.0103 69.2445 64.053C69.0297 64.0956 68.807 64.0736 68.6047 63.9897C68.4024 63.9058 68.2295 63.7637 68.108 63.5815C67.9865 63.3993 67.9217 63.1851 67.922 62.9661V52.1552H53.6829C53.3893 52.1552 53.1078 52.0386 52.9002 51.8311C52.6926 51.6235 52.576 51.3419 52.576 51.0484V40.2992H38.9393L13.1562 66.1488L26.7204 79.7177L49.9849 56.4472C50.1399 56.2925 50.3373 56.1872 50.5521 56.1446C50.767 56.1021 50.9896 56.1241 51.1919 56.208C51.3942 56.2918 51.5671 56.4338 51.6888 56.6159C51.8105 56.798 51.8755 57.012 51.8756 57.231V68.2065H66.3167C66.6104 68.2068 66.8919 68.3237 67.0995 68.5314C67.307 68.7392 67.4236 69.0208 67.4236 69.3145V79.6911H81.0603L106.843 53.8403L93.2792 40.2823Z" fill="#FFCB2E"/>
</g>
<defs>
<clipPath id="clip0_21573_206578">
<rect width="120" height="120" fill="white"/>
</clipPath>
</defs>
</svg>
