<svg width="25" height="24" viewBox="0 0 25 24" fill="none" xmlns="http://www.w3.org/2000/svg">
<path d="M13.6 17.15C13.7 17.15 13.7917 17.1333 13.875 17.1C13.9583 17.0667 14.0417 17.0083 14.125 16.925L17.1 13.95C17.2833 13.7667 17.4167 13.5625 17.5 13.3375C17.5833 13.1125 17.625 12.875 17.625 12.625C17.625 12.0917 17.4375 11.6375 17.0625 11.2625C16.6875 10.8875 16.2333 10.7 15.7 10.7C15.3667 10.7 15.0333 10.8083 14.7 11.025C14.3667 11.2417 14 11.5917 13.6 12.075C13.2 11.5917 12.8333 11.2417 12.5 11.025C12.1667 10.8083 11.8333 10.7 11.5 10.7C10.9667 10.7 10.5125 10.8875 10.1375 11.2625C9.7625 11.6375 9.575 12.0917 9.575 12.625C9.575 12.875 9.61667 13.1125 9.7 13.3375C9.78333 13.5625 9.91667 13.7667 10.1 13.95L13.075 16.925C13.1583 17.0083 13.2417 17.0667 13.325 17.1C13.4083 17.1333 13.5 17.15 13.6 17.15ZM13.4 22C13.2 22 13.0083 21.9667 12.825 21.9C12.6417 21.8333 12.4667 21.725 12.3 21.575L2.925 12.2C2.775 12.0333 2.66667 11.8583 2.6 11.675C2.53333 11.4917 2.5 11.3 2.5 11.1V3.5C2.5 3.06667 2.64167 2.70833 2.925 2.425C3.20833 2.14167 3.56667 2 4 2H11.6C11.8 2 12 2.02917 12.2 2.0875C12.4 2.14583 12.5833 2.25833 12.75 2.425L22.075 11.75C22.4083 12.0833 22.575 12.4542 22.575 12.8625C22.575 13.2708 22.4083 13.6417 22.075 13.975L14.475 21.575C14.3417 21.7083 14.1792 21.8125 13.9875 21.8875C13.7958 21.9625 13.6 22 13.4 22ZM6.625 7.4C6.975 7.4 7.27917 7.27083 7.5375 7.0125C7.79583 6.75417 7.925 6.45 7.925 6.1C7.925 5.75 7.79583 5.44583 7.5375 5.1875C7.27917 4.92917 6.975 4.8 6.625 4.8C6.275 4.8 5.97083 4.92917 5.7125 5.1875C5.45417 5.44583 5.325 5.75 5.325 6.1C5.325 6.45 5.45417 6.75417 5.7125 7.0125C5.97083 7.27083 6.275 7.4 6.625 7.4Z" fill="#031F2B"/>
</svg>
