<svg width="24" height="24" viewBox="0 0 24 24" fill="none" xmlns="http://www.w3.org/2000/svg">
<path d="M20 2H4C2.9 2 2.01 2.9 2.01 4L2 22L6 18H20C21.1 18 22 17.1 22 16V4C22 2.9 21.1 2 20 2ZM17 14H7C6.45 14 6 13.55 6 13C6 12.45 6.45 12 7 12H17C17.55 12 18 12.45 18 13C18 13.55 17.55 14 17 14ZM17 11H7C6.45 11 6 10.55 6 10C6 9.45 6.45 9 7 9H17C17.55 9 18 9.45 18 10C18 10.55 17.55 11 17 11ZM17 8H7C6.45 8 6 7.55 6 7C6 6.45 6.45 6 7 6H17C17.55 6 18 6.45 18 7C18 7.55 17.55 8 17 8Z" fill="white"/>
</svg>
