<svg width="346" height="512" viewBox="0 0 346 512" fill="none" xmlns="http://www.w3.org/2000/svg">
<g clip-path="url(#clip0_78846_397343)">
<rect width="346" height="512" rx="24" fill="#D0E2FF"/>
<g clip-path="url(#clip1_78846_397343)">
<rect width="375" height="300" transform="translate(-14.5 106)" fill="#D0E2FF"/>
<g clip-path="url(#clip2_78846_397343)">
<path d="M51.6738 368.392L294.327 367.977" stroke="#333333" stroke-width="0.515625" stroke-linecap="round" stroke-linejoin="round"/>
<path d="M196.51 207.667V194.226H269.39V286.048H196.51V220.368" fill="#ABEDD8"/>
<path d="M196.51 207.667V194.226H269.39V286.048H196.51V220.368" stroke="#333333" stroke-width="0.66" stroke-linecap="round" stroke-linejoin="round"/>
<path d="M196.51 211.115V217.051" stroke="#333333" stroke-width="0.605" stroke-linecap="round" stroke-linejoin="round"/>
<path d="M207.092 210.897L210.235 214.04L215.426 208.846" stroke="#333333" stroke-width="0.605" stroke-linecap="round" stroke-linejoin="round"/>
<path d="M217.74 214.04H258.719" stroke="#333333" stroke-width="0.605" stroke-linecap="round" stroke-linejoin="round"/>
<path d="M207.092 224.752L210.235 227.895L215.426 222.659" stroke="#333333" stroke-width="0.605" stroke-linecap="round" stroke-linejoin="round"/>
<path d="M217.74 227.896H258.719" stroke="#333333" stroke-width="0.605" stroke-linecap="round" stroke-linejoin="round"/>
<path d="M207.092 238.565L210.235 241.708L215.426 236.472" stroke="#333333" stroke-width="0.605" stroke-linecap="round" stroke-linejoin="round"/>
<path d="M236.572 241.708H258.72" stroke="#333333" stroke-width="0.605" stroke-linecap="round" stroke-linejoin="round"/>
<path d="M217.74 241.708H232.645" stroke="#333333" stroke-width="0.605" stroke-linecap="round" stroke-linejoin="round"/>
<path d="M207.092 252.379L210.235 255.521L215.426 250.262" stroke="#333333" stroke-width="0.605" stroke-linecap="round" stroke-linejoin="round"/>
<path d="M217.74 255.521H258.719" stroke="#333333" stroke-width="0.605" stroke-linecap="round" stroke-linejoin="round"/>
<path d="M207.092 266.169L210.235 269.334L215.426 264.118" stroke="#333333" stroke-width="0.605" stroke-linecap="round" stroke-linejoin="round"/>
<path d="M251.301 269.334H258.718" stroke="#333333" stroke-width="0.605" stroke-linecap="round" stroke-linejoin="round"/>
<path d="M217.74 269.334H247.547" stroke="#333333" stroke-width="0.605" stroke-linecap="round" stroke-linejoin="round"/>
<path d="M120.58 255.029C136.871 255.029 150.073 241.827 150.073 225.535C150.073 209.247 136.871 196.042 120.58 196.042C104.289 196.042 91.0859 209.247 91.0859 225.535C91.0859 241.827 104.289 255.029 120.58 255.029Z" fill="#78C7E0" stroke="#333333" stroke-width="0.515625" stroke-linecap="round" stroke-linejoin="round"/>
<path d="M111.95 233.6L104.25 225.9L111.95 218.2" stroke="#333333" stroke-width="0.88" stroke-linecap="round" stroke-linejoin="round"/>
<path d="M128.449 218.2L136.149 225.9L128.449 233.6" stroke="#333333" stroke-width="0.88" stroke-linecap="round" stroke-linejoin="round"/>
<path d="M122.949 218.2L117.449 233.6" stroke="#333333" stroke-width="0.88" stroke-linecap="round" stroke-linejoin="round"/>
<path d="M139.363 273.783C129.024 273.783 120.609 265.368 120.609 255.029" stroke="#333333" stroke-width="0.515625" stroke-linecap="round" stroke-linejoin="round"/>
<path d="M144.175 269.196H142.769C120.662 269.196 102.865 287.086 102.865 309.1V354.999C102.865 362.305 108.671 368.114 115.978 368.114H230.258C237.657 368.114 243.651 362.117 243.651 354.811V308.819C243.651 286.9 225.855 269.101 203.935 269.101H202.249" fill="white"/>
<path d="M144.175 269.196H142.769C120.662 269.196 102.865 287.086 102.865 309.1V354.999C102.865 362.305 108.671 368.114 115.978 368.114H230.258C237.657 368.114 243.651 362.117 243.651 354.811V308.819C243.651 286.9 225.855 269.101 203.935 269.101H202.249" stroke="#333333" stroke-width="0.515625" stroke-linecap="round" stroke-linejoin="round"/>
<path d="M130.59 316.407V301.325" stroke="#333333" stroke-width="0.515625" stroke-linecap="round" stroke-linejoin="round"/>
<path d="M215.926 316.407V301.325" stroke="#333333" stroke-width="0.515625" stroke-linecap="round" stroke-linejoin="round"/>
<path d="M195.036 273.692L196.255 263.576L172.276 260.673L148.483 263.295L150.638 273.597C150.638 277.25 148.294 280.341 145.018 281.465C148.39 294.018 159.911 303.104 173.398 303.104C186.886 303.104 198.222 294.111 201.687 281.654C197.846 280.999 195.036 277.627 195.036 273.692Z" fill="white" stroke="#333333" stroke-width="0.515625" stroke-linecap="round" stroke-linejoin="round"/>
<path d="M201.314 264.886C192.507 237.722 154.011 237.722 145.299 264.886C143.518 270.132 143.425 276.222 144.923 281.465C148.202 280.341 150.543 277.25 150.543 273.597V264.793H195.036V273.597C195.036 277.531 197.847 280.999 201.595 281.842C203.093 276.407 203 270.132 201.314 264.886Z" fill="#48466D" stroke="#333333" stroke-width="0.515625" stroke-linecap="round" stroke-linejoin="round"/>
<path d="M167.217 274.628V287.274" stroke="#333333" stroke-width="0.515625" stroke-linecap="round" stroke-linejoin="round"/>
<path d="M175.178 287.274C175.178 289.522 173.397 291.208 171.151 291.208C168.903 291.208 167.217 289.429 167.217 287.274" stroke="#333333" stroke-width="0.515625" stroke-linecap="round" stroke-linejoin="round"/>
<path d="M130.59 301.325V338.607H215.926V301.325" stroke="#333333" stroke-width="0.515625" stroke-linecap="round" stroke-linejoin="round"/>
<path d="M171.152 338.607V368.114" stroke="#333333" stroke-width="0.515625" stroke-linecap="round" stroke-linejoin="round"/>
<path d="M217.517 368.299H128.904L118.414 316.407H228.103L217.517 368.299Z" fill="#ABEDD8" stroke="#333333" stroke-width="0.515625" stroke-linecap="round" stroke-linejoin="round"/>
<path d="M173.304 350.314C177.754 350.314 181.361 346.71 181.361 342.26C181.361 337.81 177.754 334.204 173.304 334.204C168.854 334.204 165.25 337.81 165.25 342.26C165.25 346.71 168.854 350.314 173.304 350.314Z" fill="#78C7E0" stroke="#333333" stroke-width="0.515625" stroke-linecap="round" stroke-linejoin="round"/>
</g>
</g>
</g>
<defs>
<clipPath id="clip0_78846_397343">
<rect width="346" height="512" rx="24" fill="white"/>
</clipPath>
<clipPath id="clip1_78846_397343">
<rect width="375" height="300" fill="white" transform="translate(-14.5 106)"/>
</clipPath>
<clipPath id="clip2_78846_397343">
<rect width="375" height="300" fill="white" transform="translate(-14.5 106)"/>
</clipPath>
</defs>
</svg>
