<svg width="48" height="48" viewBox="0 0 48 48" fill="none" xmlns="http://www.w3.org/2000/svg">
<rect width="48" height="48" rx="24" fill="#F5F5F5"/>
<path fill-rule="evenodd" clip-rule="evenodd" d="M18 22C16.9 22 16 22.9 16 24C16 25.1 16.9 26 18 26C19.1 26 20 25.1 20 24C20 22.9 19.1 22 18 22ZM30 22C28.9 22 28 22.9 28 24C28 25.1 28.9 26 30 26C31.1 26 32 25.1 32 24C32 22.9 31.1 22 30 22ZM24 22C22.9 22 22 22.9 22 24C22 25.1 22.9 26 24 26C25.1 26 26 25.1 26 24C26 22.9 25.1 22 24 22Z" fill="#031F2B"/>
</svg>
