<svg width="24" height="24" viewBox="0 0 24 24" fill="none" xmlns="http://www.w3.org/2000/svg">
<path fill-rule="evenodd" clip-rule="evenodd" d="M4.5 9.5C3.125 9.5 2 10.625 2 12C2 13.375 3.125 14.5 4.5 14.5C5.875 14.5 7 13.375 7 12C7 10.625 5.875 9.5 4.5 9.5ZM19.5 9.5C18.125 9.5 17 10.625 17 12C17 13.375 18.125 14.5 19.5 14.5C20.875 14.5 22 13.375 22 12C22 10.625 20.875 9.5 19.5 9.5ZM12 9.5C10.625 9.5 9.5 10.625 9.5 12C9.5 13.375 10.625 14.5 12 14.5C13.375 14.5 14.5 13.375 14.5 12C14.5 10.625 13.375 9.5 12 9.5Z" fill="#031F2B"/>
</svg>
