<svg width="25" height="24" viewBox="0 0 25 24" fill="none" xmlns="http://www.w3.org/2000/svg">
<g clip-path="url(#clip0_32059_190398)">
<path d="M5.16759 12.2359C3.37457 12.8691 2.16811 14.7354 2.58137 16.8217C2.88798 18.3481 4.10777 19.5879 5.63417 19.9079C8.21373 20.4544 10.5 18.4948 10.5 16.0019C10.5 14.2622 9.38686 12.7824 7.83379 12.2359V9.33636H9.1669C9.9001 9.33636 10.5 8.73646 10.5 8.00325C10.5 7.27005 9.9001 6.67015 9.1669 6.67015H7.83379C7.83379 5.93694 7.2339 5.33705 6.50069 5.33705C5.76748 5.33705 5.16759 5.93694 5.16759 6.67015L5.16759 12.2359ZM7.83379 16.0019C7.83379 16.7351 7.2339 17.335 6.50069 17.335C5.76748 17.335 5.16759 16.7351 5.16759 16.0019C5.16759 15.2687 5.76748 14.6688 6.50069 14.6688C7.2339 14.6688 7.83379 15.2687 7.83379 16.0019Z" fill="#031F2B"/>
<path d="M11.1676 12.2359C9.37457 12.8691 8.16811 14.7354 8.58137 16.8217C8.88798 18.3481 10.1078 19.5879 11.6342 19.9079C14.2137 20.4544 16.5 18.4948 16.5 16.0019C16.5 14.2622 15.3869 12.7824 13.8338 12.2359V9.33636H15.1669C15.9001 9.33636 16.5 8.73646 16.5 8.00325C16.5 7.27005 15.9001 6.67015 15.1669 6.67015H13.8338C13.8338 5.93694 13.2339 5.33705 12.5007 5.33705C11.7675 5.33705 11.1676 5.93694 11.1676 6.67015V12.2359ZM13.8338 16.0019C13.8338 16.7351 13.2339 17.335 12.5007 17.335C11.7675 17.335 11.1676 16.7351 11.1676 16.0019C11.1676 15.2687 11.7675 14.6688 12.5007 14.6688C13.2339 14.6688 13.8338 15.2687 13.8338 16.0019Z" fill="#031F2B"/>
<path d="M22.5 16C22.5 17.1111 22.1111 18.0556 21.3333 18.8333C20.5556 19.6111 19.6111 20 18.5 20C17.3889 20 16.4444 19.6111 15.6667 18.8333C14.8889 18.0556 14.5 17.1111 14.5 16C14.5 15.1333 14.7083 14.4028 15.125 13.8083C15.5417 13.2139 16.0944 12.7722 16.7833 12.4833V6.33333C16.7833 6.05556 16.8806 5.81944 17.075 5.625C17.2694 5.43056 17.5056 5.33333 17.7833 5.33333H19.2167C19.4944 5.33333 19.7306 5.43056 19.925 5.625C20.1194 5.81944 20.2167 6.05556 20.2167 6.33333V7.1H21.5C21.7778 7.1 22.0139 7.19722 22.2083 7.39167C22.4028 7.58611 22.5 7.82222 22.5 8.1V9.2C22.5 9.47778 22.4028 9.71389 22.2083 9.90833C22.0139 10.1028 21.7778 10.2 21.5 10.2H20.2167V12.4833C20.9056 12.7722 21.4583 13.2139 21.875 13.8083C22.2917 14.4028 22.5 15.1333 22.5 16ZM21.5 16C21.5 15.2111 21.2389 14.5639 20.7167 14.0583C20.1944 13.5528 19.6944 13.2556 19.2167 13.1667V9.13333H21.5V8.1H19.2167V6.33333H17.7833V13.1667C17.3056 13.2556 16.8056 13.5528 16.2833 14.0583C15.7611 14.5639 15.5 15.2111 15.5 16C15.5 16.8333 15.7917 17.5417 16.375 18.125C16.9583 18.7083 17.6667 19 18.5 19C19.3333 19 20.0417 18.7083 20.625 18.125C21.2083 17.5417 21.5 16.8333 21.5 16ZM19.6333 16C19.6333 15.6778 19.525 15.4083 19.3083 15.1917C19.0917 14.975 18.8222 14.8667 18.5 14.8667C18.1778 14.8667 17.9083 14.975 17.6917 15.1917C17.475 15.4083 17.3667 15.6778 17.3667 16C17.3667 16.3222 17.475 16.5917 17.6917 16.8083C17.9083 17.025 18.1778 17.1333 18.5 17.1333C18.8222 17.1333 19.0917 17.025 19.3083 16.8083C19.525 16.5917 19.6333 16.3222 19.6333 16Z" fill="#031F2B"/>
</g>
<defs>
<clipPath id="clip0_32059_190398">
<rect width="24" height="24" fill="white" transform="translate(0.5)"/>
</clipPath>
</defs>
</svg>
