<svg width="60" height="60" viewBox="0 0 60 60" fill="none" xmlns="http://www.w3.org/2000/svg">
<path d="M16.875 55C13.625 55 10.8333 53.8333 8.5 51.5C6.16667 49.1667 5 46.375 5 43.125C5 39.875 6.16667 37.0833 8.5 34.75C10.8333 32.4167 13.625 31.25 16.875 31.25C20.125 31.25 22.9167 32.4167 25.25 34.75C27.5833 37.0833 28.75 39.875 28.75 43.125C28.75 46.375 27.5833 49.1667 25.25 51.5C22.9167 53.8333 20.125 55 16.875 55ZM11.8125 48.25C12.0208 48.4583 12.2708 48.5625 12.5625 48.5625C12.8542 48.5625 13.1042 48.4583 13.3125 48.25L16.875 44.6875L20.4375 48.25C20.6458 48.4583 20.875 48.5521 21.125 48.5312C21.375 48.5104 21.6042 48.3958 21.8125 48.1875C22.0208 47.9792 22.125 47.7396 22.125 47.4688C22.125 47.1979 22.0208 46.9583 21.8125 46.75L18.25 43.1875L22 39.4375C22.2083 39.2292 22.3021 38.9896 22.2812 38.7188C22.2604 38.4479 22.1458 38.2083 21.9375 38C21.7292 37.7917 21.5 37.6875 21.25 37.6875C21 37.6875 20.7708 37.7917 20.5625 38L16.875 41.6875L13.1875 38C12.9792 37.7917 12.75 37.6875 12.5 37.6875C12.25 37.6875 12.0208 37.7917 11.8125 38C11.6042 38.2083 11.5 38.4479 11.5 38.7188C11.5 38.9896 11.6042 39.2292 11.8125 39.4375L15.4375 43.125L11.8125 46.75C11.6042 46.9583 11.5 47.2083 11.5 47.5C11.5 47.7917 11.6042 48.0417 11.8125 48.25ZM50.875 51.125L35.8125 36.0625C35.2708 36.5208 34.6354 36.9688 33.9062 37.4062C33.1771 37.8437 32.4583 38.2083 31.75 38.5C31.5417 37.9167 31.3125 37.3229 31.0625 36.7188C30.8125 36.1146 30.5208 35.5625 30.1875 35.0625C32.4375 34.1875 34.3438 32.7396 35.9062 30.7188C37.4688 28.6979 38.25 26.2917 38.25 23.5C38.25 20.125 37.0625 17.2396 34.6875 14.8438C32.3125 12.4479 29.4375 11.25 26.0625 11.25C22.6458 11.25 19.7396 12.4479 17.3438 14.8438C14.9479 17.2396 13.75 20.125 13.75 23.5C13.75 24.2083 13.8229 24.9479 13.9688 25.7188C14.1146 26.4896 14.2917 27.1458 14.5 27.6875C13.9583 27.7708 13.3542 27.9062 12.6875 28.0938C12.0208 28.2812 11.4167 28.5 10.875 28.75C10.5833 28 10.3646 27.1667 10.2188 26.25C10.0729 25.3333 10 24.4167 10 23.5C10 19.0417 11.5625 15.2604 14.6875 12.1563C17.8125 9.05208 21.6042 7.5 26.0625 7.5C30.4792 7.5 34.2396 9.0625 37.3438 12.1875C40.4479 15.3125 42 19.0833 42 23.5C42 25.2917 41.6875 27.0625 41.0625 28.8125C40.4375 30.5625 39.5833 32.0833 38.5 33.375L53.625 48.375C54 48.75 54.1875 49.2083 54.1875 49.75C54.1875 50.2917 54 50.75 53.625 51.125C53.25 51.5 52.7917 51.6875 52.25 51.6875C51.7083 51.6875 51.25 51.5 50.875 51.125Z" fill="#031F2B"/>
</svg>
