<svg width="60" height="60" viewBox="0 0 60 60" fill="none" xmlns="http://www.w3.org/2000/svg">
<g id="notifications_active_black_24dp 1" clip-path="url(#clip0_38796_537061)">
<path id="Vector" d="M30.0031 55C32.7531 55 35.0031 52.75 35.0031 50H25.0031C25.0031 52.75 27.2531 55 30.0031 55ZM45.0031 40V27.5C45.0031 19.825 40.9281 13.4 33.7531 11.7V10C33.7531 7.925 32.0781 6.25 30.0031 6.25C27.9281 6.25 26.2531 7.925 26.2531 10V11.7C19.1031 13.4 15.0031 19.8 15.0031 27.5V40L10.0031 45V47.5H50.0031V45L45.0031 40ZM40.0031 42.5H20.0031V27.5C20.0031 21.3 23.7781 16.25 30.0031 16.25C36.2281 16.25 40.0031 21.3 40.0031 27.5V42.5ZM18.9531 10.2L15.3781 6.625C9.37812 11.2 5.42812 18.25 5.07812 26.25H10.0781C10.4531 19.625 13.8531 13.825 18.9531 10.2ZM49.9281 26.25H54.9281C54.5531 18.25 50.6031 11.2 44.6281 6.625L41.0781 10.2C46.1281 13.825 49.5531 19.625 49.9281 26.25Z" fill="#031F2B"/>
</g>
<defs>
<clipPath id="clip0_38796_537061">
<rect width="60" height="60" fill="white"/>
</clipPath>
</defs>
</svg>
