<svg width="50" height="50" viewBox="0 0 50 50" fill="none" xmlns="http://www.w3.org/2000/svg">
<g clip-path="url(#clip0_72523_40572)">
<path d="M38.1993 16.9487L28.6166 26.5313C28.5534 26.5946 28.4728 26.6376 28.3851 26.655C28.2974 26.6725 28.2065 26.6635 28.1239 26.6292C28.0413 26.5949 27.9707 26.5369 27.9211 26.4625C27.8714 26.3881 27.845 26.3007 27.8451 26.2113V21.7968H22.0308C21.9109 21.7968 21.796 21.7492 21.7112 21.6644C21.6264 21.5797 21.5788 21.4647 21.5788 21.3448V16.9556H16.0105L5.48242 27.5108L11.0211 33.0515L20.5208 23.5493C20.5841 23.4862 20.6647 23.4432 20.7524 23.4258C20.8401 23.4084 20.931 23.4174 21.0136 23.4517C21.0963 23.4859 21.1669 23.5439 21.2166 23.6182C21.2662 23.6926 21.2928 23.78 21.2928 23.8694V28.3511H27.1896C27.3095 28.3512 27.4245 28.3989 27.5092 28.4837C27.594 28.5686 27.6416 28.6836 27.6416 28.8035V33.0406H33.2099L43.738 22.4849L38.1993 16.9487Z" fill="#FFCB2E"/>
</g>
<defs>
<clipPath id="clip0_72523_40572">
<rect width="49" height="49" fill="white" transform="translate(0.111328 0.5)"/>
</clipPath>
</defs>
</svg>
