<svg width="121" height="121" viewBox="0 0 121 121" fill="none" xmlns="http://www.w3.org/2000/svg">
<path d="M109.043 55.1299H28.7764V112.048H109.043V55.1299Z" fill="#ABEDD8" stroke="#333333" stroke-width="0.3" stroke-linecap="round" stroke-linejoin="round"/>
<path d="M0.5625 107.216V105.675H120.562V114.345H0.5625V108.109" fill="#3D84A8"/>
<path d="M0.5625 107.216V105.675H120.563V114.345H0.5625V108.109" stroke="#333333" stroke-width="0.5" stroke-linecap="round" stroke-linejoin="round"/>
<path d="M115.745 63.933C122.168 57.5113 122.168 47.0974 115.745 40.6757C109.32 34.2539 98.9061 34.2539 92.4844 40.6757C86.0612 47.0974 86.0612 57.5113 92.4844 63.933C98.9061 70.3592 109.32 70.3592 115.745 63.933Z" fill="#78C7E0" stroke="#333333" stroke-width="0.3" stroke-linecap="round" stroke-linejoin="round"/>
<path d="M105.966 52.3112H98.9766V45.6846H105.966C107.803 45.6846 109.278 47.1603 109.278 48.9986C109.278 50.8355 107.803 52.3112 105.966 52.3112Z" stroke="#333333" stroke-width="0.5" stroke-linecap="round" stroke-linejoin="round"/>
<path d="M105.966 58.9675H98.9766V52.3408H105.966C107.803 52.3408 109.278 53.8165 109.278 55.6534C109.278 57.4608 107.803 58.9675 105.966 58.9675Z" stroke="#333333" stroke-width="0.5" stroke-linecap="round" stroke-linejoin="round"/>
<path d="M102.107 45.6808V43.1201" stroke="#333333" stroke-width="0.5" stroke-linecap="round" stroke-linejoin="round"/>
<path d="M105.148 45.6808V43.1201" stroke="#333333" stroke-width="0.5" stroke-linecap="round" stroke-linejoin="round"/>
<path d="M102.107 61.4946V58.9648" stroke="#333333" stroke-width="0.5" stroke-linecap="round" stroke-linejoin="round"/>
<path d="M105.148 61.4946V58.9648" stroke="#333333" stroke-width="0.5" stroke-linecap="round" stroke-linejoin="round"/>
<path d="M98.1462 80.0537L44.8008 100.455L44.9319 114.348H98.1462V80.0537Z" fill="white" stroke="#333333" stroke-width="0.5" stroke-linecap="round" stroke-linejoin="round"/>
<path d="M44.6536 91.8035V72.4041C44.6536 63.23 52.037 55.8467 61.2111 55.8467H80.9593C92.6242 55.8467 102.105 65.283 102.105 76.9924V95.8675C102.105 102.071 97.0814 107.053 90.9224 107.053H47.7109H44.6957H24.8164C24.8164 98.6204 31.6333 91.8035 40.1099 91.8035H44.6536Z" fill="white" stroke="#333333" stroke-width="0.5" stroke-linecap="round" stroke-linejoin="round"/>
<path d="M85.2029 107.052H57.7646C57.7646 98.6195 64.5791 91.8026 73.0111 91.8026H85.2029V80.1377" stroke="#333333" stroke-width="0.5" stroke-linecap="round" stroke-linejoin="round"/>
<path d="M51.5068 84.5975V80.0537" stroke="#333333" stroke-width="0.5" stroke-linecap="round" stroke-linejoin="round"/>
<path d="M51.5068 107.055V88.0039" stroke="#333333" stroke-width="0.5" stroke-linecap="round" stroke-linejoin="round"/>
<path d="M76.286 49.9033L76.5062 56.8488C76.5062 59.5152 77.2902 62.4414 79.9121 62.7481C77.7726 66.5918 73.6221 69.3003 68.8582 69.3003C61.8261 69.3003 56.1445 63.5767 56.1445 56.5866C56.1445 54.4891 56.8445 51.9984 57.8042 50.2966L76.286 49.9033Z" fill="white" stroke="#333333" stroke-width="0.5" stroke-linecap="round" stroke-linejoin="round"/>
<path d="M75.3277 57.4618V50.6919H57.5459C59.6409 46.628 63.9225 43.875 68.8175 43.875C75.8075 43.875 81.5312 49.5986 81.5312 56.5886C81.5312 58.8172 80.9623 60.9148 79.958 62.7501C77.2916 62.3568 75.3277 60.1282 75.3277 57.4618Z" fill="#48466D" stroke="#333333" stroke-width="0.5" stroke-linecap="round" stroke-linejoin="round"/>
<path d="M63.1787 54.2295V59.4733" stroke="#333333" stroke-width="0.5" stroke-linecap="round" stroke-linejoin="round"/>
<path d="M63.1787 59.4756C63.1787 60.5243 64.0518 61.3109 65.014 61.3109C66.0628 61.3109 66.8493 60.4798 66.8493 59.4756" stroke="#333333" stroke-width="0.5" stroke-linecap="round" stroke-linejoin="round"/>
<path d="M77.7313 65.6348L68.8193 80.0526" stroke="#333333" stroke-width="0.5" stroke-linecap="round" stroke-linejoin="round"/>
<path d="M59.8555 65.6348L68.8119 80.0526" stroke="#333333" stroke-width="0.5" stroke-linecap="round" stroke-linejoin="round"/>
<path d="M68.8193 80.0537V88.5723" stroke="#333333" stroke-width="0.5" stroke-linecap="round" stroke-linejoin="round"/>
<path d="M18.7708 90.3089C18.6711 90.397 18.5638 90.4761 18.4501 90.5452C17.2106 91.4124 15.7056 91.8163 14.1985 91.6859C12.6914 91.5556 11.2781 90.8996 10.2058 89.8324C9.13362 88.7653 8.47079 87.355 8.33332 85.8485C8.19586 84.342 8.59252 82.8352 9.4539 81.5916C10.3153 80.348 11.5865 79.4469 13.0452 79.046C14.5038 78.645 16.057 78.7699 17.433 79.3985C18.809 80.0271 19.9201 81.1195 20.5719 82.4846C21.2237 83.8498 21.3748 85.4006 20.9986 86.8659" fill="#3D84A8"/>
<path d="M18.7708 90.3089C18.6711 90.397 18.5638 90.4761 18.4501 90.5452C17.2106 91.4124 15.7056 91.8163 14.1985 91.6859C12.6914 91.5556 11.2781 90.8996 10.2058 89.8324C9.13362 88.7653 8.47079 87.355 8.33332 85.8485C8.19586 84.342 8.59252 82.8352 9.4539 81.5916C10.3153 80.348 11.5865 79.4469 13.0452 79.046C14.5038 78.645 16.057 78.7699 17.433 79.3985C18.809 80.0271 19.9201 81.1195 20.5719 82.4846C21.2237 83.8498 21.3748 85.4006 20.9986 86.8659" stroke="#333333" stroke-width="0.3" stroke-linecap="round" stroke-linejoin="round"/>
<path d="M26.524 89.7237C27.8329 89.7271 29.1134 89.3422 30.2033 88.6175C31.2933 87.8928 32.1437 86.861 32.647 85.6527C33.1502 84.4444 33.2837 83.114 33.0304 81.8298C32.7772 80.5457 32.1486 79.3656 31.2243 78.4389C30.3 77.5122 29.1215 76.8805 27.838 76.6239C26.5545 76.3673 25.2237 76.4972 24.0142 76.9973C22.8046 77.4974 21.7706 78.3451 21.0431 79.4332C20.3155 80.5212 19.9272 81.8008 19.9271 83.1096C19.9271 84.8608 20.6216 86.5405 21.8583 87.7804C23.0949 89.0203 24.7728 89.7191 26.524 89.7237Z" fill="#78C7E0" stroke="#333333" stroke-width="0.3"/>
<path d="M27.2163 83.0236L24.5159 83.7494L23.8408 81.184L26.5412 80.4752C26.7129 80.4187 26.8943 80.3981 27.0742 80.4148C27.2542 80.4315 27.4287 80.4851 27.587 80.5722C27.7454 80.6593 27.8841 80.778 27.9945 80.921C28.1049 81.064 28.1848 81.2282 28.229 81.4034C28.2714 81.5764 28.2786 81.7561 28.2504 81.932C28.2221 82.1078 28.159 82.2762 28.0646 82.4273C27.9702 82.5783 27.8465 82.7089 27.7008 82.8113C27.5551 82.9137 27.3904 82.9859 27.2163 83.0236V83.0236Z" stroke="#333333" stroke-width="0.3" stroke-linecap="round" stroke-linejoin="round"/>
<path d="M27.9383 85.6077L25.2378 86.3334L24.5459 83.7681L27.2463 83.0592C27.4178 83.0001 27.5999 82.9775 27.7807 82.993C27.9614 83.0085 28.137 83.0618 28.296 83.1492C28.455 83.2366 28.5939 83.3564 28.7037 83.5008C28.8136 83.6452 28.8921 83.8109 28.934 83.9874C28.979 84.1593 28.9888 84.3386 28.9627 84.5143C28.9366 84.6901 28.8751 84.8588 28.7821 85.0102C28.689 85.1616 28.5663 85.2926 28.4213 85.3953C28.2763 85.498 28.112 85.5702 27.9383 85.6077V85.6077Z" stroke="#333333" stroke-width="0.3" stroke-linecap="round" stroke-linejoin="round"/>
<path d="M25.0874 80.8774L24.8174 79.8984" stroke="#333333" stroke-width="0.3" stroke-linecap="round" stroke-linejoin="round"/>
<path d="M26.2564 80.5759L25.9863 79.5801" stroke="#333333" stroke-width="0.3" stroke-linecap="round" stroke-linejoin="round"/>
<path d="M26.7471 77.8076C27.327 77.8317 27.8983 77.9573 28.4348 78.1789" stroke="#333333" stroke-width="0.3" stroke-linecap="round" stroke-linejoin="round"/>
<path d="M21.5986 81.1275C21.9386 80.2313 22.5152 79.4441 23.2671 78.8497C24.0191 78.2552 24.9182 77.8759 25.8687 77.752" stroke="#333333" stroke-width="0.3" stroke-linecap="round" stroke-linejoin="round"/>
<path d="M15.4017 85.6024L12.752 84.7247L13.579 82.21L16.2287 83.0876C16.3977 83.1389 16.5545 83.2241 16.6895 83.338C16.8244 83.4518 16.9347 83.5921 17.0137 83.75C17.0927 83.9079 17.1386 84.0803 17.1487 84.2566C17.1589 84.4329 17.133 84.6094 17.0726 84.7754C17.0174 84.9395 16.9304 85.0912 16.8165 85.2216C16.7026 85.3521 16.564 85.4588 16.4088 85.5356C16.2536 85.6124 16.0847 85.6579 15.9119 85.6693C15.7391 85.6808 15.5658 85.658 15.4017 85.6024V85.6024Z" stroke="#333333" stroke-width="0.3" stroke-linecap="round" stroke-linejoin="round"/>
<path d="M14.5082 88.1167L11.8584 87.2392L12.6854 84.7412L15.3352 85.602C15.5015 85.6573 15.6553 85.7448 15.7877 85.8596C15.9202 85.9744 16.0287 86.1142 16.1071 86.271C16.1854 86.4277 16.2321 86.5983 16.2445 86.7731C16.2568 86.948 16.2346 87.1235 16.1791 87.2897C16.1239 87.4539 16.0368 87.6055 15.9229 87.736C15.809 87.8665 15.6705 87.9732 15.5152 88.05C15.36 88.1268 15.1912 88.1722 15.0184 88.1837C14.8456 88.1951 14.6722 88.1724 14.5082 88.1167V88.1167Z" stroke="#333333" stroke-width="0.3" stroke-linecap="round" stroke-linejoin="round"/>
<path d="M14.71 82.59L15.0137 81.6279" stroke="#333333" stroke-width="0.3" stroke-linecap="round" stroke-linejoin="round"/>
<path d="M15.8535 82.9916L16.1742 82.0127" stroke="#333333" stroke-width="0.3" stroke-linecap="round" stroke-linejoin="round"/>
<path d="M17.7783 80.9346C18.2656 81.2924 18.6928 81.7254 19.0441 82.2173" stroke="#333333" stroke-width="0.3" stroke-linecap="round" stroke-linejoin="round"/>
<path d="M11.6377 80.9096C12.4148 80.3637 13.3235 80.0352 14.27 79.9581C15.2165 79.8809 16.1664 80.0579 17.0217 80.4707" stroke="#333333" stroke-width="0.3" stroke-linecap="round" stroke-linejoin="round"/>
<path d="M6.79102 101.273V85.6271H32.9007C33.3009 85.5826 33.7061 85.6177 34.0927 85.7304C34.4794 85.8431 34.8399 86.031 35.1536 86.2836C35.4673 86.5361 35.728 86.8482 35.9207 87.2018C36.1134 87.5555 36.2342 87.9438 36.2762 88.3444V108.024C36.2342 108.424 36.1134 108.812 35.9207 109.166C35.728 109.52 35.4673 109.832 35.1536 110.084C34.8399 110.337 34.4794 110.525 34.0927 110.638C33.7061 110.75 33.3009 110.785 32.9007 110.741H6.79102V107.365" fill="white"/>
<path d="M6.79102 101.273V85.6271H32.9007C33.3009 85.5826 33.7061 85.6177 34.0927 85.7304C34.4794 85.8431 34.8399 86.031 35.1536 86.2836C35.4673 86.5361 35.728 86.8482 35.9207 87.2018C36.1134 87.5555 36.2342 87.9438 36.2762 88.3444V108.024C36.2342 108.424 36.1134 108.812 35.9207 109.166C35.728 109.52 35.4673 109.832 35.1536 110.084C34.8399 110.337 34.4794 110.525 34.0927 110.638C33.7061 110.75 33.3009 110.785 32.9007 110.741H6.79102V107.365" stroke="#333333" stroke-width="0.3" stroke-linecap="round" stroke-linejoin="round"/>
<path d="M25.5286 92.6299H37.7648V101.558H25.5286L23.8408 99.8703V94.3007L25.5286 92.6299Z" fill="#46CDCF" stroke="#333333" stroke-width="0.3" stroke-linecap="round" stroke-linejoin="round"/>
<path d="M27.4684 98.596C28.3819 98.596 29.1224 97.8555 29.1224 96.9421C29.1224 96.0286 28.3819 95.2881 27.4684 95.2881C26.5549 95.2881 25.8145 96.0286 25.8145 96.9421C25.8145 97.8555 26.5549 98.596 27.4684 98.596Z" fill="#48466D" stroke="#333333" stroke-width="0.3" stroke-linecap="round" stroke-linejoin="round"/>
</svg>
