<svg width="121" height="121" viewBox="0 0 121 121" fill="none" xmlns="http://www.w3.org/2000/svg">
<path d="M0.5625 68.8225V67.2812H120.562V75.951H0.5625V69.7152" fill="#3D84A8"/>
<path d="M0.5625 68.8225V67.2812H120.563V75.951H0.5625V69.7152" stroke="#333333" stroke-width="0.5" stroke-linecap="round" stroke-linejoin="round"/>
<path d="M92.6224 70.3057H71.0947C71.0947 67.9811 72.9645 66.1113 75.2891 66.1113H88.428C90.7526 66.1113 92.6224 67.9811 92.6224 70.3057Z" fill="#ABEDD8" stroke="#333333" stroke-width="0.5" stroke-linecap="round" stroke-linejoin="round"/>
<path d="M66.3586 21.373H110.98V52.9907H52.748V21.373H59.8734" fill="#ABEDD8"/>
<path d="M66.3586 21.373H110.98V52.9907H52.748V21.373H59.8734" stroke="#333333" stroke-width="0.5" stroke-linecap="round" stroke-linejoin="round"/>
<path d="M81.8447 51.8936V66.1106" stroke="#333333" stroke-linecap="round" stroke-linejoin="round"/>
<path d="M106.753 50.5516C107.386 50.5516 107.898 50.0396 107.898 49.4062C107.898 48.7745 107.386 48.2607 106.753 48.2607C106.12 48.2607 105.607 48.7745 105.607 49.4062C105.607 50.0396 106.12 50.5516 106.753 50.5516Z" fill="#46CDCF" stroke="#333333" stroke-width="0.5" stroke-linecap="round" stroke-linejoin="round"/>
<path d="M73.684 25.1707H73.2891C67.0726 25.1707 62.0674 30.2025 62.0674 36.3939V49.3017C62.0674 51.3561 63.7003 52.9891 65.7547 52.9891H97.8935C99.9745 52.9891 101.661 51.3029 101.661 49.2485V36.314C101.661 30.1492 96.6555 25.1455 90.4907 25.1455H90.0174" fill="white"/>
<path d="M73.684 25.1707H73.2891C67.0726 25.1707 62.0674 30.2025 62.0674 36.3939V49.3017C62.0674 51.3561 63.7003 52.9891 65.7547 52.9891H97.8935C99.9745 52.9891 101.661 51.3029 101.661 49.2485V36.314C101.661 30.1492 96.6555 25.1455 90.4907 25.1455H90.0174" stroke="#333333" stroke-width="0.5" stroke-linecap="round" stroke-linejoin="round"/>
<path d="M69.8643 34.2061V44.6912H93.8622V34.2061" stroke="#333333" stroke-width="0.5" stroke-linecap="round" stroke-linejoin="round"/>
<path d="M87.9893 26.4341L88.3325 23.5899L81.5879 22.7734L74.8966 23.51L75.503 26.4075C75.503 27.4355 74.8448 28.3052 73.9219 28.6202C74.8714 32.1508 78.1106 34.7066 81.9044 34.7066C85.6983 34.7066 88.8857 32.1774 89.8604 28.6735C88.7806 28.4886 87.9893 27.5405 87.9893 26.4341Z" fill="white" stroke="#333333" stroke-width="0.5" stroke-linecap="round" stroke-linejoin="round"/>
<path d="M89.755 23.9561C87.2775 16.3167 76.4507 16.3167 74.0014 23.9561C73.5015 25.4308 73.4748 27.1435 73.8964 28.6182C74.8178 28.3031 75.476 27.4334 75.476 26.4055V23.9295H87.989V26.4055C87.989 27.5118 88.7803 28.4865 89.8334 28.7246C90.2549 27.1968 90.2283 25.4308 89.755 23.9561Z" fill="#48466D" stroke="#333333" stroke-width="0.5" stroke-linecap="round" stroke-linejoin="round"/>
<path d="M71.8892 29.9686H71.0089C69.6467 29.9686 68.541 28.8594 68.541 27.5007V21.8614C68.541 20.5027 69.6467 19.3936 71.0089 19.3936H71.8892C72.7454 19.3936 73.449 20.0972 73.449 20.9533V28.4331C73.4247 29.2615 72.7454 29.9686 71.8892 29.9686Z" fill="#3D84A8" stroke="#333333" stroke-width="0.5" stroke-linecap="round" stroke-linejoin="round"/>
<path d="M91.5773 29.9686H92.4577C93.8199 29.9686 94.9255 28.8594 94.9255 27.5007V21.8614C94.9255 20.5027 93.8199 19.3936 92.4577 19.3936H91.5773C90.7212 19.3936 90.0176 20.0972 90.0176 20.9533V28.4331C90.0176 29.2615 90.7212 29.9686 91.5773 29.9686Z" fill="#3D84A8" stroke="#333333" stroke-width="0.5" stroke-linecap="round" stroke-linejoin="round"/>
<path d="M70.375 20.9863V18.9584C70.375 15.963 73.2727 13.5371 76.8462 13.5371H85.3832C88.9567 13.5371 91.8509 15.963 91.8509 18.9584V20.9863" stroke="#333333" stroke-width="0.5" stroke-linecap="round" stroke-linejoin="round"/>
<path d="M80.1641 26.6973V30.2544" stroke="#333333" stroke-width="0.5" stroke-linecap="round" stroke-linejoin="round"/>
<path d="M82.4019 30.2549C82.4019 30.8864 81.902 31.3612 81.2704 31.3612C80.6374 31.3612 80.1641 30.8598 80.1641 30.2549" stroke="#333333" stroke-width="0.5" stroke-linecap="round" stroke-linejoin="round"/>
<path d="M81.2676 44.6875V52.9851" stroke="#333333" stroke-width="0.5" stroke-linecap="round" stroke-linejoin="round"/>
<path d="M36.2501 51.7197H5.22949L18.9152 87.3898H49.9177L36.2501 51.7197Z" fill="#46CDCF" stroke="#333333" stroke-width="0.5" stroke-linecap="round" stroke-linejoin="round"/>
<path d="M18.2607 85.5781H53.2296C54.2262 85.5781 55.0343 86.3899 55.0343 87.3919C55.0343 88.3939 54.2262 89.2056 53.2296 89.2056H18.2607V85.5781Z" fill="#46CDCF" stroke="#333333" stroke-width="0.5" stroke-linecap="round" stroke-linejoin="round"/>
<path d="M22.5982 89.2207L18.5938 114.349" stroke="#333333" stroke-linecap="round" stroke-linejoin="round"/>
<path d="M50.7031 89.2207L54.7075 114.349" stroke="#333333" stroke-width="0.5" stroke-linecap="round" stroke-linejoin="round"/>
<path d="M17.4248 52.0068H46.0265V71.8767H17.4248V52.0068Z" fill="white" stroke="#333333" stroke-width="0.5" stroke-linecap="round" stroke-linejoin="round"/>
<path d="M32.2842 69.125H50.6936H53.6362C60.6195 69.125 66.2746 74.7801 66.2746 81.7652V84.706V114.257H50.6936V85.371H32.2842V69.125Z" fill="#48466D" stroke="#333333" stroke-width="0.5" stroke-linecap="round" stroke-linejoin="round"/>
<path d="M17.4248 69.125H35.8361H38.6246C44.7925 69.125 50.0128 73.6984 50.8281 79.8282L55.3653 114.257H39.7825L35.8361 85.351H28.8329C22.5309 85.351 17.4248 79.5818 17.4248 73.2816V69.125Z" fill="#48466D" stroke="#333333" stroke-width="0.5" stroke-linecap="round" stroke-linejoin="round"/>
<path d="M41.0499 34.9814H29.4733C23.5899 34.9814 18.54 39.196 17.4963 45.0034L14.9922 58.9518C14.195 63.3929 16.5668 67.8158 20.7035 69.6187L43.7262 79.6388L48.2433 69.0679V65.6524C50.2546 67.6636 53.3675 68.0623 55.8155 66.6018L72.5543 56.5618L66.7289 45.9148L52.5322 54.3983L48.8884 40.9609C47.9208 37.4294 44.7137 34.9814 41.0499 34.9814Z" fill="white" stroke="#333333" stroke-width="0.5" stroke-linecap="round" stroke-linejoin="round"/>
<path d="M40.5703 47.3662H43.7974" stroke="#333333" stroke-width="0.5" stroke-linecap="round" stroke-linejoin="round"/>
<path d="M37.2668 45.2399H35.2013L33.9092 42.5703H38.6455L37.2668 45.2399Z" fill="#78C7E0" stroke="#333333" stroke-width="0.5" stroke-linecap="round" stroke-linejoin="round"/>
<path d="M37.2661 45.2422H35.2006L32.9609 54.0674L36.1901 57.1681L39.4193 54.0674L37.2661 45.2422Z" fill="#78C7E0" stroke="#333333" stroke-width="0.5" stroke-linecap="round" stroke-linejoin="round"/>
<path d="M42.0034 28.5073C42.0034 28.5073 35.6452 24.2746 29.9883 28.9802C28.8124 29.9496 26.4587 32.9666 27.9771 37.1413C29.6096 39.9317 32.7787 41.6204 36.1961 41.1656C42.1737 40.3684 45.3048 33.5735 42.0034 28.5073Z" fill="white" stroke="#333333" stroke-width="0.5" stroke-linecap="round" stroke-linejoin="round"/>
<path d="M39.2656 32.1689L39.57 34.4846" stroke="#333333" stroke-width="0.5" stroke-linecap="round" stroke-linejoin="round"/>
<path d="M37.3887 34.7737C37.4648 35.3807 38.0355 35.7993 38.6226 35.7232C39.2296 35.6471 39.6482 35.0781 39.5721 34.4893" stroke="#333333" stroke-width="0.5" stroke-linecap="round" stroke-linejoin="round"/>
<path d="M34.0079 24.8267C29.5106 25.4138 26.3216 29.5523 26.9286 34.0876C27.0609 35.1313 27.4033 36.175 27.9723 37.1426C29.9654 36.878 31.3697 35.0552 31.1033 33.062L30.7047 30.0071L42.0167 28.5086C40.3099 25.9266 37.2531 24.39 34.0079 24.8267Z" fill="#48466D" stroke="#333333" stroke-width="0.5" stroke-linecap="round" stroke-linejoin="round"/>
<path d="M48.2418 69.0858L26.2266 59.6709" stroke="#333333" stroke-width="0.5" stroke-linecap="round" stroke-linejoin="round"/>
<path d="M26.2266 59.6692C28.997 59.6692 31.2366 57.4297 31.2366 54.6592" stroke="#333333" stroke-width="0.5" stroke-linecap="round" stroke-linejoin="round"/>
<path d="M48.2451 53.9619V52.0068" stroke="#333333" stroke-width="0.5" stroke-linecap="round" stroke-linejoin="round"/>
<path d="M48.2451 65.646V55.5498" stroke="#333333" stroke-width="0.5" stroke-linecap="round" stroke-linejoin="round"/>
<path d="M74.5137 114.347C84.4477 114.347 92.504 106.288 92.504 96.351C92.504 86.412 84.4477 78.3555 74.5137 78.3555C64.5776 78.3555 56.5234 86.412 56.5234 96.351C56.5234 106.288 64.5776 114.347 74.5137 114.347Z" fill="#3D84A8" stroke="#333333" stroke-width="0.3" stroke-linecap="round" stroke-linejoin="round"/>
<path d="M79.4215 87.989C76.6358 87.989 74.3808 86.4914 74.3808 84.665C74.3808 86.5049 72.1276 87.989 69.3419 87.989C68.273 87.989 67.2849 87.7699 66.4697 87.393V99.4413C66.4697 104.007 74.3808 108.706 74.3808 108.706C74.3808 108.706 82.2937 104.007 82.2937 99.4413V87.393C81.4786 87.7564 80.4904 87.989 79.4215 87.989Z" fill="#ABEDD8" stroke="#333333" stroke-width="0.3" stroke-linecap="round" stroke-linejoin="round"/>
<path fill-rule="evenodd" clip-rule="evenodd" d="M78.1918 94.0497C78.2668 94.1248 78.2666 94.2466 78.1914 94.3215L73.1737 99.3258C73.1376 99.3619 73.0885 99.382 73.0374 99.3819C72.9863 99.3817 72.9373 99.3612 72.9014 99.3249L70.5752 96.9756C70.5005 96.9002 70.5011 96.7785 70.5765 96.7038C70.652 96.629 70.7737 96.6296 70.8484 96.7051L73.0388 98.9173L77.9199 94.0493C77.9951 93.9743 78.1168 93.9745 78.1918 94.0497Z" fill="#333333" stroke="black" stroke-width="0.3" stroke-linecap="round" stroke-linejoin="round"/>
<path d="M95.1528 112.983C99.9332 112.983 103.81 109.108 103.81 104.328C103.81 99.5462 99.9332 95.6719 95.1528 95.6719C90.3724 95.6719 86.4971 99.5462 86.4971 104.328C86.4971 109.108 90.3724 112.983 95.1528 112.983Z" fill="#78C7E0"/>
<path d="M96.1196 104.235L92.5048 105.204L91.5869 101.778L95.2017 100.81C96.152 100.555 97.1195 101.114 97.374 102.064C97.6284 103.014 97.0698 103.981 96.1196 104.235Z" stroke="#333333" stroke-width="0.5" stroke-linecap="round" stroke-linejoin="round"/>
<path d="M97.0333 107.675L93.4185 108.643L92.501 105.219L96.1158 104.25C97.066 103.996 98.0333 104.554 98.2877 105.503C98.5379 106.437 97.9836 107.42 97.0333 107.675Z" stroke="#333333" stroke-width="0.5" stroke-linecap="round" stroke-linejoin="round"/>
<path d="M93.21 101.343L92.8555 100.021" stroke="#333333" stroke-width="0.5" stroke-linecap="round" stroke-linejoin="round"/>
<path d="M94.7851 100.922L94.4307 99.5986" stroke="#333333" stroke-width="0.5" stroke-linecap="round" stroke-linejoin="round"/>
<path d="M95.3954 109.518L95.0449 108.21" stroke="#333333" stroke-width="0.5" stroke-linecap="round" stroke-linejoin="round"/>
<path d="M96.9716 109.096L96.6211 107.788" stroke="#333333" stroke-width="0.5" stroke-linecap="round" stroke-linejoin="round"/>
<path d="M103.375 107.037C103.32 107.207 103.258 107.378 103.188 107.548C101.408 111.984 96.3753 114.137 91.9386 112.364C87.5018 110.59 85.35 105.55 87.1231 101.113C88.9033 96.6775 93.9366 94.5247 98.3723 96.2977C100.819 97.2813 102.569 99.2483 103.351 101.555" stroke="#333333" stroke-width="0.5" stroke-linecap="round" stroke-linejoin="round"/>
<path d="M103.669 102.792C103.855 103.83 103.855 104.914 103.646 105.982" stroke="#333333" stroke-width="0.5" stroke-linecap="round" stroke-linejoin="round"/>
<path d="M95.4453 97.209C96.2359 97.2399 97.0254 97.403 97.7994 97.7126" stroke="#333333" stroke-width="0.5" stroke-linecap="round" stroke-linejoin="round"/>
<path d="M88.5391 101.677C89.537 99.192 91.7745 97.5737 94.2524 97.2559" stroke="#333333" stroke-width="0.5" stroke-linecap="round" stroke-linejoin="round"/>
</svg>
