<svg width="60" height="60" viewBox="0 0 60 60" fill="none" xmlns="http://www.w3.org/2000/svg">
<g id="pending-transaction-dark">
<g id="Union">
<path d="M17.125 54.3125C21.0417 56.4375 25.3333 57.5 30 57.5C33.5833 57.5 36.9683 56.8542 40.155 55.5625C43.3433 54.2708 46.1567 52.5 48.595 50.25C51.0317 48 53.0317 45.3542 54.595 42.3125C56.1567 39.2708 57.0833 36 57.375 32.5C57.4583 31.8333 57.26 31.25 56.78 30.75C56.3017 30.25 55.7083 30 55 30C54.2917 30 53.6983 30.2392 53.22 30.7175C52.74 31.1975 52.4583 31.7917 52.375 32.5C51.75 38.1667 49.3233 42.9167 45.095 46.75C40.865 50.5833 35.8333 52.5 30 52.5C26.0833 52.5 22.49 51.5833 19.22 49.75C15.9483 47.9167 13.3125 45.5 11.3125 42.5H15C15.7083 42.5 16.3025 42.26 16.7825 41.78C17.2608 41.3017 17.5 40.7083 17.5 40C17.5 39.2917 17.2608 38.6975 16.7825 38.2175C16.3025 37.7392 15.7083 37.5 15 37.5H5C4.29167 37.5 3.69833 37.7392 3.22 38.2175C2.74 38.6975 2.5 39.2917 2.5 40V50C2.5 50.7083 2.74 51.3017 3.22 51.78C3.69833 52.26 4.29167 52.5 5 52.5C5.70833 52.5 6.3025 52.26 6.7825 51.78C7.26083 51.3017 7.5 50.7083 7.5 50V45.8125C10 49.3542 13.2083 52.1875 17.125 54.3125Z" fill="#031F2B"/>
<path d="M3.22 29.25C3.69833 29.75 4.29167 30 5 30C5.70833 30 6.3025 29.76 6.7825 29.28C7.26083 28.8017 7.54167 28.2083 7.625 27.5C8.25 21.8333 10.6775 17.0833 14.9075 13.25C19.1358 9.41667 24.1667 7.5 30 7.5C33.9167 7.5 37.51 8.41667 40.78 10.25C44.0517 12.0833 46.6875 14.5 48.6875 17.5H45C44.2917 17.5 43.6983 17.7392 43.22 18.2175C42.74 18.6975 42.5 19.2917 42.5 20C42.5 20.7083 42.74 21.3017 43.22 21.78C43.6983 22.26 44.2917 22.5 45 22.5H55C55.7083 22.5 56.3017 22.26 56.78 21.78C57.26 21.3017 57.5 20.7083 57.5 20V10C57.5 9.29167 57.26 8.6975 56.78 8.2175C56.3017 7.73917 55.7083 7.5 55 7.5C54.2917 7.5 53.6983 7.73917 53.22 8.2175C52.74 8.6975 52.5 9.29167 52.5 10V14.1875C50 10.6458 46.7917 7.8125 42.875 5.6875C38.9583 3.5625 34.6667 2.5 30 2.5C26.4167 2.5 23.0317 3.14583 19.845 4.4375C16.6567 5.72917 13.8433 7.5 11.405 9.75C8.96833 12 6.97917 14.6458 5.4375 17.6875C3.89583 20.7292 2.95833 24 2.625 27.5C2.54167 28.1667 2.74 28.75 3.22 29.25Z" fill="#031F2B"/>
<path fill-rule="evenodd" clip-rule="evenodd" d="M40.2464 24.3C39.933 21.0179 37.1061 19.9161 33.5011 19.5602L33.4938 15L30.7133 15.0036L30.7206 19.4472C30.5383 19.4465 30.3573 19.445 30.1769 19.4436C29.6265 19.4391 29.0817 19.4348 28.5301 19.45L28.5229 15.0064L25.6652 15.0101L25.6724 19.4537L20 19.461L20.007 22.5005C20.007 22.5005 22.0952 22.4426 22.0336 22.4979C23.1651 22.5175 23.5323 23.1648 23.6173 23.7043L23.5955 28.8802L23.6093 36.1525C23.5524 36.5108 23.324 37.0565 22.5543 37.0606C22.5931 37.0846 20.5025 37.0386 20.5025 37.0386L20.036 40.3541L25.5714 40.4634L25.5788 45L28.3417 44.9964L28.3343 40.4599C28.7832 40.4743 29.2311 40.4679 29.6645 40.4617C29.9888 40.4571 30.3054 40.4525 30.6078 40.457L30.6151 44.9935L33.3831 44.99L33.3757 40.4534C38.0756 40.2126 41.3629 39.0713 41.775 34.6772C42.1135 31.1713 40.4754 29.591 37.7823 28.9188C39.4504 28.1164 40.4591 26.6928 40.2464 24.3ZM28.3305 27.9269L28.1901 27.9208V22.4661C28.3489 22.4673 28.5501 22.4629 28.783 22.4579C30.7554 22.4148 35.0009 22.3222 35.0086 25.1934C35.0009 28.2177 30.0128 28.0002 28.3305 27.9269ZM28.1821 36.8189L28.4256 36.8286C30.4966 36.9136 36.3737 37.1546 36.3474 34.1605C36.3721 31.266 31.1654 31.3308 28.8343 31.3598C28.5789 31.363 28.3578 31.3658 28.182 31.3641L28.1821 36.8189Z" fill="#031F2B"/>
</g>
</g>
</svg>
