<svg width="16" height="16" viewBox="0 0 16 16" fill="none" xmlns="http://www.w3.org/2000/svg">
<path d="M11.9974 2.0013H9.8774C9.5974 1.22797 8.86406 0.667969 7.9974 0.667969C7.13073 0.667969 6.3974 1.22797 6.1174 2.0013H3.9974C3.26406 2.0013 2.66406 2.6013 2.66406 3.33464V13.3346C2.66406 14.068 3.26406 14.668 3.9974 14.668H8.07073C7.6774 14.288 7.3574 13.8346 7.12406 13.3346H3.9974V3.33464H5.33073V4.0013C5.33073 4.73464 5.93073 5.33464 6.66406 5.33464H9.33073C10.0641 5.33464 10.6641 4.73464 10.6641 4.0013V3.33464H11.9974V6.7213C12.4707 6.78797 12.9174 6.92797 13.3307 7.1213V3.33464C13.3307 2.6013 12.7307 2.0013 11.9974 2.0013ZM7.9974 3.33464C7.63073 3.33464 7.33073 3.03464 7.33073 2.66797C7.33073 2.3013 7.63073 2.0013 7.9974 2.0013C8.36406 2.0013 8.66406 2.3013 8.66406 2.66797C8.66406 3.03464 8.36406 3.33464 7.9974 3.33464ZM11.3307 8.0013C9.49073 8.0013 7.9974 9.49464 7.9974 11.3346C7.9974 13.1746 9.49073 14.668 11.3307 14.668C13.1707 14.668 14.6641 13.1746 14.6641 11.3346C14.6641 9.49464 13.1707 8.0013 11.3307 8.0013ZM12.1907 12.668L11.0907 11.568C11.0307 11.508 10.9907 11.4213 10.9907 11.3346V9.67464C10.9907 9.48797 11.1374 9.3413 11.3241 9.3413C11.5107 9.3413 11.6574 9.48797 11.6574 9.67464V11.2013L12.6574 12.2013C12.7907 12.3346 12.7907 12.5413 12.6574 12.6746C12.5307 12.8013 12.3241 12.8013 12.1907 12.668Z" fill="#031F2B"/>
</svg>
