<svg width="24" height="24" viewBox="0 0 24 24" fill="none" xmlns="http://www.w3.org/2000/svg">
<path d="M15 1.5C13.8162 1.50106 12.6495 1.78207 11.595 2.32009C10.5406 2.8581 9.62835 3.63787 8.93277 4.59572C8.23719 5.55357 7.778 6.66235 7.5927 7.83153C7.4074 9.00071 7.50125 10.1971 7.86656 11.3231L2.46938 16.7194C2.39975 16.7891 2.34454 16.8718 2.3069 16.9629C2.26926 17.0539 2.24992 17.1515 2.25 17.25V21C2.25 21.1989 2.32902 21.3897 2.46967 21.5303C2.61032 21.671 2.80109 21.75 3 21.75H6.75C6.94891 21.75 7.13968 21.671 7.28033 21.5303C7.42098 21.3897 7.5 21.1989 7.5 21V19.5H9C9.19891 19.5 9.38968 19.421 9.53033 19.2803C9.67098 19.1397 9.75 18.9489 9.75 18.75V17.25H11.25C11.3485 17.2501 11.4461 17.2307 11.5371 17.1931C11.6282 17.1555 11.7109 17.1003 11.7806 17.0306L12.6769 16.1334C13.7077 16.4681 14.7988 16.5754 15.875 16.4479C16.9513 16.3205 17.9871 15.9613 18.9112 15.3951C19.8353 14.8289 20.6257 14.0691 21.228 13.1681C21.8303 12.2671 22.2302 11.2463 22.4001 10.1759C22.5701 9.10556 22.506 8.01108 22.2124 6.96785C21.9187 5.92462 21.4025 4.95743 20.6991 4.13286C19.9958 3.3083 19.1222 2.64595 18.1383 2.19143C17.1544 1.73692 16.0838 1.50102 15 1.5ZM15 15C14.2408 15.0013 13.4883 14.8578 12.7828 14.5772C12.6448 14.5173 12.492 14.5003 12.3442 14.5284C12.1964 14.5565 12.0605 14.6283 11.9541 14.7347L10.9397 15.75H9C8.80109 15.75 8.61032 15.829 8.46967 15.9697C8.32902 16.1103 8.25 16.3011 8.25 16.5V18H6.75C6.55109 18 6.36032 18.079 6.21967 18.2197C6.07902 18.3603 6 18.5511 6 18.75V20.25H3.75V17.5603L9.26531 12.0459C9.37165 11.9395 9.44354 11.8036 9.47162 11.6558C9.49971 11.508 9.4827 11.3552 9.42281 11.2172C8.94852 10.0245 8.86918 8.71124 9.19643 7.47017C9.52368 6.2291 10.2403 5.12568 11.241 4.32197C12.2417 3.51827 13.4737 3.05663 14.7562 3.00488C16.0386 2.95313 17.3039 3.31398 18.3661 4.03444C19.4283 4.7549 20.2315 5.79699 20.6577 7.00765C21.0839 8.21832 21.1106 9.53374 20.734 10.7607C20.3573 11.9877 19.5971 13.0616 18.5651 13.8246C17.533 14.5876 16.2835 14.9996 15 15ZM18 7.125C18 7.3475 17.934 7.56501 17.8104 7.75002C17.6868 7.93502 17.5111 8.07922 17.3055 8.16436C17.1 8.24951 16.8738 8.27179 16.6555 8.22838C16.4373 8.18498 16.2368 8.07783 16.0795 7.9205C15.9222 7.76316 15.815 7.56271 15.7716 7.34448C15.7282 7.12625 15.7505 6.90005 15.8356 6.69448C15.9208 6.48891 16.065 6.31321 16.25 6.1896C16.435 6.06598 16.6525 6 16.875 6C17.1734 6 17.4595 6.11853 17.6705 6.3295C17.8815 6.54048 18 6.82663 18 7.125Z" fill="#031F2B"/>
</svg>
