<svg width="16" height="16" viewBox="0 0 16 16" fill="none" xmlns="http://www.w3.org/2000/svg">
<path d="M12.75 4.7275V2.5C12.75 2.16848 12.6183 1.85054 12.3839 1.61612C12.1495 1.3817 11.8315 1.25 11.5 1.25H4.5C4.16848 1.25 3.85054 1.3817 3.61612 1.61612C3.3817 1.85054 3.25 2.16848 3.25 2.5V4.75C3.25048 4.94397 3.29588 5.1352 3.38262 5.30869C3.46937 5.48218 3.59511 5.63323 3.75 5.75L6.75 8L3.75 10.25C3.59511 10.3668 3.46937 10.5178 3.38262 10.6913C3.29588 10.8648 3.25048 11.056 3.25 11.25V13.5C3.25 13.8315 3.3817 14.1495 3.61612 14.3839C3.85054 14.6183 4.16848 14.75 4.5 14.75H11.5C11.8315 14.75 12.1495 14.6183 12.3839 14.3839C12.6183 14.1495 12.75 13.8315 12.75 13.5V11.2725C12.7498 11.0789 12.7049 10.8879 12.6189 10.7144C12.5328 10.541 12.4078 10.3898 12.2537 10.2725L9.24375 8L12.2537 5.725C12.4075 5.608 12.5323 5.45716 12.6183 5.28417C12.7044 5.11119 12.7494 4.92071 12.75 4.7275ZM11.25 2.75V4.5H4.75V2.75H11.25ZM8 7.0625L6.58313 6H9.40187L8 7.0625ZM11.25 13.25H4.75V11.375L7.25 9.5V10.5C7.25 10.6989 7.32902 10.8897 7.46967 11.0303C7.61032 11.171 7.80109 11.25 8 11.25C8.19891 11.25 8.38968 11.171 8.53033 11.0303C8.67098 10.8897 8.75 10.6989 8.75 10.5V9.50688L11.25 11.3969V13.25Z" fill="#031F2B"/>
</svg>
