<svg width="97" height="97" viewBox="0 0 97 97" fill="none" xmlns="http://www.w3.org/2000/svg">
<circle cx="48.2734" cy="48.4238" r="48" fill="#F5F5F5"/>
<path d="M44.0422 20.9238C43.4812 20.9238 42.9431 21.1467 42.5464 21.5434C42.1497 21.9401 41.9268 22.4782 41.9268 23.0392C41.9268 33.7367 27.1191 42.0777 27.1191 56.8854C27.1191 68.1346 39.3112 75.4075 43.6043 75.8784C43.7483 75.9087 43.8951 75.924 44.0422 75.9238C44.6033 75.9238 45.1413 75.701 45.538 75.3042C45.9347 74.9075 46.1576 74.3695 46.1576 73.8084C46.1574 73.4942 46.0873 73.184 45.9522 72.9002C45.8171 72.6165 45.6205 72.3664 45.3767 72.1682V72.1641C43.4517 70.6029 39.8114 66.0739 39.8114 61.9383C39.8114 55.1501 46.1576 52.6546 46.1576 52.6546C42.5382 62.8931 54.3979 64.1301 56.7841 74.2671H56.7882C56.8925 74.7364 57.1535 75.1562 57.5282 75.4574C57.903 75.7585 58.3691 75.9231 58.8499 75.9238C59.2954 75.9227 59.7292 75.781 60.0894 75.5189C60.1275 75.4913 60.1647 75.4623 60.2009 75.4322C60.5452 75.2086 69.4268 69.3345 69.4268 56.8854C69.4268 51.8029 66.8848 43.073 65.0556 39.2062L65.0515 39.1938L65.0473 39.1855C64.8915 38.7909 64.6207 38.4523 64.27 38.2136C63.9193 37.9748 63.5049 37.8471 63.0807 37.8469C62.5866 37.8474 62.1083 38.0207 61.7288 38.3369C61.3492 38.6531 61.0922 39.0922 61.0025 39.578V39.5863C60.9973 39.6094 60.0257 43.9245 56.7345 46.3084C56.7345 36.3415 49.5388 26.0465 45.7444 21.7873C45.6875 21.7102 45.6254 21.6371 45.5585 21.5684C45.3617 21.365 45.1262 21.2031 44.8657 21.0924C44.6052 20.9817 44.3252 20.9244 44.0422 20.9238Z" fill="#031F2B"/>
</svg>
