<svg width="346" height="512" viewBox="0 0 346 512" fill="none" xmlns="http://www.w3.org/2000/svg">
<rect width="346" height="512" rx="24" fill="#D0E2FF"/>
<rect x="93.5855" y="217.405" width="158.777" height="165.277" rx="7.2384" fill="#48466D" stroke="#333333" stroke-width="1.1232"/>
<rect x="100.086" y="225.21" width="147.077" height="152.277" rx="4.6384" fill="#78C7E0" stroke="#333333" stroke-width="1.1232"/>
<rect x="236.024" y="294.414" width="17.0122" height="31.2" transform="rotate(90 236.024 294.414)" fill="#46CDCF" stroke="#333333" stroke-width="0.78" stroke-linecap="round" stroke-linejoin="round"/>
<rect x="236.024" y="321.664" width="17.0122" height="29.9" transform="rotate(90 236.024 321.664)" fill="#46CDCF" stroke="#333333" stroke-width="0.78" stroke-linecap="round" stroke-linejoin="round"/>
<rect x="236.024" y="348.906" width="17.0122" height="29.9" transform="rotate(90 236.024 348.906)" fill="#46CDCF" stroke="#333333" stroke-width="0.78" stroke-linecap="round" stroke-linejoin="round"/>
<rect x="139.824" y="294.414" width="17.0122" height="29.9" transform="rotate(90 139.824 294.414)" fill="#46CDCF" stroke="#333333" stroke-width="0.78" stroke-linecap="round" stroke-linejoin="round"/>
<rect x="139.824" y="321.664" width="17.0122" height="29.9" transform="rotate(90 139.824 321.664)" fill="#46CDCF" stroke="#333333" stroke-width="0.78" stroke-linecap="round" stroke-linejoin="round"/>
<rect x="139.824" y="348.906" width="17.0122" height="29.9" transform="rotate(90 139.824 348.906)" fill="#46CDCF" stroke="#333333" stroke-width="0.78" stroke-linecap="round" stroke-linejoin="round"/>
<rect x="187.924" y="294.414" width="17.0122" height="29.9" transform="rotate(90 187.924 294.414)" fill="#46CDCF" stroke="#333333" stroke-width="0.78" stroke-linecap="round" stroke-linejoin="round"/>
<rect x="187.924" y="321.664" width="17.0122" height="29.9" transform="rotate(90 187.924 321.664)" fill="#46CDCF" stroke="#333333" stroke-width="0.78" stroke-linecap="round" stroke-linejoin="round"/>
<rect x="187.924" y="348.906" width="17.0122" height="29.9" transform="rotate(90 187.924 348.906)" fill="#46CDCF" stroke="#333333" stroke-width="0.78" stroke-linecap="round" stroke-linejoin="round"/>
<rect x="108.624" y="234.609" width="128.7" height="48.1" fill="#3D84A8" stroke="#333333" stroke-width="0.78" stroke-linecap="round" stroke-linejoin="round"/>
<rect x="91.7236" y="159.648" width="161.2" height="32.5" rx="16.25" fill="#CF4018"/>
<path d="M110.938 179.097L113.569 181.101C113.699 181.201 113.828 181.205 113.957 181.111C114.087 181.018 114.123 180.892 114.065 180.734L113.008 177.481L115.618 175.629C115.747 175.542 115.791 175.424 115.747 175.273C115.704 175.122 115.604 175.047 115.446 175.047H112.254L111.24 171.686C111.197 171.528 111.096 171.449 110.938 171.449C110.78 171.449 110.679 171.528 110.636 171.686L109.601 175.047H106.409C106.251 175.047 106.15 175.122 106.107 175.273C106.064 175.424 106.107 175.542 106.236 175.629L108.846 177.481L107.811 180.756C107.753 180.9 107.789 181.018 107.919 181.111C108.048 181.205 108.177 181.201 108.307 181.101L110.938 179.097ZM110.938 185.172C109.716 185.172 108.58 184.953 107.53 184.515C106.481 184.077 105.568 183.47 104.791 182.695C104.015 181.919 103.407 181.007 102.969 179.959C102.53 178.91 102.311 177.776 102.311 176.555C102.311 175.348 102.53 174.221 102.969 173.173C103.407 172.124 104.015 171.212 104.791 170.437C105.568 169.661 106.481 169.051 107.53 168.605C108.58 168.16 109.716 167.938 110.938 167.938C112.146 167.938 113.274 168.16 114.324 168.605C115.374 169.051 116.287 169.661 117.063 170.437C117.839 171.212 118.451 172.124 118.896 173.173C119.342 174.221 119.565 175.348 119.565 176.555C119.565 177.776 119.342 178.91 118.896 179.959C118.451 181.007 117.839 181.919 117.063 182.695C116.287 183.47 115.374 184.077 114.324 184.515C113.274 184.953 112.146 185.172 110.938 185.172Z" fill="white"/>
<path d="M129.201 180.834H127.217V170.276H129.201V180.834Z" fill="white"/>
<path d="M133.462 174.263C133.614 174.112 133.773 173.973 133.94 173.847C134.111 173.715 134.29 173.606 134.476 173.518C134.667 173.426 134.87 173.355 135.086 173.306C135.301 173.253 135.536 173.226 135.791 173.226C136.202 173.226 136.567 173.297 136.885 173.438C137.204 173.574 137.468 173.769 137.679 174.022C137.894 174.27 138.056 174.57 138.164 174.92C138.276 175.266 138.333 175.648 138.333 176.066V180.834H136.518V176.066C136.518 175.609 136.413 175.256 136.202 175.008C135.992 174.754 135.671 174.628 135.24 174.628C134.927 174.628 134.633 174.699 134.358 174.84C134.084 174.981 133.825 175.173 133.58 175.416V180.834H131.765V173.343H132.875C133.11 173.343 133.264 173.452 133.337 173.671L133.462 174.263Z" fill="white"/>
<path d="M142.46 174.146C142.754 173.873 143.077 173.652 143.43 173.482C143.783 173.311 144.196 173.226 144.672 173.226C145.083 173.226 145.448 173.297 145.766 173.438C146.084 173.574 146.349 173.769 146.559 174.022C146.775 174.27 146.937 174.57 147.044 174.92C147.157 175.266 147.213 175.648 147.213 176.066V180.834H145.399V176.066C145.399 175.609 145.293 175.256 145.083 175.008C144.872 174.754 144.552 174.628 144.121 174.628C143.807 174.628 143.513 174.699 143.239 174.84C142.965 174.981 142.705 175.173 142.46 175.416V180.834H140.646V169.984H142.46V174.146Z" fill="white"/>
<path d="M154.382 176.227C154.382 175.993 154.348 175.774 154.279 175.57C154.216 175.36 154.118 175.178 153.986 175.022C153.853 174.866 153.684 174.745 153.479 174.657C153.278 174.565 153.043 174.518 152.773 174.518C152.249 174.518 151.836 174.667 151.532 174.964C151.233 175.261 151.042 175.682 150.959 176.227H154.382ZM150.922 177.315C150.952 177.699 151.02 178.033 151.128 178.315C151.236 178.592 151.378 178.824 151.554 179.009C151.73 179.189 151.938 179.325 152.178 179.418C152.423 179.505 152.693 179.549 152.986 179.549C153.28 179.549 153.533 179.515 153.743 179.447C153.959 179.379 154.145 179.303 154.301 179.22C154.463 179.138 154.603 179.062 154.72 178.994C154.843 178.926 154.96 178.892 155.073 178.892C155.225 178.892 155.337 178.948 155.411 179.06L155.932 179.717C155.731 179.95 155.506 180.148 155.256 180.308C155.007 180.464 154.745 180.591 154.47 180.688C154.201 180.78 153.924 180.846 153.64 180.885C153.361 180.924 153.089 180.943 152.825 180.943C152.301 180.943 151.814 180.858 151.363 180.688C150.912 180.513 150.521 180.257 150.188 179.921C149.855 179.581 149.593 179.162 149.402 178.665C149.211 178.164 149.115 177.585 149.115 176.928C149.115 176.417 149.198 175.937 149.365 175.489C149.531 175.037 149.769 174.645 150.077 174.314C150.391 173.978 150.77 173.713 151.216 173.518C151.667 173.323 152.174 173.226 152.737 173.226C153.212 173.226 153.65 173.302 154.052 173.452C154.453 173.603 154.798 173.825 155.087 174.117C155.376 174.404 155.602 174.759 155.763 175.183C155.93 175.601 156.013 176.081 156.013 176.621C156.013 176.894 155.984 177.079 155.925 177.176C155.866 177.269 155.753 177.315 155.587 177.315H150.922Z" fill="white"/>
<path d="M159.674 174.643C159.909 174.195 160.188 173.844 160.511 173.591C160.835 173.333 161.217 173.204 161.657 173.204C162.005 173.204 162.284 173.28 162.495 173.431L162.377 174.781C162.353 174.869 162.316 174.932 162.267 174.971C162.223 175.005 162.162 175.022 162.083 175.022C162.01 175.022 161.9 175.01 161.753 174.986C161.611 174.961 161.471 174.949 161.334 174.949C161.133 174.949 160.955 174.978 160.798 175.037C160.641 175.095 160.499 175.18 160.372 175.292C160.249 175.399 160.139 175.531 160.041 175.687C159.948 175.842 159.86 176.02 159.777 176.22V180.834H157.962V173.343H159.028C159.214 173.343 159.343 173.377 159.417 173.445C159.49 173.508 159.539 173.625 159.564 173.796L159.674 174.643Z" fill="white"/>
<path d="M165.911 173.343V180.834H164.09V173.343H165.911ZM166.161 171.16C166.161 171.316 166.129 171.462 166.066 171.598C166.002 171.734 165.916 171.853 165.809 171.956C165.706 172.058 165.583 172.141 165.441 172.204C165.299 172.262 165.147 172.292 164.986 172.292C164.829 172.292 164.68 172.262 164.538 172.204C164.401 172.141 164.281 172.058 164.178 171.956C164.075 171.853 163.992 171.734 163.928 171.598C163.869 171.462 163.84 171.316 163.84 171.16C163.84 170.999 163.869 170.848 163.928 170.707C163.992 170.566 164.075 170.444 164.178 170.342C164.281 170.24 164.401 170.16 164.538 170.101C164.68 170.038 164.829 170.006 164.986 170.006C165.147 170.006 165.299 170.038 165.441 170.101C165.583 170.16 165.706 170.24 165.809 170.342C165.916 170.444 166.002 170.566 166.066 170.707C166.129 170.848 166.161 170.999 166.161 171.16Z" fill="white"/>
<path d="M170.861 180.951C170.205 180.951 169.701 180.768 169.348 180.403C169 180.033 168.826 179.525 168.826 178.877V174.694H168.055C167.957 174.694 167.874 174.662 167.805 174.599C167.737 174.535 167.702 174.441 167.702 174.314V173.598L168.914 173.401L169.296 171.357C169.321 171.26 169.367 171.184 169.436 171.131C169.505 171.077 169.593 171.05 169.701 171.05H170.641V173.409H172.654V174.694H170.641V178.753C170.641 178.987 170.697 179.169 170.81 179.301C170.927 179.432 171.086 179.498 171.287 179.498C171.4 179.498 171.493 179.486 171.566 179.461C171.645 179.432 171.711 179.403 171.765 179.374C171.824 179.344 171.875 179.318 171.919 179.293C171.963 179.264 172.007 179.25 172.051 179.25C172.105 179.25 172.149 179.264 172.183 179.293C172.218 179.318 172.254 179.357 172.294 179.41L172.837 180.286C172.573 180.505 172.269 180.671 171.926 180.783C171.584 180.895 171.228 180.951 170.861 180.951Z" fill="white"/>
<path d="M178.384 177.636C177.86 177.66 177.42 177.707 177.062 177.775C176.705 177.838 176.418 177.921 176.203 178.023C175.987 178.125 175.833 178.244 175.74 178.381C175.647 178.517 175.6 178.665 175.6 178.826C175.6 179.142 175.693 179.369 175.88 179.505C176.071 179.641 176.318 179.71 176.621 179.71C176.994 179.71 177.314 179.644 177.584 179.512C177.858 179.376 178.125 179.172 178.384 178.899V177.636ZM174.227 174.387C175.093 173.598 176.137 173.204 177.356 173.204C177.797 173.204 178.191 173.277 178.539 173.423C178.886 173.564 179.18 173.764 179.42 174.022C179.66 174.275 179.841 174.579 179.964 174.935C180.091 175.29 180.155 175.679 180.155 176.103V180.834H179.332C179.161 180.834 179.028 180.81 178.935 180.761C178.842 180.707 178.769 180.603 178.715 180.447L178.553 179.907C178.362 180.077 178.176 180.228 177.995 180.359C177.814 180.486 177.625 180.593 177.43 180.681C177.234 180.768 177.023 180.834 176.798 180.878C176.577 180.926 176.333 180.951 176.063 180.951C175.745 180.951 175.451 180.909 175.182 180.827C174.912 180.739 174.68 180.61 174.484 180.44C174.288 180.269 174.136 180.058 174.028 179.804C173.921 179.551 173.867 179.257 173.867 178.921C173.867 178.731 173.899 178.544 173.962 178.359C174.026 178.169 174.129 177.989 174.271 177.819C174.418 177.648 174.606 177.488 174.836 177.337C175.067 177.186 175.348 177.054 175.681 176.942C176.019 176.83 176.411 176.74 176.857 176.672C177.302 176.599 177.812 176.555 178.384 176.541V176.103C178.384 175.601 178.277 175.231 178.061 174.993C177.846 174.75 177.535 174.628 177.128 174.628C176.834 174.628 176.59 174.662 176.394 174.73C176.203 174.798 176.034 174.876 175.887 174.964C175.74 175.047 175.605 175.122 175.483 175.19C175.365 175.258 175.233 175.292 175.086 175.292C174.959 175.292 174.851 175.261 174.763 175.197C174.675 175.129 174.604 175.051 174.55 174.964L174.227 174.387Z" fill="white"/>
<path d="M184.148 174.263C184.3 174.112 184.459 173.973 184.626 173.847C184.797 173.715 184.976 173.606 185.162 173.518C185.353 173.426 185.556 173.355 185.772 173.306C185.987 173.253 186.222 173.226 186.477 173.226C186.888 173.226 187.253 173.297 187.572 173.438C187.89 173.574 188.154 173.769 188.365 174.022C188.58 174.27 188.742 174.57 188.85 174.92C188.962 175.266 189.019 175.648 189.019 176.066V180.834H187.204V176.066C187.204 175.609 187.099 175.256 186.888 175.008C186.678 174.754 186.357 174.628 185.926 174.628C185.613 174.628 185.319 174.699 185.045 174.84C184.77 174.981 184.511 175.173 184.266 175.416V180.834H182.451V173.343H183.561C183.796 173.343 183.95 173.452 184.023 173.671L184.148 174.263Z" fill="white"/>
<path d="M196.731 174.927C196.677 174.995 196.624 175.049 196.57 175.088C196.521 175.127 196.447 175.146 196.349 175.146C196.256 175.146 196.166 175.12 196.077 175.066C195.989 175.008 195.884 174.944 195.762 174.876C195.639 174.803 195.492 174.74 195.321 174.686C195.154 174.628 194.946 174.599 194.696 174.599C194.378 174.599 194.099 174.657 193.859 174.774C193.619 174.886 193.418 175.049 193.257 175.263C193.1 175.477 192.982 175.738 192.904 176.044C192.826 176.346 192.786 176.689 192.786 177.074C192.786 177.473 192.828 177.828 192.911 178.14C193 178.451 193.124 178.714 193.286 178.928C193.448 179.138 193.644 179.298 193.874 179.41C194.104 179.517 194.363 179.571 194.652 179.571C194.941 179.571 195.174 179.537 195.35 179.469C195.531 179.396 195.683 179.318 195.806 179.235C195.928 179.147 196.033 179.069 196.122 179.001C196.215 178.928 196.317 178.892 196.43 178.892C196.577 178.892 196.687 178.948 196.761 179.06L197.282 179.717C197.081 179.95 196.864 180.148 196.628 180.308C196.393 180.464 196.148 180.591 195.894 180.688C195.644 180.78 195.385 180.846 195.115 180.885C194.851 180.924 194.586 180.943 194.322 180.943C193.857 180.943 193.418 180.858 193.007 180.688C192.595 180.513 192.236 180.26 191.927 179.929C191.618 179.598 191.374 179.194 191.192 178.717C191.016 178.235 190.928 177.687 190.928 177.074C190.928 176.524 191.006 176.015 191.163 175.548C191.325 175.076 191.56 174.669 191.868 174.329C192.177 173.983 192.559 173.713 193.014 173.518C193.47 173.323 193.994 173.226 194.586 173.226C195.149 173.226 195.642 173.316 196.063 173.496C196.489 173.676 196.871 173.934 197.209 174.27L196.731 174.927Z" fill="white"/>
<path d="M203.734 176.227C203.734 175.993 203.7 175.774 203.631 175.57C203.567 175.36 203.469 175.178 203.337 175.022C203.205 174.866 203.036 174.745 202.83 174.657C202.63 174.565 202.395 174.518 202.125 174.518C201.601 174.518 201.187 174.667 200.884 174.964C200.585 175.261 200.394 175.682 200.311 176.227H203.734ZM200.274 177.315C200.303 177.699 200.372 178.033 200.48 178.315C200.587 178.592 200.729 178.824 200.906 179.009C201.082 179.189 201.29 179.325 201.53 179.418C201.775 179.505 202.044 179.549 202.338 179.549C202.632 179.549 202.884 179.515 203.095 179.447C203.31 179.379 203.496 179.303 203.653 179.22C203.815 179.138 203.954 179.062 204.072 178.994C204.194 178.926 204.312 178.892 204.424 178.892C204.576 178.892 204.689 178.948 204.762 179.06L205.284 179.717C205.083 179.95 204.858 180.148 204.608 180.308C204.358 180.464 204.096 180.591 203.822 180.688C203.553 180.78 203.276 180.846 202.992 180.885C202.713 180.924 202.441 180.943 202.177 180.943C201.653 180.943 201.165 180.858 200.715 180.688C200.264 180.513 199.872 180.257 199.539 179.921C199.206 179.581 198.944 179.162 198.753 178.665C198.562 178.164 198.467 177.585 198.467 176.928C198.467 176.417 198.55 175.937 198.717 175.489C198.883 175.037 199.121 174.645 199.429 174.314C199.743 173.978 200.122 173.713 200.568 173.518C201.018 173.323 201.525 173.226 202.088 173.226C202.563 173.226 203.002 173.302 203.403 173.452C203.805 173.603 204.15 173.825 204.439 174.117C204.728 174.404 204.953 174.759 205.115 175.183C205.281 175.601 205.365 176.081 205.365 176.621C205.365 176.894 205.335 177.079 205.277 177.176C205.218 177.269 205.105 177.315 204.939 177.315H200.274Z" fill="white"/>
<path d="M213.737 174.701H214.2C214.386 174.701 214.54 174.677 214.662 174.628C214.785 174.574 214.89 174.492 214.978 174.38L217.909 170.693C218.032 170.537 218.159 170.43 218.291 170.371C218.428 170.308 218.6 170.276 218.806 170.276H220.51L216.932 174.664C216.722 174.932 216.504 175.122 216.279 175.234C216.44 175.292 216.585 175.375 216.712 175.482C216.844 175.584 216.969 175.721 217.087 175.891L220.774 180.834H219.033C218.798 180.834 218.622 180.802 218.504 180.739C218.392 180.671 218.296 180.574 218.218 180.447L215.213 176.548C215.12 176.417 215.013 176.324 214.89 176.271C214.768 176.217 214.591 176.19 214.361 176.19H213.737V180.834H211.761V170.276H213.737V174.701Z" fill="white"/>
<path d="M226.444 176.227C226.444 175.993 226.41 175.774 226.342 175.57C226.278 175.36 226.18 175.178 226.048 175.022C225.916 174.866 225.747 174.745 225.541 174.657C225.34 174.565 225.105 174.518 224.836 174.518C224.312 174.518 223.898 174.667 223.594 174.964C223.295 175.261 223.104 175.682 223.021 176.227H226.444ZM222.985 177.315C223.014 177.699 223.082 178.033 223.19 178.315C223.298 178.592 223.44 178.824 223.616 179.009C223.793 179.189 224.001 179.325 224.241 179.418C224.486 179.505 224.755 179.549 225.049 179.549C225.343 179.549 225.595 179.515 225.805 179.447C226.021 179.379 226.207 179.303 226.364 179.22C226.525 179.138 226.665 179.062 226.782 178.994C226.905 178.926 227.022 178.892 227.135 178.892C227.287 178.892 227.399 178.948 227.473 179.06L227.994 179.717C227.794 179.95 227.568 180.148 227.319 180.308C227.069 180.464 226.807 180.591 226.533 180.688C226.263 180.78 225.987 180.846 225.703 180.885C225.423 180.924 225.152 180.943 224.887 180.943C224.363 180.943 223.876 180.858 223.425 180.688C222.975 180.513 222.583 180.257 222.25 179.921C221.917 179.581 221.655 179.162 221.464 178.665C221.273 178.164 221.177 177.585 221.177 176.928C221.177 176.417 221.261 175.937 221.427 175.489C221.594 175.037 221.831 174.645 222.14 174.314C222.453 173.978 222.833 173.713 223.278 173.518C223.729 173.323 224.236 173.226 224.799 173.226C225.274 173.226 225.712 173.302 226.114 173.452C226.515 173.603 226.861 173.825 227.15 174.117C227.439 174.404 227.664 174.759 227.825 175.183C227.992 175.601 228.075 176.081 228.075 176.621C228.075 176.894 228.046 177.079 227.987 177.176C227.928 177.269 227.816 177.315 227.649 177.315H222.985Z" fill="white"/>
<path d="M236.656 173.343L232.549 182.893C232.496 183.019 232.425 183.114 232.336 183.178C232.253 183.246 232.123 183.28 231.947 183.28H230.595L232.006 180.272L228.957 173.343H230.551C230.693 173.343 230.804 173.377 230.882 173.445C230.965 173.513 231.026 173.591 231.066 173.679L232.667 177.563C232.721 177.694 232.765 177.826 232.799 177.957C232.838 178.089 232.875 178.223 232.909 178.359C232.953 178.223 232.998 178.089 233.042 177.957C233.086 177.821 233.135 177.687 233.189 177.556L234.702 173.679C234.741 173.581 234.805 173.501 234.893 173.438C234.986 173.375 235.089 173.343 235.201 173.343H236.656Z" fill="white"/>
<line x1="174.274" y1="180.445" x2="174.274" y2="207.745" stroke="#CF4018" stroke-width="1.3"/>
<rect x="161.924" y="206.445" width="23.4" height="23.4" rx="2.6" fill="#CF4018"/>
</svg>
