<svg width="60" height="60" viewBox="0 0 60 60" fill="none" xmlns="http://www.w3.org/2000/svg">
<path d="M26.675 32.55C26.125 32.525 25.575 32.5 25 32.5C18.95 32.5 13.3 34.175 8.475 37.05C6.275 38.35 5 40.8 5 43.375V47.5C5 48.875 6.125 50 7.5 50H28.15C26.175 47.175 25 43.725 25 40C25 37.325 25.625 34.825 26.675 32.55Z" fill="#031F2B"/>
<path d="M25 30C30.5228 30 35 25.5228 35 20C35 14.4772 30.5228 10 25 10C19.4772 10 15 14.4772 15 20C15 25.5228 19.4772 30 25 30Z" fill="#031F2B"/>
<path d="M45.8852 38.3353C44.5897 34.4131 40.7712 31.774 36.5027 32.678C33.3797 33.3487 30.8431 36.017 30.1885 39.356C29.0702 44.9988 33.0797 50 38.1801 50C41.7394 50 44.767 47.565 45.8852 44.1677H51.8175V47.0838C51.8175 48.6877 53.0449 50 54.545 50C56.0451 50 57.2725 48.6877 57.2725 47.0838V44.1677C58.7726 44.1677 60 42.8554 60 41.2515C60 39.6476 58.7726 38.3353 57.2725 38.3353H45.8852ZM38.1801 44.1677C36.6799 44.1677 35.4526 42.8554 35.4526 41.2515C35.4526 39.6476 36.6799 38.3353 38.1801 38.3353C39.6802 38.3353 40.9076 39.6476 40.9076 41.2515C40.9076 42.8554 39.6802 44.1677 38.1801 44.1677Z" fill="#031F2B"/>
</svg>
