<svg width="36" height="36" viewBox="0 0 36 36" fill="none" xmlns="http://www.w3.org/2000/svg">
<g clip-path="url(#clip0_66076_64857)">
<path d="M10 10H16V16H10V10ZM26 10V16H20V10H26ZM20 21H22V19H20V17H22V19H24V17H26V19H24V21H26V24H24V26H22V24H19V26H17V22H20V21ZM22 21V24H24V21H22ZM10 26V20H16V26H10ZM12 12V14H14V12H12ZM22 12V14H24V12H22ZM12 22V24H14V22H12ZM10 17H12V19H10V17ZM15 17H19V21H17V19H15V17ZM17 12H19V16H17V12ZM8 8V12H6V8C6 7.46957 6.21071 6.96086 6.58579 6.58579C6.96086 6.21071 7.46957 6 8 6H12V8H8ZM28 6C28.5304 6 29.0391 6.21071 29.4142 6.58579C29.7893 6.96086 30 7.46957 30 8V12H28V8H24V6H28ZM8 24V28H12V30H8C7.46957 30 6.96086 29.7893 6.58579 29.4142C6.21071 29.0391 6 28.5304 6 28V24H8ZM28 28V24H30V28C30 28.5304 29.7893 29.0391 29.4142 29.4142C29.0391 29.7893 28.5304 30 28 30H24V28H28Z" fill="#031F2B"/>
</g>
<defs>
<clipPath id="clip0_66076_64857">
<rect width="24" height="24" fill="white" transform="translate(6 6)"/>
</clipPath>
</defs>
</svg>
