<svg width="24" height="24" viewBox="0 0 24 24" fill="none" xmlns="http://www.w3.org/2000/svg">
<path fill-rule="evenodd" clip-rule="evenodd" d="M12 1.99994C6.48 1.99994 2 6.47994 2 11.9999C2 17.5199 6.48 21.9999 12 21.9999C17.52 21.9999 22 17.5199 22 11.9999C22 6.47994 17.52 1.99994 12 1.99994ZM12 19.9999C7.58001 19.9999 4.00001 16.4199 4.00001 11.9999C4.00001 7.57987 7.58001 3.99987 12 3.99987C16.42 3.99987 20 7.57987 20 11.9999C20 16.4199 16.42 19.9999 12 19.9999ZM12 16.9999C14.7614 16.9999 17 14.7613 17 11.9999C17 9.23845 14.7614 6.99987 12 6.99987C9.23858 6.99987 7.00001 9.23845 7.00001 11.9999C7.00001 14.7613 9.23858 16.9999 12 16.9999Z" fill="#031F2B"/>
</svg>
