<svg width="25" height="24" viewBox="0 0 25 24" fill="none" xmlns="http://www.w3.org/2000/svg">
<g clip-path="url(#clip0_52_723)">
<path d="M9.8 14.71C9.41 14.32 8.78 14.32 8.39 14.71L4.5 18.59V13C4.5 12.45 4.05 12 3.5 12C2.95 12 2.5 12.45 2.5 13V21C2.5 21.55 2.95 22 3.5 22H11.5C12.05 22 12.5 21.55 12.5 21C12.5 20.45 12.05 20 11.5 20H5.91L9.8 16.11C10.18 15.73 10.18 15.09 9.8 14.71Z" fill="white"/>
<path fill-rule="evenodd" clip-rule="evenodd" d="M18.6205 4.12855C20.3028 4.29464 21.622 4.80882 21.7683 6.34048C21.8675 7.45709 21.3968 8.12148 20.6183 8.4959C21.8751 8.80959 22.6396 9.54709 22.4816 11.1831C22.2893 13.2337 20.7552 13.7663 18.5619 13.8787L18.5654 15.9958L17.2737 15.9974L17.2702 13.8804C17.1291 13.8783 16.9815 13.8804 16.8301 13.8826H16.83C16.6278 13.8855 16.4188 13.8885 16.2093 13.8817L16.2127 15.9988L14.9234 16.0005L14.9199 13.8834L12.3367 13.8324L12.5544 12.2852C12.5544 12.2852 13.5301 12.3066 13.512 12.2954C13.8711 12.2935 13.9777 12.0389 14.0043 11.8716L13.9979 8.47791L14.008 6.0625C13.9683 5.81073 13.797 5.50864 13.269 5.49947C13.2977 5.47369 12.3232 5.50069 12.3232 5.50069L12.3199 4.08227L14.9671 4.07887L14.9637 2.00517L16.2973 2.00346L16.3007 4.07716C16.5581 4.07003 16.812 4.07207 17.0689 4.07413H17.0689C17.1532 4.07481 17.2378 4.07548 17.3229 4.07584L17.3195 2.00214L18.617 2.00047L18.6205 4.12855ZM16.1419 8.03019L16.2074 8.03301C16.9925 8.06724 19.3203 8.16874 19.3239 6.75742C19.3203 5.41749 17.3392 5.46073 16.4187 5.48082H16.4187C16.31 5.48319 16.2161 5.48524 16.1419 5.48465V8.03019ZM16.2518 12.1872C16.2106 12.1855 16.1726 12.1839 16.1382 12.1826L16.1382 9.63707C16.2202 9.63783 16.3233 9.63655 16.4426 9.63506C17.5304 9.62151 19.9602 9.59126 19.9487 10.9421C19.9609 12.3393 17.2183 12.2268 16.2518 12.1872Z" fill="white"/>
</g>
<defs>
<clipPath id="clip0_52_723">
<rect width="24" height="24" fill="white" transform="translate(0.5)"/>
</clipPath>
</defs>
</svg>
