<svg width="25" height="24" viewBox="0 0 25 24" fill="none" xmlns="http://www.w3.org/2000/svg">
<g clip-path="url(#clip0_58308_79907)">
<path d="M9.8 14.71C9.41 14.32 8.78 14.32 8.39 14.71L4.5 18.59V13C4.5 12.45 4.05 12 3.5 12C2.95 12 2.5 12.45 2.5 13V21C2.5 21.55 2.95 22 3.5 22H11.5C12.05 22 12.5 21.55 12.5 21C12.5 20.45 12.05 20 11.5 20H5.91L9.8 16.11C10.18 15.73 10.18 15.09 9.8 14.71Z" fill="#031F2B"/>
<path fill-rule="evenodd" clip-rule="evenodd" d="M18.6208 4.12808C20.3032 4.29416 21.6224 4.80835 21.7686 6.34001C21.8679 7.45662 21.3972 8.121 20.6187 8.49543C21.8755 8.80912 22.6399 9.54662 22.482 11.1827C22.2897 13.2333 20.7556 13.7659 18.5623 13.8783L18.5657 15.9953L17.274 15.997L17.2706 13.8799C17.1294 13.8778 16.9818 13.88 16.8304 13.8821H16.8304C16.6281 13.885 16.4191 13.888 16.2096 13.8813L16.2131 15.9983L14.9237 16L14.9203 13.8829L12.3371 13.8319L12.5548 12.2847C12.5548 12.2847 13.5304 12.3062 13.5123 12.295C13.8715 12.293 13.9781 12.0384 14.0047 11.8712L13.9982 8.47744L14.0084 6.06203C13.9687 5.81026 13.7974 5.50817 13.2693 5.499C13.2981 5.47321 12.3236 5.50022 12.3236 5.50022L12.3203 4.0818L14.9674 4.0784L14.9641 2.0047L16.2977 2.00298L16.301 4.07668C16.5585 4.06955 16.8124 4.07159 17.0692 4.07366H17.0692C17.1535 4.07433 17.2381 4.07501 17.3232 4.07537L17.3199 2.00167L18.6174 2L18.6208 4.12808ZM16.1423 8.02972L16.2078 8.03254C16.9929 8.06677 19.3207 8.16827 19.3242 6.75695C19.3206 5.41702 17.3396 5.46025 16.4191 5.48034H16.4191C16.3103 5.48272 16.2164 5.48476 16.1423 5.48417V8.02972ZM16.2522 12.1867C16.2109 12.185 16.1729 12.1834 16.1385 12.1821L16.1385 9.6366C16.2205 9.63736 16.3237 9.63607 16.4429 9.63459C17.5308 9.62104 19.9606 9.59079 19.949 10.9416C19.9613 12.3388 17.2187 12.2263 16.2522 12.1867Z" fill="#031F2B"/>
</g>
<defs>
<clipPath id="clip0_58308_79907">
<rect width="24" height="24" fill="white" transform="translate(0.5)"/>
</clipPath>
</defs>
</svg>
