<svg width="346" height="512" viewBox="0 0 346 512" fill="none" xmlns="http://www.w3.org/2000/svg">
<rect width="346" height="512" rx="24" fill="#D0E2FF"/>
<path d="M59.1071 213.25V189.619C59.1071 185.154 62.7559 181.398 67.319 181.398H278.788C283.252 181.398 287 185.056 287 189.619V322.378C287 326.842 283.351 330.598 278.788 330.598H67.2202C62.7559 330.598 59 326.941 59 322.378V256.657" fill="#3D84A8"/>
<rect x="71" y="193.398" width="87" height="22" rx="11" fill="#CF4018"/>
<path d="M83.992 206.562L85.7712 207.918C85.8587 207.986 85.9462 207.989 86.0337 207.926C86.1212 207.862 86.1455 207.777 86.1066 207.67L85.392 205.468L87.1566 204.214C87.2441 204.156 87.2733 204.076 87.2441 203.973C87.2149 203.871 87.1469 203.82 87.0399 203.82H84.8816L84.1962 201.545C84.167 201.438 84.099 201.385 83.992 201.385C83.8851 201.385 83.817 201.438 83.7879 201.545L83.0879 203.82H80.9295C80.8226 203.82 80.7545 203.871 80.7254 203.973C80.6962 204.076 80.7254 204.156 80.8129 204.214L82.5774 205.468L81.8774 207.685C81.8386 207.782 81.8629 207.862 81.9504 207.926C82.0379 207.989 82.1254 207.986 82.2129 207.918L83.992 206.562ZM83.992 210.674C83.1656 210.674 82.3976 210.526 81.6879 210.23C80.9781 209.933 80.3608 209.522 79.8358 208.997C79.3108 208.472 78.9 207.855 78.6035 207.145C78.307 206.436 78.1587 205.668 78.1587 204.841C78.1587 204.024 78.307 203.261 78.6035 202.552C78.9 201.842 79.3108 201.224 79.8358 200.699C80.3608 200.174 80.9781 199.761 81.6879 199.46C82.3976 199.159 83.1656 199.008 83.992 199.008C84.8087 199.008 85.5719 199.159 86.2816 199.46C86.9913 199.761 87.6087 200.174 88.1337 200.699C88.6587 201.224 89.0719 201.842 89.3733 202.552C89.6747 203.261 89.8254 204.024 89.8254 204.841C89.8254 205.668 89.6747 206.436 89.3733 207.145C89.0719 207.855 88.6587 208.472 88.1337 208.997C87.6087 209.522 86.9913 209.933 86.2816 210.23C85.5719 210.526 84.8087 210.674 83.992 210.674Z" fill="white"/>
<path d="M96.3411 207.743H95V200.596H96.3411V207.743Z" fill="white"/>
<path d="M99.2227 203.295C99.3254 203.193 99.433 203.099 99.5456 203.013C99.6615 202.924 99.7824 202.85 99.9082 202.791C100.037 202.728 100.175 202.68 100.32 202.647C100.466 202.611 100.625 202.593 100.797 202.593C101.075 202.593 101.322 202.641 101.537 202.736C101.753 202.828 101.932 202.96 102.074 203.132C102.22 203.3 102.329 203.502 102.402 203.739C102.478 203.973 102.516 204.232 102.516 204.515V207.743H101.289V204.515C101.289 204.206 101.218 203.967 101.075 203.799C100.933 203.627 100.716 203.542 100.425 203.542C100.213 203.542 100.014 203.59 99.8287 203.685C99.6433 203.781 99.4678 203.911 99.3022 204.076V207.743H98.0753V202.672H98.8254C98.9843 202.672 99.0886 202.746 99.1383 202.894L99.2227 203.295Z" fill="white"/>
<path d="M105.307 203.216C105.506 203.031 105.724 202.881 105.963 202.766C106.201 202.65 106.481 202.593 106.802 202.593C107.08 202.593 107.327 202.641 107.542 202.736C107.758 202.828 107.936 202.96 108.079 203.132C108.224 203.3 108.334 203.502 108.407 203.739C108.483 203.973 108.521 204.232 108.521 204.515V207.743H107.294V204.515C107.294 204.206 107.223 203.967 107.08 203.799C106.938 203.627 106.721 203.542 106.43 203.542C106.218 203.542 106.019 203.59 105.834 203.685C105.648 203.781 105.473 203.911 105.307 204.076V207.743H104.08V200.398H105.307V203.216Z" fill="white"/>
<path d="M113.368 204.624C113.368 204.466 113.345 204.318 113.299 204.179C113.256 204.038 113.19 203.914 113.1 203.809C113.011 203.703 112.896 203.621 112.757 203.562C112.622 203.499 112.463 203.468 112.281 203.468C111.926 203.468 111.646 203.568 111.441 203.769C111.239 203.97 111.11 204.255 111.054 204.624H113.368ZM111.029 205.361C111.049 205.621 111.095 205.847 111.168 206.038C111.241 206.225 111.337 206.382 111.456 206.507C111.575 206.629 111.716 206.721 111.878 206.784C112.044 206.843 112.226 206.873 112.425 206.873C112.623 206.873 112.794 206.85 112.936 206.804C113.082 206.758 113.208 206.707 113.314 206.65C113.423 206.594 113.517 206.543 113.597 206.497C113.68 206.451 113.759 206.428 113.835 206.428C113.938 206.428 114.014 206.466 114.064 206.542L114.416 206.987C114.281 207.145 114.128 207.278 113.959 207.387C113.791 207.492 113.613 207.578 113.428 207.644C113.246 207.707 113.059 207.751 112.867 207.777C112.678 207.804 112.494 207.817 112.315 207.817C111.961 207.817 111.631 207.759 111.327 207.644C111.022 207.525 110.757 207.352 110.532 207.125C110.307 206.894 110.13 206.611 110.001 206.275C109.871 205.936 109.807 205.543 109.807 205.099C109.807 204.753 109.863 204.428 109.976 204.125C110.088 203.819 110.249 203.553 110.458 203.329C110.67 203.102 110.926 202.922 111.227 202.791C111.532 202.659 111.875 202.593 112.256 202.593C112.577 202.593 112.873 202.644 113.145 202.746C113.416 202.848 113.65 202.998 113.845 203.196C114.041 203.39 114.193 203.631 114.302 203.917C114.415 204.201 114.471 204.525 114.471 204.891C114.471 205.076 114.451 205.201 114.411 205.267C114.372 205.329 114.296 205.361 114.183 205.361H111.029Z" fill="white"/>
<path d="M116.947 203.552C117.105 203.249 117.294 203.011 117.513 202.84C117.731 202.665 117.99 202.578 118.288 202.578C118.523 202.578 118.712 202.629 118.854 202.731L118.774 203.646C118.758 203.705 118.733 203.748 118.7 203.774C118.67 203.797 118.629 203.809 118.576 203.809C118.526 203.809 118.452 203.8 118.352 203.784C118.256 203.767 118.162 203.759 118.069 203.759C117.933 203.759 117.812 203.779 117.706 203.819C117.601 203.858 117.504 203.916 117.418 203.992C117.336 204.064 117.261 204.153 117.195 204.258C117.132 204.364 117.072 204.484 117.016 204.619V207.743H115.789V202.672H116.509C116.635 202.672 116.723 202.695 116.773 202.741C116.822 202.784 116.855 202.863 116.872 202.978L116.947 203.552Z" fill="white"/>
<path d="M121.164 202.672V207.743H119.932V202.672H121.164ZM121.333 201.194C121.333 201.3 121.311 201.398 121.268 201.491C121.225 201.583 121.167 201.664 121.095 201.733C121.025 201.802 120.942 201.858 120.846 201.901C120.75 201.94 120.648 201.96 120.538 201.96C120.432 201.96 120.331 201.94 120.235 201.901C120.143 201.858 120.061 201.802 119.992 201.733C119.922 201.664 119.866 201.583 119.823 201.491C119.783 201.398 119.763 201.3 119.763 201.194C119.763 201.085 119.783 200.983 119.823 200.888C119.866 200.792 119.922 200.71 119.992 200.641C120.061 200.571 120.143 200.517 120.235 200.478C120.331 200.435 120.432 200.413 120.538 200.413C120.648 200.413 120.75 200.435 120.846 200.478C120.942 200.517 121.025 200.571 121.095 200.641C121.167 200.71 121.225 200.792 121.268 200.888C121.311 200.983 121.333 201.085 121.333 201.194Z" fill="white"/>
<path d="M124.511 207.822C124.067 207.822 123.726 207.698 123.488 207.451C123.253 207.201 123.135 206.856 123.135 206.418V203.586H122.614C122.547 203.586 122.491 203.565 122.445 203.522C122.398 203.479 122.375 203.415 122.375 203.329V202.845L123.195 202.711L123.453 201.328C123.47 201.262 123.501 201.211 123.547 201.174C123.594 201.138 123.653 201.12 123.726 201.12H124.362V202.716H125.723V203.586H124.362V206.334C124.362 206.492 124.4 206.616 124.476 206.705C124.556 206.794 124.663 206.838 124.799 206.838C124.875 206.838 124.938 206.83 124.988 206.814C125.041 206.794 125.086 206.774 125.122 206.754C125.162 206.735 125.197 206.716 125.226 206.7C125.256 206.68 125.286 206.67 125.316 206.67C125.352 206.67 125.382 206.68 125.405 206.7C125.428 206.716 125.453 206.743 125.48 206.779L125.847 207.372C125.668 207.52 125.463 207.632 125.231 207.708C125 207.784 124.759 207.822 124.511 207.822Z" fill="white"/>
<path d="M129.598 205.578C129.244 205.594 128.946 205.626 128.704 205.672C128.462 205.715 128.269 205.771 128.123 205.84C127.977 205.909 127.873 205.99 127.81 206.082C127.747 206.174 127.716 206.275 127.716 206.384C127.716 206.598 127.779 206.751 127.904 206.843C128.034 206.936 128.201 206.982 128.406 206.982C128.658 206.982 128.875 206.937 129.057 206.848C129.242 206.756 129.423 206.618 129.598 206.433V205.578ZM126.787 203.379C127.373 202.845 128.078 202.578 128.903 202.578C129.201 202.578 129.467 202.627 129.702 202.726C129.938 202.822 130.136 202.957 130.299 203.132C130.461 203.303 130.583 203.509 130.666 203.749C130.752 203.99 130.795 204.253 130.795 204.54V207.743H130.239C130.123 207.743 130.034 207.726 129.971 207.693C129.908 207.657 129.858 207.586 129.822 207.481L129.712 207.115C129.583 207.23 129.457 207.333 129.335 207.422C129.212 207.507 129.085 207.58 128.952 207.639C128.82 207.698 128.678 207.743 128.525 207.772C128.376 207.805 128.211 207.822 128.029 207.822C127.813 207.822 127.615 207.794 127.432 207.738C127.25 207.679 127.093 207.591 126.961 207.476C126.828 207.361 126.725 207.217 126.653 207.046C126.58 206.875 126.543 206.675 126.543 206.448C126.543 206.319 126.565 206.193 126.608 206.067C126.651 205.939 126.721 205.817 126.817 205.702C126.916 205.586 127.043 205.478 127.199 205.375C127.355 205.273 127.545 205.184 127.77 205.108C127.999 205.033 128.264 204.972 128.565 204.926C128.866 204.876 129.211 204.847 129.598 204.837V204.54C129.598 204.201 129.525 203.95 129.38 203.789C129.234 203.624 129.024 203.542 128.749 203.542C128.55 203.542 128.385 203.565 128.252 203.611C128.123 203.657 128.009 203.71 127.909 203.769C127.81 203.825 127.719 203.876 127.636 203.922C127.557 203.968 127.467 203.992 127.368 203.992C127.282 203.992 127.209 203.97 127.149 203.927C127.09 203.881 127.042 203.828 127.005 203.769L126.787 203.379Z" fill="white"/>
<path d="M133.496 203.295C133.598 203.193 133.706 203.099 133.818 203.013C133.934 202.924 134.055 202.85 134.181 202.791C134.31 202.728 134.448 202.68 134.593 202.647C134.739 202.611 134.898 202.593 135.07 202.593C135.348 202.593 135.595 202.641 135.81 202.736C136.026 202.828 136.204 202.96 136.347 203.132C136.492 203.3 136.602 203.502 136.675 203.739C136.751 203.973 136.789 204.232 136.789 204.515V207.743H135.562V204.515C135.562 204.206 135.491 203.967 135.348 203.799C135.206 203.627 134.989 203.542 134.698 203.542C134.486 203.542 134.287 203.59 134.102 203.685C133.916 203.781 133.741 203.911 133.575 204.076V207.743H132.348V202.672H133.098C133.257 202.672 133.361 202.746 133.411 202.894L133.496 203.295Z" fill="white"/>
<path d="M142.004 203.744C141.967 203.791 141.931 203.827 141.895 203.853C141.861 203.879 141.812 203.893 141.746 203.893C141.683 203.893 141.621 203.875 141.562 203.838C141.502 203.799 141.431 203.756 141.348 203.71C141.265 203.66 141.166 203.618 141.05 203.581C140.938 203.542 140.797 203.522 140.628 203.522C140.413 203.522 140.224 203.562 140.062 203.641C139.899 203.716 139.764 203.827 139.654 203.972C139.548 204.117 139.469 204.293 139.416 204.501C139.363 204.705 139.336 204.937 139.336 205.197C139.336 205.468 139.365 205.708 139.421 205.919C139.481 206.13 139.565 206.308 139.674 206.453C139.784 206.594 139.916 206.703 140.072 206.779C140.227 206.851 140.403 206.888 140.598 206.888C140.794 206.888 140.951 206.865 141.07 206.819C141.193 206.769 141.295 206.716 141.378 206.66C141.461 206.601 141.532 206.548 141.592 206.502C141.655 206.453 141.724 206.428 141.8 206.428C141.9 206.428 141.974 206.466 142.024 206.542L142.376 206.987C142.241 207.145 142.093 207.278 141.934 207.387C141.775 207.492 141.61 207.578 141.438 207.644C141.269 207.707 141.093 207.751 140.911 207.777C140.732 207.804 140.553 207.817 140.375 207.817C140.06 207.817 139.764 207.759 139.486 207.644C139.207 207.525 138.964 207.354 138.755 207.13C138.547 206.906 138.381 206.632 138.259 206.309C138.139 205.983 138.08 205.613 138.08 205.197C138.08 204.825 138.133 204.481 138.239 204.165C138.348 203.845 138.507 203.57 138.716 203.339C138.924 203.105 139.183 202.922 139.49 202.791C139.798 202.659 140.153 202.593 140.553 202.593C140.934 202.593 141.267 202.654 141.552 202.776C141.84 202.898 142.098 203.072 142.327 203.3L142.004 203.744Z" fill="white"/>
<path d="M146.739 204.624C146.739 204.466 146.716 204.318 146.669 204.179C146.626 204.038 146.56 203.914 146.471 203.809C146.381 203.703 146.267 203.621 146.128 203.562C145.992 203.499 145.833 203.468 145.651 203.468C145.297 203.468 145.017 203.568 144.812 203.769C144.61 203.97 144.481 204.255 144.424 204.624H146.739ZM144.399 205.361C144.419 205.621 144.466 205.847 144.538 206.038C144.611 206.225 144.707 206.382 144.827 206.507C144.946 206.629 145.087 206.721 145.249 206.784C145.414 206.843 145.596 206.873 145.795 206.873C145.994 206.873 146.164 206.85 146.307 206.804C146.452 206.758 146.578 206.707 146.684 206.65C146.794 206.594 146.888 206.543 146.967 206.497C147.05 206.451 147.13 206.428 147.206 206.428C147.308 206.428 147.385 206.466 147.434 206.542L147.787 206.987C147.651 207.145 147.499 207.278 147.33 207.387C147.161 207.492 146.984 207.578 146.799 207.644C146.616 207.707 146.429 207.751 146.237 207.777C146.048 207.804 145.865 207.817 145.686 207.817C145.332 207.817 145.002 207.759 144.697 207.644C144.393 207.525 144.128 207.352 143.903 207.125C143.677 206.894 143.5 206.611 143.371 206.275C143.242 205.936 143.177 205.543 143.177 205.099C143.177 204.753 143.234 204.428 143.346 204.125C143.459 203.819 143.62 203.553 143.828 203.329C144.04 203.102 144.297 202.922 144.598 202.791C144.903 202.659 145.245 202.593 145.626 202.593C145.947 202.593 146.244 202.644 146.515 202.746C146.787 202.848 147.02 202.998 147.216 203.196C147.411 203.39 147.563 203.631 147.673 203.917C147.785 204.201 147.842 204.525 147.842 204.891C147.842 205.076 147.822 205.201 147.782 205.267C147.742 205.329 147.666 205.361 147.554 205.361H144.399Z" fill="white"/>
<path d="M59.1071 213.25V189.619C59.1071 185.154 62.7559 181.398 67.319 181.398H278.788C283.252 181.398 287 185.056 287 189.619V322.378C287 326.842 283.351 330.598 278.788 330.598H67.2202C62.7559 330.598 59 326.941 59 322.378V256.657" stroke="#333333" stroke-linecap="round" stroke-linejoin="round"/>
<path d="M59.1094 248.664V230" stroke="#333333" stroke-linecap="round" stroke-linejoin="round"/>
<rect x="71" y="234.781" width="27.3333" height="14" rx="2" fill="#78C7E0"/>
<rect x="107" y="234.781" width="27.3333" height="14" rx="2" fill="#78C7E0"/>
<rect x="142" y="234.781" width="27.3333" height="14" rx="2" fill="#78C7E0"/>
<rect x="177" y="234.781" width="27.3333" height="14" rx="2" fill="#78C7E0"/>
<rect x="212" y="234.781" width="27.3333" height="14" rx="2" fill="#78C7E0"/>
<rect x="248" y="234.781" width="27.3333" height="14" rx="2" fill="#78C7E0"/>
<path d="M71 261.445C71 260.341 71.8954 259.445 73 259.445H96.3333C97.4379 259.445 98.3333 260.341 98.3333 261.445V271.445C98.3333 272.55 97.4379 273.445 96.3333 273.445H73C71.8954 273.445 71 272.55 71 271.445V261.445Z" fill="#78C7E0"/>
<path d="M106.332 261.445C106.332 260.341 107.227 259.445 108.332 259.445H131.665C132.77 259.445 133.665 260.341 133.665 261.445V271.445C133.665 272.55 132.77 273.445 131.665 273.445H108.332C107.227 273.445 106.332 272.55 106.332 271.445V261.445Z" fill="#78C7E0"/>
<path d="M141.668 261.445C141.668 260.341 142.563 259.445 143.668 259.445H167.001C168.106 259.445 169.001 260.341 169.001 261.445V271.445C169.001 272.55 168.106 273.445 167.001 273.445H143.668C142.563 273.445 141.668 272.55 141.668 271.445V261.445Z" fill="#78C7E0"/>
<path d="M177 261.445C177 260.341 177.895 259.445 179 259.445H202.333C203.438 259.445 204.333 260.341 204.333 261.445V271.445C204.333 272.55 203.438 273.445 202.333 273.445H179C177.895 273.445 177 272.55 177 271.445V261.445Z" fill="#78C7E0"/>
<path d="M212.332 261.445C212.332 260.341 213.227 259.445 214.332 259.445H237.665C238.77 259.445 239.665 260.341 239.665 261.445V271.445C239.665 272.55 238.77 273.445 237.665 273.445H214.332C213.227 273.445 212.332 272.55 212.332 271.445V261.445Z" fill="#78C7E0"/>
<path d="M247.668 261.445C247.668 260.341 248.563 259.445 249.668 259.445H273.001C274.106 259.445 275.001 260.341 275.001 261.445V271.445C275.001 272.55 274.106 273.445 273.001 273.445H249.668C248.563 273.445 247.668 272.55 247.668 271.445V261.445Z" fill="#78C7E0"/>
<path d="M71 286.109C71 285.005 71.8954 284.109 73 284.109H96.3333C97.4379 284.109 98.3333 285.005 98.3333 286.109V296.109C98.3333 297.214 97.4379 298.109 96.3333 298.109H73C71.8954 298.109 71 297.214 71 296.109V286.109Z" fill="#78C7E0"/>
<path d="M106 286.109C106 285.005 106.895 284.109 108 284.109H131.333C132.438 284.109 133.333 285.005 133.333 286.109V296.109C133.333 297.214 132.438 298.109 131.333 298.109H108C106.895 298.109 106 297.214 106 296.109V286.109Z" fill="#78C7E0"/>
<path d="M141.668 286.109C141.668 285.005 142.563 284.109 143.668 284.109H167.001C168.106 284.109 169.001 285.005 169.001 286.109V296.109C169.001 297.214 168.106 298.109 167.001 298.109H143.668C142.563 298.109 141.668 297.214 141.668 296.109V286.109Z" fill="#78C7E0"/>
<path d="M177 286.109C177 285.005 177.895 284.109 179 284.109H202.333C203.438 284.109 204.333 285.005 204.333 286.109V296.109C204.333 297.214 203.438 298.109 202.333 298.109H179C177.895 298.109 177 297.214 177 296.109V286.109Z" fill="#78C7E0"/>
<path d="M212 286.109C212 285.005 212.895 284.109 214 284.109H237.333C238.438 284.109 239.333 285.005 239.333 286.109V296.109C239.333 297.214 238.438 298.109 237.333 298.109H214C212.895 298.109 212 297.214 212 296.109V286.109Z" fill="#78C7E0"/>
<path d="M247.668 286.109C247.668 285.005 248.563 284.109 249.668 284.109H273.001C274.106 284.109 275.001 285.005 275.001 286.109V296.109C275.001 297.214 274.106 298.109 273.001 298.109H249.668C248.563 298.109 247.668 297.214 247.668 296.109V286.109Z" fill="#78C7E0"/>
<path d="M71 310.781C71 309.677 71.8954 308.781 73 308.781H96.3333C97.4379 308.781 98.3333 309.677 98.3333 310.781V320.781C98.3333 321.886 97.4379 322.781 96.3333 322.781H73C71.8954 322.781 71 321.886 71 320.781V310.781Z" fill="#78C7E0"/>
<path d="M106.332 310.781C106.332 309.677 107.227 308.781 108.332 308.781H131.665C132.77 308.781 133.665 309.677 133.665 310.781V320.781C133.665 321.886 132.77 322.781 131.665 322.781H108.332C107.227 322.781 106.332 321.886 106.332 320.781V310.781Z" fill="#78C7E0"/>
<path d="M141.668 310.781C141.668 309.677 142.563 308.781 143.668 308.781H167.001C168.106 308.781 169.001 309.677 169.001 310.781V320.781C169.001 321.886 168.106 322.781 167.001 322.781H143.668C142.563 322.781 141.668 321.886 141.668 320.781V310.781Z" fill="#78C7E0"/>
<path d="M177 310.781C177 309.677 177.895 308.781 179 308.781H202.333C203.438 308.781 204.333 309.677 204.333 310.781V320.781C204.333 321.886 203.438 322.781 202.333 322.781H179C177.895 322.781 177 321.886 177 320.781V310.781Z" fill="#78C7E0"/>
<path d="M212.332 310.781C212.332 309.677 213.227 308.781 214.332 308.781H237.665C238.77 308.781 239.665 309.677 239.665 310.781V320.781C239.665 321.886 238.77 322.781 237.665 322.781H214.332C213.227 322.781 212.332 321.886 212.332 320.781V310.781Z" fill="#78C7E0"/>
<path d="M248 310.781C248 309.677 248.895 308.781 250 308.781H273.333C274.438 308.781 275.333 309.677 275.333 310.781V320.781C275.333 321.886 274.438 322.781 273.333 322.781H250C248.895 322.781 248 321.886 248 320.781V310.781Z" fill="#78C7E0"/>
<path d="M82.7891 244.357H84.4006V239.721C84.4006 239.541 84.4061 239.352 84.4171 239.154L83.2731 240.111C83.2254 240.152 83.1759 240.179 83.1246 240.194C83.0769 240.209 83.0292 240.216 82.9816 240.216C82.9082 240.216 82.8404 240.201 82.7781 240.172C82.7194 240.139 82.6754 240.102 82.6461 240.062L82.2171 239.473L84.6426 237.411H85.7591V244.357H87.1891V245.375H82.7891V244.357Z" fill="#266483"/>
<path d="M74.684 223.268C74.6547 223.327 74.62 223.368 74.58 223.392C74.5427 223.416 74.4973 223.428 74.444 223.428C74.3907 223.428 74.3307 223.408 74.264 223.368C74.1973 223.325 74.1187 223.279 74.028 223.228C73.9373 223.177 73.8307 223.132 73.708 223.092C73.588 223.049 73.4453 223.028 73.28 223.028C73.1307 223.028 73 223.047 72.888 223.084C72.7787 223.119 72.6853 223.168 72.608 223.232C72.5333 223.296 72.4773 223.373 72.44 223.464C72.4027 223.552 72.384 223.649 72.384 223.756C72.384 223.892 72.4213 224.005 72.496 224.096C72.5733 224.187 72.6747 224.264 72.8 224.328C72.9253 224.392 73.068 224.449 73.228 224.5C73.388 224.551 73.5507 224.605 73.716 224.664C73.884 224.72 74.048 224.787 74.208 224.864C74.368 224.939 74.5107 225.035 74.636 225.152C74.7613 225.267 74.8613 225.408 74.936 225.576C75.0133 225.744 75.052 225.948 75.052 226.188C75.052 226.449 75.0067 226.695 74.916 226.924C74.828 227.151 74.6973 227.349 74.524 227.52C74.3533 227.688 74.144 227.821 73.896 227.92C73.648 228.016 73.364 228.064 73.044 228.064C72.86 228.064 72.6787 228.045 72.5 228.008C72.3213 227.973 72.1493 227.923 71.984 227.856C71.8213 227.789 71.668 227.709 71.524 227.616C71.3827 227.523 71.256 227.419 71.144 227.304L71.456 226.788C71.4853 226.751 71.52 226.72 71.56 226.696C71.6027 226.669 71.6493 226.656 71.7 226.656C71.7667 226.656 71.8387 226.684 71.916 226.74C71.9933 226.793 72.084 226.853 72.188 226.92C72.2947 226.987 72.4187 227.048 72.56 227.104C72.704 227.157 72.876 227.184 73.076 227.184C73.3827 227.184 73.62 227.112 73.788 226.968C73.956 226.821 74.04 226.612 74.04 226.34C74.04 226.188 74.0013 226.064 73.924 225.968C73.8493 225.872 73.7493 225.792 73.624 225.728C73.4987 225.661 73.356 225.605 73.196 225.56C73.036 225.515 72.8733 225.465 72.708 225.412C72.5427 225.359 72.38 225.295 72.22 225.22C72.06 225.145 71.9173 225.048 71.792 224.928C71.6667 224.808 71.5653 224.659 71.488 224.48C71.4133 224.299 71.376 224.076 71.376 223.812C71.376 223.601 71.4173 223.396 71.5 223.196C71.5853 222.996 71.708 222.819 71.868 222.664C72.0307 222.509 72.2293 222.385 72.464 222.292C72.6987 222.199 72.9667 222.152 73.268 222.152C73.6093 222.152 73.924 222.205 74.212 222.312C74.5 222.419 74.7453 222.568 74.948 222.76L74.684 223.268ZM77.5131 223.832C77.7717 223.832 78.0091 223.873 78.2251 223.956C78.4437 224.039 78.6317 224.16 78.7891 224.32C78.9464 224.477 79.0691 224.672 79.1571 224.904C79.2451 225.133 79.2891 225.396 79.2891 225.692C79.2891 225.767 79.2851 225.829 79.2771 225.88C79.2717 225.928 79.2597 225.967 79.2411 225.996C79.2251 226.023 79.2024 226.043 79.1731 226.056C79.1437 226.067 79.1064 226.072 79.0611 226.072H76.5251C76.5544 226.493 76.6677 226.803 76.8651 227C77.0624 227.197 77.3237 227.296 77.6491 227.296C77.8091 227.296 77.9464 227.277 78.0611 227.24C78.1784 227.203 78.2797 227.161 78.3651 227.116C78.4531 227.071 78.5291 227.029 78.5931 226.992C78.6597 226.955 78.7237 226.936 78.7851 226.936C78.8251 226.936 78.8597 226.944 78.8891 226.96C78.9184 226.976 78.9437 226.999 78.9651 227.028L79.2531 227.388C79.1437 227.516 79.0211 227.624 78.8851 227.712C78.7491 227.797 78.6064 227.867 78.4571 227.92C78.3104 227.971 78.1597 228.007 78.0051 228.028C77.8531 228.049 77.7051 228.06 77.5611 228.06C77.2757 228.06 77.0104 228.013 76.7651 227.92C76.5197 227.824 76.3064 227.684 76.1251 227.5C75.9437 227.313 75.8011 227.084 75.6971 226.812C75.5931 226.537 75.5411 226.22 75.5411 225.86C75.5411 225.58 75.5864 225.317 75.6771 225.072C75.7677 224.824 75.8971 224.609 76.0651 224.428C76.2357 224.244 76.4424 224.099 76.6851 223.992C76.9304 223.885 77.2064 223.832 77.5131 223.832ZM77.5331 224.54C77.2451 224.54 77.0197 224.621 76.8571 224.784C76.6944 224.947 76.5904 225.177 76.5451 225.476H78.4011C78.4011 225.348 78.3837 225.228 78.3491 225.116C78.3144 225.001 78.2611 224.901 78.1891 224.816C78.1171 224.731 78.0264 224.664 77.9171 224.616C77.8077 224.565 77.6797 224.54 77.5331 224.54ZM81.7865 223.832C82.0452 223.832 82.2825 223.873 82.4985 223.956C82.7172 224.039 82.9052 224.16 83.0625 224.32C83.2198 224.477 83.3425 224.672 83.4305 224.904C83.5185 225.133 83.5625 225.396 83.5625 225.692C83.5625 225.767 83.5585 225.829 83.5505 225.88C83.5452 225.928 83.5332 225.967 83.5145 225.996C83.4985 226.023 83.4758 226.043 83.4465 226.056C83.4172 226.067 83.3798 226.072 83.3345 226.072H80.7985C80.8278 226.493 80.9412 226.803 81.1385 227C81.3358 227.197 81.5972 227.296 81.9225 227.296C82.0825 227.296 82.2198 227.277 82.3345 227.24C82.4518 227.203 82.5532 227.161 82.6385 227.116C82.7265 227.071 82.8025 227.029 82.8665 226.992C82.9332 226.955 82.9972 226.936 83.0585 226.936C83.0985 226.936 83.1332 226.944 83.1625 226.96C83.1918 226.976 83.2172 226.999 83.2385 227.028L83.5265 227.388C83.4172 227.516 83.2945 227.624 83.1585 227.712C83.0225 227.797 82.8798 227.867 82.7305 227.92C82.5838 227.971 82.4332 228.007 82.2785 228.028C82.1265 228.049 81.9785 228.06 81.8345 228.06C81.5492 228.06 81.2838 228.013 81.0385 227.92C80.7932 227.824 80.5798 227.684 80.3985 227.5C80.2172 227.313 80.0745 227.084 79.9705 226.812C79.8665 226.537 79.8145 226.22 79.8145 225.86C79.8145 225.58 79.8598 225.317 79.9505 225.072C80.0412 224.824 80.1705 224.609 80.3385 224.428C80.5092 224.244 80.7158 224.099 80.9585 223.992C81.2038 223.885 81.4798 223.832 81.7865 223.832ZM81.8065 224.54C81.5185 224.54 81.2932 224.621 81.1305 224.784C80.9678 224.947 80.8638 225.177 80.8185 225.476H82.6745C82.6745 225.348 82.6572 225.228 82.6225 225.116C82.5878 225.001 82.5345 224.901 82.4625 224.816C82.3905 224.731 82.2998 224.664 82.1905 224.616C82.0812 224.565 81.9532 224.54 81.8065 224.54ZM87.2519 228C87.1239 228 87.0399 227.94 86.9999 227.82L86.9199 227.424C86.8346 227.52 86.7453 227.607 86.6519 227.684C86.5586 227.761 86.4573 227.828 86.3479 227.884C86.2413 227.94 86.1253 227.983 85.9999 228.012C85.8773 228.044 85.7439 228.06 85.5999 228.06C85.3759 228.06 85.1706 228.013 84.9839 227.92C84.7973 227.827 84.6359 227.692 84.4999 227.516C84.3666 227.337 84.2626 227.117 84.1879 226.856C84.1159 226.595 84.0799 226.296 84.0799 225.96C84.0799 225.656 84.1213 225.373 84.2039 225.112C84.2866 224.851 84.4053 224.624 84.5599 224.432C84.7146 224.24 84.8999 224.091 85.1159 223.984C85.3319 223.875 85.5746 223.82 85.8439 223.82C86.0733 223.82 86.2693 223.857 86.4319 223.932C86.5946 224.004 86.7399 224.101 86.8679 224.224V222.056H87.8559V228H87.2519ZM85.9359 227.276C86.1413 227.276 86.3159 227.233 86.4599 227.148C86.6039 227.063 86.7399 226.941 86.8679 226.784V224.944C86.7559 224.808 86.6333 224.712 86.4999 224.656C86.3693 224.6 86.2279 224.572 86.0759 224.572C85.9266 224.572 85.7906 224.6 85.6679 224.656C85.5479 224.712 85.4453 224.797 85.3599 224.912C85.2773 225.024 85.2133 225.168 85.1679 225.344C85.1226 225.517 85.0999 225.723 85.0999 225.96C85.0999 226.2 85.1186 226.404 85.1559 226.572C85.1959 226.737 85.2519 226.873 85.3239 226.98C85.3959 227.084 85.4839 227.16 85.5879 227.208C85.6919 227.253 85.8079 227.276 85.9359 227.276ZM90.4733 229.34V223.896H91.0773C91.1413 223.896 91.196 223.911 91.2413 223.94C91.2866 223.969 91.316 224.015 91.3293 224.076L91.4093 224.456C91.5746 224.267 91.764 224.113 91.9773 223.996C92.1933 223.879 92.4453 223.82 92.7333 223.82C92.9573 223.82 93.1613 223.867 93.3453 223.96C93.532 224.053 93.692 224.189 93.8253 224.368C93.9613 224.544 94.0653 224.763 94.1373 225.024C94.212 225.283 94.2493 225.58 94.2493 225.916C94.2493 226.223 94.208 226.507 94.1253 226.768C94.0426 227.029 93.924 227.256 93.7693 227.448C93.6173 227.64 93.432 227.791 93.2133 227.9C92.9973 228.007 92.7546 228.06 92.4853 228.06C92.2533 228.06 92.056 228.025 91.8933 227.956C91.7333 227.884 91.5893 227.785 91.4613 227.66V229.34H90.4733ZM92.3933 224.6C92.188 224.6 92.012 224.644 91.8653 224.732C91.7213 224.817 91.5866 224.939 91.4613 225.096V226.936C91.5733 227.075 91.6946 227.172 91.8253 227.228C91.9586 227.281 92.1013 227.308 92.2533 227.308C92.4026 227.308 92.5373 227.28 92.6573 227.224C92.78 227.168 92.8826 227.083 92.9653 226.968C93.0506 226.853 93.116 226.709 93.1613 226.536C93.2066 226.36 93.2293 226.153 93.2293 225.916C93.2293 225.676 93.2093 225.473 93.1693 225.308C93.132 225.14 93.0773 225.004 93.0053 224.9C92.9333 224.796 92.8453 224.72 92.7413 224.672C92.64 224.624 92.524 224.6 92.3933 224.6ZM94.9967 228V222.056H95.9848V224.34C96.1448 224.188 96.3208 224.065 96.5128 223.972C96.7048 223.879 96.9301 223.832 97.1888 223.832C97.4128 223.832 97.6114 223.871 97.7848 223.948C97.9581 224.023 98.1021 224.129 98.2168 224.268C98.3341 224.404 98.4221 224.568 98.4808 224.76C98.5421 224.949 98.5728 225.159 98.5728 225.388V228H97.5848V225.388C97.5848 225.137 97.5261 224.944 97.4088 224.808C97.2941 224.669 97.1208 224.6 96.8888 224.6C96.7181 224.6 96.5581 224.639 96.4088 224.716C96.2594 224.793 96.1181 224.899 95.9848 225.032V228H94.9967ZM99.5436 228V223.896H100.124C100.225 223.896 100.296 223.915 100.336 223.952C100.376 223.989 100.402 224.053 100.416 224.144L100.476 224.64C100.622 224.387 100.794 224.187 100.992 224.04C101.189 223.893 101.41 223.82 101.656 223.82C101.858 223.82 102.026 223.867 102.16 223.96L102.032 224.7C102.024 224.748 102.006 224.783 101.98 224.804C101.953 224.823 101.917 224.832 101.872 224.832C101.832 224.832 101.777 224.823 101.708 224.804C101.638 224.785 101.546 224.776 101.432 224.776C101.226 224.776 101.05 224.833 100.904 224.948C100.757 225.06 100.633 225.225 100.532 225.444V228H99.5436ZM105.908 228H105.464C105.371 228 105.297 227.987 105.244 227.96C105.191 227.931 105.151 227.873 105.124 227.788L105.036 227.496C104.932 227.589 104.829 227.672 104.728 227.744C104.629 227.813 104.527 227.872 104.42 227.92C104.313 227.968 104.2 228.004 104.08 228.028C103.96 228.052 103.827 228.064 103.68 228.064C103.507 228.064 103.347 228.041 103.2 227.996C103.053 227.948 102.927 227.877 102.82 227.784C102.716 227.691 102.635 227.575 102.576 227.436C102.517 227.297 102.488 227.136 102.488 226.952C102.488 226.797 102.528 226.645 102.608 226.496C102.691 226.344 102.827 226.208 103.016 226.088C103.205 225.965 103.457 225.864 103.772 225.784C104.087 225.704 104.477 225.659 104.944 225.648V225.408C104.944 225.133 104.885 224.931 104.768 224.8C104.653 224.667 104.485 224.6 104.264 224.6C104.104 224.6 103.971 224.619 103.864 224.656C103.757 224.693 103.664 224.736 103.584 224.784C103.507 224.829 103.435 224.871 103.368 224.908C103.301 224.945 103.228 224.964 103.148 224.964C103.081 224.964 103.024 224.947 102.976 224.912C102.928 224.877 102.889 224.835 102.86 224.784L102.68 224.468C103.152 224.036 103.721 223.82 104.388 223.82C104.628 223.82 104.841 223.86 105.028 223.94C105.217 224.017 105.377 224.127 105.508 224.268C105.639 224.407 105.737 224.573 105.804 224.768C105.873 224.963 105.908 225.176 105.908 225.408V228ZM103.988 227.384C104.089 227.384 104.183 227.375 104.268 227.356C104.353 227.337 104.433 227.309 104.508 227.272C104.585 227.235 104.659 227.189 104.728 227.136C104.8 227.08 104.872 227.015 104.944 226.94V226.248C104.656 226.261 104.415 226.287 104.22 226.324C104.028 226.359 103.873 226.404 103.756 226.46C103.639 226.516 103.555 226.581 103.504 226.656C103.456 226.731 103.432 226.812 103.432 226.9C103.432 227.073 103.483 227.197 103.584 227.272C103.688 227.347 103.823 227.384 103.988 227.384ZM109.316 224.696C109.289 224.739 109.261 224.769 109.232 224.788C109.202 224.804 109.165 224.812 109.12 224.812C109.072 224.812 109.02 224.799 108.964 224.772C108.91 224.745 108.848 224.716 108.776 224.684C108.704 224.649 108.621 224.619 108.528 224.592C108.437 224.565 108.329 224.552 108.204 224.552C108.009 224.552 107.856 224.593 107.744 224.676C107.632 224.759 107.576 224.867 107.576 225C107.576 225.088 107.604 225.163 107.66 225.224C107.718 225.283 107.794 225.335 107.888 225.38C107.984 225.425 108.092 225.467 108.212 225.504C108.332 225.539 108.454 225.577 108.58 225.62C108.705 225.663 108.828 225.712 108.948 225.768C109.068 225.821 109.174 225.891 109.268 225.976C109.364 226.059 109.44 226.159 109.496 226.276C109.554 226.393 109.584 226.535 109.584 226.7C109.584 226.897 109.548 227.08 109.476 227.248C109.404 227.413 109.298 227.557 109.16 227.68C109.021 227.8 108.849 227.895 108.644 227.964C108.441 228.031 108.208 228.064 107.944 228.064C107.802 228.064 107.664 228.051 107.528 228.024C107.394 228 107.265 227.965 107.14 227.92C107.017 227.875 106.902 227.821 106.796 227.76C106.692 227.699 106.6 227.632 106.52 227.56L106.748 227.184C106.777 227.139 106.812 227.104 106.852 227.08C106.892 227.056 106.942 227.044 107.004 227.044C107.065 227.044 107.122 227.061 107.176 227.096C107.232 227.131 107.296 227.168 107.368 227.208C107.44 227.248 107.524 227.285 107.62 227.32C107.718 227.355 107.842 227.372 107.992 227.372C108.109 227.372 108.209 227.359 108.292 227.332C108.377 227.303 108.446 227.265 108.5 227.22C108.556 227.175 108.596 227.123 108.62 227.064C108.646 227.003 108.66 226.94 108.66 226.876C108.66 226.78 108.63 226.701 108.572 226.64C108.516 226.579 108.44 226.525 108.344 226.48C108.25 226.435 108.142 226.395 108.02 226.36C107.9 226.323 107.776 226.283 107.648 226.24C107.522 226.197 107.398 226.148 107.276 226.092C107.156 226.033 107.048 225.96 106.952 225.872C106.858 225.784 106.782 225.676 106.724 225.548C106.668 225.42 106.64 225.265 106.64 225.084C106.64 224.916 106.673 224.756 106.74 224.604C106.806 224.452 106.904 224.32 107.032 224.208C107.162 224.093 107.324 224.003 107.516 223.936C107.71 223.867 107.934 223.832 108.188 223.832C108.47 223.832 108.728 223.879 108.96 223.972C109.192 224.065 109.385 224.188 109.54 224.34L109.316 224.696ZM112.068 223.832C112.326 223.832 112.564 223.873 112.78 223.956C112.998 224.039 113.186 224.16 113.344 224.32C113.501 224.477 113.624 224.672 113.712 224.904C113.8 225.133 113.844 225.396 113.844 225.692C113.844 225.767 113.84 225.829 113.832 225.88C113.826 225.928 113.814 225.967 113.796 225.996C113.78 226.023 113.757 226.043 113.728 226.056C113.698 226.067 113.661 226.072 113.616 226.072H111.08C111.109 226.493 111.222 226.803 111.42 227C111.617 227.197 111.878 227.296 112.204 227.296C112.364 227.296 112.501 227.277 112.616 227.24C112.733 227.203 112.834 227.161 112.92 227.116C113.008 227.071 113.084 227.029 113.148 226.992C113.214 226.955 113.278 226.936 113.34 226.936C113.38 226.936 113.414 226.944 113.444 226.96C113.473 226.976 113.498 226.999 113.52 227.028L113.808 227.388C113.698 227.516 113.576 227.624 113.44 227.712C113.304 227.797 113.161 227.867 113.012 227.92C112.865 227.971 112.714 228.007 112.56 228.028C112.408 228.049 112.26 228.06 112.116 228.06C111.83 228.06 111.565 228.013 111.32 227.92C111.074 227.824 110.861 227.684 110.68 227.5C110.498 227.313 110.356 227.084 110.252 226.812C110.148 226.537 110.096 226.22 110.096 225.86C110.096 225.58 110.141 225.317 110.232 225.072C110.322 224.824 110.452 224.609 110.62 224.428C110.79 224.244 110.997 224.099 111.24 223.992C111.485 223.885 111.761 223.832 112.068 223.832ZM112.088 224.54C111.8 224.54 111.574 224.621 111.412 224.784C111.249 224.947 111.145 225.177 111.1 225.476H112.956C112.956 225.348 112.938 225.228 112.904 225.116C112.869 225.001 112.816 224.901 112.744 224.816C112.672 224.731 112.581 224.664 112.472 224.616C112.362 224.565 112.234 224.54 112.088 224.54Z" fill="white"/>
<path d="M87.3376 262.422V263.01C87.3376 263.186 87.3174 263.329 87.2771 263.439C87.2404 263.546 87.2037 263.636 87.1671 263.709L84.1586 269.913C84.0962 270.041 84.0082 270.151 83.8946 270.243C83.7809 270.331 83.6269 270.375 83.4326 270.375H82.4481L85.5281 264.297C85.6564 264.048 85.7994 263.834 85.9571 263.654H82.1511C82.0667 263.654 81.9934 263.623 81.9311 263.56C81.8687 263.498 81.8376 263.425 81.8376 263.34V262.422H87.3376Z" fill="#266483"/>
<path d="M120.621 237.334C120.987 237.334 121.323 237.389 121.627 237.499C121.931 237.605 122.192 237.757 122.408 237.955C122.624 238.153 122.793 238.392 122.914 238.67C123.035 238.949 123.096 239.259 123.096 239.6C123.096 239.893 123.052 240.165 122.964 240.414C122.879 240.663 122.764 240.902 122.617 241.129C122.474 241.356 122.305 241.576 122.111 241.789C121.917 242.002 121.713 242.218 121.501 242.438L119.708 244.269C119.884 244.218 120.056 244.18 120.225 244.154C120.393 244.125 120.555 244.11 120.709 244.11H122.749C122.896 244.11 123.011 244.152 123.096 244.236C123.184 244.317 123.228 244.425 123.228 244.561V245.375H117.772V244.924C117.772 244.832 117.79 244.737 117.827 244.638C117.867 244.539 117.929 244.447 118.014 244.363L120.428 241.943C120.63 241.738 120.809 241.541 120.967 241.354C121.128 241.167 121.262 240.982 121.369 240.799C121.479 240.616 121.561 240.43 121.616 240.243C121.675 240.053 121.704 239.853 121.704 239.644C121.704 239.453 121.677 239.286 121.622 239.143C121.567 238.997 121.488 238.874 121.385 238.775C121.282 238.676 121.16 238.603 121.017 238.555C120.877 238.504 120.72 238.478 120.544 238.478C120.217 238.478 119.948 238.56 119.735 238.725C119.526 238.89 119.379 239.112 119.295 239.391C119.255 239.53 119.194 239.631 119.114 239.694C119.033 239.752 118.93 239.781 118.806 239.781C118.751 239.781 118.69 239.776 118.624 239.765L117.909 239.638C117.964 239.257 118.07 238.923 118.228 238.637C118.386 238.348 118.582 238.108 118.817 237.917C119.055 237.723 119.326 237.578 119.631 237.482C119.939 237.383 120.269 237.334 120.621 237.334Z" fill="#266483"/>
<path d="M120.5 270.463C120.089 270.463 119.713 270.408 119.372 270.298C119.035 270.188 118.745 270.032 118.503 269.83C118.261 269.629 118.072 269.385 117.937 269.099C117.805 268.813 117.739 268.494 117.739 268.142C117.739 267.673 117.854 267.277 118.085 266.954C118.316 266.628 118.675 266.386 119.163 266.228C118.774 266.067 118.483 265.837 118.289 265.54C118.098 265.243 118.003 264.886 118.003 264.468C118.003 264.167 118.063 263.887 118.184 263.626C118.309 263.366 118.481 263.141 118.701 262.95C118.921 262.756 119.183 262.605 119.488 262.499C119.796 262.389 120.133 262.334 120.5 262.334C120.866 262.334 121.202 262.389 121.506 262.499C121.814 262.605 122.078 262.756 122.298 262.95C122.518 263.141 122.689 263.366 122.81 263.626C122.934 263.887 122.997 264.167 122.997 264.468C122.997 264.886 122.899 265.243 122.705 265.54C122.511 265.837 122.221 266.067 121.836 266.228C122.324 266.386 122.683 266.628 122.914 266.954C123.145 267.277 123.261 267.673 123.261 268.142C123.261 268.494 123.193 268.813 123.057 269.099C122.925 269.385 122.738 269.629 122.496 269.83C122.254 270.032 121.963 270.188 121.622 270.298C121.284 270.408 120.91 270.463 120.5 270.463ZM120.5 269.401C120.723 269.401 120.919 269.37 121.088 269.308C121.257 269.242 121.398 269.152 121.512 269.038C121.629 268.925 121.717 268.789 121.776 268.631C121.834 268.474 121.864 268.303 121.864 268.12C121.864 267.684 121.743 267.354 121.501 267.13C121.259 266.906 120.925 266.794 120.5 266.794C120.074 266.794 119.741 266.906 119.499 267.13C119.257 267.354 119.136 267.684 119.136 268.12C119.136 268.303 119.165 268.474 119.224 268.631C119.282 268.789 119.368 268.925 119.482 269.038C119.599 269.152 119.742 269.242 119.911 269.308C120.08 269.37 120.276 269.401 120.5 269.401ZM120.5 265.727C120.72 265.727 120.905 265.693 121.055 265.623C121.205 265.553 121.326 265.462 121.418 265.348C121.51 265.231 121.574 265.099 121.611 264.952C121.651 264.802 121.671 264.648 121.671 264.49C121.671 264.34 121.647 264.197 121.6 264.061C121.552 263.925 121.48 263.806 121.385 263.703C121.29 263.597 121.169 263.513 121.022 263.45C120.875 263.388 120.701 263.357 120.5 263.357C120.298 263.357 120.124 263.388 119.977 263.45C119.83 263.513 119.708 263.597 119.609 263.703C119.513 263.806 119.442 263.925 119.394 264.061C119.35 264.197 119.328 264.34 119.328 264.49C119.328 264.648 119.346 264.802 119.383 264.952C119.423 265.099 119.489 265.231 119.581 265.348C119.673 265.462 119.794 265.553 119.944 265.623C120.094 265.693 120.28 265.727 120.5 265.727Z" fill="#266483"/>
<path d="M155.747 237.334C156.114 237.334 156.444 237.387 156.737 237.493C157.034 237.596 157.287 237.741 157.496 237.928C157.705 238.111 157.865 238.328 157.975 238.577C158.088 238.826 158.145 239.096 158.145 239.385C158.145 239.638 158.116 239.862 158.057 240.056C158.002 240.247 157.92 240.414 157.81 240.557C157.703 240.7 157.571 240.821 157.414 240.92C157.26 241.019 157.084 241.101 156.886 241.167C157.362 241.318 157.718 241.547 157.953 241.855C158.187 242.163 158.305 242.55 158.305 243.015C158.305 243.411 158.231 243.762 158.085 244.066C157.938 244.37 157.74 244.627 157.491 244.836C157.241 245.041 156.952 245.197 156.622 245.303C156.295 245.41 155.949 245.463 155.582 245.463C155.182 245.463 154.834 245.417 154.537 245.325C154.24 245.234 153.982 245.098 153.762 244.918C153.542 244.739 153.355 244.519 153.201 244.258C153.047 243.998 152.915 243.697 152.805 243.356L153.404 243.109C153.507 243.065 153.611 243.043 153.718 243.043C153.813 243.043 153.897 243.063 153.971 243.103C154.048 243.144 154.106 243.202 154.147 243.279C154.213 243.408 154.284 243.534 154.361 243.659C154.442 243.784 154.537 243.895 154.647 243.994C154.757 244.09 154.885 244.169 155.032 244.231C155.182 244.29 155.36 244.319 155.566 244.319C155.797 244.319 155.998 244.282 156.171 244.209C156.343 244.132 156.486 244.033 156.6 243.912C156.717 243.791 156.803 243.657 156.858 243.51C156.917 243.36 156.946 243.21 156.946 243.059C156.946 242.869 156.926 242.696 156.886 242.542C156.845 242.385 156.761 242.251 156.633 242.141C156.504 242.031 156.319 241.945 156.077 241.882C155.839 241.82 155.518 241.789 155.115 241.789V240.821C155.448 240.817 155.725 240.786 155.945 240.727C156.165 240.669 156.339 240.588 156.468 240.485C156.6 240.379 156.691 240.253 156.743 240.106C156.794 239.959 156.82 239.798 156.82 239.622C156.82 239.244 156.717 238.96 156.512 238.769C156.306 238.575 156.026 238.478 155.67 238.478C155.347 238.478 155.08 238.564 154.867 238.736C154.654 238.905 154.506 239.123 154.422 239.391C154.378 239.53 154.317 239.631 154.24 239.694C154.163 239.752 154.062 239.781 153.938 239.781C153.879 239.781 153.817 239.776 153.751 239.765L153.036 239.638C153.091 239.257 153.197 238.923 153.355 238.637C153.512 238.348 153.708 238.108 153.943 237.917C154.181 237.723 154.453 237.578 154.757 237.482C155.065 237.383 155.395 237.334 155.747 237.334Z" fill="#266483"/>
<path d="M155.225 267.201C154.95 267.201 154.68 267.154 154.416 267.058C154.152 266.963 153.916 266.82 153.707 266.629C153.501 266.435 153.336 266.197 153.212 265.914C153.087 265.628 153.025 265.295 153.025 264.913C153.025 264.558 153.091 264.224 153.223 263.912C153.355 263.601 153.54 263.328 153.778 263.093C154.016 262.858 154.302 262.673 154.636 262.537C154.97 262.402 155.338 262.334 155.742 262.334C156.149 262.334 156.513 262.398 156.836 262.526C157.162 262.655 157.439 262.834 157.667 263.065C157.898 263.296 158.074 263.573 158.195 263.896C158.319 264.219 158.382 264.572 158.382 264.957C158.382 265.203 158.36 265.436 158.316 265.656C158.275 265.876 158.215 266.089 158.134 266.294C158.057 266.496 157.964 266.694 157.854 266.888C157.744 267.079 157.621 267.271 157.485 267.465L155.665 270.061C155.602 270.149 155.509 270.225 155.384 270.287C155.263 270.346 155.124 270.375 154.966 270.375H153.718L156.187 267.289C156.249 267.212 156.308 267.137 156.363 267.064C156.418 266.991 156.471 266.917 156.523 266.844C156.339 266.961 156.138 267.051 155.918 267.113C155.698 267.172 155.467 267.201 155.225 267.201ZM157.078 264.82C157.078 264.604 157.045 264.411 156.979 264.242C156.913 264.07 156.82 263.925 156.699 263.808C156.578 263.691 156.433 263.601 156.264 263.538C156.099 263.476 155.918 263.445 155.72 263.445C155.514 263.445 155.329 263.48 155.164 263.549C154.999 263.615 154.858 263.709 154.741 263.83C154.627 263.951 154.539 264.096 154.477 264.264C154.414 264.429 154.383 264.611 154.383 264.809C154.383 265.253 154.497 265.592 154.724 265.826C154.955 266.057 155.281 266.173 155.703 266.173C155.923 266.173 156.117 266.138 156.286 266.068C156.458 265.999 156.603 265.903 156.721 265.782C156.838 265.661 156.926 265.518 156.985 265.353C157.047 265.188 157.078 265.011 157.078 264.82Z" fill="#266483"/>
<path d="M192.491 242.377H193.492V243.164C193.492 243.237 193.468 243.301 193.42 243.356C193.372 243.408 193.303 243.433 193.211 243.433H192.491V245.375H191.303V243.433H187.948C187.856 243.433 187.775 243.406 187.706 243.351C187.636 243.292 187.592 243.221 187.574 243.136L187.436 242.449L191.204 237.416H192.491V242.377ZM191.303 239.776C191.303 239.659 191.306 239.532 191.314 239.396C191.321 239.261 191.334 239.12 191.352 238.973L188.883 242.377H191.303V239.776Z" fill="#266483"/>
<path d="M185.599 269.357H187.21V264.721C187.21 264.541 187.216 264.352 187.227 264.154L186.083 265.111C186.035 265.152 185.985 265.179 185.934 265.194C185.886 265.209 185.839 265.216 185.791 265.216C185.718 265.216 185.65 265.201 185.588 265.172C185.529 265.139 185.485 265.102 185.456 265.062L185.027 264.473L187.452 262.411H188.569V269.357H189.999V270.375H185.599V269.357ZM196.605 266.398C196.605 267.091 196.53 267.695 196.38 268.208C196.233 268.718 196.028 269.139 195.764 269.473C195.503 269.807 195.193 270.056 194.834 270.221C194.478 270.382 194.093 270.463 193.679 270.463C193.265 270.463 192.88 270.382 192.524 270.221C192.172 270.056 191.866 269.807 191.606 269.473C191.345 269.139 191.142 268.718 190.995 268.208C190.848 267.695 190.775 267.091 190.775 266.398C190.775 265.702 190.848 265.099 190.995 264.589C191.142 264.079 191.345 263.658 191.606 263.324C191.866 262.99 192.172 262.743 192.524 262.581C192.88 262.416 193.265 262.334 193.679 262.334C194.093 262.334 194.478 262.416 194.834 262.581C195.193 262.743 195.503 262.99 195.764 263.324C196.028 263.658 196.233 264.079 196.38 264.589C196.53 265.099 196.605 265.702 196.605 266.398ZM195.203 266.398C195.203 265.823 195.16 265.346 195.076 264.968C194.992 264.591 194.878 264.29 194.735 264.066C194.596 263.843 194.434 263.687 194.251 263.599C194.068 263.507 193.877 263.461 193.679 263.461C193.485 263.461 193.296 263.507 193.113 263.599C192.933 263.687 192.773 263.843 192.634 264.066C192.495 264.29 192.383 264.591 192.299 264.968C192.218 265.346 192.178 265.823 192.178 266.398C192.178 266.974 192.218 267.451 192.299 267.828C192.383 268.206 192.495 268.507 192.634 268.73C192.773 268.954 192.933 269.112 193.113 269.203C193.296 269.291 193.485 269.335 193.679 269.335C193.877 269.335 194.068 269.291 194.251 269.203C194.434 269.112 194.596 268.954 194.735 268.73C194.878 268.507 194.992 268.206 195.076 267.828C195.16 267.451 195.203 266.974 195.203 266.398Z" fill="#266483"/>
<path d="M228.749 237.999C228.749 238.194 228.687 238.351 228.562 238.472C228.441 238.593 228.238 238.654 227.952 238.654H225.763L225.477 240.315C225.836 240.242 226.164 240.205 226.461 240.205C226.879 240.205 227.246 240.267 227.561 240.392C227.88 240.517 228.148 240.689 228.364 240.909C228.58 241.129 228.744 241.387 228.854 241.684C228.964 241.978 229.019 242.295 229.019 242.636C229.019 243.058 228.943 243.443 228.793 243.791C228.646 244.139 228.441 244.438 228.177 244.688C227.913 244.933 227.6 245.124 227.237 245.259C226.877 245.395 226.485 245.463 226.06 245.463C225.81 245.463 225.574 245.437 225.35 245.386C225.126 245.335 224.916 245.267 224.718 245.182C224.523 245.094 224.342 244.995 224.173 244.885C224.008 244.772 223.86 244.653 223.728 244.528L224.146 243.95C224.234 243.826 224.351 243.763 224.498 243.763C224.589 243.763 224.681 243.793 224.773 243.851C224.868 243.91 224.978 243.974 225.103 244.044C225.227 244.114 225.372 244.178 225.537 244.236C225.702 244.295 225.902 244.324 226.137 244.324C226.386 244.324 226.606 244.284 226.797 244.203C226.987 244.123 227.145 244.011 227.27 243.868C227.398 243.721 227.493 243.549 227.556 243.351C227.622 243.149 227.655 242.931 227.655 242.696C227.655 242.264 227.528 241.926 227.275 241.684C227.026 241.439 226.657 241.316 226.17 241.316C225.785 241.316 225.398 241.386 225.009 241.525L224.162 241.283L224.822 237.422H228.749V237.999Z" fill="#266483"/>
<path d="M221.599 269.357H223.21V264.721C223.21 264.541 223.216 264.352 223.227 264.154L222.083 265.111C222.035 265.152 221.985 265.179 221.934 265.194C221.886 265.209 221.839 265.216 221.791 265.216C221.718 265.216 221.65 265.201 221.588 265.172C221.529 265.139 221.485 265.102 221.456 265.062L221.027 264.473L223.452 262.411H224.569V269.357H225.999V270.375H221.599V269.357ZM227.98 269.357H229.591V264.721C229.591 264.541 229.597 264.352 229.607 264.154L228.464 265.111C228.416 265.152 228.366 265.179 228.315 265.194C228.267 265.209 228.22 265.216 228.172 265.216C228.099 265.216 228.031 265.201 227.969 265.172C227.91 265.139 227.866 265.102 227.837 265.062L227.408 264.473L229.833 262.411H230.95V269.357H232.38V270.375H227.98V269.357Z" fill="#266483"/>
<path d="M261.995 240.408C262.295 240.408 262.587 240.458 262.869 240.557C263.155 240.656 263.406 240.806 263.623 241.008C263.839 241.206 264.013 241.453 264.145 241.75C264.277 242.047 264.343 242.394 264.343 242.79C264.343 243.16 264.275 243.509 264.14 243.835C264.004 244.158 263.813 244.44 263.568 244.682C263.322 244.924 263.025 245.115 262.677 245.254C262.332 245.393 261.951 245.463 261.533 245.463C261.107 245.463 260.726 245.395 260.389 245.259C260.051 245.124 259.763 244.935 259.525 244.693C259.287 244.447 259.103 244.154 258.975 243.813C258.85 243.468 258.788 243.087 258.788 242.669C258.788 242.295 258.863 241.912 259.014 241.519C259.168 241.123 259.404 240.713 259.723 240.287L261.621 237.741C261.687 237.653 261.782 237.578 261.907 237.515C262.035 237.453 262.182 237.422 262.347 237.422H263.557L261.197 240.309C261.146 240.372 261.096 240.43 261.049 240.485C261.005 240.54 260.961 240.597 260.917 240.656C261.071 240.579 261.236 240.518 261.412 240.474C261.591 240.43 261.786 240.408 261.995 240.408ZM260.092 242.878C260.092 243.098 260.121 243.3 260.18 243.483C260.242 243.663 260.332 243.817 260.449 243.945C260.57 244.073 260.719 244.174 260.895 244.247C261.071 244.317 261.274 244.352 261.505 244.352C261.721 244.352 261.919 244.315 262.099 244.242C262.282 244.169 262.438 244.066 262.567 243.934C262.699 243.802 262.801 243.648 262.875 243.472C262.948 243.292 262.985 243.098 262.985 242.889C262.985 242.662 262.95 242.458 262.88 242.278C262.81 242.095 262.711 241.941 262.583 241.816C262.455 241.688 262.301 241.591 262.121 241.525C261.941 241.459 261.743 241.426 261.527 241.426C261.311 241.426 261.115 241.463 260.939 241.536C260.763 241.609 260.61 241.712 260.482 241.844C260.357 241.972 260.26 242.126 260.191 242.306C260.125 242.482 260.092 242.673 260.092 242.878Z" fill="#266483"/>
<path d="M256.599 269.357H258.21V264.721C258.21 264.541 258.216 264.352 258.227 264.154L257.083 265.111C257.035 265.152 256.985 265.179 256.934 265.194C256.886 265.209 256.839 265.216 256.791 265.216C256.718 265.216 256.65 265.201 256.588 265.172C256.529 265.139 256.485 265.102 256.456 265.062L256.027 264.473L258.452 262.411H259.569V269.357H260.999V270.375H256.599V269.357ZM264.811 262.334C265.178 262.334 265.513 262.389 265.818 262.499C266.122 262.605 266.382 262.757 266.599 262.955C266.815 263.153 266.984 263.392 267.105 263.67C267.226 263.949 267.286 264.259 267.286 264.6C267.286 264.893 267.242 265.165 267.154 265.414C267.07 265.663 266.954 265.902 266.808 266.129C266.665 266.356 266.496 266.576 266.302 266.789C266.107 267.002 265.904 267.218 265.691 267.438L263.898 269.269C264.074 269.218 264.246 269.18 264.415 269.154C264.584 269.125 264.745 269.11 264.899 269.11H266.94C267.086 269.11 267.202 269.152 267.286 269.236C267.374 269.317 267.418 269.425 267.418 269.561V270.375H261.962V269.924C261.962 269.832 261.98 269.737 262.017 269.638C262.057 269.539 262.12 269.447 262.204 269.363L264.619 266.943C264.82 266.738 265 266.541 265.158 266.354C265.319 266.167 265.453 265.982 265.559 265.799C265.669 265.616 265.752 265.43 265.807 265.243C265.865 265.053 265.895 264.853 265.895 264.644C265.895 264.453 265.867 264.286 265.812 264.143C265.757 263.997 265.678 263.874 265.576 263.775C265.473 263.676 265.35 263.603 265.207 263.555C265.068 263.504 264.91 263.478 264.734 263.478C264.408 263.478 264.138 263.56 263.926 263.725C263.717 263.89 263.57 264.112 263.486 264.391C263.445 264.53 263.385 264.631 263.304 264.694C263.223 264.752 263.121 264.781 262.996 264.781C262.941 264.781 262.881 264.776 262.815 264.765L262.1 264.638C262.155 264.257 262.261 263.923 262.419 263.637C262.576 263.348 262.772 263.108 263.007 262.917C263.245 262.723 263.517 262.578 263.821 262.482C264.129 262.383 264.459 262.334 264.811 262.334Z" fill="#266483"/>
<rect x="71" y="193.398" width="87" height="22" rx="11" fill="#CF4018"/>
<path d="M83.992 206.562L85.7712 207.918C85.8587 207.986 85.9462 207.989 86.0337 207.926C86.1212 207.862 86.1455 207.777 86.1066 207.67L85.392 205.468L87.1566 204.214C87.2441 204.156 87.2733 204.076 87.2441 203.973C87.2149 203.871 87.1469 203.82 87.0399 203.82H84.8816L84.1962 201.545C84.167 201.438 84.099 201.385 83.992 201.385C83.8851 201.385 83.817 201.438 83.7879 201.545L83.0879 203.82H80.9295C80.8226 203.82 80.7545 203.871 80.7254 203.973C80.6962 204.076 80.7254 204.156 80.8129 204.214L82.5774 205.468L81.8774 207.685C81.8386 207.782 81.8629 207.862 81.9504 207.926C82.0379 207.989 82.1254 207.986 82.2129 207.918L83.992 206.562ZM83.992 210.674C83.1656 210.674 82.3976 210.526 81.6879 210.23C80.9781 209.933 80.3608 209.522 79.8358 208.997C79.3108 208.472 78.9 207.855 78.6035 207.145C78.307 206.436 78.1587 205.668 78.1587 204.841C78.1587 204.024 78.307 203.261 78.6035 202.552C78.9 201.842 79.3108 201.224 79.8358 200.699C80.3608 200.174 80.9781 199.761 81.6879 199.46C82.3976 199.159 83.1656 199.008 83.992 199.008C84.8087 199.008 85.5719 199.159 86.2816 199.46C86.9913 199.761 87.6087 200.174 88.1337 200.699C88.6587 201.224 89.0719 201.842 89.3733 202.552C89.6747 203.261 89.8254 204.024 89.8254 204.841C89.8254 205.668 89.6747 206.436 89.3733 207.145C89.0719 207.855 88.6587 208.472 88.1337 208.997C87.6087 209.522 86.9913 209.933 86.2816 210.23C85.5719 210.526 84.8087 210.674 83.992 210.674Z" fill="white"/>
<path d="M96.3411 207.743H95V200.596H96.3411V207.743Z" fill="white"/>
<path d="M99.2227 203.295C99.3254 203.193 99.433 203.099 99.5456 203.013C99.6615 202.924 99.7824 202.85 99.9082 202.791C100.037 202.728 100.175 202.68 100.32 202.647C100.466 202.611 100.625 202.593 100.797 202.593C101.075 202.593 101.322 202.641 101.537 202.736C101.753 202.828 101.932 202.96 102.074 203.132C102.22 203.3 102.329 203.502 102.402 203.739C102.478 203.973 102.516 204.232 102.516 204.515V207.743H101.289V204.515C101.289 204.206 101.218 203.967 101.075 203.799C100.933 203.627 100.716 203.542 100.425 203.542C100.213 203.542 100.014 203.59 99.8287 203.685C99.6433 203.781 99.4678 203.911 99.3022 204.076V207.743H98.0753V202.672H98.8254C98.9843 202.672 99.0886 202.746 99.1383 202.894L99.2227 203.295Z" fill="white"/>
<path d="M105.307 203.216C105.506 203.031 105.724 202.881 105.963 202.766C106.201 202.65 106.481 202.593 106.802 202.593C107.08 202.593 107.327 202.641 107.542 202.736C107.758 202.828 107.936 202.96 108.079 203.132C108.224 203.3 108.334 203.502 108.407 203.739C108.483 203.973 108.521 204.232 108.521 204.515V207.743H107.294V204.515C107.294 204.206 107.223 203.967 107.08 203.799C106.938 203.627 106.721 203.542 106.43 203.542C106.218 203.542 106.019 203.59 105.834 203.685C105.648 203.781 105.473 203.911 105.307 204.076V207.743H104.08V200.398H105.307V203.216Z" fill="white"/>
<path d="M113.368 204.624C113.368 204.466 113.345 204.318 113.299 204.179C113.256 204.038 113.19 203.914 113.1 203.809C113.011 203.703 112.896 203.621 112.757 203.562C112.622 203.499 112.463 203.468 112.281 203.468C111.926 203.468 111.646 203.568 111.441 203.769C111.239 203.97 111.11 204.255 111.054 204.624H113.368ZM111.029 205.361C111.049 205.621 111.095 205.847 111.168 206.038C111.241 206.225 111.337 206.382 111.456 206.507C111.575 206.629 111.716 206.721 111.878 206.784C112.044 206.843 112.226 206.873 112.425 206.873C112.623 206.873 112.794 206.85 112.936 206.804C113.082 206.758 113.208 206.707 113.314 206.65C113.423 206.594 113.517 206.543 113.597 206.497C113.68 206.451 113.759 206.428 113.835 206.428C113.938 206.428 114.014 206.466 114.064 206.542L114.416 206.987C114.281 207.145 114.128 207.278 113.959 207.387C113.791 207.492 113.613 207.578 113.428 207.644C113.246 207.707 113.059 207.751 112.867 207.777C112.678 207.804 112.494 207.817 112.315 207.817C111.961 207.817 111.631 207.759 111.327 207.644C111.022 207.525 110.757 207.352 110.532 207.125C110.307 206.894 110.13 206.611 110.001 206.275C109.871 205.936 109.807 205.543 109.807 205.099C109.807 204.753 109.863 204.428 109.976 204.125C110.088 203.819 110.249 203.553 110.458 203.329C110.67 203.102 110.926 202.922 111.227 202.791C111.532 202.659 111.875 202.593 112.256 202.593C112.577 202.593 112.873 202.644 113.145 202.746C113.416 202.848 113.65 202.998 113.845 203.196C114.041 203.39 114.193 203.631 114.302 203.917C114.415 204.201 114.471 204.525 114.471 204.891C114.471 205.076 114.451 205.201 114.411 205.267C114.372 205.329 114.296 205.361 114.183 205.361H111.029Z" fill="white"/>
<path d="M116.947 203.552C117.105 203.249 117.294 203.011 117.513 202.84C117.731 202.665 117.99 202.578 118.288 202.578C118.523 202.578 118.712 202.629 118.854 202.731L118.774 203.646C118.758 203.705 118.733 203.748 118.7 203.774C118.67 203.797 118.629 203.809 118.576 203.809C118.526 203.809 118.452 203.8 118.352 203.784C118.256 203.767 118.162 203.759 118.069 203.759C117.933 203.759 117.812 203.779 117.706 203.819C117.601 203.858 117.504 203.916 117.418 203.992C117.336 204.064 117.261 204.153 117.195 204.258C117.132 204.364 117.072 204.484 117.016 204.619V207.743H115.789V202.672H116.509C116.635 202.672 116.723 202.695 116.773 202.741C116.822 202.784 116.855 202.863 116.872 202.978L116.947 203.552Z" fill="white"/>
<path d="M121.164 202.672V207.743H119.932V202.672H121.164ZM121.333 201.194C121.333 201.3 121.311 201.398 121.268 201.491C121.225 201.583 121.167 201.664 121.095 201.733C121.025 201.802 120.942 201.858 120.846 201.901C120.75 201.94 120.648 201.96 120.538 201.96C120.432 201.96 120.331 201.94 120.235 201.901C120.143 201.858 120.061 201.802 119.992 201.733C119.922 201.664 119.866 201.583 119.823 201.491C119.783 201.398 119.763 201.3 119.763 201.194C119.763 201.085 119.783 200.983 119.823 200.888C119.866 200.792 119.922 200.71 119.992 200.641C120.061 200.571 120.143 200.517 120.235 200.478C120.331 200.435 120.432 200.413 120.538 200.413C120.648 200.413 120.75 200.435 120.846 200.478C120.942 200.517 121.025 200.571 121.095 200.641C121.167 200.71 121.225 200.792 121.268 200.888C121.311 200.983 121.333 201.085 121.333 201.194Z" fill="white"/>
<path d="M124.511 207.822C124.067 207.822 123.726 207.698 123.488 207.451C123.253 207.201 123.135 206.856 123.135 206.418V203.586H122.614C122.547 203.586 122.491 203.565 122.445 203.522C122.398 203.479 122.375 203.415 122.375 203.329V202.845L123.195 202.711L123.453 201.328C123.47 201.262 123.501 201.211 123.547 201.174C123.594 201.138 123.653 201.12 123.726 201.12H124.362V202.716H125.723V203.586H124.362V206.334C124.362 206.492 124.4 206.616 124.476 206.705C124.556 206.794 124.663 206.838 124.799 206.838C124.875 206.838 124.938 206.83 124.988 206.814C125.041 206.794 125.086 206.774 125.122 206.754C125.162 206.735 125.197 206.716 125.226 206.7C125.256 206.68 125.286 206.67 125.316 206.67C125.352 206.67 125.382 206.68 125.405 206.7C125.428 206.716 125.453 206.743 125.48 206.779L125.847 207.372C125.668 207.52 125.463 207.632 125.231 207.708C125 207.784 124.759 207.822 124.511 207.822Z" fill="white"/>
<path d="M129.598 205.578C129.244 205.594 128.946 205.626 128.704 205.672C128.462 205.715 128.269 205.771 128.123 205.84C127.977 205.909 127.873 205.99 127.81 206.082C127.747 206.174 127.716 206.275 127.716 206.384C127.716 206.598 127.779 206.751 127.904 206.843C128.034 206.936 128.201 206.982 128.406 206.982C128.658 206.982 128.875 206.937 129.057 206.848C129.242 206.756 129.423 206.618 129.598 206.433V205.578ZM126.787 203.379C127.373 202.845 128.078 202.578 128.903 202.578C129.201 202.578 129.467 202.627 129.702 202.726C129.938 202.822 130.136 202.957 130.299 203.132C130.461 203.303 130.583 203.509 130.666 203.749C130.752 203.99 130.795 204.253 130.795 204.54V207.743H130.239C130.123 207.743 130.034 207.726 129.971 207.693C129.908 207.657 129.858 207.586 129.822 207.481L129.712 207.115C129.583 207.23 129.457 207.333 129.335 207.422C129.212 207.507 129.085 207.58 128.952 207.639C128.82 207.698 128.678 207.743 128.525 207.772C128.376 207.805 128.211 207.822 128.029 207.822C127.813 207.822 127.615 207.794 127.432 207.738C127.25 207.679 127.093 207.591 126.961 207.476C126.828 207.361 126.725 207.217 126.653 207.046C126.58 206.875 126.543 206.675 126.543 206.448C126.543 206.319 126.565 206.193 126.608 206.067C126.651 205.939 126.721 205.817 126.817 205.702C126.916 205.586 127.043 205.478 127.199 205.375C127.355 205.273 127.545 205.184 127.77 205.108C127.999 205.033 128.264 204.972 128.565 204.926C128.866 204.876 129.211 204.847 129.598 204.837V204.54C129.598 204.201 129.525 203.95 129.38 203.789C129.234 203.624 129.024 203.542 128.749 203.542C128.55 203.542 128.385 203.565 128.252 203.611C128.123 203.657 128.009 203.71 127.909 203.769C127.81 203.825 127.719 203.876 127.636 203.922C127.557 203.968 127.467 203.992 127.368 203.992C127.282 203.992 127.209 203.97 127.149 203.927C127.09 203.881 127.042 203.828 127.005 203.769L126.787 203.379Z" fill="white"/>
<path d="M133.496 203.295C133.598 203.193 133.706 203.099 133.818 203.013C133.934 202.924 134.055 202.85 134.181 202.791C134.31 202.728 134.448 202.68 134.593 202.647C134.739 202.611 134.898 202.593 135.07 202.593C135.348 202.593 135.595 202.641 135.81 202.736C136.026 202.828 136.204 202.96 136.347 203.132C136.492 203.3 136.602 203.502 136.675 203.739C136.751 203.973 136.789 204.232 136.789 204.515V207.743H135.562V204.515C135.562 204.206 135.491 203.967 135.348 203.799C135.206 203.627 134.989 203.542 134.698 203.542C134.486 203.542 134.287 203.59 134.102 203.685C133.916 203.781 133.741 203.911 133.575 204.076V207.743H132.348V202.672H133.098C133.257 202.672 133.361 202.746 133.411 202.894L133.496 203.295Z" fill="white"/>
<path d="M142.004 203.744C141.967 203.791 141.931 203.827 141.895 203.853C141.861 203.879 141.812 203.893 141.746 203.893C141.683 203.893 141.621 203.875 141.562 203.838C141.502 203.799 141.431 203.756 141.348 203.71C141.265 203.66 141.166 203.618 141.05 203.581C140.938 203.542 140.797 203.522 140.628 203.522C140.413 203.522 140.224 203.562 140.062 203.641C139.899 203.716 139.764 203.827 139.654 203.972C139.548 204.117 139.469 204.293 139.416 204.501C139.363 204.705 139.336 204.937 139.336 205.197C139.336 205.468 139.365 205.708 139.421 205.919C139.481 206.13 139.565 206.308 139.674 206.453C139.784 206.594 139.916 206.703 140.072 206.779C140.227 206.851 140.403 206.888 140.598 206.888C140.794 206.888 140.951 206.865 141.07 206.819C141.193 206.769 141.295 206.716 141.378 206.66C141.461 206.601 141.532 206.548 141.592 206.502C141.655 206.453 141.724 206.428 141.8 206.428C141.9 206.428 141.974 206.466 142.024 206.542L142.376 206.987C142.241 207.145 142.093 207.278 141.934 207.387C141.775 207.492 141.61 207.578 141.438 207.644C141.269 207.707 141.093 207.751 140.911 207.777C140.732 207.804 140.553 207.817 140.375 207.817C140.06 207.817 139.764 207.759 139.486 207.644C139.207 207.525 138.964 207.354 138.755 207.13C138.547 206.906 138.381 206.632 138.259 206.309C138.139 205.983 138.08 205.613 138.08 205.197C138.08 204.825 138.133 204.481 138.239 204.165C138.348 203.845 138.507 203.57 138.716 203.339C138.924 203.105 139.183 202.922 139.49 202.791C139.798 202.659 140.153 202.593 140.553 202.593C140.934 202.593 141.267 202.654 141.552 202.776C141.84 202.898 142.098 203.072 142.327 203.3L142.004 203.744Z" fill="white"/>
<path d="M146.739 204.624C146.739 204.466 146.716 204.318 146.669 204.179C146.626 204.038 146.56 203.914 146.471 203.809C146.381 203.703 146.267 203.621 146.128 203.562C145.992 203.499 145.833 203.468 145.651 203.468C145.297 203.468 145.017 203.568 144.812 203.769C144.61 203.97 144.481 204.255 144.424 204.624H146.739ZM144.399 205.361C144.419 205.621 144.466 205.847 144.538 206.038C144.611 206.225 144.707 206.382 144.827 206.507C144.946 206.629 145.087 206.721 145.249 206.784C145.414 206.843 145.596 206.873 145.795 206.873C145.994 206.873 146.164 206.85 146.307 206.804C146.452 206.758 146.578 206.707 146.684 206.65C146.794 206.594 146.888 206.543 146.967 206.497C147.05 206.451 147.13 206.428 147.206 206.428C147.308 206.428 147.385 206.466 147.434 206.542L147.787 206.987C147.651 207.145 147.499 207.278 147.33 207.387C147.161 207.492 146.984 207.578 146.799 207.644C146.616 207.707 146.429 207.751 146.237 207.777C146.048 207.804 145.865 207.817 145.686 207.817C145.332 207.817 145.002 207.759 144.697 207.644C144.393 207.525 144.128 207.352 143.903 207.125C143.677 206.894 143.5 206.611 143.371 206.275C143.242 205.936 143.177 205.543 143.177 205.099C143.177 204.753 143.234 204.428 143.346 204.125C143.459 203.819 143.62 203.553 143.828 203.329C144.04 203.102 144.297 202.922 144.598 202.791C144.903 202.659 145.245 202.593 145.626 202.593C145.947 202.593 146.244 202.644 146.515 202.746C146.787 202.848 147.02 202.998 147.216 203.196C147.411 203.39 147.563 203.631 147.673 203.917C147.785 204.201 147.842 204.525 147.842 204.891C147.842 205.076 147.822 205.201 147.782 205.267C147.742 205.329 147.666 205.361 147.554 205.361H144.399Z" fill="white"/>
</svg>
