<svg width="24" height="24" viewBox="0 0 24 24" fill="none" xmlns="http://www.w3.org/2000/svg">
<path d="M6 5L6 7C6 7.55 6.45 8 7 8C7.55 8 8 7.55 8 7L8 5L21 5L21 19L8 19L8 17C8 16.45 7.55 16 7 16C6.45 16 6 16.45 6 17L6 19C6 20.1 6.9 21 8 21L21 21C22.1 21 23 20.1 23 19L23 5C23 3.9 22.1 3 21 3L8 3C6.9 3 6 3.9 6 5Z" fill="#031F2B"/>
<path d="M0.21 12.0054C0.21 11.4554 0.66 11.0054 1.21 11.0054L9.21 11.0054L9.21 9.21543C9.21 8.76543 9.75 8.54543 10.06 8.86543L12.85 11.6554C13.05 11.8554 13.05 12.1654 12.85 12.3654L10.06 15.1554C9.75 15.4654 9.21 15.2454 9.21 14.7954L9.21 13.0054L1.21 13.0054C0.66 13.0054 0.21 12.5554 0.21 12.0054Z" fill="#031F2B"/>
</svg>
