<svg width="16" height="17" viewBox="0 0 16 17" fill="none" xmlns="http://www.w3.org/2000/svg">
<g clip-path="url(#clip0_53116_296504)">
<path d="M13.5267 10.1153L11.1333 12.5086C10.72 12.9219 10 12.6286 10 12.0353V10.3086H5.33333C3.49333 10.3086 2 8.81528 2 6.97528V4.97528C2 4.60861 2.3 4.30861 2.66667 4.30861C3.03333 4.30861 3.33333 4.60861 3.33333 4.97528V6.97528C3.33333 8.07528 4.23333 8.97528 5.33333 8.97528H10V7.24861C10 6.65528 10.72 6.35528 11.14 6.77528L13.5333 9.16861C13.7867 9.42861 13.7867 9.85528 13.5267 10.1153Z" fill="#031F2B"/>
</g>
<defs>
<clipPath id="clip0_53116_296504">
<rect width="16" height="16" fill="white" transform="translate(0 0.0351562)"/>
</clipPath>
</defs>
</svg>
