<svg width="346" height="432" viewBox="0 0 346 432" fill="none" xmlns="http://www.w3.org/2000/svg">
<rect width="346" height="432" rx="24" fill="#D0E2FF"/>
<g clip-path="url(#clip0_85926_1256616)">
<rect width="213" height="252" transform="translate(66.5 90)" fill="#D0E2FF"/>
<path d="M225.556 179.455C225.577 179.468 225.556 179.455 225.556 179.455C225.577 179.468 225.565 179.489 225.565 179.489L218.761 197.02C218.748 197.041 218.748 197.041 218.727 197.028L197.144 189.052C197.123 189.039 197.123 189.039 197.135 189.018L203.571 171.525C203.583 171.504 203.583 171.504 203.604 171.517L225.556 179.455Z" fill="#46CDCF" stroke="#333333" stroke-width="0.5" stroke-linecap="round" stroke-linejoin="round"/>
<mask id="path-3-inside-1_85926_1256616" fill="white">
<path d="M151.137 178.804C152.274 181.406 154.404 184.86 158.074 186.699L158.09 186.714C158.09 186.714 158.091 186.729 158.075 186.73C156.133 187.783 150.232 191.858 150.022 192.009L150.006 192.01C149.756 191.947 143.073 190.009 141.744 180.135C141.744 180.135 141.744 180.12 141.759 180.119C144.855 178.46 149.642 175.621 149.986 175.431L150.001 175.43C150.001 175.43 150.001 175.43 150.017 175.445C150.041 175.582 150.225 176.357 150.628 177.459"/>
</mask>
<path d="M151.137 178.804C152.274 181.406 154.404 184.86 158.074 186.699L158.09 186.714C158.09 186.714 158.091 186.729 158.075 186.73C156.133 187.783 150.232 191.858 150.022 192.009L150.006 192.01C149.756 191.947 143.073 190.009 141.744 180.135C141.744 180.135 141.744 180.12 141.759 180.119C144.855 178.46 149.642 175.621 149.986 175.431L150.001 175.43C150.001 175.43 150.001 175.43 150.017 175.445C150.041 175.582 150.225 176.357 150.628 177.459" fill="#ABEDD8"/>
<path d="M158.074 186.699L158.273 186.475L158.243 186.449L158.208 186.431L158.074 186.699ZM158.09 186.714L158.389 186.697L158.382 186.572L158.289 186.49L158.09 186.714ZM158.075 186.73L158.058 186.431L157.991 186.435L157.932 186.466L158.075 186.73ZM150.022 192.009L150.039 192.308L150.126 192.303L150.197 192.252L150.022 192.009ZM150.006 192.01L149.933 192.301L149.978 192.312L150.024 192.309L150.006 192.01ZM141.744 180.135L141.445 180.152L141.446 180.164L141.447 180.175L141.744 180.135ZM141.759 180.119L141.776 180.418L141.842 180.415L141.901 180.383L141.759 180.119ZM149.986 175.431L149.968 175.132L149.9 175.136L149.841 175.169L149.986 175.431ZM150.001 175.43L150.019 175.73L150.055 175.728L150.091 175.717L150.001 175.43ZM150.017 175.445L150.313 175.395L150.296 175.291L150.217 175.221L150.017 175.445ZM151.137 178.804L150.862 178.924C152.011 181.554 154.179 185.083 157.939 186.968L158.074 186.699L158.208 186.431C154.63 184.638 152.537 181.259 151.412 178.683L151.137 178.804ZM158.074 186.699L157.874 186.924L157.891 186.938L158.09 186.714L158.289 186.49L158.273 186.475L158.074 186.699ZM158.09 186.714C157.79 186.731 157.79 186.731 157.79 186.731C157.79 186.731 157.79 186.731 157.79 186.73C157.79 186.73 157.79 186.73 157.79 186.73C157.79 186.729 157.79 186.729 157.79 186.729C157.79 186.728 157.79 186.727 157.79 186.726C157.79 186.725 157.79 186.723 157.79 186.721C157.79 186.718 157.79 186.714 157.79 186.71C157.79 186.703 157.79 186.694 157.791 186.684C157.793 186.666 157.798 186.637 157.813 186.603C157.828 186.569 157.855 186.524 157.903 186.488C157.954 186.45 158.009 186.434 158.058 186.431L158.075 186.73L158.093 187.03C158.149 187.026 158.21 187.008 158.265 186.967C158.317 186.927 158.347 186.879 158.364 186.84C158.38 186.803 158.386 186.77 158.388 186.749C158.389 186.737 158.39 186.727 158.39 186.719C158.39 186.715 158.39 186.711 158.39 186.707C158.39 186.705 158.39 186.703 158.39 186.702C158.39 186.701 158.39 186.7 158.389 186.699C158.389 186.699 158.389 186.698 158.389 186.698C158.389 186.698 158.389 186.698 158.389 186.697C158.389 186.697 158.389 186.697 158.389 186.697C158.389 186.697 158.389 186.697 158.09 186.714ZM158.075 186.73L157.932 186.466C155.971 187.53 150.054 191.616 149.846 191.765L150.022 192.009L150.197 192.252C150.409 192.1 156.296 188.036 158.218 186.994L158.075 186.73ZM150.022 192.009L150.004 191.709L149.989 191.71L150.006 192.01L150.024 192.309L150.039 192.308L150.022 192.009ZM150.006 192.01L150.079 191.719C149.9 191.674 143.348 189.805 142.042 180.095L141.744 180.135L141.447 180.175C142.798 190.213 149.612 192.22 149.933 192.301L150.006 192.01ZM141.744 180.135C142.044 180.118 142.044 180.118 142.044 180.118C142.044 180.118 142.044 180.119 142.044 180.119C142.044 180.119 142.044 180.119 142.044 180.119C142.044 180.12 142.044 180.12 142.044 180.12C142.044 180.121 142.044 180.122 142.044 180.123C142.044 180.124 142.044 180.126 142.044 180.128C142.044 180.131 142.045 180.135 142.044 180.139C142.044 180.146 142.044 180.155 142.043 180.165C142.041 180.183 142.036 180.213 142.022 180.246C142.007 180.281 141.979 180.325 141.931 180.361C141.88 180.399 141.825 180.416 141.776 180.418L141.759 180.119L141.742 179.819C141.685 179.823 141.624 179.841 141.57 179.882C141.517 179.922 141.487 179.97 141.47 180.009C141.454 180.046 141.449 180.079 141.446 180.1C141.445 180.112 141.445 180.122 141.445 180.13C141.444 180.135 141.444 180.138 141.445 180.142C141.445 180.144 141.445 180.146 141.445 180.147C141.445 180.148 141.445 180.149 141.445 180.15C141.445 180.15 141.445 180.151 141.445 180.151C141.445 180.151 141.445 180.152 141.445 180.152C141.445 180.152 141.445 180.152 141.445 180.152C141.445 180.152 141.445 180.152 141.744 180.135ZM141.759 180.119L141.901 180.383C144.987 178.729 149.815 175.868 150.131 175.694L149.986 175.431L149.841 175.169C149.47 175.374 144.723 178.19 141.617 179.855L141.759 180.119ZM149.986 175.431L150.003 175.731L150.019 175.73L150.001 175.43L149.984 175.131L149.968 175.132L149.986 175.431ZM150.001 175.43C150.091 175.717 150.001 175.73 149.912 175.717C149.901 175.713 149.878 175.704 149.865 175.698C149.85 175.69 149.838 175.683 149.835 175.68C149.827 175.675 149.82 175.67 149.819 175.669C149.814 175.665 149.811 175.662 149.81 175.662C149.808 175.66 149.806 175.658 149.806 175.658C149.805 175.657 149.804 175.656 149.804 175.656C149.803 175.656 149.803 175.656 149.803 175.656C149.803 175.656 149.803 175.656 149.803 175.655C149.803 175.655 149.803 175.656 149.804 175.657C149.806 175.658 149.81 175.662 149.818 175.669L150.017 175.445L150.217 175.221C150.209 175.214 150.205 175.21 150.202 175.208C150.201 175.207 150.201 175.206 150.2 175.206C150.2 175.206 150.199 175.205 150.199 175.205C150.199 175.205 150.198 175.204 150.197 175.203C150.196 175.203 150.194 175.201 150.192 175.199C150.192 175.199 150.188 175.196 150.184 175.192C150.182 175.191 150.176 175.186 150.167 175.181C150.164 175.178 150.153 175.171 150.137 175.163C150.125 175.157 150.101 175.148 150.09 175.144C150.001 175.13 149.912 175.144 150.001 175.43ZM150.017 175.445L149.722 175.495C149.749 175.657 149.939 176.451 150.346 177.562L150.628 177.459L150.909 177.356C150.51 176.264 150.332 175.508 150.313 175.395L150.017 175.445Z" fill="black" mask="url(#path-3-inside-1_85926_1256616)"/>
<rect x="99.5" y="182" width="145" height="152" rx="9" fill="white" fill-opacity="0.5"/>
<rect x="107.028" y="189.432" width="131.04" height="136.402" rx="5.568" fill="#48466D" stroke="#333333" stroke-width="0.864"/>
<rect x="112.39" y="195.87" width="121.389" height="125.678" rx="3.568" fill="#78C7E0" stroke="#333333" stroke-width="0.864"/>
<rect x="224.558" y="252.984" width="14.0336" height="25.7374" transform="rotate(90 224.558 252.984)" fill="#46CDCF" stroke="#333333" stroke-width="0.6" stroke-linecap="round" stroke-linejoin="round"/>
<rect x="224.558" y="275.461" width="14.0336" height="24.665" transform="rotate(90 224.558 275.461)" fill="#46CDCF" stroke="#333333" stroke-width="0.6" stroke-linecap="round" stroke-linejoin="round"/>
<rect x="224.558" y="297.93" width="14.0336" height="24.665" transform="rotate(90 224.558 297.93)" fill="#46CDCF" stroke="#333333" stroke-width="0.6" stroke-linecap="round" stroke-linejoin="round"/>
<rect x="145.201" y="252.984" width="14.0336" height="24.665" transform="rotate(90 145.201 252.984)" fill="#46CDCF" stroke="#333333" stroke-width="0.6" stroke-linecap="round" stroke-linejoin="round"/>
<rect x="145.201" y="275.461" width="14.0336" height="24.665" transform="rotate(90 145.201 275.461)" fill="#46CDCF" stroke="#333333" stroke-width="0.6" stroke-linecap="round" stroke-linejoin="round"/>
<rect x="145.201" y="297.93" width="14.0336" height="24.665" transform="rotate(90 145.201 297.93)" fill="#46CDCF" stroke="#333333" stroke-width="0.6" stroke-linecap="round" stroke-linejoin="round"/>
<rect x="184.879" y="252.984" width="14.0336" height="24.665" transform="rotate(90 184.879 252.984)" fill="#46CDCF" stroke="#333333" stroke-width="0.6" stroke-linecap="round" stroke-linejoin="round"/>
<rect x="184.879" y="275.461" width="14.0336" height="24.665" transform="rotate(90 184.879 275.461)" fill="#46CDCF" stroke="#333333" stroke-width="0.6" stroke-linecap="round" stroke-linejoin="round"/>
<rect x="184.879" y="297.93" width="14.0336" height="24.665" transform="rotate(90 184.879 297.93)" fill="#46CDCF" stroke="#333333" stroke-width="0.6" stroke-linecap="round" stroke-linejoin="round"/>
<rect x="119.464" y="203.656" width="106.167" height="39.6785" fill="#3D84A8" stroke="#333333" stroke-width="0.6" stroke-linecap="round" stroke-linejoin="round"/>
<path d="M138.815 157.045C138.808 157.064 138.815 157.045 138.815 157.045C138.808 157.064 138.79 157.057 138.79 157.057L126.194 149.82C126.194 149.82 126.175 149.812 126.182 149.794C126.296 149.323 129.04 137.876 137.078 135.686L137.097 135.693C139.484 137.154 148.732 142.819 149.319 143.192C149.319 143.192 149.338 143.199 149.331 143.218L149.324 143.236C148.733 143.553 139.607 148.614 138.815 157.045Z" fill="#ABEDD8" stroke="#333333" stroke-width="0.5" stroke-linecap="round" stroke-linejoin="round"/>
<path d="M185.931 141.955C185.947 141.943 185.931 141.955 185.931 141.955C185.947 141.943 185.959 141.959 185.959 141.959L192.752 154.799C192.752 154.799 192.764 154.815 192.748 154.827C192.4 155.165 183.974 163.383 176.006 160.948L175.994 160.932C174.754 158.423 169.955 148.698 169.656 148.069C169.656 148.069 169.644 148.053 169.66 148.041L169.676 148.029C170.345 148.077 180.764 148.664 185.931 141.955Z" fill="#46CDCF" stroke="#333333" stroke-width="0.5" stroke-linecap="round" stroke-linejoin="round"/>
<mask id="path-20-inside-2_85926_1256616" fill="white">
<path d="M243.514 124.375C238.476 129.287 231.472 134.726 223.667 136.804L223.638 136.784C220.718 132.667 208.059 116.288 207.356 115.393C207.356 115.393 207.327 115.373 207.347 115.344L207.366 115.315C208.337 115 224.432 109.573 232.616 95.5592L232.636 95.5302L232.665 95.5497L251.631 114.959L251.641 115.008C251.465 115.269 249.884 117.489 247.21 120.455"/>
</mask>
<path d="M243.514 124.375C238.476 129.287 231.472 134.726 223.667 136.804L223.638 136.784C220.718 132.667 208.059 116.288 207.356 115.393C207.356 115.393 207.327 115.373 207.347 115.344L207.366 115.315C208.337 115 224.432 109.573 232.616 95.5592L232.636 95.5302L232.665 95.5497L251.631 114.959L251.641 115.008C251.465 115.269 249.884 117.489 247.21 120.455" fill="#3D84A8"/>
<path d="M223.667 136.804L223.388 137.218L223.576 137.345L223.796 137.287L223.667 136.804ZM223.638 136.784L223.23 137.074L223.283 137.148L223.359 137.199L223.638 136.784ZM207.356 115.393L207.749 115.084L207.701 115.022L207.635 114.978L207.356 115.393ZM207.366 115.315L207.212 114.839L207.048 114.893L206.951 115.036L207.366 115.315ZM232.616 95.5592L232.202 95.2797L232.193 95.2931L232.185 95.307L232.616 95.5592ZM232.636 95.5302L232.915 95.1156L232.501 94.8361L232.221 95.2507L232.636 95.5302ZM232.665 95.5497L233.022 95.2003L232.987 95.1637L232.944 95.1351L232.665 95.5497ZM251.631 114.959L252.122 114.864L252.094 114.717L251.989 114.61L251.631 114.959ZM251.641 115.008L252.055 115.287L252.171 115.116L252.132 114.912L251.641 115.008ZM243.514 124.375L243.165 124.017C238.148 128.907 231.219 134.276 223.539 136.321L223.667 136.804L223.796 137.287C231.724 135.177 238.803 129.666 243.863 124.734L243.514 124.375ZM223.667 136.804L223.947 136.389L223.918 136.37L223.638 136.784L223.359 137.199L223.388 137.218L223.667 136.804ZM223.638 136.784L224.046 136.495C221.118 132.366 208.45 115.977 207.749 115.084L207.356 115.393L206.963 115.701C207.667 116.598 220.319 132.968 223.23 137.074L223.638 136.784ZM207.356 115.393C207.635 114.978 207.636 114.978 207.636 114.978C207.636 114.978 207.636 114.978 207.636 114.978C207.636 114.979 207.637 114.979 207.637 114.979C207.638 114.979 207.638 114.98 207.639 114.98C207.64 114.981 207.641 114.982 207.642 114.982C207.644 114.984 207.646 114.986 207.649 114.987C207.653 114.991 207.658 114.994 207.663 114.998C207.673 115.006 207.684 115.015 207.696 115.026C207.717 115.047 207.75 115.082 207.779 115.133C207.81 115.187 207.84 115.267 207.84 115.367C207.839 115.47 207.805 115.558 207.761 115.624L207.347 115.344L206.932 115.065C206.878 115.144 206.84 115.246 206.84 115.361C206.839 115.473 206.874 115.563 206.909 115.625C206.942 115.685 206.981 115.727 207.008 115.752C207.022 115.766 207.035 115.777 207.047 115.785C207.052 115.79 207.058 115.794 207.063 115.797C207.065 115.799 207.067 115.801 207.07 115.803C207.071 115.803 207.072 115.804 207.073 115.805C207.074 115.805 207.074 115.806 207.075 115.806C207.075 115.806 207.075 115.806 207.076 115.807C207.076 115.807 207.076 115.807 207.076 115.807C207.076 115.807 207.077 115.807 207.356 115.393ZM207.347 115.344L207.761 115.624L207.781 115.595L207.366 115.315L206.951 115.036L206.932 115.065L207.347 115.344ZM207.366 115.315L207.52 115.791C208.504 115.472 224.763 109.998 233.048 95.8113L232.616 95.5592L232.185 95.307C224.101 109.148 208.169 114.529 207.212 114.839L207.366 115.315ZM232.616 95.5592L233.031 95.8387L233.051 95.8097L232.636 95.5302L232.221 95.2507L232.202 95.2797L232.616 95.5592ZM232.636 95.5302L232.356 95.9448L232.385 95.9643L232.665 95.5497L232.944 95.1351L232.915 95.1156L232.636 95.5302ZM232.665 95.5497L232.307 95.8992L251.274 115.309L251.631 114.959L251.989 114.61L233.022 95.2003L232.665 95.5497ZM251.631 114.959L251.141 115.055L251.15 115.103L251.641 115.008L252.132 114.912L252.122 114.864L251.631 114.959ZM251.641 115.008L251.226 114.728C251.064 114.969 249.498 117.171 246.839 120.12L247.21 120.455L247.582 120.79C250.27 117.807 251.866 115.568 252.055 115.287L251.641 115.008Z" fill="#333333" mask="url(#path-20-inside-2_85926_1256616)"/>
<mask id="path-22-inside-3_85926_1256616" fill="white">
<path d="M101.385 112.638C103.968 118.548 108.805 126.392 117.138 130.569L117.175 130.602C117.175 130.602 117.177 130.636 117.142 130.639C112.732 133.029 99.3289 142.283 98.852 142.626L98.8171 142.628C98.249 142.486 83.0729 138.084 80.0554 115.662C80.0554 115.662 80.0534 115.627 80.0883 115.625C87.1196 111.857 97.9912 105.41 98.771 104.98L98.8058 104.978C98.8058 104.978 98.8059 104.978 98.8428 105.01C98.8959 105.322 99.3131 107.083 100.228 109.584"/>
</mask>
<path d="M101.385 112.638C103.968 118.548 108.805 126.392 117.138 130.569L117.175 130.602C117.175 130.602 117.177 130.636 117.142 130.639C112.732 133.029 99.3289 142.283 98.852 142.626L98.8171 142.628C98.249 142.486 83.0729 138.084 80.0554 115.662C80.0554 115.662 80.0534 115.627 80.0883 115.625C87.1196 111.857 97.9912 105.41 98.771 104.98L98.8058 104.978C98.8058 104.978 98.8059 104.978 98.8428 105.01C98.8959 105.322 99.3131 107.083 100.228 109.584" fill="#54C4C9"/>
<path d="M117.138 130.569L117.47 130.195L117.421 130.151L117.362 130.122L117.138 130.569ZM117.175 130.602L117.674 130.573L117.662 130.366L117.507 130.228L117.175 130.602ZM117.142 130.639L117.113 130.139L117.001 130.146L116.903 130.199L117.142 130.639ZM98.852 142.626L98.881 143.125L99.0258 143.116L99.1437 143.032L98.852 142.626ZM98.8171 142.628L98.6959 143.113L98.7699 143.131L98.8461 143.127L98.8171 142.628ZM80.0554 115.662L79.5562 115.69L79.5573 115.709L79.5599 115.728L80.0554 115.662ZM80.0883 115.625L80.1173 116.124L80.2273 116.118L80.3245 116.065L80.0883 115.625ZM98.771 104.98L98.742 104.48L98.6287 104.487L98.5294 104.542L98.771 104.98ZM98.8058 104.978L98.8348 105.477L98.8963 105.473L98.955 105.455L98.8058 104.978ZM98.8428 105.01L99.3357 104.926L99.3062 104.754L99.1752 104.637L98.8428 105.01ZM101.385 112.638L100.927 112.838C103.53 118.794 108.429 126.763 116.914 131.016L117.138 130.569L117.362 130.122C109.181 126.021 104.407 118.303 101.844 112.437L101.385 112.638ZM117.138 130.569L116.805 130.942L116.842 130.975L117.175 130.602L117.507 130.228L117.47 130.195L117.138 130.569ZM117.175 130.602C116.675 130.63 116.675 130.63 116.675 130.63C116.675 130.63 116.675 130.629 116.675 130.629C116.675 130.629 116.675 130.628 116.675 130.628C116.675 130.627 116.675 130.627 116.675 130.626C116.675 130.625 116.675 130.624 116.675 130.622C116.675 130.619 116.675 130.617 116.675 130.614C116.675 130.608 116.675 130.602 116.675 130.596C116.675 130.584 116.676 130.569 116.677 130.553C116.681 130.524 116.689 130.476 116.712 130.422C116.736 130.365 116.781 130.293 116.861 130.233C116.943 130.17 117.034 130.144 117.113 130.139L117.142 130.639L117.171 131.138C117.267 131.132 117.371 131.1 117.463 131.031C117.552 130.964 117.603 130.882 117.631 130.817C117.658 130.753 117.668 130.697 117.671 130.661C117.674 130.642 117.674 130.624 117.675 130.61C117.675 130.603 117.675 130.596 117.675 130.59C117.674 130.587 117.674 130.584 117.674 130.581C117.674 130.58 117.674 130.578 117.674 130.577C117.674 130.576 117.674 130.576 117.674 130.575C117.674 130.575 117.674 130.574 117.674 130.574C117.674 130.574 117.674 130.574 117.674 130.574C117.674 130.573 117.674 130.573 117.175 130.602ZM117.142 130.639L116.903 130.199C112.461 132.607 99.0337 141.879 98.5602 142.219L98.852 142.626L99.1437 143.032C99.6242 142.686 113.002 133.451 117.38 131.078L117.142 130.639ZM98.852 142.626L98.823 142.126L98.7881 142.128L98.8171 142.628L98.8461 143.127L98.881 143.125L98.852 142.626ZM98.8171 142.628L98.9383 142.143C98.4897 142.03 83.5316 137.744 80.551 115.595L80.0554 115.662L79.5599 115.728C82.6141 138.424 98.0083 142.941 98.6959 143.113L98.8171 142.628ZM80.0554 115.662C80.5546 115.633 80.5546 115.633 80.5546 115.634C80.5546 115.634 80.5547 115.634 80.5547 115.634C80.5547 115.634 80.5547 115.635 80.5547 115.635C80.5547 115.636 80.5548 115.636 80.5548 115.637C80.5549 115.638 80.5549 115.64 80.555 115.641C80.5551 115.644 80.5552 115.647 80.5553 115.649C80.5554 115.655 80.5554 115.661 80.5554 115.667C80.5552 115.68 80.5545 115.694 80.5527 115.71C80.5495 115.74 80.5415 115.787 80.518 115.842C80.4938 115.898 80.4488 115.971 80.3693 116.031C80.2868 116.093 80.1959 116.119 80.1173 116.124L80.0883 115.625L80.0593 115.126C79.9633 115.131 79.8596 115.163 79.7676 115.232C79.6786 115.299 79.6277 115.381 79.5995 115.446C79.5723 115.51 79.5625 115.566 79.5586 115.602C79.5565 115.622 79.5557 115.639 79.5555 115.653C79.5554 115.66 79.5554 115.667 79.5555 115.673C79.5556 115.676 79.5557 115.679 79.5558 115.682C79.5559 115.683 79.556 115.685 79.556 115.686C79.5561 115.687 79.5561 115.688 79.5561 115.688C79.5561 115.689 79.5562 115.689 79.5562 115.689C79.5562 115.689 79.5562 115.69 79.5562 115.69C79.5562 115.69 79.5562 115.69 80.0554 115.662ZM80.0883 115.625L80.3245 116.065C87.3397 112.306 98.2793 105.822 99.0125 105.417L98.771 104.98L98.5294 104.542C97.703 104.998 86.8994 111.408 79.8521 115.184L80.0883 115.625ZM98.771 104.98L98.8 105.479L98.8348 105.477L98.8058 104.978L98.7768 104.478L98.742 104.48L98.771 104.98ZM98.8058 104.978C98.955 105.455 98.8063 105.478 98.6575 105.455C98.6394 105.449 98.6001 105.433 98.579 105.423C98.5534 105.41 98.5347 105.398 98.5291 105.394C98.5148 105.384 98.5042 105.376 98.5017 105.374C98.4942 105.369 98.4886 105.364 98.4874 105.363C98.4837 105.36 98.4808 105.357 98.4802 105.357C98.4783 105.355 98.4769 105.354 98.4766 105.354C98.4761 105.353 98.4757 105.353 98.4756 105.353C98.4755 105.353 98.4754 105.353 98.4754 105.353C98.4754 105.353 98.4753 105.353 98.4753 105.353C98.4753 105.353 98.4754 105.353 98.4755 105.353C98.4756 105.353 98.4758 105.353 98.4761 105.353C98.4766 105.354 98.4774 105.355 98.4785 105.356C98.4828 105.359 98.4919 105.367 98.5103 105.384L98.8428 105.01L99.1752 104.637C99.1567 104.62 99.1473 104.612 99.1424 104.608C99.1401 104.606 99.1385 104.604 99.1375 104.603C99.1371 104.603 99.1362 104.602 99.1352 104.601C99.1348 104.601 99.1334 104.6 99.1315 104.598C99.1309 104.598 99.128 104.595 99.1242 104.592C99.1231 104.591 99.1174 104.586 99.11 104.581C99.1075 104.579 99.0968 104.571 99.0825 104.561C99.077 104.557 99.0583 104.545 99.0326 104.532C99.0116 104.522 98.9722 104.506 98.9542 104.5C98.8054 104.478 98.6566 104.5 98.8058 104.978ZM98.8428 105.01L98.3499 105.094C98.4098 105.447 98.8375 107.238 99.7587 109.756L100.228 109.584L100.698 109.412C99.7886 106.927 99.3819 105.198 99.3357 104.926L98.8428 105.01Z" fill="#333333" mask="url(#path-22-inside-3_85926_1256616)"/>
</g>
<defs>
<clipPath id="clip0_85926_1256616">
<rect width="213" height="252" fill="white" transform="translate(66.5 90)"/>
</clipPath>
</defs>
</svg>
