<svg width="24" height="24" viewBox="0 0 24 24" fill="none" xmlns="http://www.w3.org/2000/svg">
<path d="M11.5522 19.2163C11.3689 19.033 11.273 18.7996 11.2647 18.5163C11.2564 18.233 11.3439 17.9996 11.5272 17.8163L16.4272 12.9163H5.2522C4.96886 12.9163 4.73136 12.8205 4.5397 12.6288C4.34803 12.4371 4.2522 12.1996 4.2522 11.9163C4.2522 11.633 4.34803 11.3955 4.5397 11.2038C4.73136 11.0121 4.96886 10.9163 5.2522 10.9163H16.4272L11.5272 6.01629C11.3439 5.83296 11.2564 5.59963 11.2647 5.31629C11.273 5.03296 11.3689 4.79963 11.5522 4.61629C11.7355 4.43296 11.9689 4.34129 12.2522 4.34129C12.5355 4.34129 12.7689 4.43296 12.9522 4.61629L19.5522 11.2163C19.6522 11.2996 19.723 11.4038 19.7647 11.5288C19.8064 11.6538 19.8272 11.783 19.8272 11.9163C19.8272 12.0496 19.8064 12.1746 19.7647 12.2913C19.723 12.408 19.6522 12.5163 19.5522 12.6163L12.9522 19.2163C12.7689 19.3996 12.5355 19.4913 12.2522 19.4913C11.9689 19.4913 11.7355 19.3996 11.5522 19.2163Z" fill="white"/>
</svg>
