<svg width="24" height="24" viewBox="0 0 24 24" fill="none" xmlns="http://www.w3.org/2000/svg">
<path fill-rule="evenodd" clip-rule="evenodd" d="M12.2908 5.2938C12.3837 5.20068 12.494 5.1268 12.6155 5.0764C12.737 5.02599 12.8672 5.00004 12.9987 5.00004C13.1303 5.00004 13.2605 5.02599 13.382 5.0764C13.5034 5.1268 13.6138 5.20068 13.7067 5.2938L19.706 11.2931C19.7991 11.386 19.873 11.4963 19.9234 11.6178C19.9738 11.7393 19.9997 11.8695 19.9997 12.001C19.9997 12.1326 19.9738 12.2628 19.9234 12.3843C19.873 12.5057 19.7991 12.6161 19.706 12.709L13.7067 18.7083C13.5189 18.896 13.2643 19.0015 12.9987 19.0015C12.7332 19.0015 12.4786 18.896 12.2908 18.7083C12.1031 18.5205 11.9976 18.2659 11.9976 18.0004C11.9976 17.7349 12.1031 17.4802 12.2908 17.2925L17.5842 12.001L12.2908 6.70964C12.1977 6.61676 12.1238 6.50642 12.0734 6.38494C12.023 6.26346 11.9971 6.13324 11.9971 6.00172C11.9971 5.8702 12.023 5.73997 12.0734 5.61849C12.1238 5.49702 12.1977 5.38668 12.2908 5.2938Z" fill="#031F2B"/>
<path fill-rule="evenodd" clip-rule="evenodd" d="M4 12.001C4 11.7358 4.10535 11.4815 4.29286 11.294C4.48038 11.1065 4.7347 11.0011 4.99989 11.0011H17.9984C18.2636 11.0011 18.518 11.1065 18.7055 11.294C18.893 11.4815 18.9983 11.7358 18.9983 12.001C18.9983 12.2662 18.893 12.5205 18.7055 12.7081C18.518 12.8956 18.2636 13.0009 17.9984 13.0009H4.99989C4.7347 13.0009 4.48038 12.8956 4.29286 12.7081C4.10535 12.5205 4 12.2662 4 12.001Z" fill="#031F2B"/>
</svg>
