<svg width="346" height="513" viewBox="0 0 346 513" fill="none" xmlns="http://www.w3.org/2000/svg">
<g clip-path="url(#clip0_53289_292833)">
<rect y="0.777344" width="346" height="512" rx="24" fill="#D0E2FF"/>
<rect width="375" height="300" transform="translate(-13.5 23.291)" fill="#D0E2FF"/>
<path d="M30.1482 217.928L72.4505 173.999C72.4505 173.999 72.4504 173.999 72.5018 173.999H72.5618L97.0797 201.898V201.949C97.0797 201.949 97.0796 202.009 97.0282 202.009L47.8127 226.36H47.7612L30.7135 220.404C29.6941 220.063 29.4114 218.711 30.1482 217.928Z" fill="#757575" stroke="#333333" stroke-width="0.6" stroke-linecap="round" stroke-linejoin="round"/>
<path d="M68.1957 189.97L72.4962 185.529L97.134 213.538L47.8071 237.889L34.957 224.446L56.8706 201.729" stroke="#333333" stroke-width="0.6" stroke-linecap="round" stroke-linejoin="round"/>
<path d="M59.7148 198.801L65.7115 192.556" stroke="#333333" stroke-width="0.6" stroke-linecap="round" stroke-linejoin="round"/>
<path d="M30.2585 218.992L117.81 187.103H117.862C117.862 187.103 117.861 187.103 117.921 187.163L127.49 219.614V219.673C127.49 219.673 127.49 219.673 127.439 219.673L75.6792 232.436C75.6792 232.436 75.6791 232.436 75.6191 232.436L30.3185 220.116C29.7531 220.005 29.6931 219.222 30.2585 218.992Z" fill="#EAEAEA" stroke="#333333" stroke-width="0.6" stroke-linecap="round" stroke-linejoin="round"/>
<path d="M116.902 210.891L122.676 230.579" stroke="#333333" stroke-width="0.6" stroke-linecap="round" stroke-linejoin="round"/>
<path d="M43.0078 223.553L113.118 198.07L115.722 206.962" stroke="#333333" stroke-width="0.6" stroke-linecap="round" stroke-linejoin="round"/>
<path d="M30.0335 219.672H134.059C134.119 219.672 134.119 219.672 134.119 219.723V302.288C134.119 302.348 134.119 302.348 134.059 302.348H28.56C28.5 302.348 28.5 302.348 28.5 302.288V221.127C28.5 220.344 29.1768 219.672 30.0335 219.672Z" fill="#595959" stroke="#333333" stroke-width="0.6" stroke-linecap="round" stroke-linejoin="round"/>
<path d="M141.506 277.938C141.506 277.998 141.506 277.998 141.446 277.998H114.889C107.47 277.998 101.465 272.034 101.465 264.725V257.237C101.465 249.869 107.47 243.964 114.889 243.964H141.446C141.506 243.964 141.506 243.964 141.506 244.024V277.938Z" fill="#595959" stroke="#333333" stroke-width="0.6" stroke-linecap="round" stroke-linejoin="round"/>
<path d="M207.148 217.928L249.45 173.999C249.45 173.999 249.45 173.999 249.502 173.999H249.562L274.08 201.898V201.949C274.08 201.949 274.08 202.009 274.028 202.009L224.813 226.36H224.761L207.714 220.404C206.694 220.063 206.411 218.711 207.148 217.928Z" fill="#54C4C9" stroke="#333333" stroke-width="0.6" stroke-linecap="round" stroke-linejoin="round"/>
<path d="M245.196 189.97L249.496 185.529L274.134 213.538L224.807 237.889L211.957 224.446L233.871 201.729" stroke="#333333" stroke-width="0.6" stroke-linecap="round" stroke-linejoin="round"/>
<path d="M236.715 198.801L242.712 192.556" stroke="#333333" stroke-width="0.6" stroke-linecap="round" stroke-linejoin="round"/>
<path d="M207.259 218.992L294.81 187.103H294.862C294.862 187.103 294.861 187.103 294.921 187.163L304.49 219.614V219.673C304.49 219.673 304.49 219.673 304.439 219.673L252.679 232.436C252.679 232.436 252.679 232.436 252.619 232.436L207.319 220.116C206.753 220.005 206.693 219.222 207.259 218.992Z" fill="#ABEDD8" stroke="#333333" stroke-width="0.6" stroke-linecap="round" stroke-linejoin="round"/>
<path d="M293.902 210.891L299.676 230.579" stroke="#333333" stroke-width="0.6" stroke-linecap="round" stroke-linejoin="round"/>
<path d="M220.008 223.553L290.118 198.07L292.722 206.962" stroke="#333333" stroke-width="0.6" stroke-linecap="round" stroke-linejoin="round"/>
<path d="M207.033 219.672H311.059C311.119 219.672 311.119 219.672 311.119 219.723V302.288C311.119 302.348 311.119 302.348 311.059 302.348H205.56C205.5 302.348 205.5 302.348 205.5 302.288V221.127C205.5 220.344 206.177 219.672 207.033 219.672Z" fill="#78C7E0" stroke="#333333" stroke-width="0.6" stroke-linecap="round" stroke-linejoin="round"/>
<path d="M318.506 277.938C318.506 277.998 318.506 277.998 318.446 277.998H291.889C284.47 277.998 278.465 272.034 278.465 264.725V257.237C278.465 249.869 284.47 243.964 291.889 243.964H318.446C318.506 243.964 318.506 243.964 318.506 244.024V277.938Z" fill="#78C7E0" stroke="#333333" stroke-width="0.6" stroke-linecap="round" stroke-linejoin="round"/>
<path d="M160.5 261.002L186.5 261.002" stroke="#333333" stroke-width="0.6" stroke-linecap="round" stroke-linejoin="round"/>
<path d="M179.316 253.291L186.867 260.782L179.316 268.334" stroke="#333333" stroke-width="0.6" stroke-linecap="round" stroke-linejoin="round"/>
</g>
<defs>
<clipPath id="clip0_53289_292833">
<rect y="0.777344" width="346" height="512" rx="24" fill="white"/>
</clipPath>
</defs>
</svg>
