<svg width="12" height="12" viewBox="0 0 12 12" fill="none" xmlns="http://www.w3.org/2000/svg">
<path d="M6 5.625C5.59208 5.625 5.19331 5.50404 4.85414 5.27741C4.51496 5.05078 4.25061 4.72866 4.0945 4.35179C3.93839 3.97491 3.89755 3.56021 3.97713 3.16013C4.05671 2.76004 4.25315 2.39254 4.54159 2.10409C4.83004 1.81565 5.19754 1.61921 5.59763 1.53963C5.99771 1.46005 6.41241 1.50089 6.78929 1.657C7.16616 1.81311 7.48828 2.07746 7.71491 2.41664C7.94154 2.75581 8.0625 3.15458 8.0625 3.5625C8.06188 4.10932 7.84438 4.63356 7.45772 5.02022C7.07106 5.40688 6.54682 5.62438 6 5.625ZM8.8125 6C8.40458 6 8.00581 6.12097 7.66664 6.3476C7.32746 6.57423 7.06311 6.89634 6.907 7.27322C6.75089 7.65009 6.71005 8.06479 6.78963 8.46487C6.86921 8.86496 7.06565 9.23246 7.35409 9.52091C7.64254 9.80935 8.01004 10.0058 8.41013 10.0854C8.81021 10.165 9.22491 10.1241 9.60179 9.968C9.97866 9.8119 10.3008 9.54754 10.5274 9.20836C10.754 8.86919 10.875 8.47042 10.875 8.0625C10.8744 7.51568 10.6569 6.99144 10.2702 6.60478C9.88356 6.21812 9.35932 6.00062 8.8125 6ZM3.1875 6C2.77958 6 2.38081 6.12097 2.04164 6.3476C1.70246 6.57423 1.43811 6.89634 1.282 7.27322C1.12589 7.65009 1.08505 8.06479 1.16463 8.46487C1.24421 8.86496 1.44065 9.23246 1.72909 9.52091C2.01754 9.80935 2.38504 10.0058 2.78513 10.0854C3.18521 10.165 3.59991 10.1241 3.97679 9.968C4.35366 9.8119 4.67578 9.54754 4.90241 9.20836C5.12904 8.86919 5.25 8.47042 5.25 8.0625C5.24938 7.51568 5.03188 6.99144 4.64522 6.60478C4.25856 6.21812 3.73432 6.00062 3.1875 6Z" fill="#031F2B"/>
</svg>
