<svg width="60" height="60" viewBox="0 0 60 60" fill="none" xmlns="http://www.w3.org/2000/svg">
<path d="M43.975 8.975C43.025 8.025 41.75 7.5 40.425 7.5H12.5C9.725 7.5 7.5 9.75 7.5 12.5V47.5C7.5 50.25 9.75 52.5 12.5 52.5H47.5C50.25 52.5 52.5 50.25 52.5 47.5V19.575C52.5 18.25 51.975 16.975 51.025 16.05L43.975 8.975ZM30 47.5C25.85 47.5 22.5 44.15 22.5 40C22.5 35.85 25.85 32.5 30 32.5C34.15 32.5 37.5 35.85 37.5 40C37.5 44.15 34.15 47.5 30 47.5ZM32.5 22.5H17.5C14.75 22.5 12.5 20.25 12.5 17.5C12.5 14.75 14.75 12.5 17.5 12.5H32.5C35.25 12.5 37.5 14.75 37.5 17.5C37.5 20.25 35.25 22.5 32.5 22.5Z" fill="#031F2B"/>
</svg>
