<svg width="61" height="61" viewBox="0 0 61 61" fill="none" xmlns="http://www.w3.org/2000/svg">
<path d="M30.4375 55.394C27.3542 55.394 24.4479 54.8107 21.7188 53.644C18.9896 52.4774 16.6146 50.8732 14.5938 48.8315C12.5729 46.7899 10.9688 44.4149 9.78125 41.7065C8.59375 38.9982 8 36.0815 8 32.9565C8 29.8732 8.59375 26.967 9.78125 24.2378C10.9688 21.5086 12.5729 19.1232 14.5938 17.0815C16.6146 15.0399 18.9896 13.4357 21.7188 12.269C24.4479 11.1024 27.3542 10.519 30.4375 10.519C33.5208 10.519 36.4271 11.1024 39.1562 12.269C41.8854 13.4357 44.2708 15.0399 46.3125 17.0815C48.3542 19.1232 49.9583 21.5086 51.125 24.2378C52.2917 26.967 52.875 29.8732 52.875 32.9565C52.875 36.0815 52.2917 38.9982 51.125 41.7065C49.9583 44.4149 48.3542 46.7899 46.3125 48.8315C44.2708 50.8732 41.8854 52.4774 39.1562 53.644C36.4271 54.8107 33.5208 55.394 30.4375 55.394ZM38 43.144L40.625 40.519L32.5 32.394V20.519H28.75V33.894L38 43.144ZM13.875 6.33154L16.5 8.95654L6.25 18.8315L3.625 16.2065L13.875 6.33154ZM47 6.33154L57.25 16.2065L54.625 18.8315L44.375 8.95654L47 6.33154Z" fill="#031F2B"/>
</svg>
