<svg width="24" height="24" viewBox="0 0 24 24" fill="none" xmlns="http://www.w3.org/2000/svg">
<path fill-rule="evenodd" clip-rule="evenodd" d="M15.5 14H14.71L14.43 13.73C15.41 12.59 16 11.11 16 9.5C16 5.91 13.09 3 9.5 3C5.91 3 3 5.91 3 9.5C3 13.09 5.91 16 9.5 16C11.11 16 12.59 15.41 13.73 14.43L14 14.71V15.5L19 20.49L20.49 19L15.5 14ZM9.50003 14C7.01003 14 5.00003 11.99 5.00003 9.50001C5.00003 7.01001 7.01003 5.00001 9.50003 5.00001C11.99 5.00001 14 7.01001 14 9.50001C14 11.99 11.99 14 9.50003 14Z" fill="#031F2B"/>
</svg>
