<svg width="12" height="12" viewBox="0 0 12 12" fill="none" xmlns="http://www.w3.org/2000/svg">
<g clip-path="url(#clip0_20630_59673)">
<path d="M9 3.99997H8.5V2.99997C8.5 1.61997 7.38 0.499969 6 0.499969C4.62 0.499969 3.5 1.61997 3.5 2.99997V3.99997H3C2.45 3.99997 2 4.44997 2 4.99997V9.99997C2 10.55 2.45 11 3 11H9C9.55 11 10 10.55 10 9.99997V4.99997C10 4.44997 9.55 3.99997 9 3.99997ZM6 8.49997C5.45 8.49997 5 8.04997 5 7.49997C5 6.94997 5.45 6.49997 6 6.49997C6.55 6.49997 7 6.94997 7 7.49997C7 8.04997 6.55 8.49997 6 8.49997ZM4.5 3.99997V2.99997C4.5 2.16997 5.17 1.49997 6 1.49997C6.83 1.49997 7.5 2.16997 7.5 2.99997V3.99997H4.5Z" fill="#031F2B"/>
</g>
<defs>
<clipPath id="clip0_20630_59673">
<rect width="12" height="12" fill="white"/>
</clipPath>
</defs>
</svg>
