<svg width="24" height="24" viewBox="0 0 24 24" fill="none" xmlns="http://www.w3.org/2000/svg">
<path d="M3 21V16.2434L11.9624 7.28095L10.5104 5.879L11.9624 4.47705L13.8651 6.37969L16.9694 3.27538C17.153 3.09179 17.3866 3 17.6704 3C17.9541 3 18.1878 3.09179 18.3713 3.27538L20.7246 5.62865C20.9082 5.81224 21 6.0459 21 6.32962C21 6.61335 20.9082 6.84701 20.7246 7.0306L17.6453 10.1099L19.548 12.0626L18.121 13.4896L16.7191 12.0376L7.75661 21H3ZM5.00278 18.9972H6.95549L15.267 10.6356L13.3644 8.73296L5.00278 17.0445V18.9972Z" fill="#031F2B"/>
</svg>
