<svg width="61" height="60" viewBox="0 0 61 60" fill="none" xmlns="http://www.w3.org/2000/svg">
<path d="M33.8929 25.8661L24.131 16.1042L26.6905 13.5446L33.8929 20.8065L47.8214 6.9375L50.3214 9.37798L33.8929 25.8661ZM36.8095 53.7827L18.2976 48.4851V28.4256H23.8929L39.0714 34.1399C40.1429 34.5367 41.0456 35.1815 41.7798 36.0744C42.5139 36.9673 42.881 38.247 42.881 39.9137H39.0714C37.127 39.9137 35.7083 39.8542 34.8155 39.7351C33.9226 39.6161 32.9802 39.3978 31.9881 39.0804L27.6429 37.6518L27.0476 39.3185L31.5119 40.8661C32.4246 41.1835 33.4464 41.4018 34.5774 41.5208C35.7083 41.6399 36.869 41.6994 38.0595 41.6994H49.6667C51.9286 41.6994 53.4663 42.1359 54.2798 43.0089C55.0933 43.8819 55.5 45.0526 55.5 46.5208V48.0685L36.8095 53.7827ZM5.5 51.878V28.4256H14.6667V51.878H5.5Z" fill="#031F2B"/>
</svg>
