<svg width="24" height="24" viewBox="0 0 24 24" fill="none" xmlns="http://www.w3.org/2000/svg">
<path d="M13.3571 10.3463L9.45238 6.44157L10.4762 5.41776L13.3571 8.32252L18.9286 2.7749L19.9286 3.75109L13.3571 10.3463ZM14.5238 21.513L7.11905 19.394V11.3701H9.35714L15.4286 13.6559C15.8571 13.8146 16.2183 14.0725 16.5119 14.4297C16.8056 14.7868 16.9524 15.2987 16.9524 15.9654H15.4286C14.6508 15.9654 14.0833 15.9416 13.7262 15.8939C13.369 15.8463 12.9921 15.759 12.5952 15.632L10.8571 15.0606L10.619 15.7273L12.4048 16.3463C12.7698 16.4733 13.1786 16.5606 13.631 16.6082C14.0833 16.6559 14.5476 16.6797 15.0238 16.6797H19.6667C20.5714 16.6797 21.1865 16.8543 21.5119 17.2035C21.8373 17.5527 22 18.0209 22 18.6082V19.2273L14.5238 21.513ZM2 20.7511V11.3701H5.66667V20.7511H2Z" fill="white"/>
</svg>
