<svg width="24" height="24" viewBox="0 0 24 24" fill="none" xmlns="http://www.w3.org/2000/svg">
<path fill-rule="evenodd" clip-rule="evenodd" d="M19.123 12.936C19.159 12.636 19.183 12.324 19.183 12C19.183 11.676 19.159 11.364 19.111 11.064L21.139 9.48001C21.319 9.33601 21.367 9.07201 21.259 8.86801L19.339 5.54401C19.219 5.32801 18.967 5.25601 18.751 5.32801L16.363 6.28801C15.859 5.90401 15.331 5.59201 14.743 5.35201L14.383 2.80801C14.347 2.56801 14.143 2.40001 13.903 2.40001H10.063C9.82302 2.40001 9.63102 2.56801 9.59502 2.80801L9.23502 5.35201C8.64702 5.59201 8.10702 5.91601 7.61502 6.28801L5.22702 5.32801C5.01102 5.24401 4.75902 5.32801 4.63902 5.54401L2.71902 8.86801C2.59902 9.08401 2.64702 9.33601 2.83902 9.48001L4.86702 11.064C4.81902 11.364 4.78302 11.688 4.78302 12C4.78302 12.312 4.80702 12.636 4.85502 12.936L2.82702 14.52C2.64702 14.664 2.59902 14.928 2.70702 15.132L4.62702 18.456C4.74702 18.672 4.99902 18.744 5.21502 18.672L7.60302 17.712C8.10702 18.096 8.63502 18.408 9.22302 18.648L9.58302 21.192C9.63102 21.432 9.82302 21.6 10.063 21.6H13.903C14.143 21.6 14.347 21.432 14.371 21.192L14.731 18.648C15.319 18.408 15.859 18.084 16.351 17.712L18.739 18.672C18.955 18.756 19.207 18.672 19.327 18.456L21.247 15.132C21.367 14.916 21.319 14.664 21.127 14.52L19.123 12.936ZM11.9831 15.6C10.0031 15.6 8.38309 13.98 8.38309 12C8.38309 10.02 10.0031 8.40001 11.9831 8.40001C13.9631 8.40001 15.5831 10.02 15.5831 12C15.5831 13.98 13.9631 15.6 11.9831 15.6Z" fill="#031F2B"/>
</svg>
