<svg width="19" height="18" viewBox="0 0 19 18" fill="none" xmlns="http://www.w3.org/2000/svg">
<path d="M9.34927 5.34381C8.62614 5.34381 7.91924 5.55824 7.31797 5.95999C6.7167 6.36175 6.24807 6.93278 5.97134 7.60087C5.69461 8.26896 5.6222 9.00411 5.76328 9.71336C5.90436 10.4226 6.25258 11.0741 6.76392 11.5854C7.27525 12.0968 7.92673 12.445 8.63598 12.5861C9.34522 12.7271 10.0804 12.6547 10.7485 12.378C11.4166 12.1013 11.9876 11.6326 12.3893 11.0314C12.7911 10.4301 13.0055 9.72319 13.0055 9.00006C13.0044 8.0307 12.6188 7.10137 11.9334 6.41593C11.248 5.73049 10.3186 5.34492 9.34927 5.34381ZM9.34927 10.9688C8.95989 10.9688 8.57925 10.8533 8.2555 10.637C7.93174 10.4207 7.6794 10.1132 7.53039 9.75346C7.38138 9.39372 7.34239 8.99787 7.41835 8.61597C7.49432 8.23407 7.68182 7.88327 7.95716 7.60794C8.23249 7.3326 8.58329 7.1451 8.96519 7.06913C9.34709 6.99317 9.74294 7.03216 10.1027 7.18117C10.4624 7.33018 10.7699 7.58252 10.9862 7.90628C11.2026 8.23004 11.318 8.61067 11.318 9.00006C11.318 9.5222 11.1106 10.023 10.7414 10.3922C10.3722 10.7614 9.87142 10.9688 9.34927 10.9688ZM15.818 9.0556V8.94451L16.8024 7.71334C16.885 7.61018 16.9423 7.48905 16.9695 7.35971C16.9967 7.23037 16.9932 7.09645 16.9592 6.96873C16.7816 6.29872 16.5161 5.65517 16.1696 5.05482C16.1028 4.94034 16.0101 4.84319 15.8988 4.77124C15.7875 4.69929 15.6608 4.65456 15.529 4.64068L13.9625 4.4649L13.8844 4.38685L13.7086 2.81959C13.6947 2.68792 13.6499 2.56139 13.5779 2.45024C13.506 2.33908 13.4089 2.24642 13.2945 2.17974C12.6941 1.83218 12.0503 1.56572 11.3799 1.38732C11.2521 1.35381 11.1181 1.35079 10.9889 1.37852C10.8597 1.40624 10.7388 1.46393 10.636 1.54693L9.40482 2.53131H9.29373L8.06256 1.54693C7.9594 1.4643 7.83827 1.40706 7.70893 1.37983C7.57959 1.35259 7.44567 1.35612 7.31795 1.39013C6.64777 1.56888 6.00421 1.83557 5.40404 2.18326C5.29 2.24966 5.19313 2.34188 5.1212 2.45252C5.04928 2.56315 5.00431 2.68912 4.9899 2.82029L4.81412 4.38685L4.73607 4.4649L3.16881 4.64068C3.03714 4.65466 2.91061 4.69944 2.79946 4.77139C2.6883 4.84333 2.59564 4.94043 2.52896 5.05482C2.18238 5.65536 1.91686 6.29916 1.73935 6.96943C1.70546 7.09705 1.70198 7.23084 1.72922 7.36004C1.75645 7.48925 1.81363 7.61026 1.89615 7.71334L2.88052 8.94451V9.0556L1.89615 10.2868C1.81352 10.3899 1.75628 10.5111 1.72904 10.6404C1.70181 10.7697 1.70534 10.9037 1.73935 11.0314C1.91832 11.7016 2.18525 12.3452 2.53318 12.9453C2.59951 13.0592 2.69163 13.1561 2.80213 13.228C2.91264 13.2999 3.03846 13.3449 3.16951 13.3594L4.73607 13.5338L4.81412 13.6119L4.9899 15.1805C5.00388 15.3122 5.04866 15.4387 5.12061 15.5499C5.19255 15.661 5.28965 15.7537 5.40404 15.8204C6.00443 16.1679 6.64824 16.4344 7.31865 16.6128C7.44648 16.6463 7.5804 16.6493 7.70961 16.6216C7.83883 16.5939 7.95972 16.5362 8.06256 16.4532L9.29373 15.4688H9.40482L10.636 16.4532C10.7392 16.5358 10.8603 16.5931 10.9896 16.6203C11.119 16.6475 11.2529 16.644 11.3806 16.61C12.0506 16.4323 12.6942 16.1668 13.2945 15.8204C13.4088 15.7541 13.506 15.662 13.5781 15.5513C13.6503 15.4407 13.6955 15.3146 13.7101 15.1833L13.8844 13.6168L13.9625 13.5387L15.5297 13.3594C15.661 13.3449 15.7871 13.2997 15.8977 13.2275C16.0084 13.1553 16.1005 13.0582 16.1668 12.9439C16.5143 12.3435 16.7808 11.6997 16.9592 11.0293C16.9929 10.9019 16.9962 10.7683 16.969 10.6394C16.9418 10.5105 16.8847 10.3897 16.8024 10.2868L15.818 9.0556ZM14.1221 8.71177C14.1333 8.9038 14.1333 9.09631 14.1221 9.28834C14.1095 9.49708 14.1749 9.70305 14.3056 9.86631L15.2084 10.9948C15.1232 11.2471 15.0215 11.4935 14.904 11.7324L13.4675 11.892C13.2595 11.9158 13.0678 12.016 12.9296 12.1733C12.8019 12.3172 12.6657 12.4533 12.5218 12.5811C12.3645 12.7193 12.2643 12.911 12.2405 13.119L12.0816 14.5547C11.8427 14.6727 11.5963 14.7749 11.344 14.8606L10.2155 13.9571C10.0658 13.8376 9.87978 13.7726 9.68818 13.7729C9.67131 13.7729 9.65443 13.7729 9.63756 13.7729C9.44553 13.7841 9.25302 13.7841 9.06099 13.7729C8.85239 13.7605 8.64657 13.8256 8.48302 13.9557L7.35451 14.8592C7.10225 14.774 6.85586 14.6723 6.61693 14.5547L6.45732 13.1183C6.43354 12.9103 6.3333 12.7186 6.17607 12.5804C6.03217 12.4526 5.89599 12.3165 5.76826 12.1726C5.63006 12.0153 5.43835 11.9151 5.23037 11.8913L3.79459 11.7324C3.67658 11.4935 3.57441 11.2471 3.48873 10.9948L4.39154 9.86631C4.52222 9.70305 4.58762 9.49708 4.57506 9.28834C4.56381 9.09631 4.56381 8.9038 4.57506 8.71177C4.58762 8.50303 4.52222 8.29706 4.39154 8.13381L3.49013 7.00529C3.57536 6.75303 3.67706 6.50664 3.79459 6.26771L5.23107 6.1081C5.43905 6.08432 5.63076 5.98408 5.76896 5.82685C5.89669 5.68295 6.03287 5.54677 6.17677 5.41904C6.334 5.28084 6.43425 5.08913 6.45802 4.88115L6.61693 3.44537C6.85582 3.32736 7.10221 3.22519 7.35451 3.13951L8.48302 4.04302C8.64657 4.17309 8.85239 4.2382 9.06099 4.22584C9.25302 4.21459 9.44553 4.21459 9.63756 4.22584C9.84621 4.2386 10.0522 4.17345 10.2155 4.04302L11.344 3.13951C11.5963 3.22519 11.8427 3.32736 12.0816 3.44537L12.2412 4.88185C12.265 5.08983 12.3652 5.28154 12.5225 5.41974C12.6664 5.54747 12.8026 5.68365 12.9303 5.82756C13.0685 5.98478 13.2602 6.08503 13.4682 6.10881L14.904 6.26771C15.022 6.5066 15.1241 6.75299 15.2098 7.00529L14.307 8.13381C14.1758 8.29686 14.1099 8.50285 14.1221 8.71177Z" fill="white"/>
</svg>
