<svg width="228" height="140" viewBox="0 0 228 140" fill="none" xmlns="http://www.w3.org/2000/svg">
<path d="M67.91 42.4785C64.613 49.4594 62.8105 57.3731 62.8105 65.9088H36.5849C21.4444 65.9088 9 78.6269 9 94.4544C9 110.127 21.2942 123 36.5849 123H191.423C206.556 123 219 110.282 219 94.4544C219 78.7823 206.706 65.9088 191.423 65.9088H165.189C165.189 36.5859 142.253 13 114.075 13C100.136 13 87.3914 18.8926 78.1013 28.2057" fill="#78C7E0"/>
<path d="M67.91 42.4785C64.613 49.4594 62.8105 57.3731 62.8105 65.9088H36.5849C21.4444 65.9088 9 78.6269 9 94.4544C9 110.127 21.2942 123 36.5849 123H191.423C206.556 123 219 110.282 219 94.4544C219 78.7823 206.706 65.9088 191.423 65.9088H165.189C165.189 36.5859 142.253 13 114.075 13C100.136 13 87.3914 18.8926 78.1013 28.2057" stroke="#333333" stroke-width="0.6" stroke-linecap="round" stroke-linejoin="round"/>
<path d="M87.6777 51.9648H100.434C100.48 51.9648 107.399 53.8753 113.568 53.8753C120.619 53.8753 126.003 52.3217 128.369 51.9648H141.176V108.887H134.263C134.217 108.887 123.454 106.845 113.894 106.845C107.674 106.845 102.754 107.465 94.5455 108.887H87.6777V51.9648Z" fill="#ABEDD8"/>
<path fill-rule="evenodd" clip-rule="evenodd" d="M87.4062 51.9638C87.4062 51.8112 87.5296 51.6875 87.6818 51.6875H100.438C100.459 51.6875 100.476 51.6901 100.479 51.6906C100.485 51.6914 100.49 51.6924 100.492 51.6929C100.498 51.6939 100.503 51.695 100.506 51.6957L100.528 51.701C100.544 51.7049 100.566 51.7106 100.593 51.7175C100.608 51.7214 100.625 51.7256 100.643 51.7304C100.693 51.7431 100.755 51.7591 100.83 51.778C101.035 51.83 101.331 51.9043 101.706 51.9935C102.454 52.1718 103.512 52.4097 104.76 52.6476C107.259 53.1238 110.512 53.5979 113.572 53.5979C118.956 53.5979 123.343 52.6907 126.183 52.1035C127.048 51.9246 127.769 51.7754 128.332 51.6906C128.345 51.6885 128.359 51.6875 128.373 51.6875H141.18C141.332 51.6875 141.456 51.8112 141.456 51.9638V108.886C141.456 109.039 141.332 109.162 141.18 109.162H134.267C134.258 109.162 134.246 109.162 134.241 109.161L134.232 109.16L134.223 109.159L134.212 109.157L134.184 109.152L134.078 109.133C133.994 109.119 133.875 109.097 133.723 109.07C133.406 109.015 132.946 108.935 132.365 108.84C131.202 108.649 129.557 108.394 127.614 108.139C123.728 107.629 118.661 107.12 113.898 107.12C107.701 107.12 102.799 107.737 94.5964 109.158C94.5809 109.161 94.5652 109.162 94.5495 109.162H87.6818C87.5296 109.162 87.4062 109.039 87.4062 108.886V51.9638ZM87.9573 52.2401V108.61H94.5259C102.726 107.19 107.661 106.568 113.898 106.568C118.695 106.568 123.789 107.08 127.686 107.591C129.635 107.847 131.287 108.102 132.454 108.294C133.037 108.39 133.5 108.47 133.818 108.526C133.97 108.553 134.088 108.574 134.172 108.589L134.279 108.608L134.289 108.61H140.905V52.2401H128.393C127.862 52.3212 127.171 52.4642 126.337 52.6369C123.504 53.2232 119.023 54.1505 113.572 54.1505C110.463 54.1505 107.171 53.6695 104.657 53.1904C103.399 52.9507 102.333 52.7109 101.578 52.5311C101.201 52.4412 100.901 52.3662 100.695 52.3137C100.619 52.2945 100.556 52.2783 100.506 52.2656C100.488 52.2609 100.471 52.2567 100.457 52.253L100.406 52.2401H87.9573Z" fill="#333333"/>
<path d="M129.265 79.9375H99.6174C96.8336 79.9375 94.6055 82.0675 94.6055 84.741V108.841H134.277V84.7849C134.323 82.1169 132.049 79.9375 129.265 79.9375Z" fill="#3D84A8"/>
<path fill-rule="evenodd" clip-rule="evenodd" d="M94.3398 84.7438C94.3398 81.9059 96.7034 79.6641 99.6273 79.6641H129.275C132.197 79.6641 134.61 81.9543 134.562 84.7902V108.843C134.562 108.996 134.439 109.12 134.287 109.12H94.6154C94.4632 109.12 94.3398 108.996 94.3398 108.843V84.7438ZM99.6273 80.2166C96.9836 80.2166 94.8909 82.2348 94.8909 84.7438V108.567H134.011V84.783C134.054 82.284 131.919 80.2166 129.275 80.2166H99.6273Z" fill="#333333"/>
<path d="M128.402 64.108L121.396 68.6424H100.467V51.9648H128.402V64.108Z" fill="#3D84A8"/>
<path fill-rule="evenodd" clip-rule="evenodd" d="M100.201 51.9638C100.201 51.8112 100.325 51.6875 100.477 51.6875H128.412C128.564 51.6875 128.687 51.8112 128.687 51.9638V64.1069C128.687 64.2007 128.64 64.2881 128.561 64.339L121.556 68.8735C121.511 68.9023 121.459 68.9177 121.406 68.9177H100.477C100.325 68.9177 100.201 68.794 100.201 68.6414V51.9638ZM100.752 52.2401V68.3651H121.325L128.136 63.9564V52.2401H100.752Z" fill="#333333"/>
<path d="M107.324 51.9648H104.168V65.3047H107.324V51.9648Z" fill="#54C4C9"/>
<path fill-rule="evenodd" clip-rule="evenodd" d="M103.891 51.9638C103.891 51.8112 104.014 51.6875 104.166 51.6875H107.322C107.474 51.6875 107.598 51.8112 107.598 51.9638V65.3037C107.598 65.4562 107.474 65.5799 107.322 65.5799H104.166C104.014 65.5799 103.891 65.4562 103.891 65.3037V51.9638ZM104.442 52.2401V65.0274H107.047V52.2401H104.442Z" fill="#333333"/>
<rect x="129" y="2.11328" width="89.856" height="38.016" rx="19.008" fill="#ABEDD8"/>
<rect x="129" y="2.11328" width="89.856" height="38.016" rx="19.008" stroke="#333333" stroke-width="0.5184" stroke-linecap="round" stroke-linejoin="round"/>
<path d="M146.543 29.7605C146.331 29.7605 146.156 29.6943 146.018 29.562C145.88 29.4297 145.811 29.2623 145.811 29.0599V24.7633L141.93 26.9116C141.751 27.005 141.564 27.0284 141.369 26.9817C141.173 26.935 141.027 26.826 140.929 26.6547L139.465 24.2262C139.367 24.055 139.343 23.8759 139.392 23.6891C139.44 23.5023 139.554 23.3622 139.733 23.2688L143.614 21.1205L139.733 18.9721C139.554 18.8787 139.44 18.7386 139.392 18.5518C139.343 18.365 139.367 18.186 139.465 18.0147L140.929 15.5862C141.027 15.415 141.173 15.306 141.369 15.2593C141.564 15.2126 141.751 15.2359 141.93 15.3293L145.811 17.4777V13.181C145.811 12.9786 145.88 12.8113 146.018 12.679C146.156 12.5466 146.331 12.4805 146.543 12.4805H149.472C149.683 12.4805 149.858 12.5466 149.996 12.679C150.135 12.8113 150.204 12.9786 150.204 13.181V17.4777L154.084 15.3293C154.263 15.2359 154.451 15.2126 154.646 15.2593C154.841 15.306 154.988 15.415 155.085 15.5862L156.55 18.0147C156.647 18.186 156.672 18.365 156.623 18.5518C156.574 18.7386 156.46 18.8787 156.281 18.9721L152.4 21.1205L156.281 23.2688C156.46 23.3622 156.574 23.5023 156.623 23.6891C156.672 23.8759 156.647 24.055 156.55 24.2262L155.085 26.6547C154.988 26.826 154.841 26.935 154.646 26.9817C154.451 27.0284 154.263 27.005 154.084 26.9116L150.204 24.7633V29.0599C150.204 29.2623 150.135 29.4297 149.996 29.562C149.858 29.6943 149.683 29.7605 149.472 29.7605H146.543Z" fill="#333333"/>
<path d="M172.463 29.7605C172.251 29.7605 172.076 29.6943 171.938 29.562C171.8 29.4297 171.73 29.2623 171.73 29.0599V24.7633L167.85 26.9116C167.671 27.005 167.484 27.0284 167.288 26.9817C167.093 26.935 166.947 26.826 166.849 26.6547L165.385 24.2262C165.287 24.055 165.263 23.8759 165.312 23.6891C165.36 23.5023 165.474 23.3622 165.653 23.2688L169.534 21.1205L165.653 18.9721C165.474 18.8787 165.36 18.7386 165.312 18.5518C165.263 18.365 165.287 18.186 165.385 18.0147L166.849 15.5862C166.947 15.415 167.093 15.306 167.288 15.2593C167.484 15.2126 167.671 15.2359 167.85 15.3293L171.73 17.4777V13.181C171.73 12.9786 171.8 12.8113 171.938 12.679C172.076 12.5466 172.251 12.4805 172.463 12.4805H175.392C175.603 12.4805 175.778 12.5466 175.916 12.679C176.055 12.8113 176.124 12.9786 176.124 13.181V17.4777L180.004 15.3293C180.183 15.2359 180.37 15.2126 180.566 15.2593C180.761 15.306 180.907 15.415 181.005 15.5862L182.469 18.0147C182.567 18.186 182.592 18.365 182.543 18.5518C182.494 18.7386 182.38 18.8787 182.201 18.9721L178.32 21.1205L182.201 23.2688C182.38 23.3622 182.494 23.5023 182.543 23.6891C182.592 23.8759 182.567 24.055 182.469 24.2262L181.005 26.6547C180.907 26.826 180.761 26.935 180.566 26.9817C180.37 27.0284 180.183 27.005 180.004 26.9116L176.124 24.7633V29.0599C176.124 29.2623 176.055 29.4297 175.916 29.562C175.778 29.6943 175.603 29.7605 175.392 29.7605H172.463Z" fill="#333333"/>
<path d="M198.385 29.7605C198.173 29.7605 197.998 29.6943 197.86 29.562C197.722 29.4297 197.652 29.2623 197.652 29.0599V24.7633L193.772 26.9116C193.593 27.005 193.406 27.0284 193.21 26.9817C193.015 26.935 192.869 26.826 192.771 26.6547L191.307 24.2262C191.209 24.055 191.185 23.8759 191.233 23.6891C191.282 23.5023 191.396 23.3622 191.575 23.2688L195.456 21.1205L191.575 18.9721C191.396 18.8787 191.282 18.7386 191.233 18.5518C191.185 18.365 191.209 18.186 191.307 18.0147L192.771 15.5862C192.869 15.415 193.015 15.306 193.21 15.2593C193.406 15.2126 193.593 15.2359 193.772 15.3293L197.652 17.4777V13.181C197.652 12.9786 197.722 12.8113 197.86 12.679C197.998 12.5466 198.173 12.4805 198.385 12.4805H201.313C201.525 12.4805 201.7 12.5466 201.838 12.679C201.976 12.8113 202.046 12.9786 202.046 13.181V17.4777L205.926 15.3293C206.105 15.2359 206.292 15.2126 206.488 15.2593C206.683 15.306 206.829 15.415 206.927 15.5862L208.391 18.0147C208.489 18.186 208.513 18.365 208.465 18.5518C208.416 18.7386 208.302 18.8787 208.123 18.9721L204.242 21.1205L208.123 23.2688C208.302 23.3622 208.416 23.5023 208.465 23.6891C208.513 23.8759 208.489 24.055 208.391 24.2262L206.927 26.6547C206.829 26.826 206.683 26.935 206.488 26.9817C206.292 27.0284 206.105 27.005 205.926 26.9116L202.046 24.7633V29.0599C202.046 29.2623 201.976 29.4297 201.838 29.562C201.7 29.6943 201.525 29.7605 201.313 29.7605H198.385Z" fill="#333333"/>
</svg>
