<svg width="19" height="18" viewBox="0 0 19 18" fill="none" xmlns="http://www.w3.org/2000/svg">
<path d="M7.88086 2.53125H4.78711C4.41415 2.53125 4.05646 2.67941 3.79274 2.94313C3.52902 3.20685 3.38086 3.56454 3.38086 3.9375V7.03125C3.38086 7.40421 3.52902 7.7619 3.79274 8.02562C4.05646 8.28934 4.41415 8.4375 4.78711 8.4375H7.88086C8.25382 8.4375 8.61151 8.28934 8.87523 8.02562C9.13895 7.7619 9.28711 7.40421 9.28711 7.03125V3.9375C9.28711 3.56454 9.13895 3.20685 8.87523 2.94313C8.61151 2.67941 8.25382 2.53125 7.88086 2.53125ZM7.59961 6.75H5.06836V4.21875H7.59961V6.75ZM7.88086 9.5625H4.78711C4.41415 9.5625 4.05646 9.71066 3.79274 9.97438C3.52902 10.2381 3.38086 10.5958 3.38086 10.9688V14.0625C3.38086 14.4355 3.52902 14.7931 3.79274 15.0569C4.05646 15.3206 4.41415 15.4688 4.78711 15.4688H7.88086C8.25382 15.4688 8.61151 15.3206 8.87523 15.0569C9.13895 14.7931 9.28711 14.4355 9.28711 14.0625V10.9688C9.28711 10.5958 9.13895 10.2381 8.87523 9.97438C8.61151 9.71066 8.25382 9.5625 7.88086 9.5625ZM7.59961 13.7812H5.06836V11.25H7.59961V13.7812ZM14.9121 2.53125H11.8184C11.4454 2.53125 11.0877 2.67941 10.824 2.94313C10.5603 3.20685 10.4121 3.56454 10.4121 3.9375V7.03125C10.4121 7.40421 10.5603 7.7619 10.824 8.02562C11.0877 8.28934 11.4454 8.4375 11.8184 8.4375H14.9121C15.2851 8.4375 15.6428 8.28934 15.9065 8.02562C16.1702 7.7619 16.3184 7.40421 16.3184 7.03125V3.9375C16.3184 3.56454 16.1702 3.20685 15.9065 2.94313C15.6428 2.67941 15.2851 2.53125 14.9121 2.53125ZM14.6309 6.75H12.0996V4.21875H14.6309V6.75ZM10.4121 12.0938V10.4062C10.4121 10.1825 10.501 9.96786 10.6592 9.80963C10.8175 9.6514 11.0321 9.5625 11.2559 9.5625C11.4796 9.5625 11.6942 9.6514 11.8525 9.80963C12.0107 9.96786 12.0996 10.1825 12.0996 10.4062V12.0938C12.0996 12.3175 12.0107 12.5321 11.8525 12.6904C11.6942 12.8486 11.4796 12.9375 11.2559 12.9375C11.0321 12.9375 10.8175 12.8486 10.6592 12.6904C10.501 12.5321 10.4121 12.3175 10.4121 12.0938ZM16.3184 11.5312C16.3184 11.755 16.2295 11.9696 16.0712 12.1279C15.913 12.2861 15.6984 12.375 15.4746 12.375H14.6309V14.625C14.6309 14.8488 14.542 15.0634 14.3837 15.2216C14.2255 15.3799 14.0109 15.4688 13.7871 15.4688H11.2559C11.0321 15.4688 10.8175 15.3799 10.6592 15.2216C10.501 15.0634 10.4121 14.8488 10.4121 14.625C10.4121 14.4012 10.501 14.1866 10.6592 14.0284C10.8175 13.8701 11.0321 13.7812 11.2559 13.7812H12.9434V10.4062C12.9434 10.1825 13.0323 9.96786 13.1905 9.80963C13.3487 9.6514 13.5633 9.5625 13.7871 9.5625C14.0109 9.5625 14.2255 9.6514 14.3837 9.80963C14.542 9.96786 14.6309 10.1825 14.6309 10.4062V10.6875H15.4746C15.6984 10.6875 15.913 10.7764 16.0712 10.9346C16.2295 11.0929 16.3184 11.3075 16.3184 11.5312Z" fill="white"/>
</svg>
