<svg width="25" height="24" viewBox="0 0 25 24" fill="none" xmlns="http://www.w3.org/2000/svg">
<g clip-path="url(#clip0_52_687)">
<path d="M14.8667 9.29C15.2567 9.68 15.8867 9.68 16.2767 9.29L20.1667 5.41L20.1667 11C20.1667 11.55 20.6167 12 21.1667 12C21.7167 12 22.1667 11.55 22.1667 11L22.1667 3C22.1667 2.45 21.7167 2 21.1667 2L13.1667 2C12.6167 2 12.1667 2.45 12.1667 3C12.1667 3.55 12.6167 4 13.1667 4L18.7567 4L14.8667 7.89C14.4867 8.27 14.4867 8.91 14.8667 9.29Z" fill="white"/>
<path fill-rule="evenodd" clip-rule="evenodd" d="M8.46719 10.1286C10.1495 10.2946 11.4688 10.8088 11.615 12.3405C11.7143 13.4571 11.2435 14.1215 10.4651 14.4959C11.7219 14.8096 12.4863 15.5471 12.3283 17.1831C12.136 19.2337 10.6019 19.7663 8.40868 19.8787L8.41212 21.9958L7.12042 21.9974L7.11698 19.8804C6.9758 19.8783 6.8282 19.8804 6.67682 19.8826H6.67679C6.47452 19.8855 6.26549 19.8885 6.05602 19.8817L6.05946 21.9988L4.77012 22.0005L4.76668 19.8834L2.18348 19.8324L2.40118 18.2852C2.40118 18.2852 3.3768 18.3066 3.35871 18.2954C3.71788 18.2935 3.82448 18.0389 3.85103 17.8716L3.8446 14.4779L3.85475 12.0625C3.81509 11.8107 3.64376 11.5086 3.11571 11.4995C3.14447 11.4737 2.16996 11.5007 2.16996 11.5007L2.16669 10.0823L4.81381 10.0789L4.81044 8.00517L6.14403 8.00346L6.1474 10.0772C6.40483 10.07 6.65879 10.0721 6.9156 10.0741H6.91562C6.9999 10.0748 7.08449 10.0755 7.16962 10.0758L7.16625 8.00214L8.46379 8.00047L8.46719 10.1286ZM5.98868 14.0302L6.05417 14.033C6.83925 14.0672 9.16703 14.1687 9.17061 12.7574C9.16702 11.4175 7.18593 11.4607 6.26545 11.4808H6.26544C6.15672 11.4832 6.0628 11.4852 5.98868 11.4846V14.0302ZM6.09855 18.1872C6.05732 18.1855 6.01932 18.1839 5.9849 18.1826L5.9849 15.6371C6.06692 15.6378 6.17005 15.6365 6.2893 15.6351C7.37714 15.6215 9.80693 15.5913 9.79542 16.9421C9.80767 18.3393 7.06504 18.2268 6.09855 18.1872Z" fill="white"/>
</g>
<defs>
<clipPath id="clip0_52_687">
<rect width="24" height="24" fill="white" transform="translate(0.166687)"/>
</clipPath>
</defs>
</svg>
