<svg width="25" height="24" viewBox="0 0 25 24" fill="none" xmlns="http://www.w3.org/2000/svg">
<g clip-path="url(#clip0_58308_71359)">
<path d="M14.866 9.29C15.256 9.68 15.886 9.68 16.276 9.29L20.166 5.41L20.166 11C20.166 11.55 20.616 12 21.166 12C21.716 12 22.166 11.55 22.166 11L22.166 3C22.166 2.45 21.716 2 21.166 2L13.166 2C12.616 2 12.166 2.45 12.166 3C12.166 3.55 12.616 4 13.166 4L18.756 4L14.866 7.89C14.486 8.27 14.486 8.91 14.866 9.29Z" fill="#031F2B"/>
<path fill-rule="evenodd" clip-rule="evenodd" d="M8.46652 10.1281C10.1489 10.2942 11.4681 10.8084 11.6144 12.34C11.7136 13.4566 11.2429 14.121 10.4644 14.4954C11.7212 14.8091 12.4857 15.5466 12.3277 17.1827C12.1354 19.2333 10.6013 19.7659 8.40801 19.8783L8.41145 21.9953L7.11974 21.997L7.11631 19.8799C6.97513 19.8778 6.82753 19.88 6.67615 19.8821H6.67612C6.47384 19.885 6.26482 19.888 6.05535 19.8813L6.05879 21.9983L4.76944 22L4.76601 19.8829L2.18281 19.8319L2.40051 18.2847C2.40051 18.2847 3.37613 18.3062 3.35804 18.295C3.71721 18.293 3.82381 18.0384 3.85036 17.8712L3.84393 14.4774L3.85408 12.062C3.81442 11.8103 3.64309 11.5082 3.11504 11.499C3.1438 11.4732 2.16929 11.5002 2.16929 11.5002L2.16602 10.0818L4.81314 10.0784L4.80977 8.0047L6.14336 8.00298L6.14672 10.0767C6.40416 10.0696 6.65812 10.0716 6.91493 10.0737H6.91495C6.99923 10.0743 7.08382 10.075 7.16895 10.0754L7.16558 8.00167L8.46312 8L8.46652 10.1281ZM5.98801 14.0297L6.0535 14.0325C6.83857 14.0668 9.16636 14.1683 9.16994 12.7569C9.16635 11.417 7.18526 11.4603 6.26478 11.4803H6.26477C6.15605 11.4827 6.06213 11.4848 5.98801 11.4842V14.0297ZM6.09788 18.1867C6.05665 18.185 6.01865 18.1834 5.98423 18.1821L5.98423 15.6366C6.06625 15.6374 6.16938 15.6361 6.28863 15.6346C7.37647 15.621 9.80626 15.5908 9.79475 16.9416C9.807 18.3388 7.06437 18.2263 6.09788 18.1867Z" fill="#031F2B"/>
</g>
<defs>
<clipPath id="clip0_58308_71359">
<rect width="24" height="24" fill="white" transform="translate(0.166016)"/>
</clipPath>
</defs>
</svg>
