<svg width="24" height="24" viewBox="0 0 24 24" fill="none" xmlns="http://www.w3.org/2000/svg">
<mask id="mask0_86724_171630" style="mask-type:alpha" maskUnits="userSpaceOnUse" x="0" y="0" width="24" height="24">
<rect width="24" height="24" fill="#D9D9D9"/>
</mask>
<g mask="url(#mask0_86724_171630)">
<path d="M7.04956 20.8C6.86623 20.95 6.67056 20.9583 6.46256 20.825C6.25389 20.6917 6.19123 20.5083 6.27456 20.275L8.14956 14.15L3.27456 10.65C3.07456 10.5167 3.01222 10.3333 3.08756 10.1C3.16222 9.86667 3.31622 9.75 3.54956 9.75H9.59956L11.5246 3.35C11.5579 3.21667 11.6206 3.125 11.7126 3.075C11.8039 3.025 11.8996 3 11.9996 3C12.0996 3 12.1956 3.025 12.2876 3.075C12.3789 3.125 12.4412 3.21667 12.4746 3.35L14.3996 9.75H20.4496C20.6829 9.75 20.8372 9.86667 20.9126 10.1C20.9872 10.3333 20.9246 10.5167 20.7246 10.65L15.8496 14.15L17.7246 20.275C17.8079 20.5083 17.7456 20.6917 17.5376 20.825C17.3289 20.9583 17.1329 20.95 16.9496 20.8L11.9996 17.05L7.04956 20.8Z" fill="#1C1C1C"/>
</g>
</svg>
