<svg width="24" height="24" viewBox="0 0 24 24" fill="none" xmlns="http://www.w3.org/2000/svg">
<mask id="mask0_31583_432127" style="mask-type:alpha" maskUnits="userSpaceOnUse" x="0" y="0" width="24" height="24">
<rect width="24" height="24" fill="#D9D9D9"/>
</mask>
<g mask="url(#mask0_31583_432127)">
<path d="M7.04761 20.8C6.86427 20.95 6.6686 20.9583 6.4606 20.825C6.25194 20.6917 6.18927 20.5083 6.27261 20.275L8.1476 14.15L3.27261 10.65C3.07261 10.5167 3.01027 10.3333 3.08561 10.1C3.16027 9.86667 3.31427 9.75 3.54761 9.75H9.59761L11.5226 3.35C11.5559 3.21667 11.6186 3.125 11.7106 3.075C11.8019 3.025 11.8976 3 11.9976 3C12.0976 3 12.1936 3.025 12.2856 3.075C12.3769 3.125 12.4393 3.21667 12.4726 3.35L14.3976 9.75H20.4476C20.6809 9.75 20.8353 9.86667 20.9106 10.1C20.9853 10.3333 20.9226 10.5167 20.7226 10.65L15.8476 14.15L17.7226 20.275C17.8059 20.5083 17.7436 20.6917 17.5356 20.825C17.3269 20.9583 17.1309 20.95 16.9476 20.8L11.9976 17.05L7.04761 20.8Z" fill="white"/>
</g>
</svg>
