<svg width="16" height="16" viewBox="0 0 16 16" fill="none" xmlns="http://www.w3.org/2000/svg">
<path d="M4.50023 12.8334L2.43356 12.4168C2.31134 12.3945 2.20856 12.3307 2.12523 12.2251C2.04189 12.1195 2.01134 12.0001 2.03356 11.8668L2.26689 9.86676L0.950228 8.33343C0.861339 8.24454 0.816895 8.13343 0.816895 8.0001C0.816895 7.86676 0.861339 7.75565 0.950228 7.66676L2.26689 6.1501L2.03356 4.1501C2.01134 4.01676 2.04189 3.89732 2.12523 3.79176C2.20856 3.68621 2.31134 3.62232 2.43356 3.6001L4.50023 3.18343L5.53356 1.4001C5.60023 1.28899 5.69467 1.21121 5.81689 1.16676C5.93912 1.12232 6.06134 1.12788 6.18356 1.18343L8.00023 2.03343L9.81689 1.18343C9.93912 1.12788 10.0641 1.11676 10.1919 1.1501C10.3197 1.18343 10.4113 1.26121 10.4669 1.38343L11.5169 3.18343L13.5669 3.6001C13.6891 3.62232 13.7919 3.68621 13.8752 3.79176C13.9586 3.89732 13.9891 4.01676 13.9669 4.1501L13.7336 6.1501L15.0502 7.66676C15.1391 7.75565 15.1836 7.86676 15.1836 8.0001C15.1836 8.13343 15.1391 8.24454 15.0502 8.33343L13.7336 9.86676L13.9669 11.8668C13.9891 12.0001 13.9586 12.1195 13.8752 12.2251C13.7919 12.3307 13.6891 12.3945 13.5669 12.4168L11.5169 12.8334L10.4669 14.6168C10.4113 14.739 10.3197 14.8168 10.1919 14.8501C10.0641 14.8834 9.93912 14.8723 9.81689 14.8168L8.00023 13.9668L6.18356 14.8168C6.06134 14.8723 5.93912 14.8779 5.81689 14.8334C5.69467 14.789 5.60023 14.7112 5.53356 14.6001L4.50023 12.8334ZM6.93356 9.86676C7.03356 9.96676 7.15023 10.0168 7.28356 10.0168C7.41689 10.0168 7.53356 9.96676 7.63356 9.86676L10.7169 6.81676C10.8058 6.72788 10.8474 6.61399 10.8419 6.4751C10.8363 6.33621 10.7836 6.21676 10.6836 6.11676C10.5836 6.01676 10.4641 5.96954 10.3252 5.9751C10.1863 5.98065 10.0613 6.03343 9.95023 6.13343L7.28356 8.78343L6.06689 7.5001C5.96689 7.38899 5.84189 7.33621 5.69189 7.34176C5.54189 7.34732 5.41689 7.40565 5.31689 7.51676C5.21689 7.62788 5.16412 7.75565 5.15856 7.9001C5.15301 8.04454 5.20578 8.16676 5.31689 8.26676L6.93356 9.86676Z" fill="#031F2B"/>
</svg>
