<svg width="24" height="24" viewBox="0 0 24 24" fill="none" xmlns="http://www.w3.org/2000/svg">
<path d="M6.74961 19.2499L3.64961 18.6249C3.46628 18.5916 3.31211 18.4957 3.18711 18.3374C3.06211 18.1791 3.01628 17.9999 3.04961 17.7999L3.39961 14.7999L1.42461 12.4999C1.29128 12.3666 1.22461 12.1999 1.22461 11.9999C1.22461 11.7999 1.29128 11.6332 1.42461 11.4999L3.39961 9.2249L3.04961 6.2249C3.01628 6.0249 3.06211 5.84574 3.18711 5.6874C3.31211 5.52907 3.46628 5.43324 3.64961 5.3999L6.74961 4.7749L8.29961 2.0999C8.39961 1.93324 8.54128 1.81657 8.72461 1.7499C8.90794 1.68324 9.09128 1.69157 9.27461 1.7749L11.9996 3.0499L14.7246 1.7749C14.9079 1.69157 15.0954 1.6749 15.2871 1.7249C15.4788 1.7749 15.6163 1.89157 15.6996 2.0749L17.2746 4.7749L20.3496 5.3999C20.5329 5.43324 20.6871 5.52907 20.8121 5.6874C20.9371 5.84574 20.9829 6.0249 20.9496 6.2249L20.5996 9.2249L22.5746 11.4999C22.7079 11.6332 22.7746 11.7999 22.7746 11.9999C22.7746 12.1999 22.7079 12.3666 22.5746 12.4999L20.5996 14.7999L20.9496 17.7999C20.9829 17.9999 20.9371 18.1791 20.8121 18.3374C20.6871 18.4957 20.5329 18.5916 20.3496 18.6249L17.2746 19.2499L15.6996 21.9249C15.6163 22.1082 15.4788 22.2249 15.2871 22.2749C15.0954 22.3249 14.9079 22.3082 14.7246 22.2249L11.9996 20.9499L9.27461 22.2249C9.09128 22.3082 8.90794 22.3166 8.72461 22.2499C8.54128 22.1832 8.39961 22.0666 8.29961 21.8999L6.74961 19.2499ZM10.3996 14.7999C10.5496 14.9499 10.7246 15.0249 10.9246 15.0249C11.1246 15.0249 11.2996 14.9499 11.4496 14.7999L16.0746 10.2249C16.2079 10.0916 16.2704 9.92074 16.2621 9.7124C16.2538 9.50407 16.1746 9.3249 16.0246 9.1749C15.8746 9.0249 15.6954 8.95407 15.4871 8.9624C15.2788 8.97074 15.0913 9.0499 14.9246 9.1999L10.9246 13.1749L9.09961 11.2499C8.94961 11.0832 8.76211 11.0041 8.53711 11.0124C8.31211 11.0207 8.12461 11.1082 7.97461 11.2749C7.82461 11.4416 7.74544 11.6332 7.73711 11.8499C7.72878 12.0666 7.80794 12.2499 7.97461 12.3999L10.3996 14.7999Z" fill="white"/>
</svg>
