<svg width="728" height="300" viewBox="0 0 728 300" fill="none" xmlns="http://www.w3.org/2000/svg">
<rect width="728" height="300" rx="24" fill="#D0E2FF"/>
<path d="M272.001 214.5L321.301 183L321.301 152" stroke="#333333" stroke-width="0.44" stroke-linecap="round" stroke-linejoin="round"/>
<path d="M251.995 244.55C264.141 244.55 274 234.711 274 222.545C274 210.409 264.141 200.55 251.995 200.55C239.859 200.55 230 210.409 230 222.545C230 234.711 239.859 244.55 251.995 244.55Z" fill="#ABEDD8" stroke="#333333" stroke-width="0.44" stroke-linecap="round" stroke-linejoin="round"/>
<path d="M253.745 207.69C253.745 207.389 253.506 207.15 253.206 207.15H248.435C248.133 207.15 247.895 207.389 247.895 207.69C247.895 207.991 248.133 208.23 248.435 208.23H250.054C250.228 208.23 250.355 208.358 250.355 208.531V209.081C250.355 209.254 250.228 209.382 250.054 209.382H248.14C247.838 209.382 247.6 209.622 247.6 209.922V211.075C247.6 211.375 247.838 211.615 248.14 211.615H251.563V228.795C249.831 229.28 248.551 230.866 248.551 232.759C248.551 235.031 250.383 236.862 252.654 236.862C254.915 236.862 256.758 235.014 256.758 232.759C256.758 230.872 255.477 229.28 253.745 228.795V207.69Z" fill="#3D84A8" stroke="#333333" stroke-width="0.33" stroke-linecap="round" stroke-linejoin="round"/>
<path d="M453.8 214.5L404.5 183L404.5 152" stroke="#333333" stroke-width="0.44" stroke-linecap="round" stroke-linejoin="round"/>
<path d="M473.806 244.55C461.66 244.55 451.801 234.711 451.801 222.545C451.801 210.409 461.66 200.55 473.806 200.55C485.941 200.55 495.801 210.409 495.801 222.545C495.801 234.711 485.941 244.55 473.806 244.55Z" fill="#ABEDD8" stroke="#333333" stroke-width="0.44" stroke-linecap="round" stroke-linejoin="round"/>
<path d="M475.189 207.69C475.189 207.389 474.95 207.15 474.649 207.15H469.878C469.577 207.15 469.338 207.389 469.338 207.69C469.338 207.991 469.577 208.23 469.878 208.23H471.497C471.671 208.23 471.799 208.358 471.799 208.531V209.081C471.799 209.254 471.671 209.382 471.497 209.382H469.583C469.282 209.382 469.043 209.622 469.043 209.922V211.075C469.043 211.375 469.282 211.615 469.583 211.615H473.007V228.795C471.275 229.28 469.994 230.866 469.994 232.759C469.994 235.031 471.827 236.862 474.098 236.862C476.358 236.862 478.201 235.014 478.201 232.759C478.201 230.872 476.921 229.28 475.189 228.795V207.69Z" fill="#3D84A8" stroke="#333333" stroke-width="0.33" stroke-linecap="round" stroke-linejoin="round"/>
<path d="M397.712 70.711C378.89 70.711 363.653 61.8302 363.653 51C363.653 61.91 348.429 70.711 329.606 70.711C322.384 70.711 315.707 69.4114 310.199 67.1769V138.622C310.199 165.698 363.653 193.56 363.653 193.56C363.653 193.56 417.119 165.698 417.119 138.622V67.1769C411.611 69.3316 404.935 70.711 397.712 70.711Z" fill="#54C4C9" stroke="#333333" stroke-width="0.715" stroke-linecap="round" stroke-linejoin="round"/>
<path d="M368.516 85.6439C368.516 84.7267 367.796 84 366.889 84L352.489 84C351.58 84 350.859 84.7267 350.859 85.6439C350.859 86.5584 351.58 87.2878 352.489 87.2878L357.376 87.2878C357.9 87.2878 358.286 87.677 358.286 88.2023L358.286 89.8788C358.286 90.4041 357.9 90.7933 357.376 90.7933L351.599 90.7933C350.689 90.7933 349.969 91.5227 349.969 92.4372L349.969 95.9454C349.969 96.8599 350.689 97.5893 351.599 97.5893L361.932 97.5893L361.932 141.083C356.704 142.558 352.84 147.387 352.84 153.148C352.84 160.064 358.369 165.638 365.224 165.638C372.046 165.638 377.608 160.012 377.608 153.148C377.608 147.406 373.743 142.558 368.516 141.083L368.516 85.6439Z" fill="white"/>
<mask id="mask0_66411_737829" style="mask-type:alpha" maskUnits="userSpaceOnUse" x="356" y="144" width="18" height="19">
<rect x="356.398" y="144.5" width="17.6" height="17.6" fill="#D9D9D9"/>
</mask>
<g mask="url(#mask0_66411_737829)">
<path d="M360.799 160.633C360.395 160.633 360.05 160.49 359.763 160.203C359.476 159.915 359.332 159.57 359.332 159.167V151.833C359.332 151.43 359.476 151.085 359.763 150.797C360.05 150.51 360.395 150.367 360.799 150.367H361.532V148.9C361.532 147.886 361.89 147.021 362.605 146.305C363.32 145.591 364.184 145.233 365.199 145.233C366.213 145.233 367.078 145.591 367.793 146.305C368.508 147.021 368.865 147.886 368.865 148.9V150.367H369.599C370.002 150.367 370.347 150.51 370.635 150.797C370.922 151.085 371.065 151.43 371.065 151.833V159.167C371.065 159.57 370.922 159.915 370.635 160.203C370.347 160.49 370.002 160.633 369.599 160.633H360.799ZM365.199 156.967C365.602 156.967 365.947 156.823 366.235 156.536C366.522 156.249 366.665 155.903 366.665 155.5C366.665 155.097 366.522 154.751 366.235 154.464C365.947 154.177 365.602 154.033 365.199 154.033C364.795 154.033 364.45 154.177 364.163 154.464C363.876 154.751 363.732 155.097 363.732 155.5C363.732 155.903 363.876 156.249 364.163 156.536C364.45 156.823 364.795 156.967 365.199 156.967ZM362.999 150.367H367.399V148.9C367.399 148.289 367.185 147.769 366.757 147.342C366.329 146.914 365.81 146.7 365.199 146.7C364.588 146.7 364.068 146.914 363.64 147.342C363.213 147.769 362.999 148.289 362.999 148.9V150.367Z" fill="#3D84A8"/>
</g>
<path d="M363.451 194L363.451 228.646" stroke="#333333" stroke-width="0.44" stroke-linecap="round" stroke-linejoin="round"/>
<path d="M363.754 276.52C376.872 276.52 387.52 265.894 387.52 252.754C387.52 239.648 376.872 229 363.754 229C350.648 229 340 239.648 340 252.754C340 265.894 350.648 276.52 363.754 276.52Z" fill="#ABEDD8" stroke="#333333" stroke-width="0.396" stroke-linecap="round" stroke-linejoin="round"/>
<path d="M365.645 236.711C365.645 236.386 365.387 236.128 365.063 236.128H359.91C359.584 236.128 359.326 236.386 359.326 236.711C359.326 237.036 359.584 237.295 359.91 237.295H361.659C361.846 237.295 361.984 237.433 361.984 237.619V238.214C361.984 238.4 361.846 238.538 361.659 238.538H359.591C359.266 238.538 359.008 238.797 359.008 239.122V240.366C359.008 240.691 359.266 240.95 359.591 240.95H363.289V259.505C361.418 260.028 360.035 261.741 360.035 263.786C360.035 266.24 362.014 268.217 364.467 268.217C366.908 268.217 368.899 266.221 368.899 263.786C368.899 261.748 367.516 260.028 365.645 259.505V236.711Z" fill="#3D84A8" stroke="#333333" stroke-width="0.297" stroke-linecap="round" stroke-linejoin="round"/>
</svg>
