<svg width="728" height="300" viewBox="0 0 728 300" fill="none" xmlns="http://www.w3.org/2000/svg">
<rect width="728" height="300" rx="24" fill="#D0E2FF"/>
<path d="M272 214.5L321.3 183L321.3 152" stroke="#333333" stroke-width="0.44" stroke-linecap="round" stroke-linejoin="round"/>
<path d="M251.995 244.55C264.141 244.55 274 234.711 274 222.545C274 210.409 264.141 200.55 251.995 200.55C239.859 200.55 230 210.409 230 222.545C230 234.711 239.859 244.55 251.995 244.55Z" fill="#ABEDD8" stroke="#333333" stroke-width="0.44" stroke-linecap="round" stroke-linejoin="round"/>
<path d="M253.746 207.69C253.746 207.389 253.507 207.15 253.206 207.15H248.435C248.134 207.15 247.895 207.389 247.895 207.69C247.895 207.991 248.134 208.23 248.435 208.23H250.054C250.228 208.23 250.356 208.358 250.356 208.531V209.081C250.356 209.254 250.228 209.382 250.054 209.382H248.14C247.839 209.382 247.6 209.622 247.6 209.922V211.075C247.6 211.375 247.839 211.615 248.14 211.615H251.564V228.795C249.832 229.28 248.551 230.866 248.551 232.759C248.551 235.031 250.384 236.862 252.655 236.862C254.915 236.862 256.758 235.014 256.758 232.759C256.758 230.872 255.478 229.28 253.746 228.795V207.69Z" fill="#3D84A8" stroke="#333333" stroke-width="0.33" stroke-linecap="round" stroke-linejoin="round"/>
<path d="M453.8 214.5L404.5 183L404.5 152" stroke="#333333" stroke-width="0.44" stroke-linecap="round" stroke-linejoin="round"/>
<path d="M473.805 244.55C461.659 244.55 451.8 234.711 451.8 222.545C451.8 210.409 461.659 200.55 473.805 200.55C485.94 200.55 495.8 210.409 495.8 222.545C495.8 234.711 485.94 244.55 473.805 244.55Z" fill="#ABEDD8" stroke="#333333" stroke-width="0.44" stroke-linecap="round" stroke-linejoin="round"/>
<path d="M475.187 207.69C475.187 207.389 474.949 207.15 474.648 207.15H469.877C469.576 207.15 469.337 207.389 469.337 207.69C469.337 207.991 469.576 208.23 469.877 208.23H471.496C471.67 208.23 471.798 208.358 471.798 208.531V209.081C471.798 209.254 471.67 209.382 471.496 209.382H469.582C469.28 209.382 469.042 209.622 469.042 209.922V211.075C469.042 211.375 469.28 211.615 469.582 211.615H473.006V228.795C471.274 229.28 469.993 230.866 469.993 232.759C469.993 235.031 471.825 236.862 474.096 236.862C476.357 236.862 478.2 235.014 478.2 232.759C478.2 230.872 476.919 229.28 475.187 228.795V207.69Z" fill="#3D84A8" stroke="#333333" stroke-width="0.33" stroke-linecap="round" stroke-linejoin="round"/>
<path d="M397.713 70.711C378.891 70.711 363.654 61.8302 363.654 51C363.654 61.91 348.43 70.711 329.607 70.711C322.385 70.711 315.708 69.4114 310.2 67.1769V138.622C310.2 165.698 363.654 193.56 363.654 193.56C363.654 193.56 417.12 165.698 417.12 138.622V67.1769C411.612 69.3316 404.936 70.711 397.713 70.711Z" fill="#54C4C9" stroke="#333333" stroke-width="0.715" stroke-linecap="round" stroke-linejoin="round"/>
<path d="M368.517 85.6439C368.517 84.7267 367.797 84 366.89 84L352.49 84C351.581 84 350.86 84.7267 350.86 85.6439C350.86 86.5584 351.581 87.2878 352.49 87.2878L357.377 87.2878C357.901 87.2878 358.287 87.677 358.287 88.2022L358.287 89.8788C358.287 90.4041 357.901 90.7933 357.377 90.7933L351.6 90.7933C350.69 90.7933 349.97 91.5227 349.97 92.4371L349.97 95.9454C349.97 96.8598 350.69 97.5892 351.6 97.5892L361.933 97.5892L361.933 141.083C356.706 142.558 352.841 147.387 352.841 153.148C352.841 160.064 358.371 165.638 365.225 165.638C372.047 165.638 377.609 160.012 377.609 153.148C377.609 147.406 373.744 142.558 368.517 141.083L368.517 85.6439Z" fill="white"/>
<path d="M360.8 160.633C360.397 160.633 360.052 160.49 359.765 160.203C359.477 159.915 359.333 159.57 359.333 159.167V151.833C359.333 151.43 359.477 151.085 359.765 150.797C360.052 150.51 360.397 150.367 360.8 150.367H361.533V148.9C361.533 147.886 361.891 147.021 362.606 146.305C363.321 145.591 364.186 145.233 365.2 145.233C366.215 145.233 367.079 145.591 367.795 146.305C368.509 147.021 368.867 147.886 368.867 148.9V150.367H369.6C370.003 150.367 370.349 150.51 370.636 150.797C370.923 151.085 371.067 151.43 371.067 151.833V159.167C371.067 159.57 370.923 159.915 370.636 160.203C370.349 160.49 370.003 160.633 369.6 160.633H360.8ZM365.2 156.967C365.603 156.967 365.949 156.823 366.236 156.536C366.523 156.249 366.667 155.903 366.667 155.5C366.667 155.097 366.523 154.751 366.236 154.464C365.949 154.177 365.603 154.033 365.2 154.033C364.797 154.033 364.452 154.177 364.165 154.464C363.877 154.751 363.733 155.097 363.733 155.5C363.733 155.903 363.877 156.249 364.165 156.536C364.452 156.823 364.797 156.967 365.2 156.967ZM363 150.367H367.4V148.9C367.4 148.289 367.186 147.769 366.758 147.342C366.331 146.914 365.811 146.7 365.2 146.7C364.589 146.7 364.07 146.914 363.642 147.342C363.214 147.769 363 148.289 363 148.9V150.367Z" fill="#3D84A8"/>
<path d="M363.452 194L363.452 228.646" stroke="#333333" stroke-width="0.44" stroke-linecap="round" stroke-linejoin="round"/>
<path d="M363.754 276.52C376.872 276.52 387.52 265.894 387.52 252.754C387.52 239.648 376.872 229 363.754 229C350.648 229 340 239.648 340 252.754C340 265.894 350.648 276.52 363.754 276.52Z" fill="#ABEDD8" stroke="#333333" stroke-width="0.396" stroke-linecap="round" stroke-linejoin="round"/>
<path d="M365.645 236.711C365.645 236.386 365.387 236.128 365.063 236.128H359.91C359.585 236.128 359.327 236.386 359.327 236.711C359.327 237.036 359.585 237.295 359.91 237.295H361.659C361.846 237.295 361.984 237.433 361.984 237.619V238.214C361.984 238.4 361.846 238.538 361.659 238.538H359.591C359.266 238.538 359.008 238.797 359.008 239.122V240.366C359.008 240.691 359.266 240.95 359.591 240.95H363.289V259.505C361.418 260.028 360.036 261.741 360.036 263.786C360.036 266.24 362.014 268.217 364.467 268.217C366.908 268.217 368.899 266.221 368.899 263.786C368.899 261.748 367.516 260.028 365.645 259.505V236.711Z" fill="#3D84A8" stroke="#333333" stroke-width="0.297" stroke-linecap="round" stroke-linejoin="round"/>
</svg>
