<svg width="20" height="20" viewBox="0 0 20 20" fill="none" xmlns="http://www.w3.org/2000/svg">
<path d="M10 3.4375C8.51664 3.4375 7.0666 3.87737 5.83323 4.70148C4.59986 5.52559 3.63856 6.69693 3.07091 8.06737C2.50325 9.43782 2.35472 10.9458 2.64411 12.4007C2.9335 13.8555 3.64781 15.1919 4.6967 16.2408C5.7456 17.2897 7.08197 18.004 8.53683 18.2934C9.99168 18.5828 11.4997 18.4343 12.8701 17.8666C14.2406 17.2989 15.4119 16.3376 16.236 15.1043C17.0601 13.8709 17.5 12.4209 17.5 10.9375C17.4977 8.94907 16.7068 7.04274 15.3008 5.63671C13.8948 4.23068 11.9884 3.43977 10 3.4375ZM10 16.5625C8.88748 16.5625 7.79995 16.2326 6.87492 15.6145C5.94989 14.9964 5.22892 14.1179 4.80318 13.0901C4.37744 12.0623 4.26604 10.9313 4.48309 9.84012C4.70013 8.74897 5.23586 7.74669 6.02253 6.96002C6.8092 6.17335 7.81148 5.63762 8.90262 5.42058C9.99376 5.20354 11.1248 5.31493 12.1526 5.74068C13.1804 6.16642 14.0589 6.88739 14.677 7.81242C15.2951 8.73744 15.625 9.82498 15.625 10.9375C15.6233 12.4288 15.0302 13.8586 13.9757 14.9131C12.9211 15.9677 11.4913 16.5608 10 16.5625ZM12.8508 7.77422C12.9382 7.86132 13.0075 7.96481 13.0548 8.07876C13.1022 8.19272 13.1265 8.31489 13.1265 8.43828C13.1265 8.56167 13.1022 8.68384 13.0548 8.7978C13.0075 8.91175 12.9382 9.01525 12.8508 9.10234L10.6633 11.2898C10.4872 11.466 10.2483 11.5649 9.99922 11.5649C9.75015 11.5649 9.51128 11.466 9.33516 11.2898C9.15904 11.1137 9.0601 10.8749 9.0601 10.6258C9.0601 10.3767 9.15904 10.1378 9.33516 9.96172L11.5227 7.77422C11.6098 7.68682 11.7133 7.61747 11.8272 7.57015C11.9412 7.52284 12.0633 7.49848 12.1867 7.49848C12.3101 7.49848 12.4323 7.52284 12.5462 7.57015C12.6602 7.61747 12.7637 7.68682 12.8508 7.77422ZM7.1875 1.25C7.1875 1.00136 7.28628 0.762903 7.46209 0.587087C7.63791 0.411272 7.87636 0.3125 8.125 0.3125H11.875C12.1236 0.3125 12.3621 0.411272 12.5379 0.587087C12.7137 0.762903 12.8125 1.00136 12.8125 1.25C12.8125 1.49864 12.7137 1.7371 12.5379 1.91291C12.3621 2.08873 12.1236 2.1875 11.875 2.1875H8.125C7.87636 2.1875 7.63791 2.08873 7.46209 1.91291C7.28628 1.7371 7.1875 1.49864 7.1875 1.25Z" fill="#031F2B"/>
</svg>
