<svg width="16" height="16" viewBox="0 0 16 16" fill="none" xmlns="http://www.w3.org/2000/svg">
<mask id="mask0_1_26" style="mask-type:alpha" maskUnits="userSpaceOnUse" x="0" y="0" width="16" height="16">
<rect width="16" height="16" fill="white"/>
</mask>
<g mask="url(#mask0_1_26)">
<path d="M2.81481 14.6667C2.4074 14.6667 2.05851 14.5217 1.76814 14.2319C1.47827 13.9415 1.33333 13.5926 1.33333 13.1852V2.81482C1.33333 2.40741 1.47827 2.05852 1.76814 1.76815C2.05851 1.47827 2.4074 1.33333 2.81481 1.33333H13.1852C13.5926 1.33333 13.9415 1.47827 14.2318 1.76815C14.5217 2.05852 14.6667 2.40741 14.6667 2.81482V10.2222L10.2222 14.6667H2.81481ZM7.25925 9.48148C7.46913 9.48148 7.64518 9.41037 7.7874 9.26815C7.92913 9.12642 8 8.95062 8 8.74074C8 8.53087 7.92913 8.35482 7.7874 8.21259C7.64518 8.07086 7.46913 8 7.25925 8H5.03703C4.82716 8 4.65111 8.07086 4.50888 8.21259C4.36716 8.35482 4.29629 8.53087 4.29629 8.74074C4.29629 8.95062 4.36716 9.12642 4.50888 9.26815C4.65111 9.41037 4.82716 9.48148 5.03703 9.48148H7.25925ZM10.963 6.51852C11.1728 6.51852 11.3486 6.44741 11.4904 6.30519C11.6326 6.16346 11.7037 5.98766 11.7037 5.77778C11.7037 5.5679 11.6326 5.39185 11.4904 5.24963C11.3486 5.1079 11.1728 5.03704 10.963 5.03704H5.03703C4.82716 5.03704 4.65111 5.1079 4.50888 5.24963C4.36716 5.39185 4.29629 5.5679 4.29629 5.77778C4.29629 5.98766 4.36716 6.16346 4.50888 6.30519C4.65111 6.44741 4.82716 6.51852 5.03703 6.51852H10.963ZM9.48148 13.1852L13.1852 9.48148H10.2222C10.0123 9.48148 9.83654 9.55235 9.69481 9.69407C9.55259 9.8363 9.48148 10.0123 9.48148 10.2222V13.1852Z" fill="#031F2B"/>
</g>
</svg>
