<svg width="346" height="300" viewBox="0 0 346 300" fill="none" xmlns="http://www.w3.org/2000/svg">
<rect width="346" height="300" fill="#D0E2FF"/>
<path d="M175.5 155L175.5 175" stroke="#333333" stroke-width="0.6" stroke-linecap="round" stroke-linejoin="round"/>
<path d="M207.403 236.54H113.672L140.643 171.659H234.379L207.403 236.54Z" fill="#ABEDD8"/>
<path d="M215.403 217.347L207.403 236.54H186.637" stroke="#333333" stroke-width="0.6" stroke-linecap="round" stroke-linejoin="round"/>
<path d="M182.882 236.54H178.375" stroke="#333333" stroke-width="0.6" stroke-linecap="round" stroke-linejoin="round"/>
<path d="M178.372 236.54H134.438" stroke="#333333" stroke-width="0.6" stroke-linecap="round" stroke-linejoin="round"/>
<path d="M134.438 236.54H113.672L121.626 217.347" stroke="#333333" stroke-width="0.6" stroke-linecap="round" stroke-linejoin="round"/>
<path d="M126.656 205.326L132.644 190.853" stroke="#333333" stroke-width="0.6" stroke-linecap="round" stroke-linejoin="round"/>
<path d="M132.641 190.852L140.641 171.659H161.407" stroke="#333333" stroke-width="0.6" stroke-linecap="round" stroke-linejoin="round"/>
<path d="M165.172 171.659H169.674" stroke="#333333" stroke-width="0.6" stroke-linecap="round" stroke-linejoin="round"/>
<path d="M169.672 171.659H213.611" stroke="#333333" stroke-width="0.6" stroke-linecap="round" stroke-linejoin="round"/>
<path d="M213.613 171.659H234.38L226.421 190.852" stroke="#333333" stroke-width="0.6" stroke-linecap="round" stroke-linejoin="round"/>
<path d="M221.394 202.878L215.402 217.347" stroke="#333333" stroke-width="0.6" stroke-linecap="round" stroke-linejoin="round"/>
<path d="M175.05 207.468C178.266 207.468 180.866 204.863 180.866 201.652C180.866 198.441 178.266 195.836 175.05 195.836C171.843 195.836 169.238 198.441 169.238 201.652C169.238 204.863 171.843 207.468 175.05 207.468Z" fill="#46CDCF" stroke="#333333" stroke-width="0.6" stroke-linecap="round" stroke-linejoin="round"/>
<path d="M82.5 240.08H209.458V231.645H90.9352C86.2572 231.645 82.5 235.448 82.5 240.08Z" fill="#ABEDD8" stroke="#333333" stroke-width="0.6" stroke-linecap="round" stroke-linejoin="round"/>
<path d="M82.5 138.756V160H262.5V60H82.5V98.7336V138.756Z" fill="#ABEDD8" stroke="#333333" stroke-width="0.6" stroke-linecap="round" stroke-linejoin="round"/>
<path d="M144.8 77.1109C144.8 73.3494 147.849 70.3 151.611 70.3H194.277C198.038 70.3 201.087 73.3494 201.087 77.1109V121.554C201.087 121.55 201.087 121.551 201.086 121.558C201.085 121.569 201.082 121.593 201.075 121.636C201.065 121.698 201.05 121.785 201.029 121.895C200.986 122.115 200.922 122.422 200.833 122.806C200.655 123.573 200.383 124.641 200.003 125.913C199.242 128.457 198.054 131.809 196.342 135.196C192.91 141.985 187.425 148.819 179.15 149.698C176.723 149.701 173.472 149.7 170.523 149.699C169.159 149.698 167.861 149.698 166.737 149.698C158.461 148.819 152.976 141.987 149.545 135.199C147.833 131.812 146.645 128.459 145.884 125.915C145.504 124.644 145.232 123.575 145.054 122.808C144.966 122.424 144.901 122.116 144.859 121.896C144.837 121.786 144.822 121.699 144.812 121.636C144.805 121.593 144.802 121.569 144.801 121.558C144.8 121.551 144.8 121.55 144.8 121.554V77.1109Z" fill="#3D84A8" stroke="#333333" stroke-width="0.6"/>
<g clip-path="url(#clip0_32411_445272)">
<path d="M159.263 123.824C159.263 122.583 158.164 121.555 156.827 121.555C155.489 121.555 154.39 122.584 154.39 123.823V124.549H153.387V129.765L156.826 131.332L160.267 129.765V124.572H159.264L159.263 123.823L159.263 123.824ZM155.632 123.824C155.632 123.239 156.158 122.771 156.827 122.771C157.496 122.771 158.021 123.239 158.021 123.824V124.549H155.632L155.632 123.824ZM158.881 128.923L156.826 129.859L154.771 128.924V125.789H158.881L158.881 128.923Z" fill="#333333"/>
<path d="M163.062 124.549H167.387V125.789H165.905V129.789H164.52V125.789H163.062V124.549ZM172.356 126.303C172.356 125.25 171.615 124.572 170.517 124.572H168.008V129.788H169.394V128.034H169.919L170.899 129.788H172.501L171.33 127.847C171.831 127.66 172.356 127.169 172.356 126.303ZM170.351 126.818H169.394V125.765H170.349C170.708 125.765 170.947 125.976 170.947 126.28C170.947 126.607 170.708 126.818 170.349 126.818H170.351ZM173.001 124.549H176.871V125.765H174.387V126.537H176.8V127.73H174.387V128.572H176.871V129.789H173.001V124.549ZM184.636 124.479C183.012 124.479 181.865 125.625 181.865 127.169C181.865 128.712 183.035 129.86 184.636 129.86C186.237 129.86 187.431 128.713 187.431 127.169C187.431 125.626 186.261 124.479 184.636 124.479V124.479ZM184.636 128.642C183.824 128.642 183.274 128.034 183.274 127.17C183.274 126.281 183.824 125.697 184.636 125.697C185.448 125.697 186.022 126.305 186.022 127.17C186.022 128.034 185.448 128.642 184.636 128.642V128.642ZM191.326 127.847C191.827 127.66 192.353 127.169 192.353 126.303C192.353 125.25 191.612 124.572 190.513 124.572H188.005V129.788H189.391V128.034H189.917L190.897 129.788H192.497L191.326 127.847ZM190.346 126.818H189.391V125.765H190.346C190.705 125.765 190.944 125.976 190.944 126.28C190.944 126.607 190.705 126.818 190.346 126.818ZM177.54 124.549H181.626V125.602L179.404 128.549H181.626V129.789H177.54V128.736L179.762 125.789H177.54V124.549Z" fill="#333333"/>
</g>
<rect x="153.687" y="79.1887" width="38.5101" height="38.5101" fill="#46CDCF" stroke="#333333" stroke-width="0.6"/>
<defs>
<clipPath id="clip0_32411_445272">
<rect width="39.1101" height="9.77753" fill="white" transform="translate(153.387 121.555)"/>
</clipPath>
</defs>
</svg>
