<svg width="44" height="44" viewBox="0 0 44 44" fill="none" xmlns="http://www.w3.org/2000/svg">
<rect width="44" height="44" rx="22" fill="url(#paint0_linear_69358_814656)"/>
<path d="M29.5 17.5H26.5V15.25C26.5 14.0565 26.0259 12.9119 25.182 12.068C24.3381 11.2241 23.1935 10.75 22 10.75C20.8065 10.75 19.6619 11.2241 18.818 12.068C17.9741 12.9119 17.5 14.0565 17.5 15.25V17.5H14.5C14.1022 17.5 13.7206 17.658 13.4393 17.9393C13.158 18.2206 13 18.6022 13 19V29.5C13 29.8978 13.158 30.2794 13.4393 30.5607C13.7206 30.842 14.1022 31 14.5 31H29.5C29.8978 31 30.2794 30.842 30.5607 30.5607C30.842 30.2794 31 29.8978 31 29.5V19C31 18.6022 30.842 18.2206 30.5607 17.9393C30.2794 17.658 29.8978 17.5 29.5 17.5ZM19 15.25C19 14.4544 19.3161 13.6913 19.8787 13.1287C20.4413 12.5661 21.2044 12.25 22 12.25C22.7956 12.25 23.5587 12.5661 24.1213 13.1287C24.6839 13.6913 25 14.4544 25 15.25V17.5H19V15.25Z" fill="white"/>
<defs>
<linearGradient id="paint0_linear_69358_814656" x1="22" y1="38.225" x2="22" y2="15.4" gradientUnits="userSpaceOnUse">
<stop stop-color="#2F466C"/>
<stop offset="1" stop-color="#031F2B"/>
</linearGradient>
</defs>
</svg>
