<svg width="44" height="44" viewBox="0 0 44 44" fill="none" xmlns="http://www.w3.org/2000/svg">
<rect width="44" height="44" rx="22" fill="#F5F5F5"/>
<rect width="44" height="44" rx="22" fill="url(#paint0_linear_69336_809812)"/>
<path d="M22 21.25C21.1842 21.25 20.3866 21.0081 19.7083 20.5548C19.0299 20.1016 18.5012 19.4573 18.189 18.7036C17.8768 17.9498 17.7951 17.1204 17.9543 16.3203C18.1134 15.5201 18.5063 14.7851 19.0832 14.2082C19.6601 13.6313 20.3951 13.2384 21.1953 13.0793C21.9954 12.9201 22.8248 13.0018 23.5786 13.314C24.3323 13.6262 24.9766 14.1549 25.4298 14.8333C25.8831 15.5116 26.125 16.3092 26.125 17.125C26.1238 18.2186 25.6888 19.2671 24.9154 20.0404C24.1421 20.8138 23.0936 21.2488 22 21.25ZM27.625 22C26.8092 22 26.0116 22.2419 25.3333 22.6952C24.6549 23.1485 24.1262 23.7927 23.814 24.5464C23.5018 25.3002 23.4201 26.1296 23.5793 26.9297C23.7384 27.7299 24.1313 28.4649 24.7082 29.0418C25.2851 29.6187 26.0201 30.0116 26.8203 30.1707C27.6204 30.3299 28.4498 30.2482 29.2036 29.936C29.9573 29.6238 30.6016 29.0951 31.0548 28.4167C31.5081 27.7384 31.75 26.9408 31.75 26.125C31.7488 25.0314 31.3138 23.9829 30.5404 23.2096C29.7671 22.4362 28.7186 22.0012 27.625 22ZM16.375 22C15.5592 22 14.7616 22.2419 14.0833 22.6952C13.4049 23.1485 12.8762 23.7927 12.564 24.5464C12.2518 25.3002 12.1701 26.1296 12.3293 26.9297C12.4884 27.7299 12.8813 28.4649 13.4582 29.0418C14.0351 29.6187 14.7701 30.0116 15.5703 30.1707C16.3704 30.3299 17.1998 30.2482 17.9536 29.936C18.7073 29.6238 19.3516 29.0951 19.8048 28.4167C20.2581 27.7384 20.5 26.9408 20.5 26.125C20.4988 25.0314 20.0638 23.9829 19.2904 23.2096C18.5171 22.4362 17.4686 22.0012 16.375 22Z" fill="white"/>
<defs>
<linearGradient id="paint0_linear_69336_809812" x1="26.4257" y1="55.842" x2="-3.63135" y2="25.2837" gradientUnits="userSpaceOnUse">
<stop stop-color="#084B7B"/>
<stop offset="1" stop-color="#2B74A9"/>
</linearGradient>
</defs>
</svg>
