<svg width="46" height="46" viewBox="0 0 46 46" fill="none" xmlns="http://www.w3.org/2000/svg">
<rect x="1" y="1" width="44" height="44" rx="22" fill="#2C2C2C"/>
<rect x="1" y="1" width="44" height="44" rx="22" stroke="white" stroke-opacity="0.4" stroke-linecap="round" stroke-dasharray="4 8"/>
<path fill-rule="evenodd" clip-rule="evenodd" d="M15.602 17.2727H31.9656C32.3996 17.2727 32.8158 17.4451 33.1227 17.752C33.4296 18.0589 33.602 18.4751 33.602 18.9091V30.3636C33.602 30.7976 33.4296 31.2138 33.1227 31.5207C32.8158 31.8276 32.3996 32 31.9656 32H15.602C14.951 32 14.3267 31.7414 13.8664 31.2811C13.4061 30.8208 13.1475 30.1964 13.1475 29.5455V16.4545C13.1475 15.8036 13.4061 15.1792 13.8664 14.7189C14.3267 14.2586 14.951 14 15.602 14H29.5111C29.7281 14 29.9362 14.0862 30.0896 14.2396C30.2431 14.3931 30.3293 14.6012 30.3293 14.8182C30.3293 15.0352 30.2431 15.2433 30.0896 15.3967C29.9362 15.5502 29.7281 15.6364 29.5111 15.6364H15.602C15.385 15.6364 15.1769 15.7226 15.0235 15.876C14.87 16.0294 14.7838 16.2376 14.7838 16.4545C14.7838 16.6715 14.87 16.8796 15.0235 17.0331C15.1769 17.1865 15.385 17.2727 15.602 17.2727ZM18.1077 27.9858V20.1619C18.1077 20.0467 18.0619 19.9361 17.9804 19.8546C17.8989 19.7731 17.7883 19.7273 17.673 19.7273C17.5578 19.7273 17.4472 19.7731 17.3657 19.8546C17.2842 19.9361 17.2384 20.0467 17.2384 20.1619V27.9858C17.2384 28.1011 17.2842 28.2116 17.3657 28.2931C17.4472 28.3747 17.5578 28.4205 17.673 28.4205C17.7883 28.4205 17.8989 28.3747 17.9804 28.2931C18.0619 28.2116 18.1077 28.1011 18.1077 27.9858ZM21.585 23.4762L22.6716 23.123C22.7796 23.0938 22.8946 23.1073 22.9929 23.1607C23.0911 23.2142 23.165 23.3034 23.1991 23.4099C23.2333 23.5164 23.2251 23.6319 23.1762 23.7325C23.1273 23.8331 23.0416 23.911 22.9368 23.95L21.8501 24.3026L22.5206 25.2263C22.556 25.2723 22.5818 25.325 22.5966 25.3812C22.6113 25.4374 22.6146 25.4959 22.6063 25.5534C22.598 25.6109 22.5783 25.6662 22.5483 25.7159C22.5183 25.7657 22.4786 25.8089 22.4316 25.843C22.3846 25.8772 22.3312 25.9015 22.2746 25.9147C22.218 25.9279 22.1594 25.9296 22.1021 25.9197C22.0449 25.9098 21.9902 25.8885 21.9413 25.8571C21.8924 25.8258 21.8503 25.7849 21.8175 25.737L21.147 24.8133L20.4766 25.737C20.4438 25.7849 20.4016 25.8258 20.3528 25.8571C20.3039 25.8885 20.2492 25.9098 20.1919 25.9197C20.1347 25.9296 20.076 25.9279 20.0195 25.9147C19.9629 25.9015 19.9095 25.8772 19.8625 25.843C19.8155 25.8089 19.7758 25.7657 19.7458 25.7159C19.7158 25.6662 19.6961 25.6109 19.6878 25.5534C19.6795 25.4959 19.6828 25.4374 19.6975 25.3812C19.7122 25.325 19.7381 25.2723 19.7735 25.2263L20.444 24.3026L19.3573 23.95C19.2477 23.914 19.1568 23.8358 19.1048 23.7328C19.0527 23.6298 19.0437 23.5103 19.0797 23.4007C19.1157 23.291 19.1938 23.2002 19.2968 23.1481C19.3999 23.096 19.5193 23.087 19.629 23.123L20.7156 23.4762V22.3352C20.7156 22.2199 20.7614 22.1094 20.843 22.0279C20.9245 21.9464 21.035 21.9006 21.1503 21.9006C21.2656 21.9006 21.3761 21.9464 21.4577 22.0279C21.5392 22.1094 21.585 22.2199 21.585 22.3352V23.4762ZM28.2165 23.1511C28.3182 23.2034 28.3952 23.2937 28.4308 23.4023C28.4668 23.5115 28.458 23.6306 28.4063 23.7333C28.3547 23.8361 28.2645 23.9142 28.1554 23.9505L27.0687 24.3031L27.7392 25.2268C27.7746 25.2728 27.8005 25.3255 27.8152 25.3817C27.8299 25.4379 27.8332 25.4965 27.8249 25.554C27.8166 25.6115 27.7969 25.6667 27.7669 25.7165C27.7369 25.7662 27.6972 25.8094 27.6502 25.8436C27.6032 25.8777 27.5498 25.9021 27.4932 25.9152C27.4367 25.9284 27.378 25.9301 27.3208 25.9202C27.2635 25.9103 27.2088 25.8891 27.16 25.8577C27.1111 25.8263 27.069 25.7854 27.0361 25.7375L26.3657 24.8139L25.6952 25.7375C25.6624 25.7854 25.6203 25.8263 25.5714 25.8577C25.5225 25.8891 25.4678 25.9103 25.4106 25.9202C25.3533 25.9301 25.2947 25.9284 25.2381 25.9152C25.1815 25.9021 25.1281 25.8777 25.0811 25.8436C25.0341 25.8094 24.9945 25.7662 24.9644 25.7165C24.9344 25.6667 24.9147 25.6115 24.9064 25.554C24.8981 25.4965 24.9014 25.4379 24.9161 25.3817C24.9309 25.3255 24.9567 25.2728 24.9921 25.2268L25.6626 24.3031L24.576 23.9505C24.5217 23.9329 24.4714 23.9047 24.428 23.8676C24.3846 23.8305 24.3489 23.7852 24.323 23.7343C24.2971 23.6835 24.2814 23.628 24.277 23.5711C24.2725 23.5141 24.2793 23.4569 24.297 23.4026C24.3146 23.3483 24.3428 23.298 24.3799 23.2546C24.417 23.2112 24.4623 23.1755 24.5132 23.1496C24.564 23.1237 24.6195 23.1081 24.6764 23.1036C24.7334 23.0991 24.7906 23.1059 24.8449 23.1236L25.9316 23.4762V22.3352C25.9316 22.2199 25.9773 22.1094 26.0589 22.0279C26.1404 21.9464 26.2509 21.9006 26.3662 21.9006C26.4815 21.9006 26.592 21.9464 26.6736 22.0279C26.7551 22.1094 26.8009 22.2199 26.8009 22.3352V23.4762L27.8875 23.123C27.9966 23.0888 28.1148 23.0989 28.2165 23.1511Z" fill="white"/>
</svg>
