<svg width="56" height="56" viewBox="0 0 56 56" fill="none" xmlns="http://www.w3.org/2000/svg">
<rect width="56" height="56" rx="28" fill="url(#paint0_linear_68_159)"/>
<path d="M21.7001 39.2C21.4667 39.3909 21.2177 39.4015 20.953 39.2318C20.6874 39.0621 20.6076 38.8288 20.7137 38.5318L23.1001 30.7364L16.8955 26.2818C16.641 26.1121 16.5616 25.8788 16.6575 25.5818C16.7525 25.2849 16.9485 25.1364 17.2455 25.1364H24.9455L27.3955 16.9909C27.4379 16.8212 27.5177 16.7045 27.6348 16.6409C27.751 16.5773 27.8728 16.5455 28.0001 16.5455C28.1273 16.5455 28.2495 16.5773 28.3666 16.6409C28.4828 16.7045 28.5622 16.8212 28.6046 16.9909L31.0546 25.1364H38.7546C39.0516 25.1364 39.248 25.2849 39.3439 25.5818C39.4389 25.8788 39.3591 26.1121 39.1046 26.2818L32.9001 30.7364L35.2864 38.5318C35.3925 38.8288 35.3132 39.0621 35.0484 39.2318C34.7828 39.4015 34.5334 39.3909 34.3001 39.2L28.0001 34.4273L21.7001 39.2Z" fill="white"/>
<defs>
<linearGradient id="paint0_linear_68_159" x1="28.0943" y1="56" x2="17.4816" y2="2.08915" gradientUnits="userSpaceOnUse">
<stop stop-color="#2F766D"/>
<stop offset="1" stop-color="#1C4A21"/>
</linearGradient>
</defs>
</svg>
