<svg width="44" height="44" viewBox="0 0 44 44" fill="none" xmlns="http://www.w3.org/2000/svg">
<path d="M0 22C0 9.84974 9.84974 0 22 0C34.1503 0 44 9.84974 44 22C44 34.1503 34.1503 44 22 44C9.84974 44 0 34.1503 0 22Z" fill="url(#paint0_linear_79491_56755)"/>
<path d="M30.25 13.75H13.75C13.3522 13.75 12.9706 13.908 12.6893 14.1893C12.408 14.4706 12.25 14.8522 12.25 15.25V28.75C12.25 29.1478 12.408 29.5294 12.6893 29.8107C12.9706 30.092 13.3522 30.25 13.75 30.25H30.25C30.6478 30.25 31.0294 30.092 31.3107 29.8107C31.592 29.5294 31.75 29.1478 31.75 28.75V15.25C31.75 14.8522 31.592 14.4706 31.3107 14.1893C31.0294 13.908 30.6478 13.75 30.25 13.75ZM18.7 23.65C18.8591 23.7693 18.9643 23.947 18.9925 24.1439C19.0206 24.3408 18.9693 24.5409 18.85 24.7C18.7307 24.8591 18.553 24.9643 18.3561 24.9925C18.1592 25.0206 17.9591 24.9693 17.8 24.85L14.8 22.6C14.7069 22.5301 14.6313 22.4396 14.5792 22.3354C14.5271 22.2313 14.5 22.1164 14.5 22C14.5 21.8836 14.5271 21.7687 14.5792 21.6646C14.6313 21.5604 14.7069 21.4699 14.8 21.4L17.8 19.15C17.9591 19.0307 18.1592 18.9794 18.3561 19.0075C18.553 19.0357 18.7307 19.1409 18.85 19.3C18.9693 19.4591 19.0206 19.6592 18.9925 19.8561C18.9643 20.053 18.8591 20.2307 18.7 20.35L16.4997 22L18.7 23.65ZM24.2209 16.9562L21.2209 27.4562C21.1954 27.5526 21.1508 27.6429 21.09 27.7219C21.0291 27.8009 20.953 27.8669 20.8663 27.9161C20.7796 27.9654 20.684 27.9968 20.585 28.0086C20.486 28.0205 20.3856 28.0124 20.2897 27.985C20.1939 27.9576 20.1044 27.9113 20.0267 27.8489C19.9489 27.7865 19.8843 27.7092 19.8368 27.6216C19.7892 27.5339 19.7596 27.4377 19.7497 27.3385C19.7398 27.2393 19.7498 27.1391 19.7791 27.0438L22.7791 16.5438C22.8367 16.356 22.9657 16.1984 23.1384 16.1047C23.311 16.011 23.5135 15.9888 23.7023 16.0429C23.8911 16.0969 24.0512 16.2228 24.1482 16.3936C24.2452 16.5644 24.2713 16.7664 24.2209 16.9562ZM29.2 22.6L26.2 24.85C26.0409 24.9693 25.8408 25.0206 25.6439 24.9925C25.447 24.9643 25.2693 24.8591 25.15 24.7C25.0307 24.5409 24.9794 24.3408 25.0075 24.1439C25.0357 23.947 25.1409 23.7693 25.3 23.65L27.5003 22L25.3 20.35C25.2212 20.2909 25.1548 20.2169 25.1046 20.1321C25.0545 20.0474 25.0215 19.9536 25.0075 19.8561C24.9936 19.7586 24.999 19.6593 25.0235 19.5639C25.0479 19.4685 25.0909 19.3788 25.15 19.3C25.2091 19.2212 25.2831 19.1548 25.3679 19.1046C25.4526 19.0545 25.5464 19.0215 25.6439 19.0075C25.7414 18.9936 25.8407 18.999 25.9361 19.0235C26.0315 19.0479 26.1212 19.0909 26.2 19.15L29.2 21.4C29.2931 21.4699 29.3687 21.5604 29.4208 21.6646C29.4729 21.7687 29.5 21.8836 29.5 22C29.5 22.1164 29.4729 22.2313 29.4208 22.3354C29.3687 22.4396 29.2931 22.5301 29.2 22.6Z" fill="white"/>
<defs>
<linearGradient id="paint0_linear_79491_56755" x1="-1.96429" y1="9.26436e-07" x2="46.9405" y2="3.55565" gradientUnits="userSpaceOnUse">
<stop stop-color="#654B77"/>
<stop offset="1" stop-color="#3E1C53"/>
</linearGradient>
</defs>
</svg>
