<svg width="44" height="44" viewBox="0 0 44 44" fill="none" xmlns="http://www.w3.org/2000/svg">
<rect width="44" height="44" rx="22" fill="url(#paint0_linear_69336_809811)"/>
<path d="M20.3073 11C20.0829 11 19.8677 11.0891 19.709 11.2478C19.5503 11.4065 19.4612 11.6217 19.4612 11.8462C19.4612 16.1252 13.5381 19.4615 13.5381 25.3846C13.5381 29.8843 18.4149 32.7935 20.1321 32.9818C20.1897 32.994 20.2485 33.0001 20.3073 33C20.5317 33 20.747 32.9109 20.9056 32.7522C21.0643 32.5935 21.1535 32.3783 21.1535 32.1538C21.1534 32.0282 21.1253 31.9041 21.0713 31.7906C21.0173 31.6771 20.9386 31.577 20.8411 31.4977V31.4961C20.0711 30.8716 18.615 29.06 18.615 27.4058C18.615 24.6905 21.1535 23.6923 21.1535 23.6923C19.7057 27.7877 24.4496 28.2825 25.4041 32.3373H25.4057C25.4474 32.525 25.5518 32.693 25.7017 32.8134C25.8516 32.9339 26.0381 32.9997 26.2304 33C26.4086 32.9996 26.5821 32.9429 26.7262 32.838C26.7414 32.827 26.7563 32.8154 26.7708 32.8033C26.9085 32.7139 30.4612 30.3643 30.4612 25.3846C30.4612 23.3516 29.4444 19.8597 28.7127 18.313L28.711 18.308L28.7094 18.3047C28.647 18.1468 28.5387 18.0114 28.3984 17.9159C28.2582 17.8204 28.0924 17.7693 27.9227 17.7692C27.7251 17.7694 27.5338 17.8388 27.3819 17.9652C27.2301 18.0917 27.1273 18.2674 27.0914 18.4617V18.465C27.0894 18.4742 26.7007 20.2003 25.3842 21.1538C25.3842 17.1671 22.5059 13.0491 20.9882 11.3454C20.9654 11.3146 20.9406 11.2853 20.9138 11.2578C20.8351 11.1765 20.7409 11.1117 20.6367 11.0674C20.5325 11.0231 20.4205 11.0002 20.3073 11Z" fill="white"/>
<defs>
<linearGradient id="paint0_linear_69336_809811" x1="22" y1="0" x2="22" y2="44" gradientUnits="userSpaceOnUse">
<stop stop-color="#D22E00"/>
<stop offset="0.0001" stop-color="#B33600"/>
<stop offset="1" stop-color="#EF7720"/>
</linearGradient>
</defs>
</svg>
