<svg width="44" height="44" viewBox="0 0 44 44" fill="none" xmlns="http://www.w3.org/2000/svg">
<rect width="44" height="44" rx="22" fill="url(#paint0_linear_69358_814663)"/>
<path d="M31.5934 23.2245C31.3482 23.0354 31.067 22.8983 30.7671 22.8215C30.4671 22.7446 30.1547 22.7295 29.8488 22.7773C31.6094 20.9998 32.5 19.2326 32.5 17.5001C32.5 15.0185 30.5041 13.0001 28.0506 13.0001C27.3996 12.996 26.7556 13.1345 26.1638 13.4057C25.5721 13.677 25.0468 14.0745 24.625 14.5704C24.2032 14.0745 23.6779 13.677 23.0862 13.4057C22.4944 13.1345 21.8504 12.996 21.1994 13.0001C18.7459 13.0001 16.75 15.0185 16.75 17.5001C16.75 18.5313 17.0537 19.5335 17.6931 20.5938C17.1695 20.7265 16.6916 20.9987 16.3103 21.3813L14.1897 23.5001H11.5C11.1022 23.5001 10.7206 23.6581 10.4393 23.9394C10.158 24.2207 10 24.6023 10 25.0001V28.7501C10 29.1479 10.158 29.5294 10.4393 29.8107C10.7206 30.0921 11.1022 30.2501 11.5 30.2501H21.25C21.3113 30.2501 21.3724 30.2426 21.4319 30.2276L27.4319 28.7276C27.4701 28.7185 27.5075 28.7059 27.5434 28.6901L31.1875 27.1395L31.2288 27.1207C31.579 26.9457 31.8789 26.6844 32.1002 26.3615C32.3215 26.0385 32.457 25.6646 32.4939 25.2748C32.5307 24.885 32.4678 24.4923 32.3109 24.1336C32.154 23.7749 31.9084 23.462 31.5972 23.2245H31.5934ZM30.5716 25.7698L27.0091 27.2866L21.1562 28.7501H15.25V24.5604L17.3716 22.4398C17.5103 22.2999 17.6756 22.189 17.8576 22.1135C18.0396 22.038 18.2348 21.9995 18.4319 22.0001H23.125C23.4234 22.0001 23.7095 22.1186 23.9205 22.3296C24.1315 22.5406 24.25 22.8267 24.25 23.1251C24.25 23.4235 24.1315 23.7096 23.9205 23.9206C23.7095 24.1316 23.4234 24.2501 23.125 24.2501H20.5C20.3011 24.2501 20.1103 24.3291 19.9697 24.4698C19.829 24.6104 19.75 24.8012 19.75 25.0001C19.75 25.199 19.829 25.3898 19.9697 25.5304C20.1103 25.6711 20.3011 25.7501 20.5 25.7501H23.5C23.5565 25.7499 23.6127 25.7436 23.6678 25.7313L29.9491 24.2866L29.9781 24.2791C30.1699 24.2259 30.3745 24.2455 30.5527 24.3341C30.7309 24.4227 30.87 24.574 30.9433 24.759C31.0167 24.944 31.0189 25.1496 30.9498 25.3362C30.8806 25.5228 30.7449 25.6772 30.5687 25.7698H30.5716Z" fill="white"/>
<defs>
<linearGradient id="paint0_linear_69358_814663" x1="22.0741" y1="44" x2="13.7356" y2="1.64148" gradientUnits="userSpaceOnUse">
<stop stop-color="#DF6A0A"/>
<stop offset="1" stop-color="#A85008"/>
</linearGradient>
</defs>
</svg>
