<svg width="261" height="261" viewBox="0 0 261 261" fill="none" xmlns="http://www.w3.org/2000/svg">
<circle cx="130.75" cy="130.727" r="130" fill="#FDEBD2"/>
<path d="M211.199 121.232H73.5195V218.864H211.199V121.232Z" fill="#ABEDD8" stroke="#333333" stroke-width="0.3" stroke-linecap="round" stroke-linejoin="round"/>
<path d="M25.125 210.574V207.931H230.958V222.802H25.125V212.106" fill="#3D84A8"/>
<path d="M25.125 210.574V207.931H230.958V222.802H25.125V212.106" stroke="#333333" stroke-width="0.5" stroke-linecap="round" stroke-linejoin="round"/>
<path d="M222.694 136.332C233.712 125.317 233.712 107.454 222.694 96.439C211.674 85.424 193.811 85.424 182.796 96.439C171.779 107.454 171.779 125.317 182.796 136.332C193.811 147.354 211.674 147.354 222.694 136.332Z" fill="#78C7E0" stroke="#333333" stroke-width="0.3" stroke-linecap="round" stroke-linejoin="round"/>
<path d="M205.921 116.397H193.933V105.03H205.921C209.072 105.03 211.603 107.562 211.603 110.715C211.603 113.866 209.072 116.397 205.921 116.397Z" stroke="#333333" stroke-width="0.5" stroke-linecap="round" stroke-linejoin="round"/>
<path d="M205.921 127.815H193.933V116.448H205.921C209.072 116.448 211.603 118.979 211.603 122.13C211.603 125.23 209.072 127.815 205.921 127.815Z" stroke="#333333" stroke-width="0.5" stroke-linecap="round" stroke-linejoin="round"/>
<path d="M199.302 105.025V100.633" stroke="#333333" stroke-width="0.5" stroke-linecap="round" stroke-linejoin="round"/>
<path d="M204.52 105.025V100.633" stroke="#333333" stroke-width="0.5" stroke-linecap="round" stroke-linejoin="round"/>
<path d="M199.302 132.149V127.81" stroke="#333333" stroke-width="0.5" stroke-linecap="round" stroke-linejoin="round"/>
<path d="M204.52 132.149V127.81" stroke="#333333" stroke-width="0.5" stroke-linecap="round" stroke-linejoin="round"/>
<path d="M192.507 163.983L101.005 198.977L101.23 222.808H192.507V163.983Z" fill="white" stroke="#333333" stroke-width="0.5" stroke-linecap="round" stroke-linejoin="round"/>
<path d="M100.753 184.138V150.862C100.753 135.126 113.417 122.462 129.154 122.462H163.027C183.036 122.462 199.298 138.648 199.298 158.733V191.109C199.298 201.749 190.681 210.294 180.117 210.294H105.997H100.825H66.7266C66.7266 195.831 78.4194 184.138 92.9591 184.138H100.753Z" fill="white" stroke="#333333" stroke-width="0.5" stroke-linecap="round" stroke-linejoin="round"/>
<path d="M170.305 210.293H123.241C123.241 195.829 134.93 184.136 149.393 184.136H170.305V164.128" stroke="#333333" stroke-width="0.5" stroke-linecap="round" stroke-linejoin="round"/>
<path d="M112.508 171.777V163.983" stroke="#333333" stroke-width="0.5" stroke-linecap="round" stroke-linejoin="round"/>
<path d="M112.508 210.297V177.62" stroke="#333333" stroke-width="0.5" stroke-linecap="round" stroke-linejoin="round"/>
<path d="M155.011 112.267L155.389 124.18C155.389 128.754 156.734 133.773 161.231 134.299C157.561 140.892 150.442 145.538 142.27 145.538C130.208 145.538 120.463 135.72 120.463 123.73C120.463 120.133 121.664 115.86 123.31 112.941L155.011 112.267Z" fill="white" stroke="#333333" stroke-width="0.5" stroke-linecap="round" stroke-linejoin="round"/>
<path d="M153.367 125.232V113.62H122.866C126.46 106.649 133.804 101.927 142.2 101.927C154.19 101.927 164.008 111.744 164.008 123.734C164.008 127.557 163.032 131.155 161.309 134.303C156.736 133.628 153.367 129.805 153.367 125.232Z" fill="#48466D" stroke="#333333" stroke-width="0.5" stroke-linecap="round" stroke-linejoin="round"/>
<path d="M132.528 119.688V128.683" stroke="#333333" stroke-width="0.5" stroke-linecap="round" stroke-linejoin="round"/>
<path d="M132.528 128.686C132.528 130.484 134.026 131.834 135.676 131.834C137.475 131.834 138.824 130.408 138.824 128.686" stroke="#333333" stroke-width="0.5" stroke-linecap="round" stroke-linejoin="round"/>
<path d="M157.49 139.251L142.203 163.982" stroke="#333333" stroke-width="0.5" stroke-linecap="round" stroke-linejoin="round"/>
<path d="M126.828 139.251L142.191 163.982" stroke="#333333" stroke-width="0.5" stroke-linecap="round" stroke-linejoin="round"/>
<path d="M142.203 163.983V178.595" stroke="#333333" stroke-width="0.5" stroke-linecap="round" stroke-linejoin="round"/>
<path d="M56.3581 181.575C56.1871 181.726 56.003 181.862 55.808 181.98C53.682 183.468 51.1005 184.16 48.5154 183.937C45.9302 183.713 43.506 182.588 41.6668 180.758C39.8277 178.927 38.6907 176.508 38.4549 173.924C38.2192 171.34 38.8995 168.755 40.377 166.622C41.8545 164.489 44.0351 162.943 46.5371 162.256C49.0391 161.568 51.7033 161.782 54.0634 162.86C56.4236 163.939 58.3294 165.812 59.4475 168.154C60.5656 170.496 60.8247 173.156 60.1795 175.669" fill="#3D84A8"/>
<path d="M56.3581 181.575C56.1871 181.726 56.003 181.862 55.808 181.98C53.682 183.468 51.1005 184.16 48.5154 183.937C45.9302 183.713 43.506 182.588 41.6668 180.758C39.8277 178.927 38.6907 176.508 38.4549 173.924C38.2192 171.34 38.8995 168.755 40.377 166.622C41.8545 164.489 44.0351 162.943 46.5371 162.256C49.0391 161.568 51.7033 161.782 54.0634 162.86C56.4236 163.939 58.3294 165.812 59.4475 168.154C60.5656 170.496 60.8247 173.156 60.1795 175.669" stroke="#333333" stroke-width="0.3" stroke-linecap="round" stroke-linejoin="round"/>
<path d="M69.6581 180.463C71.8819 180.469 74.0575 179.815 75.9094 178.584C77.7613 177.352 79.2063 175.599 80.0613 173.546C80.9164 171.493 81.1431 169.233 80.7128 167.051C80.2826 164.869 79.2146 162.864 77.6441 161.29C76.0737 159.715 74.0713 158.642 71.8906 158.206C69.7099 157.77 67.4488 157.991 65.3937 158.84C63.3385 159.69 61.5817 161.13 60.3456 162.979C59.1095 164.828 58.4496 167.002 58.4496 169.225C58.4496 172.201 59.6296 175.055 61.7307 177.161C63.8319 179.268 66.6827 180.455 69.6581 180.463Z" fill="#78C7E0" stroke="#333333" stroke-width="0.3"/>
<path d="M70.8437 169.078L66.2117 170.323L65.0537 165.923L69.6857 164.707C69.9801 164.61 70.2913 164.575 70.5999 164.603C70.9085 164.632 71.2079 164.724 71.4795 164.873C71.7511 165.023 71.989 165.226 72.1784 165.472C72.3679 165.717 72.5048 165.999 72.5807 166.299C72.6533 166.596 72.6658 166.904 72.6173 167.206C72.5689 167.507 72.4606 167.796 72.2987 168.055C72.1368 168.314 71.9246 168.538 71.6747 168.714C71.4248 168.89 71.1422 169.014 70.8437 169.078V169.078Z" stroke="#333333" stroke-width="0.3" stroke-linecap="round" stroke-linejoin="round"/>
<path d="M72.0835 173.51L67.4515 174.754L66.2646 170.354L70.8965 169.138C71.1908 169.037 71.5031 168.998 71.8131 169.025C72.1232 169.051 72.4244 169.143 72.6971 169.293C72.9698 169.443 73.208 169.648 73.3965 169.896C73.585 170.143 73.7196 170.428 73.7915 170.73C73.8687 171.025 73.8854 171.333 73.8406 171.634C73.7958 171.936 73.6905 172.225 73.5309 172.485C73.3713 172.744 73.1608 172.969 72.912 173.145C72.6633 173.321 72.3814 173.445 72.0835 173.51V173.51Z" stroke="#333333" stroke-width="0.3" stroke-linecap="round" stroke-linejoin="round"/>
<path d="M67.1927 165.397L66.7295 163.718" stroke="#333333" stroke-width="0.3" stroke-linecap="round" stroke-linejoin="round"/>
<path d="M69.1976 164.879L68.7344 163.171" stroke="#333333" stroke-width="0.3" stroke-linecap="round" stroke-linejoin="round"/>
<path d="M70.0391 160.132C71.0339 160.173 72.0137 160.389 72.934 160.769" stroke="#333333" stroke-width="0.3" stroke-linecap="round" stroke-linejoin="round"/>
<path d="M61.208 165.825C61.7911 164.288 62.7802 162.938 64.0699 161.918C65.3597 160.898 66.902 160.248 68.5323 160.035" stroke="#333333" stroke-width="0.3" stroke-linecap="round" stroke-linejoin="round"/>
<path d="M50.5793 173.501L46.0342 171.995L47.4528 167.682L51.9978 169.187C52.2877 169.275 52.5566 169.421 52.7881 169.616C53.0196 169.812 53.2088 170.052 53.3442 170.323C53.4797 170.594 53.5585 170.89 53.5759 171.192C53.5933 171.495 53.5488 171.797 53.4453 172.082C53.3506 172.364 53.2014 172.624 53.006 172.847C52.8106 173.071 52.5729 173.254 52.3067 173.386C52.0405 173.518 51.7508 173.596 51.4544 173.615C51.158 173.635 50.8606 173.596 50.5793 173.501V173.501Z" stroke="#333333" stroke-width="0.3" stroke-linecap="round" stroke-linejoin="round"/>
<path d="M49.0471 177.813L44.502 176.308L45.9206 172.023L50.4656 173.5C50.7509 173.595 51.0147 173.745 51.2418 173.942C51.469 174.139 51.6551 174.378 51.7896 174.647C51.924 174.916 52.0041 175.209 52.0253 175.509C52.0465 175.809 52.0084 176.11 51.9131 176.395C51.8184 176.676 51.6691 176.937 51.4737 177.16C51.2783 177.384 51.0407 177.567 50.7745 177.699C50.5082 177.831 50.2186 177.909 49.9222 177.928C49.6258 177.948 49.3284 177.909 49.0471 177.813V177.813Z" stroke="#333333" stroke-width="0.3" stroke-linecap="round" stroke-linejoin="round"/>
<path d="M49.3936 168.335L49.9146 166.685" stroke="#333333" stroke-width="0.3" stroke-linecap="round" stroke-linejoin="round"/>
<path d="M51.3545 169.023L51.9045 167.344" stroke="#333333" stroke-width="0.3" stroke-linecap="round" stroke-linejoin="round"/>
<path d="M54.6553 165.495C55.491 166.109 56.2239 166.852 56.8265 167.695" stroke="#333333" stroke-width="0.3" stroke-linecap="round" stroke-linejoin="round"/>
<path d="M44.1221 165.452C45.455 164.516 47.0138 163.953 48.6373 163.82C50.2608 163.688 51.8901 163.992 53.3571 164.7" stroke="#333333" stroke-width="0.3" stroke-linecap="round" stroke-linejoin="round"/>
<path d="M35.8096 200.379V173.543H80.5949C81.2815 173.467 81.9764 173.527 82.6396 173.72C83.3028 173.913 83.9212 174.236 84.4593 174.669C84.9974 175.102 85.4446 175.637 85.7751 176.244C86.1055 176.851 86.3127 177.517 86.3848 178.204V211.959C86.3127 212.646 86.1055 213.312 85.7751 213.919C85.4446 214.525 84.9974 215.061 84.4593 215.494C83.9212 215.927 83.3028 216.25 82.6396 216.443C81.9764 216.636 81.2815 216.696 80.5949 216.62H35.8096V210.83" fill="white"/>
<path d="M35.8096 200.379V173.543H80.5949C81.2815 173.467 81.9764 173.527 82.6396 173.72C83.3028 173.913 83.9212 174.236 84.4593 174.669C84.9974 175.102 85.4446 175.637 85.7751 176.244C86.1055 176.851 86.3127 177.517 86.3848 178.204V211.959C86.3127 212.646 86.1055 213.312 85.7751 213.919C85.4446 214.525 84.9974 215.061 84.4593 215.494C83.9212 215.927 83.3028 216.25 82.6396 216.443C81.9764 216.636 81.2815 216.696 80.5949 216.62H35.8096V210.83" stroke="#333333" stroke-width="0.3" stroke-linecap="round" stroke-linejoin="round"/>
<path d="M67.9487 185.556H88.9373V200.87H67.9487L65.0537 197.975V188.422L67.9487 185.556Z" fill="#46CDCF" stroke="#333333" stroke-width="0.3" stroke-linecap="round" stroke-linejoin="round"/>
<path d="M71.2775 195.788C72.8443 195.788 74.1145 194.518 74.1145 192.951C74.1145 191.384 72.8443 190.114 71.2775 190.114C69.7106 190.114 68.4404 191.384 68.4404 192.951C68.4404 194.518 69.7106 195.788 71.2775 195.788Z" fill="#48466D" stroke="#333333" stroke-width="0.3" stroke-linecap="round" stroke-linejoin="round"/>
</svg>
