<svg width="25" height="24" viewBox="0 0 25 24" fill="none" xmlns="http://www.w3.org/2000/svg">
<path d="M22.323 19.6875C21.0376 17.4316 19.0305 15.6738 16.6248 14.6972C17.8212 13.7999 18.7049 12.549 19.1507 11.1216C19.5966 9.69424 19.5821 8.16274 19.1092 6.74407C18.6363 5.3254 17.729 4.09148 16.5159 3.21709C15.3028 2.34271 13.8452 1.87219 12.3498 1.87219C10.8544 1.87219 9.39692 2.34271 8.18377 3.21709C6.97063 4.09148 6.06336 5.3254 5.59047 6.74407C5.11757 8.16274 5.10304 9.69424 5.54893 11.1216C5.99481 12.549 6.8785 13.7999 8.07483 14.6972C5.66914 15.6738 3.66206 17.4316 2.37671 19.6875C2.29706 19.8156 2.24398 19.9583 2.22062 20.1073C2.19725 20.2563 2.20408 20.4085 2.2407 20.5548C2.27732 20.7011 2.34298 20.8385 2.43377 20.9589C2.52457 21.0794 2.63865 21.1803 2.76923 21.2557C2.89982 21.3312 3.04424 21.3796 3.19391 21.3981C3.34358 21.4166 3.49544 21.4049 3.64048 21.3635C3.78551 21.3222 3.92075 21.2521 4.03815 21.1574C4.15556 21.0628 4.25273 20.9455 4.3239 20.8125C6.02265 17.8763 9.02265 16.125 12.3498 16.125C15.677 16.125 18.677 17.8772 20.3758 20.8125C20.53 21.0605 20.7746 21.2388 21.0579 21.3097C21.3412 21.3806 21.641 21.3386 21.8939 21.1925C22.1468 21.0464 22.3329 20.8077 22.413 20.5268C22.4931 20.246 22.4608 19.945 22.323 19.6875ZM7.47483 9C7.47483 8.03582 7.76075 7.09329 8.29642 6.2916C8.83209 5.48991 9.59346 4.86507 10.4843 4.49609C11.375 4.12712 12.3552 4.03057 13.3009 4.21868C14.2466 4.40678 15.1152 4.87108 15.797 5.55286C16.4788 6.23464 16.9431 7.10328 17.1312 8.04894C17.3193 8.9946 17.2227 9.9748 16.8537 10.8656C16.4848 11.7564 15.8599 12.5177 15.0582 13.0534C14.2565 13.5891 13.314 13.875 12.3498 13.875C11.0574 13.8735 9.81825 13.3594 8.90433 12.4455C7.99042 11.5316 7.47632 10.2925 7.47483 9Z" fill="#031F2B"/>
</svg>
