<svg width="19" height="20" viewBox="0 0 19 20" fill="none" xmlns="http://www.w3.org/2000/svg">
<path d="M16.7012 16C15.6134 14.1193 13.9369 12.7707 11.9805 12.1314C12.9483 11.5553 13.7001 10.6775 14.1207 9.63268C14.5412 8.58791 14.6072 7.43397 14.3084 6.34808C14.0097 5.2622 13.3627 4.3044 12.4669 3.62178C11.5711 2.93916 10.476 2.56946 9.3498 2.56946C8.22357 2.56946 7.12847 2.93916 6.23268 3.62178C5.33689 4.3044 4.68994 5.2622 4.39119 6.34808C4.09244 7.43397 4.15839 8.58791 4.57894 9.63268C4.99948 10.6775 5.75135 11.5553 6.71909 12.1314C4.76266 12.77 3.08623 14.1185 1.99837 16C1.95848 16.065 1.93202 16.1374 1.92055 16.2128C1.90908 16.2883 1.91284 16.3653 1.93161 16.4392C1.95037 16.5132 1.98376 16.5826 2.0298 16.6435C2.07584 16.7043 2.1336 16.7554 2.19968 16.7935C2.26575 16.8317 2.33881 16.8562 2.41452 16.8657C2.49024 16.8752 2.56709 16.8694 2.64053 16.8487C2.71398 16.828 2.78253 16.7928 2.84215 16.7452C2.90177 16.6975 2.95125 16.6385 2.98766 16.5714C4.33337 14.2457 6.71195 12.8571 9.3498 12.8571C11.9877 12.8571 14.3662 14.2457 15.7119 16.5714C15.7484 16.6385 15.7978 16.6975 15.8575 16.7452C15.9171 16.7928 15.9856 16.828 16.0591 16.8487C16.1325 16.8694 16.2094 16.8752 16.2851 16.8657C16.3608 16.8562 16.4339 16.8317 16.4999 16.7935C16.566 16.7554 16.6238 16.7043 16.6698 16.6435C16.7159 16.5826 16.7492 16.5132 16.768 16.4392C16.7868 16.3653 16.7905 16.2883 16.7791 16.2128C16.7676 16.1374 16.7411 16.065 16.7012 16ZM5.3498 7.71426C5.3498 6.92313 5.5844 6.14977 6.02392 5.49198C6.46345 4.83418 7.08816 4.32149 7.81907 4.01874C8.54997 3.71599 9.35424 3.63678 10.1302 3.79112C10.9061 3.94546 11.6188 4.32642 12.1782 4.88583C12.7376 5.44524 13.1186 6.15797 13.2729 6.9339C13.4273 7.70982 13.3481 8.51409 13.0453 9.24499C12.7426 9.9759 12.2299 10.6006 11.5721 11.0401C10.9143 11.4797 10.1409 11.7143 9.3498 11.7143C8.28929 11.7131 7.27253 11.2913 6.52263 10.5414C5.77273 9.79153 5.35094 8.77478 5.3498 7.71426Z" fill="white"/>
</svg>
