<svg width="218" height="274" viewBox="0 0 218 274" fill="none" xmlns="http://www.w3.org/2000/svg">
<rect x="29.1612" y="98.0616" width="158.777" height="165.277" rx="7.2384" fill="#48466D" stroke="#333333" stroke-width="1.1232"/>
<rect x="35.6612" y="105.866" width="147.077" height="152.277" rx="4.6384" fill="#78C7E0" stroke="#333333" stroke-width="1.1232"/>
<rect x="171.6" y="175.07" width="17.0122" height="31.2" transform="rotate(90 171.6 175.07)" fill="#46CDCF" stroke="#333333" stroke-width="0.78" stroke-linecap="round" stroke-linejoin="round"/>
<rect x="171.6" y="202.32" width="17.0122" height="29.9" transform="rotate(90 171.6 202.32)" fill="#46CDCF" stroke="#333333" stroke-width="0.78" stroke-linecap="round" stroke-linejoin="round"/>
<rect x="171.6" y="229.562" width="17.0122" height="29.9" transform="rotate(90 171.6 229.562)" fill="#46CDCF" stroke="#333333" stroke-width="0.78" stroke-linecap="round" stroke-linejoin="round"/>
<rect x="75.3994" y="175.07" width="17.0122" height="29.9" transform="rotate(90 75.3994 175.07)" fill="#46CDCF" stroke="#333333" stroke-width="0.78" stroke-linecap="round" stroke-linejoin="round"/>
<rect x="75.3994" y="202.32" width="17.0122" height="29.9" transform="rotate(90 75.3994 202.32)" fill="#46CDCF" stroke="#333333" stroke-width="0.78" stroke-linecap="round" stroke-linejoin="round"/>
<rect x="75.3994" y="229.562" width="17.0122" height="29.9" transform="rotate(90 75.3994 229.562)" fill="#46CDCF" stroke="#333333" stroke-width="0.78" stroke-linecap="round" stroke-linejoin="round"/>
<rect x="123.499" y="175.07" width="17.0122" height="29.9" transform="rotate(90 123.499 175.07)" fill="#46CDCF" stroke="#333333" stroke-width="0.78" stroke-linecap="round" stroke-linejoin="round"/>
<rect x="123.499" y="202.32" width="17.0122" height="29.9" transform="rotate(90 123.499 202.32)" fill="#46CDCF" stroke="#333333" stroke-width="0.78" stroke-linecap="round" stroke-linejoin="round"/>
<rect x="123.499" y="229.562" width="17.0122" height="29.9" transform="rotate(90 123.499 229.562)" fill="#46CDCF" stroke="#333333" stroke-width="0.78" stroke-linecap="round" stroke-linejoin="round"/>
<rect x="44.1992" y="115.266" width="128.7" height="48.1" fill="#3D84A8" stroke="#333333" stroke-width="0.78" stroke-linecap="round" stroke-linejoin="round"/>
<rect x="27.2998" y="40.3047" width="161.2" height="32.5" rx="16.25" fill="#CF4018"/>
<path d="M46.5146 59.7533L49.1458 61.7569C49.2752 61.8574 49.4046 61.861 49.534 61.7676C49.6634 61.6743 49.6994 61.5486 49.6419 61.3906L48.5851 58.1375L51.1947 56.2848C51.3241 56.1986 51.3672 56.0801 51.3241 55.9293C51.281 55.7785 51.1803 55.7031 51.0222 55.7031H47.8302L46.8165 52.3423C46.7734 52.1843 46.6728 52.1054 46.5146 52.1054C46.3564 52.1054 46.2558 52.1843 46.2127 52.3423L45.1774 55.7031H41.9855C41.8273 55.7031 41.7267 55.7785 41.6835 55.9293C41.6404 56.0801 41.6835 56.1986 41.8129 56.2848L44.4226 58.1375L43.3874 61.4122C43.3298 61.5558 43.3658 61.6743 43.4952 61.7676C43.6246 61.861 43.754 61.8574 43.8834 61.7569L46.5146 59.7533ZM46.5146 65.8286C45.2925 65.8286 44.1566 65.6096 43.107 65.1715C42.0574 64.7335 41.1444 64.1267 40.3679 63.3511C39.5915 62.5755 38.984 61.6635 38.5455 60.6151C38.107 59.5666 37.8877 58.432 37.8877 57.2112C37.8877 56.0047 38.107 54.8773 38.5455 53.8288C38.984 52.7804 39.5915 51.8684 40.3679 51.0928C41.1444 50.3172 42.0574 49.7068 43.107 49.2616C44.1566 48.8164 45.2925 48.5938 46.5146 48.5938C47.7224 48.5938 48.8511 48.8164 49.9007 49.2616C50.9503 49.7068 51.8633 50.3172 52.6397 51.0928C53.4161 51.8684 54.0272 52.7804 54.4729 53.8288C54.9187 54.8773 55.1415 56.0047 55.1415 57.2112C55.1415 58.432 54.9187 59.5666 54.4729 60.6151C54.0272 61.6635 53.4161 62.5755 52.6397 63.3511C51.8633 64.1267 50.9503 64.7335 49.9007 65.1715C48.8511 65.6096 47.7224 65.8286 46.5146 65.8286Z" fill="white"/>
<path d="M64.7774 61.4902H62.7939V50.9327H64.7774V61.4902Z" fill="white"/>
<path d="M69.0389 54.9191C69.1908 54.7682 69.3499 54.6295 69.5164 54.503C69.6878 54.3715 69.8666 54.262 70.0527 54.1744C70.2437 54.0819 70.4469 54.0113 70.6624 53.9627C70.8779 53.9091 71.1129 53.8823 71.3676 53.8823C71.779 53.8823 72.1438 53.9529 72.4622 54.0941C72.7805 54.2304 73.0449 54.4251 73.2555 54.6782C73.471 54.9264 73.6326 55.2258 73.7404 55.5762C73.853 55.9218 73.9093 56.3039 73.9093 56.7225V61.4902H72.0949V56.7225C72.0949 56.265 71.9896 55.9121 71.779 55.6638C71.5684 55.4107 71.2476 55.2842 70.8167 55.2842C70.5032 55.2842 70.2094 55.3548 69.9351 55.4959C69.6609 55.6371 69.4013 55.8293 69.1565 56.0727V61.4902H67.342V53.9992H68.4513C68.6863 53.9992 68.8406 54.1087 68.9141 54.3277L69.0389 54.9191Z" fill="white"/>
<path d="M78.0371 54.8023C78.3309 54.5297 78.6541 54.3083 79.0067 54.1379C79.3593 53.9675 79.7732 53.8823 80.2482 53.8823C80.6596 53.8823 81.0244 53.9529 81.3427 54.0941C81.6611 54.2304 81.9255 54.4251 82.1361 54.6782C82.3516 54.9264 82.5132 55.2258 82.6209 55.5762C82.7336 55.9218 82.7899 56.3039 82.7899 56.7225V61.4902H80.9754V56.7225C80.9754 56.265 80.8702 55.9121 80.6596 55.6638C80.449 55.4107 80.1282 55.2842 79.6973 55.2842C79.3838 55.2842 79.09 55.3548 78.8157 55.4959C78.5415 55.6371 78.2819 55.8293 78.0371 56.0727V61.4902H76.2226V50.6406H78.0371V54.8023Z" fill="white"/>
<path d="M89.9589 56.8831C89.9589 56.6495 89.9246 56.4305 89.856 56.226C89.7924 56.0167 89.6944 55.8342 89.5622 55.6784C89.43 55.5227 89.261 55.401 89.0553 55.3134C88.8545 55.2209 88.6195 55.1747 88.3501 55.1747C87.8261 55.1747 87.4123 55.3231 87.1086 55.62C86.8099 55.9169 86.6189 56.338 86.5357 56.8831H89.9589ZM86.4989 57.971C86.5283 58.3555 86.5969 58.689 86.7046 58.9713C86.8124 59.2487 86.9544 59.4799 87.1307 59.6649C87.307 59.845 87.5151 59.9813 87.7551 60.0738C88 60.1614 88.2693 60.2052 88.5631 60.2052C88.857 60.2052 89.1092 60.1711 89.3198 60.103C89.5353 60.0348 89.7214 59.9594 89.8781 59.8766C90.0397 59.7939 90.1793 59.7184 90.2968 59.6503C90.4192 59.5821 90.5368 59.5481 90.6494 59.5481C90.8012 59.5481 90.9139 59.604 90.9873 59.716L91.5089 60.3731C91.3081 60.6067 91.0828 60.8039 90.8331 60.9645C90.5833 61.1203 90.3213 61.2468 90.047 61.3442C89.7777 61.4366 89.501 61.5024 89.2169 61.5413C88.9378 61.5802 88.666 61.5997 88.4015 61.5997C87.8775 61.5997 87.3902 61.5145 86.9397 61.3442C86.4891 61.1689 86.0973 60.9134 85.7643 60.5775C85.4313 60.2368 85.1693 59.8182 84.9783 59.3217C84.7873 58.8204 84.6918 58.2412 84.6918 57.584C84.6918 57.073 84.7751 56.5935 84.9416 56.1457C85.1081 55.693 85.3456 55.3012 85.6541 54.9702C85.9676 54.6344 86.3471 54.3691 86.7928 54.1744C87.2433 53.9797 87.7502 53.8823 88.3134 53.8823C88.7884 53.8823 89.2267 53.9578 89.6283 54.1087C90.0299 54.2596 90.3752 54.481 90.6641 54.7731C90.953 55.0603 91.1783 55.4156 91.3399 55.8391C91.5064 56.2577 91.5897 56.7371 91.5897 57.2774C91.5897 57.55 91.5603 57.7349 91.5015 57.8323C91.4428 57.9248 91.3301 57.971 91.1636 57.971H86.4989Z" fill="white"/>
<path d="M95.2506 55.2988C95.4857 54.851 95.7648 54.5005 96.0881 54.2474C96.4113 53.9894 96.7933 53.8604 97.234 53.8604C97.5817 53.8604 97.8609 53.9359 98.0715 54.0868L97.9539 55.4375C97.9294 55.5251 97.8927 55.5884 97.8438 55.6273C97.7997 55.6614 97.7385 55.6784 97.6601 55.6784C97.5866 55.6784 97.4764 55.6663 97.3295 55.6419C97.1875 55.6176 97.0479 55.6054 96.9108 55.6054C96.71 55.6054 96.5313 55.6346 96.3745 55.693C96.2178 55.7515 96.0758 55.8366 95.9485 55.9486C95.8261 56.0557 95.7159 56.1871 95.6179 56.3428C95.5249 56.4986 95.4367 56.6763 95.3535 56.8758V61.4902H93.539V53.9992H94.6042C94.7903 53.9992 94.92 54.0332 94.9935 54.1014C95.067 54.1647 95.1159 54.2815 95.1404 54.4518L95.2506 55.2988Z" fill="white"/>
<path d="M101.488 53.9992V61.4902H99.6662V53.9992H101.488ZM101.738 51.8161C101.738 51.9719 101.706 52.1179 101.642 52.2542C101.579 52.3905 101.493 52.5097 101.385 52.6119C101.282 52.7142 101.16 52.7969 101.018 52.8602C100.876 52.9186 100.724 52.9478 100.562 52.9478C100.406 52.9478 100.256 52.9186 100.114 52.8602C99.9772 52.7969 99.8572 52.7142 99.7544 52.6119C99.6515 52.5097 99.5683 52.3905 99.5046 52.2542C99.4459 52.1179 99.4165 51.9719 99.4165 51.8161C99.4165 51.6555 99.4459 51.5046 99.5046 51.3634C99.5683 51.2223 99.6515 51.1006 99.7544 50.9984C99.8572 50.8962 99.9772 50.8159 100.114 50.7574C100.256 50.6942 100.406 50.6625 100.562 50.6625C100.724 50.6625 100.876 50.6942 101.018 50.7574C101.16 50.8159 101.282 50.8962 101.385 50.9984C101.493 51.1006 101.579 51.2223 101.642 51.3634C101.706 51.5046 101.738 51.6555 101.738 51.8161Z" fill="white"/>
<path d="M106.438 61.607C105.782 61.607 105.277 61.4245 104.925 61.0594C104.577 60.6895 104.403 60.1808 104.403 59.5335V55.3499H103.632C103.534 55.3499 103.45 55.3182 103.382 55.255C103.313 55.1917 103.279 55.0968 103.279 54.9702V54.2547L104.491 54.0576L104.873 52.0132C104.898 51.9159 104.944 51.8405 105.013 51.7869C105.081 51.7334 105.169 51.7066 105.277 51.7066H106.217V54.0649H108.23V55.3499H106.217V59.4093C106.217 59.643 106.274 59.8255 106.386 59.9569C106.504 60.0884 106.663 60.1541 106.864 60.1541C106.977 60.1541 107.07 60.1419 107.143 60.1176C107.221 60.0884 107.288 60.0592 107.341 60.0299C107.4 60.0007 107.452 59.974 107.496 59.9496C107.54 59.9204 107.584 59.9058 107.628 59.9058C107.682 59.9058 107.726 59.9204 107.76 59.9496C107.794 59.974 107.831 60.0129 107.87 60.0665L108.414 60.9426C108.149 61.1616 107.846 61.3271 107.503 61.4391C107.16 61.551 106.805 61.607 106.438 61.607Z" fill="white"/>
<path d="M113.961 58.2923C113.437 58.3166 112.996 58.3628 112.639 58.431C112.281 58.4943 111.995 58.577 111.779 58.6792C111.564 58.7814 111.41 58.9007 111.317 59.037C111.224 59.1733 111.177 59.3217 111.177 59.4824C111.177 59.7987 111.27 60.0251 111.456 60.1614C111.647 60.2977 111.894 60.3658 112.198 60.3658C112.57 60.3658 112.891 60.3001 113.16 60.1687C113.435 60.0324 113.702 59.8279 113.961 59.5554V58.2923ZM109.803 55.0432C110.67 54.2547 111.713 53.8604 112.933 53.8604C113.373 53.8604 113.768 53.9335 114.115 54.0795C114.463 54.2206 114.757 54.4202 114.997 54.6782C115.237 54.9313 115.418 55.2355 115.541 55.5908C115.668 55.9462 115.732 56.3355 115.732 56.759V61.4902H114.909C114.737 61.4902 114.605 61.4658 114.512 61.4172C114.419 61.3636 114.346 61.259 114.292 61.1032L114.13 60.5629C113.939 60.7333 113.753 60.8842 113.572 61.0156C113.391 61.1422 113.202 61.2492 113.006 61.3369C112.81 61.4245 112.6 61.4902 112.374 61.534C112.154 61.5827 111.909 61.607 111.64 61.607C111.321 61.607 111.028 61.5656 110.758 61.4829C110.489 61.3953 110.256 61.2663 110.06 61.0959C109.865 60.9256 109.713 60.7138 109.605 60.4607C109.497 60.2076 109.443 59.9131 109.443 59.5773C109.443 59.3874 109.475 59.2 109.539 59.0151C109.603 58.8253 109.705 58.6452 109.847 58.4748C109.994 58.3044 110.183 58.1438 110.413 57.9929C110.643 57.842 110.925 57.7106 111.258 57.5987C111.596 57.4867 111.988 57.3967 112.433 57.3285C112.879 57.2555 113.388 57.2117 113.961 57.1971V56.759C113.961 56.2577 113.853 55.8877 113.638 55.6492C113.422 55.4059 113.111 55.2842 112.705 55.2842C112.411 55.2842 112.166 55.3183 111.97 55.3864C111.779 55.4545 111.61 55.5324 111.464 55.62C111.317 55.7028 111.182 55.7782 111.059 55.8464C110.942 55.9145 110.81 55.9486 110.663 55.9486C110.535 55.9486 110.428 55.9169 110.34 55.8537C110.251 55.7855 110.18 55.7076 110.127 55.62L109.803 55.0432Z" fill="white"/>
<path d="M119.725 54.9191C119.877 54.7682 120.036 54.6295 120.202 54.503C120.374 54.3715 120.553 54.262 120.739 54.1744C120.93 54.0819 121.133 54.0113 121.348 53.9627C121.564 53.9091 121.799 53.8823 122.054 53.8823C122.465 53.8823 122.83 53.9529 123.148 54.0941C123.467 54.2304 123.731 54.4251 123.942 54.6782C124.157 54.9264 124.319 55.2258 124.426 55.5762C124.539 55.9218 124.595 56.3039 124.595 56.7225V61.4902H122.781V56.7225C122.781 56.265 122.676 55.9121 122.465 55.6638C122.254 55.4107 121.934 55.2842 121.503 55.2842C121.189 55.2842 120.895 55.3548 120.621 55.4959C120.347 55.6371 120.087 55.8293 119.843 56.0727V61.4902H118.028V53.9992H119.137C119.372 53.9992 119.527 54.1087 119.6 54.3277L119.725 54.9191Z" fill="white"/>
<path d="M132.308 55.5835C132.254 55.6517 132.2 55.7052 132.146 55.7442C132.097 55.7831 132.024 55.8026 131.926 55.8026C131.833 55.8026 131.742 55.7758 131.654 55.7222C131.566 55.6638 131.461 55.6006 131.338 55.5324C131.216 55.4594 131.069 55.3961 130.898 55.3426C130.731 55.2842 130.523 55.255 130.273 55.255C129.955 55.255 129.676 55.3134 129.436 55.4302C129.196 55.5422 128.995 55.7052 128.833 55.9194C128.677 56.1335 128.559 56.394 128.481 56.7006C128.402 57.0024 128.363 57.3455 128.363 57.7301C128.363 58.1292 128.405 58.4845 128.488 58.796C128.576 59.1076 128.701 59.3704 128.863 59.5846C129.024 59.7939 129.22 59.9545 129.45 60.0665C129.681 60.1735 129.94 60.2271 130.229 60.2271C130.518 60.2271 130.751 60.193 130.927 60.1249C131.108 60.0518 131.26 59.974 131.382 59.8912C131.505 59.8036 131.61 59.7257 131.698 59.6576C131.791 59.5846 131.894 59.5481 132.007 59.5481C132.154 59.5481 132.264 59.604 132.337 59.716L132.859 60.3731C132.658 60.6067 132.44 60.8039 132.205 60.9645C131.97 61.1203 131.725 61.2468 131.47 61.3442C131.221 61.4366 130.961 61.5024 130.692 61.5413C130.427 61.5802 130.163 61.5997 129.898 61.5997C129.433 61.5997 128.995 61.5145 128.584 61.3442C128.172 61.1689 127.812 60.9158 127.504 60.5848C127.195 60.2538 126.95 59.8499 126.769 59.3728C126.593 58.891 126.505 58.3434 126.505 57.7301C126.505 57.1801 126.583 56.6714 126.74 56.2041C126.901 55.732 127.136 55.3256 127.445 54.9848C127.753 54.6392 128.135 54.3691 128.591 54.1744C129.046 53.9797 129.57 53.8823 130.163 53.8823C130.726 53.8823 131.218 53.9724 131.639 54.1525C132.066 54.3326 132.448 54.5906 132.785 54.9264L132.308 55.5835Z" fill="white"/>
<path d="M139.311 56.8831C139.311 56.6495 139.276 56.4305 139.208 56.226C139.144 56.0167 139.046 55.8342 138.914 55.6784C138.782 55.5227 138.613 55.401 138.407 55.3134C138.206 55.2209 137.971 55.1747 137.702 55.1747C137.178 55.1747 136.764 55.3231 136.46 55.62C136.162 55.9169 135.971 56.338 135.887 56.8831H139.311ZM135.851 57.971C135.88 58.3555 135.949 58.689 136.056 58.9713C136.164 59.2487 136.306 59.4799 136.482 59.6649C136.659 59.845 136.867 59.9813 137.107 60.0738C137.352 60.1614 137.621 60.2052 137.915 60.2052C138.209 60.2052 138.461 60.1711 138.671 60.103C138.887 60.0348 139.073 59.9594 139.23 59.8766C139.391 59.7939 139.531 59.7184 139.649 59.6503C139.771 59.5821 139.888 59.5481 140.001 59.5481C140.153 59.5481 140.266 59.604 140.339 59.716L140.861 60.3731C140.66 60.6067 140.435 60.8039 140.185 60.9645C139.935 61.1203 139.673 61.2468 139.399 61.3442C139.129 61.4366 138.853 61.5024 138.569 61.5413C138.29 61.5802 138.018 61.5997 137.753 61.5997C137.229 61.5997 136.742 61.5145 136.291 61.3442C135.841 61.1689 135.449 60.9134 135.116 60.5775C134.783 60.2368 134.521 59.8182 134.33 59.3217C134.139 58.8204 134.044 58.2412 134.044 57.584C134.044 57.073 134.127 56.5935 134.293 56.1457C134.46 55.693 134.697 55.3012 135.006 54.9702C135.319 54.6344 135.699 54.3691 136.144 54.1744C136.595 53.9797 137.102 53.8823 137.665 53.8823C138.14 53.8823 138.578 53.9578 138.98 54.1087C139.382 54.2596 139.727 54.481 140.016 54.7731C140.305 55.0603 140.53 55.4156 140.692 55.8391C140.858 56.2577 140.941 56.7371 140.941 57.2774C140.941 57.55 140.912 57.7349 140.853 57.8323C140.794 57.9248 140.682 57.971 140.515 57.971H135.851Z" fill="white"/>
<path d="M149.314 55.3572H149.776C149.962 55.3572 150.117 55.3329 150.239 55.2842C150.362 55.2306 150.467 55.1479 150.555 55.0359L153.486 51.3488C153.608 51.1931 153.736 51.086 153.868 51.0276C154.005 50.9643 154.177 50.9327 154.382 50.9327H156.086L152.509 55.3207C152.298 55.5884 152.08 55.7782 151.855 55.8902C152.017 55.9486 152.161 56.0313 152.289 56.1384C152.421 56.2406 152.546 56.3769 152.663 56.5473L156.351 61.4902H154.61C154.375 61.4902 154.199 61.4585 154.081 61.3953C153.968 61.3271 153.873 61.2298 153.795 61.1032L150.79 57.2044C150.697 57.073 150.589 56.9805 150.467 56.9269C150.344 56.8734 150.168 56.8466 149.938 56.8466H149.314V61.4902H147.337V50.9327H149.314V55.3572Z" fill="white"/>
<path d="M162.021 56.8831C162.021 56.6495 161.987 56.4305 161.918 56.226C161.855 56.0167 161.757 55.8342 161.624 55.6784C161.492 55.5227 161.323 55.401 161.118 55.3134C160.917 55.2209 160.682 55.1747 160.412 55.1747C159.888 55.1747 159.475 55.3231 159.171 55.62C158.872 55.9169 158.681 56.338 158.598 56.8831H162.021ZM158.561 57.971C158.591 58.3555 158.659 58.689 158.767 58.9713C158.875 59.2487 159.017 59.4799 159.193 59.6649C159.369 59.845 159.577 59.9813 159.817 60.0738C160.062 60.1614 160.332 60.2052 160.625 60.2052C160.919 60.2052 161.171 60.1711 161.382 60.103C161.597 60.0348 161.784 59.9594 161.94 59.8766C162.102 59.7939 162.242 59.7184 162.359 59.6503C162.481 59.5821 162.599 59.5481 162.712 59.5481C162.863 59.5481 162.976 59.604 163.05 59.716L163.571 60.3731C163.37 60.6067 163.145 60.8039 162.895 60.9645C162.646 61.1203 162.384 61.2468 162.109 61.3442C161.84 61.4366 161.563 61.5024 161.279 61.5413C161 61.5802 160.728 61.5997 160.464 61.5997C159.94 61.5997 159.452 61.5145 159.002 61.3442C158.551 61.1689 158.16 60.9134 157.827 60.5775C157.494 60.2368 157.232 59.8182 157.041 59.3217C156.85 58.8204 156.754 58.2412 156.754 57.584C156.754 57.073 156.837 56.5935 157.004 56.1457C157.17 55.693 157.408 55.3012 157.716 54.9702C158.03 54.6344 158.409 54.3691 158.855 54.1744C159.306 53.9797 159.812 53.8823 160.376 53.8823C160.851 53.8823 161.289 53.9578 161.691 54.1087C162.092 54.2596 162.437 54.481 162.726 54.7731C163.015 55.0603 163.241 55.4156 163.402 55.8391C163.569 56.2577 163.652 56.7371 163.652 57.2774C163.652 57.55 163.623 57.7349 163.564 57.8323C163.505 57.9248 163.392 57.971 163.226 57.971H158.561Z" fill="white"/>
<path d="M172.232 53.9992L168.126 63.5491C168.072 63.6757 168.001 63.7706 167.913 63.8339C167.83 63.902 167.7 63.9361 167.524 63.9361H166.172L167.582 60.928L164.534 53.9992H166.128C166.27 53.9992 166.38 54.0332 166.459 54.1014C166.542 54.1695 166.603 54.2474 166.642 54.335L168.244 58.2193C168.297 58.3507 168.342 58.4821 168.376 58.6135C168.415 58.7449 168.452 58.8788 168.486 59.0151C168.53 58.8788 168.574 58.7449 168.618 58.6135C168.662 58.4772 168.711 58.3434 168.765 58.212L170.278 54.335C170.318 54.2377 170.381 54.1574 170.469 54.0941C170.562 54.0308 170.665 53.9992 170.778 53.9992H172.232Z" fill="white"/>
<line x1="109.85" y1="61.1016" x2="109.85" y2="88.4016" stroke="#CF4018" stroke-width="1.3"/>
<rect x="97.5" y="87.1016" width="23.4" height="23.4" rx="2.6" fill="#CF4018"/>
</svg>
