<svg width="12" height="12" viewBox="0 0 12 12" fill="none" xmlns="http://www.w3.org/2000/svg">
<g id="visibility-dark">
<path id=" &#226;&#134;&#179;Color" fill-rule="evenodd" clip-rule="evenodd" d="M6 2.5C3.5 2.5 1.365 4.055 0.5 6.25C1.365 8.445 3.5 10 6 10C8.5 10 10.635 8.445 11.5 6.25C10.635 4.055 8.5 2.5 6 2.5ZM6 8.75C4.62 8.75 3.5 7.63 3.5 6.25C3.5 4.87 4.62 3.75 6 3.75C7.38 3.75 8.5 4.87 8.5 6.25C8.5 7.63 7.38 8.75 6 8.75ZM6.00002 4.75C5.17002 4.75 4.50002 5.42 4.50002 6.25C4.50002 7.08 5.17002 7.75 6.00002 7.75C6.83002 7.75 7.50002 7.08 7.50002 6.25C7.50002 5.42 6.83002 4.75 6.00002 4.75Z" fill="#031F2B"/>
</g>
</svg>
