<svg width="24" height="24" viewBox="0 0 24 24" fill="none" xmlns="http://www.w3.org/2000/svg">
<path d="M12 6.49999C14.76 6.49999 17 8.73999 17 11.5C17 12.01 16.9 12.5 16.76 12.96L19.82 16.02C21.21 14.79 22.31 13.25 23 11.49C21.27 7.10999 17 3.99999 12 3.99999C10.73 3.99999 9.51 4.19999 8.36 4.56999L10.53 6.73999C11 6.59999 11.49 6.49999 12 6.49999ZM2.71 3.15999C2.6173 3.25251 2.54375 3.3624 2.49357 3.48337C2.44339 3.60434 2.41756 3.73402 2.41756 3.86499C2.41756 3.99596 2.44339 4.12564 2.49357 4.24662C2.54375 4.36759 2.6173 4.47748 2.71 4.56999L4.68 6.53999C3.03792 7.84038 1.76844 9.55142 1 11.5C2.73 15.89 7 19 12 19C13.52 19 14.97 18.7 16.31 18.18L19.03 20.9C19.217 21.087 19.4706 21.192 19.735 21.192C19.9994 21.192 20.253 21.087 20.44 20.9C20.627 20.713 20.732 20.4594 20.732 20.195C20.732 19.9306 20.627 19.677 20.44 19.49L4.13 3.15999C3.74 2.76999 3.1 2.76999 2.71 3.15999ZM12 16.5C9.24 16.5 7 14.26 7 11.5C7 10.73 7.18 9.99999 7.49 9.35999L9.06 10.93C9.03 11.11 9 11.3 9 11.5C9 13.16 10.34 14.5 12 14.5C12.2 14.5 12.38 14.47 12.57 14.43L14.14 16C13.49 16.32 12.77 16.5 12 16.5ZM14.97 11.17C14.8983 10.4944 14.5971 9.86373 14.1167 9.3833C13.6363 8.90287 13.0056 8.60169 12.33 8.52999L14.97 11.17Z" fill="#031F2B"/>
</svg>
