<svg width="24" height="24" viewBox="0 0 24 24" fill="none" xmlns="http://www.w3.org/2000/svg">
<path fill-rule="evenodd" clip-rule="evenodd" d="M12 5C7 5 2.73 8.11 1 12.5C2.73 16.89 7 20 12 20C17 20 21.27 16.89 23 12.5C21.27 8.11 17 5 12 5ZM12 17.5C9.24 17.5 7 15.26 7 12.5C7 9.73999 9.24 7.49999 12 7.49999C14.76 7.49999 17 9.73999 17 12.5C17 15.26 14.76 17.5 12 17.5ZM12 9.5C10.34 9.5 9.00003 10.84 9.00003 12.5C9.00003 14.16 10.34 15.5 12 15.5C13.66 15.5 15 14.16 15 12.5C15 10.84 13.66 9.5 12 9.5Z" fill="#031F2B"/>
</svg>
