<svg width="60" height="61" viewBox="0 0 60 61" fill="none" xmlns="http://www.w3.org/2000/svg">
<path d="M37.4989 23.4978C43.7115 23.4978 48.7491 18.4615 48.7491 12.2489C48.7491 6.03497 43.7115 1 37.4989 1C31.2863 1 26.25 6.03497 26.25 12.2489C26.25 18.4615 31.2863 23.4978 37.4989 23.4978Z" fill="#78C7E0"/>
<path d="M38.7656 12.1285L34.0678 13.3873L32.875 8.93555L37.5728 7.67679C38.8077 7.34589 40.0651 8.07262 40.3958 9.30682C40.7265 10.541 40.0005 11.7976 38.7656 12.1285Z" stroke="#333333" stroke-width="0.6" stroke-linecap="round" stroke-linejoin="round"/>
<path d="M39.9605 16.5987L35.2628 17.8575L34.0703 13.4072L38.7681 12.1485C40.003 11.8176 41.26 12.5428 41.5907 13.777C41.9159 14.9905 41.1954 16.2678 39.9605 16.5987Z" stroke="#333333" stroke-width="0.6" stroke-linecap="round" stroke-linejoin="round"/>
<path d="M34.9841 8.37065L34.5234 6.65137" stroke="#333333" stroke-width="0.6" stroke-linecap="round" stroke-linejoin="round"/>
<path d="M37.0232 7.82279L36.5625 6.10352" stroke="#333333" stroke-width="0.6" stroke-linecap="round" stroke-linejoin="round"/>
<path d="M37.8227 18.993L37.3672 17.293" stroke="#333333" stroke-width="0.6" stroke-linecap="round" stroke-linejoin="round"/>
<path d="M39.8696 18.4461L39.4141 16.7461" stroke="#333333" stroke-width="0.6" stroke-linecap="round" stroke-linejoin="round"/>
<path d="M48.1853 15.7716C48.1142 15.993 48.0338 16.2143 47.9426 16.4356C45.6289 22.2002 39.0891 24.998 33.3232 22.6937C27.5572 20.3895 24.7608 13.8389 27.065 8.073C29.3786 2.3084 35.9198 -0.48941 41.6844 1.81482C44.8644 3.09301 47.1378 5.6494 48.1545 8.64704" stroke="#333333" stroke-width="0.6" stroke-linecap="round" stroke-linejoin="round"/>
<path d="M48.5699 10.2559C48.8113 11.6051 48.8113 13.0134 48.5391 14.4016" stroke="#333333" stroke-width="0.6" stroke-linecap="round" stroke-linejoin="round"/>
<path d="M37.8828 3.00098C38.9102 3.04121 39.9362 3.25312 40.9421 3.65549" stroke="#333333" stroke-width="0.6" stroke-linecap="round" stroke-linejoin="round"/>
<path d="M28.9062 8.80735C30.2032 5.57767 33.111 3.47462 36.3313 3.06152" stroke="#333333" stroke-width="0.6" stroke-linecap="round" stroke-linejoin="round"/>
<path d="M10.7219 25.4119C15.9207 28.8131 22.8936 27.3564 26.2947 22.1575C29.6966 16.9575 28.2373 9.98618 23.0384 6.58506C17.8396 3.18393 10.8686 4.64019 7.46671 9.8402C4.06558 15.0391 5.52297 22.0108 10.7219 25.4119Z" fill="#78C7E0"/>
<path d="M18.0096 16.5892L13.3892 15.0708L14.8281 10.6924L19.4485 12.2108C20.6631 12.61 21.3175 13.9065 20.9185 15.1204C20.5196 16.3343 19.2241 16.9884 18.0096 16.5892Z" stroke="#333333" stroke-width="0.6" stroke-linecap="round" stroke-linejoin="round"/>
<path d="M16.5569 20.9833L11.9365 19.4648L13.375 15.0879L17.9954 16.6063C19.2099 17.0055 19.8648 18.3006 19.4659 19.5145C19.0737 20.7079 17.7715 21.3824 16.5569 20.9833Z" stroke="#333333" stroke-width="0.6" stroke-linecap="round" stroke-linejoin="round"/>
<path d="M16.8974 11.3736L17.4531 9.68262" stroke="#333333" stroke-width="0.6" stroke-linecap="round" stroke-linejoin="round"/>
<path d="M18.9052 12.0337L19.4609 10.3428" stroke="#333333" stroke-width="0.6" stroke-linecap="round" stroke-linejoin="round"/>
<path d="M13.4583 21.8155L14.0078 20.1436" stroke="#333333" stroke-width="0.6" stroke-linecap="round" stroke-linejoin="round"/>
<path d="M15.474 22.4806L16.0234 20.8086" stroke="#333333" stroke-width="0.6" stroke-linecap="round" stroke-linejoin="round"/>
<path d="M23.8921 24.7958C23.7114 24.9421 23.5229 25.0832 23.3255 25.2185C18.2335 28.7759 11.2291 27.5369 7.66539 22.452C4.10173 17.3671 5.34771 10.3545 10.4326 6.79081C15.5246 3.23341 22.5301 4.47312 26.0927 9.55726C28.0541 12.3678 28.557 15.7517 27.7667 18.8168" stroke="#333333" stroke-width="0.6" stroke-linecap="round" stroke-linejoin="round"/>
<path d="M27.2368 20.3909C26.7001 21.6522 25.9291 22.8307 24.9413 23.8433" stroke="#333333" stroke-width="0.6" stroke-linecap="round" stroke-linejoin="round"/>
<path d="M22.2656 8.46875C23.1033 9.06487 23.8459 9.80391 24.4675 10.6913" stroke="#333333" stroke-width="0.6" stroke-linecap="round" stroke-linejoin="round"/>
<path d="M11.5731 8.41572C14.4266 6.42305 18.0113 6.25504 20.9323 7.67232" stroke="#333333" stroke-width="0.6" stroke-linecap="round" stroke-linejoin="round"/>
<path d="M3.125 43.9271V16.6503C3.125 16.625 3.12499 16.625 3.15579 16.625H48.6078C51.8013 16.625 54.375 18.7352 54.375 21.3537V55.6463C54.375 58.2648 51.8013 60.375 48.6078 60.375H3.15579C3.12499 60.375 3.125 60.375 3.125 60.3498V54.5525" fill="#3D84A8"/>
<path d="M3.125 43.9271V16.6503C3.125 16.625 3.12499 16.625 3.15579 16.625H48.6078C51.8013 16.625 54.375 18.7352 54.375 21.3537V55.6463C54.375 58.2648 51.8013 60.375 48.6078 60.375H3.15579C3.12499 60.375 3.125 60.375 3.125 60.3498V54.5525" stroke="#333333" stroke-width="0.6" stroke-linecap="round" stroke-linejoin="round"/>
<path d="M3.13281 53.0966V45.5312" stroke="#333333" stroke-width="0.6" stroke-linecap="round" stroke-linejoin="round"/>
<path d="M45.9531 29.1366C45.9531 29.1074 45.9531 29.1074 45.9531 29.1366L57.1378 29.1074C57.1669 29.1074 57.1669 29.1074 57.1669 29.1366V44.6806C57.1669 44.7097 57.1669 44.7097 57.1378 44.7097H45.9822C45.9531 44.7097 45.9531 44.7097 45.9531 44.6806V29.1366Z" fill="#46CDCF" stroke="#333333" stroke-width="0.6" stroke-linecap="round" stroke-linejoin="round"/>
</svg>
