<svg width="32" height="32" viewBox="0 0 32 32" fill="none" xmlns="http://www.w3.org/2000/svg">
<rect width="32" height="32" rx="16" fill="url(#paint0_linear_87797_140860)"/>
<path d="M23.5987 15.0942L21.1441 8.71237C21.1441 8.71237 21.1441 8.6851 21.1441 8.66874L21.1114 8.61419C21.0853 8.57723 21.0561 8.54256 21.0241 8.51055L20.9805 8.47237C20.9309 8.43482 20.8757 8.40537 20.8168 8.3851H20.7732L20.6368 8.36328H20.5714L11.2987 9.45419H11.2659C11.2182 9.46038 11.172 9.47516 11.1296 9.49783L11.0914 9.53601C11.0381 9.57048 10.9903 9.61277 10.9496 9.66146C10.9169 9.70249 10.8911 9.74855 10.8732 9.79783L8.41866 16.1796C8.3917 16.2723 8.3917 16.3707 8.41866 16.4633C8.41329 16.5086 8.41329 16.5543 8.41866 16.5996C8.46751 17.3648 8.79352 18.0859 9.33567 18.6281C9.87782 19.1702 10.599 19.4963 11.3641 19.5451C12.138 19.5093 12.8717 19.1897 13.425 18.6475C13.9784 18.1052 14.3127 17.3781 14.3641 16.6051C14.3695 16.5598 14.3695 16.514 14.3641 16.4687C14.3911 16.3761 14.3911 16.2777 14.3641 16.1851L12.1823 10.4578L15.455 10.0651V22.5451H13.8187C13.674 22.5451 13.5353 22.6026 13.433 22.7049C13.3307 22.8072 13.2732 22.9459 13.2732 23.0906C13.2732 23.2352 13.3307 23.374 13.433 23.4762C13.5353 23.5785 13.674 23.636 13.8187 23.636H18.1823C18.327 23.636 18.4657 23.5785 18.568 23.4762C18.6703 23.374 18.7278 23.2352 18.7278 23.0906C18.7278 22.9459 18.6703 22.8072 18.568 22.7049C18.4657 22.6026 18.327 22.5451 18.1823 22.5451H16.5459V9.93964L19.8187 9.55783L17.6914 15.0942C17.6644 15.1868 17.6644 15.2852 17.6914 15.3778C17.686 15.4231 17.686 15.4689 17.6914 15.5142C17.7415 16.2784 18.0681 16.9982 18.6101 17.5392C19.1521 18.0802 19.8726 18.4055 20.6368 18.4542C21.4108 18.4184 22.1444 18.0988 22.6978 17.5566C23.2511 17.0143 23.5854 16.2872 23.6368 15.5142C23.6422 15.4689 23.6422 15.4231 23.6368 15.3778C23.6516 15.2816 23.6384 15.1831 23.5987 15.0942ZM22.3605 14.9087H18.9132L20.6368 10.4251L22.3605 14.9087ZM11.3641 11.516L13.0878 15.9996H9.64048L11.3641 11.516ZM11.3641 18.4542C10.9645 18.4358 10.5802 18.2952 10.2632 18.0513C9.94615 17.8074 9.71164 17.4721 9.59139 17.0906H13.1368C13.0166 17.4721 12.7821 17.8074 12.465 18.0513C12.148 18.2952 11.7637 18.4358 11.3641 18.4542ZM20.6368 17.3633C20.2373 17.3449 19.853 17.2043 19.5359 16.9604C19.2189 16.7165 18.9844 16.3811 18.8641 15.9996H22.4096C22.2893 16.3811 22.0548 16.7165 21.7378 16.9604C21.4207 17.2043 21.0364 17.3449 20.6368 17.3633Z" fill="#F4F4F6"/>
<defs>
<linearGradient id="paint0_linear_87797_140860" x1="16.0539" y1="32" x2="9.9895" y2="1.1938" gradientUnits="userSpaceOnUse">
<stop stop-color="#2F766D"/>
<stop offset="1" stop-color="#1C4A21"/>
</linearGradient>
</defs>
</svg>
