<svg width="25" height="25" viewBox="0 0 25 25" fill="none" xmlns="http://www.w3.org/2000/svg">
<g clip-path="url(#clip0_44_10)">
<path d="M10.5 16.5V8.5C10.5 7.4 11.39 6.5 12.5 6.5H21.5V5.5C21.5 4.4 20.6 3.5 19.5 3.5H5.5C4.39 3.5 3.5 4.4 3.5 5.5V19.5C3.5 20.6 4.39 21.5 5.5 21.5H19.5C20.6 21.5 21.5 20.6 21.5 19.5V18.5H12.5C11.39 18.5 10.5 17.6 10.5 16.5ZM13.5 8.5C12.95 8.5 12.5 8.95 12.5 9.5V15.5C12.5 16.05 12.95 16.5 13.5 16.5H22.5V8.5H13.5ZM16.5 14C15.67 14 15 13.33 15 12.5C15 11.67 15.67 11 16.5 11C17.33 11 18 11.67 18 12.5C18 13.33 17.33 14 16.5 14Z" fill="#B3B3B3"/>
</g>
<defs>
<clipPath id="clip0_44_10">
<rect width="24" height="24" fill="white" transform="translate(0.5 0.5)"/>
</clipPath>
</defs>
</svg>
