<svg width="96" height="96" viewBox="0 0 96 96" fill="none" xmlns="http://www.w3.org/2000/svg">
<circle cx="48" cy="48" r="48" fill="#F5F5F5"/>
<path d="M43 58V38C43 35.25 45.225 33 48 33H70.5V30.5C70.5 27.75 68.25 25.5 65.5 25.5H30.5C27.725 25.5 25.5 27.75 25.5 30.5V65.5C25.5 68.25 27.725 70.5 30.5 70.5H65.5C68.25 70.5 70.5 68.25 70.5 65.5V63H48C45.225 63 43 60.75 43 58ZM50.5 38C49.125 38 48 39.125 48 40.5V55.5C48 56.875 49.125 58 50.5 58H73V38H50.5ZM58 51.75C55.925 51.75 54.25 50.075 54.25 48C54.25 45.925 55.925 44.25 58 44.25C60.075 44.25 61.75 45.925 61.75 48C61.75 50.075 60.075 51.75 58 51.75Z" fill="#031F2B"/>
</svg>
