<svg width="347" height="513" viewBox="0 0 347 513" fill="none" xmlns="http://www.w3.org/2000/svg">
<g clip-path="url(#clip0_53295_296151)">
<rect x="0.710938" y="0.777344" width="346" height="512" rx="24" fill="#D0E2FF"/>
<g clip-path="url(#clip1_53295_296151)">
<rect width="375" height="300" transform="translate(-12.7891 47.291)" fill="#D0E2FF"/>
<g clip-path="url(#clip2_53295_296151)">
<path d="M276.453 215.813L300.95 213.318" stroke="#333333" stroke-width="0.6" stroke-linecap="round" stroke-linejoin="round"/>
<path d="M43.5703 239.571L68.0673 237.078" stroke="#333333" stroke-width="0.6" stroke-linecap="round" stroke-linejoin="round"/>
<path d="M253.359 292.737L272.447 308.297" stroke="#333333" stroke-width="0.6" stroke-linecap="round" stroke-linejoin="round"/>
<path d="M72.0703 144.592L91.1581 160.152" stroke="#333333" stroke-width="0.6" stroke-linecap="round" stroke-linejoin="round"/>
<path d="M159.156 103.727L161.645 128.258" stroke="#333333" stroke-width="0.6" stroke-linecap="round" stroke-linejoin="round"/>
<path d="M106.068 307.67L90.5312 326.784" stroke="#333333" stroke-width="0.6" stroke-linecap="round" stroke-linejoin="round"/>
<path d="M266.271 123.864L250.734 142.978" stroke="#333333" stroke-width="0.6" stroke-linecap="round" stroke-linejoin="round"/>
<path d="M58.8105 172.04L57.0859 170.386L64.9759 169.209L68.5009 162.115L72.0259 169.209L79.8426 170.386L74.1535 175.937L75.475 183.768L68.5009 180.091L61.4536 183.768L62.8117 175.937L62.113 175.237L61.6001 174.797L59.729 172.923" fill="#46CDCF"/>
<path d="M58.8105 172.04L57.0859 170.386L64.9759 169.209L68.5009 162.115L72.0259 169.209L79.8426 170.386L74.1535 175.937L75.475 183.768L68.5009 180.091L61.4536 183.768L62.8117 175.937L62.113 175.237L61.6001 174.797L59.729 172.923" stroke="#333333" stroke-width="0.6" stroke-linecap="round" stroke-linejoin="round"/>
<path d="M295.285 281.113L299.349 286.271L305.876 285.87L302.212 291.316L304.56 297.394L298.318 295.559L293.281 299.745L293.053 293.208L287.5 289.655L293.684 287.419L295.285 281.113Z" fill="#46CDCF" stroke="#333333" stroke-width="0.6" stroke-linecap="round" stroke-linejoin="round"/>
<path d="M226.878 112.662L225.227 111.079L232.779 109.955L236.15 103.164L239.523 109.955L247.005 111.079L241.559 116.391L242.825 123.884L236.15 120.367L229.406 123.884L230.706 116.391L230.039 115.723L229.547 115.301L227.754 113.506" fill="#ABEDD8"/>
<path d="M226.878 112.662L225.227 111.079L232.779 109.955L236.15 103.164L239.523 109.955L247.005 111.079L241.559 116.391L242.825 123.884L236.15 120.367L229.406 123.884L230.706 116.391L230.039 115.723L229.547 115.301L227.754 113.506" stroke="#333333" stroke-width="0.6" stroke-linecap="round" stroke-linejoin="round"/>
<path d="M65.7442 295.688L63.1875 293.235L74.8903 291.489L80.1163 280.967L85.3449 291.489L96.9405 293.235L88.5009 301.467L90.461 313.08L80.1163 307.629L69.6644 313.08L71.6794 301.467L70.6457 300.432L69.8816 299.777L67.105 296.996" fill="#ABEDD8"/>
<path d="M65.7442 295.688L63.1875 293.235L74.8903 291.489L80.1163 280.967L85.3449 291.489L96.9405 293.235L88.5009 301.467L90.461 313.08L80.1163 307.629L69.6644 313.08L71.6794 301.467L70.6457 300.432L69.8816 299.777L67.105 296.996" stroke="#333333" stroke-width="0.6" stroke-linecap="round" stroke-linejoin="round"/>
<path d="M218.894 327.15H136.371C130.978 327.15 126.609 322.779 126.609 317.39V296.072C126.609 296.04 130.885 259.663 130.885 228.895C130.885 205.904 126.609 167.512 126.609 167.512V157.008C126.609 151.619 130.978 147.248 136.371 147.248H218.894C224.287 147.248 228.656 151.619 228.656 157.008V167.512C228.501 168.103 222.057 197.475 222.057 228.957C222.057 252.009 228.656 296.072 228.656 296.072V317.39C228.656 322.75 224.287 327.15 218.894 327.15Z" fill="#54C4C9"/>
<path fill-rule="evenodd" clip-rule="evenodd" d="M136.373 147.515C131.128 147.515 126.879 151.766 126.879 157.008V167.497L126.889 167.594C126.897 167.667 126.909 167.776 126.925 167.92C126.956 168.207 127.002 168.631 127.061 169.178C127.178 170.273 127.345 171.863 127.545 173.843C127.946 177.803 128.481 183.322 129.015 189.559C130.084 202.032 131.154 217.388 131.154 228.896C131.154 244.29 130.084 261.085 129.015 274.032C128.481 280.506 127.946 286.019 127.545 289.916C127.345 291.865 127.178 293.409 127.061 294.468C127.002 294.997 126.956 295.405 126.925 295.681C126.909 295.819 126.897 295.924 126.889 295.994L126.88 296.074L126.879 296.087V317.39C126.879 322.632 131.128 326.883 136.373 326.883H218.896C224.14 326.883 228.39 322.603 228.39 317.39V296.092L228.374 295.984C228.362 295.9 228.343 295.775 228.319 295.611C228.271 295.282 228.2 294.797 228.109 294.172C227.929 292.922 227.671 291.11 227.362 288.864C226.743 284.372 225.918 278.142 225.093 271.191C223.443 257.294 221.791 240.501 221.791 228.957C221.791 197.836 228.081 168.778 228.39 167.48V157.008C228.39 151.766 224.141 147.515 218.896 147.515H136.373ZM228.658 296.072L228.922 296.033C228.924 296.046 228.925 296.059 228.925 296.072V317.39C228.925 322.897 224.437 327.418 218.896 327.418H136.373C130.832 327.418 126.344 322.927 126.344 317.39V296.072C126.344 296.061 126.345 296.048 126.345 296.046L126.345 296.042L126.346 296.035L126.349 296.014L126.358 295.932C126.366 295.861 126.378 295.757 126.393 295.62C126.425 295.345 126.471 294.938 126.529 294.409C126.646 293.352 126.813 291.809 127.013 289.862C127.414 285.968 127.948 280.458 128.482 273.988C129.551 261.047 130.619 244.269 130.619 228.896C130.619 217.412 129.551 202.076 128.482 189.605C127.948 183.371 127.414 177.855 127.013 173.897C126.813 171.918 126.646 170.329 126.529 169.235C126.471 168.688 126.425 168.264 126.393 167.978C126.378 167.835 126.366 167.725 126.358 167.652L126.345 167.542C126.345 167.542 126.345 167.542 126.611 167.512L126.345 167.542C126.344 167.532 126.344 167.522 126.344 167.512V157.008C126.344 151.471 130.832 146.98 136.373 146.98H218.896C224.436 146.98 228.925 151.471 228.925 157.008V167.512C228.925 167.535 228.922 167.558 228.916 167.58C228.766 168.154 222.326 197.503 222.326 228.957C222.326 240.466 223.974 257.231 225.624 271.128C226.448 278.074 227.273 284.301 227.891 288.791C228.201 291.036 228.458 292.846 228.639 294.096C228.729 294.72 228.8 295.205 228.848 295.533C228.872 295.697 228.891 295.822 228.903 295.906L228.922 296.031L228.922 296.032C228.922 296.033 228.922 296.033 228.658 296.072Z" fill="#333333"/>
<path d="M228.656 167.513H126.609V296.073H228.656V167.513Z" fill="#ABEDD8"/>
<path fill-rule="evenodd" clip-rule="evenodd" d="M126.344 167.512C126.344 167.364 126.463 167.245 126.611 167.245H228.658C228.805 167.245 228.925 167.364 228.925 167.512V296.072C228.925 296.22 228.805 296.34 228.658 296.34H126.611C126.463 296.34 126.344 296.22 126.344 296.072V167.512ZM126.879 167.779V295.805H228.39V167.779H126.879Z" fill="#333333"/>
<path fill-rule="evenodd" clip-rule="evenodd" d="M177.656 304.052C173.496 304.052 170.113 307.435 170.113 311.594C170.113 315.753 173.496 319.135 177.656 319.135C181.815 319.135 185.198 315.753 185.198 311.594C185.198 309.501 184.329 307.585 182.923 306.208C182.817 306.105 182.816 305.936 182.919 305.83C183.022 305.725 183.192 305.723 183.297 305.826C184.8 307.299 185.733 309.351 185.733 311.594C185.733 316.048 182.111 319.67 177.656 319.67C173.2 319.67 169.578 316.048 169.578 311.594C169.578 307.139 173.2 303.518 177.656 303.518C179.001 303.518 180.252 303.838 181.372 304.416C181.503 304.484 181.554 304.645 181.487 304.776C181.419 304.908 181.258 304.959 181.126 304.891C180.081 304.352 178.914 304.052 177.656 304.052Z" fill="#333333"/>
<path fill-rule="evenodd" clip-rule="evenodd" d="M167.156 157.041C167.156 156.893 167.276 156.773 167.424 156.773H187.846C187.993 156.773 188.113 156.893 188.113 157.041C188.113 157.188 187.993 157.308 187.846 157.308H167.424C167.276 157.308 167.156 157.188 167.156 157.041Z" fill="#333333"/>
<path fill-rule="evenodd" clip-rule="evenodd" d="M192.289 157.041C192.289 156.893 192.409 156.773 192.556 156.773H196.677C196.824 156.773 196.944 156.893 196.944 157.041C196.944 157.188 196.824 157.308 196.677 157.308H192.556C192.409 157.308 192.289 157.188 192.289 157.041Z" fill="#333333"/>
<path d="M166.443 219.992C172.093 219.992 176.675 215.404 176.675 209.745C176.675 204.087 172.093 199.498 166.443 199.498C160.793 199.498 156.211 204.087 156.211 209.745C156.211 215.404 160.793 219.992 166.443 219.992Z" fill="#78C7E0" stroke="#333333" stroke-width="0.6" stroke-linecap="round" stroke-linejoin="round"/>
<path d="M180.326 190.44C182.181 188.615 184.74 187.462 187.521 187.462C193.181 187.462 197.753 192.041 197.753 197.709C197.753 203.377 193.181 207.956 187.521 207.956C181.861 207.956 177.289 203.377 177.289 197.709C177.289 195.884 177.77 194.186 178.568 192.713" fill="#78C7E0"/>
<path d="M180.326 190.44C182.181 188.615 184.74 187.462 187.521 187.462C193.181 187.462 197.753 192.041 197.753 197.709C197.753 203.377 193.181 207.956 187.521 207.956C181.861 207.956 177.289 203.377 177.289 197.709C177.289 195.884 177.77 194.186 178.568 192.713" stroke="#333333" stroke-width="0.6" stroke-linecap="round" stroke-linejoin="round"/>
<path d="M150.547 242.292V212.542C150.547 212.515 150.547 212.515 150.579 212.515H197.412C200.702 212.515 203.354 214.816 203.354 217.672V255.074C203.354 257.93 200.702 260.231 197.412 260.231H150.579C150.547 260.231 150.547 260.231 150.547 260.204V253.881" fill="#3D84A8"/>
<path d="M150.555 242.297V212.547C150.555 212.519 150.555 212.519 150.586 212.519H197.419C200.71 212.519 203.362 214.821 203.362 217.677V255.078C203.362 257.934 200.71 260.236 197.419 260.236H150.586C150.555 260.236 150.555 260.236 150.555 260.208V253.885" stroke="#333333" stroke-width="0.6" stroke-linecap="round" stroke-linejoin="round"/>
<path d="M150.555 252.349V244.088" stroke="#333333" stroke-width="0.6" stroke-linecap="round" stroke-linejoin="round"/>
<path d="M197.313 226.186C197.313 226.154 197.313 226.154 197.313 226.186L209.526 226.154C209.557 226.154 209.557 226.154 209.557 226.186V243.159C209.557 243.191 209.557 243.191 209.526 243.191H197.344C197.312 243.191 197.313 243.191 197.313 243.159V226.186Z" fill="#46CDCF" stroke="#333333" stroke-width="0.6" stroke-linecap="round" stroke-linejoin="round"/>
<path d="M236.645 194.03C247.788 194.03 256.813 184.906 256.813 173.642C256.813 162.378 247.788 153.254 236.645 153.254C225.502 153.254 216.477 162.378 216.477 173.642C216.477 184.906 225.502 194.03 236.645 194.03Z" fill="white" stroke="#333333" stroke-width="0.6" stroke-linecap="round" stroke-linejoin="round"/>
<path d="M227.75 173.499L233.842 179.661L245.609 167.695" stroke="#333333" stroke-width="0.6" stroke-linecap="round" stroke-linejoin="round"/>
</g>
</g>
</g>
<defs>
<clipPath id="clip0_53295_296151">
<rect x="0.710938" y="0.777344" width="346" height="512" rx="24" fill="white"/>
</clipPath>
<clipPath id="clip1_53295_296151">
<rect width="375" height="300" fill="white" transform="translate(-12.7891 47.291)"/>
</clipPath>
<clipPath id="clip2_53295_296151">
<rect width="375" height="226" fill="white" transform="translate(-12.7891 102.291)"/>
</clipPath>
</defs>
</svg>
