<svg width="346" height="512" viewBox="0 0 346 512" fill="none" xmlns="http://www.w3.org/2000/svg">
<g clip-path="url(#clip0_2001_1279)">
<rect width="346" height="512" rx="24" fill="#D0E2FF"/>
<rect width="412.5" height="330" transform="translate(-33.25 91)" fill="#D0E2FF"/>
<path d="M139.656 208.042C139.656 206.57 138.483 205.403 137.007 205.403H113.569C112.089 205.403 110.916 206.57 110.916 208.042C110.916 209.51 112.089 210.681 113.569 210.681H121.524C122.376 210.681 123.004 211.306 123.004 212.149V214.841C123.004 215.684 122.376 216.309 121.524 216.309H112.119C110.639 216.309 109.466 217.48 109.466 218.948V224.58C109.466 226.048 110.639 227.219 112.119 227.219H128.938V311.171C120.43 313.539 114.14 321.29 114.14 330.54C114.14 341.643 123.14 350.591 134.297 350.591C145.401 350.591 154.454 341.56 154.454 330.54C154.454 321.321 148.164 313.539 139.656 311.171V208.042Z" fill="#CF583B" stroke="#CF583B" stroke-width="1.22694" stroke-linecap="round" stroke-linejoin="round"/>
<path d="M139.419 362.419C144.897 364.498 148.791 369.811 148.791 376.015C148.791 384.035 142.29 390.535 134.271 390.535C126.251 390.535 119.751 384.035 119.751 376.015C119.751 367.996 126.251 361.495 134.271 361.495" fill="#F8BDC0"/>
<path d="M139.419 362.419C144.897 364.498 148.791 369.811 148.791 376.015C148.791 384.035 142.29 390.535 134.271 390.535C126.251 390.535 119.751 384.035 119.751 376.015C119.751 367.996 126.251 361.495 134.271 361.495" fill="#A7F0BA"/>
<path d="M139.419 362.419C144.897 364.498 148.791 369.811 148.791 376.015C148.791 384.035 142.29 390.535 134.271 390.535C126.251 390.535 119.751 384.035 119.751 376.015C119.751 367.996 126.251 361.495 134.271 361.495" stroke="#333333" stroke-width="0.968" stroke-linecap="round" stroke-linejoin="round"/>
<path fill-rule="evenodd" clip-rule="evenodd" d="M139.993 371.745C140.106 371.857 140.106 372.037 139.993 372.148L132.451 379.565C132.397 379.618 132.323 379.648 132.246 379.648C132.169 379.647 132.096 379.617 132.042 379.563L128.545 376.082C128.433 375.97 128.434 375.789 128.547 375.679C128.661 375.568 128.844 375.569 128.956 375.681L132.248 378.959L139.585 371.745C139.698 371.634 139.881 371.634 139.993 371.745Z" fill="#333333" stroke="#333333" stroke-width="0.968" stroke-linecap="round" stroke-linejoin="round"/>
<path d="M127.548 342.133C127.298 342.337 127.031 342.348 126.747 342.167C126.463 341.985 126.377 341.735 126.491 341.417L129.047 333.067L122.401 328.295C122.129 328.114 122.044 327.864 122.146 327.546C122.248 327.227 122.458 327.068 122.776 327.068H131.024L133.648 318.344C133.694 318.162 133.779 318.037 133.904 317.969C134.029 317.9 134.159 317.866 134.296 317.866C134.432 317.866 134.563 317.9 134.688 317.969C134.813 318.037 134.898 318.162 134.943 318.344L137.568 327.068H145.815C146.133 327.068 146.344 327.227 146.447 327.546C146.548 327.864 146.463 328.114 146.19 328.295L139.544 333.067L142.1 341.417C142.214 341.735 142.129 341.985 141.846 342.167C141.561 342.348 141.294 342.337 141.044 342.133L134.296 337.02L127.548 342.133Z" fill="white"/>
<path d="M221.935 208.042C221.935 206.57 220.762 205.403 219.286 205.403H195.848C194.368 205.403 193.195 206.57 193.195 208.042C193.195 209.51 194.368 210.681 195.848 210.681H203.803C204.655 210.681 205.283 211.306 205.283 212.149V214.841C205.283 215.684 204.655 216.309 203.803 216.309H194.399C192.918 216.309 191.746 217.48 191.746 218.948V224.58C191.746 226.048 192.918 227.219 194.399 227.219H211.217V311.171C202.709 313.539 196.419 321.29 196.419 330.54C196.419 341.643 205.419 350.591 216.576 350.591C227.68 350.591 236.733 341.56 236.733 330.54C236.733 321.321 230.443 313.539 221.935 311.171V208.042Z" fill="white" stroke="#CF583B" stroke-width="1.65" stroke-linecap="round" stroke-linejoin="round" stroke-dasharray="3.3 6.6"/>
<path d="M209.836 342.133C209.586 342.337 209.319 342.348 209.036 342.167C208.751 341.985 208.666 341.735 208.78 341.417L211.336 333.067L204.69 328.295C204.417 328.114 204.332 327.864 204.435 327.546C204.537 327.227 204.747 327.068 205.065 327.068H213.312L215.937 318.344C215.982 318.162 216.068 318.037 216.193 317.969C216.318 317.9 216.448 317.866 216.584 317.866C216.721 317.866 216.852 317.9 216.977 317.969C217.101 318.037 217.186 318.162 217.232 318.344L219.856 327.068H228.104C228.422 327.068 228.632 327.227 228.735 327.546C228.837 327.864 228.751 328.114 228.479 328.295L221.833 333.067L224.389 341.417C224.503 341.735 224.418 341.985 224.134 342.167C223.85 342.348 223.582 342.337 223.332 342.133L216.584 337.02L209.836 342.133Z" fill="#CF4018"/>
</g>
<defs>
<clipPath id="clip0_2001_1279">
<rect width="346" height="512" rx="24" fill="white"/>
</clipPath>
</defs>
</svg>
