<svg width="346" height="512" viewBox="0 0 346 512" fill="none" xmlns="http://www.w3.org/2000/svg">
<g clip-path="url(#clip0_2001_830)">
<rect width="346" height="512" rx="24" fill="#D0E2FF"/>
<rect width="412.5" height="330" transform="translate(-33.25 91)" fill="#D0E2FF"/>
<path d="M139.655 208.042C139.655 206.57 138.482 205.403 137.006 205.403H113.568C112.088 205.403 110.915 206.57 110.915 208.042C110.915 209.51 112.088 210.681 113.568 210.681H121.523C122.375 210.681 123.003 211.306 123.003 212.149V214.841C123.003 215.684 122.375 216.309 121.523 216.309H112.118C110.638 216.309 109.465 217.48 109.465 218.948V224.58C109.465 226.048 110.638 227.219 112.118 227.219H128.937V311.171C120.429 313.539 114.139 321.29 114.139 330.54C114.139 341.643 123.139 350.591 134.296 350.591C145.4 350.591 154.453 341.56 154.453 330.54C154.453 321.321 148.163 313.539 139.655 311.171V208.042Z" fill="white" stroke="#CF583B" stroke-width="1.65" stroke-linecap="round" stroke-linejoin="round" stroke-dasharray="3.3 6.6"/>
<path d="M127.546 342.133C127.296 342.337 127.029 342.348 126.745 342.167C126.461 341.985 126.375 341.735 126.489 341.417L129.045 333.067L122.399 328.295C122.127 328.114 122.042 327.864 122.144 327.546C122.246 327.227 122.456 327.068 122.774 327.068H131.022L133.646 318.344C133.692 318.162 133.777 318.037 133.903 317.969C134.027 317.9 134.157 317.866 134.294 317.866C134.43 317.866 134.561 317.9 134.686 317.969C134.811 318.037 134.896 318.162 134.941 318.344L137.566 327.068H145.813C146.131 327.068 146.342 327.227 146.445 327.546C146.546 327.864 146.461 328.114 146.188 328.295L139.542 333.067L142.098 341.417C142.212 341.735 142.127 341.985 141.844 342.167C141.559 342.348 141.292 342.337 141.042 342.133L134.294 337.02L127.546 342.133Z" fill="#CF4018"/>
<path d="M221.935 208.042C221.935 206.57 220.762 205.403 219.286 205.403H195.848C194.367 205.403 193.195 206.57 193.195 208.042C193.195 209.51 194.367 210.681 195.848 210.681H203.802C204.655 210.681 205.283 211.306 205.283 212.149V214.841C205.283 215.684 204.655 216.309 203.802 216.309H194.398C192.918 216.309 191.745 217.48 191.745 218.948V224.58C191.745 226.048 192.918 227.219 194.398 227.219H211.217V311.171C202.709 313.539 196.419 321.29 196.419 330.54C196.419 341.643 205.419 350.591 216.576 350.591C227.68 350.591 236.733 341.56 236.733 330.54C236.733 321.321 230.443 313.539 221.935 311.171V208.042Z" fill="white" stroke="#CF583B" stroke-width="1.65" stroke-linecap="round" stroke-linejoin="round" stroke-dasharray="3.3 6.6"/>
<path d="M209.561 341.562C209.311 341.767 209.044 341.778 208.761 341.596C208.476 341.415 208.391 341.165 208.504 340.847L211.061 332.497L204.415 327.725C204.142 327.543 204.057 327.293 204.16 326.975C204.262 326.657 204.471 326.498 204.79 326.498H213.037L215.662 317.773C215.707 317.591 215.792 317.466 215.918 317.398C216.042 317.33 216.173 317.296 216.309 317.296C216.445 317.296 216.576 317.33 216.702 317.398C216.826 317.466 216.911 317.591 216.957 317.773L219.581 326.498H227.829C228.147 326.498 228.357 326.657 228.46 326.975C228.562 327.293 228.476 327.543 228.204 327.725L221.558 332.497L224.114 340.847C224.227 341.165 224.142 341.415 223.859 341.596C223.574 341.778 223.307 341.767 223.057 341.562L216.309 336.45L209.561 341.562Z" fill="#CF4018"/>
</g>
<defs>
<clipPath id="clip0_2001_830">
<rect width="346" height="512" rx="24" fill="white"/>
</clipPath>
</defs>
</svg>
