<svg width="150" height="231" viewBox="0 0 150 231" fill="none" xmlns="http://www.w3.org/2000/svg">
<path d="M143.653 147.221C144.485 147.444 145.313 146.987 145.527 146.19L148.92 133.528C149.134 132.729 148.645 131.918 147.813 131.696C146.983 131.473 146.152 131.93 145.938 132.729L144.786 137.027C144.663 137.487 144.219 137.732 143.743 137.604L142.222 137.197C141.746 137.069 141.484 136.635 141.607 136.175L142.968 131.094C143.183 130.295 142.691 129.484 141.861 129.262L138.68 128.409C137.85 128.187 137.019 128.643 136.805 129.443L134.37 138.529L86.9418 125.82C86.8355 120.865 83.367 116.294 78.1413 114.894C71.8691 113.213 65.5109 116.721 63.896 122.748C62.2886 128.747 66.0804 135.004 72.3058 136.672C77.5142 138.068 82.8209 135.848 85.3904 131.61L143.653 147.221Z" fill="#CF583B" stroke="#CF583B" stroke-width="0.72" stroke-linecap="round" stroke-linejoin="round"/>
<path d="M23.8865 0.360077L29.8151 31.0762L118.056 34.1919C118.056 34.1919 114.83 0.801242 114.83 0.360077" fill="#48466D"/>
<path d="M23.8865 0.360077L29.8151 31.0762L118.056 34.1919C118.056 34.1919 114.83 0.801242 114.83 0.360077" stroke="#333333" stroke-width="0.72" stroke-linecap="round" stroke-linejoin="round"/>
<path d="M119.633 22.1701C119.633 22.8594 124.238 55.2575 124.238 55.2575H30.0959L24.9669 23.3833C24.9669 23.3833 37.4034 15.9938 74.9057 15.9938C90.045 15.7171 105.135 17.8009 119.633 22.1701V22.1701Z" fill="#ABEDD8" stroke="#333333" stroke-width="0.72" stroke-linecap="round" stroke-linejoin="round"/>
<path d="M128.504 230.539V210.163H84.5486L81.9014 230.539" fill="#48466D"/>
<path d="M128.504 230.539V210.163H84.5486L81.9014 230.539" stroke="#333333" stroke-width="0.72" stroke-linecap="round" stroke-linejoin="round"/>
<path d="M135.835 163.288C136.196 162.391 136.856 161.646 137.703 161.18C138.55 160.714 139.533 160.555 140.484 160.73C141.435 160.905 142.296 161.404 142.921 162.141C143.547 162.879 143.898 163.81 143.915 164.777C143.929 165.317 143.826 165.853 143.612 166.349L141.516 171.615L136.635 183.968V184.188L143.143 180.797C144.035 180.237 145.113 180.055 146.14 180.29C147.166 180.526 148.057 181.159 148.617 182.051C149.176 182.943 149.358 184.021 149.123 185.048C148.888 186.074 148.254 186.965 147.362 187.525L136.828 196.403C134.239 198.585 132.023 201.174 130.265 204.068L126.57 210.189H87.2478L89.1229 195.41C89.3502 193.391 89.046 191.348 88.2405 189.482L81.9258 174.869C81.7262 174.292 81.6237 173.686 81.6224 173.076C81.6298 171.975 81.9559 170.899 82.5614 169.978C83.1668 169.058 84.0258 168.332 85.0346 167.889C86.0433 167.446 87.1588 167.304 88.2464 167.481C89.3339 167.658 90.347 168.145 91.1635 168.885C91.1635 168.885 95.3549 173.076 96.6785 174.4C100.842 178.15 110.797 177.157 116.56 161.523L120.228 152.893C120.604 151.932 121.305 151.133 122.21 150.635C123.114 150.137 124.164 149.972 125.178 150.169C126.191 150.366 127.104 150.912 127.756 151.712C128.408 152.512 128.76 153.515 128.749 154.547C128.754 155.143 128.641 155.733 128.418 156.284" fill="white"/>
<path d="M135.835 163.288C136.196 162.391 136.856 161.646 137.703 161.18C138.55 160.714 139.533 160.555 140.484 160.73C141.435 160.905 142.296 161.404 142.921 162.141C143.547 162.879 143.898 163.81 143.915 164.777C143.929 165.317 143.826 165.853 143.612 166.349L141.516 171.615L136.635 183.968V184.188L143.143 180.797C144.035 180.237 145.113 180.055 146.14 180.29C147.166 180.526 148.057 181.159 148.617 182.051C149.176 182.943 149.358 184.021 149.123 185.048C148.888 186.074 148.254 186.965 147.362 187.525L136.828 196.403C134.239 198.585 132.023 201.174 130.265 204.068L126.57 210.189H87.2478L89.1229 195.41C89.3502 193.391 89.046 191.348 88.2405 189.482L81.9258 174.869C81.7262 174.292 81.6237 173.686 81.6224 173.076C81.6298 171.975 81.9559 170.899 82.5614 169.978C83.1668 169.058 84.0258 168.332 85.0346 167.889C86.0433 167.446 87.1588 167.304 88.2464 167.481C89.3339 167.658 90.347 168.145 91.1635 168.885C91.1635 168.885 95.3549 173.076 96.6785 174.4C100.842 178.15 110.797 177.157 116.56 161.523L120.228 152.893C120.604 151.932 121.305 151.133 122.21 150.635C123.114 150.137 124.164 149.972 125.178 150.169C126.191 150.366 127.104 150.912 127.756 151.712C128.408 152.512 128.76 153.515 128.749 154.547C128.754 155.143 128.641 155.733 128.418 156.284" stroke="#333333" stroke-width="0.72" stroke-linecap="round" stroke-linejoin="round"/>
<path d="M121.143 175.033L128.56 156.394C129.011 155.426 129.778 154.639 130.734 154.163C131.691 153.687 132.78 153.55 133.825 153.775C134.869 153.999 135.807 154.571 136.484 155.398C137.16 156.224 137.536 157.256 137.55 158.324C137.548 159.019 137.397 159.705 137.109 160.337L129.443 179.279" fill="white"/>
<path d="M121.143 175.033L128.56 156.394C129.011 155.426 129.778 154.639 130.734 154.163C131.691 153.687 132.78 153.55 133.825 153.775C134.869 153.999 135.807 154.571 136.484 155.398C137.16 156.224 137.536 157.256 137.55 158.324C137.548 159.019 137.397 159.705 137.109 160.337L129.443 179.279" stroke="#333333" stroke-width="0.72" stroke-linecap="round" stroke-linejoin="round"/>
<path d="M42.8484 53.3772L41.5799 48.3038C34.4379 50.1512 30.0811 52.55 30.0811 55.197C30.0811 57.844 33.8037 59.8844 39.9806 61.6491C41.1529 60.6513 42.0371 59.3582 42.5413 57.9038C43.0456 56.4493 43.1516 54.8864 42.8484 53.3772Z" fill="#78C7E0" stroke="#333333" stroke-width="0.72" stroke-linecap="round" stroke-linejoin="round"/>
<path d="M124.224 55.1975C124.224 51.8612 117.331 48.9109 106.576 46.9257L107.927 63.111C117.882 61.236 124.224 58.396 124.224 55.1975Z" fill="#78C7E0" stroke="#333333" stroke-width="0.72" stroke-linecap="round" stroke-linejoin="round"/>
<path d="M39.9884 61.6536L39.4369 62.1223L15.6946 79.4104C13.7599 80.8308 12.2296 82.7317 11.255 84.9249L1.3555 106.763C0.371846 108.463 0.103947 110.484 0.610741 112.382C1.11753 114.28 2.3575 115.898 4.05787 116.882C5.75824 117.865 7.77972 118.133 9.67761 117.627C11.5755 117.12 13.1943 115.88 14.178 114.18L23.333 93.8034C24.2765 91.7228 25.7156 89.9052 27.5244 88.5095L44.2074 75.7432L27.5244 88.5095C25.7156 89.9052 24.2765 91.7228 23.333 93.8034L14.178 114.18C13.198 115.88 12.9336 117.9 13.443 119.795C13.9524 121.69 15.1938 123.305 16.8942 124.285C18.5945 125.265 20.6145 125.529 22.5098 125.02C24.4052 124.511 26.0205 123.269 27.0005 121.569V121.569L36.2382 101.248C37.1671 99.1664 38.5977 97.3474 40.402 95.9541L57.1126 83.1603L40.402 95.9541C38.5977 97.3474 37.1671 99.1664 36.2382 101.248L27.0832 121.597C26.2203 123.285 26.0396 125.241 26.5785 127.059C27.1173 128.877 28.3345 130.418 29.9782 131.364C31.6218 132.31 33.5661 132.587 35.4089 132.14C37.2516 131.692 38.8517 130.553 39.8781 128.959V128.959L48.7574 109.161C49.7119 107.134 51.14 105.366 52.9212 104.005L69.6042 91.2116L52.9212 104.005C51.1124 105.401 49.6733 107.219 48.7298 109.299L39.8505 129.097C38.8888 130.812 38.6478 132.838 39.1804 134.731C39.7131 136.623 40.9758 138.227 42.6908 139.188C44.4058 140.15 46.4326 140.391 48.3253 139.858C50.218 139.326 51.8216 138.063 52.7833 136.348V136.348L64.3374 114.814C65.63 112.419 67.595 110.454 69.9903 109.161L87.28 99.9522C88.2187 99.4523 89.2747 99.2141 90.3372 99.2626C91.3997 99.3111 92.4296 99.6445 93.319 100.228L113.339 113.435C115.228 114.742 117.558 115.248 119.819 114.841C121.565 114.522 123.173 113.683 124.433 112.433C125.693 111.183 126.545 109.581 126.878 107.838C127.147 106.41 127.053 104.937 126.605 103.554C126.157 102.172 125.369 100.924 124.314 99.9246V99.9246L115.627 91.3771C112.036 87.8582 109.783 83.1976 109.257 78.1973L106.665 47.0124C96.9433 45.39 87.0987 44.6151 77.2426 44.6963C65.283 44.499 53.3423 45.7207 41.6705 48.3359L42.939 53.4092C43.2552 54.9087 43.1664 56.4653 42.6818 57.919C42.1971 59.3728 41.3341 60.6712 40.1814 61.6811" fill="white"/>
<path d="M39.9884 61.6536L39.4369 62.1223L15.6946 79.4104C13.7599 80.8308 12.2296 82.7317 11.255 84.9249L1.3555 106.763C0.371846 108.463 0.103947 110.484 0.610741 112.382C1.11753 114.28 2.3575 115.898 4.05787 116.882C5.75824 117.865 7.77972 118.133 9.67761 117.627C11.5755 117.12 13.1943 115.88 14.178 114.18L23.333 93.8034C24.2765 91.7228 25.7156 89.9052 27.5244 88.5095L44.2074 75.7432L27.5244 88.5095C25.7156 89.9052 24.2765 91.7228 23.333 93.8034L14.178 114.18C13.198 115.88 12.9336 117.9 13.443 119.795C13.9524 121.69 15.1938 123.305 16.8942 124.285C18.5945 125.265 20.6145 125.529 22.5098 125.02C24.4052 124.511 26.0205 123.269 27.0005 121.569V121.569L36.2382 101.248C37.1671 99.1664 38.5977 97.3474 40.402 95.9541L57.1126 83.1603L40.402 95.9541C38.5977 97.3474 37.1671 99.1664 36.2382 101.248L27.0832 121.597C26.2203 123.285 26.0396 125.241 26.5785 127.059C27.1173 128.877 28.3345 130.418 29.9782 131.364C31.6218 132.31 33.5661 132.587 35.4089 132.14C37.2516 131.692 38.8517 130.553 39.8781 128.959V128.959L48.7574 109.161C49.7119 107.134 51.14 105.366 52.9212 104.005L69.6042 91.2116L52.9212 104.005C51.1124 105.401 49.6733 107.219 48.7298 109.299L39.8505 129.097C38.8888 130.812 38.6478 132.838 39.1804 134.731C39.7131 136.623 40.9758 138.227 42.6908 139.188C44.4058 140.15 46.4326 140.391 48.3253 139.858C50.218 139.326 51.8216 138.063 52.7833 136.348V136.348L64.3374 114.814C65.63 112.419 67.595 110.454 69.9903 109.161L87.28 99.9522C88.2187 99.4523 89.2747 99.2141 90.3372 99.2626C91.3997 99.3111 92.4296 99.6445 93.319 100.228L113.339 113.435C115.228 114.742 117.558 115.248 119.819 114.841C121.565 114.522 123.173 113.683 124.433 112.433C125.693 111.183 126.545 109.581 126.878 107.838C127.147 106.41 127.053 104.937 126.605 103.554C126.157 102.172 125.369 100.924 124.314 99.9246V99.9246L115.627 91.3771C112.036 87.8582 109.783 83.1976 109.257 78.1973L106.665 47.0124C96.9433 45.39 87.0987 44.6151 77.2426 44.6963C65.283 44.499 53.3423 45.7207 41.6705 48.3359L42.939 53.4092C43.2552 54.9087 43.1664 56.4653 42.6818 57.919C42.1971 59.3728 41.3341 60.6712 40.1814 61.6811" stroke="#333333" stroke-width="0.72" stroke-linecap="round" stroke-linejoin="round"/>
<path d="M68.934 130.022C68.7488 130.062 68.6063 129.997 68.5066 129.827C68.4065 129.656 68.4285 129.502 68.5728 129.366L72.1367 125.684L69.9363 121.417C69.8423 121.249 69.8646 121.096 70.0031 120.957C70.1412 120.818 70.2934 120.791 70.4596 120.876L74.7704 123.076L78.47 119.217C78.5422 119.134 78.6202 119.091 78.704 119.089C78.7872 119.087 78.8645 119.104 78.9357 119.14C79.007 119.176 79.0663 119.229 79.1137 119.298C79.1605 119.367 79.1716 119.455 79.1469 119.562L78.1905 124.822L82.5012 127.023C82.6675 127.108 82.735 127.247 82.7038 127.441C82.6721 127.634 82.5608 127.742 82.3698 127.764L77.6231 128.485L76.7311 133.531C76.7056 133.728 76.5945 133.836 76.3978 133.855C76.2006 133.874 76.064 133.797 75.9879 133.623L73.825 129.151L68.934 130.022Z" fill="white"/>
</svg>
