<svg width="151" height="232" viewBox="0 0 151 232" fill="none" xmlns="http://www.w3.org/2000/svg">
<path d="M144.213 147.769C145.045 147.992 145.874 147.535 146.088 146.737L149.48 134.076C149.695 133.276 149.205 132.466 148.373 132.243C147.544 132.021 146.713 132.477 146.499 133.277L145.347 137.574C145.224 138.034 144.78 138.279 144.303 138.151L142.783 137.744C142.306 137.616 142.044 137.182 142.168 136.722L143.529 131.642C143.743 130.842 143.251 130.031 142.422 129.809L139.24 128.956C138.411 128.734 137.58 129.191 137.365 129.99L134.931 139.076L87.5025 126.368C87.3961 121.413 83.9277 116.841 78.702 115.441C72.4297 113.761 66.0716 117.268 64.4566 123.295C62.8493 129.294 66.6411 135.552 72.8665 137.22C78.0749 138.615 83.3816 136.395 85.9511 132.157L144.213 147.769Z" fill="#CF583B" stroke="#CF583B" stroke-width="0.72" stroke-linecap="round" stroke-linejoin="round"/>
<path d="M24.4492 0.914062L30.3779 31.6302L118.619 34.7459C118.619 34.7459 115.392 1.35523 115.392 0.914062" fill="#48466D"/>
<path d="M24.4492 0.914062L30.3779 31.6302L118.619 34.7459C118.619 34.7459 115.392 1.35523 115.392 0.914062" stroke="#333333" stroke-width="0.72" stroke-linecap="round" stroke-linejoin="round"/>
<path d="M120.193 22.7241C120.193 23.4134 124.798 55.8115 124.798 55.8115H30.6563L25.5273 23.9373C25.5273 23.9373 37.9638 16.5478 75.4661 16.5478C90.6055 16.2711 105.695 18.3549 120.193 22.7241Z" fill="#ABEDD8" stroke="#333333" stroke-width="0.72" stroke-linecap="round" stroke-linejoin="round"/>
<path d="M129.067 231.095V210.719H85.1121L82.4648 231.095" fill="#48466D"/>
<path d="M129.067 231.095V210.719H85.1121L82.4648 231.095" stroke="#333333" stroke-width="0.72" stroke-linecap="round" stroke-linejoin="round"/>
<path d="M136.397 163.84C136.757 162.943 137.417 162.199 138.264 161.732C139.112 161.266 140.094 161.107 141.045 161.282C141.996 161.458 142.857 161.956 143.482 162.694C144.108 163.431 144.459 164.363 144.476 165.329C144.49 165.869 144.387 166.405 144.173 166.901L142.077 172.167L137.196 184.52V184.741L143.704 181.349C144.596 180.79 145.674 180.608 146.701 180.843C147.727 181.078 148.618 181.712 149.178 182.604C149.737 183.496 149.919 184.574 149.684 185.6C149.449 186.627 148.815 187.518 147.923 188.077L137.389 196.955C134.8 199.138 132.584 201.727 130.826 204.621L127.131 210.742H87.8089L89.6841 195.963C89.9114 193.944 89.6072 191.9 88.8017 190.035L82.4869 175.421C82.2874 174.844 82.1849 174.239 82.1836 173.629C82.191 172.527 82.5171 171.451 83.1225 170.531C83.728 169.61 84.5869 168.885 85.5957 168.441C86.6045 167.998 87.72 167.856 88.8075 168.033C89.8951 168.21 90.9082 168.698 91.7246 169.438C91.7246 169.438 95.9161 173.629 97.2397 174.952C101.404 178.702 111.358 177.709 117.121 162.076L120.789 153.445C121.165 152.484 121.866 151.685 122.771 151.187C123.675 150.69 124.725 150.525 125.739 150.722C126.752 150.918 127.665 151.464 128.317 152.264C128.97 153.064 129.321 154.068 129.31 155.1C129.315 155.695 129.202 156.285 128.979 156.837" fill="white"/>
<path d="M136.397 163.84C136.757 162.943 137.417 162.199 138.264 161.732C139.112 161.266 140.094 161.107 141.045 161.282C141.996 161.458 142.857 161.956 143.482 162.694C144.108 163.431 144.459 164.363 144.476 165.329C144.49 165.869 144.387 166.405 144.173 166.901L142.077 172.167L137.196 184.52V184.741L143.704 181.349C144.596 180.79 145.674 180.608 146.701 180.843C147.727 181.078 148.618 181.712 149.178 182.604C149.737 183.496 149.919 184.574 149.684 185.6C149.449 186.627 148.815 187.518 147.923 188.077L137.389 196.955C134.8 199.138 132.584 201.727 130.826 204.621L127.131 210.742H87.8089L89.6841 195.963C89.9114 193.944 89.6072 191.9 88.8017 190.035L82.4869 175.421C82.2874 174.844 82.1849 174.239 82.1836 173.629C82.191 172.527 82.5171 171.451 83.1225 170.531C83.728 169.61 84.5869 168.885 85.5957 168.441C86.6045 167.998 87.72 167.856 88.8075 168.033C89.8951 168.21 90.9082 168.698 91.7246 169.438C91.7246 169.438 95.9161 173.629 97.2397 174.952C101.404 178.702 111.358 177.709 117.121 162.076L120.789 153.445C121.165 152.484 121.866 151.685 122.771 151.187C123.675 150.69 124.725 150.525 125.739 150.722C126.752 150.918 127.665 151.464 128.317 152.264C128.97 153.064 129.321 154.068 129.31 155.1C129.315 155.695 129.202 156.285 128.979 156.837" stroke="#333333" stroke-width="0.72" stroke-linecap="round" stroke-linejoin="round"/>
<path d="M121.703 175.582L129.121 156.943C129.572 155.975 130.338 155.188 131.295 154.712C132.251 154.237 133.341 154.1 134.385 154.324C135.43 154.548 136.367 155.12 137.044 155.947C137.721 156.773 138.097 157.805 138.11 158.873C138.108 159.568 137.958 160.254 137.669 160.886L130.003 179.829" fill="white"/>
<path d="M121.703 175.582L129.121 156.943C129.572 155.975 130.338 155.188 131.295 154.712C132.251 154.237 133.341 154.1 134.385 154.324C135.43 154.548 136.367 155.12 137.044 155.947C137.721 156.773 138.097 157.805 138.11 158.873C138.108 159.568 137.958 160.254 137.669 160.886L130.003 179.829" stroke="#333333" stroke-width="0.72" stroke-linecap="round" stroke-linejoin="round"/>
<path d="M43.4119 53.9328L42.1434 48.8594C35.0014 50.7068 30.6445 53.1056 30.6445 55.7526C30.6445 58.3996 34.3672 60.44 40.544 62.2047C41.7164 61.2069 42.6005 59.9138 43.1048 58.4593C43.6091 57.0049 43.7151 55.442 43.4119 53.9328Z" fill="#78C7E0" stroke="#333333" stroke-width="0.72" stroke-linecap="round" stroke-linejoin="round"/>
<path d="M124.785 55.7484C124.785 52.4121 117.891 49.4618 107.137 47.4766L108.488 63.6618C118.443 61.7869 124.785 58.9469 124.785 55.7484Z" fill="#78C7E0" stroke="#333333" stroke-width="0.72" stroke-linecap="round" stroke-linejoin="round"/>
<path d="M40.5503 62.2044L39.9988 62.6731L16.2565 79.9613C14.3218 81.3817 12.7915 83.2826 11.8169 85.4758L1.91739 107.314C0.933736 109.014 0.665837 111.035 1.17263 112.933C1.67942 114.83 2.91939 116.449 4.61976 117.433C6.32013 118.416 8.34161 118.684 10.2395 118.177C12.1374 117.671 13.7562 116.431 14.7399 114.731L23.8949 94.3543C24.8384 92.2737 26.2775 90.456 28.0863 89.0603L44.7693 76.2941L28.0863 89.0603C26.2775 90.456 24.8384 92.2737 23.8949 94.3543L14.7399 114.731C13.7599 116.431 13.4955 118.451 14.0049 120.346C14.5142 122.241 15.7557 123.856 17.456 124.836C19.1564 125.816 21.1764 126.08 23.0717 125.571C24.967 125.062 26.5824 123.82 27.5624 122.12L36.8001 101.799C37.729 99.7172 39.1596 97.8983 40.9639 96.505L57.6745 83.7112L40.9639 96.505C39.1596 97.8983 37.729 99.7172 36.8001 101.799L27.6451 122.148C26.7822 123.836 26.6015 125.792 27.1404 127.61C27.6792 129.428 28.8964 130.969 30.5401 131.915C32.1837 132.861 34.128 133.138 35.9708 132.691C37.8135 132.243 39.4136 131.104 40.44 129.51L49.3192 109.712C50.2738 107.685 51.7019 105.916 53.4831 104.556L70.1661 91.7624L53.4831 104.556C51.6743 105.952 50.2352 107.77 49.2917 109.85L40.4124 129.648C39.4507 131.362 39.2097 133.389 39.7423 135.282C40.275 137.174 41.5377 138.778 43.2527 139.739C44.9677 140.701 46.9945 140.942 48.8872 140.409C50.7799 139.877 52.3835 138.614 53.3452 136.899L64.8993 115.365C66.1919 112.97 68.1568 111.005 70.5522 109.712L87.8419 100.503C88.7806 100.003 89.8366 99.765 90.8991 99.8135C91.9616 99.862 92.9915 100.195 93.8808 100.779L113.9 113.986C115.79 115.293 118.12 115.799 120.381 115.392C122.127 115.073 123.735 114.234 124.995 112.984C126.255 111.734 127.107 110.132 127.44 108.389C127.709 106.961 127.615 105.488 127.167 104.105C126.719 102.723 125.931 101.475 124.875 100.475L116.189 91.9279C112.598 88.4091 110.345 83.7484 109.819 78.7481L107.227 47.5632C97.5052 45.9409 87.6606 45.1659 77.8045 45.2471C65.8449 45.0499 53.9042 46.2716 42.2324 48.8867L43.5009 53.9601C43.8171 55.4595 43.7283 57.0161 43.2436 58.4699C42.759 59.9236 41.896 61.2221 40.7433 62.232" fill="white"/>
<path d="M40.5503 62.2044L39.9988 62.6731L16.2565 79.9613C14.3218 81.3817 12.7915 83.2826 11.8169 85.4758L1.91739 107.314C0.933736 109.014 0.665837 111.035 1.17263 112.933C1.67942 114.83 2.91939 116.449 4.61976 117.433C6.32013 118.416 8.34161 118.684 10.2395 118.177C12.1374 117.671 13.7562 116.431 14.7399 114.731L23.8949 94.3543C24.8384 92.2737 26.2775 90.456 28.0863 89.0603L44.7693 76.2941L28.0863 89.0603C26.2775 90.456 24.8384 92.2737 23.8949 94.3543L14.7399 114.731C13.7599 116.431 13.4955 118.451 14.0049 120.346C14.5142 122.241 15.7557 123.856 17.456 124.836C19.1564 125.816 21.1764 126.08 23.0717 125.571C24.967 125.062 26.5824 123.82 27.5624 122.12V122.12L36.8001 101.799C37.729 99.7172 39.1596 97.8983 40.9639 96.505L57.6745 83.7112L40.9639 96.505C39.1596 97.8983 37.729 99.7172 36.8001 101.799L27.6451 122.148C26.7822 123.836 26.6015 125.792 27.1404 127.61C27.6792 129.428 28.8964 130.969 30.5401 131.915C32.1837 132.861 34.128 133.138 35.9708 132.691C37.8135 132.243 39.4136 131.104 40.44 129.51V129.51L49.3192 109.712C50.2738 107.685 51.7019 105.916 53.4831 104.556L70.1661 91.7624L53.4831 104.556C51.6743 105.952 50.2352 107.77 49.2917 109.85L40.4124 129.648C39.4507 131.362 39.2097 133.389 39.7423 135.281C40.275 137.174 41.5377 138.778 43.2527 139.739C44.9677 140.701 46.9945 140.942 48.8872 140.409C50.7799 139.877 52.3835 138.614 53.3452 136.899V136.899L64.8992 115.365C66.1919 112.97 68.1568 111.005 70.5522 109.712L87.8419 100.503C88.7806 100.003 89.8366 99.765 90.8991 99.8135C91.9616 99.862 92.9915 100.195 93.8808 100.779L113.9 113.986C115.79 115.293 118.12 115.799 120.381 115.392C122.127 115.073 123.735 114.234 124.995 112.984C126.255 111.734 127.107 110.132 127.44 108.389C127.709 106.961 127.615 105.488 127.167 104.105C126.719 102.723 125.931 101.475 124.875 100.475V100.475L116.189 91.9279C112.598 88.4091 110.345 83.7484 109.819 78.7481L107.227 47.5632C97.5052 45.9409 87.6606 45.1659 77.8045 45.2471C65.8449 45.0499 53.9042 46.2716 42.2324 48.8867L43.5009 53.9601C43.8171 55.4595 43.7283 57.0161 43.2436 58.4699C42.759 59.9236 41.896 61.2221 40.7433 62.232" stroke="#333333" stroke-width="0.72" stroke-linecap="round" stroke-linejoin="round"/>
<mask id="mask0_86116_1288717" style="mask-type:alpha" maskUnits="userSpaceOnUse" x="63" y="113" width="27" height="27">
<rect x="72.0391" y="113.188" width="19.2" height="19.2" transform="rotate(27.0449 72.0391 113.188)" fill="#D9D9D9"/>
</mask>
<g mask="url(#mask0_86116_1288717)">
<path d="M69.4953 130.573C69.3101 130.613 69.1676 130.548 69.0679 130.377C68.9677 130.206 68.9898 130.053 69.134 129.917L72.698 126.235L70.4976 121.968C70.4036 121.8 70.4258 121.646 70.5644 121.508C70.7025 121.369 70.8546 121.341 71.0209 121.426L75.3316 123.627L79.0312 119.767C79.1035 119.684 79.1815 119.642 79.2652 119.64C79.3485 119.637 79.4258 119.654 79.497 119.69C79.5683 119.727 79.6276 119.78 79.6749 119.849C79.7218 119.918 79.7329 120.006 79.7081 120.113L78.7517 125.373L83.0625 127.574C83.2287 127.659 83.2963 127.798 83.2651 127.992C83.2334 128.185 83.1221 128.293 82.9311 128.315L78.1844 129.036L77.2924 134.082C77.2669 134.278 77.1558 134.386 76.9591 134.406C76.7619 134.425 76.6253 134.347 76.5492 134.174L74.3863 129.701L69.4953 130.573Z" fill="white"/>
</g>
</svg>
