<svg width="24" height="24" viewBox="0 0 24 24" fill="none" xmlns="http://www.w3.org/2000/svg">
<path fill-rule="evenodd" clip-rule="evenodd" d="M12.8276 7.8C13.925 7.8 14.9772 8.24282 15.7532 9.03047C16.5292 9.81812 16.9655 10.8861 16.9655 12V15.0614C18.8689 14.738 20.2309 15.0533 20.5991 15.9353C20.6666 16.1118 20.6978 16.3007 20.6907 16.4898C20.6836 16.6791 20.6377 16.8648 20.5571 17.0356C20.451 17.277 20.3117 17.5023 20.1433 17.7039C23.9999 18.4389 24 19.4298 24 19.77C24 21.9288 16.1379 22.5 12 22.5C7.86207 22.5 0 21.9288 0 19.77C0 19.4298 0.000301756 18.4391 3.86099 17.7083C3.69265 17.5067 3.5533 17.2813 3.4472 17.04C3.36535 16.8689 3.31925 16.6821 3.31142 16.492C3.30366 16.3022 3.33345 16.1126 3.40086 15.9353C3.76914 15.0659 5.13105 14.7382 7.03448 15.0658V12C7.03448 10.8861 7.47075 9.81812 8.24677 9.03047C9.02278 8.24282 10.075 7.8 11.1724 7.8H12.8276ZM7.5722 16.0316C5.61513 15.5655 4.35719 15.8015 4.16272 16.2634C4.14075 16.3367 4.13343 16.4137 4.14116 16.4898C4.14898 16.5663 4.17147 16.6412 4.20797 16.7086C4.51023 17.4352 5.85984 18.6192 8.10237 19.5053C10.0015 20.2527 12.066 19.9425 13.0054 19.7241C12.7052 19.2766 12.3689 18.8551 12 18.4641C11.7458 18.672 11.4266 18.7813 11.1002 18.7736C10.7739 18.7658 10.4609 18.641 10.2166 18.4214L7.5722 16.0316ZM19.8373 16.2842C19.6428 15.8222 18.3851 15.5873 16.4321 16.0534L13.7791 18.4433C13.6367 18.5682 13.4704 18.6623 13.2909 18.72C13.5612 19.0553 13.805 19.4118 14.0194 19.7864C14.0423 19.829 14.0544 19.8768 14.056 19.9253C14.6852 19.8678 15.3047 19.7266 15.8976 19.5053C18.136 18.6192 19.4898 17.4352 19.792 16.7086C19.8602 16.5784 19.8762 16.4263 19.8373 16.2842ZM11.2015 8.64C10.3236 8.64 9.4818 8.99429 8.86099 9.62438C8.24018 10.2545 7.89116 11.1089 7.89116 12V15.1544L10.7877 17.775C10.8892 17.873 11.0238 17.928 11.1638 17.9281C11.304 17.9281 11.4394 17.8731 11.5409 17.775C11.5858 17.7319 11.6225 17.6808 11.6487 17.6241C11.685 17.5497 11.7035 17.4675 11.7026 17.3845C11.7011 17.2987 11.6811 17.2137 11.6444 17.1363C11.6288 17.102 11.609 17.0698 11.5862 17.04L9.19073 13.9359C9.13468 13.8626 9.10373 13.7728 9.10345 13.68V12H9.93103V13.5367L12 16.2339L14.069 13.5367V12H14.8966V13.68C14.9023 13.7703 14.8794 13.8601 14.8308 13.9359L12.4763 17.0105C12.5103 17.1307 12.5285 17.2551 12.5302 17.3802C12.5305 17.5051 12.5128 17.6296 12.4795 17.7498C12.4781 17.7566 12.4781 17.7638 12.4795 17.7706C12.582 17.8788 12.7229 17.9416 12.8707 17.9456C13.0186 17.9496 13.1625 17.8941 13.2705 17.7914L16.167 15.1708V12C16.167 11.1089 15.818 10.2545 15.1972 9.62438C14.5764 8.99428 13.7346 8.64003 12.8567 8.64H11.2015Z" fill="#031F2B"/>
<path fill-rule="evenodd" clip-rule="evenodd" d="M12 1.5C13.5997 1.5 14.8966 2.81628 14.8966 4.44C14.8966 6.06372 13.5997 7.38 12 7.38C10.4003 7.38 9.10345 6.06372 9.10345 4.44C9.10345 2.81628 10.4003 1.5 12 1.5ZM12 2.39578C10.8878 2.39578 9.98599 3.31113 9.98599 4.44C9.98599 5.56887 10.8878 6.48422 12 6.48422C13.1122 6.48422 14.014 5.56887 14.014 4.44C14.014 3.31113 13.1122 2.39578 12 2.39578Z" fill="#031F2B"/>
</svg>
